<svg xmlns="http://www.w3.org/2000/svg" xmlns:xlink="http://www.w3.org/1999/xlink" width="300" zoomAndPan="magnify" viewBox="0 0 224.87999 225" height="300" preserveAspectRatio="xMidYMid meet" version="1.0"><defs><clipPath id="2fe32b09a4"><path d="M 35 32 L 196.90625 32 L 196.90625 193.152344 L 35 193.152344 Z M 35 32 " clip-rule="nonzero"/></clipPath></defs><g clip-path="url(#2fe32b09a4)"><path fill="#040606" d="M 141.871094 166.757812 C 131.199219 177.421875 116.96875 183.332031 101.742188 183.332031 C 86.5 183.332031 72.269531 177.421875 61.597656 166.757812 C 39.414062 144.589844 39.414062 108.714844 61.597656 86.542969 C 72.269531 75.878906 86.5 69.957031 101.742188 69.957031 C 116.96875 69.957031 131.199219 75.878906 141.871094 86.542969 C 152.542969 97.207031 158.46875 111.425781 158.46875 126.644531 C 158.46875 141.703125 152.542969 155.921875 141.871094 166.757812 Z M 194.542969 33.753906 C 192.671875 31.882812 189.457031 31.882812 187.597656 33.753906 L 145.257812 76.050781 C 133.226562 65.558594 118 59.976562 101.742188 59.976562 C 83.957031 59.976562 67.183594 66.914062 54.65625 79.433594 C 28.753906 105.503906 28.753906 147.628906 54.65625 173.695312 C 67.183594 186.214844 83.957031 193.152344 101.742188 193.152344 C 119.511719 193.152344 136.285156 186.214844 148.8125 173.695312 C 161.34375 161.175781 168.285156 144.417969 168.285156 126.644531 C 168.285156 110.570312 162.527344 95.339844 152.199219 83.160156 L 194.542969 40.863281 C 196.570312 38.820312 196.570312 35.78125 194.542969 33.753906 " fill-opacity="1" fill-rule="nonzero"/></g></svg>