<svg xmlns="http://www.w3.org/2000/svg" xmlns:xlink="http://www.w3.org/1999/xlink" width="300" zoomAndPan="magnify" viewBox="0 0 224.87999 225" height="300" preserveAspectRatio="xMidYMid meet" version="1.0"><defs><filter x="0%" y="0%" width="100%" height="100%" id="007a030327"><feColorMatrix values="0 0 0 0 1 0 0 0 0 1 0 0 0 0 1 0 0 0 1 0" color-interpolation-filters="sRGB"/></filter><clipPath id="0d527eb333"><path d="M 11.347656 11.410156 L 213.742188 11.410156 L 213.742188 213.800781 L 11.347656 213.800781 Z M 11.347656 11.410156 " clip-rule="nonzero"/></clipPath><clipPath id="f657f07f3d"><path d="M 27 110 L 32 110 L 32 124 L 27 124 Z M 27 110 " clip-rule="nonzero"/></clipPath><clipPath id="bfa06ce88a"><path d="M 23.765625 114.683594 L 30.589844 110.058594 L 36.898438 119.363281 L 30.074219 123.992188 Z M 23.765625 114.683594 " clip-rule="nonzero"/></clipPath><clipPath id="536515291d"><path d="M 23.765625 114.683594 L 30.589844 110.058594 L 36.898438 119.363281 L 30.074219 123.992188 Z M 23.765625 114.683594 " clip-rule="nonzero"/></clipPath><clipPath id="8e3c7d551e"><path d="M 25.929688 119.671875 L 34.921875 119.671875 L 34.921875 128.664062 L 25.929688 128.664062 Z M 25.929688 119.671875 " clip-rule="nonzero"/></clipPath><clipPath id="b24bc191eb"><path d="M 25.929688 107.277344 L 34.921875 107.277344 L 34.921875 116.273438 L 25.929688 116.273438 Z M 25.929688 107.277344 " clip-rule="nonzero"/></clipPath><clipPath id="444fb078e1"><path d="M 166 49 L 176 49 L 176 61 L 166 61 Z M 166 49 " clip-rule="nonzero"/></clipPath><clipPath id="995d4ce84c"><path d="M 177.695312 52.414062 L 175.09375 60.238281 L 164.421875 56.6875 L 167.027344 48.863281 Z M 177.695312 52.414062 " clip-rule="nonzero"/></clipPath><clipPath id="707dda2df9"><path d="M 177.695312 52.414062 L 175.09375 60.238281 L 164.421875 56.6875 L 167.027344 48.863281 Z M 177.695312 52.414062 " clip-rule="nonzero"/></clipPath><clipPath id="611a0692bf"><path d="M 170.878906 54.617188 L 179.875 54.617188 L 179.875 63.613281 L 170.878906 63.613281 Z M 170.878906 54.617188 " clip-rule="nonzero"/></clipPath><clipPath id="abda2d03be"><path d="M 161.691406 45.429688 L 170.683594 45.429688 L 170.683594 54.425781 L 161.691406 54.425781 Z M 161.691406 45.429688 " clip-rule="nonzero"/></clipPath><mask id="6b4c1ca3a3"><g filter="url(#007a030327)"><rect x="-22.487999" width="269.855988" fill="#000000" y="-22.5" height="270" fill-opacity="0.32"/></g></mask><clipPath id="2c05ec8da4"><path d="M 0.550781 5 L 33 5 L 33 48 L 0.550781 48 Z M 0.550781 5 " clip-rule="nonzero"/></clipPath><clipPath id="28fceebd48"><path d="M 19 0.0546875 L 38.449219 0.0546875 L 38.449219 27 L 19 27 Z M 19 0.0546875 " clip-rule="nonzero"/></clipPath><clipPath id="6231278a56"><rect x="0" width="39" y="0" height="49"/></clipPath></defs><g clip-path="url(#0d527eb333)"><path fill="#010101" d="M 112.542969 11.4375 C 110.890625 11.4375 109.234375 11.476562 107.582031 11.558594 C 105.925781 11.640625 104.277344 11.761719 102.628906 11.925781 C 100.980469 12.085938 99.339844 12.289062 97.699219 12.53125 C 96.0625 12.773438 94.433594 13.058594 92.808594 13.382812 C 91.183594 13.703125 89.570312 14.066406 87.964844 14.46875 C 86.355469 14.871094 84.761719 15.3125 83.175781 15.792969 C 81.59375 16.273438 80.019531 16.792969 78.460938 17.351562 C 76.902344 17.910156 75.359375 18.503906 73.828125 19.136719 C 72.300781 19.773438 70.785156 20.441406 69.289062 21.148438 C 67.792969 21.859375 66.316406 22.601562 64.855469 23.382812 C 63.394531 24.164062 61.953125 24.980469 60.535156 25.832031 C 59.113281 26.679688 57.714844 27.566406 56.339844 28.488281 C 54.960938 29.40625 53.609375 30.359375 52.277344 31.347656 C 50.949219 32.332031 49.644531 33.351562 48.363281 34.402344 C 47.085938 35.453125 45.832031 36.53125 44.605469 37.644531 C 43.378906 38.757812 42.179688 39.898438 41.007812 41.070312 C 39.835938 42.238281 38.695312 43.4375 37.585938 44.664062 C 36.472656 45.890625 35.390625 47.144531 34.339844 48.425781 C 33.289062 49.703125 32.273438 51.007812 31.285156 52.339844 C 30.300781 53.667969 29.347656 55.023438 28.425781 56.398438 C 27.507812 57.777344 26.621094 59.175781 25.769531 60.59375 C 24.917969 62.015625 24.101562 63.453125 23.324219 64.914062 C 22.542969 66.375 21.796875 67.851562 21.089844 69.351562 C 20.382812 70.847656 19.710938 72.359375 19.078125 73.890625 C 18.445312 75.417969 17.847656 76.964844 17.289062 78.523438 C 16.734375 80.082031 16.214844 81.652344 15.734375 83.238281 C 15.253906 84.820312 14.8125 86.417969 14.410156 88.023438 C 14.007812 89.628906 13.644531 91.246094 13.320312 92.867188 C 12.996094 94.492188 12.714844 96.121094 12.472656 97.761719 C 12.230469 99.398438 12.027344 101.039062 11.863281 102.6875 C 11.703125 104.335938 11.582031 105.988281 11.5 107.640625 C 11.417969 109.292969 11.378906 110.949219 11.378906 112.605469 C 11.378906 114.261719 11.417969 115.914062 11.5 117.570312 C 11.582031 119.222656 11.703125 120.875 11.863281 122.519531 C 12.027344 124.167969 12.230469 125.8125 12.472656 127.449219 C 12.714844 129.085938 12.996094 130.71875 13.320312 132.339844 C 13.644531 133.964844 14.007812 135.582031 14.410156 137.1875 C 14.8125 138.792969 15.253906 140.386719 15.734375 141.972656 C 16.214844 143.558594 16.734375 145.128906 17.289062 146.6875 C 17.847656 148.246094 18.445312 149.789062 19.078125 151.320312 C 19.710938 152.851562 20.382812 154.363281 21.089844 155.859375 C 21.796875 157.355469 22.542969 158.835938 23.324219 160.296875 C 24.101562 161.753906 24.917969 163.195312 25.769531 164.617188 C 26.621094 166.035156 27.507812 167.433594 28.425781 168.8125 C 29.347656 170.1875 30.300781 171.539062 31.285156 172.871094 C 32.273438 174.199219 33.289062 175.503906 34.339844 176.785156 C 35.390625 178.066406 36.472656 179.316406 37.585938 180.546875 C 38.695312 181.773438 39.835938 182.96875 41.007812 184.140625 C 42.179688 185.3125 43.378906 186.453125 44.605469 187.566406 C 45.832031 188.675781 47.085938 189.757812 48.363281 190.808594 C 49.644531 191.859375 50.949219 192.878906 52.277344 193.863281 C 53.609375 194.851562 54.960938 195.804688 56.339844 196.722656 C 57.714844 197.644531 59.113281 198.527344 60.535156 199.378906 C 61.953125 200.230469 63.394531 201.046875 64.855469 201.828125 C 66.316406 202.605469 67.792969 203.351562 69.289062 204.058594 C 70.785156 204.765625 72.300781 205.4375 73.828125 206.070312 C 75.359375 206.707031 76.902344 207.300781 78.460938 207.859375 C 80.019531 208.417969 81.59375 208.9375 83.175781 209.417969 C 84.761719 209.898438 86.355469 210.339844 87.964844 210.742188 C 89.570312 211.144531 91.183594 211.503906 92.808594 211.828125 C 94.433594 212.152344 96.0625 212.433594 97.699219 212.675781 C 99.339844 212.921875 100.980469 213.125 102.628906 213.285156 C 104.277344 213.449219 105.925781 213.570312 107.582031 213.652344 C 109.234375 213.730469 110.890625 213.773438 112.542969 213.773438 C 114.199219 213.773438 115.855469 213.730469 117.507812 213.652344 C 119.164062 213.570312 120.8125 213.449219 122.460938 213.285156 C 124.109375 213.125 125.75 212.921875 127.390625 212.675781 C 129.027344 212.433594 130.65625 212.152344 132.28125 211.828125 C 133.90625 211.503906 135.519531 211.144531 137.125 210.742188 C 138.734375 210.339844 140.328125 209.898438 141.914062 209.417969 C 143.496094 208.9375 145.066406 208.417969 146.628906 207.859375 C 148.1875 207.300781 149.730469 206.707031 151.261719 206.070312 C 152.789062 205.4375 154.304688 204.765625 155.800781 204.058594 C 157.296875 203.351562 158.773438 202.605469 160.234375 201.828125 C 161.695312 201.046875 163.136719 200.230469 164.554688 199.378906 C 165.976562 198.527344 167.375 197.644531 168.75 196.722656 C 170.128906 195.804688 171.480469 194.851562 172.808594 193.863281 C 174.140625 192.878906 175.445312 191.859375 176.726562 190.808594 C 178.003906 189.757812 179.257812 188.675781 180.484375 187.566406 C 181.710938 186.453125 182.910156 185.3125 184.082031 184.140625 C 185.253906 182.96875 186.394531 181.773438 187.503906 180.546875 C 188.617188 179.316406 189.699219 178.066406 190.75 176.785156 C 191.800781 175.503906 192.816406 174.199219 193.804688 172.871094 C 194.789062 171.539062 195.742188 170.1875 196.664062 168.8125 C 197.582031 167.433594 198.46875 166.035156 199.320312 164.617188 C 200.171875 163.195312 200.988281 161.753906 201.765625 160.296875 C 202.546875 158.835938 203.292969 157.355469 204 155.859375 C 204.707031 154.363281 205.378906 152.851562 206.011719 151.320312 C 206.644531 149.789062 207.242188 148.246094 207.796875 146.6875 C 208.355469 145.128906 208.875 143.558594 209.355469 141.972656 C 209.835938 140.386719 210.277344 138.792969 210.679688 137.1875 C 211.082031 135.582031 211.445312 133.964844 211.769531 132.339844 C 212.089844 130.71875 212.375 129.085938 212.617188 127.449219 C 212.859375 125.8125 213.0625 124.167969 213.226562 122.519531 C 213.386719 120.875 213.507812 119.222656 213.589844 117.570312 C 213.671875 115.914062 213.710938 114.261719 213.710938 112.605469 C 213.714844 110.949219 213.679688 109.292969 213.601562 107.636719 C 213.523438 105.984375 213.402344 104.332031 213.242188 102.683594 C 213.082031 101.035156 212.882812 99.390625 212.644531 97.75 C 212.402344 96.113281 212.121094 94.480469 211.800781 92.855469 C 211.480469 91.230469 211.121094 89.613281 210.71875 88.003906 C 210.320312 86.398438 209.878906 84.800781 209.402344 83.214844 C 208.921875 81.628906 208.402344 80.054688 207.847656 78.496094 C 207.292969 76.9375 206.695312 75.390625 206.066406 73.859375 C 205.433594 72.328125 204.761719 70.8125 204.054688 69.316406 C 203.347656 67.816406 202.605469 66.335938 201.824219 64.875 C 201.046875 63.414062 200.230469 61.972656 199.378906 60.550781 C 198.527344 59.128906 197.644531 57.730469 196.722656 56.351562 C 195.804688 54.972656 194.851562 53.621094 193.863281 52.289062 C 192.878906 50.957031 191.859375 49.652344 190.808594 48.371094 C 189.757812 47.089844 188.675781 45.835938 187.566406 44.609375 C 186.453125 43.382812 185.3125 42.183594 184.140625 41.011719 C 182.96875 39.839844 181.769531 38.695312 180.539062 37.585938 C 179.3125 36.472656 178.058594 35.390625 176.777344 34.339844 C 175.496094 33.289062 174.191406 32.269531 172.859375 31.285156 C 171.53125 30.296875 170.175781 29.347656 168.796875 28.425781 C 167.417969 27.507812 166.019531 26.621094 164.597656 25.769531 C 163.175781 24.917969 161.734375 24.105469 160.273438 23.324219 C 158.8125 22.542969 157.332031 21.800781 155.835938 21.09375 C 154.335938 20.386719 152.820312 19.71875 151.289062 19.085938 C 149.757812 18.453125 148.214844 17.859375 146.652344 17.300781 C 145.09375 16.746094 143.519531 16.226562 141.933594 15.75 C 140.347656 15.269531 138.75 14.832031 137.144531 14.429688 C 135.535156 14.03125 133.921875 13.667969 132.296875 13.347656 C 130.671875 13.027344 129.039062 12.746094 127.398438 12.507812 C 125.761719 12.265625 124.117188 12.066406 122.46875 11.90625 C 120.816406 11.746094 119.167969 11.628906 117.511719 11.550781 C 115.855469 11.472656 114.203125 11.433594 112.542969 11.4375 Z M 196.066406 111.535156 C 195.972656 104.558594 195.027344 97.703125 193.222656 90.96875 C 191.417969 84.230469 188.816406 77.820312 185.410156 71.730469 L 198.828125 64.007812 C 202.921875 71.261719 206.050781 78.90625 208.207031 86.949219 C 210.363281 94.992188 211.484375 103.179688 211.570312 111.503906 Z M 183.042969 153.308594 C 179.472656 159.496094 175.160156 165.117188 170.105469 170.167969 C 165.054688 175.21875 159.4375 179.53125 153.25 183.105469 C 151.835938 183.917969 150.402344 184.691406 148.941406 185.421875 C 147.484375 186.152344 146.003906 186.839844 144.503906 187.480469 C 143.003906 188.121094 141.488281 188.714844 139.953125 189.265625 C 138.417969 189.816406 136.867188 190.320312 135.300781 190.777344 C 133.734375 191.234375 132.15625 191.644531 130.566406 192.003906 C 128.976562 192.367188 127.375 192.683594 125.769531 192.949219 C 124.160156 193.214844 122.542969 193.433594 120.921875 193.601562 C 119.296875 193.769531 117.671875 193.890625 116.042969 193.960938 C 114.414062 194.035156 112.785156 194.058594 111.152344 194.03125 C 109.523438 194.003906 107.894531 193.929688 106.265625 193.804688 C 104.640625 193.683594 103.019531 193.507812 101.402344 193.289062 C 99.789062 193.066406 98.179688 192.796875 96.582031 192.480469 C 94.980469 192.160156 93.390625 191.796875 91.8125 191.382812 C 90.234375 190.96875 88.671875 190.511719 87.121094 190.003906 C 85.570312 189.496094 84.039062 188.945312 82.519531 188.34375 C 81.003906 187.746094 79.507812 187.101562 78.027344 186.414062 C 76.550781 185.722656 75.09375 184.992188 73.660156 184.214844 C 72.222656 183.4375 70.816406 182.621094 69.429688 181.757812 C 68.042969 180.898438 66.6875 179.996094 65.355469 179.054688 C 64.023438 178.109375 62.722656 177.128906 61.449219 176.109375 C 60.175781 175.089844 58.9375 174.03125 57.726562 172.9375 C 56.519531 171.839844 55.34375 170.710938 54.203125 169.542969 C 53.0625 168.378906 51.957031 167.179688 50.890625 165.949219 C 49.820312 164.714844 48.789062 163.453125 47.796875 162.160156 C 46.804688 160.867188 45.847656 159.542969 44.9375 158.191406 C 44.023438 156.84375 43.148438 155.464844 42.316406 154.0625 C 41.488281 152.65625 40.699219 151.230469 39.953125 149.78125 C 39.207031 148.328125 38.507812 146.859375 37.847656 145.363281 C 37.191406 143.871094 36.582031 142.359375 36.015625 140.832031 C 35.449219 139.300781 34.925781 137.757812 34.453125 136.195312 C 33.980469 134.636719 33.554688 133.0625 33.175781 131.476562 C 32.796875 129.890625 32.464844 128.292969 32.179688 126.6875 C 31.898438 125.082031 31.664062 123.46875 31.476562 121.847656 C 31.289062 120.226562 31.152344 118.601562 31.0625 116.972656 C 30.972656 115.34375 30.933594 113.714844 30.941406 112.085938 C 30.949219 110.453125 31.007812 108.824219 31.113281 107.195312 C 31.222656 105.570312 31.375 103.945312 31.578125 102.328125 C 31.785156 100.710938 32.035156 99.101562 32.335938 97.496094 C 32.636719 95.894531 32.984375 94.300781 33.382812 92.71875 C 33.777344 91.136719 34.222656 89.566406 34.710938 88.011719 C 35.203125 86.457031 35.738281 84.917969 36.320312 83.394531 C 36.902344 81.871094 37.53125 80.367188 38.207031 78.878906 C 38.878906 77.394531 39.59375 75.929688 40.355469 74.488281 C 41.117188 73.046875 41.921875 71.625 42.765625 70.234375 C 43.613281 68.839844 44.5 67.46875 45.429688 66.128906 C 46.355469 64.789062 47.324219 63.476562 48.332031 62.191406 C 49.335938 60.910156 50.382812 59.65625 51.464844 58.4375 C 52.546875 57.21875 53.664062 56.03125 54.816406 54.878906 C 55.96875 53.722656 57.15625 52.605469 58.378906 51.523438 C 59.597656 50.441406 60.851562 49.398438 62.132812 48.390625 C 63.414062 47.382812 64.726562 46.417969 66.070312 45.488281 C 67.410156 44.558594 68.777344 43.671875 70.171875 42.828125 C 71.566406 41.980469 72.984375 41.175781 74.429688 40.417969 C 75.871094 39.65625 77.335938 38.9375 78.820312 38.265625 C 80.304688 37.59375 81.8125 36.964844 83.332031 36.382812 C 84.855469 35.796875 86.398438 35.261719 87.953125 34.773438 C 89.507812 34.28125 91.078125 33.839844 92.660156 33.441406 C 94.242188 33.046875 95.832031 32.699219 97.4375 32.398438 C 99.039062 32.097656 100.648438 31.84375 102.269531 31.640625 C 103.886719 31.4375 105.507812 31.28125 107.136719 31.175781 C 108.765625 31.066406 110.394531 31.011719 112.023438 31 C 113.65625 30.992188 115.285156 31.03125 116.914062 31.121094 C 118.542969 31.210938 120.167969 31.347656 121.789062 31.535156 C 123.40625 31.722656 125.019531 31.957031 126.628906 32.242188 C 128.234375 32.523438 129.828125 32.855469 131.414062 33.234375 C 133.003906 33.613281 134.574219 34.039062 136.136719 34.515625 C 137.695312 34.988281 139.242188 35.507812 140.773438 36.074219 C 142.300781 36.640625 143.8125 37.253906 145.304688 37.910156 C 146.796875 38.566406 148.269531 39.269531 149.71875 40.011719 C 151.171875 40.757812 152.597656 41.546875 154 42.378906 C 155.40625 43.210938 156.78125 44.082031 158.132812 44.996094 C 159.484375 45.910156 160.804688 46.863281 162.101562 47.855469 C 163.394531 48.847656 164.65625 49.878906 165.886719 50.949219 C 167.121094 52.019531 168.320312 53.121094 169.484375 54.265625 C 170.648438 55.40625 171.78125 56.578125 172.875 57.789062 C 173.972656 58.996094 175.027344 60.238281 176.050781 61.511719 C 177.070312 62.78125 178.050781 64.082031 178.992188 65.414062 C 179.9375 66.746094 180.835938 68.105469 181.699219 69.488281 C 182.558594 70.875 183.378906 72.285156 184.15625 73.71875 C 184.929688 75.152344 185.664062 76.609375 186.351562 78.089844 C 187.042969 79.566406 187.683594 81.0625 188.285156 82.582031 C 188.882812 84.097656 189.4375 85.632812 189.945312 87.183594 C 190.449219 88.730469 190.910156 90.296875 191.324219 91.875 C 191.738281 93.453125 192.101562 95.039062 192.417969 96.640625 C 192.738281 98.238281 193.007812 99.847656 193.226562 101.464844 C 193.449219 103.078125 193.621094 104.699219 193.746094 106.328125 C 193.871094 107.953125 193.945312 109.582031 193.972656 111.214844 C 193.996094 112.84375 193.972656 114.472656 193.902344 116.101562 C 193.832031 117.734375 193.710938 119.359375 193.542969 120.980469 C 193.371094 122.601562 193.152344 124.21875 192.886719 125.828125 C 192.621094 127.4375 192.308594 129.035156 191.945312 130.625 C 191.582031 132.21875 191.171875 133.796875 190.714844 135.359375 C 190.257812 136.925781 189.757812 138.476562 189.207031 140.011719 C 188.65625 141.546875 188.058594 143.066406 187.417969 144.566406 C 186.777344 146.066406 186.09375 147.542969 185.363281 149.003906 C 184.632812 150.460938 183.859375 151.898438 183.042969 153.308594 Z M 71.671875 185.445312 C 77.75 188.851562 84.15625 191.460938 90.890625 193.261719 C 97.625 195.066406 104.476562 196.011719 111.445312 196.097656 L 111.445312 211.628906 C 103.109375 211.550781 94.914062 210.429688 86.859375 208.273438 C 78.808594 206.117188 71.152344 202.988281 63.890625 198.890625 Z M 113.558594 196.097656 C 120.542969 196.023438 127.410156 195.085938 134.160156 193.28125 C 140.910156 191.476562 147.328125 188.867188 153.417969 185.445312 L 161.199219 198.890625 C 153.941406 202.984375 146.289062 206.113281 138.242188 208.269531 C 130.195312 210.425781 122.003906 211.546875 113.671875 211.628906 Z M 153.417969 39.765625 C 147.335938 36.351562 140.921875 33.742188 134.1875 31.933594 C 127.449219 30.125 120.589844 29.175781 113.617188 29.082031 L 113.617188 13.578125 C 121.949219 13.660156 130.136719 14.78125 138.1875 16.941406 C 146.234375 19.097656 153.886719 22.222656 161.140625 26.320312 Z M 111.5 29.082031 C 104.519531 29.167969 97.660156 30.113281 90.914062 31.921875 C 84.171875 33.730469 77.757812 36.347656 71.671875 39.765625 L 63.949219 26.320312 C 71.210938 22.226562 78.867188 19.101562 86.921875 16.945312 C 94.972656 14.789062 103.167969 13.664062 111.5 13.578125 Z M 197.757812 62.203125 L 184.425781 69.929688 C 180.859375 63.910156 176.605469 58.429688 171.664062 53.488281 C 166.71875 48.542969 161.238281 44.289062 155.222656 40.726562 L 162.972656 27.308594 C 170.140625 31.574219 176.667969 36.664062 182.558594 42.570312 C 188.445312 48.480469 193.511719 55.023438 197.757812 62.203125 Z M 62.117188 27.390625 L 69.894531 40.726562 C 63.871094 44.289062 58.386719 48.546875 53.4375 53.496094 C 48.488281 58.445312 44.230469 63.933594 40.664062 69.957031 L 27.332031 62.203125 C 31.570312 55.03125 36.632812 48.496094 42.523438 42.601562 C 48.414062 36.707031 54.945312 31.636719 62.117188 27.390625 Z M 26.261719 64.035156 L 39.707031 71.730469 C 36.292969 77.804688 33.683594 84.207031 31.882812 90.933594 C 30.078125 97.664062 29.132812 104.511719 29.050781 111.476562 L 13.519531 111.476562 C 13.605469 103.160156 14.726562 94.984375 16.886719 86.949219 C 19.042969 78.917969 22.167969 71.277344 26.261719 64.035156 Z M 13.519531 113.648438 L 29.050781 113.648438 C 29.132812 120.628906 30.074219 127.488281 31.878906 134.230469 C 33.679688 140.976562 36.289062 147.390625 39.707031 153.476562 L 26.261719 161.203125 C 22.160156 153.941406 19.035156 146.285156 16.875 138.230469 C 14.71875 130.179688 13.597656 121.984375 13.519531 113.648438 Z M 27.332031 163.035156 L 40.664062 155.253906 C 44.230469 161.277344 48.488281 166.761719 53.4375 171.710938 C 58.386719 176.660156 63.871094 180.917969 69.894531 184.484375 L 62.117188 197.929688 C 54.9375 193.675781 48.40625 188.59375 42.515625 182.683594 C 36.625 176.773438 31.5625 170.226562 27.332031 163.035156 Z M 162.972656 197.816406 L 155.195312 184.484375 C 161.21875 180.921875 166.707031 176.667969 171.65625 171.71875 C 176.609375 166.769531 180.863281 161.28125 184.425781 155.253906 L 197.871094 163.035156 C 193.613281 170.207031 188.527344 176.742188 182.621094 182.628906 C 176.710938 188.519531 170.160156 193.582031 162.972656 197.816406 Z M 198.828125 161.171875 L 185.382812 153.476562 C 188.796875 147.398438 191.410156 140.996094 193.21875 134.261719 C 195.027344 127.527344 195.976562 120.675781 196.066406 113.703125 L 211.570312 113.703125 C 211.480469 122.03125 210.355469 130.214844 208.199219 138.257812 C 206.039062 146.300781 202.917969 153.949219 198.828125 161.203125 Z M 198.828125 161.171875 " fill-opacity="1" fill-rule="nonzero"/></g><g clip-path="url(#f657f07f3d)"><g clip-path="url(#bfa06ce88a)"><g clip-path="url(#536515291d)"><path fill="#ff0000" d="M 30.972656 123.578125 C 30.914062 123.621094 30.914062 123.621094 30.851562 123.664062 C 30.375 123.898438 29.871094 123.691406 29.578125 123.257812 C 29.429688 122.90625 25.792969 115.667969 29.894531 110.890625 C 30.246094 110.472656 30.789062 110.46875 31.207031 110.820312 C 31.625 111.167969 31.628906 111.710938 31.28125 112.128906 C 28.0625 115.941406 31.152344 122.371094 31.195312 122.433594 C 31.445312 122.804688 31.347656 123.328125 30.972656 123.578125 Z M 30.972656 123.578125 " fill-opacity="1" fill-rule="nonzero"/></g></g></g><g clip-path="url(#8e3c7d551e)"><path fill="#000000" d="M 30.425781 119.671875 C 32.910156 119.671875 34.921875 121.683594 34.921875 124.167969 C 34.921875 126.652344 32.910156 128.664062 30.425781 128.664062 C 27.941406 128.664062 25.929688 126.652344 25.929688 124.167969 C 25.929688 121.683594 27.941406 119.671875 30.425781 119.671875 Z M 30.425781 119.671875 " fill-opacity="1" fill-rule="evenodd"/></g><g clip-path="url(#b24bc191eb)"><path fill="#000000" d="M 30.425781 107.277344 C 32.910156 107.277344 34.921875 109.289062 34.921875 111.773438 C 34.921875 114.257812 32.910156 116.273438 30.425781 116.273438 C 27.941406 116.273438 25.929688 114.257812 25.929688 111.773438 C 25.929688 109.289062 27.941406 107.277344 30.425781 107.277344 Z M 30.425781 107.277344 " fill-opacity="1" fill-rule="evenodd"/></g><g clip-path="url(#444fb078e1)"><g clip-path="url(#995d4ce84c)"><g clip-path="url(#707dda2df9)"><path fill="#ff0000" d="M 166.5625 49.738281 C 166.589844 49.664062 166.589844 49.664062 166.613281 49.59375 C 166.847656 49.121094 167.371094 48.976562 167.871094 49.144531 C 168.203125 49.332031 175.488281 52.867188 175.132812 59.15625 C 175.109375 59.699219 174.683594 60.035156 174.136719 60.011719 C 173.59375 59.988281 173.261719 59.558594 173.285156 59.011719 C 173.519531 54.03125 167.15625 50.804688 167.085938 50.78125 C 166.660156 50.640625 166.421875 50.164062 166.5625 49.738281 Z M 166.5625 49.738281 " fill-opacity="1" fill-rule="nonzero"/></g></g></g><g clip-path="url(#611a0692bf)"><path fill="#000000" d="M 175.375 54.617188 C 177.859375 54.617188 179.875 56.628906 179.875 59.113281 C 179.875 61.597656 177.859375 63.613281 175.375 63.613281 C 172.890625 63.613281 170.878906 61.597656 170.878906 59.113281 C 170.878906 56.628906 172.890625 54.617188 175.375 54.617188 Z M 175.375 54.617188 " fill-opacity="1" fill-rule="evenodd"/></g><g clip-path="url(#abda2d03be)"><path fill="#000000" d="M 166.1875 45.429688 C 168.671875 45.429688 170.683594 47.441406 170.683594 49.925781 C 170.683594 52.410156 168.671875 54.425781 166.1875 54.425781 C 163.703125 54.425781 161.691406 52.410156 161.691406 49.925781 C 161.691406 47.441406 163.703125 45.429688 166.1875 45.429688 Z M 166.1875 45.429688 " fill-opacity="1" fill-rule="evenodd"/></g><g mask="url(#6b4c1ca3a3)"><g transform="matrix(1, 0, 0, 1, 93, 83)"><g clip-path="url(#6231278a56)"><g clip-path="url(#2c05ec8da4)"><path stroke-linecap="butt" transform="matrix(0.875677, 0, 0, 0.875677, -15.132144, -4.18296)" fill="none" stroke-linejoin="miter" d="M 44.844009 35.329088 C 44.844009 38.06358 44.326552 40.499195 43.282716 42.631474 C 42.243342 44.759292 40.811414 46.427645 38.991393 47.645453 C 37.175834 48.8588 35.110467 49.465473 32.804216 49.465473 C 30.502425 49.465473 28.441519 48.8588 26.617038 47.645453 C 24.801478 46.427645 23.374011 44.759292 22.334636 42.631474 C 21.295262 40.499195 20.773344 38.06358 20.773344 35.329088 C 20.773344 32.590135 21.295262 30.15452 22.334636 28.026701 C 23.374011 25.894422 24.801478 24.217148 26.617038 22.99488 C 28.441519 21.763689 30.502425 21.148094 32.804216 21.148094 C 35.110467 21.148094 37.175834 21.763689 38.991393 22.99488 C 40.811414 24.217148 42.243342 25.894422 43.282716 28.026701 C 44.326552 30.15452 44.844009 32.590135 44.844009 35.329088 Z M 38.54531 35.329088 C 38.54531 33.651814 38.299964 32.184199 37.813733 30.921783 C 37.336424 29.659367 36.662838 28.673522 35.788514 27.959789 C 34.923112 27.237134 33.928346 26.875806 32.804216 26.875806 C 31.657781 26.875806 30.645172 27.237134 29.775309 27.959789 C 28.909907 28.673522 28.23186 29.659367 27.745629 30.921783 C 27.26832 32.184199 27.027435 33.651814 27.027435 35.329088 C 27.027435 37.006362 27.26832 38.469515 27.745629 39.714088 C 28.23186 40.963122 28.909907 41.940045 29.775309 42.653778 C 30.645172 43.367512 31.657781 43.724379 32.804216 43.724379 C 33.928346 43.724379 34.91419 43.367512 35.76621 42.653778 C 36.62269 41.940045 37.300737 40.9542 37.791429 39.691784 C 38.295503 38.433829 38.54531 36.979597 38.54531 35.329088 Z M 38.54531 35.329088 " stroke="#000000" stroke-width="1.749986" stroke-opacity="1" stroke-miterlimit="4"/></g><g clip-path="url(#28fceebd48)"><path stroke-linecap="butt" transform="matrix(0.875677, 0, 0, 0.875677, -15.132144, -4.18296)" fill="none" stroke-linejoin="miter" d="M 49.010428 19.836609 C 49.010428 18.529584 49.469894 17.43668 50.388826 16.557895 C 51.307758 15.670189 52.431889 15.224106 53.770139 15.224106 C 55.16638 15.224106 56.317276 15.670189 57.222825 16.557895 C 58.123914 17.43668 58.578919 18.529584 58.578919 19.836609 C 58.578919 21.335449 58.123914 22.535414 57.222825 23.436502 C 56.317276 24.33313 55.16638 24.783674 53.770139 24.783674 C 52.431889 24.783674 51.307758 24.315287 50.388826 23.378512 C 49.469894 22.446197 49.010428 21.264076 49.010428 19.836609 Z M 52.507723 18.766008 C 52.195464 19.140719 52.039335 19.555576 52.039335 20.019503 C 52.039335 20.492351 52.195464 20.880444 52.507723 21.192702 C 52.877972 21.567413 53.301751 21.750307 53.770139 21.750307 C 54.296517 21.750307 54.711375 21.567413 55.023634 21.192702 C 55.184224 21.063338 55.300205 20.884905 55.376039 20.657402 C 55.451874 20.420978 55.492021 20.193476 55.492021 19.974895 C 55.492021 19.729549 55.451874 19.506507 55.376039 19.301309 C 55.300205 19.09611 55.184224 18.917677 55.023634 18.766008 C 54.871965 18.605418 54.680149 18.480515 54.443725 18.391298 C 54.207301 18.297621 53.984259 18.253012 53.770139 18.253012 C 53.270525 18.253012 52.846746 18.426985 52.507723 18.766008 Z M 52.507723 18.766008 " stroke="#000000" stroke-width="1.749986" stroke-opacity="1" stroke-miterlimit="4"/></g></g></g></g></svg>