<svg xmlns="http://www.w3.org/2000/svg" xmlns:xlink="http://www.w3.org/1999/xlink" width="300" zoomAndPan="magnify" viewBox="0 0 224.87999 225" height="300" preserveAspectRatio="xMidYMid meet" version="1.0"><defs><clipPath id="27ab6e3395"><path d="M 20.613281 20.675781 L 204.265625 20.675781 L 204.265625 204.324219 L 20.613281 204.324219 Z M 20.613281 20.675781 " clip-rule="nonzero"/></clipPath></defs><g clip-path="url(#27ab6e3395)"><path fill="#000000" d="M 161.414062 20.675781 C 137.785156 20.675781 118.5625 39.894531 118.5625 63.527344 C 118.5625 74.238281 122.539062 84.035156 129.058594 91.53125 L 91.472656 129.121094 C 83.972656 122.601562 74.179688 118.621094 63.464844 118.621094 C 39.835938 118.621094 20.613281 137.84375 20.613281 161.472656 C 20.613281 185.105469 39.835938 204.324219 63.464844 204.324219 C 87.097656 204.324219 106.316406 185.105469 106.316406 161.472656 C 106.316406 150.761719 102.339844 140.964844 95.820312 133.46875 L 133.40625 95.878906 C 140.90625 102.398438 150.699219 106.378906 161.414062 106.378906 C 185.042969 106.378906 204.265625 87.15625 204.265625 63.527344 C 204.265625 39.894531 185.042969 20.675781 161.414062 20.675781 Z M 63.464844 198.203125 C 43.203125 198.203125 26.734375 181.738281 26.734375 161.472656 C 26.734375 141.210938 43.203125 124.742188 63.464844 124.742188 C 83.730469 124.742188 100.195312 141.210938 100.195312 161.472656 C 100.195312 181.738281 83.730469 198.203125 63.464844 198.203125 Z M 161.414062 100.257812 C 141.152344 100.257812 124.683594 83.789062 124.683594 63.527344 C 124.683594 43.261719 141.152344 26.796875 161.414062 26.796875 C 181.675781 26.796875 198.144531 43.261719 198.144531 63.527344 C 198.144531 83.789062 181.675781 100.257812 161.414062 100.257812 Z M 161.414062 100.257812 " fill-opacity="1" fill-rule="nonzero"/></g></svg>