<svg xmlns="http://www.w3.org/2000/svg" xmlns:xlink="http://www.w3.org/1999/xlink" width="300" zoomAndPan="magnify" viewBox="0 0 224.87999 225" height="300" preserveAspectRatio="xMidYMid meet" version="1.0"><defs><clipPath id="dd955bb5e3"><path d="M 20 30 L 205.132812 30 L 205.132812 195 L 20 195 Z M 20 30 " clip-rule="nonzero"/></clipPath></defs><g clip-path="url(#dd955bb5e3)"><path fill="#000000" d="M 205.144531 112.402344 C 205.144531 112.910156 205.046875 113.398438 204.851562 113.867188 C 204.65625 114.339844 204.378906 114.753906 204.019531 115.113281 C 203.660156 115.472656 203.246094 115.75 202.773438 115.945312 C 202.304688 116.136719 201.8125 116.234375 201.304688 116.234375 L 121.917969 116.234375 L 194.109375 188.304688 C 194.46875 188.664062 194.746094 189.078125 194.9375 189.546875 C 195.132812 190.019531 195.230469 190.507812 195.230469 191.015625 C 195.230469 191.523438 195.132812 192.011719 194.9375 192.480469 C 194.746094 192.949219 194.46875 193.363281 194.109375 193.726562 C 193.746094 194.082031 193.332031 194.359375 192.863281 194.554688 C 192.390625 194.75 191.902344 194.847656 191.394531 194.847656 C 190.882812 194.847656 190.394531 194.75 189.925781 194.554688 C 189.453125 194.359375 189.039062 194.082031 188.679688 193.726562 L 112.683594 117.820312 L 36.652344 193.722656 C 36.292969 194.082031 35.878906 194.359375 35.40625 194.554688 C 34.9375 194.75 34.445312 194.847656 33.9375 194.847656 C 33.429688 194.847656 32.9375 194.75 32.46875 194.554688 C 32 194.359375 31.582031 194.082031 31.222656 193.722656 C 30.863281 193.363281 30.585938 192.949219 30.390625 192.480469 C 30.199219 192.011719 30.101562 191.523438 30.101562 191.015625 C 30.101562 190.507812 30.199219 190.019531 30.390625 189.546875 C 30.585938 189.078125 30.863281 188.664062 31.222656 188.304688 L 103.414062 116.234375 L 24.027344 116.234375 C 23.519531 116.234375 23.027344 116.136719 22.558594 115.945312 C 22.085938 115.75 21.671875 115.472656 21.3125 115.113281 C 20.949219 114.753906 20.671875 114.339844 20.480469 113.867188 C 20.285156 113.398438 20.1875 112.910156 20.1875 112.402344 C 20.1875 111.890625 20.285156 111.402344 20.480469 110.933594 C 20.671875 110.464844 20.949219 110.046875 21.3125 109.6875 C 21.671875 109.328125 22.085938 109.050781 22.558594 108.859375 C 23.027344 108.664062 23.519531 108.566406 24.027344 108.566406 L 103.414062 108.566406 L 31.222656 36.496094 C 30.882812 36.132812 30.625 35.71875 30.449219 35.253906 C 30.269531 34.792969 30.183594 34.3125 30.191406 33.816406 C 30.203125 33.316406 30.304688 32.839844 30.5 32.382812 C 30.691406 31.925781 30.964844 31.523438 31.316406 31.171875 C 31.667969 30.820312 32.074219 30.546875 32.53125 30.351562 C 32.992188 30.160156 33.46875 30.058594 33.964844 30.046875 C 34.464844 30.039062 34.945312 30.125 35.410156 30.300781 C 35.875 30.480469 36.289062 30.738281 36.652344 31.078125 L 112.683594 106.980469 L 188.71875 31.078125 C 189.082031 30.738281 189.496094 30.480469 189.960938 30.300781 C 190.425781 30.125 190.90625 30.039062 191.402344 30.046875 C 191.902344 30.058594 192.378906 30.160156 192.835938 30.351562 C 193.296875 30.546875 193.699219 30.820312 194.050781 31.171875 C 194.402344 31.523438 194.675781 31.925781 194.871094 32.382812 C 195.066406 32.839844 195.167969 33.316406 195.175781 33.816406 C 195.183594 34.3125 195.101562 34.792969 194.921875 35.253906 C 194.746094 35.71875 194.484375 36.132812 194.144531 36.496094 L 121.957031 108.566406 L 201.34375 108.566406 C 201.847656 108.570312 202.335938 108.671875 202.800781 108.867188 C 203.265625 109.066406 203.675781 109.34375 204.035156 109.703125 C 204.390625 110.0625 204.664062 110.476562 204.855469 110.941406 C 205.050781 111.410156 205.144531 111.894531 205.144531 112.402344 Z M 205.144531 112.402344 " fill-opacity="1" fill-rule="nonzero"/></g></svg>