<svg xmlns="http://www.w3.org/2000/svg" xmlns:xlink="http://www.w3.org/1999/xlink" width="300" zoomAndPan="magnify" viewBox="0 0 224.87999 225" height="300" preserveAspectRatio="xMidYMid meet" version="1.0"><defs><filter x="0%" y="0%" width="100%" height="100%" id="53ac9398f1"><feColorMatrix values="0 0 0 0 1 0 0 0 0 1 0 0 0 0 1 0 0 0 1 0" color-interpolation-filters="sRGB"/></filter><clipPath id="a21de9742a"><path d="M 11.347656 11.410156 L 213.742188 11.410156 L 213.742188 213.800781 L 11.347656 213.800781 Z M 11.347656 11.410156 " clip-rule="nonzero"/></clipPath><clipPath id="2962d80d2d"><path d="M 165.046875 165.121094 L 174.042969 165.121094 L 174.042969 174.117188 L 165.046875 174.117188 Z M 165.046875 165.121094 " clip-rule="nonzero"/></clipPath><clipPath id="6160af7d68"><path d="M 84.339844 186.75 L 93.335938 186.75 L 93.335938 195.746094 L 84.339844 195.746094 Z M 84.339844 186.75 " clip-rule="nonzero"/></clipPath><clipPath id="6b243c9635"><path d="M 129.207031 28.25 L 138.199219 28.25 L 138.199219 37.242188 L 129.207031 37.242188 Z M 129.207031 28.25 " clip-rule="nonzero"/></clipPath><clipPath id="9a2464022b"><path d="M 48.5 49.878906 L 57.496094 49.878906 L 57.496094 58.871094 L 48.5 58.871094 Z M 48.5 49.878906 " clip-rule="nonzero"/></clipPath><mask id="1ea57bda48"><g filter="url(#53ac9398f1)"><rect x="-22.487999" width="269.855988" fill="#000000" y="-22.5" height="270" fill-opacity="0.32"/></g></mask><clipPath id="751645574e"><path d="M 0.316406 0.0546875 L 58 0.0546875 L 58 48 L 0.316406 48 Z M 0.316406 0.0546875 " clip-rule="nonzero"/></clipPath><clipPath id="6cda38fe0a"><path d="M 43 0.0546875 L 62.683594 0.0546875 L 62.683594 27 L 43 27 Z M 43 0.0546875 " clip-rule="nonzero"/></clipPath><clipPath id="7141b9d2e0"><rect x="0" width="63" y="0" height="49"/></clipPath></defs><g clip-path="url(#a21de9742a)"><path fill="#000000" d="M 112.441406 11.4375 C 110.785156 11.4375 109.132812 11.476562 107.480469 11.558594 C 105.828125 11.640625 104.179688 11.761719 102.535156 11.921875 C 100.886719 12.085938 99.246094 12.289062 97.609375 12.53125 C 95.972656 12.773438 94.34375 13.054688 92.722656 13.378906 C 91.101562 13.703125 89.488281 14.0625 87.882812 14.464844 C 86.277344 14.867188 84.683594 15.308594 83.101562 15.789062 C 81.519531 16.269531 79.949219 16.789062 78.390625 17.34375 C 76.835938 17.902344 75.292969 18.496094 73.765625 19.128906 C 72.238281 19.761719 70.726562 20.433594 69.230469 21.140625 C 67.734375 21.847656 66.257812 22.589844 64.800781 23.371094 C 63.339844 24.148438 61.902344 24.964844 60.484375 25.816406 C 59.0625 26.664062 57.667969 27.550781 56.292969 28.46875 C 54.917969 29.386719 53.566406 30.339844 52.238281 31.324219 C 50.90625 32.3125 49.605469 33.328125 48.324219 34.378906 C 47.046875 35.425781 45.796875 36.507812 44.570312 37.617188 C 43.34375 38.726562 42.148438 39.867188 40.976562 41.039062 C 39.808594 42.207031 38.667969 43.40625 37.558594 44.628906 C 36.445312 45.855469 35.367188 47.109375 34.316406 48.386719 C 33.269531 49.664062 32.25 50.96875 31.265625 52.296875 C 30.28125 53.625 29.328125 54.976562 28.410156 56.351562 C 27.492188 57.726562 26.605469 59.125 25.753906 60.542969 C 24.90625 61.960938 24.089844 63.398438 23.308594 64.859375 C 22.53125 66.316406 21.789062 67.792969 21.082031 69.289062 C 20.371094 70.785156 19.703125 72.296875 19.070312 73.824219 C 18.4375 75.351562 17.84375 76.894531 17.285156 78.453125 C 16.726562 80.011719 16.207031 81.578125 15.730469 83.164062 C 15.25 84.746094 14.808594 86.339844 14.40625 87.941406 C 14.003906 89.546875 13.640625 91.160156 13.320312 92.78125 C 12.996094 94.40625 12.714844 96.035156 12.472656 97.671875 C 12.226562 99.304688 12.027344 100.949219 11.863281 102.59375 C 11.703125 104.238281 11.578125 105.886719 11.5 107.539062 C 11.417969 109.191406 11.378906 110.84375 11.378906 112.5 C 11.378906 114.152344 11.417969 115.804688 11.5 117.457031 C 11.578125 119.109375 11.703125 120.757812 11.863281 122.40625 C 12.027344 124.050781 12.226562 125.691406 12.472656 127.328125 C 12.714844 128.964844 12.996094 130.59375 13.320312 132.214844 C 13.640625 133.839844 14.003906 135.453125 14.40625 137.054688 C 14.808594 138.660156 15.25 140.253906 15.730469 141.835938 C 16.207031 143.417969 16.726562 144.988281 17.285156 146.546875 C 17.84375 148.105469 18.4375 149.644531 19.070312 151.175781 C 19.703125 152.703125 20.371094 154.214844 21.082031 155.710938 C 21.789062 157.203125 22.53125 158.679688 23.308594 160.140625 C 24.089844 161.597656 24.90625 163.039062 25.753906 164.457031 C 26.605469 165.875 27.492188 167.273438 28.410156 168.648438 C 29.328125 170.023438 30.28125 171.375 31.265625 172.703125 C 32.25 174.03125 33.269531 175.335938 34.316406 176.613281 C 35.367188 177.890625 36.445312 179.144531 37.558594 180.367188 C 38.667969 181.59375 39.808594 182.792969 40.976562 183.960938 C 42.148438 185.132812 43.34375 186.269531 44.570312 187.382812 C 45.796875 188.492188 47.046875 189.574219 48.324219 190.621094 C 49.605469 191.671875 50.90625 192.6875 52.238281 193.671875 C 53.566406 194.660156 54.917969 195.609375 56.292969 196.53125 C 57.667969 197.449219 59.0625 198.332031 60.484375 199.183594 C 61.902344 200.035156 63.339844 200.847656 64.800781 201.628906 C 66.257812 202.40625 67.734375 203.152344 69.230469 203.859375 C 70.726562 204.566406 72.238281 205.234375 73.765625 205.867188 C 75.292969 206.5 76.835938 207.097656 78.390625 207.652344 C 79.949219 208.210938 81.519531 208.730469 83.101562 209.210938 C 84.683594 209.691406 86.277344 210.132812 87.882812 210.53125 C 89.488281 210.933594 91.101562 211.296875 92.722656 211.621094 C 94.34375 211.941406 95.972656 212.226562 97.609375 212.46875 C 99.246094 212.710938 100.886719 212.914062 102.535156 213.074219 C 104.179688 213.238281 105.828125 213.359375 107.480469 213.441406 C 109.132812 213.519531 110.785156 213.5625 112.441406 213.5625 C 114.09375 213.5625 115.746094 213.519531 117.398438 213.441406 C 119.050781 213.359375 120.699219 213.238281 122.34375 213.074219 C 123.992188 212.914062 125.632812 212.710938 127.269531 212.46875 C 128.90625 212.226562 130.535156 211.941406 132.15625 211.621094 C 133.777344 211.296875 135.390625 210.933594 136.996094 210.53125 C 138.601562 210.132812 140.195312 209.691406 141.777344 209.210938 C 143.359375 208.730469 144.929688 208.210938 146.488281 207.652344 C 148.042969 207.097656 149.585938 206.5 151.113281 205.867188 C 152.640625 205.234375 154.152344 204.566406 155.648438 203.859375 C 157.144531 203.152344 158.621094 202.40625 160.078125 201.628906 C 161.539062 200.847656 162.976562 200.035156 164.394531 199.183594 C 165.816406 198.332031 167.210938 197.449219 168.585938 196.53125 C 169.960938 195.609375 171.3125 194.660156 172.640625 193.671875 C 173.972656 192.6875 175.273438 191.671875 176.554688 190.621094 C 177.832031 189.574219 179.082031 188.492188 180.308594 187.382812 C 181.535156 186.269531 182.730469 185.132812 183.902344 183.960938 C 185.070312 182.792969 186.210938 181.59375 187.320312 180.367188 C 188.433594 179.144531 189.511719 177.890625 190.5625 176.613281 C 191.609375 175.335938 192.628906 174.03125 193.613281 172.703125 C 194.597656 171.375 195.550781 170.023438 196.46875 168.648438 C 197.386719 167.273438 198.273438 165.875 199.125 164.457031 C 199.972656 163.039062 200.789062 161.597656 201.570312 160.140625 C 202.347656 158.679688 203.089844 157.203125 203.796875 155.710938 C 204.507812 154.214844 205.175781 152.703125 205.808594 151.175781 C 206.441406 149.644531 207.035156 148.105469 207.59375 146.546875 C 208.152344 144.988281 208.671875 143.417969 209.148438 141.835938 C 209.628906 140.253906 210.070312 138.660156 210.472656 137.054688 C 210.875 135.453125 211.238281 133.839844 211.558594 132.214844 C 211.882812 130.59375 212.164062 128.964844 212.40625 127.328125 C 212.652344 125.691406 212.851562 124.050781 213.015625 122.40625 C 213.175781 120.757812 213.300781 119.109375 213.378906 117.457031 C 213.460938 115.804688 213.5 114.152344 213.5 112.5 C 213.503906 110.84375 213.46875 109.191406 213.390625 107.539062 C 213.3125 105.882812 213.191406 104.234375 213.03125 102.585938 C 212.875 100.941406 212.675781 99.296875 212.433594 97.660156 C 212.195312 96.023438 211.914062 94.394531 211.59375 92.769531 C 211.273438 91.144531 210.910156 89.53125 210.511719 87.925781 C 210.113281 86.320312 209.671875 84.726562 209.195312 83.140625 C 208.714844 81.554688 208.199219 79.984375 207.644531 78.425781 C 207.085938 76.867188 206.492188 75.324219 205.863281 73.792969 C 205.230469 72.265625 204.5625 70.75 203.855469 69.253906 C 203.148438 67.757812 202.40625 66.28125 201.625 64.820312 C 200.847656 63.359375 200.035156 61.917969 199.183594 60.5 C 198.332031 59.078125 197.449219 57.683594 196.53125 56.304688 C 195.613281 54.929688 194.660156 53.574219 193.675781 52.246094 C 192.6875 50.917969 191.671875 49.613281 190.621094 48.332031 C 189.574219 47.054688 188.492188 45.800781 187.382812 44.574219 C 186.269531 43.347656 185.128906 42.148438 183.960938 40.980469 C 182.789062 39.808594 181.589844 38.667969 180.363281 37.558594 C 179.136719 36.445312 177.886719 35.367188 176.605469 34.316406 C 175.328125 33.265625 174.023438 32.25 172.691406 31.265625 C 171.363281 30.277344 170.011719 29.328125 168.632812 28.410156 C 167.257812 27.488281 165.859375 26.605469 164.4375 25.753906 C 163.019531 24.90625 161.578125 24.089844 160.117188 23.3125 C 158.660156 22.53125 157.179688 21.789062 155.683594 21.085938 C 154.1875 20.378906 152.675781 19.707031 151.144531 19.078125 C 149.617188 18.445312 148.070312 17.851562 146.511719 17.296875 C 144.953125 16.738281 143.382812 16.222656 141.796875 15.746094 C 140.214844 15.265625 138.621094 14.828125 137.011719 14.425781 C 135.40625 14.027344 133.792969 13.667969 132.167969 13.347656 C 130.546875 13.027344 128.914062 12.746094 127.277344 12.503906 C 125.640625 12.265625 124 12.066406 122.351562 11.90625 C 120.703125 11.746094 119.054688 11.628906 117.402344 11.550781 C 115.75 11.472656 114.09375 11.433594 112.441406 11.4375 Z M 195.875 111.429688 C 195.78125 104.464844 194.835938 97.613281 193.03125 90.886719 C 191.230469 84.15625 188.628906 77.75 185.230469 71.667969 L 198.632812 63.953125 C 202.722656 71.199219 205.847656 78.835938 208 86.871094 C 210.15625 94.90625 211.277344 103.082031 211.363281 111.402344 Z M 182.863281 153.160156 C 179.296875 159.339844 174.988281 164.957031 169.941406 170.003906 C 164.894531 175.046875 159.28125 179.355469 153.101562 182.925781 C 151.691406 183.738281 150.257812 184.511719 148.800781 185.242188 C 147.34375 185.96875 145.863281 186.65625 144.367188 187.296875 C 142.867188 187.9375 141.351562 188.53125 139.820312 189.082031 C 138.285156 189.628906 136.734375 190.132812 135.171875 190.589844 C 133.609375 191.046875 132.03125 191.457031 130.441406 191.816406 C 128.855469 192.179688 127.257812 192.492188 125.648438 192.757812 C 124.042969 193.023438 122.425781 193.242188 120.804688 193.410156 C 119.1875 193.582031 117.5625 193.699219 115.933594 193.773438 C 114.304688 193.84375 112.679688 193.867188 111.050781 193.839844 C 109.417969 193.816406 107.792969 193.738281 106.167969 193.617188 C 104.542969 193.492188 102.925781 193.320312 101.308594 193.097656 C 99.695312 192.878906 98.089844 192.609375 96.492188 192.292969 C 94.894531 191.972656 93.304688 191.609375 91.730469 191.195312 C 90.152344 190.785156 88.589844 190.324219 87.042969 189.816406 C 85.496094 189.3125 83.960938 188.757812 82.445312 188.160156 C 80.929688 187.5625 79.433594 186.917969 77.957031 186.230469 C 76.480469 185.542969 75.027344 184.808594 73.59375 184.035156 C 72.160156 183.257812 70.753906 182.441406 69.367188 181.582031 C 67.984375 180.722656 66.628906 179.820312 65.296875 178.878906 C 63.96875 177.9375 62.667969 176.957031 61.398438 175.9375 C 60.125 174.917969 58.886719 173.859375 57.679688 172.765625 C 56.472656 171.671875 55.300781 170.542969 54.160156 169.378906 C 53.019531 168.214844 51.914062 167.019531 50.847656 165.789062 C 49.78125 164.558594 48.75 163.296875 47.757812 162.003906 C 46.765625 160.710938 45.8125 159.390625 44.902344 158.039062 C 43.988281 156.691406 43.117188 155.316406 42.285156 153.914062 C 41.457031 152.511719 40.667969 151.085938 39.921875 149.636719 C 39.179688 148.1875 38.476562 146.71875 37.820312 145.226562 C 37.164062 143.734375 36.554688 142.226562 35.988281 140.695312 C 35.421875 139.167969 34.902344 137.625 34.429688 136.066406 C 33.957031 134.507812 33.53125 132.9375 33.152344 131.351562 C 32.773438 129.765625 32.441406 128.171875 32.160156 126.566406 C 31.875 124.960938 31.640625 123.351562 31.453125 121.734375 C 31.269531 120.113281 31.128906 118.492188 31.042969 116.863281 C 30.953125 115.238281 30.914062 113.609375 30.921875 111.980469 C 30.929688 110.351562 30.988281 108.722656 31.09375 107.097656 C 31.199219 105.472656 31.355469 103.851562 31.558594 102.234375 C 31.761719 100.617188 32.015625 99.007812 32.316406 97.40625 C 32.613281 95.804688 32.964844 94.214844 33.359375 92.632812 C 33.753906 91.054688 34.199219 89.488281 34.6875 87.933594 C 35.175781 86.378906 35.714844 84.839844 36.296875 83.320312 C 36.878906 81.796875 37.503906 80.292969 38.175781 78.808594 C 38.847656 77.324219 39.566406 75.863281 40.324219 74.421875 C 41.085938 72.980469 41.890625 71.5625 42.734375 70.171875 C 43.578125 68.777344 44.464844 67.410156 45.390625 66.070312 C 46.320312 64.730469 47.285156 63.421875 48.292969 62.140625 C 49.296875 60.859375 50.339844 59.609375 51.421875 58.390625 C 52.503906 57.167969 53.621094 55.984375 54.773438 54.832031 C 55.925781 53.679688 57.109375 52.5625 58.328125 51.480469 C 59.546875 50.402344 60.796875 49.359375 62.078125 48.351562 C 63.363281 47.347656 64.671875 46.378906 66.011719 45.453125 C 67.351562 44.523438 68.71875 43.640625 70.109375 42.792969 C 71.503906 41.949219 72.921875 41.144531 74.363281 40.386719 C 75.804688 39.625 77.265625 38.910156 78.75 38.238281 C 80.234375 37.566406 81.738281 36.9375 83.257812 36.355469 C 84.78125 35.773438 86.320312 35.238281 87.871094 34.746094 C 89.425781 34.257812 90.992188 33.816406 92.574219 33.417969 C 94.15625 33.023438 95.746094 32.675781 97.347656 32.375 C 98.949219 32.074219 100.558594 31.824219 102.175781 31.617188 C 103.789062 31.414062 105.410156 31.261719 107.039062 31.152344 C 108.664062 31.046875 110.289062 30.988281 111.921875 30.980469 C 113.550781 30.972656 115.175781 31.011719 116.804688 31.101562 C 118.429688 31.191406 120.054688 31.328125 121.671875 31.515625 C 123.292969 31.699219 124.902344 31.9375 126.507812 32.21875 C 128.113281 32.503906 129.707031 32.832031 131.289062 33.210938 C 132.875 33.589844 134.449219 34.015625 136.007812 34.488281 C 137.566406 34.964844 139.109375 35.484375 140.636719 36.046875 C 142.164062 36.613281 143.675781 37.226562 145.164062 37.882812 C 146.65625 38.539062 148.128906 39.238281 149.578125 39.984375 C 151.027344 40.726562 152.449219 41.515625 153.851562 42.347656 C 155.253906 43.175781 156.628906 44.046875 157.980469 44.960938 C 159.328125 45.875 160.652344 46.824219 161.941406 47.816406 C 163.234375 48.808594 164.496094 49.839844 165.726562 50.90625 C 166.957031 51.976562 168.15625 53.078125 169.320312 54.21875 C 170.484375 55.359375 171.613281 56.53125 172.707031 57.738281 C 173.800781 58.949219 174.859375 60.1875 175.878906 61.457031 C 176.898438 62.726562 177.878906 64.027344 178.820312 65.359375 C 179.761719 66.6875 180.660156 68.046875 181.519531 69.429688 C 182.382812 70.8125 183.199219 72.222656 183.976562 73.652344 C 184.75 75.085938 185.480469 76.542969 186.171875 78.019531 C 186.859375 79.496094 187.5 80.992188 188.101562 82.507812 C 188.699219 84.023438 189.25 85.554688 189.757812 87.101562 C 190.265625 88.652344 190.722656 90.214844 191.136719 91.789062 C 191.546875 93.367188 191.914062 94.953125 192.230469 96.550781 C 192.546875 98.148438 192.816406 99.757812 193.039062 101.371094 C 193.257812 102.984375 193.433594 104.605469 193.554688 106.226562 C 193.679688 107.851562 193.753906 109.480469 193.78125 111.109375 C 193.808594 112.738281 193.785156 114.367188 193.710938 115.996094 C 193.640625 117.621094 193.519531 119.246094 193.351562 120.867188 C 193.183594 122.488281 192.964844 124.101562 192.699219 125.707031 C 192.433594 127.316406 192.117188 128.914062 191.757812 130.503906 C 191.394531 132.089844 190.984375 133.667969 190.53125 135.230469 C 190.074219 136.796875 189.570312 138.34375 189.019531 139.878906 C 188.472656 141.414062 187.875 142.929688 187.234375 144.425781 C 186.59375 145.925781 185.910156 147.402344 185.179688 148.859375 C 184.453125 150.316406 183.679688 151.75 182.863281 153.160156 Z M 71.609375 185.261719 C 77.683594 188.667969 84.082031 191.273438 90.808594 193.074219 C 97.535156 194.875 104.378906 195.820312 111.339844 195.90625 L 111.339844 211.421875 C 103.011719 211.339844 94.828125 210.222656 86.78125 208.070312 C 78.738281 205.914062 71.089844 202.789062 63.835938 198.695312 Z M 113.453125 195.90625 C 120.429688 195.832031 127.289062 194.894531 134.03125 193.09375 C 140.773438 191.289062 147.1875 188.679688 153.269531 185.261719 L 161.042969 198.695312 C 153.792969 202.785156 146.148438 205.910156 138.109375 208.066406 C 130.070312 210.21875 121.890625 211.339844 113.566406 211.421875 Z M 153.269531 39.738281 C 147.191406 36.324219 140.789062 33.71875 134.058594 31.910156 C 127.328125 30.105469 120.476562 29.15625 113.507812 29.066406 L 113.507812 13.578125 C 121.832031 13.660156 130.015625 14.777344 138.054688 16.933594 C 146.09375 19.089844 153.738281 22.214844 160.984375 26.304688 Z M 111.398438 29.066406 C 104.425781 29.148438 97.570312 30.09375 90.832031 31.902344 C 84.097656 33.707031 77.6875 36.320312 71.609375 39.738281 L 63.894531 26.304688 C 71.148438 22.214844 78.796875 19.09375 86.839844 16.9375 C 94.886719 14.785156 103.070312 13.664062 111.398438 13.578125 Z M 197.5625 62.152344 L 184.246094 69.867188 C 180.683594 63.855469 176.433594 58.382812 171.496094 53.441406 C 166.554688 48.503906 161.082031 44.253906 155.070312 40.695312 L 162.816406 27.289062 C 169.976562 31.554688 176.496094 36.636719 182.378906 42.539062 C 188.261719 48.441406 193.324219 54.976562 197.5625 62.152344 Z M 62.0625 27.375 L 69.835938 40.695312 C 63.816406 44.257812 58.335938 48.507812 53.394531 53.453125 C 48.449219 58.398438 44.195312 63.878906 40.632812 69.894531 L 27.316406 62.152344 C 31.550781 54.984375 36.609375 48.457031 42.492188 42.566406 C 48.375 36.679688 54.898438 31.613281 62.0625 27.375 Z M 26.246094 63.980469 L 39.675781 71.667969 C 36.269531 77.734375 33.660156 84.128906 31.859375 90.851562 C 30.058594 97.574219 29.117188 104.414062 29.03125 111.375 L 13.515625 111.375 C 13.601562 103.0625 14.722656 94.898438 16.878906 86.871094 C 19.035156 78.847656 22.15625 71.214844 26.246094 63.980469 Z M 13.515625 113.542969 L 29.03125 113.542969 C 29.113281 120.515625 30.054688 127.367188 31.855469 134.105469 C 33.65625 140.839844 36.265625 147.25 39.675781 153.328125 L 26.246094 161.046875 C 22.152344 153.792969 19.027344 146.144531 16.871094 138.101562 C 14.714844 130.054688 13.597656 121.871094 13.515625 113.542969 Z M 27.316406 162.875 L 40.632812 155.105469 C 44.195312 161.121094 48.449219 166.601562 53.394531 171.546875 C 58.335938 176.488281 63.816406 180.742188 69.835938 184.304688 L 62.0625 197.738281 C 54.894531 193.488281 48.367188 188.410156 42.480469 182.507812 C 36.597656 176.601562 31.542969 170.058594 27.316406 162.875 Z M 162.816406 197.625 L 155.042969 184.304688 C 161.0625 180.746094 166.546875 176.496094 171.492188 171.550781 C 176.4375 166.605469 180.6875 161.125 184.246094 155.105469 L 197.675781 162.875 C 193.421875 170.042969 188.34375 176.566406 182.441406 182.453125 C 176.539062 188.335938 169.996094 193.394531 162.816406 197.625 Z M 198.632812 161.015625 L 185.203125 153.328125 C 188.613281 147.257812 191.222656 140.859375 193.03125 134.132812 C 194.835938 127.40625 195.785156 120.5625 195.875 113.597656 L 211.363281 113.597656 C 211.269531 121.914062 210.148438 130.089844 207.992188 138.125 C 205.835938 146.160156 202.71875 153.800781 198.632812 161.046875 Z M 198.632812 161.015625 " fill-opacity="1" fill-rule="nonzero"/></g><path stroke-linecap="butt" transform="matrix(0.726643, -0.184094, 0.184094, 0.726643, 90.652035, 188.567416)" fill="none" stroke-linejoin="miter" d="M 0.00232604 1.499034 L 102.001783 1.49918 " stroke="#52ff00" stroke-width="3" stroke-opacity="1" stroke-miterlimit="4"/><g clip-path="url(#2962d80d2d)"><path fill="#000000" d="M 169.542969 165.121094 C 172.027344 165.121094 174.042969 167.136719 174.042969 169.621094 C 174.042969 172.101562 172.027344 174.117188 169.542969 174.117188 C 167.058594 174.117188 165.046875 172.101562 165.046875 169.621094 C 165.046875 167.136719 167.058594 165.121094 169.542969 165.121094 Z M 169.542969 165.121094 " fill-opacity="1" fill-rule="evenodd"/></g><g clip-path="url(#6160af7d68)"><path fill="#000000" d="M 88.835938 186.75 C 91.320312 186.75 93.335938 188.761719 93.335938 191.246094 C 93.335938 193.730469 91.320312 195.746094 88.835938 195.746094 C 86.355469 195.746094 84.339844 193.730469 84.339844 191.246094 C 84.339844 188.761719 86.355469 186.75 88.835938 186.75 Z M 88.835938 186.75 " fill-opacity="1" fill-rule="evenodd"/></g><path stroke-linecap="butt" transform="matrix(0.726643, -0.184094, 0.184094, 0.726643, 54.811179, 51.694567)" fill="none" stroke-linejoin="miter" d="M -0.00199198 1.500356 L 102.002516 1.501781 " stroke="#52ff00" stroke-width="3" stroke-opacity="1" stroke-miterlimit="4"/><g clip-path="url(#6b243c9635)"><path fill="#000000" d="M 133.703125 28.25 C 136.1875 28.25 138.199219 30.261719 138.199219 32.746094 C 138.199219 35.230469 136.1875 37.242188 133.703125 37.242188 C 131.21875 37.242188 129.207031 35.230469 129.207031 32.746094 C 129.207031 30.261719 131.21875 28.25 133.703125 28.25 Z M 133.703125 28.25 " fill-opacity="1" fill-rule="evenodd"/></g><g clip-path="url(#9a2464022b)"><path fill="#000000" d="M 52.996094 49.878906 C 55.480469 49.878906 57.496094 51.890625 57.496094 54.375 C 57.496094 56.859375 55.480469 58.871094 52.996094 58.871094 C 50.511719 58.871094 48.5 56.859375 48.5 54.375 C 48.5 51.890625 50.511719 49.878906 52.996094 49.878906 Z M 52.996094 49.878906 " fill-opacity="1" fill-rule="evenodd"/></g><g mask="url(#1ea57bda48)"><g transform="matrix(1, 0, 0, 1, 81, 83)"><g clip-path="url(#7141b9d2e0)"><g clip-path="url(#751645574e)"><path stroke-linecap="butt" transform="matrix(0.875677, 0, 0, 0.875677, -3.132144, -4.182902)" fill="none" stroke-linejoin="miter" d="M 30.778997 37.938609 C 30.778997 35.85986 30.274922 33.98631 29.262313 32.322418 C 28.254164 30.658527 26.875766 29.33812 25.127119 28.356736 C 23.391854 27.370892 21.420165 26.875739 19.216513 26.875739 C 18.18606 26.875739 17.213598 27.027408 16.31251 27.321823 C 15.415882 27.616238 14.626314 28.040017 13.943806 28.584239 C 13.261299 29.132922 12.699234 29.779743 12.257611 30.524702 C 12.324523 28.53517 12.636782 26.831131 13.189925 25.421507 C 13.751991 23.998501 14.546019 22.918979 15.572011 22.174019 C 16.598003 21.42906 17.81135 21.05435 19.216513 21.05435 C 20.585989 21.05435 21.857327 21.388912 23.034988 22.058038 C 24.217109 22.727163 25.180649 23.632712 25.925609 24.783608 L 29.525502 20.862534 C 28.312155 19.18526 26.822236 17.891618 25.060207 16.990529 C 23.307099 16.08498 21.38894 15.634436 19.310191 15.634436 C 16.696141 15.634436 14.425577 16.343708 12.494035 17.762254 C 10.566954 19.176338 9.077036 21.277392 8.02874 24.065413 C 6.989365 26.844513 6.471908 30.243669 6.471908 34.258421 C 6.471908 37.425613 6.967061 40.146723 7.961827 42.417287 C 8.965515 44.687852 10.375139 46.427578 12.186238 47.645386 C 14.010719 48.858733 16.165302 49.465406 18.645526 49.465406 C 20.956239 49.465406 23.017144 48.95241 24.832704 47.930879 C 26.657185 46.904887 28.102496 45.522028 29.173096 43.782303 C 30.243697 42.038116 30.778997 40.088732 30.778997 37.938609 Z M 18.645526 44.1927 C 17.592769 44.1927 16.598003 43.907206 15.661228 43.336219 C 14.728913 42.760772 13.979493 41.997969 13.417428 41.047811 C 12.864284 40.097653 12.587713 39.06274 12.587713 37.938609 C 12.587713 36.823401 12.855363 35.80633 13.395124 34.887398 C 13.943806 33.968466 14.684305 33.236889 15.616619 32.697128 C 16.553395 32.152907 17.579387 31.876335 18.703517 31.876335 C 19.818726 31.876335 20.840257 32.152907 21.759189 32.697128 C 22.678121 33.236889 23.414159 33.968466 23.967302 34.887398 C 24.529367 35.80633 24.8104 36.823401 24.8104 37.938609 C 24.8104 39.06274 24.529367 40.097653 23.967302 41.047811 C 23.414159 41.997969 22.669199 42.760772 21.732424 43.336219 C 20.800109 43.907206 19.769657 44.1927 18.645526 44.1927 Z M 59.007159 35.329021 C 59.007159 38.063513 58.489702 40.499128 57.445867 42.631407 C 56.406492 44.759226 54.974564 46.427578 53.154544 47.645386 C 51.338984 48.858733 49.278078 49.465406 46.967366 49.465406 C 44.665575 49.465406 42.60467 48.858733 40.780188 47.645386 C 38.969089 46.427578 37.537161 44.759226 36.497787 42.631407 C 35.458412 40.499128 34.936495 38.063513 34.936495 35.329021 C 34.936495 32.590068 35.458412 30.154453 36.497787 28.026635 C 37.537161 25.894355 38.969089 24.217082 40.780188 22.994813 C 42.60467 21.763623 44.665575 21.148027 46.967366 21.148027 C 49.278078 21.148027 51.338984 21.763623 53.154544 22.994813 C 54.974564 24.217082 56.406492 25.894355 57.445867 28.026635 C 58.489702 30.154453 59.007159 32.590068 59.007159 35.329021 Z M 52.70846 35.329021 C 52.70846 33.651747 52.467575 32.184132 51.981344 30.921716 C 51.499574 29.6593 50.825988 28.673456 49.951665 27.959722 C 49.086263 27.237067 48.091496 26.875739 46.967366 26.875739 C 45.820932 26.875739 44.812783 27.237067 43.938459 27.959722 C 43.073057 28.673456 42.39501 29.6593 41.908779 30.921716 C 41.43147 32.184132 41.190585 33.651747 41.190585 35.329021 C 41.190585 37.006295 41.43147 38.469449 41.908779 39.714022 C 42.39501 40.963055 43.073057 41.939978 43.938459 42.653712 C 44.812783 43.367445 45.820932 43.724312 46.967366 43.724312 C 48.091496 43.724312 49.077341 43.367445 49.92936 42.653712 C 50.785841 41.939978 51.463888 40.954134 51.95904 39.691717 C 52.458654 38.433762 52.70846 36.97953 52.70846 35.329021 Z M 52.70846 35.329021 " stroke="#000000" stroke-width="1.749986" stroke-opacity="1" stroke-miterlimit="4"/></g><g clip-path="url(#6cda38fe0a)"><path stroke-linecap="butt" transform="matrix(0.875677, 0, 0, 0.875677, -3.132144, -4.182902)" fill="none" stroke-linejoin="miter" d="M 63.164657 19.836542 C 63.164657 18.529517 63.624123 17.436613 64.543055 16.557828 C 65.461987 15.670122 66.590578 15.224039 67.928829 15.224039 C 69.32507 15.224039 70.475965 15.670122 71.377054 16.557828 C 72.282603 17.436613 72.733148 18.529517 72.733148 19.836542 C 72.733148 21.335382 72.282603 22.535347 71.377054 23.436436 C 70.475965 24.333063 69.32507 24.783608 67.928829 24.783608 C 66.590578 24.783608 65.461987 24.31522 64.543055 23.378445 C 63.624123 22.44613 63.164657 21.264009 63.164657 19.836542 Z M 66.661952 18.765942 C 66.349693 19.140652 66.193564 19.555509 66.193564 20.019436 C 66.193564 20.492285 66.349693 20.880377 66.661952 21.192636 C 67.036662 21.567346 67.45598 21.75024 67.928829 21.75024 C 68.450746 21.75024 68.870065 21.567346 69.177862 21.192636 C 69.338452 21.063271 69.458895 20.884838 69.534729 20.657335 C 69.610563 20.420911 69.64625 20.193409 69.64625 19.974828 C 69.64625 19.729482 69.610563 19.50644 69.534729 19.301242 C 69.458895 19.096043 69.338452 18.91761 69.177862 18.765942 C 69.026194 18.605352 68.834378 18.480448 68.597954 18.391231 C 68.36153 18.297554 68.138488 18.252946 67.928829 18.252946 C 67.424754 18.252946 67.005436 18.426918 66.661952 18.765942 Z M 66.661952 18.765942 " stroke="#000000" stroke-width="1.749986" stroke-opacity="1" stroke-miterlimit="4"/></g></g></g></g></svg>