<svg xmlns="http://www.w3.org/2000/svg" xmlns:xlink="http://www.w3.org/1999/xlink" width="300" zoomAndPan="magnify" viewBox="0 0 224.87999 225" height="300" preserveAspectRatio="xMidYMid meet" version="1.0"><defs><filter x="0%" y="0%" width="100%" height="100%" id="51b5314f77"><feColorMatrix values="0 0 0 0 1 0 0 0 0 1 0 0 0 0 1 0 0 0 1 0" color-interpolation-filters="sRGB"/></filter><clipPath id="e391752ba4"><path d="M 11.347656 11.410156 L 213.742188 11.410156 L 213.742188 213.800781 L 11.347656 213.800781 Z M 11.347656 11.410156 " clip-rule="nonzero"/></clipPath><clipPath id="cb661d4e56"><path d="M 168.589844 50.089844 L 177.585938 50.089844 L 177.585938 59.085938 L 168.589844 59.085938 Z M 168.589844 50.089844 " clip-rule="nonzero"/></clipPath><clipPath id="0c38d2256f"><path d="M 168.589844 164.632812 L 177.585938 164.632812 L 177.585938 173.625 L 168.589844 173.625 Z M 168.589844 164.632812 " clip-rule="nonzero"/></clipPath><clipPath id="393e9e22e9"><path d="M 49.625 48.589844 L 58.617188 48.589844 L 58.617188 57.585938 L 49.625 57.585938 Z M 49.625 48.589844 " clip-rule="nonzero"/></clipPath><mask id="04c92978ae"><g filter="url(#51b5314f77)"><rect x="-22.487999" width="269.855988" fill="#000000" y="-22.5" height="270" fill-opacity="0.32"/></g></mask><clipPath id="b34375a540"><path d="M 0.316406 5 L 57 5 L 57 48.785156 L 0.316406 48.785156 Z M 0.316406 5 " clip-rule="nonzero"/></clipPath><clipPath id="e1a6b9201c"><path d="M 43 0.332031 L 62.683594 0.332031 L 62.683594 27 L 43 27 Z M 43 0.332031 " clip-rule="nonzero"/></clipPath><clipPath id="692cc04d04"><rect x="0" width="63" y="0" height="49"/></clipPath></defs><g clip-path="url(#e391752ba4)"><path fill="#000000" d="M 112.441406 11.4375 C 110.785156 11.4375 109.132812 11.476562 107.480469 11.558594 C 105.828125 11.640625 104.179688 11.761719 102.535156 11.921875 C 100.886719 12.085938 99.246094 12.289062 97.609375 12.53125 C 95.972656 12.773438 94.34375 13.054688 92.722656 13.378906 C 91.101562 13.703125 89.488281 14.0625 87.882812 14.464844 C 86.277344 14.867188 84.683594 15.308594 83.101562 15.789062 C 81.519531 16.269531 79.949219 16.789062 78.390625 17.34375 C 76.835938 17.902344 75.292969 18.496094 73.765625 19.128906 C 72.238281 19.761719 70.726562 20.433594 69.230469 21.140625 C 67.734375 21.847656 66.257812 22.589844 64.800781 23.371094 C 63.339844 24.148438 61.902344 24.964844 60.484375 25.816406 C 59.0625 26.664062 57.667969 27.550781 56.292969 28.46875 C 54.917969 29.386719 53.566406 30.339844 52.238281 31.324219 C 50.90625 32.3125 49.605469 33.328125 48.324219 34.378906 C 47.046875 35.425781 45.796875 36.507812 44.570312 37.617188 C 43.34375 38.726562 42.148438 39.867188 40.976562 41.039062 C 39.808594 42.207031 38.667969 43.40625 37.558594 44.628906 C 36.445312 45.855469 35.367188 47.109375 34.316406 48.386719 C 33.269531 49.664062 32.25 50.96875 31.265625 52.296875 C 30.28125 53.625 29.328125 54.976562 28.410156 56.351562 C 27.492188 57.726562 26.605469 59.125 25.753906 60.542969 C 24.90625 61.960938 24.089844 63.398438 23.308594 64.859375 C 22.53125 66.316406 21.789062 67.792969 21.082031 69.289062 C 20.371094 70.785156 19.703125 72.296875 19.070312 73.824219 C 18.4375 75.351562 17.84375 76.894531 17.285156 78.453125 C 16.726562 80.011719 16.207031 81.578125 15.730469 83.164062 C 15.25 84.746094 14.808594 86.339844 14.40625 87.941406 C 14.003906 89.546875 13.640625 91.160156 13.320312 92.78125 C 12.996094 94.40625 12.714844 96.035156 12.472656 97.671875 C 12.226562 99.304688 12.027344 100.949219 11.863281 102.59375 C 11.703125 104.238281 11.578125 105.886719 11.5 107.539062 C 11.417969 109.191406 11.378906 110.84375 11.378906 112.5 C 11.378906 114.152344 11.417969 115.804688 11.5 117.457031 C 11.578125 119.109375 11.703125 120.757812 11.863281 122.40625 C 12.027344 124.050781 12.226562 125.691406 12.472656 127.328125 C 12.714844 128.964844 12.996094 130.59375 13.320312 132.214844 C 13.640625 133.839844 14.003906 135.453125 14.40625 137.054688 C 14.808594 138.660156 15.25 140.253906 15.730469 141.835938 C 16.207031 143.417969 16.726562 144.988281 17.285156 146.546875 C 17.84375 148.105469 18.4375 149.644531 19.070312 151.175781 C 19.703125 152.703125 20.371094 154.214844 21.082031 155.710938 C 21.789062 157.203125 22.53125 158.679688 23.308594 160.140625 C 24.089844 161.597656 24.90625 163.039062 25.753906 164.457031 C 26.605469 165.875 27.492188 167.273438 28.410156 168.648438 C 29.328125 170.023438 30.28125 171.375 31.265625 172.703125 C 32.25 174.03125 33.269531 175.335938 34.316406 176.613281 C 35.367188 177.890625 36.445312 179.144531 37.558594 180.367188 C 38.667969 181.59375 39.808594 182.792969 40.976562 183.960938 C 42.148438 185.132812 43.34375 186.269531 44.570312 187.382812 C 45.796875 188.492188 47.046875 189.574219 48.324219 190.621094 C 49.605469 191.671875 50.90625 192.6875 52.238281 193.671875 C 53.566406 194.660156 54.917969 195.609375 56.292969 196.53125 C 57.667969 197.449219 59.0625 198.332031 60.484375 199.183594 C 61.902344 200.035156 63.339844 200.847656 64.800781 201.628906 C 66.257812 202.40625 67.734375 203.152344 69.230469 203.859375 C 70.726562 204.566406 72.238281 205.234375 73.765625 205.867188 C 75.292969 206.5 76.835938 207.097656 78.390625 207.652344 C 79.949219 208.210938 81.519531 208.730469 83.101562 209.210938 C 84.683594 209.691406 86.277344 210.132812 87.882812 210.53125 C 89.488281 210.933594 91.101562 211.296875 92.722656 211.621094 C 94.34375 211.941406 95.972656 212.226562 97.609375 212.46875 C 99.246094 212.710938 100.886719 212.914062 102.535156 213.074219 C 104.179688 213.238281 105.828125 213.359375 107.480469 213.441406 C 109.132812 213.519531 110.785156 213.5625 112.441406 213.5625 C 114.09375 213.5625 115.746094 213.519531 117.398438 213.441406 C 119.050781 213.359375 120.699219 213.238281 122.34375 213.074219 C 123.992188 212.914062 125.632812 212.710938 127.269531 212.46875 C 128.90625 212.226562 130.535156 211.941406 132.15625 211.621094 C 133.777344 211.296875 135.390625 210.933594 136.996094 210.53125 C 138.601562 210.132812 140.195312 209.691406 141.777344 209.210938 C 143.359375 208.730469 144.929688 208.210938 146.488281 207.652344 C 148.042969 207.097656 149.585938 206.5 151.113281 205.867188 C 152.640625 205.234375 154.152344 204.566406 155.648438 203.859375 C 157.144531 203.152344 158.621094 202.40625 160.078125 201.628906 C 161.539062 200.847656 162.976562 200.035156 164.394531 199.183594 C 165.816406 198.332031 167.210938 197.449219 168.585938 196.53125 C 169.960938 195.609375 171.3125 194.660156 172.640625 193.671875 C 173.972656 192.6875 175.273438 191.671875 176.554688 190.621094 C 177.832031 189.574219 179.082031 188.492188 180.308594 187.382812 C 181.535156 186.269531 182.730469 185.132812 183.902344 183.960938 C 185.070312 182.792969 186.210938 181.59375 187.320312 180.367188 C 188.433594 179.144531 189.511719 177.890625 190.5625 176.613281 C 191.609375 175.335938 192.628906 174.03125 193.613281 172.703125 C 194.597656 171.375 195.550781 170.023438 196.46875 168.648438 C 197.386719 167.273438 198.273438 165.875 199.125 164.457031 C 199.972656 163.039062 200.789062 161.597656 201.570312 160.140625 C 202.347656 158.679688 203.089844 157.203125 203.796875 155.710938 C 204.507812 154.214844 205.175781 152.703125 205.808594 151.175781 C 206.441406 149.644531 207.035156 148.105469 207.59375 146.546875 C 208.152344 144.988281 208.671875 143.417969 209.148438 141.835938 C 209.628906 140.253906 210.070312 138.660156 210.472656 137.054688 C 210.875 135.453125 211.238281 133.839844 211.558594 132.214844 C 211.882812 130.59375 212.164062 128.964844 212.40625 127.328125 C 212.652344 125.691406 212.851562 124.050781 213.015625 122.40625 C 213.175781 120.757812 213.300781 119.109375 213.378906 117.457031 C 213.460938 115.804688 213.5 114.152344 213.5 112.5 C 213.503906 110.84375 213.46875 109.191406 213.390625 107.539062 C 213.3125 105.882812 213.191406 104.234375 213.03125 102.585938 C 212.875 100.941406 212.675781 99.296875 212.433594 97.660156 C 212.195312 96.023438 211.914062 94.394531 211.59375 92.769531 C 211.273438 91.144531 210.910156 89.53125 210.511719 87.925781 C 210.113281 86.320312 209.671875 84.726562 209.195312 83.140625 C 208.714844 81.554688 208.199219 79.984375 207.644531 78.425781 C 207.085938 76.867188 206.492188 75.324219 205.863281 73.792969 C 205.230469 72.265625 204.5625 70.75 203.855469 69.253906 C 203.148438 67.757812 202.40625 66.28125 201.625 64.820312 C 200.847656 63.359375 200.035156 61.917969 199.183594 60.5 C 198.332031 59.078125 197.449219 57.683594 196.53125 56.304688 C 195.613281 54.929688 194.660156 53.574219 193.675781 52.246094 C 192.6875 50.917969 191.671875 49.613281 190.621094 48.332031 C 189.574219 47.054688 188.492188 45.800781 187.382812 44.574219 C 186.269531 43.347656 185.128906 42.148438 183.960938 40.980469 C 182.789062 39.808594 181.589844 38.667969 180.363281 37.558594 C 179.136719 36.445312 177.886719 35.367188 176.605469 34.316406 C 175.328125 33.265625 174.023438 32.25 172.691406 31.265625 C 171.363281 30.277344 170.011719 29.328125 168.632812 28.410156 C 167.257812 27.488281 165.859375 26.605469 164.4375 25.753906 C 163.019531 24.90625 161.578125 24.089844 160.117188 23.3125 C 158.660156 22.53125 157.179688 21.789062 155.683594 21.085938 C 154.1875 20.378906 152.675781 19.707031 151.144531 19.078125 C 149.617188 18.445312 148.070312 17.851562 146.511719 17.296875 C 144.953125 16.738281 143.382812 16.222656 141.796875 15.746094 C 140.214844 15.265625 138.621094 14.828125 137.011719 14.425781 C 135.40625 14.027344 133.792969 13.667969 132.167969 13.347656 C 130.546875 13.027344 128.914062 12.746094 127.277344 12.503906 C 125.640625 12.265625 124 12.066406 122.351562 11.90625 C 120.703125 11.746094 119.054688 11.628906 117.402344 11.550781 C 115.75 11.472656 114.09375 11.433594 112.441406 11.4375 Z M 195.875 111.429688 C 195.78125 104.464844 194.835938 97.613281 193.03125 90.886719 C 191.230469 84.15625 188.628906 77.75 185.230469 71.667969 L 198.632812 63.953125 C 202.722656 71.199219 205.847656 78.835938 208 86.871094 C 210.15625 94.90625 211.277344 103.082031 211.363281 111.402344 Z M 182.863281 153.160156 C 179.296875 159.339844 174.988281 164.957031 169.941406 170.003906 C 164.894531 175.046875 159.28125 179.355469 153.101562 182.925781 C 151.691406 183.738281 150.257812 184.511719 148.800781 185.242188 C 147.34375 185.96875 145.863281 186.65625 144.367188 187.296875 C 142.867188 187.9375 141.351562 188.53125 139.820312 189.082031 C 138.285156 189.628906 136.734375 190.132812 135.171875 190.589844 C 133.609375 191.046875 132.03125 191.457031 130.441406 191.816406 C 128.855469 192.179688 127.257812 192.492188 125.648438 192.757812 C 124.042969 193.023438 122.425781 193.242188 120.804688 193.410156 C 119.1875 193.582031 117.5625 193.699219 115.933594 193.773438 C 114.304688 193.84375 112.679688 193.867188 111.050781 193.839844 C 109.417969 193.816406 107.792969 193.738281 106.167969 193.617188 C 104.542969 193.492188 102.925781 193.320312 101.308594 193.097656 C 99.695312 192.878906 98.089844 192.609375 96.492188 192.292969 C 94.894531 191.972656 93.304688 191.609375 91.730469 191.195312 C 90.152344 190.785156 88.589844 190.324219 87.042969 189.816406 C 85.496094 189.3125 83.960938 188.757812 82.445312 188.160156 C 80.929688 187.5625 79.433594 186.917969 77.957031 186.230469 C 76.480469 185.542969 75.027344 184.808594 73.59375 184.035156 C 72.160156 183.257812 70.753906 182.441406 69.367188 181.582031 C 67.984375 180.722656 66.628906 179.820312 65.296875 178.878906 C 63.96875 177.9375 62.667969 176.957031 61.398438 175.9375 C 60.125 174.917969 58.886719 173.859375 57.679688 172.765625 C 56.472656 171.671875 55.300781 170.542969 54.160156 169.378906 C 53.019531 168.214844 51.914062 167.019531 50.847656 165.789062 C 49.78125 164.558594 48.75 163.296875 47.757812 162.003906 C 46.765625 160.710938 45.8125 159.390625 44.902344 158.039062 C 43.988281 156.691406 43.117188 155.316406 42.285156 153.914062 C 41.457031 152.511719 40.667969 151.085938 39.921875 149.636719 C 39.179688 148.1875 38.476562 146.71875 37.820312 145.226562 C 37.164062 143.734375 36.554688 142.226562 35.988281 140.695312 C 35.421875 139.167969 34.902344 137.625 34.429688 136.066406 C 33.957031 134.507812 33.53125 132.9375 33.152344 131.351562 C 32.773438 129.765625 32.441406 128.171875 32.160156 126.566406 C 31.875 124.960938 31.640625 123.351562 31.453125 121.734375 C 31.269531 120.113281 31.128906 118.492188 31.042969 116.863281 C 30.953125 115.238281 30.914062 113.609375 30.921875 111.980469 C 30.929688 110.351562 30.988281 108.722656 31.09375 107.097656 C 31.199219 105.472656 31.355469 103.851562 31.558594 102.234375 C 31.761719 100.617188 32.015625 99.007812 32.316406 97.40625 C 32.613281 95.804688 32.964844 94.214844 33.359375 92.632812 C 33.753906 91.054688 34.199219 89.488281 34.6875 87.933594 C 35.175781 86.378906 35.714844 84.839844 36.296875 83.320312 C 36.878906 81.796875 37.503906 80.292969 38.175781 78.808594 C 38.847656 77.324219 39.566406 75.863281 40.324219 74.421875 C 41.085938 72.980469 41.890625 71.5625 42.734375 70.171875 C 43.578125 68.777344 44.464844 67.410156 45.390625 66.070312 C 46.320312 64.730469 47.285156 63.421875 48.292969 62.140625 C 49.296875 60.859375 50.339844 59.609375 51.421875 58.390625 C 52.503906 57.167969 53.621094 55.984375 54.773438 54.832031 C 55.925781 53.679688 57.109375 52.5625 58.328125 51.480469 C 59.546875 50.402344 60.796875 49.359375 62.078125 48.351562 C 63.363281 47.347656 64.671875 46.378906 66.011719 45.453125 C 67.351562 44.523438 68.71875 43.640625 70.109375 42.792969 C 71.503906 41.949219 72.921875 41.144531 74.363281 40.386719 C 75.804688 39.625 77.265625 38.910156 78.75 38.238281 C 80.234375 37.566406 81.738281 36.9375 83.257812 36.355469 C 84.78125 35.773438 86.320312 35.238281 87.871094 34.746094 C 89.425781 34.257812 90.992188 33.816406 92.574219 33.417969 C 94.15625 33.023438 95.746094 32.675781 97.347656 32.375 C 98.949219 32.074219 100.558594 31.824219 102.175781 31.617188 C 103.789062 31.414062 105.410156 31.261719 107.039062 31.152344 C 108.664062 31.046875 110.289062 30.988281 111.921875 30.980469 C 113.550781 30.972656 115.175781 31.011719 116.804688 31.101562 C 118.429688 31.191406 120.054688 31.328125 121.671875 31.515625 C 123.292969 31.699219 124.902344 31.9375 126.507812 32.21875 C 128.113281 32.503906 129.707031 32.832031 131.289062 33.210938 C 132.875 33.589844 134.449219 34.015625 136.007812 34.488281 C 137.566406 34.964844 139.109375 35.484375 140.636719 36.046875 C 142.164062 36.613281 143.675781 37.226562 145.164062 37.882812 C 146.65625 38.539062 148.128906 39.238281 149.578125 39.984375 C 151.027344 40.726562 152.449219 41.515625 153.851562 42.347656 C 155.253906 43.175781 156.628906 44.046875 157.980469 44.960938 C 159.328125 45.875 160.652344 46.824219 161.941406 47.816406 C 163.234375 48.808594 164.496094 49.839844 165.726562 50.90625 C 166.957031 51.976562 168.15625 53.078125 169.320312 54.21875 C 170.484375 55.359375 171.613281 56.53125 172.707031 57.738281 C 173.800781 58.949219 174.859375 60.1875 175.878906 61.457031 C 176.898438 62.726562 177.878906 64.027344 178.820312 65.359375 C 179.761719 66.6875 180.660156 68.046875 181.519531 69.429688 C 182.382812 70.8125 183.199219 72.222656 183.976562 73.652344 C 184.75 75.085938 185.480469 76.542969 186.171875 78.019531 C 186.859375 79.496094 187.5 80.992188 188.101562 82.507812 C 188.699219 84.023438 189.25 85.554688 189.757812 87.101562 C 190.265625 88.652344 190.722656 90.214844 191.136719 91.789062 C 191.546875 93.367188 191.914062 94.953125 192.230469 96.550781 C 192.546875 98.148438 192.816406 99.757812 193.039062 101.371094 C 193.257812 102.984375 193.433594 104.605469 193.554688 106.226562 C 193.679688 107.851562 193.753906 109.480469 193.78125 111.109375 C 193.808594 112.738281 193.785156 114.367188 193.710938 115.996094 C 193.640625 117.621094 193.519531 119.246094 193.351562 120.867188 C 193.183594 122.488281 192.964844 124.101562 192.699219 125.707031 C 192.433594 127.316406 192.117188 128.914062 191.757812 130.503906 C 191.394531 132.089844 190.984375 133.667969 190.53125 135.230469 C 190.074219 136.796875 189.570312 138.34375 189.019531 139.878906 C 188.472656 141.414062 187.875 142.929688 187.234375 144.425781 C 186.59375 145.925781 185.910156 147.402344 185.179688 148.859375 C 184.453125 150.316406 183.679688 151.75 182.863281 153.160156 Z M 71.609375 185.261719 C 77.683594 188.667969 84.082031 191.273438 90.808594 193.074219 C 97.535156 194.875 104.378906 195.820312 111.339844 195.90625 L 111.339844 211.421875 C 103.011719 211.339844 94.828125 210.222656 86.78125 208.070312 C 78.738281 205.914062 71.089844 202.789062 63.835938 198.695312 Z M 113.453125 195.90625 C 120.429688 195.832031 127.289062 194.894531 134.03125 193.09375 C 140.773438 191.289062 147.1875 188.679688 153.269531 185.261719 L 161.042969 198.695312 C 153.792969 202.785156 146.148438 205.910156 138.109375 208.066406 C 130.070312 210.21875 121.890625 211.339844 113.566406 211.421875 Z M 153.269531 39.738281 C 147.191406 36.324219 140.789062 33.71875 134.058594 31.910156 C 127.328125 30.105469 120.476562 29.15625 113.507812 29.066406 L 113.507812 13.578125 C 121.832031 13.660156 130.015625 14.777344 138.054688 16.933594 C 146.09375 19.089844 153.738281 22.214844 160.984375 26.304688 Z M 111.398438 29.066406 C 104.425781 29.148438 97.570312 30.09375 90.832031 31.902344 C 84.097656 33.707031 77.6875 36.320312 71.609375 39.738281 L 63.894531 26.304688 C 71.148438 22.214844 78.796875 19.09375 86.839844 16.9375 C 94.886719 14.785156 103.070312 13.664062 111.398438 13.578125 Z M 197.5625 62.152344 L 184.246094 69.867188 C 180.683594 63.855469 176.433594 58.382812 171.496094 53.441406 C 166.554688 48.503906 161.082031 44.253906 155.070312 40.695312 L 162.816406 27.289062 C 169.976562 31.554688 176.496094 36.636719 182.378906 42.539062 C 188.261719 48.441406 193.324219 54.976562 197.5625 62.152344 Z M 62.0625 27.375 L 69.835938 40.695312 C 63.816406 44.257812 58.335938 48.507812 53.394531 53.453125 C 48.449219 58.398438 44.195312 63.878906 40.632812 69.894531 L 27.316406 62.152344 C 31.550781 54.984375 36.609375 48.457031 42.492188 42.566406 C 48.375 36.679688 54.898438 31.613281 62.0625 27.375 Z M 26.246094 63.980469 L 39.675781 71.667969 C 36.269531 77.734375 33.660156 84.128906 31.859375 90.851562 C 30.058594 97.574219 29.117188 104.414062 29.03125 111.375 L 13.515625 111.375 C 13.601562 103.0625 14.722656 94.898438 16.878906 86.871094 C 19.035156 78.847656 22.15625 71.214844 26.246094 63.980469 Z M 13.515625 113.542969 L 29.03125 113.542969 C 29.113281 120.515625 30.054688 127.367188 31.855469 134.105469 C 33.65625 140.839844 36.265625 147.25 39.675781 153.328125 L 26.246094 161.046875 C 22.152344 153.792969 19.027344 146.144531 16.871094 138.101562 C 14.714844 130.054688 13.597656 121.871094 13.515625 113.542969 Z M 27.316406 162.875 L 40.632812 155.105469 C 44.195312 161.121094 48.449219 166.601562 53.394531 171.546875 C 58.335938 176.488281 63.816406 180.742188 69.835938 184.304688 L 62.0625 197.738281 C 54.894531 193.488281 48.367188 188.410156 42.480469 182.507812 C 36.597656 176.601562 31.542969 170.058594 27.316406 162.875 Z M 162.816406 197.625 L 155.042969 184.304688 C 161.0625 180.746094 166.546875 176.496094 171.492188 171.550781 C 176.4375 166.605469 180.6875 161.125 184.246094 155.105469 L 197.675781 162.875 C 193.421875 170.042969 188.34375 176.566406 182.441406 182.453125 C 176.539062 188.335938 169.996094 193.394531 162.816406 197.625 Z M 198.632812 161.015625 L 185.203125 153.328125 C 188.613281 147.257812 191.222656 140.859375 193.03125 134.132812 C 194.835938 127.40625 195.785156 120.5625 195.875 113.597656 L 211.363281 113.597656 C 211.269531 121.914062 210.148438 130.089844 207.992188 138.125 C 205.835938 146.160156 202.71875 153.800781 198.632812 161.046875 Z M 198.632812 161.015625 " fill-opacity="1" fill-rule="nonzero"/></g><path stroke-linecap="butt" transform="matrix(-0.00688298, -0.749568, 0.749568, -0.00688298, 172.581331, 169.682475)" fill="none" stroke-linejoin="miter" d="M 0.000350759 1.501801 L 152.556907 1.500818 " stroke="#ff0000" stroke-width="3" stroke-opacity="1" stroke-miterlimit="4"/><g clip-path="url(#cb661d4e56)"><path fill="#000000" d="M 173.089844 50.089844 C 175.570312 50.089844 177.585938 52.101562 177.585938 54.585938 C 177.585938 57.070312 175.570312 59.085938 173.089844 59.085938 C 170.605469 59.085938 168.589844 57.070312 168.589844 54.585938 C 168.589844 52.101562 170.605469 50.089844 173.089844 50.089844 Z M 173.089844 50.089844 " fill-opacity="1" fill-rule="evenodd"/></g><g clip-path="url(#0c38d2256f)"><path fill="#000000" d="M 173.089844 164.632812 C 175.570312 164.632812 177.585938 166.644531 177.585938 169.128906 C 177.585938 171.613281 175.570312 173.625 173.089844 173.625 C 170.605469 173.625 168.589844 171.613281 168.589844 169.128906 C 168.589844 166.644531 170.605469 164.632812 173.089844 164.632812 Z M 173.089844 164.632812 " fill-opacity="1" fill-rule="evenodd"/></g><path stroke-linecap="butt" transform="matrix(0.749536, 0.00982495, -0.00982495, 0.749536, 58.826667, 52.120345)" fill="none" stroke-linejoin="miter" d="M 0.000785965 1.501919 L 146.461254 1.499962 " stroke="#ff0000" stroke-width="3" stroke-opacity="1" stroke-miterlimit="4"/><g clip-path="url(#393e9e22e9)"><path fill="#000000" d="M 54.121094 48.589844 C 56.605469 48.589844 58.617188 50.605469 58.617188 53.085938 C 58.617188 55.570312 56.605469 57.585938 54.121094 57.585938 C 51.636719 57.585938 49.625 55.570312 49.625 53.085938 C 49.625 50.605469 51.636719 48.589844 54.121094 48.589844 Z M 54.121094 48.589844 " fill-opacity="1" fill-rule="evenodd"/></g><g mask="url(#04c92978ae)"><g transform="matrix(1, 0, 0, 1, 81, 88)"><g clip-path="url(#692cc04d04)"><g clip-path="url(#b34375a540)"><path stroke-linecap="butt" transform="matrix(0.875677, 0, 0, 0.875677, -3.132144, -3.959479)" fill="none" stroke-linejoin="miter" d="M 6.244406 33.882835 C 6.244406 35.966045 6.74848 37.839595 7.756629 39.512408 C 8.769238 41.171839 10.147636 42.496707 11.905205 43.473629 C 13.667235 44.455013 15.62108 44.945705 17.771203 44.945705 C 18.82842 44.945705 19.796422 44.798497 20.688589 44.499621 C 21.576295 44.205206 22.370323 43.776966 23.066213 43.214901 C 23.766565 42.652836 24.315247 42.014936 24.721183 41.301203 C 24.689957 43.290735 24.386621 44.994774 23.806712 46.41332 C 23.231264 47.827404 22.437236 48.906926 21.429087 49.647425 C 20.416478 50.401306 19.212052 50.776016 17.815811 50.776016 C 16.450796 50.776016 15.166075 50.441453 13.966111 49.776789 C 12.766146 49.107664 11.793684 48.193193 11.048725 47.042297 L 7.462214 50.95891 C 8.666639 52.636184 10.156558 53.929826 11.927509 54.830915 C 13.702921 55.736464 15.634463 56.187008 17.726594 56.187008 C 20.336183 56.187008 22.606747 55.468814 24.538289 54.036886 C 26.46537 52.609419 27.950828 50.512827 28.990202 47.747109 C 30.029577 44.976931 30.551494 41.582235 30.551494 37.563023 C 30.551494 34.364605 30.056342 31.639035 29.061575 29.381852 C 28.066809 27.129131 26.657185 25.393866 24.832704 24.176058 C 23.017144 22.962711 20.849179 22.356038 18.328807 22.356038 C 16.058242 22.356038 14.001797 22.873495 12.163933 23.903947 C 10.334991 24.929939 8.889681 26.312798 7.823541 28.052524 C 6.770784 29.787788 6.244406 31.732712 6.244406 33.882835 Z M 18.328807 27.628744 C 19.41279 27.628744 20.425399 27.918699 21.357714 28.494146 C 22.294489 29.074055 23.039448 29.836858 23.601514 30.787015 C 24.163579 31.728252 24.444611 32.758704 24.444611 33.882835 C 24.444611 34.998043 24.163579 36.019575 23.601514 36.938507 C 23.039448 37.857438 22.29895 38.589015 21.380018 39.133237 C 20.461086 39.672998 19.444016 39.945109 18.328807 39.945109 C 17.204677 39.945109 16.174224 39.672998 15.241909 39.133237 C 14.314056 38.589015 13.578018 37.857438 13.033796 36.938507 C 12.485113 36.019575 12.213003 34.998043 12.213003 33.882835 C 12.213003 32.727478 12.494035 31.688104 13.0561 30.76025 C 13.618165 29.827936 14.363125 29.074055 15.2999 28.494146 C 16.232215 27.918699 17.244824 27.628744 18.328807 27.628744 Z M 58.592301 35.328145 C 58.592301 38.062637 58.070384 40.498253 57.031009 42.630532 C 55.991635 44.75835 54.559707 46.431163 52.735225 47.64451 C 50.919666 48.857857 48.85876 49.468991 46.548048 49.468991 C 44.250718 49.468991 42.185351 48.857857 40.365331 47.64451 C 38.549771 46.431163 37.122304 44.75835 36.082929 42.630532 C 35.039094 40.498253 34.521637 38.062637 34.521637 35.328145 C 34.521637 32.589193 35.039094 30.153577 36.082929 28.03022 C 37.122304 25.89348 38.549771 24.216206 40.365331 22.993937 C 42.185351 21.762747 44.250718 21.147151 46.548048 21.147151 C 48.85876 21.147151 50.919666 21.762747 52.735225 22.993937 C 54.559707 24.216206 55.991635 25.89348 57.031009 28.03022 C 58.070384 30.153577 58.592301 32.589193 58.592301 35.328145 Z M 52.289142 35.328145 C 52.289142 33.650871 52.048257 32.183257 51.562026 30.92084 C 51.084717 29.662885 50.40667 28.67258 49.532346 27.958846 C 48.666944 27.236191 47.672178 26.879324 46.548048 26.879324 C 45.401613 26.879324 44.393464 27.236191 43.519141 27.958846 C 42.653739 28.67258 41.975692 29.662885 41.493922 30.92084 C 41.012152 32.183257 40.775727 33.650871 40.775727 35.328145 C 40.775727 37.00988 41.012152 38.468573 41.493922 39.717607 C 41.975692 40.962179 42.653739 41.939102 43.519141 42.652836 C 44.393464 43.366569 45.401613 43.727897 46.548048 43.727897 C 47.672178 43.727897 48.662483 43.366569 49.510042 42.652836 C 50.370983 41.939102 51.044569 40.953258 51.539722 39.690842 C 52.039335 38.432886 52.289142 36.978654 52.289142 35.328145 Z M 52.289142 35.328145 " stroke="#000000" stroke-width="1.749986" stroke-opacity="1" stroke-miterlimit="4"/></g><g clip-path="url(#e1a6b9201c)"><path stroke-linecap="butt" transform="matrix(0.875677, 0, 0, 0.875677, -3.132144, -3.959479)" fill="none" stroke-linejoin="miter" d="M 62.758721 19.835666 C 62.758721 18.533102 63.218187 17.435737 64.137119 16.556953 C 65.056051 15.669246 66.184642 15.223163 67.518432 15.223163 C 68.919134 15.223163 70.070029 15.669246 70.971118 16.556953 C 71.876667 17.435737 72.327212 18.533102 72.327212 19.835666 C 72.327212 21.334507 71.876667 22.534471 70.971118 23.43556 C 70.070029 24.332187 68.919134 24.782732 67.518432 24.782732 C 66.184642 24.782732 65.056051 24.314344 64.137119 23.38203 C 63.218187 22.445254 62.758721 21.263133 62.758721 19.835666 Z M 66.256016 18.765066 C 65.943757 19.139776 65.787628 19.554633 65.787628 20.01856 C 65.787628 20.491409 65.943757 20.879501 66.256016 21.19176 C 66.626265 21.56647 67.050044 21.749364 67.518432 21.749364 C 68.04481 21.749364 68.464129 21.56647 68.771926 21.19176 C 68.932516 21.062396 69.052959 20.883962 69.128793 20.65646 C 69.204627 20.424496 69.240314 20.192533 69.240314 19.973952 C 69.240314 19.733067 69.204627 19.505564 69.128793 19.300366 C 69.052959 19.095167 68.932516 18.916734 68.771926 18.765066 C 68.620258 18.608937 68.428442 18.484033 68.192018 18.390356 C 67.955594 18.301139 67.732552 18.25207 67.518432 18.25207 C 67.018818 18.25207 66.5995 18.426042 66.256016 18.765066 Z M 66.256016 18.765066 " stroke="#000000" stroke-width="1.749986" stroke-opacity="1" stroke-miterlimit="4"/></g></g></g></g></svg>