<svg xmlns="http://www.w3.org/2000/svg" xmlns:xlink="http://www.w3.org/1999/xlink" width="300" zoomAndPan="magnify" viewBox="0 0 224.87999 225" height="300" preserveAspectRatio="xMidYMid meet" version="1.0"><defs><clipPath id="c541fd14de"><path d="M 187 47 L 192.460938 47 L 192.460938 178 L 187 178 Z M 187 47 " clip-rule="nonzero"/></clipPath><clipPath id="ace9686bbe"><path d="M 32.796875 47 L 38 47 L 38 178 L 32.796875 178 Z M 32.796875 47 " clip-rule="nonzero"/></clipPath><clipPath id="689675cf64"><path d="M 47 32.855469 L 178 32.855469 L 178 38 L 47 38 Z M 47 32.855469 " clip-rule="nonzero"/></clipPath><clipPath id="e4eb9a55af"><path d="M 47 187 L 178 187 L 178 192.519531 L 47 192.519531 Z M 47 187 " clip-rule="nonzero"/></clipPath><clipPath id="77536b95a5"><path d="M 177 32.855469 L 192.460938 32.855469 L 192.460938 48 L 177 48 Z M 177 32.855469 " clip-rule="nonzero"/></clipPath><clipPath id="a46536030e"><path d="M 32.796875 32.855469 L 48 32.855469 L 48 48 L 32.796875 48 Z M 32.796875 32.855469 " clip-rule="nonzero"/></clipPath><clipPath id="1513898ebe"><path d="M 177 177 L 192.460938 177 L 192.460938 192.519531 L 177 192.519531 Z M 177 177 " clip-rule="nonzero"/></clipPath><clipPath id="651abeb67f"><path d="M 32.796875 177 L 48 177 L 48 192.519531 L 32.796875 192.519531 Z M 32.796875 177 " clip-rule="nonzero"/></clipPath></defs><g clip-path="url(#c541fd14de)"><path fill="#000000" d="M 187.324219 47.453125 L 192.085938 47.453125 L 192.085938 177.546875 L 187.324219 177.546875 Z M 187.324219 47.453125 " fill-opacity="1" fill-rule="nonzero"/></g><g clip-path="url(#ace9686bbe)"><path fill="#000000" d="M 32.796875 47.453125 L 37.554688 47.453125 L 37.554688 177.546875 L 32.796875 177.546875 Z M 32.796875 47.453125 " fill-opacity="1" fill-rule="nonzero"/></g><g clip-path="url(#689675cf64)"><path fill="#000000" d="M 47.390625 32.855469 L 177.488281 32.855469 L 177.488281 37.613281 L 47.390625 37.613281 Z M 47.390625 32.855469 " fill-opacity="1" fill-rule="nonzero"/></g><g clip-path="url(#e4eb9a55af)"><path fill="#000000" d="M 47.390625 187.386719 L 177.488281 187.386719 L 177.488281 192.144531 L 47.390625 192.144531 Z M 47.390625 187.386719 " fill-opacity="1" fill-rule="nonzero"/></g><g clip-path="url(#77536b95a5)"><path fill="#000000" d="M 187.324219 37.613281 L 187.324219 47.453125 L 192.085938 47.453125 L 192.085938 32.855469 L 177.488281 32.855469 L 177.488281 37.613281 Z M 187.324219 37.613281 " fill-opacity="1" fill-rule="nonzero"/></g><g clip-path="url(#a46536030e)"><path fill="#000000" d="M 37.554688 37.613281 L 47.390625 37.613281 L 47.390625 32.855469 L 32.796875 32.855469 L 32.796875 47.453125 L 37.554688 47.453125 Z M 37.554688 37.613281 " fill-opacity="1" fill-rule="nonzero"/></g><g clip-path="url(#1513898ebe)"><path fill="#000000" d="M 187.324219 187.386719 L 177.488281 187.386719 L 177.488281 192.144531 L 192.085938 192.144531 L 192.085938 177.546875 L 187.324219 177.546875 Z M 187.324219 187.386719 " fill-opacity="1" fill-rule="nonzero"/></g><g clip-path="url(#651abeb67f)"><path fill="#000000" d="M 37.554688 187.386719 L 37.554688 177.546875 L 32.796875 177.546875 L 32.796875 192.144531 L 47.390625 192.144531 L 47.390625 187.386719 Z M 37.554688 187.386719 " fill-opacity="1" fill-rule="nonzero"/></g></svg>