<svg xmlns="http://www.w3.org/2000/svg" xmlns:xlink="http://www.w3.org/1999/xlink" width="300" zoomAndPan="magnify" viewBox="0 0 224.87999 225" height="300" preserveAspectRatio="xMidYMid meet" version="1.0"><defs><clipPath id="7b2e667041"><path d="M 24 35.53125 L 200.75 35.53125 L 200.75 189.199219 L 24 189.199219 Z M 24 35.53125 " clip-rule="nonzero"/></clipPath></defs><g clip-path="url(#7b2e667041)"><path fill="#000000" d="M 197 189.164062 L 27.589844 189.164062 C 27.285156 189.164062 26.984375 189.121094 26.6875 189.042969 C 26.390625 188.964844 26.109375 188.847656 25.847656 188.691406 C 25.582031 188.539062 25.339844 188.355469 25.125 188.136719 C 24.910156 187.921875 24.722656 187.679688 24.570312 187.414062 C 24.417969 187.148438 24.304688 186.867188 24.222656 186.570312 C 24.144531 186.277344 24.105469 185.976562 24.105469 185.667969 C 24.105469 185.363281 24.144531 185.0625 24.226562 184.765625 C 24.304688 184.472656 24.421875 184.191406 24.574219 183.925781 L 109.269531 37.242188 C 109.578125 36.699219 110.007812 36.273438 110.546875 35.960938 C 111.085938 35.648438 111.671875 35.492188 112.296875 35.492188 C 112.921875 35.492188 113.503906 35.648438 114.042969 35.960938 C 114.585938 36.273438 115.011719 36.699219 115.324219 37.242188 L 200.015625 183.925781 C 200.171875 184.191406 200.285156 184.472656 200.367188 184.765625 C 200.445312 185.0625 200.484375 185.363281 200.484375 185.667969 C 200.484375 185.976562 200.445312 186.277344 200.367188 186.570312 C 200.289062 186.867188 200.171875 187.148438 200.019531 187.414062 C 199.867188 187.679688 199.683594 187.921875 199.464844 188.136719 C 199.25 188.355469 199.007812 188.539062 198.746094 188.691406 C 198.480469 188.847656 198.199219 188.964844 197.902344 189.042969 C 197.609375 189.121094 197.308594 189.164062 197 189.164062 Z M 33.644531 182.179688 L 190.945312 182.179688 L 112.296875 45.972656 Z M 33.644531 182.179688 " fill-opacity="1" fill-rule="nonzero"/></g></svg>