<svg xmlns="http://www.w3.org/2000/svg" xmlns:xlink="http://www.w3.org/1999/xlink" width="300" zoomAndPan="magnify" viewBox="0 0 224.87999 225" height="300" preserveAspectRatio="xMidYMid meet" version="1.0"><defs><clipPath id="e3c6329129"><path d="M 40.59375 9.859375 L 184.515625 9.859375 L 184.515625 215.25 L 40.59375 215.25 Z M 40.59375 9.859375 " clip-rule="nonzero"/></clipPath></defs><g clip-path="url(#e3c6329129)"><path fill="#000000" d="M 163.382812 30.890625 C 149.820312 17.34375 131.71875 9.859375 112.527344 9.859375 C 93.332031 9.859375 75.289062 17.34375 61.726562 30.890625 C 48.164062 44.4375 40.671875 62.464844 40.671875 81.636719 L 40.671875 214.757812 C 40.671875 215.03125 40.890625 215.25 41.164062 215.25 L 183.941406 215.25 C 184.214844 215.25 184.433594 215.03125 184.433594 214.757812 L 184.433594 81.636719 C 184.433594 62.464844 176.941406 44.4375 163.382812 30.890625 Z M 87.316406 147.625 C 85.566406 144.621094 83.050781 141.726562 79.660156 138.773438 C 77.363281 136.808594 74.851562 134.953125 72.445312 133.148438 C 70.640625 131.835938 68.78125 130.472656 66.976562 128.996094 C 61.5625 124.628906 56.75 119.601562 52.703125 113.976562 C 51.773438 112.71875 50.84375 111.351562 50.570312 109.824219 C 50.242188 108.238281 50.460938 106.492188 51.445312 104.253906 C 52.320312 104.90625 53.25 105.398438 54.289062 105.726562 C 55.546875 106.109375 56.859375 106.328125 58.226562 106.328125 C 61.398438 106.328125 64.625 105.234375 67.304688 103.214844 C 66.539062 105.125 65.773438 107.585938 66.429688 109.277344 C 66.921875 110.535156 67.960938 111.460938 68.78125 112.226562 C 74.46875 117.363281 80.917969 121.894531 87.152344 126.320312 C 89.285156 127.796875 91.472656 129.378906 93.660156 130.910156 C 92.839844 133.3125 91.855469 135.714844 90.925781 138.066406 C 89.613281 141.234375 88.300781 144.457031 87.316406 147.625 Z M 80.753906 86.992188 C 80.753906 87.480469 80.753906 87.972656 80.808594 88.464844 C 80.863281 89.011719 80.917969 89.503906 81.027344 89.996094 C 81.191406 90.921875 81.300781 91.742188 81.246094 92.617188 C 81.191406 93.492188 80.808594 94.472656 80.261719 95.292969 C 80.261719 95.292969 80.261719 95.292969 80.207031 95.347656 C 79.550781 96.332031 78.675781 97.097656 77.746094 97.480469 C 77.527344 97.589844 77.363281 97.589844 77.308594 97.535156 C 77.199219 97.480469 77.199219 97.480469 77.144531 97.425781 C 77.089844 97.316406 77.089844 97.097656 77.308594 96.550781 C 77.363281 96.386719 77.472656 96.222656 77.527344 96.113281 C 78.402344 94.253906 79.332031 91.46875 78.675781 88.519531 C 78.675781 88.410156 78.511719 88.300781 78.402344 88.300781 C 78.292969 88.300781 78.183594 88.410156 78.183594 88.574219 C 78.183594 91.03125 77.582031 93.765625 76.378906 96.496094 C 76.378906 96.496094 76.378906 96.496094 76.378906 96.550781 C 76.269531 96.878906 76.105469 97.152344 75.996094 97.371094 C 75.835938 97.75 75.617188 98.1875 75.234375 98.40625 C 74.960938 98.625 74.46875 98.625 74.25 98.40625 C 74.085938 98.242188 74.085938 97.96875 74.140625 97.535156 C 74.140625 97.535156 74.140625 97.480469 74.140625 97.480469 C 74.140625 97.480469 74.140625 97.480469 74.140625 97.425781 L 74.140625 97.371094 C 74.25 96.769531 74.46875 96.113281 74.632812 95.511719 C 75.070312 93.984375 75.5625 92.398438 75.234375 90.761719 C 75.234375 90.652344 75.125 90.542969 74.960938 90.542969 C 74.851562 90.542969 74.742188 90.652344 74.742188 90.761719 C 74.523438 92.289062 74.140625 93.929688 73.703125 95.511719 C 73.59375 96.003906 73.484375 96.496094 73.320312 96.933594 C 73.265625 97.097656 73.210938 97.316406 73.15625 97.480469 C 72.773438 98.789062 72.28125 99.554688 71.515625 99.9375 C 71.1875 100.101562 70.804688 100.101562 70.585938 99.882812 C 70.53125 99.828125 70.53125 99.773438 70.53125 99.71875 C 70.476562 99.5 70.53125 99.171875 70.640625 98.84375 C 71.570312 96.058594 71.84375 93.109375 71.460938 90.160156 C 71.351562 89.394531 71.351562 88.738281 71.351562 88.082031 C 71.351562 87.753906 71.351562 87.371094 71.296875 87.046875 C 71.296875 86.773438 71.296875 86.5 71.242188 86.171875 C 71.242188 86.007812 71.1875 85.625 70.914062 85.460938 C 70.75 85.351562 70.585938 85.351562 70.421875 85.40625 C 70.203125 85.460938 70.039062 85.625 69.929688 85.789062 C 69.765625 86.0625 69.820312 86.390625 69.820312 86.664062 L 69.820312 87.15625 C 69.875 88.082031 69.820312 89.011719 69.710938 89.941406 C 69.710938 90.105469 69.601562 90.867188 69.164062 90.921875 C 68.835938 90.921875 68.617188 90.542969 68.453125 90.214844 C 68.070312 89.230469 67.960938 88.136719 67.90625 87.101562 C 67.851562 86.773438 67.851562 86.390625 67.796875 86.0625 C 67.796875 86.0625 67.796875 86.0625 67.796875 86.007812 C 67.796875 86.007812 67.796875 86.007812 67.796875 85.953125 C 67.742188 85.296875 67.632812 84.75 67.46875 84.257812 C 67.414062 84.039062 67.304688 83.824219 67.140625 83.605469 C 66.59375 82.949219 65.554688 83.277344 65.226562 83.386719 C 65.117188 83.441406 65.007812 83.441406 64.898438 83.496094 C 64.296875 83.167969 63.75 82.839844 63.148438 82.621094 C 63.53125 82.183594 63.859375 81.746094 64.242188 81.253906 C 64.679688 80.707031 65.117188 80.109375 65.609375 79.5625 C 68.015625 76.832031 72.117188 76.285156 75.179688 78.195312 C 76.050781 78.742188 76.871094 79.5625 77.582031 80.21875 C 79.113281 81.691406 80.316406 83.003906 80.535156 85.023438 C 80.589844 85.515625 80.589844 86.0625 80.644531 86.554688 Z M 85.839844 91.632812 C 85.839844 91.90625 85.839844 92.179688 85.785156 92.453125 C 85.785156 92.453125 85.785156 92.507812 85.785156 92.507812 C 85.785156 92.78125 85.730469 93 85.675781 93.21875 C 85.675781 93.328125 85.621094 93.4375 85.621094 93.601562 C 85.621094 93.765625 85.566406 93.929688 85.566406 94.09375 C 85.511719 94.527344 85.402344 95.019531 85.183594 95.292969 C 85.074219 95.457031 84.800781 95.675781 84.144531 95.511719 C 83.980469 95.457031 83.816406 95.402344 83.707031 95.347656 C 83.597656 95.292969 83.488281 95.238281 83.378906 95.238281 C 82.722656 95.019531 81.792969 95.074219 81.027344 95.238281 C 81.464844 94.417969 81.738281 93.601562 81.792969 92.78125 C 81.847656 91.851562 81.738281 90.921875 81.574219 89.996094 C 81.519531 89.503906 81.410156 88.957031 81.355469 88.464844 C 81.300781 87.972656 81.300781 87.480469 81.300781 87.046875 C 81.957031 86.992188 82.558594 86.828125 83.050781 86.554688 C 83.542969 86.335938 83.925781 86.28125 84.199219 86.390625 C 84.746094 86.609375 84.964844 87.425781 85.238281 88.300781 L 85.292969 88.519531 C 85.292969 88.574219 85.292969 88.574219 85.347656 88.628906 C 85.347656 88.683594 85.347656 88.738281 85.402344 88.738281 C 85.457031 88.902344 85.511719 89.066406 85.511719 89.175781 C 85.511719 89.285156 85.566406 89.339844 85.566406 89.449219 C 85.566406 89.503906 85.566406 89.558594 85.621094 89.613281 C 85.675781 89.886719 85.730469 90.160156 85.730469 90.488281 C 85.839844 90.8125 85.839844 91.195312 85.839844 91.632812 Z M 106.621094 138.882812 L 106.511719 139.484375 C 105.964844 139.265625 105.363281 138.992188 104.761719 138.664062 C 104.980469 136.589844 105.199219 134.460938 105.582031 132.328125 C 105.800781 131.074219 105.964844 129.816406 106.183594 128.613281 C 106.785156 124.957031 107.441406 121.1875 107.550781 117.417969 C 107.550781 117.253906 107.550781 117.144531 107.550781 116.980469 C 108.042969 120.09375 108.207031 123.042969 108.152344 125.828125 C 108.097656 130.089844 107.332031 134.570312 106.621094 138.882812 Z M 106.128906 206.839844 C 106.457031 206.511719 106.730469 206.183594 106.949219 205.800781 C 106.621094 207.003906 106.238281 208.257812 105.800781 209.460938 C 105.910156 208.695312 106.074219 207.820312 106.128906 206.839844 Z M 96.121094 132.21875 C 97.816406 128.125 99.511719 123.917969 99.839844 119.492188 C 100.441406 111.460938 96.339844 104.089844 92.785156 99.28125 C 91.363281 97.316406 89.066406 94.691406 86.113281 93.875 C 86.113281 93.765625 86.113281 93.710938 86.167969 93.601562 C 86.167969 93.492188 86.222656 93.382812 86.222656 93.273438 C 86.222656 93.164062 86.277344 93 86.277344 92.890625 C 86.277344 92.835938 86.277344 92.726562 86.277344 92.671875 C 86.277344 92.726562 86.277344 92.835938 86.277344 92.890625 C 91.964844 95.730469 96.339844 101.847656 99.621094 111.460938 C 100.660156 114.578125 101.589844 117.855469 101.480469 121.132812 C 101.371094 123.644531 100.605469 126.101562 99.894531 128.503906 C 99.785156 128.886719 99.675781 129.214844 99.566406 129.597656 C 99.128906 131.019531 98.746094 132.492188 98.417969 133.859375 C 97.597656 133.3125 96.886719 132.765625 96.121094 132.21875 Z M 86.113281 89.285156 C 86.113281 89.285156 86.113281 89.339844 86.113281 89.339844 C 86.113281 89.285156 86.113281 89.285156 86.113281 89.285156 Z M 103.230469 134.296875 C 103.121094 135.332031 103.011719 136.371094 102.902344 137.410156 C 102.683594 137.246094 102.410156 137.027344 102.136719 136.808594 C 102.792969 133.039062 103.503906 128.667969 103.503906 124.300781 C 103.503906 123.207031 103.449219 122.167969 103.339844 121.1875 C 103.394531 121.078125 103.394531 120.96875 103.449219 120.804688 C 103.667969 125.28125 103.613281 129.816406 103.230469 134.296875 Z M 100.113281 111.300781 C 99.074219 108.292969 97.980469 105.617188 96.722656 103.269531 C 100.113281 108.621094 102.191406 114.792969 102.792969 121.1875 C 102.355469 122.824219 101.863281 124.464844 101.316406 125.992188 C 100.878906 127.304688 100.441406 128.613281 99.949219 129.925781 C 99.949219 129.871094 99.949219 129.816406 100.003906 129.761719 C 100.113281 129.378906 100.222656 129.050781 100.332031 128.667969 C 101.097656 126.265625 101.863281 123.753906 101.972656 121.1875 C 102.136719 117.800781 101.152344 114.414062 100.113281 111.300781 Z M 86.277344 90.433594 Z M 86.332031 92.34375 C 86.332031 92.289062 86.332031 92.234375 86.332031 92.125 C 86.660156 92.34375 86.933594 92.5625 87.261719 92.78125 C 86.933594 92.671875 86.605469 92.507812 86.332031 92.34375 C 86.332031 92.398438 86.332031 92.453125 86.332031 92.453125 C 86.332031 92.398438 86.332031 92.398438 86.332031 92.34375 Z M 86.332031 91.960938 C 86.332031 91.851562 86.332031 91.742188 86.332031 91.632812 C 86.332031 91.578125 86.332031 91.578125 86.332031 91.523438 C 86.332031 91.578125 86.332031 91.578125 86.332031 91.632812 C 86.332031 91.742188 86.332031 91.851562 86.332031 91.960938 Z M 98.910156 134.351562 C 99.128906 133.640625 99.402344 132.984375 99.621094 132.328125 C 100.332031 130.308594 101.097656 128.179688 101.753906 126.15625 C 102.136719 125.0625 102.464844 123.917969 102.847656 122.769531 C 102.847656 123.261719 102.902344 123.808594 102.902344 124.355469 C 102.902344 128.558594 102.246094 132.820312 101.589844 136.480469 C 101.261719 136.207031 100.878906 135.933594 100.550781 135.660156 C 100.003906 135.171875 99.511719 134.789062 98.910156 134.351562 Z M 103.558594 117.253906 C 103.394531 115.941406 103.230469 114.578125 103.011719 113.15625 C 102.246094 108.675781 101.261719 105.070312 99.839844 102.011719 C 101.535156 104.253906 102.792969 106.765625 103.394531 109.550781 C 103.996094 112.0625 103.941406 114.6875 103.558594 117.253906 Z M 102.464844 113.210938 C 102.792969 115.230469 103.066406 117.199219 103.230469 119.109375 C 103.175781 119.273438 103.175781 119.492188 103.121094 119.65625 C 101.699219 108.457031 95.519531 98.023438 86.332031 91.523438 C 86.332031 91.25 86.332031 90.976562 86.277344 90.707031 C 86.441406 90.707031 86.550781 90.761719 86.714844 90.8125 C 90.925781 93.601562 95.082031 96.605469 98.253906 100.15625 C 100.222656 103.542969 101.589844 107.695312 102.464844 113.210938 Z M 87.261719 92.835938 Z M 88.464844 91.304688 C 91.636719 92.453125 94.589844 94.800781 96.832031 97.859375 C 94.371094 95.511719 91.417969 93.328125 88.464844 91.304688 Z M 98.363281 135.933594 C 98.472656 135.550781 98.636719 135.226562 98.746094 134.84375 C 99.238281 135.226562 99.730469 135.605469 100.222656 135.988281 C 100.660156 136.316406 101.097656 136.644531 101.535156 136.972656 C 101.425781 137.628906 101.316406 138.285156 101.207031 138.9375 C 100.878906 140.796875 100.550781 142.707031 100.277344 144.621094 C 98.910156 154.015625 99.074219 162.210938 100.824219 169.582031 C 101.644531 172.96875 102.792969 176.355469 103.996094 179.636719 C 105.910156 185.097656 107.878906 190.777344 108.097656 196.570312 C 107.167969 190.941406 104.980469 185.589844 102.847656 180.398438 C 101.425781 176.847656 99.894531 173.132812 98.800781 169.421875 C 95.792969 159.3125 95.683594 148.007812 98.363281 135.933594 Z M 106.839844 207.929688 C 107.441406 206.074219 107.878906 204.214844 108.152344 202.46875 C 108.152344 202.46875 108.152344 202.46875 108.152344 202.414062 C 108.152344 202.359375 108.152344 202.304688 108.207031 202.195312 C 108.480469 200.445312 108.589844 198.699219 108.535156 197.003906 C 108.425781 190.941406 106.347656 185.097656 104.378906 179.472656 C 103.230469 176.195312 102.027344 172.859375 101.261719 169.472656 C 99.511719 162.15625 99.347656 154.015625 100.714844 144.675781 C 100.988281 142.816406 101.316406 140.90625 101.644531 139.046875 C 101.753906 138.503906 101.863281 137.902344 101.917969 137.355469 C 102.191406 137.574219 102.464844 137.792969 102.738281 137.957031 L 102.628906 138.828125 C 102.300781 141.34375 101.972656 143.910156 101.863281 146.476562 C 101.480469 154.617188 103.121094 162.863281 106.621094 170.238281 C 106.730469 170.402344 106.785156 170.621094 106.894531 170.785156 C 107.113281 171.550781 107.386719 172.261719 107.605469 173.023438 C 107.988281 174.226562 108.480469 175.429688 108.917969 176.574219 C 109.847656 179.089844 110.832031 181.710938 111.433594 184.386719 C 113.292969 192.417969 111.542969 201.210938 106.839844 207.929688 C 106.839844 207.929688 106.839844 207.984375 106.839844 207.929688 C 106.839844 207.984375 106.839844 207.929688 106.839844 207.929688 Z M 111.871094 198.042969 C 111.816406 198.535156 111.761719 198.972656 111.542969 199.300781 C 111.652344 198.863281 111.761719 198.425781 111.871094 198.042969 Z M 112.035156 184.277344 C 111.433594 181.546875 110.449219 178.925781 109.464844 176.355469 C 109.191406 175.539062 108.863281 174.71875 108.535156 173.898438 C 109.464844 175.703125 110.394531 177.613281 111.050781 179.582031 C 111.652344 181.4375 112.035156 183.347656 112.199219 185.316406 C 112.144531 184.988281 112.089844 184.660156 112.035156 184.277344 Z M 102.464844 146.53125 C 102.574219 143.964844 102.902344 141.398438 103.230469 138.9375 L 103.285156 138.339844 C 103.613281 138.558594 103.941406 138.773438 104.214844 138.9375 C 103.230469 149.207031 103.886719 158.824219 106.074219 167.507812 C 103.339844 160.84375 102.136719 153.6875 102.464844 146.53125 Z M 104.652344 104.796875 C 105.472656 107.09375 106.183594 109.605469 106.785156 112.445312 C 106.785156 112.554688 106.839844 112.609375 106.839844 112.71875 C 106.894531 112.882812 106.894531 113.101562 106.949219 113.265625 C 106.949219 113.265625 106.949219 113.320312 106.949219 113.320312 C 107.058594 114.578125 107.113281 115.941406 107.058594 117.308594 C 106.949219 121.023438 106.292969 124.792969 105.691406 128.398438 C 105.472656 129.597656 105.253906 130.910156 105.089844 132.164062 C 104.761719 134.242188 104.488281 136.261719 104.324219 138.285156 C 104.050781 138.121094 103.722656 137.902344 103.394531 137.683594 C 103.558594 136.589844 103.667969 135.441406 103.777344 134.296875 C 104.269531 129.269531 104.269531 124.136719 103.832031 119.109375 C 104.488281 115.941406 104.707031 112.664062 103.996094 109.386719 C 103.175781 105.726562 101.316406 102.613281 98.800781 99.773438 C 98.582031 99.335938 98.308594 98.953125 98.035156 98.515625 C 95.300781 94.308594 91.253906 91.304688 87.042969 90.269531 C 86.988281 90.214844 86.933594 90.214844 86.878906 90.160156 C 86.824219 90.105469 86.496094 89.941406 86.277344 89.886719 C 86.277344 89.886719 86.277344 89.941406 86.277344 89.941406 C 86.277344 89.941406 86.277344 89.886719 86.277344 89.886719 C 86.277344 89.777344 86.277344 89.722656 86.222656 89.613281 C 90.050781 90.707031 93.332031 93.164062 96.558594 95.839844 C 99.238281 98.023438 101.808594 100.210938 103.667969 102.996094 C 103.996094 103.597656 104.324219 104.199219 104.652344 104.796875 Z M 96.886719 95.511719 C 93.496094 92.78125 90.105469 90.214844 86.058594 89.121094 C 86.003906 88.957031 85.949219 88.792969 85.894531 88.628906 C 91.035156 88.683594 96.285156 91.46875 100.003906 96.222656 C 101.316406 97.914062 102.464844 99.773438 103.449219 101.902344 C 101.644531 99.445312 99.347656 97.480469 96.886719 95.511719 Z M 70.421875 86.992188 L 70.421875 86.71875 C 70.421875 86.5 70.367188 86.28125 70.476562 86.117188 C 70.53125 86.0625 70.585938 86.007812 70.640625 86.007812 C 70.640625 86.007812 70.695312 86.007812 70.75 86.007812 C 70.804688 86.007812 70.859375 86.117188 70.859375 86.335938 C 70.859375 86.554688 70.914062 86.773438 70.914062 86.9375 C 70.859375 86.9375 70.804688 86.9375 70.75 86.9375 C 70.585938 86.992188 70.53125 86.992188 70.421875 86.992188 Z M 66.210938 84.421875 C 65.992188 84.257812 65.773438 84.148438 65.609375 83.984375 C 66.265625 83.824219 66.703125 83.824219 66.921875 84.09375 C 67.03125 84.203125 67.085938 84.367188 67.140625 84.53125 C 67.195312 84.804688 67.304688 85.078125 67.359375 85.40625 C 66.921875 85.078125 66.539062 84.695312 66.210938 84.421875 Z M 64.84375 84.148438 C 64.84375 84.203125 64.84375 84.203125 64.84375 84.148438 C 64.898438 84.203125 64.898438 84.203125 64.84375 84.148438 C 65.171875 84.367188 65.554688 84.585938 65.882812 84.804688 C 66.265625 85.078125 66.59375 85.460938 66.976562 85.84375 C 67.085938 86.007812 67.25 86.117188 67.359375 86.226562 C 67.414062 86.554688 67.414062 86.882812 67.46875 87.210938 C 67.578125 88.300781 67.6875 89.394531 68.070312 90.433594 C 68.34375 91.140625 68.78125 91.523438 69.273438 91.46875 C 69.820312 91.414062 70.203125 90.867188 70.3125 90.050781 C 70.421875 89.175781 70.421875 88.300781 70.421875 87.425781 C 70.53125 87.425781 70.585938 87.425781 70.695312 87.425781 C 70.75 87.425781 70.804688 87.425781 70.859375 87.425781 C 70.859375 87.699219 70.859375 87.972656 70.859375 88.246094 C 70.859375 88.902344 70.859375 89.613281 70.96875 90.378906 C 71.351562 93.21875 71.078125 96.113281 70.148438 98.84375 C 70.039062 99.171875 69.929688 99.554688 69.984375 99.882812 C 69.710938 100.15625 69.4375 100.429688 69.109375 100.757812 C 68.671875 101.191406 68.234375 101.628906 67.851562 102.011719 C 64.078125 105.453125 58.773438 106.710938 54.34375 105.289062 C 50.1875 103.925781 47.015625 99.609375 46.578125 94.527344 C 46.140625 89.777344 48.109375 85.789062 51.828125 83.769531 C 55.164062 81.964844 59.101562 81.746094 62.710938 83.167969 C 62.710938 83.167969 62.710938 83.167969 62.765625 83.167969 C 63.476562 83.386719 64.132812 83.769531 64.84375 84.148438 Z M 93.714844 130.472656 C 91.636719 128.941406 89.449219 127.414062 87.371094 125.9375 C 81.136719 121.566406 74.6875 117.035156 69.054688 111.898438 C 68.234375 111.136719 67.25 110.261719 66.8125 109.113281 C 66.15625 107.367188 67.140625 104.6875 67.960938 102.777344 C 67.960938 102.722656 67.960938 102.667969 67.960938 102.613281 C 68.070312 102.503906 68.179688 102.449219 68.234375 102.339844 C 68.671875 101.902344 69.109375 101.464844 69.546875 101.03125 C 69.765625 100.8125 70.039062 100.539062 70.257812 100.320312 C 70.476562 100.59375 70.75 100.648438 71.078125 100.648438 C 71.296875 100.648438 71.570312 100.59375 71.789062 100.484375 C 72.828125 99.992188 73.320312 98.953125 73.59375 98.023438 C 73.59375 98.296875 73.703125 98.515625 73.867188 98.734375 C 74.304688 99.226562 75.070312 99.171875 75.507812 98.84375 C 75.945312 98.515625 76.214844 98.023438 76.433594 97.589844 C 76.488281 97.480469 76.542969 97.371094 76.597656 97.261719 C 76.597656 97.425781 76.597656 97.535156 76.652344 97.640625 C 76.761719 97.804688 76.871094 97.96875 77.089844 98.023438 C 77.308594 98.078125 77.582031 98.078125 77.910156 97.914062 C 78.894531 97.480469 79.878906 96.714844 80.535156 95.675781 C 81.738281 95.402344 82.558594 95.347656 83.105469 95.566406 C 83.214844 95.621094 83.269531 95.621094 83.378906 95.675781 C 83.542969 95.730469 83.707031 95.839844 83.925781 95.894531 C 84.144531 95.949219 84.308594 95.949219 84.472656 95.949219 C 84.855469 95.949219 85.128906 95.839844 85.347656 95.621094 C 88.574219 96.714844 91.253906 99.882812 93.332031 105.015625 C 94.808594 108.675781 95.683594 111.953125 95.957031 115.011719 C 96.667969 120.859375 95.136719 126.320312 93.714844 130.472656 C 93.769531 130.472656 93.769531 130.472656 93.714844 130.472656 Z M 94.207031 130.746094 C 95.628906 126.539062 97.214844 120.96875 96.667969 115.066406 C 96.394531 111.953125 95.519531 108.675781 93.988281 104.90625 C 91.855469 99.664062 89.121094 96.441406 85.839844 95.238281 C 85.785156 95.292969 85.785156 95.347656 85.730469 95.402344 C 85.785156 95.347656 85.785156 95.292969 85.839844 95.238281 C 85.949219 94.964844 86.058594 94.691406 86.058594 94.363281 C 88.847656 95.128906 90.980469 97.640625 92.347656 99.554688 C 98.691406 108.128906 99.621094 115.066406 99.347656 119.382812 C 99.019531 123.699219 97.378906 127.851562 95.683594 131.835938 C 95.191406 131.511719 94.699219 131.128906 94.207031 130.746094 Z M 95.847656 132.929688 C 95.902344 132.820312 95.902344 132.765625 95.957031 132.710938 C 96.722656 133.257812 97.488281 133.859375 98.199219 134.40625 C 98.089844 134.84375 97.980469 135.277344 97.871094 135.769531 L 97.871094 135.824219 C 94.261719 146.3125 91.089844 157.019531 93.167969 167.78125 C 94.261719 173.40625 96.722656 178.707031 99.183594 183.839844 C 99.839844 185.207031 100.496094 186.679688 101.152344 188.101562 C 100.386719 187.007812 99.566406 185.972656 98.746094 184.933594 C 96.121094 181.546875 93.441406 178.050781 91.636719 174.226562 C 88.902344 168.382812 88.136719 161.117188 89.394531 153.359375 C 90.542969 146.09375 93.222656 139.320312 95.847656 132.929688 Z M 102.574219 190.066406 C 102.574219 190.066406 102.519531 190.066406 102.574219 190.066406 C 102.355469 189.578125 102.136719 189.085938 101.917969 188.59375 C 101.207031 186.953125 100.386719 185.261719 99.621094 183.621094 C 97.214844 178.542969 94.753906 173.296875 93.660156 167.726562 C 91.855469 158.386719 94.097656 148.988281 97.105469 139.8125 C 95.246094 150.519531 95.628906 160.570312 98.253906 169.746094 C 99.347656 173.515625 100.824219 177.175781 102.300781 180.78125 C 104.488281 186.136719 106.730469 191.652344 107.605469 197.441406 C 107.988281 200.121094 108.042969 203.722656 106.183594 206.074219 C 106.292969 202.796875 105.691406 198.480469 103.503906 192.527344 C 105.527344 195.804688 106.621094 198.644531 107.058594 201.59375 C 107.058594 201.703125 107.167969 201.8125 107.332031 201.8125 C 107.332031 201.8125 107.332031 201.8125 107.386719 201.8125 C 107.550781 201.8125 107.605469 201.648438 107.605469 201.539062 C 107.003906 197.769531 105.472656 194.273438 102.574219 190.066406 Z M 105.800781 209.460938 Z M 106.730469 208.3125 C 106.730469 208.367188 106.785156 208.421875 106.839844 208.421875 C 106.894531 208.476562 106.949219 208.476562 107.003906 208.476562 C 107.113281 208.476562 107.167969 208.421875 107.222656 208.367188 C 109.027344 205.855469 110.394531 203.070312 111.324219 200.121094 C 111.378906 200.121094 111.378906 200.121094 111.378906 200.121094 C 112.144531 199.792969 112.308594 198.917969 112.417969 198.152344 C 112.964844 192.253906 113.621094 185.589844 111.597656 179.472656 C 110.832031 177.230469 109.738281 175.101562 108.699219 173.023438 C 108.316406 172.261719 107.878906 171.441406 107.496094 170.675781 C 104.652344 161.226562 103.722656 150.683594 104.761719 139.265625 C 105.308594 139.59375 105.910156 139.867188 106.457031 140.03125 C 105.363281 146.53125 104.160156 153.90625 106.019531 161.007812 C 107.058594 164.941406 109.027344 168.601562 110.941406 172.152344 C 112.417969 174.9375 114.003906 177.777344 115.097656 180.78125 C 118.816406 190.996094 117.011719 203.179688 110.503906 211.863281 C 110.394531 211.972656 110.449219 212.136719 110.558594 212.246094 C 110.613281 212.300781 110.667969 212.300781 110.722656 212.300781 C 110.777344 212.300781 110.886719 212.246094 110.941406 212.191406 C 117.558594 203.398438 119.417969 190.996094 115.644531 180.617188 C 114.550781 177.613281 112.964844 174.71875 111.488281 171.933594 C 109.574219 168.4375 107.605469 164.777344 106.566406 160.898438 C 104.707031 153.960938 105.910156 146.640625 107.003906 140.195312 C 109.300781 140.960938 112.089844 140.796875 114.988281 139.757812 C 115.808594 139.484375 116.464844 138.9375 116.957031 138.230469 C 117.832031 136.917969 118.761719 135.277344 119.144531 133.53125 C 119.691406 131.128906 118.980469 128.777344 117.394531 127.523438 C 116.738281 127.03125 115.917969 126.703125 115.152344 126.375 C 114.003906 125.882812 112.910156 125.445312 112.363281 124.410156 C 111.980469 123.699219 111.980469 122.824219 111.980469 122.058594 C 111.980469 120.640625 111.980469 119.054688 112.417969 117.582031 C 112.417969 117.636719 112.417969 117.636719 112.472656 117.691406 C 112.417969 117.800781 112.417969 117.910156 112.417969 117.964844 C 112.417969 118.234375 112.472656 118.507812 112.636719 118.671875 C 112.800781 118.890625 112.964844 119.054688 113.238281 119.109375 C 113.730469 119.273438 114.222656 119.273438 114.714844 119.21875 L 114.933594 119.164062 C 115.316406 119.109375 115.699219 119.054688 116.027344 119.109375 C 116.246094 119.109375 116.410156 119.21875 116.628906 119.273438 C 116.792969 119.328125 116.902344 119.382812 117.066406 119.382812 C 117.230469 119.4375 117.613281 119.492188 117.941406 119.492188 C 118.378906 119.492188 118.816406 119.382812 119.035156 118.945312 C 119.089844 118.835938 119.144531 118.726562 119.144531 118.617188 C 119.199219 118.5625 119.308594 118.453125 119.253906 118.179688 C 119.035156 117.472656 118.542969 116.816406 118.050781 116.269531 L 117.886719 116.105469 C 117.832031 115.996094 117.722656 115.886719 117.667969 115.777344 C 117.285156 115.285156 116.847656 114.683594 116.136719 114.578125 C 115.863281 114.523438 115.644531 114.632812 115.480469 114.683594 C 115.371094 114.738281 115.316406 114.738281 115.207031 114.792969 C 115.097656 114.792969 114.988281 114.738281 114.824219 114.683594 C 114.660156 114.632812 114.496094 114.578125 114.332031 114.578125 C 114.113281 114.578125 113.894531 114.632812 113.785156 114.738281 C 114.113281 114.195312 114.441406 113.59375 114.496094 112.882812 C 114.550781 112.5 114.550781 112.117188 114.496094 111.789062 C 114.496094 111.246094 114.441406 110.753906 114.660156 110.316406 C 114.824219 109.933594 115.097656 109.660156 115.425781 109.386719 L 115.535156 109.222656 C 116.847656 107.910156 117.886719 106.382812 118.871094 104.90625 C 118.925781 104.796875 119.035156 104.6875 119.089844 104.578125 C 119.089844 104.578125 119.089844 104.523438 119.144531 104.523438 C 119.636719 103.761719 120.183594 102.996094 120.730469 102.285156 C 122.863281 99.445312 124.992188 97.804688 127.34375 97.316406 C 128.4375 97.097656 129.476562 97.207031 130.351562 97.695312 C 130.625 97.804688 130.84375 97.96875 131.0625 98.1875 C 131.0625 98.1875 131.117188 98.242188 131.117188 98.242188 C 131.828125 98.789062 132.429688 99.609375 133.03125 100.59375 C 133.140625 100.757812 133.195312 100.921875 133.304688 101.082031 C 133.304688 101.136719 133.359375 101.136719 133.359375 101.191406 C 133.90625 102.285156 134.398438 103.542969 134.78125 105.015625 C 134.835938 105.125 134.835938 105.289062 134.890625 105.398438 C 134.890625 105.453125 134.890625 105.507812 134.945312 105.5625 C 135.492188 107.855469 135.820312 110.425781 135.875 112.828125 C 135.929688 114.578125 135.765625 116.160156 135.492188 117.144531 C 135.164062 118.34375 134.671875 119.546875 134.179688 120.75 C 134.125 120.859375 134.070312 120.96875 134.015625 121.132812 C 134.015625 121.1875 133.960938 121.242188 133.960938 121.296875 C 133.523438 122.386719 133.085938 123.371094 132.757812 124.410156 C 131.609375 127.742188 131.71875 130.636719 131.882812 133.695312 C 131.9375 135.117188 131.992188 136.589844 131.9375 138.230469 C 131.9375 138.71875 131.9375 139.15625 131.992188 139.539062 C 132.046875 139.8125 132.046875 140.085938 132.15625 140.359375 C 132.703125 142.324219 133.578125 144.183594 134.835938 146.039062 C 134.289062 147.132812 133.46875 148.117188 132.375 148.878906 C 130.789062 149.972656 128.109375 150.683594 126.359375 150.027344 C 125.429688 149.699219 124.773438 148.988281 124.5 147.953125 C 124.007812 146.257812 124.992188 144.292969 126.632812 143.691406 C 126.742188 143.636719 126.796875 143.582031 126.796875 143.472656 C 126.796875 143.363281 126.742188 143.253906 126.632812 143.253906 C 126.523438 143.199219 126.46875 143.199219 126.359375 143.144531 C 126.25 143.089844 126.140625 143.089844 126.03125 143.035156 C 123.953125 142.433594 121.550781 143.089844 120.074219 144.730469 C 117.339844 147.789062 118.160156 152.539062 120.402344 155.65625 C 122.644531 158.714844 126.085938 160.460938 129.640625 160.460938 C 130.734375 160.460938 131.828125 160.296875 132.921875 159.96875 C 136.53125 158.824219 139.539062 156.363281 141.234375 153.140625 C 142 153.851562 142.820312 154.507812 143.585938 155.164062 L 144.40625 155.871094 C 147.140625 158.222656 149.984375 160.679688 152.171875 163.410156 C 153.101562 164.613281 154.25 166.195312 154.90625 168 C 154.851562 168.65625 154.796875 169.3125 154.742188 170.019531 C 154.414062 172.535156 153.375 174.773438 151.84375 176.300781 C 150.09375 178.050781 147.6875 178.871094 145.5 178.433594 C 143.148438 177.996094 141.289062 175.976562 141.125 173.789062 C 141.015625 172.371094 141.617188 171.003906 142.65625 170.292969 C 143.75 169.527344 145.335938 169.582031 146.265625 170.457031 C 146.375 170.566406 146.539062 170.566406 146.648438 170.457031 C 146.757812 170.347656 146.757812 170.183594 146.648438 170.074219 C 145.554688 169.039062 143.695312 168.984375 142.382812 169.910156 C 141.179688 170.730469 140.523438 172.316406 140.632812 173.898438 C 140.796875 176.300781 142.875 178.542969 145.445312 179.035156 C 145.882812 179.089844 146.265625 179.144531 146.703125 179.144531 C 148.671875 179.144531 150.75 178.269531 152.28125 176.738281 C 153.867188 175.101562 154.960938 172.804688 155.34375 170.128906 C 155.34375 169.964844 155.398438 169.746094 155.398438 169.582031 C 155.617188 170.839844 155.617188 172.042969 155.5625 173.023438 C 155.507812 174.445312 155.398438 175.757812 155.289062 176.957031 C 155.234375 177.011719 155.234375 177.011719 155.179688 177.066406 C 155.070312 177.175781 155.070312 177.339844 155.179688 177.449219 C 155.179688 177.449219 155.234375 177.503906 155.234375 177.503906 C 154.578125 184.058594 153.15625 190.613281 150.914062 197.058594 C 150.585938 197.988281 150.257812 198.917969 149.929688 199.792969 C 149.21875 201.703125 148.5625 203.289062 147.960938 204.761719 C 147.742188 205.308594 147.523438 205.855469 147.25 206.402344 L 146.8125 207.382812 C 145.992188 209.40625 145.007812 211.644531 143.96875 214.429688 L 104.433594 214.429688 C 105.308594 212.246094 106.074219 210.226562 106.730469 208.3125 Z M 112.855469 117.855469 C 112.910156 117.855469 112.910156 117.855469 112.964844 117.855469 C 113.019531 117.855469 113.074219 117.855469 113.183594 117.855469 C 113.402344 117.855469 113.621094 117.691406 113.785156 117.582031 C 113.839844 117.527344 113.894531 117.527344 113.894531 117.527344 C 114.332031 117.253906 114.878906 117.199219 115.644531 117.363281 C 116.300781 117.472656 116.957031 117.910156 117.449219 118.289062 C 117.777344 118.507812 117.996094 118.617188 118.378906 118.726562 C 118.433594 118.78125 118.488281 118.78125 118.542969 118.78125 C 118.542969 118.78125 118.542969 118.78125 118.542969 118.835938 C 118.324219 119.21875 117.667969 119.109375 117.121094 119 C 117.011719 118.945312 116.847656 118.945312 116.738281 118.890625 C 116.519531 118.835938 116.300781 118.726562 116.027344 118.726562 C 115.917969 118.726562 115.753906 118.726562 115.644531 118.726562 C 115.371094 118.726562 115.097656 118.78125 114.769531 118.78125 L 114.550781 118.78125 C 114.386719 118.78125 114.167969 118.835938 114.003906 118.835938 C 113.785156 118.835938 113.511719 118.78125 113.347656 118.726562 C 113.019531 118.617188 112.855469 118.34375 112.855469 118.019531 C 112.855469 117.910156 112.855469 117.855469 112.855469 117.855469 Z M 113.566406 117.089844 L 113.621094 117.035156 C 113.730469 116.816406 113.894531 116.597656 114.058594 116.597656 C 114.113281 116.597656 114.222656 116.652344 114.332031 116.652344 C 114.441406 116.707031 114.550781 116.761719 114.660156 116.761719 C 114.277344 116.761719 113.949219 116.871094 113.566406 117.089844 C 113.621094 117.089844 113.566406 117.089844 113.566406 117.089844 Z M 114.988281 116.761719 C 115.097656 116.761719 115.152344 116.707031 115.261719 116.652344 C 115.316406 116.652344 115.371094 116.597656 115.425781 116.597656 C 115.972656 116.433594 116.410156 116.816406 116.847656 117.253906 C 116.519531 117.035156 116.082031 116.871094 115.699219 116.816406 C 115.480469 116.761719 115.261719 116.761719 114.988281 116.761719 Z M 118.542969 118.179688 C 118.214844 118.019531 117.886719 117.636719 117.558594 117.253906 C 117.066406 116.652344 116.464844 115.996094 115.699219 115.996094 C 115.589844 115.996094 115.425781 115.996094 115.261719 116.050781 C 115.152344 116.050781 115.097656 116.105469 115.042969 116.160156 C 114.933594 116.214844 114.878906 116.214844 114.824219 116.214844 C 114.769531 116.214844 114.660156 116.160156 114.550781 116.160156 C 114.386719 116.105469 114.277344 116.050781 114.058594 116.050781 C 113.621094 116.050781 113.347656 116.488281 113.183594 116.761719 L 113.128906 116.871094 C 112.964844 117.144531 112.855469 117.253906 112.800781 117.308594 C 112.800781 117.308594 112.800781 117.253906 112.800781 117.199219 C 112.910156 116.871094 113.128906 116.542969 113.347656 116.214844 C 113.402344 116.105469 113.511719 115.996094 113.566406 115.832031 C 113.839844 115.449219 114.058594 115.230469 114.277344 115.230469 C 114.386719 115.230469 114.496094 115.285156 114.605469 115.339844 C 114.769531 115.394531 114.988281 115.503906 115.207031 115.449219 C 115.371094 115.449219 115.480469 115.394531 115.644531 115.339844 C 115.808594 115.285156 115.917969 115.230469 116.027344 115.285156 C 116.519531 115.339844 116.902344 115.832031 117.230469 116.269531 C 117.339844 116.378906 117.394531 116.488281 117.503906 116.597656 L 117.613281 116.761719 C 117.996094 117.199219 118.378906 117.691406 118.597656 118.234375 C 118.597656 118.179688 118.542969 118.179688 118.542969 118.179688 Z M 152.9375 140.6875 C 153.648438 143.363281 155.5625 145.496094 157.3125 147.570312 C 158.351562 148.773438 159.5 150.027344 160.320312 151.394531 C 163.710938 156.855469 163.601562 164.613281 160.15625 172.699219 C 159.71875 173.734375 159.171875 174.828125 158.625 176.03125 C 155.398438 182.75 151.023438 191.980469 156.820312 197.824219 C 159.007812 200.066406 162.453125 201.320312 165.570312 200.992188 C 168.140625 200.71875 170.269531 199.464844 171.582031 197.441406 C 172.730469 195.695312 173.386719 192.910156 172.347656 190.722656 C 170.707031 187.28125 166.773438 187.828125 164.257812 188.539062 C 166.554688 187.226562 169.886719 187.554688 172.074219 189.46875 C 174.425781 191.542969 175.136719 195.476562 173.769531 198.535156 C 172.457031 201.429688 169.507812 203.5625 166.0625 204.105469 C 162.945312 204.597656 159.554688 203.777344 156.546875 201.867188 C 154.523438 200.554688 152.71875 198.863281 151.40625 196.839844 C 153.648438 190.339844 155.125 183.621094 155.726562 176.957031 C 160.15625 172.535156 161.742188 165.378906 159.554688 159.476562 C 158.625 156.964844 157.09375 154.78125 155.671875 152.59375 C 154.414062 150.738281 153.101562 148.773438 152.171875 146.695312 C 149.710938 141.070312 150.257812 134.734375 150.75 128.558594 C 151.242188 122.769531 151.734375 116.761719 149.765625 111.246094 C 147.085938 103.652344 139.484375 98.132812 131.445312 97.695312 C 130.789062 97.207031 130.132812 96.878906 129.367188 96.769531 C 129.3125 96.769531 129.203125 96.714844 129.148438 96.714844 C 129.203125 96.714844 129.3125 96.660156 129.367188 96.660156 C 135 95.511719 141.179688 96.988281 145.554688 100.867188 C 147.195312 102.285156 148.5625 103.980469 149.765625 105.617188 C 154.085938 111.300781 155.234375 117.582031 153.59375 126.539062 L 153.484375 126.976562 C 152.609375 131.621094 151.734375 136.261719 152.9375 140.6875 Z M 151.078125 197.550781 C 152.390625 199.464844 154.140625 201.101562 156.164062 202.359375 C 158.734375 203.941406 161.46875 204.816406 164.203125 204.816406 C 164.859375 204.816406 165.460938 204.761719 166.0625 204.652344 C 169.671875 204.105469 172.785156 201.867188 174.207031 198.808594 C 175.738281 195.476562 174.972656 191.433594 172.402344 189.140625 C 170.925781 187.773438 168.851562 187.171875 166.9375 187.28125 C 167.484375 187.171875 168.03125 187.117188 168.632812 187.117188 C 170.871094 187.171875 173.167969 188.265625 174.753906 190.011719 C 176.777344 192.199219 177.980469 196.679688 175.902344 201.320312 C 174.371094 204.761719 171.089844 207.546875 167.101562 208.75 C 163.601562 209.789062 159.5 209.734375 155.289062 208.585938 C 152.390625 207.765625 149.929688 206.402344 148.398438 204.652344 C 149 203.234375 149.601562 201.648438 150.3125 199.847656 C 150.53125 199.082031 150.804688 198.316406 151.078125 197.550781 Z M 148.070312 205.199219 C 150.257812 207.492188 153.320312 208.640625 155.070312 209.132812 C 157.3125 209.789062 159.554688 210.0625 161.6875 210.0625 C 163.601562 210.0625 165.460938 209.789062 167.210938 209.296875 C 171.363281 208.039062 174.753906 205.199219 176.339844 201.59375 C 178.472656 196.734375 177.214844 192.035156 175.082031 189.742188 C 173.386719 187.882812 170.925781 186.734375 168.578125 186.679688 C 167.046875 186.625 165.570312 187.0625 164.257812 187.828125 C 165.023438 187.117188 165.84375 186.570312 166.773438 186.191406 C 168.523438 185.535156 170.378906 185.589844 172.128906 186.355469 C 174.480469 187.390625 176.503906 189.632812 177.542969 192.363281 C 179.402344 197.332031 178.527344 203.125 175.300781 207.164062 C 171.855469 211.535156 165.570312 213.449219 158.515625 212.355469 C 158.132812 212.300781 157.75 212.246094 157.367188 212.136719 C 154.632812 211.589844 152.117188 210.605469 149.875 209.242188 C 148.945312 208.640625 148.015625 207.984375 147.195312 207.21875 L 147.523438 206.402344 C 147.742188 206.019531 147.90625 205.582031 148.070312 205.199219 Z M 155.617188 168.601562 C 155.5625 168.492188 155.5625 168.328125 155.507812 168.21875 C 155.453125 168.109375 155.453125 168 155.398438 167.945312 C 155.617188 163.628906 154.796875 159.421875 153.101562 155.925781 C 152.5 154.671875 151.84375 153.46875 151.1875 152.269531 C 149.65625 149.425781 148.015625 146.476562 147.195312 143.308594 C 145.9375 138.558594 146.539062 133.421875 147.085938 128.449219 C 147.742188 122.660156 148.398438 116.707031 146.15625 111.300781 C 144.023438 106.109375 139.265625 102.121094 133.742188 100.921875 C 133.195312 99.9375 132.648438 99.117188 131.992188 98.515625 C 139.539062 99.171875 146.648438 104.46875 149.164062 111.625 C 151.078125 117.035156 150.585938 122.988281 150.09375 128.722656 C 149.601562 134.953125 149.054688 141.398438 151.570312 147.132812 C 152.5 149.261719 153.8125 151.230469 155.125 153.085938 C 156.546875 155.21875 158.078125 157.402344 158.953125 159.859375 C 160.976562 165.378906 159.664062 171.988281 155.671875 176.300781 C 155.78125 175.265625 155.835938 174.171875 155.890625 173.023438 C 156 171.714844 156 170.128906 155.617188 168.601562 Z M 121.988281 150.683594 C 122.589844 153.25 124.882812 155.328125 127.5625 155.871094 C 128.054688 155.980469 128.546875 156.035156 129.09375 156.035156 C 131.226562 156.035156 133.359375 155.21875 135 153.6875 C 136.859375 151.996094 138.117188 149.425781 138.335938 146.640625 C 138.554688 143.855469 137.898438 141.453125 137.1875 139.101562 C 136.476562 136.589844 135.820312 134.242188 136.148438 131.511719 C 136.3125 129.980469 136.859375 128.558594 137.40625 127.140625 C 137.734375 126.210938 138.117188 125.226562 138.390625 124.191406 C 139.046875 121.730469 138.9375 118.507812 136.75 116.816406 C 136.640625 116.707031 136.476562 116.761719 136.367188 116.871094 C 136.257812 116.980469 136.3125 117.144531 136.421875 117.253906 C 138.390625 118.78125 138.5 121.785156 137.898438 124.082031 C 137.625 125.0625 137.296875 126.046875 136.914062 126.976562 C 136.367188 128.449219 135.820312 129.925781 135.65625 131.511719 C 135.328125 134.40625 136.039062 136.917969 136.75 139.320312 C 137.40625 141.617188 138.117188 143.964844 137.84375 146.640625 C 137.625 149.261719 136.476562 151.722656 134.671875 153.304688 C 132.757812 155.054688 130.078125 155.816406 127.726562 155.382812 C 125.210938 154.890625 123.132812 152.921875 122.535156 150.574219 C 121.933594 148.171875 123.078125 145.496094 125.101562 144.074219 C 124.0625 145.113281 123.570312 146.695312 124.007812 148.117188 C 124.335938 149.261719 125.101562 150.136719 126.195312 150.519531 C 128.21875 151.230469 131.0625 150.464844 132.703125 149.316406 C 135.492188 147.40625 136.695312 144.128906 135.820312 140.960938 C 135.601562 140.140625 135.273438 139.265625 135 138.503906 C 134.398438 136.863281 133.796875 135.332031 133.851562 133.640625 C 133.851562 132.164062 134.34375 130.800781 134.78125 129.324219 C 135.054688 128.558594 135.273438 127.796875 135.492188 126.976562 C 135.929688 125.171875 135.875 122.824219 134.617188 121.296875 C 135.109375 120.039062 135.65625 118.78125 136.039062 117.417969 C 136.257812 116.542969 136.421875 115.230469 136.421875 113.757812 C 138.5 114.46875 140.304688 117.199219 139.867188 121.078125 C 139.703125 122.496094 139.320312 123.917969 138.992188 125.226562 C 138.554688 126.8125 138.117188 128.449219 138.007812 130.144531 C 137.84375 133.039062 138.71875 135.988281 139.648438 138.71875 L 139.757812 139.101562 C 141.125 143.144531 142.875 148.171875 141.015625 152.160156 C 140.960938 152.269531 140.90625 152.375 140.851562 152.484375 L 140.796875 152.59375 C 139.210938 155.816406 136.257812 158.277344 132.648438 159.421875 C 128.328125 160.789062 123.515625 159.152344 120.730469 155.328125 C 118.597656 152.375 117.777344 147.953125 120.347656 145.058594 C 121.550781 143.746094 123.40625 143.089844 125.15625 143.363281 C 122.753906 144.785156 121.332031 147.898438 121.988281 150.683594 Z M 132.375 133.75 C 132.265625 130.582031 132.15625 127.851562 133.25 124.628906 C 133.578125 123.699219 133.90625 122.769531 134.34375 121.839844 C 135.328125 123.207031 135.273438 125.28125 134.945312 126.867188 C 134.78125 127.632812 134.507812 128.398438 134.234375 129.160156 C 133.742188 130.582031 133.25 132.109375 133.25 133.640625 C 133.25 135.386719 133.851562 137.082031 134.453125 138.664062 C 134.726562 139.484375 135.054688 140.304688 135.273438 141.125 C 135.65625 142.652344 135.601562 144.128906 135.054688 145.492188 C 133.960938 143.800781 133.140625 142.054688 132.59375 140.25 C 132.539062 139.976562 132.484375 139.757812 132.429688 139.539062 C 132.375 139.15625 132.375 138.773438 132.375 138.339844 C 132.484375 136.699219 132.429688 135.171875 132.375 133.75 Z M 141.5625 152.375 C 143.476562 148.171875 141.726562 143.035156 140.304688 138.9375 L 140.195312 138.558594 C 139.265625 135.769531 138.390625 133.039062 138.554688 130.199219 C 138.664062 128.558594 139.101562 126.976562 139.484375 125.390625 C 139.867188 124.027344 140.25 122.605469 140.414062 121.132812 C 140.742188 117.910156 139.484375 114.140625 136.421875 113.210938 C 136.421875 113.101562 136.421875 112.992188 136.421875 112.9375 C 136.367188 110.589844 136.039062 108.074219 135.546875 105.835938 C 139.210938 106.820312 141.726562 110.480469 142.546875 113.757812 C 143.585938 117.910156 142.875 122.386719 142.21875 126.320312 C 141.5625 130.308594 140.796875 134.84375 141.890625 139.101562 C 142.65625 142.105469 144.296875 144.894531 145.882812 147.570312 C 148.234375 151.558594 150.476562 155.382812 149.984375 159.695312 C 149.984375 159.859375 150.09375 159.96875 150.203125 159.96875 L 150.257812 159.96875 C 150.367188 159.96875 150.476562 159.859375 150.53125 159.75 C 151.023438 155.21875 148.671875 151.175781 146.375 147.296875 C 144.789062 144.621094 143.203125 141.890625 142.4375 138.9375 C 141.398438 134.789062 142.164062 130.363281 142.820312 126.375 C 143.476562 122.386719 144.242188 117.855469 143.148438 113.59375 C 142.273438 110.042969 139.539062 106.164062 135.492188 105.234375 C 135.109375 103.816406 134.671875 102.503906 134.179688 101.410156 C 139.320312 102.722656 143.75 106.492188 145.773438 111.40625 C 147.960938 116.707031 147.304688 122.605469 146.703125 128.34375 C 146.15625 133.3125 145.609375 138.503906 146.867188 143.363281 C 147.6875 146.585938 149.328125 149.589844 150.859375 152.429688 C 151.515625 153.632812 152.171875 154.835938 152.773438 156.035156 C 154.304688 159.152344 155.125 162.863281 155.070312 166.632812 C 154.414062 165.214844 153.484375 163.957031 152.71875 162.972656 C 150.53125 160.1875 147.6875 157.730469 144.898438 155.328125 L 144.078125 154.617188 C 143.257812 153.90625 142.4375 153.195312 141.671875 152.484375 C 141.453125 152.484375 141.507812 152.429688 141.5625 152.375 Z M 183.449219 214.265625 L 144.40625 214.265625 C 145.335938 211.753906 146.210938 209.625 147.03125 207.765625 C 147.851562 208.53125 148.726562 209.1875 149.65625 209.734375 C 151.898438 211.097656 154.46875 212.082031 157.3125 212.683594 C 157.695312 212.792969 158.078125 212.847656 158.460938 212.902344 C 159.773438 213.121094 161.085938 213.230469 162.398438 213.230469 C 168.03125 213.230469 172.839844 211.207031 175.738281 207.546875 C 179.074219 203.34375 179.949219 197.332031 178.035156 192.253906 C 176.941406 189.414062 174.808594 187.007812 172.347656 185.917969 C 170.488281 185.097656 168.46875 185.042969 166.554688 185.753906 C 164.859375 186.410156 163.546875 187.554688 162.398438 189.304688 C 162.398438 189.304688 162.398438 189.304688 162.398438 189.359375 C 162.398438 189.359375 162.398438 189.359375 162.398438 189.414062 C 162.398438 189.46875 162.398438 189.46875 162.398438 189.523438 C 162.398438 189.523438 162.398438 189.523438 162.398438 189.578125 C 162.398438 189.578125 162.398438 189.578125 162.398438 189.632812 C 162.398438 189.632812 162.398438 189.6875 162.453125 189.6875 C 162.453125 189.6875 162.453125 189.6875 162.507812 189.6875 C 162.5625 189.6875 162.5625 189.6875 162.617188 189.6875 C 162.617188 189.6875 162.617188 189.6875 162.671875 189.6875 C 165.789062 188.59375 170.050781 187.554688 171.746094 191.050781 C 172.730469 193.074219 172.074219 195.640625 171.035156 197.277344 C 169.78125 199.191406 167.8125 200.335938 165.40625 200.554688 C 162.453125 200.828125 159.171875 199.683594 157.09375 197.550781 C 151.570312 191.925781 155.890625 182.914062 159.007812 176.304688 C 159.554688 175.101562 160.101562 173.953125 160.539062 172.914062 C 164.09375 164.667969 164.148438 156.691406 160.703125 151.121094 C 159.828125 149.753906 158.734375 148.445312 157.640625 147.242188 C 155.890625 145.222656 154.03125 143.144531 153.375 140.578125 C 152.882812 138.828125 152.773438 137.082031 152.773438 135.277344 C 153.15625 136.808594 153.976562 138.285156 155.070312 139.429688 C 156.820312 141.289062 159.335938 142.324219 161.90625 142.324219 C 162.070312 142.324219 162.234375 142.324219 162.453125 142.324219 C 164.476562 142.214844 166.335938 141.398438 167.539062 140.085938 C 168.90625 138.613281 169.398438 136.425781 168.6875 134.734375 C 167.921875 132.820312 165.84375 131.675781 163.984375 132.109375 C 163 132.328125 162.179688 133.09375 161.6875 134.078125 C 161.25 135.007812 161.25 135.988281 161.6875 136.753906 C 161.742188 136.863281 161.90625 136.917969 162.015625 136.863281 C 162.125 136.808594 162.179688 136.644531 162.125 136.535156 C 161.796875 135.878906 161.796875 135.0625 162.179688 134.296875 C 162.5625 133.421875 163.273438 132.820312 164.09375 132.601562 C 165.679688 132.21875 167.539062 133.257812 168.195312 134.898438 C 168.796875 136.425781 168.359375 138.394531 167.15625 139.757812 C 166.0625 140.960938 164.3125 141.726562 162.398438 141.835938 C 159.828125 142 157.203125 140.960938 155.453125 139.101562 C 153.648438 137.246094 152.773438 134.625 153.046875 132.054688 C 153.046875 132.054688 153.046875 132 153.046875 132 C 153.265625 130.417969 153.539062 128.832031 153.8125 127.304688 L 153.921875 126.867188 C 155.5625 117.746094 154.414062 111.351562 149.984375 105.5625 C 148.726562 103.925781 147.359375 102.175781 145.664062 100.703125 C 141.015625 96.605469 134.398438 95.128906 128.382812 96.550781 C 128.054688 96.605469 127.78125 96.714844 127.453125 96.769531 C 126.796875 96.988281 126.195312 97.207031 125.59375 97.480469 C 125.648438 97.480469 125.648438 97.480469 125.703125 97.425781 C 125.648438 97.425781 125.59375 97.480469 125.539062 97.480469 C 125.429688 97.535156 125.375 97.535156 125.265625 97.589844 C 125.15625 97.640625 125.046875 97.695312 124.9375 97.75 C 124.882812 97.804688 124.828125 97.804688 124.71875 97.859375 C 124.71875 97.859375 124.664062 97.859375 124.664062 97.859375 C 124.609375 97.859375 124.554688 97.914062 124.5 97.914062 C 124.390625 97.96875 124.335938 98.023438 124.117188 98.132812 C 122.699219 99.007812 121.386719 100.320312 120.019531 102.121094 C 119.800781 102.449219 119.527344 102.777344 119.308594 103.105469 C 119.035156 103.542969 118.761719 103.925781 118.488281 104.363281 C 118.488281 104.417969 118.433594 104.417969 118.433594 104.472656 C 117.394531 106.054688 116.300781 107.695312 114.933594 109.058594 L 114.824219 109.222656 C 114.496094 109.550781 114.167969 109.878906 113.949219 110.316406 C 113.730469 110.863281 113.730469 111.460938 113.785156 112.0625 C 113.785156 112.390625 113.839844 112.773438 113.785156 113.101562 C 113.675781 113.921875 113.238281 114.578125 112.746094 115.285156 C 112.527344 115.613281 112.308594 115.996094 112.089844 116.378906 C 111.160156 118.179688 111.160156 120.257812 111.160156 122.113281 C 111.160156 122.933594 111.160156 123.917969 111.597656 124.738281 C 112.199219 125.9375 113.457031 126.429688 114.660156 126.921875 C 115.425781 127.25 116.191406 127.523438 116.792969 128.015625 C 117.886719 128.886719 118.925781 130.800781 118.378906 133.476562 C 117.996094 135.171875 117.121094 136.699219 116.246094 138.011719 C 115.863281 138.613281 115.261719 139.101562 114.550781 139.320312 C 111.707031 140.304688 109.027344 140.414062 106.839844 139.703125 L 106.949219 139.046875 C 107.660156 134.734375 108.425781 130.253906 108.535156 125.882812 C 108.644531 122.003906 108.207031 117.910156 107.277344 113.375 C 107.003906 110.097656 106.238281 107.203125 104.925781 104.6875 C 103.667969 101.300781 102.136719 98.460938 100.277344 96.003906 C 96.449219 91.140625 91.035156 88.246094 85.675781 88.246094 L 85.621094 88.246094 C 85.347656 87.320312 85.019531 86.335938 84.308594 86.007812 C 83.871094 85.789062 83.324219 85.84375 82.722656 86.171875 C 82.230469 86.390625 81.738281 86.554688 81.136719 86.609375 C 81.136719 86.171875 81.082031 85.789062 81.027344 85.351562 C 80.753906 83.167969 79.441406 81.746094 77.910156 80.273438 C 77.199219 79.5625 76.378906 78.796875 75.453125 78.195312 C 72.171875 76.121094 67.742188 76.722656 65.226562 79.617188 C 64.734375 80.164062 64.296875 80.761719 63.859375 81.308594 C 63.476562 81.800781 63.09375 82.292969 62.65625 82.785156 C 58.992188 81.363281 54.890625 81.636719 51.5 83.496094 C 47.726562 85.351562 45.648438 89.558594 46.140625 94.527344 C 46.523438 98.40625 48.328125 101.847656 51.007812 103.980469 C 50.296875 105.617188 49.585938 107.804688 50.078125 109.988281 C 50.40625 111.625 51.390625 113.046875 52.320312 114.359375 C 56.367188 119.984375 61.234375 125.0625 66.648438 129.488281 C 68.453125 130.910156 70.3125 132.273438 72.117188 133.640625 C 74.523438 135.386719 77.035156 137.246094 79.332031 139.210938 C 82.832031 142.214844 85.402344 145.222656 87.152344 148.335938 C 85.949219 152.269531 85.402344 155.816406 85.347656 159.097656 C 85.292969 171.496094 93.003906 182.257812 101.589844 193.074219 C 101.644531 193.128906 101.699219 193.183594 101.808594 193.183594 C 101.863281 193.183594 101.917969 193.183594 101.972656 193.128906 C 102.082031 193.019531 102.082031 192.855469 102.027344 192.746094 C 93.496094 181.984375 85.839844 171.277344 85.894531 159.097656 C 85.894531 155.816406 86.496094 152.324219 87.699219 148.335938 C 88.738281 144.949219 90.050781 141.5625 91.363281 138.285156 C 92.292969 135.988281 93.222656 133.585938 94.042969 131.238281 C 94.535156 131.621094 95.027344 131.945312 95.519531 132.328125 C 95.519531 132.382812 95.519531 132.382812 95.464844 132.4375 C 95.410156 132.546875 95.410156 132.601562 95.355469 132.710938 C 92.730469 139.101562 90.050781 145.929688 88.847656 153.195312 C 87.535156 161.117188 88.355469 168.4375 91.144531 174.390625 C 92.949219 178.269531 95.683594 181.820312 98.308594 185.207031 C 99.566406 186.84375 100.933594 188.59375 102.082031 190.285156 C 103.941406 194.765625 105.910156 200.664062 105.582031 206.566406 C 105.527344 206.621094 105.472656 206.621094 105.472656 206.675781 C 105.363281 206.785156 105.363281 206.949219 105.472656 207.054688 C 105.527344 207.109375 105.527344 207.109375 105.582031 207.109375 C 105.472656 208.203125 105.308594 209.296875 105.089844 210.390625 C 105.035156 210.550781 105.144531 210.660156 105.308594 210.714844 C 105.308594 210.714844 105.363281 210.714844 105.363281 210.714844 C 104.925781 211.863281 104.378906 213.011719 103.832031 214.210938 L 41.65625 214.210938 L 41.65625 81.636719 C 41.65625 62.738281 49.039062 44.929688 62.4375 31.546875 C 75.835938 18.164062 93.605469 10.789062 112.582031 10.789062 C 131.5 10.789062 149.328125 18.164062 162.726562 31.546875 C 176.121094 44.929688 183.503906 62.683594 183.503906 81.636719 L 183.503906 214.265625 Z M 70.367188 58.96875 C 68.671875 59.679688 68.015625 60.714844 67.632812 62.574219 C 67.304688 60.769531 66.539062 59.296875 64.898438 58.75 C 66.757812 57.929688 67.25 56.347656 67.6875 54.597656 C 67.796875 55.527344 67.851562 56.402344 68.398438 57.21875 C 68.617188 57.601562 69.710938 58.75 70.367188 58.96875 Z M 179.074219 143.035156 C 177.378906 143.746094 176.722656 144.785156 176.339844 146.640625 C 176.011719 144.839844 175.246094 143.363281 173.605469 142.816406 C 175.464844 142 175.957031 140.414062 176.394531 138.664062 C 176.503906 139.59375 176.558594 140.46875 177.105469 141.289062 C 177.324219 141.671875 178.417969 142.816406 179.074219 143.035156 Z M 163.820312 76.996094 C 162.125 77.703125 161.46875 78.742188 161.085938 80.597656 C 160.757812 78.796875 159.992188 77.320312 158.351562 76.777344 C 160.210938 75.957031 160.703125 74.371094 161.140625 72.625 C 161.25 73.554688 161.304688 74.425781 161.851562 75.246094 C 162.015625 75.628906 163.109375 76.777344 163.820312 76.996094 Z M 51.0625 121.351562 C 52.921875 120.53125 53.414062 118.945312 53.851562 117.199219 C 53.960938 118.128906 54.015625 119 54.5625 119.820312 C 54.78125 120.148438 55.875 121.351562 56.585938 121.566406 C 54.890625 122.277344 54.234375 123.316406 53.851562 125.171875 C 53.414062 123.316406 52.703125 121.839844 51.0625 121.351562 Z M 70.421875 180.125 C 72.28125 179.308594 72.773438 177.722656 73.210938 175.976562 C 73.320312 176.902344 73.375 177.777344 73.921875 178.597656 C 74.140625 178.925781 75.234375 180.125 75.945312 180.34375 C 74.25 181.054688 73.59375 182.09375 73.210938 183.949219 C 72.828125 182.09375 72.0625 180.617188 70.421875 180.125 Z M 76.050781 70.765625 C 74.960938 71.257812 74.46875 71.914062 74.25 73.171875 C 74.03125 71.96875 73.539062 70.984375 72.445312 70.601562 C 73.648438 70.058594 74.03125 69.019531 74.304688 67.816406 C 74.414062 68.472656 74.414062 69.019531 74.796875 69.566406 C 74.851562 69.894531 75.617188 70.65625 76.050781 70.765625 Z M 56.3125 89.285156 C 55.21875 89.777344 54.726562 90.433594 54.507812 91.6875 C 54.289062 90.488281 53.796875 89.503906 52.703125 89.121094 C 53.90625 88.574219 54.289062 87.535156 54.5625 86.335938 C 54.671875 86.992188 54.671875 87.535156 55.054688 88.082031 C 55.109375 88.410156 55.820312 89.175781 56.3125 89.285156 Z M 62.820312 192.253906 C 64.023438 191.707031 64.40625 190.667969 64.679688 189.46875 C 64.789062 190.121094 64.789062 190.667969 65.171875 191.214844 C 65.335938 191.433594 66.046875 192.199219 66.484375 192.363281 C 65.390625 192.855469 64.898438 193.507812 64.679688 194.765625 C 64.40625 193.617188 63.96875 192.636719 62.820312 192.253906 Z M 156.492188 107.203125 C 155.398438 107.695312 154.90625 108.347656 154.6875 109.605469 C 154.46875 108.402344 153.976562 107.421875 152.882812 107.039062 C 154.085938 106.492188 154.46875 105.453125 154.742188 104.253906 C 154.851562 104.90625 154.851562 105.453125 155.234375 106 C 155.289062 106.273438 156.054688 107.039062 156.492188 107.203125 Z M 141.234375 60.386719 C 140.140625 60.878906 139.648438 61.535156 139.429688 62.792969 C 139.210938 61.589844 138.71875 60.605469 137.625 60.222656 C 138.828125 59.679688 139.210938 58.640625 139.484375 57.4375 C 139.59375 58.09375 139.59375 58.640625 139.976562 59.1875 C 140.03125 59.515625 140.742188 60.277344 141.234375 60.386719 Z M 136.585938 25.917969 C 135.492188 26.410156 135 27.066406 134.78125 28.324219 C 134.5625 27.121094 134.070312 26.136719 132.976562 25.757812 C 134.179688 25.210938 134.5625 24.171875 134.835938 22.96875 C 134.945312 23.625 134.945312 24.171875 135.328125 24.71875 C 135.382812 24.992188 136.09375 25.757812 136.585938 25.917969 Z M 84.253906 62.355469 C 84.253906 62.683594 83.980469 63.011719 83.597656 63.011719 C 83.214844 63.011719 82.941406 62.738281 82.941406 62.355469 C 82.941406 61.972656 83.214844 61.699219 83.597656 61.699219 C 83.980469 61.699219 84.253906 61.972656 84.253906 62.355469 Z M 48.984375 67.160156 C 48.984375 67.488281 48.710938 67.816406 48.328125 67.816406 C 47.945312 67.816406 47.671875 67.542969 47.671875 67.160156 C 47.671875 66.835938 47.945312 66.507812 48.328125 66.507812 C 48.710938 66.507812 48.984375 66.835938 48.984375 67.160156 Z M 91.308594 53.285156 C 91.308594 53.613281 91.035156 53.941406 90.652344 53.941406 C 90.269531 53.941406 89.996094 53.667969 89.996094 53.285156 C 89.996094 52.90625 90.269531 52.632812 90.652344 52.632812 C 91.035156 52.632812 91.308594 52.90625 91.308594 53.285156 Z M 94.042969 110.972656 C 94.042969 110.644531 94.316406 110.316406 94.699219 110.316406 C 95.082031 110.316406 95.355469 110.589844 95.355469 110.972656 C 95.355469 111.351562 95.082031 111.625 94.699219 111.625 C 94.316406 111.625 94.042969 111.300781 94.042969 110.972656 Z M 46.960938 140.6875 C 46.960938 140.359375 47.234375 140.03125 47.617188 140.03125 C 48 140.03125 48.273438 140.304688 48.273438 140.6875 C 48.273438 141.070312 48 141.34375 47.617188 141.34375 C 47.234375 141.34375 46.960938 141.070312 46.960938 140.6875 Z M 76.269531 104.523438 C 76.269531 104.851562 75.996094 105.179688 75.617188 105.179688 C 75.234375 105.179688 74.960938 104.90625 74.960938 104.523438 C 74.960938 104.144531 75.234375 103.871094 75.617188 103.871094 C 75.996094 103.871094 76.269531 104.144531 76.269531 104.523438 Z M 50.40625 164.613281 C 50.40625 164.285156 50.679688 163.957031 51.0625 163.957031 C 51.445312 163.957031 51.71875 164.230469 51.71875 164.613281 C 51.71875 164.941406 51.445312 165.269531 51.0625 165.269531 C 50.679688 165.269531 50.40625 164.941406 50.40625 164.613281 Z M 48.164062 195.96875 C 48.164062 195.640625 48.4375 195.3125 48.820312 195.3125 C 49.203125 195.3125 49.476562 195.585938 49.476562 195.96875 C 49.476562 196.351562 49.203125 196.625 48.820312 196.625 C 48.4375 196.625 48.164062 196.296875 48.164062 195.96875 Z M 65.9375 147.40625 C 65.9375 147.078125 66.210938 146.75 66.59375 146.75 C 66.921875 146.75 67.25 147.023438 67.25 147.40625 C 67.25 147.734375 66.976562 148.0625 66.59375 148.0625 C 66.210938 148.007812 65.9375 147.734375 65.9375 147.40625 Z M 67.796875 153.851562 C 67.796875 153.523438 68.070312 153.195312 68.453125 153.195312 C 68.78125 153.195312 69.109375 153.46875 69.109375 153.851562 C 69.109375 154.179688 68.835938 154.507812 68.453125 154.507812 C 68.125 154.507812 67.796875 154.234375 67.796875 153.851562 Z M 100.660156 199.355469 C 100.660156 199.027344 100.933594 198.699219 101.316406 198.699219 C 101.699219 198.699219 101.972656 198.972656 101.972656 199.355469 C 101.972656 199.738281 101.699219 200.011719 101.316406 200.011719 C 100.933594 200.011719 100.660156 199.683594 100.660156 199.355469 Z M 86.277344 200.445312 C 86.277344 200.121094 86.550781 199.792969 86.933594 199.792969 C 87.316406 199.792969 87.589844 200.066406 87.589844 200.445312 C 87.589844 200.828125 87.316406 201.101562 86.933594 201.101562 C 86.550781 201.101562 86.277344 200.828125 86.277344 200.445312 Z M 52.429688 203.777344 C 52.429688 204.105469 52.15625 204.433594 51.773438 204.433594 C 51.390625 204.433594 51.117188 204.160156 51.117188 203.777344 C 51.117188 203.398438 51.390625 203.125 51.773438 203.125 C 52.15625 203.125 52.429688 203.453125 52.429688 203.777344 Z M 62.492188 206.402344 C 62.820312 206.402344 63.148438 206.675781 63.148438 207.054688 C 63.148438 207.4375 62.875 207.710938 62.492188 207.710938 C 62.164062 207.710938 61.835938 207.4375 61.835938 207.054688 C 61.835938 206.675781 62.164062 206.402344 62.492188 206.402344 Z M 57.953125 154.34375 C 57.953125 154.015625 58.226562 153.6875 58.609375 153.6875 C 58.9375 153.6875 59.265625 153.960938 59.265625 154.34375 C 59.265625 154.726562 58.992188 155 58.609375 155 C 58.28125 155 57.953125 154.726562 57.953125 154.34375 Z M 74.6875 157.347656 C 74.6875 157.019531 74.960938 156.691406 75.34375 156.691406 C 75.726562 156.691406 75.996094 156.964844 75.996094 157.347656 C 75.996094 157.730469 75.726562 158.003906 75.34375 158.003906 C 74.960938 158.003906 74.6875 157.730469 74.6875 157.347656 Z M 78.730469 152.59375 C 78.730469 152.269531 79.003906 151.941406 79.386719 151.941406 C 79.769531 151.941406 80.042969 152.214844 80.042969 152.59375 C 80.042969 152.921875 79.769531 153.25 79.386719 153.25 C 79.003906 153.25 78.730469 152.976562 78.730469 152.59375 Z M 92.621094 192.089844 C 92.621094 191.761719 92.894531 191.433594 93.277344 191.433594 C 93.660156 191.433594 93.933594 191.707031 93.933594 192.089844 C 93.933594 192.472656 93.660156 192.746094 93.277344 192.746094 C 92.894531 192.746094 92.621094 192.472656 92.621094 192.089844 Z M 61.945312 90.8125 C 61.945312 91.140625 61.671875 91.46875 61.289062 91.46875 C 60.960938 91.46875 60.632812 91.195312 60.632812 90.8125 C 60.632812 90.433594 60.90625 90.160156 61.289062 90.160156 C 61.671875 90.214844 61.945312 90.488281 61.945312 90.8125 Z M 59.648438 70.875 C 59.648438 71.203125 59.375 71.53125 58.992188 71.53125 C 58.664062 71.53125 58.335938 71.257812 58.335938 70.875 C 58.335938 70.546875 58.609375 70.222656 58.992188 70.222656 C 59.375 70.222656 59.648438 70.492188 59.648438 70.875 Z M 58.71875 93.984375 C 58.71875 94.308594 58.445312 94.636719 58.0625 94.636719 C 57.734375 94.636719 57.40625 94.363281 57.40625 93.984375 C 57.40625 93.601562 57.679688 93.328125 58.0625 93.328125 C 58.445312 93.382812 58.71875 93.65625 58.71875 93.984375 Z M 145.0625 92.234375 C 145.0625 92.5625 144.789062 92.890625 144.40625 92.890625 C 144.023438 92.890625 143.75 92.617188 143.75 92.234375 C 143.75 91.851562 144.023438 91.578125 144.40625 91.578125 C 144.789062 91.578125 145.0625 91.90625 145.0625 92.234375 Z M 174.371094 106.929688 C 174.371094 106.601562 174.644531 106.273438 175.027344 106.273438 C 175.410156 106.273438 175.683594 106.546875 175.683594 106.929688 C 175.683594 107.3125 175.410156 107.585938 175.027344 107.585938 C 174.644531 107.585938 174.371094 107.257812 174.371094 106.929688 Z M 163.054688 99.390625 C 162.726562 99.390625 162.398438 99.117188 162.398438 98.734375 C 162.398438 98.40625 162.671875 98.078125 163.054688 98.078125 C 163.382812 98.078125 163.710938 98.351562 163.710938 98.734375 C 163.710938 99.0625 163.4375 99.390625 163.054688 99.390625 Z M 134.398438 76.886719 C 134.070312 76.886719 133.742188 76.613281 133.742188 76.230469 C 133.742188 75.847656 134.015625 75.574219 134.398438 75.574219 C 134.78125 75.574219 135.054688 75.847656 135.054688 76.230469 C 135.054688 76.613281 134.78125 76.886719 134.398438 76.886719 Z M 163.875 117.636719 C 164.203125 117.636719 164.53125 117.910156 164.53125 118.289062 C 164.53125 118.671875 164.257812 118.945312 163.875 118.945312 C 163.492188 118.945312 163.21875 118.671875 163.21875 118.289062 C 163.21875 117.910156 163.546875 117.636719 163.875 117.636719 Z M 152.5 49.246094 C 152.171875 49.246094 151.84375 48.972656 151.84375 48.589844 C 151.84375 48.207031 152.117188 47.933594 152.5 47.933594 C 152.828125 47.933594 153.15625 48.207031 153.15625 48.589844 C 153.15625 48.972656 152.828125 49.246094 152.5 49.246094 Z M 116.082031 74.753906 C 116.082031 75.082031 115.808594 75.410156 115.425781 75.410156 C 115.097656 75.410156 114.769531 75.136719 114.769531 74.753906 C 114.769531 74.371094 115.042969 74.097656 115.425781 74.097656 C 115.808594 74.097656 116.082031 74.425781 116.082031 74.753906 Z M 166.664062 51.375 C 166.664062 51.046875 166.9375 50.71875 167.320312 50.71875 C 167.648438 50.71875 167.976562 50.992188 167.976562 51.375 C 167.976562 51.757812 167.703125 52.03125 167.320312 52.03125 C 166.9375 52.03125 166.664062 51.703125 166.664062 51.375 Z M 175.136719 79.125 C 175.136719 78.796875 175.410156 78.46875 175.792969 78.46875 C 176.121094 78.46875 176.449219 78.742188 176.449219 79.125 C 176.449219 79.453125 176.175781 79.78125 175.792969 79.78125 C 175.410156 79.78125 175.136719 79.507812 175.136719 79.125 Z M 117.613281 88.355469 C 117.613281 88.683594 117.339844 89.011719 116.957031 89.011719 C 116.628906 89.011719 116.300781 88.738281 116.300781 88.355469 C 116.300781 87.972656 116.574219 87.699219 116.957031 87.699219 C 117.339844 87.699219 117.613281 87.972656 117.613281 88.355469 Z M 135.328125 84.75 C 135.328125 85.078125 135.054688 85.40625 134.671875 85.40625 C 134.289062 85.40625 134.015625 85.132812 134.015625 84.75 C 134.015625 84.367188 134.289062 84.09375 134.671875 84.09375 C 135.054688 84.09375 135.328125 84.421875 135.328125 84.75 Z M 174.917969 157.839844 C 174.917969 158.167969 174.644531 158.496094 174.261719 158.496094 C 173.933594 158.496094 173.605469 158.222656 173.605469 157.839844 C 173.605469 157.457031 173.878906 157.183594 174.261719 157.183594 C 174.644531 157.183594 174.917969 157.511719 174.917969 157.839844 Z M 176.941406 118.289062 C 176.941406 117.964844 177.214844 117.636719 177.597656 117.636719 C 177.980469 117.636719 178.253906 117.910156 178.253906 118.289062 C 178.253906 118.617188 177.980469 118.945312 177.597656 118.945312 C 177.214844 118.945312 176.941406 118.671875 176.941406 118.289062 Z M 172.457031 123.972656 C 172.457031 123.644531 172.730469 123.316406 173.113281 123.316406 C 173.441406 123.316406 173.769531 123.589844 173.769531 123.972656 C 173.769531 124.355469 173.496094 124.628906 173.113281 124.628906 C 172.785156 124.628906 172.457031 124.355469 172.457031 123.972656 Z M 99.511719 81.582031 C 99.511719 81.910156 99.238281 82.238281 98.855469 82.238281 C 98.472656 82.238281 98.199219 81.964844 98.199219 81.582031 C 98.199219 81.199219 98.472656 80.925781 98.855469 80.925781 C 99.238281 80.925781 99.511719 81.253906 99.511719 81.582031 Z M 143.859375 79.617188 C 143.53125 79.617188 143.203125 79.34375 143.203125 78.960938 C 143.203125 78.578125 143.476562 78.304688 143.859375 78.304688 C 144.242188 78.304688 144.515625 78.578125 144.515625 78.960938 C 144.515625 79.34375 144.242188 79.617188 143.859375 79.617188 Z M 133.46875 42.035156 C 133.140625 42.035156 132.8125 41.761719 132.8125 41.378906 C 132.8125 40.996094 133.085938 40.722656 133.46875 40.722656 C 133.851562 40.722656 134.125 40.996094 134.125 41.378906 C 134.125 41.761719 133.851562 42.035156 133.46875 42.035156 Z M 154.851562 38.59375 C 154.851562 38.265625 155.125 37.9375 155.507812 37.9375 C 155.835938 37.9375 156.164062 38.210938 156.164062 38.59375 C 156.164062 38.976562 155.890625 39.25 155.507812 39.25 C 155.179688 39.25 154.851562 38.921875 154.851562 38.59375 Z M 82.667969 47.441406 C 82.339844 47.441406 82.011719 47.167969 82.011719 46.785156 C 82.011719 46.402344 82.285156 46.132812 82.667969 46.132812 C 82.996094 46.132812 83.324219 46.402344 83.324219 46.785156 C 83.324219 47.167969 82.996094 47.441406 82.667969 47.441406 Z M 82.777344 26.464844 C 82.777344 26.136719 83.050781 25.8125 83.433594 25.8125 C 83.816406 25.8125 84.089844 26.082031 84.089844 26.464844 C 84.089844 26.847656 83.816406 27.121094 83.433594 27.121094 C 83.050781 27.121094 82.777344 26.792969 82.777344 26.464844 Z M 62.4375 39.359375 C 62.4375 39.683594 62.164062 40.011719 61.78125 40.011719 C 61.453125 40.011719 61.125 39.738281 61.125 39.359375 C 61.125 38.976562 61.398438 38.703125 61.78125 38.703125 C 62.109375 38.703125 62.4375 38.976562 62.4375 39.359375 Z M 61.125 126.867188 C 61.125 126.539062 61.398438 126.210938 61.78125 126.210938 C 62.164062 126.210938 62.4375 126.484375 62.4375 126.867188 C 62.4375 127.25 62.164062 127.523438 61.78125 127.523438 C 61.398438 127.523438 61.125 127.25 61.125 126.867188 Z M 91.417969 36.132812 C 91.417969 36.460938 91.144531 36.789062 90.761719 36.789062 C 90.433594 36.789062 90.105469 36.515625 90.105469 36.132812 C 90.105469 35.753906 90.378906 35.480469 90.761719 35.480469 C 91.089844 35.480469 91.417969 35.753906 91.417969 36.132812 Z M 112.800781 15.433594 C 112.800781 15.105469 113.074219 14.777344 113.457031 14.777344 C 113.785156 14.777344 114.113281 15.050781 114.113281 15.433594 C 114.113281 15.757812 113.839844 16.085938 113.457031 16.085938 C 113.128906 16.085938 112.800781 15.8125 112.800781 15.433594 Z M 94.644531 45.148438 C 94.644531 45.476562 94.371094 45.804688 93.988281 45.804688 C 93.660156 45.804688 93.332031 45.53125 93.332031 45.148438 C 93.332031 44.820312 93.605469 44.492188 93.988281 44.492188 C 94.371094 44.492188 94.644531 44.820312 94.644531 45.148438 Z M 105.199219 22.261719 C 105.199219 21.933594 105.472656 21.605469 105.855469 21.605469 C 106.238281 21.605469 106.511719 21.878906 106.511719 22.261719 C 106.511719 22.585938 106.238281 22.914062 105.855469 22.914062 C 105.472656 22.914062 105.199219 22.640625 105.199219 22.261719 Z M 117.996094 31.929688 C 117.996094 31.601562 118.269531 31.273438 118.652344 31.273438 C 119.035156 31.273438 119.308594 31.546875 119.308594 31.929688 C 119.308594 32.3125 119.035156 32.585938 118.652344 32.585938 C 118.269531 32.585938 117.996094 32.257812 117.996094 31.929688 Z M 127.34375 47.878906 C 127.507812 48.042969 127.507812 48.371094 127.289062 48.535156 L 121.386719 53.667969 C 121.222656 53.832031 120.949219 53.832031 120.785156 53.667969 L 115.371094 49.082031 L 109.792969 53.667969 C 109.628906 53.832031 109.355469 53.832031 109.191406 53.667969 L 103.832031 49.027344 L 98.308594 53.777344 C 98.199219 53.832031 98.089844 53.886719 98.035156 53.886719 C 97.925781 53.886719 97.761719 53.832031 97.707031 53.722656 C 97.542969 53.558594 97.542969 53.230469 97.761719 53.070312 L 103.558594 48.042969 C 103.722656 47.878906 103.996094 47.878906 104.160156 48.042969 L 109.519531 52.6875 L 115.097656 48.097656 C 115.261719 47.933594 115.535156 47.933594 115.699219 48.097656 L 121.113281 52.6875 L 126.6875 47.769531 C 126.90625 47.714844 127.179688 47.714844 127.34375 47.878906 Z M 127.34375 54.707031 C 127.507812 54.871094 127.507812 55.199219 127.289062 55.363281 L 121.386719 60.496094 C 121.222656 60.660156 120.949219 60.660156 120.785156 60.496094 L 115.371094 55.910156 L 109.792969 60.496094 C 109.628906 60.660156 109.355469 60.660156 109.191406 60.496094 L 103.832031 55.855469 L 98.308594 60.605469 C 98.199219 60.660156 98.089844 60.714844 98.035156 60.714844 C 97.925781 60.714844 97.761719 60.660156 97.707031 60.550781 C 97.542969 60.386719 97.542969 60.058594 97.761719 59.898438 L 103.558594 54.871094 C 103.722656 54.707031 103.996094 54.707031 104.160156 54.871094 L 109.519531 59.515625 L 115.097656 54.925781 C 115.261719 54.761719 115.535156 54.761719 115.699219 54.925781 L 121.113281 59.515625 L 126.6875 54.597656 C 126.90625 54.488281 127.179688 54.542969 127.34375 54.707031 Z M 127.34375 54.707031 " fill-opacity="1" fill-rule="nonzero"/></g></svg>