<svg xmlns="http://www.w3.org/2000/svg" xmlns:xlink="http://www.w3.org/1999/xlink" width="300" zoomAndPan="magnify" viewBox="0 0 224.87999 225" height="300" preserveAspectRatio="xMidYMid meet" version="1.0"><defs><clipPath id="45e010e7e0"><path d="M 124 134 L 179 134 L 179 216.746094 L 124 216.746094 Z M 124 134 " clip-rule="nonzero"/></clipPath><clipPath id="c584da3336"><path d="M 46 153 L 99 153 L 99 216.746094 L 46 216.746094 Z M 46 153 " clip-rule="nonzero"/></clipPath><clipPath id="7d0092a77c"><path d="M 149 197 L 154 197 L 154 216.746094 L 149 216.746094 Z M 149 197 " clip-rule="nonzero"/></clipPath><clipPath id="8891fa3a41"><path d="M 70 196 L 74 196 L 74 216.746094 L 70 216.746094 Z M 70 196 " clip-rule="nonzero"/></clipPath><clipPath id="9d397147e0"><path d="M 39.539062 8.355469 L 185.710938 8.355469 L 185.710938 216.746094 L 39.539062 216.746094 Z M 39.539062 8.355469 " clip-rule="nonzero"/></clipPath></defs><path fill="#020000" d="M 85.386719 106.890625 C 85.546875 106.609375 85.71875 106.316406 85.90625 106.03125 C 85.714844 106.308594 85.542969 106.59375 85.386719 106.890625 Z M 94.261719 150.15625 C 93.628906 149.230469 92.972656 148.269531 92.355469 147.3125 C 90.546875 144.5 88.980469 141.5625 87.660156 138.492188 C 88.171875 140.050781 88.820312 141.554688 89.597656 143.003906 C 90.007812 143.734375 90.417969 144.503906 90.808594 145.246094 C 92.363281 148.167969 93.851562 150.96875 95.679688 152.261719 C 95.210938 151.550781 94.734375 150.851562 94.261719 150.15625 Z M 94.261719 150.15625 " fill-opacity="1" fill-rule="nonzero"/><path fill="#020000" d="M 132.410156 120.261719 C 131.882812 119.695312 131.230469 119.414062 130.453125 119.417969 L 130.410156 119.417969 C 129.953125 119.429688 129.511719 119.523438 129.089844 119.691406 C 128.855469 119.78125 128.628906 119.882812 128.40625 120 C 127.320312 120.570312 126.296875 121.457031 125.519531 122.234375 C 125.300781 118.488281 123.878906 112.832031 118.738281 105.867188 C 117.003906 103.519531 114.269531 101.671875 110.996094 100.484375 C 109.832031 100.0625 108.640625 99.734375 107.421875 99.5 L 107.40625 99.5 C 104.816406 99 102.207031 98.875 99.578125 99.128906 C 96.433594 99.429688 93.589844 100.242188 91.230469 101.464844 C 89.089844 102.574219 87.339844 104.027344 86.109375 105.75 C 86.101562 105.761719 86.089844 105.777344 86.082031 105.789062 C 86.027344 105.863281 85.972656 105.941406 85.921875 106.023438 C 85.921875 106.023438 85.921875 106.023438 85.921875 106.03125 C 85.734375 106.316406 85.566406 106.605469 85.402344 106.886719 C 85.394531 106.902344 85.386719 106.914062 85.378906 106.929688 C 85.382812 106.929688 85.382812 106.933594 85.378906 106.9375 L 85.308594 107.066406 C 85.246094 107.179688 85.191406 107.296875 85.132812 107.414062 C 84.542969 108.660156 84.300781 110.070312 84.246094 111.527344 C 84.183594 113.195312 84.359375 114.925781 84.519531 116.539062 C 84.625 117.585938 84.726562 118.578125 84.761719 119.496094 C 84.820312 120.742188 84.8125 121.988281 84.738281 123.234375 C 84.644531 124.4375 84.710938 125.636719 84.933594 126.824219 C 85.273438 128.851562 86.117188 133.921875 87.675781 138.484375 C 89 141.554688 90.566406 144.492188 92.375 147.304688 C 92.988281 148.257812 93.644531 149.222656 94.28125 150.148438 C 94.753906 150.84375 95.230469 151.542969 95.699219 152.253906 C 96.203125 152.625 96.757812 152.859375 97.375 152.964844 C 97.660156 153.007812 97.941406 153.042969 98.222656 153.066406 C 98.46875 153.09375 98.714844 153.109375 98.957031 153.117188 C 99.203125 153.128906 99.433594 153.136719 99.671875 153.136719 C 104.449219 153.136719 108.652344 150.871094 113.792969 148.097656 C 120.136719 144.675781 122.984375 136.632812 123.300781 134.089844 C 123.300781 134.074219 123.300781 134.0625 123.300781 134.050781 C 123.609375 134.40625 123.972656 134.695312 124.394531 134.914062 C 124.625 135.03125 124.871094 135.121094 125.128906 135.175781 C 125.378906 135.234375 125.636719 135.261719 125.894531 135.261719 L 125.921875 135.261719 C 127.238281 135.25 128.683594 133.527344 129.796875 131.785156 C 130.046875 131.390625 130.285156 130.996094 130.492188 130.621094 C 130.941406 129.851562 131.335938 129.058594 131.679688 128.238281 C 131.867188 127.765625 132.082031 127.300781 132.320312 126.851562 C 133.25 125.003906 134.535156 122.457031 132.410156 120.261719 Z M 131.652344 126.53125 C 131.398438 127.007812 131.171875 127.5 130.976562 128.007812 C 130.5 129.355469 127.636719 134.527344 125.90625 134.535156 L 125.882812 134.535156 C 125.546875 134.539062 125.222656 134.476562 124.910156 134.347656 C 124.328125 134.109375 123.816406 133.644531 123.386719 132.957031 C 123.296875 132.816406 123.171875 132.757812 123.007812 132.785156 C 122.839844 132.816406 122.742188 132.914062 122.710938 133.078125 C 122.660156 133.339844 122.597656 133.683594 122.554688 134.011719 C 122.246094 136.453125 119.519531 144.175781 113.425781 147.460938 C 107.835938 150.480469 103.675781 152.722656 98.703125 152.382812 L 98.699219 152.382812 C 98.664062 152.382812 98.632812 152.375 98.605469 152.375 L 98.597656 152.375 C 98.230469 152.351562 97.855469 152.304688 97.476562 152.25 C 95.195312 151.902344 93.386719 148.5 91.476562 144.902344 C 91.078125 144.15625 90.671875 143.390625 90.253906 142.648438 C 87.488281 137.691406 86.105469 129.433594 85.652344 126.714844 C 85.441406 125.578125 85.378906 124.4375 85.46875 123.285156 C 85.542969 122.019531 85.550781 120.75 85.492188 119.484375 C 85.457031 118.535156 85.355469 117.535156 85.246094 116.480469 C 84.945312 113.542969 84.605469 110.21875 85.792969 107.738281 C 85.84375 107.632812 85.894531 107.527344 85.953125 107.421875 C 85.960938 107.402344 85.972656 107.386719 85.980469 107.367188 C 85.984375 107.355469 85.988281 107.34375 86 107.335938 C 86.003906 107.324219 86.015625 107.308594 86.023438 107.292969 L 86.035156 107.265625 C 86.1875 106.980469 86.355469 106.703125 86.542969 106.4375 C 86.589844 106.355469 86.652344 106.265625 86.71875 106.175781 C 86.71875 106.171875 86.722656 106.164062 86.726562 106.160156 C 86.730469 106.15625 86.734375 106.148438 86.738281 106.144531 C 89.199219 102.71875 93.878906 100.414062 99.65625 99.867188 C 100.519531 99.78125 101.382812 99.738281 102.238281 99.738281 C 108.953125 99.738281 115.148438 102.238281 118.15625 106.308594 C 123.605469 113.6875 124.789062 119.53125 124.820312 123.128906 C 124.824219 123.296875 124.902344 123.410156 125.058594 123.472656 C 125.214844 123.53125 125.351562 123.5 125.464844 123.378906 C 126.121094 122.660156 127.53125 121.238281 128.972656 120.550781 C 129 120.539062 129.027344 120.527344 129.050781 120.511719 C 129.488281 120.296875 129.949219 120.179688 130.433594 120.15625 L 130.460938 120.15625 C 131.03125 120.148438 131.507812 120.355469 131.890625 120.777344 C 133.636719 122.59375 132.578125 124.6875 131.652344 126.53125 Z M 131.652344 126.53125 " fill-opacity="1" fill-rule="nonzero"/><path fill="#020000" d="M 98.6875 152.382812 C 98.65625 152.378906 98.625 152.378906 98.59375 152.382812 C 98.621094 152.378906 98.644531 152.378906 98.671875 152.382812 C 98.675781 152.378906 98.683594 152.378906 98.6875 152.382812 Z M 98.6875 152.382812 " fill-opacity="1" fill-rule="nonzero"/><g clip-path="url(#45e010e7e0)"><path fill="#020000" d="M 178.886719 216.746094 L 178.144531 216.746094 C 178.121094 216.410156 178.09375 216.078125 178.0625 215.75 C 177.207031 205.671875 175.566406 198.148438 174.214844 193.300781 C 172.300781 186.441406 169.832031 180.96875 167.613281 178.667969 C 165.480469 176.457031 159.484375 174.078125 154.492188 172.257812 C 153.910156 172.042969 153.328125 171.832031 152.730469 171.617188 C 152.710938 171.613281 152.691406 171.613281 152.667969 171.605469 C 152.492188 171.542969 152.320312 171.480469 152.148438 171.410156 C 152.101562 171.394531 152.054688 171.375 152.011719 171.355469 C 150.644531 170.871094 149.246094 170.378906 147.84375 169.886719 C 145.074219 168.914062 142.207031 167.910156 139.628906 166.9375 C 139.605469 166.929688 139.585938 166.917969 139.5625 166.90625 C 137.429688 166.109375 135.65625 165.394531 134.164062 164.710938 C 134.140625 164.707031 134.121094 164.695312 134.097656 164.683594 C 132.25 163.84375 130.859375 163.089844 129.839844 162.386719 C 125.886719 159.609375 124.058594 150.378906 124.386719 134.921875 C 124.621094 135.039062 124.867188 135.128906 125.121094 135.183594 C 124.828125 150.019531 126.601562 159.210938 130.265625 161.78125 C 131.300781 162.46875 132.382812 163.074219 133.511719 163.597656 C 133.804688 163.734375 134.105469 163.875 134.421875 164.023438 C 134.460938 164.042969 134.503906 164.0625 134.546875 164.078125 C 135.800781 164.644531 137.25 165.242188 138.953125 165.890625 C 139.253906 166.003906 139.566406 166.125 139.882812 166.242188 C 139.90625 166.25 139.929688 166.261719 139.953125 166.273438 C 139.976562 166.28125 139.996094 166.289062 140.019531 166.304688 C 142.523438 167.242188 145.292969 168.214844 147.980469 169.152344 L 148.082031 169.191406 C 149.484375 169.683594 150.890625 170.171875 152.269531 170.667969 C 152.480469 170.75 152.691406 170.832031 152.910156 170.902344 C 153.128906 170.976562 153.332031 171.050781 153.539062 171.128906 L 154.75 171.5625 C 154.78125 171.574219 154.8125 171.585938 154.847656 171.597656 C 160.191406 173.5625 165.933594 175.863281 168.140625 178.148438 C 171.664062 181.804688 177.042969 194.589844 178.808594 215.742188 C 178.828125 216.078125 178.863281 216.410156 178.886719 216.746094 Z M 178.886719 216.746094 " fill-opacity="1" fill-rule="nonzero"/></g><path fill="#020000" d="M 104.988281 140.644531 C 104.949219 140.441406 104.875 140.25 104.765625 140.074219 C 103.984375 138.691406 102.488281 137.507812 100.203125 136.460938 C 99.546875 136.164062 98.296875 135.722656 97.347656 136.148438 C 97.253906 136.191406 97.160156 136.242188 97.074219 136.296875 C 96.972656 136.367188 96.863281 136.414062 96.742188 136.445312 C 96.589844 136.445312 96.441406 136.414062 96.300781 136.347656 C 96.207031 136.320312 96.113281 136.285156 96.019531 136.261719 C 95.875 136.222656 95.726562 136.203125 95.574219 136.199219 L 95.554688 136.199219 C 94.664062 136.199219 93.941406 136.851562 93.476562 137.339844 C 92.636719 138.222656 91.585938 140.320312 92.496094 141.367188 C 92.519531 141.398438 92.546875 141.425781 92.578125 141.453125 C 92.773438 141.625 93 141.730469 93.261719 141.757812 C 93.367188 141.78125 93.476562 141.789062 93.585938 141.785156 C 93.992188 141.789062 94.375 141.6875 94.734375 141.488281 L 94.761719 141.472656 C 94.992188 141.3125 95.140625 141.097656 95.210938 140.824219 C 95.210938 140.824219 95.210938 140.816406 95.210938 140.8125 C 95.230469 140.742188 95.257812 140.671875 95.292969 140.605469 C 95.414062 140.375 95.589844 140.203125 95.824219 140.089844 C 96.074219 140.007812 96.328125 139.972656 96.589844 139.984375 L 96.863281 139.984375 C 97.71875 139.941406 98.574219 139.945312 99.429688 139.992188 C 100.125 140.042969 100.773438 140.246094 101.46875 140.46875 C 101.679688 140.53125 101.882812 140.613281 102.078125 140.710938 C 102.367188 140.851562 102.648438 141.011719 102.917969 141.1875 C 103.042969 141.261719 103.171875 141.324219 103.308594 141.378906 C 103.511719 141.464844 103.722656 141.523438 103.941406 141.558594 C 104.210938 141.617188 104.460938 141.582031 104.699219 141.445312 C 104.753906 141.414062 104.796875 141.371094 104.835938 141.320312 C 104.996094 141.121094 105.046875 140.894531 104.988281 140.644531 Z M 103.410156 140.621094 L 103.296875 140.5625 C 102.789062 140.21875 102.242188 139.949219 101.664062 139.753906 C 100.941406 139.527344 100.257812 139.316406 99.476562 139.253906 C 98.59375 139.1875 97.699219 139.21875 96.835938 139.238281 L 96.570312 139.238281 C 96.214844 139.226562 95.875 139.28125 95.539062 139.402344 C 95.015625 139.640625 94.671875 140.03125 94.507812 140.582031 C 94.484375 140.636719 94.472656 140.679688 94.457031 140.71875 C 94.4375 140.765625 94.410156 140.804688 94.367188 140.835938 C 94.035156 141.042969 93.421875 141.109375 93.136719 140.945312 C 93.101562 140.925781 93.074219 140.90625 93.050781 140.875 C 92.523438 140.265625 93.265625 138.613281 94.007812 137.835938 C 94.378906 137.445312 94.945312 136.925781 95.550781 136.925781 L 95.566406 136.925781 C 95.65625 136.929688 95.742188 136.941406 95.828125 136.96875 C 95.90625 136.984375 95.980469 137.007812 96.054688 137.035156 C 96.308594 137.148438 96.570312 137.195312 96.847656 137.171875 C 97.0625 137.132812 97.261719 137.050781 97.445312 136.925781 C 97.511719 136.886719 97.578125 136.851562 97.648438 136.820312 C 98.140625 136.597656 98.984375 136.710938 99.894531 137.132812 C 102.007812 138.097656 103.425781 139.207031 104.121094 140.433594 C 104.160156 140.496094 104.195312 140.5625 104.21875 140.636719 C 104.238281 140.671875 104.25 140.710938 104.257812 140.753906 C 104.257812 140.78125 104.257812 140.808594 104.257812 140.835938 C 104.117188 140.878906 103.695312 140.769531 103.402344 140.621094 Z M 103.410156 140.621094 " fill-opacity="1" fill-rule="nonzero"/><path fill="#020000" d="M 102.902344 141.183594 C 102.632812 141.007812 102.355469 140.851562 102.0625 140.707031 C 101.890625 140.707031 101.71875 140.707031 101.546875 140.707031 C 100.917969 140.679688 100.292969 140.695312 99.667969 140.75 L 99.351562 140.785156 C 98.148438 140.921875 96.898438 141.074219 95.699219 140.902344 C 95.566406 140.886719 95.4375 140.863281 95.308594 140.839844 L 95.199219 140.820312 C 95.199219 140.820312 95.199219 140.828125 95.199219 140.832031 C 95.132812 141.101562 94.984375 141.320312 94.753906 141.480469 L 94.726562 141.496094 C 94.878906 141.515625 95.03125 141.542969 95.191406 141.566406 C 95.328125 141.589844 95.464844 141.613281 95.59375 141.632812 C 96.890625 141.816406 98.191406 141.667969 99.441406 141.519531 L 99.753906 141.484375 C 100.347656 141.433594 100.9375 141.417969 101.53125 141.445312 C 101.902344 141.445312 102.289062 141.460938 102.671875 141.445312 C 102.746094 141.445312 102.878906 141.425781 103.035156 141.40625 C 103.09375 141.40625 103.1875 141.382812 103.296875 141.378906 C 103.160156 141.324219 103.03125 141.257812 102.902344 141.183594 Z M 104.679688 141.445312 C 104.445312 141.578125 104.191406 141.617188 103.925781 141.558594 C 103.5625 142.007812 102.832031 142.375 102.460938 142.5625 C 101.867188 142.84375 101.261719 143.089844 100.644531 143.300781 L 100.507812 143.347656 C 99.277344 143.792969 98.308594 143.992188 97.363281 143.992188 L 97.355469 143.992188 C 95.0625 143.992188 93.757812 143.46875 93.253906 142.339844 C 93.152344 142.117188 93.140625 141.941406 93.207031 141.820312 C 93.222656 141.800781 93.234375 141.78125 93.253906 141.757812 C 92.992188 141.730469 92.765625 141.625 92.570312 141.453125 C 92.433594 141.6875 92.324219 142.082031 92.574219 142.640625 C 93.503906 144.707031 96.332031 144.730469 97.332031 144.730469 L 97.371094 144.730469 C 98.402344 144.730469 99.453125 144.519531 100.757812 144.046875 L 100.902344 143.996094 C 101.550781 143.777344 102.183594 143.519531 102.800781 143.222656 C 103.582031 142.832031 104.351562 142.386719 104.703125 141.738281 C 104.777344 141.613281 104.820312 141.476562 104.832031 141.328125 C 104.789062 141.375 104.738281 141.414062 104.683594 141.445312 Z M 104.679688 141.445312 " fill-opacity="1" fill-rule="nonzero"/><path fill="#020000" d="M 154.847656 171.597656 L 154.75 171.5625 L 153.539062 171.128906 C 152.394531 169.699219 151.15625 168.316406 149.953125 166.972656 C 147.070312 163.753906 144.085938 160.421875 142.273438 156.421875 C 138.683594 148.488281 140.230469 139.015625 141.472656 131.40625 C 142.640625 124.238281 143.550781 117.28125 141.910156 110.976562 C 142.117188 110.792969 142.320312 110.621094 142.535156 110.464844 C 144.324219 116.992188 143.398438 124.152344 142.195312 131.523438 C 140.90625 139.4375 139.4375 148.390625 142.9375 156.121094 C 144.703125 160.023438 147.648438 163.308594 150.492188 166.480469 C 151.972656 168.125 153.488281 169.820312 154.847656 171.597656 Z M 154.847656 171.597656 " fill-opacity="1" fill-rule="nonzero"/><path fill="#020000" d="M 81.8125 101.285156 L 81.753906 101.378906 C 81.773438 101.347656 81.792969 101.316406 81.816406 101.285156 C 81.875 101.210938 81.925781 101.132812 81.984375 101.054688 Z M 83.144531 141.707031 C 82.28125 139.929688 81.386719 138.105469 80.628906 136.292969 C 78.03125 130.101562 76.683594 123.738281 76.75 117.902344 C 76.757812 117.167969 76.789062 116.449219 76.839844 115.734375 C 76.785156 116.449219 76.753906 117.171875 76.746094 117.90625 C 76.746094 118.015625 76.707031 118.105469 76.621094 118.179688 C 76.4375 118.335938 76.253906 118.5 76.074219 118.664062 L 76.015625 118.714844 C 76.074219 124.433594 77.433594 130.585938 79.949219 136.578125 C 80.71875 138.410156 81.613281 140.246094 82.484375 142.027344 C 84.945312 147.078125 87.492188 152.292969 87.332031 157.855469 C 87.273438 159.324219 87.070312 160.769531 86.71875 162.199219 L 86.96875 162.164062 C 87.152344 162.140625 87.328125 162.113281 87.503906 162.089844 C 87.824219 160.703125 88.015625 159.300781 88.070312 157.878906 C 88.234375 152.140625 85.644531 146.839844 83.144531 141.710938 Z M 92.136719 92.339844 L 92.085938 92.359375 C 92.101562 92.359375 92.121094 92.347656 92.136719 92.34375 Z M 92.136719 92.339844 " fill-opacity="1" fill-rule="nonzero"/><path fill="#020000" d="M 180.21875 113.105469 C 180.183594 112.246094 179.933594 111.675781 179.453125 111.371094 C 179.007812 111.089844 178.476562 111.132812 178.117188 111.183594 C 176.382812 111.457031 175 112.527344 173.660156 113.558594 C 172.042969 114.804688 170.507812 115.980469 168.449219 115.816406 C 167.914062 115.769531 167.507812 115.625 167.25 115.394531 C 166.910156 115.074219 166.761719 114.574219 166.621094 113.988281 C 165.417969 109.109375 164.382812 104.894531 161.425781 100.371094 C 158.851562 96.410156 155.480469 93.324219 151.304688 91.105469 C 148.023438 89.390625 144.578125 88.511719 141.324219 88.511719 C 139.5625 88.503906 137.851562 88.777344 136.179688 89.332031 C 133.96875 90.082031 131.785156 91.566406 130.179688 93.402344 C 130.097656 93.492188 130.011719 93.59375 129.925781 93.695312 C 129.777344 93.878906 129.625 94.074219 129.472656 94.28125 C 128.8125 95.175781 128.304688 96.152344 127.960938 97.214844 C 127.976562 97.253906 127.980469 97.292969 127.980469 97.335938 C 127.980469 97.449219 127.941406 97.542969 127.855469 97.617188 C 127.855469 97.617188 127.855469 97.617188 127.84375 97.617188 C 127.632812 98.425781 127.550781 99.25 127.605469 100.085938 C 127.640625 100.605469 127.734375 101.804688 127.972656 103.289062 C 128.0625 103.855469 128.175781 104.460938 128.308594 105.089844 C 128.921875 107.917969 130.035156 111.136719 132.042969 112.722656 C 132.042969 112.722656 132.054688 112.722656 132.054688 112.734375 C 132.382812 112.984375 132.726562 113.203125 133.09375 113.386719 C 133.984375 113.816406 134.921875 114.039062 135.90625 114.046875 C 136.894531 114.058594 137.835938 113.859375 138.734375 113.449219 C 138.957031 113.347656 139.167969 113.234375 139.375 113.101562 L 139.429688 113.066406 C 140.085938 112.613281 140.699219 112.109375 141.269531 111.554688 C 141.484375 111.355469 141.703125 111.160156 141.917969 110.964844 C 142.136719 110.769531 142.328125 110.609375 142.542969 110.453125 C 143.246094 109.921875 143.976562 109.546875 144.824219 109.542969 C 146.503906 109.542969 147.808594 111.050781 148.957031 112.683594 L 153.097656 118.527344 C 156.371094 123.144531 160.09375 127.394531 165.132812 127.394531 C 165.226562 127.394531 165.316406 127.394531 165.40625 127.394531 C 167.773438 127.320312 169.960938 126.21875 171.601562 125.269531 C 174.273438 123.722656 180.449219 119.4375 180.21875 113.105469 Z M 171.234375 124.632812 C 169.667969 125.542969 167.589844 126.597656 165.386719 126.667969 C 160.539062 126.820312 156.914062 122.644531 153.699219 118.109375 L 149.566406 112.257812 C 148.296875 110.464844 146.84375 108.808594 144.828125 108.808594 C 143.6875 108.8125 142.753906 109.339844 141.910156 110.019531 C 141.890625 110.03125 141.875 110.042969 141.863281 110.058594 C 141.488281 110.359375 141.125 110.691406 140.769531 111.015625 C 140.195312 111.539062 139.605469 112.082031 138.976562 112.480469 C 137.074219 113.6875 134.429688 113.574219 132.625 112.242188 C 132.625 112.242188 132.617188 112.242188 132.613281 112.242188 L 132.535156 112.179688 L 132.519531 112.171875 C 132.519531 112.171875 132.503906 112.15625 132.5 112.15625 C 130.796875 110.808594 129.671875 107.984375 129.015625 104.941406 C 129.015625 104.929688 129.015625 104.921875 129.015625 104.914062 C 129.003906 104.875 128.996094 104.832031 128.988281 104.792969 C 128.660156 103.230469 128.445312 101.648438 128.34375 100.054688 C 128.054688 95.65625 132.308594 91.425781 136.425781 90.027344 C 140.753906 88.558594 146.054688 89.191406 150.96875 91.761719 C 154.886719 93.808594 158.292969 96.933594 160.8125 100.785156 C 163.703125 105.199219 164.726562 109.355469 165.910156 114.171875 C 166.042969 114.710938 166.226562 115.445312 166.757812 115.945312 C 167.148438 116.300781 167.683594 116.503906 168.398438 116.5625 C 170.757812 116.757812 172.464844 115.433594 174.125 114.160156 C 175.449219 113.132812 176.699219 112.175781 178.246094 111.929688 C 178.625 111.871094 178.894531 111.894531 179.074219 112.007812 C 179.332031 112.175781 179.46875 112.542969 179.484375 113.144531 C 179.699219 119.066406 173.785156 123.152344 171.234375 124.632812 Z M 171.234375 124.632812 " fill-opacity="1" fill-rule="nonzero"/><path fill="#020000" d="M 127.960938 97.214844 C 127.921875 97.351562 127.882812 97.488281 127.84375 97.621094 C 127.84375 97.621094 127.84375 97.621094 127.855469 97.621094 C 127.941406 97.550781 127.980469 97.457031 127.980469 97.34375 C 127.984375 97.296875 127.976562 97.253906 127.960938 97.214844 Z M 127.960938 97.214844 " fill-opacity="1" fill-rule="nonzero"/><path fill="#020000" d="M 92.820312 92.050781 C 91.949219 90.296875 88.578125 90.539062 86.957031 90.65625 L 86.910156 90.65625 C 84.25 90.847656 81.945312 91.53125 79.863281 92.753906 C 77.410156 94.195312 75.269531 96.007812 73.445312 98.1875 C 71.621094 100.367188 70.21875 102.789062 69.234375 105.453125 C 69.003906 106.070312 68.789062 106.714844 68.582031 107.34375 C 67.585938 110.324219 66.558594 113.402344 63.910156 114.714844 C 61.28125 116.015625 58.226562 114.984375 55.269531 113.984375 C 54.554688 113.742188 53.816406 113.488281 53.097656 113.277344 C 51.847656 112.898438 50.921875 113.003906 50.355469 113.585938 C 49.300781 114.679688 50.21875 116.304688 51.320312 117.359375 C 54.992188 120.910156 59.410156 124.488281 64.542969 124.488281 C 64.839844 124.488281 65.140625 124.476562 65.4375 124.453125 C 69.496094 124.121094 72.960938 121.460938 75.796875 118.910156 L 76.015625 118.71875 C 76.015625 118.445312 76.015625 118.171875 76.015625 117.898438 C 76.015625 117.800781 76.015625 117.699219 76.015625 117.59375 C 76.015625 117.640625 76.015625 117.6875 76.015625 117.730469 C 75.878906 117.855469 75.730469 117.988281 75.585938 118.113281 L 75.3125 118.363281 C 72.554688 120.832031 69.222656 123.398438 65.382812 123.71875 C 60.164062 124.140625 55.609375 120.476562 51.839844 116.828125 C 51.378906 116.40625 51.019531 115.910156 50.765625 115.34375 C 50.445312 114.546875 50.773438 114.210938 50.878906 114.101562 C 51.082031 113.894531 51.382812 113.789062 51.773438 113.789062 C 52.15625 113.800781 52.527344 113.867188 52.890625 113.988281 C 53.597656 114.195312 54.328125 114.441406 55.039062 114.683594 C 58.136719 115.734375 61.335938 116.816406 64.238281 115.375 C 67.167969 113.929688 68.242188 110.703125 69.28125 107.582031 C 69.492188 106.960938 69.707031 106.316406 69.929688 105.710938 C 70.898438 103.132812 72.265625 100.789062 74.035156 98.675781 C 75.800781 96.566406 77.871094 94.804688 80.238281 93.394531 C 82.222656 92.230469 84.421875 91.578125 86.964844 91.394531 L 87.011719 91.394531 C 88.230469 91.304688 91.441406 91.070312 92.136719 92.339844 C 92.269531 92.308594 92.40625 92.273438 92.535156 92.246094 C 92.664062 92.214844 92.761719 92.199219 92.875 92.179688 C 92.855469 92.136719 92.835938 92.09375 92.820312 92.050781 Z M 92.820312 92.050781 " fill-opacity="1" fill-rule="nonzero"/><path fill="#020000" d="M 129.933594 93.691406 C 129.78125 93.875 129.628906 94.070312 129.480469 94.277344 C 126.582031 92.125 123.523438 90.589844 120.390625 89.699219 C 113.578125 87.777344 106.21875 89.261719 101.636719 93.476562 C 101.375 93.71875 100.855469 93.699219 97.699219 93.082031 C 97.015625 92.945312 96.378906 92.824219 96.195312 92.808594 C 94.882812 92.722656 93.785156 92.722656 92.691406 92.960938 C 92.003906 93.113281 91.34375 93.347656 90.714844 93.65625 C 88.269531 94.835938 86.109375 96.40625 84.234375 98.367188 C 84.0625 98.542969 83.890625 98.726562 83.71875 98.910156 C 83.550781 99.09375 83.382812 99.285156 83.222656 99.480469 C 82.851562 99.910156 82.496094 100.359375 82.152344 100.820312 C 82.089844 100.898438 82.039062 100.972656 81.980469 101.054688 L 81.8125 101.285156 C 81.773438 101.34375 81.730469 101.402344 81.691406 101.464844 C 81.109375 102.300781 80.578125 103.171875 80.101562 104.070312 C 80.027344 104.207031 79.957031 104.34375 79.886719 104.480469 C 79.800781 104.640625 79.722656 104.800781 79.648438 104.960938 C 79.488281 105.28125 79.339844 105.601562 79.195312 105.929688 C 79.054688 106.257812 78.914062 106.589844 78.785156 106.921875 C 78.589844 107.417969 78.40625 107.925781 78.238281 108.441406 C 77.90625 109.449219 77.632812 110.472656 77.417969 111.511719 C 77.328125 111.9375 77.25 112.375 77.179688 112.8125 C 77.125 113.128906 77.078125 113.445312 77.042969 113.769531 C 76.988281 114.183594 76.9375 114.609375 76.90625 115.03125 C 76.886719 115.269531 76.867188 115.503906 76.847656 115.742188 C 76.796875 116.453125 76.765625 117.179688 76.757812 117.914062 C 76.757812 118.023438 76.71875 118.113281 76.632812 118.1875 C 76.449219 118.34375 76.269531 118.507812 76.085938 118.671875 L 76.027344 118.722656 C 76.027344 118.449219 76.027344 118.179688 76.027344 117.90625 C 76.027344 117.804688 76.027344 117.703125 76.027344 117.597656 C 76.027344 117.496094 76.027344 117.398438 76.03125 117.296875 C 76.03125 117.136719 76.042969 116.972656 76.050781 116.8125 C 76.050781 116.757812 76.050781 116.703125 76.054688 116.648438 C 76.054688 116.558594 76.058594 116.46875 76.066406 116.375 C 76.066406 116.285156 76.078125 116.191406 76.085938 116.105469 C 76.09375 115.90625 76.109375 115.707031 76.125 115.511719 C 76.140625 115.316406 76.15625 115.113281 76.175781 114.917969 C 76.195312 114.722656 76.210938 114.527344 76.234375 114.332031 C 76.257812 114.140625 76.277344 113.945312 76.304688 113.753906 C 76.332031 113.558594 76.359375 113.367188 76.386719 113.179688 C 76.414062 112.988281 76.441406 112.796875 76.472656 112.605469 C 76.539062 112.226562 76.609375 111.851562 76.683594 111.476562 C 76.757812 111.101562 76.84375 110.738281 76.929688 110.371094 C 76.976562 110.1875 77.023438 110.007812 77.066406 109.824219 C 77.113281 109.640625 77.164062 109.460938 77.21875 109.28125 C 77.269531 109.097656 77.320312 108.925781 77.375 108.746094 C 77.425781 108.5625 77.484375 108.390625 77.539062 108.214844 C 77.597656 108.039062 77.65625 107.863281 77.71875 107.6875 C 77.78125 107.515625 77.84375 107.339844 77.90625 107.167969 C 78.03125 106.820312 78.164062 106.484375 78.316406 106.140625 C 78.386719 105.972656 78.453125 105.800781 78.53125 105.636719 C 78.570312 105.550781 78.605469 105.46875 78.644531 105.386719 C 78.730469 105.195312 78.820312 105.007812 78.910156 104.820312 C 78.996094 104.632812 79.089844 104.445312 79.183594 104.261719 C 79.273438 104.082031 79.371094 103.898438 79.46875 103.71875 C 79.519531 103.628906 79.566406 103.535156 79.617188 103.445312 C 79.773438 103.160156 79.933594 102.878906 80.101562 102.601562 C 80.21875 102.40625 80.339844 102.210938 80.464844 102.019531 C 80.566406 101.855469 80.667969 101.695312 80.777344 101.535156 C 80.921875 101.316406 81.070312 101.097656 81.226562 100.878906 C 83.671875 97.429688 86.847656 94.707031 90.410156 93.011719 C 90.683594 92.875 90.957031 92.761719 91.230469 92.660156 C 91.28125 92.636719 91.335938 92.617188 91.390625 92.601562 C 91.503906 92.554688 91.613281 92.519531 91.722656 92.484375 C 91.796875 92.460938 91.867188 92.4375 91.9375 92.417969 C 92.007812 92.398438 92.082031 92.375 92.152344 92.355469 C 92.28125 92.320312 92.417969 92.289062 92.550781 92.261719 C 92.679688 92.230469 92.773438 92.214844 92.890625 92.191406 C 93.953125 92.003906 95.015625 92.015625 96.261719 92.089844 C 96.476562 92.105469 96.984375 92.199219 97.855469 92.375 C 98.886719 92.574219 100.78125 92.9375 101.207031 92.898438 C 105.976562 88.554688 113.582031 87.03125 120.609375 89 C 123.816406 89.902344 126.960938 91.480469 129.933594 93.691406 Z M 129.933594 93.691406 " fill-opacity="1" fill-rule="nonzero"/><path fill="#020000" d="M 127.851562 97.617188 C 127.851562 97.617188 127.851562 97.617188 127.839844 97.617188 C 127.773438 97.671875 127.699219 97.699219 127.613281 97.695312 C 127.496094 97.695312 127.402344 97.648438 127.328125 97.558594 C 126.589844 96.695312 125.777344 95.910156 124.890625 95.203125 C 124.003906 94.492188 123.058594 93.871094 122.054688 93.34375 C 121.046875 92.8125 120.003906 92.382812 118.914062 92.050781 C 117.828125 91.71875 116.71875 91.492188 115.589844 91.371094 C 114.457031 91.25 113.328125 91.238281 112.195312 91.332031 C 111.0625 91.425781 109.949219 91.625 108.851562 91.929688 C 107.757812 92.234375 106.703125 92.640625 105.683594 93.144531 C 104.667969 93.648438 103.707031 94.246094 102.800781 94.933594 C 102.71875 94.996094 102.628906 95.019531 102.527344 95.003906 C 102.429688 94.992188 102.347656 94.945312 102.285156 94.863281 C 102.222656 94.785156 102.199219 94.691406 102.214844 94.59375 C 102.226562 94.492188 102.273438 94.410156 102.355469 94.347656 C 102.824219 93.992188 103.3125 93.65625 103.8125 93.347656 C 104.3125 93.035156 104.828125 92.75 105.359375 92.488281 C 105.886719 92.222656 106.425781 91.988281 106.980469 91.777344 C 107.53125 91.566406 108.089844 91.378906 108.660156 91.222656 C 109.226562 91.0625 109.804688 90.933594 110.386719 90.828125 C 110.964844 90.726562 111.550781 90.648438 112.140625 90.601562 C 112.730469 90.550781 113.316406 90.53125 113.910156 90.539062 C 114.5 90.546875 115.089844 90.582031 115.675781 90.644531 C 116.261719 90.707031 116.84375 90.800781 117.425781 90.917969 C 118.003906 91.035156 118.574219 91.179688 119.140625 91.355469 C 119.703125 91.527344 120.257812 91.726562 120.804688 91.949219 C 121.351562 92.175781 121.886719 92.425781 122.40625 92.699219 C 122.929688 92.976562 123.4375 93.277344 123.929688 93.597656 C 124.425781 93.921875 124.902344 94.269531 125.363281 94.636719 C 125.824219 95.007812 126.265625 95.394531 126.6875 95.808594 C 127.113281 96.21875 127.515625 96.648438 127.898438 97.097656 C 127.929688 97.128906 127.949219 97.167969 127.964844 97.210938 C 128.019531 97.375 127.984375 97.507812 127.851562 97.617188 Z M 127.851562 97.617188 " fill-opacity="1" fill-rule="nonzero"/><path fill="#020000" d="M 152.265625 170.671875 C 150.886719 170.175781 149.484375 169.683594 148.082031 169.191406 C 148.050781 169.179688 148.011719 169.167969 147.980469 169.15625 C 143.867188 166.207031 140.660156 161.480469 139.015625 155.757812 C 136.972656 148.652344 137.449219 141.003906 138.058594 134.398438 C 138.136719 133.515625 138.222656 132.636719 138.308594 131.757812 C 138.886719 125.738281 139.480469 119.515625 138.734375 113.457031 C 138.953125 113.355469 139.167969 113.242188 139.375 113.109375 C 139.394531 113.097656 139.414062 113.085938 139.429688 113.074219 C 140.25 119.300781 139.636719 125.671875 139.042969 131.832031 C 138.960938 132.707031 138.871094 133.585938 138.792969 134.464844 C 138.195312 141.003906 137.726562 148.566406 139.726562 155.558594 C 141.808594 162.8125 146.46875 168.40625 152.265625 170.671875 Z M 152.265625 170.671875 " fill-opacity="1" fill-rule="nonzero"/><path fill="#020000" d="M 128.304688 105.09375 C 127.613281 103.996094 126.835938 102.964844 125.972656 102 C 125.167969 101.105469 124.285156 100.296875 123.324219 99.578125 C 118.019531 95.636719 109.992188 94.96875 102.378906 97.832031 C 102.28125 97.867188 102.1875 97.863281 102.097656 97.820312 C 102.003906 97.777344 101.9375 97.710938 101.902344 97.613281 C 101.867188 97.519531 101.871094 97.425781 101.914062 97.332031 C 101.953125 97.238281 102.023438 97.175781 102.117188 97.140625 C 109.964844 94.191406 118.253906 94.894531 123.769531 98.984375 C 125.386719 100.210938 126.785156 101.648438 127.96875 103.296875 C 128.058594 103.863281 128.171875 104.46875 128.304688 105.09375 Z M 128.304688 105.09375 " fill-opacity="1" fill-rule="nonzero"/><path fill="#020000" d="M 132.609375 112.238281 C 132.582031 112.21875 132.558594 112.199219 132.53125 112.179688 C 132.535156 112.175781 132.539062 112.175781 132.542969 112.179688 C 132.566406 112.195312 132.589844 112.214844 132.609375 112.238281 Z M 132.609375 112.238281 " fill-opacity="1" fill-rule="nonzero"/><path fill="#020000" d="M 140.015625 166.300781 C 139.992188 166.292969 139.96875 166.28125 139.945312 166.273438 C 139.925781 166.261719 139.902344 166.25 139.878906 166.242188 L 138.949219 165.894531 C 136.851562 161.871094 135.679688 156.839844 135.46875 150.921875 C 135.34375 147.589844 135.496094 144.207031 135.644531 140.929688 C 135.804688 137.457031 135.964844 133.859375 135.796875 130.335938 C 135.5 124.269531 134.253906 118.402344 132.050781 112.742188 C 132.375 112.996094 132.722656 113.210938 133.089844 113.390625 C 135.101562 118.851562 136.25 124.488281 136.53125 130.296875 C 136.703125 133.859375 136.542969 137.472656 136.382812 140.964844 C 136.234375 144.222656 136.082031 147.59375 136.203125 150.894531 C 136.425781 157.078125 137.707031 162.261719 140.015625 166.300781 Z M 140.015625 166.300781 " fill-opacity="1" fill-rule="nonzero"/><path fill="#020000" d="M 129.089844 119.691406 C 128.855469 119.78125 128.628906 119.886719 128.40625 120.003906 C 127.261719 115.066406 125.355469 110.921875 122.742188 107.675781 C 119.667969 103.878906 115.382812 101.296875 110.996094 100.492188 C 109.832031 100.070312 108.640625 99.742188 107.421875 99.507812 C 113.195312 99.25 119.269531 102.203125 123.3125 107.21875 C 125.972656 110.515625 127.917969 114.714844 129.089844 119.691406 Z M 129.089844 119.691406 " fill-opacity="1" fill-rule="nonzero"/><path fill="#020000" d="M 134.539062 164.082031 C 134.496094 164.058594 134.457031 164.042969 134.414062 164.023438 C 134.097656 163.878906 133.796875 163.738281 133.507812 163.597656 C 131.730469 159.566406 130.648438 154.824219 130.203125 149.148438 C 129.929688 145.578125 129.90625 141.9375 129.886719 138.417969 C 129.871094 136.246094 129.859375 134.007812 129.785156 131.792969 C 130.035156 131.402344 130.269531 131.007812 130.480469 130.632812 C 130.59375 133.210938 130.609375 135.855469 130.625 138.410156 C 130.644531 141.917969 130.664062 145.542969 130.941406 149.089844 C 131.40625 155.050781 132.582031 159.964844 134.539062 164.082031 Z M 134.539062 164.082031 " fill-opacity="1" fill-rule="nonzero"/><path fill="#020000" d="M 101.089844 94.792969 C 101.082031 94.894531 101.042969 94.976562 100.964844 95.042969 C 100.890625 95.113281 100.800781 95.140625 100.699219 95.136719 C 93.609375 94.660156 86.328125 99.492188 83.003906 106.894531 C 79.511719 114.644531 80.605469 123.320312 82.132812 129.226562 C 83.574219 134.765625 85.875 140.125 88.105469 145.3125 C 88.859375 147.0625 89.636719 148.878906 90.371094 150.667969 C 91.484375 153.386719 92.59375 156.292969 92.910156 159.351562 C 92.964844 159.894531 92.992188 160.441406 92.988281 160.988281 C 92.835938 161.03125 92.679688 161.078125 92.515625 161.125 L 92.25 161.195312 C 92.257812 160.605469 92.234375 160.015625 92.171875 159.429688 C 91.867188 156.46875 90.777344 153.617188 89.691406 150.953125 C 88.957031 149.164062 88.179688 147.355469 87.425781 145.609375 C 85.1875 140.394531 82.871094 135.007812 81.421875 129.417969 C 79.859375 123.390625 78.75 114.542969 82.332031 106.59375 C 85.78125 98.917969 93.351562 93.894531 100.746094 94.402344 C 100.847656 94.410156 100.933594 94.453125 101 94.527344 C 101.066406 94.601562 101.097656 94.691406 101.089844 94.792969 Z M 101.089844 94.792969 " fill-opacity="1" fill-rule="nonzero"/><g clip-path="url(#c584da3336)"><path fill="#020000" d="M 98.941406 153.125 C 98.757812 154.445312 98.542969 155.652344 98.289062 156.8125 C 98.285156 156.832031 98.28125 156.855469 98.273438 156.875 C 98.191406 157.261719 98.097656 157.664062 98 158.054688 C 97.578125 159.753906 95.910156 160.953125 92.753906 161.824219 C 92.730469 161.832031 92.707031 161.835938 92.683594 161.839844 C 91.261719 162.226562 89.476562 162.566406 87.078125 162.902344 C 85.53125 163.117188 83.898438 163.3125 82.164062 163.523438 C 74.097656 164.488281 64.0625 165.6875 57.097656 170.03125 C 51.042969 173.804688 47.550781 189.9375 47.121094 215.753906 C 47.121094 216.082031 47.113281 216.414062 47.109375 216.75 L 46.363281 216.75 C 46.363281 216.414062 46.367188 216.082031 46.375 215.753906 C 46.890625 182.671875 52.179688 172.222656 56.695312 169.402344 C 63.800781 164.980469 73.925781 163.765625 82.070312 162.789062 C 83.710938 162.59375 85.253906 162.410156 86.71875 162.207031 L 86.96875 162.175781 C 87.152344 162.148438 87.328125 162.121094 87.503906 162.097656 C 89.101562 161.882812 90.683594 161.578125 92.25 161.191406 L 92.519531 161.121094 C 92.679688 161.078125 92.835938 161.035156 92.988281 160.992188 C 95.578125 160.214844 96.949219 159.21875 97.28125 157.875 C 97.375 157.515625 97.457031 157.160156 97.535156 156.8125 C 97.542969 156.769531 97.554688 156.726562 97.5625 156.6875 C 97.636719 156.355469 97.707031 156.023438 97.773438 155.683594 C 97.9375 154.859375 98.078125 154 98.207031 153.082031 C 98.449219 153.101562 98.699219 153.117188 98.941406 153.125 Z M 98.941406 153.125 " fill-opacity="1" fill-rule="nonzero"/></g><path fill="#020000" d="M 86.007812 107.292969 L 85.941406 107.417969 C 85.964844 107.363281 85.992188 107.308594 86.023438 107.261719 Z M 86.007812 107.292969 " fill-opacity="1" fill-rule="nonzero"/><path fill="#020000" d="M 86.527344 106.4375 C 86.347656 106.710938 86.183594 106.992188 86.023438 107.265625 C 86.175781 106.980469 86.34375 106.703125 86.527344 106.4375 Z M 86.527344 106.4375 " fill-opacity="1" fill-rule="nonzero"/><path fill="#020000" d="M 95.683594 152.261719 C 96.417969 153.371094 97.128906 154.507812 97.773438 155.671875 C 97.707031 156.011719 97.636719 156.34375 97.5625 156.671875 C 97.554688 156.714844 97.542969 156.757812 97.53125 156.800781 C 96.421875 154.617188 95.015625 152.558594 93.65625 150.5625 C 93.015625 149.628906 92.355469 148.667969 91.738281 147.699219 C 88.144531 142.117188 85.527344 136.113281 83.886719 129.6875 C 81.789062 121.515625 81.972656 114.484375 84.433594 108.785156 C 84.6875 108.195312 84.976562 107.617188 85.292969 107.058594 C 85.230469 107.175781 85.171875 107.292969 85.117188 107.410156 C 84.527344 108.652344 84.285156 110.0625 84.230469 111.523438 C 82.714844 116.597656 82.839844 122.628906 84.605469 129.503906 C 86.230469 135.851562 88.816406 141.785156 92.363281 147.296875 C 92.980469 148.253906 93.636719 149.21875 94.269531 150.144531 C 94.734375 150.847656 95.210938 151.550781 95.683594 152.261719 Z M 95.683594 152.261719 " fill-opacity="1" fill-rule="nonzero"/><path fill="#020000" d="M 101.632812 98.273438 C 101.621094 98.375 101.574219 98.457031 101.496094 98.519531 C 101.414062 98.582031 101.324219 98.605469 101.222656 98.59375 C 97.816406 98.195312 94.261719 99.269531 91.222656 101.460938 C 89.082031 102.570312 87.335938 104.023438 86.105469 105.746094 C 89.746094 100.300781 95.71875 97.199219 101.316406 97.855469 C 101.417969 97.871094 101.5 97.917969 101.5625 98 C 101.621094 98.078125 101.648438 98.171875 101.632812 98.273438 Z M 101.632812 98.273438 " fill-opacity="1" fill-rule="nonzero"/><g clip-path="url(#7d0092a77c)"><path fill="#020000" d="M 153.554688 216.746094 L 152.769531 216.746094 C 152.65625 216.414062 152.542969 216.082031 152.433594 215.75 C 150.511719 209.953125 149.519531 204 149.457031 197.894531 C 149.457031 197.792969 149.496094 197.703125 149.566406 197.632812 C 149.636719 197.558594 149.722656 197.523438 149.824219 197.519531 C 149.925781 197.519531 150.015625 197.554688 150.085938 197.625 C 150.15625 197.699219 150.195312 197.785156 150.195312 197.886719 C 150.253906 204 151.257812 209.953125 153.203125 215.75 C 153.320312 216.082031 153.4375 216.414062 153.554688 216.746094 Z M 153.554688 216.746094 " fill-opacity="1" fill-rule="nonzero"/></g><g clip-path="url(#8891fa3a41)"><path fill="#020000" d="M 71.609375 215.75 C 71.542969 216.082031 71.472656 216.414062 71.402344 216.746094 L 70.648438 216.746094 C 70.71875 216.410156 70.785156 216.082031 70.851562 215.75 C 72.199219 209.0625 72.683594 202.886719 72.402344 196.550781 C 72.398438 196.449219 72.429688 196.359375 72.496094 196.285156 C 72.566406 196.210938 72.652344 196.171875 72.753906 196.164062 C 72.855469 196.15625 72.945312 196.1875 73.023438 196.257812 C 73.097656 196.328125 73.136719 196.414062 73.140625 196.515625 C 73.421875 202.871094 72.945312 209.054688 71.609375 215.75 Z M 71.609375 215.75 " fill-opacity="1" fill-rule="nonzero"/></g><g clip-path="url(#9d397147e0)"><path fill="#020000" d="M 164.238281 29.695312 C 150.453125 15.933594 132.117188 8.355469 112.625 8.355469 C 93.128906 8.355469 74.796875 15.933594 61.007812 29.695312 C 47.222656 43.457031 39.625 61.746094 39.625 81.199219 L 39.625 216.246094 C 39.625 216.386719 39.675781 216.503906 39.773438 216.601562 C 39.871094 216.695312 39.988281 216.746094 40.125 216.746094 L 185.121094 216.746094 C 185.257812 216.746094 185.375 216.699219 185.472656 216.601562 C 185.570312 216.503906 185.621094 216.386719 185.617188 216.246094 L 185.617188 81.199219 C 185.617188 61.746094 178.023438 43.453125 164.238281 29.695312 Z M 184.613281 215.75 L 40.625 215.75 L 40.625 81.199219 C 40.625 62.011719 48.113281 43.972656 61.714844 30.398438 C 75.316406 16.824219 93.390625 9.351562 112.625 9.351562 C 131.855469 9.351562 149.933594 16.828125 163.53125 30.398438 C 177.132812 43.972656 184.617188 62.011719 184.617188 81.199219 Z M 184.613281 215.75 " fill-opacity="1" fill-rule="nonzero"/></g><path fill="#020000" d="M 64.238281 57.964844 C 65.9375 58.492188 66.675781 59.996094 67.03125 61.839844 C 67.398438 59.964844 68.101562 58.890625 69.800781 58.175781 C 69.101562 57.953125 67.992188 56.773438 67.769531 56.414062 C 67.238281 55.550781 67.1875 54.703125 67.0625 53.738281 C 66.632812 55.519531 66.113281 57.144531 64.238281 57.964844 Z M 64.238281 57.964844 " fill-opacity="1" fill-rule="nonzero"/><path fill="#020000" d="M 174.652344 143.273438 C 176.347656 143.800781 177.085938 145.304688 177.4375 147.148438 C 177.808594 145.273438 178.511719 144.199219 180.214844 143.484375 C 179.511719 143.261719 178.402344 142.082031 178.179688 141.722656 C 177.648438 140.859375 177.597656 140.011719 177.472656 139.046875 C 177.042969 140.828125 176.523438 142.457031 174.652344 143.273438 Z M 174.652344 143.273438 " fill-opacity="1" fill-rule="nonzero"/><path fill="#020000" d="M 159.128906 76.269531 C 160.828125 76.796875 161.566406 78.300781 161.917969 80.144531 C 162.285156 78.269531 162.992188 77.195312 164.695312 76.480469 C 163.992188 76.257812 162.882812 75.078125 162.660156 74.71875 C 162.128906 73.855469 162.078125 73.007812 161.953125 72.042969 C 161.523438 73.824219 161 75.449219 159.128906 76.269531 Z M 159.128906 76.269531 " fill-opacity="1" fill-rule="nonzero"/><path fill="#020000" d="M 65.90625 137.050781 C 67.601562 137.585938 68.34375 139.085938 68.695312 140.925781 C 69.0625 139.050781 69.765625 137.972656 71.46875 137.261719 C 70.769531 137.039062 69.65625 135.859375 69.4375 135.5 C 68.90625 134.636719 68.855469 133.785156 68.726562 132.824219 C 68.296875 134.605469 67.777344 136.230469 65.90625 137.050781 Z M 65.90625 137.050781 " fill-opacity="1" fill-rule="nonzero"/><path fill="#020000" d="M 71.855469 70.039062 C 72.984375 70.386719 73.476562 71.386719 73.714844 72.617188 C 73.957031 71.367188 74.425781 70.652344 75.558594 70.175781 C 75.09375 70.027344 74.351562 69.246094 74.207031 69.003906 C 73.851562 68.429688 73.820312 67.863281 73.734375 67.230469 C 73.449219 68.398438 73.101562 69.492188 71.855469 70.039062 Z M 71.855469 70.039062 " fill-opacity="1" fill-rule="nonzero"/><path fill="#020000" d="M 92.910156 36.179688 C 94.042969 36.53125 94.535156 37.53125 94.769531 38.761719 C 95.015625 37.511719 95.484375 36.796875 96.613281 36.320312 C 96.148438 36.171875 95.410156 35.386719 95.261719 35.148438 C 94.910156 34.574219 94.875 34.007812 94.789062 33.367188 C 94.503906 34.558594 94.15625 35.632812 92.910156 36.179688 Z M 92.910156 36.179688 " fill-opacity="1" fill-rule="nonzero"/><path fill="#020000" d="M 152.46875 148.460938 C 153.59375 148.8125 154.089844 149.8125 154.324219 151.042969 C 154.570312 149.792969 155.035156 149.078125 156.171875 148.601562 C 155.703125 148.453125 154.964844 147.667969 154.816406 147.429688 C 154.464844 146.855469 154.429688 146.289062 154.34375 145.65625 C 154.058594 146.832031 153.714844 147.917969 152.46875 148.460938 Z M 152.46875 148.460938 " fill-opacity="1" fill-rule="nonzero"/><path fill="#020000" d="M 138.046875 59.503906 C 139.175781 59.855469 139.667969 60.855469 139.902344 62.085938 C 140.148438 60.835938 140.617188 60.121094 141.75 59.644531 C 141.28125 59.496094 140.542969 58.710938 140.398438 58.472656 C 140.042969 57.898438 140.007812 57.332031 139.925781 56.691406 C 139.640625 57.875 139.292969 58.960938 138.046875 59.503906 Z M 138.046875 59.503906 " fill-opacity="1" fill-rule="nonzero"/><path fill="#020000" d="M 133.324219 24.488281 C 134.453125 24.839844 134.945312 25.839844 135.179688 27.066406 C 135.425781 25.816406 135.894531 25.101562 137.027344 24.625 C 136.558594 24.480469 135.820312 23.695312 135.675781 23.457031 C 135.320312 22.878906 135.285156 22.316406 135.199219 21.671875 C 134.914062 22.859375 134.570312 23.941406 133.324219 24.488281 Z M 133.324219 24.488281 " fill-opacity="1" fill-rule="nonzero"/><path fill="#020000" d="M 91.210938 68.9375 C 91.210938 69.113281 91.148438 69.269531 91.019531 69.394531 C 90.894531 69.519531 90.742188 69.585938 90.5625 69.585938 C 90.382812 69.585938 90.230469 69.519531 90.101562 69.394531 C 89.976562 69.269531 89.910156 69.113281 89.910156 68.9375 C 89.910156 68.757812 89.976562 68.605469 90.101562 68.476562 C 90.230469 68.351562 90.382812 68.289062 90.5625 68.289062 C 90.742188 68.289062 90.894531 68.351562 91.019531 68.476562 C 91.148438 68.605469 91.210938 68.757812 91.210938 68.9375 Z M 91.210938 68.9375 " fill-opacity="1" fill-rule="nonzero"/><path fill="#020000" d="M 48.082031 66.515625 C 48.082031 66.691406 48.019531 66.847656 47.890625 66.972656 C 47.765625 67.097656 47.613281 67.164062 47.433594 67.164062 C 47.253906 67.164062 47.101562 67.097656 46.972656 66.972656 C 46.847656 66.847656 46.785156 66.691406 46.785156 66.515625 C 46.785156 66.335938 46.847656 66.183594 46.972656 66.054688 C 47.101562 65.929688 47.253906 65.867188 47.433594 65.867188 C 47.613281 65.867188 47.765625 65.929688 47.890625 66.054688 C 48.019531 66.183594 48.082031 66.335938 48.082031 66.515625 Z M 48.082031 66.515625 " fill-opacity="1" fill-rule="nonzero"/><path fill="#020000" d="M 97.269531 65.535156 C 97.269531 65.714844 97.207031 65.867188 97.078125 65.992188 C 96.953125 66.121094 96.796875 66.183594 96.617188 66.183594 C 96.441406 66.183594 96.285156 66.121094 96.160156 65.992188 C 96.03125 65.867188 95.96875 65.714844 95.96875 65.535156 C 95.96875 65.355469 96.03125 65.203125 96.160156 65.078125 C 96.285156 64.949219 96.441406 64.886719 96.617188 64.886719 C 96.796875 64.886719 96.953125 64.949219 97.078125 65.078125 C 97.207031 65.203125 97.269531 65.355469 97.269531 65.535156 Z M 97.269531 65.535156 " fill-opacity="1" fill-rule="nonzero"/><path fill="#020000" d="M 47.828125 85.570312 C 47.828125 85.75 47.765625 85.902344 47.636719 86.03125 C 47.511719 86.15625 47.359375 86.21875 47.179688 86.21875 C 47 86.21875 46.847656 86.15625 46.71875 86.03125 C 46.59375 85.902344 46.527344 85.75 46.527344 85.570312 C 46.527344 85.394531 46.59375 85.242188 46.71875 85.113281 C 46.847656 84.988281 47 84.925781 47.179688 84.925781 C 47.359375 84.925781 47.511719 84.988281 47.636719 85.113281 C 47.765625 85.242188 47.828125 85.394531 47.828125 85.570312 Z M 47.828125 85.570312 " fill-opacity="1" fill-rule="nonzero"/><path fill="#020000" d="M 47.3125 141.105469 C 47.3125 141.285156 47.246094 141.4375 47.121094 141.5625 C 46.996094 141.691406 46.839844 141.753906 46.660156 141.753906 C 46.480469 141.753906 46.328125 141.691406 46.203125 141.5625 C 46.074219 141.4375 46.011719 141.285156 46.011719 141.105469 C 46.011719 140.925781 46.074219 140.773438 46.203125 140.648438 C 46.328125 140.519531 46.480469 140.457031 46.660156 140.457031 C 46.839844 140.457031 46.996094 140.519531 47.121094 140.648438 C 47.246094 140.773438 47.3125 140.925781 47.3125 141.105469 Z M 47.3125 141.105469 " fill-opacity="1" fill-rule="nonzero"/><path fill="#020000" d="M 52.460938 106.195312 C 52.460938 106.375 52.394531 106.527344 52.269531 106.652344 C 52.140625 106.78125 51.988281 106.84375 51.808594 106.84375 C 51.628906 106.84375 51.476562 106.78125 51.351562 106.652344 C 51.222656 106.527344 51.160156 106.375 51.160156 106.195312 C 51.160156 106.015625 51.222656 105.863281 51.351562 105.738281 C 51.476562 105.609375 51.628906 105.546875 51.808594 105.546875 C 51.988281 105.546875 52.140625 105.609375 52.269531 105.738281 C 52.394531 105.863281 52.460938 106.015625 52.460938 106.195312 Z M 52.460938 106.195312 " fill-opacity="1" fill-rule="nonzero"/><path fill="#020000" d="M 50.785156 165.367188 C 50.785156 165.546875 50.722656 165.699219 50.59375 165.828125 C 50.46875 165.953125 50.3125 166.015625 50.136719 166.015625 C 49.957031 166.015625 49.800781 165.953125 49.675781 165.828125 C 49.550781 165.699219 49.484375 165.546875 49.484375 165.367188 C 49.484375 165.191406 49.550781 165.035156 49.675781 164.910156 C 49.800781 164.785156 49.957031 164.71875 50.136719 164.71875 C 50.3125 164.71875 50.46875 164.785156 50.59375 164.910156 C 50.722656 165.035156 50.785156 165.191406 50.785156 165.367188 Z M 50.785156 165.367188 " fill-opacity="1" fill-rule="nonzero"/><path fill="#020000" d="M 58.503906 154.96875 C 58.503906 155.148438 58.4375 155.300781 58.3125 155.429688 C 58.183594 155.554688 58.03125 155.617188 57.851562 155.617188 C 57.671875 155.617188 57.519531 155.554688 57.394531 155.429688 C 57.265625 155.300781 57.203125 155.148438 57.203125 154.96875 C 57.203125 154.792969 57.265625 154.640625 57.394531 154.511719 C 57.519531 154.386719 57.671875 154.324219 57.851562 154.324219 C 58.03125 154.324219 58.183594 154.386719 58.3125 154.511719 C 58.4375 154.640625 58.503906 154.792969 58.503906 154.96875 Z M 58.503906 154.96875 " fill-opacity="1" fill-rule="nonzero"/><path fill="#020000" d="M 61.167969 93.386719 C 61.167969 93.566406 61.105469 93.71875 60.976562 93.847656 C 60.851562 93.972656 60.699219 94.035156 60.519531 94.035156 C 60.339844 94.035156 60.1875 93.972656 60.058594 93.847656 C 59.933594 93.71875 59.871094 93.566406 59.871094 93.386719 C 59.871094 93.210938 59.933594 93.058594 60.058594 92.929688 C 60.1875 92.804688 60.339844 92.742188 60.519531 92.742188 C 60.699219 92.742188 60.851562 92.804688 60.976562 92.929688 C 61.105469 93.058594 61.167969 93.210938 61.167969 93.386719 Z M 61.167969 93.386719 " fill-opacity="1" fill-rule="nonzero"/><path fill="#020000" d="M 58.886719 70.242188 C 58.886719 70.421875 58.824219 70.574219 58.699219 70.703125 C 58.570312 70.828125 58.417969 70.890625 58.238281 70.890625 C 58.058594 70.890625 57.90625 70.828125 57.777344 70.703125 C 57.652344 70.574219 57.589844 70.421875 57.589844 70.242188 C 57.589844 70.066406 57.652344 69.910156 57.777344 69.785156 C 57.90625 69.660156 58.058594 69.59375 58.238281 69.59375 C 58.417969 69.59375 58.570312 69.660156 58.699219 69.785156 C 58.824219 69.910156 58.886719 70.066406 58.886719 70.242188 Z M 58.886719 70.242188 " fill-opacity="1" fill-rule="nonzero"/><path fill="#020000" d="M 159.636719 60.46875 C 159.636719 60.644531 159.574219 60.800781 159.449219 60.925781 C 159.320312 61.050781 159.167969 61.117188 158.988281 61.117188 C 158.808594 61.117188 158.65625 61.050781 158.527344 60.925781 C 158.402344 60.800781 158.339844 60.644531 158.339844 60.46875 C 158.339844 60.289062 158.402344 60.136719 158.527344 60.007812 C 158.65625 59.882812 158.808594 59.820312 158.988281 59.820312 C 159.167969 59.820312 159.320312 59.882812 159.449219 60.007812 C 159.574219 60.136719 159.636719 60.289062 159.636719 60.46875 Z M 159.636719 60.46875 " fill-opacity="1" fill-rule="nonzero"/><path fill="#020000" d="M 176.714844 106.828125 C 176.714844 107.007812 176.652344 107.160156 176.527344 107.289062 C 176.398438 107.414062 176.246094 107.476562 176.066406 107.476562 C 175.886719 107.476562 175.734375 107.414062 175.605469 107.289062 C 175.480469 107.160156 175.417969 107.007812 175.417969 106.828125 C 175.417969 106.652344 175.480469 106.5 175.605469 106.371094 C 175.734375 106.246094 175.886719 106.183594 176.066406 106.183594 C 176.246094 106.183594 176.398438 106.246094 176.527344 106.371094 C 176.652344 106.5 176.714844 106.652344 176.714844 106.828125 Z M 176.714844 106.828125 " fill-opacity="1" fill-rule="nonzero"/><path fill="#020000" d="M 164.574219 98.523438 C 164.574219 98.703125 164.511719 98.855469 164.382812 98.980469 C 164.257812 99.105469 164.105469 99.171875 163.925781 99.171875 C 163.746094 99.171875 163.59375 99.105469 163.464844 98.980469 C 163.339844 98.855469 163.273438 98.703125 163.273438 98.523438 C 163.273438 98.34375 163.339844 98.191406 163.464844 98.0625 C 163.59375 97.9375 163.746094 97.875 163.925781 97.875 C 164.105469 97.875 164.257812 97.9375 164.382812 98.0625 C 164.511719 98.191406 164.574219 98.34375 164.574219 98.523438 Z M 164.574219 98.523438 " fill-opacity="1" fill-rule="nonzero"/><path fill="#020000" d="M 130.011719 76.074219 C 130.011719 76.253906 129.949219 76.40625 129.820312 76.53125 C 129.695312 76.660156 129.542969 76.722656 129.363281 76.722656 C 129.183594 76.722656 129.03125 76.660156 128.902344 76.53125 C 128.777344 76.40625 128.710938 76.253906 128.710938 76.074219 C 128.710938 75.894531 128.777344 75.742188 128.902344 75.617188 C 129.03125 75.488281 129.183594 75.425781 129.363281 75.425781 C 129.542969 75.425781 129.695312 75.488281 129.820312 75.617188 C 129.949219 75.742188 130.011719 75.894531 130.011719 76.074219 Z M 130.011719 76.074219 " fill-opacity="1" fill-rule="nonzero"/><path fill="#020000" d="M 149.761719 135.765625 C 149.761719 135.945312 149.699219 136.097656 149.574219 136.226562 C 149.445312 136.351562 149.292969 136.414062 149.113281 136.414062 C 148.933594 136.414062 148.78125 136.351562 148.652344 136.226562 C 148.527344 136.097656 148.464844 135.945312 148.464844 135.765625 C 148.464844 135.585938 148.527344 135.433594 148.652344 135.308594 C 148.78125 135.179688 148.933594 135.117188 149.113281 135.117188 C 149.292969 135.117188 149.445312 135.179688 149.574219 135.308594 C 149.699219 135.433594 149.761719 135.585938 149.761719 135.765625 Z M 149.761719 135.765625 " fill-opacity="1" fill-rule="nonzero"/><path fill="#020000" d="M 153.824219 47.644531 C 153.824219 47.820312 153.761719 47.976562 153.632812 48.101562 C 153.507812 48.226562 153.355469 48.292969 153.175781 48.292969 C 152.996094 48.292969 152.839844 48.226562 152.714844 48.101562 C 152.589844 47.976562 152.523438 47.820312 152.523438 47.644531 C 152.523438 47.464844 152.589844 47.3125 152.714844 47.183594 C 152.839844 47.058594 152.996094 46.996094 153.175781 46.996094 C 153.355469 46.996094 153.507812 47.058594 153.632812 47.183594 C 153.761719 47.3125 153.824219 47.464844 153.824219 47.644531 Z M 153.824219 47.644531 " fill-opacity="1" fill-rule="nonzero"/><path fill="#020000" d="M 117.375 76.871094 C 117.375 77.050781 117.308594 77.203125 117.183594 77.332031 C 117.058594 77.457031 116.902344 77.519531 116.722656 77.519531 C 116.542969 77.519531 116.390625 77.457031 116.265625 77.332031 C 116.136719 77.203125 116.074219 77.050781 116.074219 76.871094 C 116.074219 76.695312 116.136719 76.539062 116.265625 76.414062 C 116.390625 76.289062 116.542969 76.222656 116.722656 76.222656 C 116.902344 76.222656 117.058594 76.289062 117.183594 76.414062 C 117.308594 76.539062 117.375 76.695312 117.375 76.871094 Z M 117.375 76.871094 " fill-opacity="1" fill-rule="nonzero"/><path fill="#020000" d="M 168.875 50.480469 C 168.875 50.660156 168.8125 50.8125 168.683594 50.9375 C 168.558594 51.066406 168.40625 51.128906 168.226562 51.128906 C 168.046875 51.128906 167.894531 51.066406 167.765625 50.9375 C 167.640625 50.8125 167.574219 50.660156 167.574219 50.480469 C 167.574219 50.300781 167.640625 50.148438 167.765625 50.023438 C 167.894531 49.894531 168.046875 49.832031 168.226562 49.832031 C 168.40625 49.832031 168.558594 49.894531 168.683594 50.023438 C 168.8125 50.148438 168.875 50.300781 168.875 50.480469 Z M 168.875 50.480469 " fill-opacity="1" fill-rule="nonzero"/><path fill="#020000" d="M 177.496094 78.636719 C 177.496094 78.816406 177.433594 78.96875 177.304688 79.09375 C 177.179688 79.222656 177.023438 79.285156 176.84375 79.285156 C 176.667969 79.285156 176.511719 79.222656 176.386719 79.09375 C 176.257812 78.96875 176.195312 78.816406 176.195312 78.636719 C 176.195312 78.457031 176.257812 78.304688 176.386719 78.179688 C 176.511719 78.050781 176.667969 77.988281 176.84375 77.988281 C 177.023438 77.988281 177.179688 78.050781 177.304688 78.179688 C 177.433594 78.304688 177.496094 78.457031 177.496094 78.636719 Z M 177.496094 78.636719 " fill-opacity="1" fill-rule="nonzero"/><path fill="#020000" d="M 128.359375 67.90625 C 128.359375 68.082031 128.292969 68.238281 128.167969 68.363281 C 128.042969 68.488281 127.886719 68.554688 127.707031 68.554688 C 127.53125 68.554688 127.375 68.488281 127.25 68.363281 C 127.121094 68.238281 127.058594 68.082031 127.058594 67.90625 C 127.058594 67.726562 127.121094 67.574219 127.25 67.445312 C 127.375 67.320312 127.53125 67.257812 127.707031 67.257812 C 127.886719 67.257812 128.042969 67.320312 128.167969 67.445312 C 128.292969 67.574219 128.359375 67.726562 128.359375 67.90625 Z M 128.359375 67.90625 " fill-opacity="1" fill-rule="nonzero"/><path fill="#020000" d="M 175.996094 158.496094 C 175.996094 158.675781 175.933594 158.828125 175.804688 158.957031 C 175.679688 159.082031 175.523438 159.144531 175.34375 159.144531 C 175.167969 159.144531 175.011719 159.082031 174.886719 158.957031 C 174.757812 158.828125 174.695312 158.675781 174.695312 158.496094 C 174.695312 158.320312 174.757812 158.167969 174.886719 158.039062 C 175.011719 157.914062 175.167969 157.851562 175.34375 157.851562 C 175.523438 157.851562 175.679688 157.914062 175.804688 158.039062 C 175.933594 158.167969 175.996094 158.320312 175.996094 158.496094 Z M 175.996094 158.496094 " fill-opacity="1" fill-rule="nonzero"/><path fill="#020000" d="M 168.398438 130.039062 C 168.398438 130.21875 168.335938 130.371094 168.207031 130.496094 C 168.082031 130.625 167.929688 130.6875 167.75 130.6875 C 167.570312 130.6875 167.417969 130.625 167.289062 130.496094 C 167.164062 130.371094 167.101562 130.21875 167.101562 130.039062 C 167.101562 129.859375 167.164062 129.707031 167.289062 129.582031 C 167.417969 129.453125 167.570312 129.390625 167.75 129.390625 C 167.929688 129.390625 168.082031 129.453125 168.207031 129.582031 C 168.335938 129.707031 168.398438 129.859375 168.398438 130.039062 Z M 168.398438 130.039062 " fill-opacity="1" fill-rule="nonzero"/><path fill="#020000" d="M 163.433594 167.855469 C 163.433594 168.035156 163.371094 168.1875 163.246094 168.316406 C 163.117188 168.441406 162.964844 168.503906 162.785156 168.503906 C 162.605469 168.503906 162.453125 168.441406 162.328125 168.316406 C 162.199219 168.1875 162.136719 168.035156 162.136719 167.855469 C 162.136719 167.675781 162.199219 167.523438 162.328125 167.398438 C 162.453125 167.273438 162.605469 167.207031 162.785156 167.207031 C 162.964844 167.207031 163.117188 167.273438 163.246094 167.398438 C 163.371094 167.523438 163.433594 167.675781 163.433594 167.855469 Z M 163.433594 167.855469 " fill-opacity="1" fill-rule="nonzero"/><path fill="#020000" d="M 99.410156 81.148438 C 99.410156 81.328125 99.347656 81.480469 99.21875 81.605469 C 99.09375 81.734375 98.941406 81.796875 98.761719 81.796875 C 98.582031 81.796875 98.429688 81.734375 98.300781 81.605469 C 98.175781 81.480469 98.109375 81.328125 98.109375 81.148438 C 98.109375 80.96875 98.175781 80.816406 98.300781 80.691406 C 98.429688 80.5625 98.582031 80.5 98.761719 80.5 C 98.941406 80.5 99.09375 80.5625 99.21875 80.691406 C 99.347656 80.816406 99.410156 80.96875 99.410156 81.148438 Z M 99.410156 81.148438 " fill-opacity="1" fill-rule="nonzero"/><path fill="#020000" d="M 137.996094 82.328125 C 137.996094 82.507812 137.929688 82.660156 137.804688 82.785156 C 137.675781 82.914062 137.523438 82.976562 137.34375 82.976562 C 137.164062 82.976562 137.011719 82.914062 136.886719 82.785156 C 136.757812 82.660156 136.695312 82.507812 136.695312 82.328125 C 136.695312 82.148438 136.757812 81.996094 136.886719 81.871094 C 137.011719 81.742188 137.164062 81.679688 137.34375 81.679688 C 137.523438 81.679688 137.675781 81.742188 137.804688 81.871094 C 137.929688 81.996094 137.996094 82.148438 137.996094 82.328125 Z M 137.996094 82.328125 " fill-opacity="1" fill-rule="nonzero"/><path fill="#020000" d="M 134.527344 40.324219 C 134.527344 40.503906 134.464844 40.65625 134.335938 40.785156 C 134.210938 40.910156 134.058594 40.972656 133.878906 40.972656 C 133.699219 40.972656 133.546875 40.910156 133.417969 40.785156 C 133.292969 40.65625 133.230469 40.503906 133.230469 40.324219 C 133.230469 40.148438 133.292969 39.996094 133.417969 39.867188 C 133.546875 39.742188 133.699219 39.679688 133.878906 39.679688 C 134.058594 39.679688 134.210938 39.742188 134.335938 39.867188 C 134.464844 39.996094 134.527344 40.148438 134.527344 40.324219 Z M 134.527344 40.324219 " fill-opacity="1" fill-rule="nonzero"/><path fill="#020000" d="M 156.910156 37.507812 C 156.910156 37.6875 156.847656 37.839844 156.722656 37.964844 C 156.59375 38.09375 156.441406 38.15625 156.261719 38.15625 C 156.082031 38.15625 155.929688 38.09375 155.800781 37.964844 C 155.675781 37.839844 155.613281 37.6875 155.613281 37.507812 C 155.613281 37.328125 155.675781 37.175781 155.800781 37.050781 C 155.929688 36.921875 156.082031 36.859375 156.261719 36.859375 C 156.441406 36.859375 156.59375 36.921875 156.722656 37.050781 C 156.847656 37.175781 156.910156 37.328125 156.910156 37.507812 Z M 156.910156 37.507812 " fill-opacity="1" fill-rule="nonzero"/><path fill="#020000" d="M 90.640625 56.089844 C 90.640625 56.265625 90.578125 56.421875 90.453125 56.546875 C 90.324219 56.671875 90.171875 56.738281 89.992188 56.738281 C 89.8125 56.738281 89.660156 56.671875 89.535156 56.546875 C 89.40625 56.421875 89.34375 56.265625 89.34375 56.089844 C 89.34375 55.910156 89.40625 55.757812 89.535156 55.628906 C 89.660156 55.503906 89.8125 55.441406 89.992188 55.441406 C 90.171875 55.441406 90.324219 55.503906 90.453125 55.628906 C 90.578125 55.757812 90.640625 55.910156 90.640625 56.089844 Z M 90.640625 56.089844 " fill-opacity="1" fill-rule="nonzero"/><path fill="#020000" d="M 83.710938 25.183594 C 83.710938 25.363281 83.644531 25.515625 83.519531 25.640625 C 83.390625 25.769531 83.238281 25.832031 83.058594 25.832031 C 82.878906 25.832031 82.726562 25.769531 82.601562 25.640625 C 82.472656 25.515625 82.410156 25.363281 82.410156 25.183594 C 82.410156 25.003906 82.472656 24.851562 82.601562 24.722656 C 82.726562 24.597656 82.878906 24.535156 83.058594 24.535156 C 83.238281 24.535156 83.390625 24.597656 83.519531 24.722656 C 83.644531 24.851562 83.710938 25.003906 83.710938 25.183594 Z M 83.710938 25.183594 " fill-opacity="1" fill-rule="nonzero"/><path fill="#020000" d="M 61.710938 38.277344 C 61.710938 38.457031 61.648438 38.609375 61.519531 38.734375 C 61.394531 38.863281 61.242188 38.925781 61.0625 38.925781 C 60.882812 38.925781 60.730469 38.863281 60.601562 38.734375 C 60.476562 38.609375 60.414062 38.457031 60.414062 38.277344 C 60.414062 38.097656 60.476562 37.945312 60.601562 37.820312 C 60.730469 37.691406 60.882812 37.628906 61.0625 37.628906 C 61.242188 37.628906 61.394531 37.691406 61.519531 37.820312 C 61.648438 37.945312 61.710938 38.097656 61.710938 38.277344 Z M 61.710938 38.277344 " fill-opacity="1" fill-rule="nonzero"/><path fill="#020000" d="M 75.0625 91.664062 C 75.0625 91.84375 75 91.996094 74.875 92.125 C 74.746094 92.25 74.59375 92.3125 74.414062 92.3125 C 74.234375 92.3125 74.082031 92.25 73.957031 92.125 C 73.828125 91.996094 73.765625 91.84375 73.765625 91.664062 C 73.765625 91.484375 73.828125 91.332031 73.957031 91.207031 C 74.082031 91.082031 74.234375 91.015625 74.414062 91.015625 C 74.59375 91.015625 74.746094 91.082031 74.875 91.207031 C 75 91.332031 75.0625 91.484375 75.0625 91.664062 Z M 75.0625 91.664062 " fill-opacity="1" fill-rule="nonzero"/><path fill="#020000" d="M 80.925781 41.339844 C 80.925781 41.515625 80.863281 41.671875 80.734375 41.796875 C 80.609375 41.921875 80.453125 41.988281 80.277344 41.988281 C 80.097656 41.988281 79.941406 41.921875 79.816406 41.796875 C 79.691406 41.671875 79.625 41.515625 79.625 41.339844 C 79.625 41.160156 79.691406 41.007812 79.816406 40.878906 C 79.941406 40.753906 80.097656 40.691406 80.277344 40.691406 C 80.453125 40.691406 80.609375 40.753906 80.734375 40.878906 C 80.863281 41.007812 80.925781 41.160156 80.925781 41.339844 Z M 80.925781 41.339844 " fill-opacity="1" fill-rule="nonzero"/><path fill="#020000" d="M 114.199219 14.015625 C 114.199219 14.195312 114.132812 14.347656 114.007812 14.472656 C 113.878906 14.601562 113.726562 14.664062 113.546875 14.664062 C 113.367188 14.664062 113.214844 14.601562 113.089844 14.472656 C 112.960938 14.347656 112.898438 14.195312 112.898438 14.015625 C 112.898438 13.835938 112.960938 13.683594 113.089844 13.554688 C 113.214844 13.429688 113.367188 13.367188 113.546875 13.367188 C 113.726562 13.367188 113.878906 13.429688 114.007812 13.554688 C 114.132812 13.683594 114.199219 13.835938 114.199219 14.015625 Z M 114.199219 14.015625 " fill-opacity="1" fill-rule="nonzero"/><path fill="#020000" d="M 104.839844 29.859375 C 104.839844 30.039062 104.777344 30.191406 104.648438 30.316406 C 104.523438 30.445312 104.371094 30.507812 104.191406 30.507812 C 104.011719 30.507812 103.859375 30.445312 103.730469 30.316406 C 103.605469 30.191406 103.539062 30.039062 103.539062 29.859375 C 103.539062 29.679688 103.605469 29.527344 103.730469 29.402344 C 103.859375 29.273438 104.011719 29.210938 104.191406 29.210938 C 104.371094 29.210938 104.523438 29.273438 104.648438 29.402344 C 104.777344 29.527344 104.839844 29.679688 104.839844 29.859375 Z M 104.839844 29.859375 " fill-opacity="1" fill-rule="nonzero"/><path fill="#020000" d="M 110.363281 22.273438 C 110.363281 22.453125 110.300781 22.605469 110.171875 22.730469 C 110.046875 22.855469 109.894531 22.921875 109.714844 22.921875 C 109.535156 22.921875 109.382812 22.855469 109.253906 22.730469 C 109.128906 22.605469 109.0625 22.453125 109.0625 22.273438 C 109.0625 22.09375 109.128906 21.941406 109.253906 21.8125 C 109.382812 21.6875 109.535156 21.625 109.714844 21.625 C 109.894531 21.625 110.046875 21.6875 110.171875 21.8125 C 110.300781 21.941406 110.363281 22.09375 110.363281 22.273438 Z M 110.363281 22.273438 " fill-opacity="1" fill-rule="nonzero"/><path fill="#020000" d="M 119.433594 30.730469 C 119.433594 30.910156 119.367188 31.0625 119.242188 31.191406 C 119.113281 31.316406 118.960938 31.378906 118.78125 31.378906 C 118.601562 31.378906 118.449219 31.316406 118.324219 31.191406 C 118.195312 31.0625 118.132812 30.910156 118.132812 30.730469 C 118.132812 30.550781 118.195312 30.398438 118.324219 30.273438 C 118.449219 30.144531 118.601562 30.082031 118.78125 30.082031 C 118.960938 30.082031 119.113281 30.144531 119.242188 30.273438 C 119.367188 30.398438 119.433594 30.550781 119.433594 30.730469 Z M 119.433594 30.730469 " fill-opacity="1" fill-rule="nonzero"/><path fill="#020000" d="M 125.210938 47.355469 C 124.464844 45.71875 122.996094 44.734375 121.179688 44.652344 C 118.6875 44.535156 116.617188 46.492188 115.746094 48.355469 C 113.910156 52.277344 113.421875 55.414062 112.855469 59.042969 C 112.753906 59.6875 112.652344 60.335938 112.542969 61.007812 C 112.429688 60.335938 112.328125 59.6875 112.226562 59.042969 C 111.660156 55.414062 111.171875 52.277344 109.335938 48.355469 C 108.464844 46.492188 106.386719 44.535156 103.902344 44.652344 C 102.085938 44.734375 100.621094 45.722656 99.871094 47.355469 C 99.039062 49.171875 99.304688 51.425781 100.527344 52.964844 C 100.59375 53.042969 100.675781 53.085938 100.78125 53.09375 C 100.882812 53.105469 100.972656 53.078125 101.050781 53.015625 C 101.132812 52.949219 101.179688 52.867188 101.195312 52.765625 C 101.207031 52.667969 101.183594 52.574219 101.125 52.492188 C 100.078125 51.171875 99.855469 49.234375 100.566406 47.671875 C 100.863281 47 101.316406 46.460938 101.921875 46.054688 C 102.53125 45.644531 103.203125 45.433594 103.9375 45.414062 C 105.988281 45.320312 107.851562 46.988281 108.644531 48.679688 C 110.429688 52.5 110.914062 55.585938 111.46875 59.160156 C 111.667969 60.433594 111.882812 61.753906 112.15625 63.175781 C 112.136719 63.277344 112.160156 63.367188 112.21875 63.453125 C 112.277344 63.535156 112.355469 63.589844 112.457031 63.609375 C 112.480469 63.613281 112.503906 63.617188 112.53125 63.617188 L 112.554688 63.617188 C 112.578125 63.617188 112.605469 63.613281 112.628906 63.609375 C 112.730469 63.589844 112.808594 63.535156 112.867188 63.453125 C 112.925781 63.367188 112.949219 63.277344 112.929688 63.175781 C 113.203125 61.75 113.414062 60.433594 113.613281 59.160156 C 114.171875 55.585938 114.652344 52.503906 116.441406 48.679688 C 117.234375 46.984375 119.109375 45.320312 121.148438 45.414062 C 121.878906 45.433594 122.550781 45.644531 123.160156 46.054688 C 123.769531 46.460938 124.222656 47 124.515625 47.671875 C 125.230469 49.234375 125.007812 51.171875 123.960938 52.492188 C 123.894531 52.574219 123.867188 52.667969 123.878906 52.773438 C 123.890625 52.878906 123.9375 52.960938 124.023438 53.027344 C 124.105469 53.09375 124.199219 53.121094 124.304688 53.109375 C 124.410156 53.097656 124.492188 53.046875 124.558594 52.964844 C 125.773438 51.425781 126.046875 49.171875 125.210938 47.355469 Z M 125.210938 47.355469 " fill-opacity="1" fill-rule="nonzero"/></svg>