<svg xmlns="http://www.w3.org/2000/svg" xmlns:xlink="http://www.w3.org/1999/xlink" width="300" zoomAndPan="magnify" viewBox="0 0 224.87999 225" height="300" preserveAspectRatio="xMidYMid meet" version="1.0"><defs><clipPath id="e913a37602"><path d="M 96 115 L 155 115 L 155 215.234375 L 96 215.234375 Z M 96 115 " clip-rule="nonzero"/></clipPath><clipPath id="189916dd67"><path d="M 44 102 L 112 102 L 112 215.234375 L 44 215.234375 Z M 44 102 " clip-rule="nonzero"/></clipPath><clipPath id="9e85702ad1"><path d="M 149 146 L 179 146 L 179 215.234375 L 149 215.234375 Z M 149 146 " clip-rule="nonzero"/></clipPath><clipPath id="8a5c89d4f8"><path d="M 40.582031 9.84375 L 184.503906 9.84375 L 184.503906 215.234375 L 40.582031 215.234375 Z M 40.582031 9.84375 " clip-rule="nonzero"/></clipPath></defs><path fill="#020000" d="M 123.300781 136.683594 C 123.160156 137.285156 122.824219 137.734375 122.28125 138.027344 C 121.84375 138.277344 121.375 138.402344 120.871094 138.402344 C 120.59375 138.402344 120.324219 138.363281 120.0625 138.28125 C 119.027344 137.949219 118.132812 137.078125 117.410156 135.703125 C 116.917969 134.765625 116.570312 133.78125 116.363281 132.746094 C 116.542969 132.609375 116.722656 132.476562 116.902344 132.339844 C 117.085938 133.421875 117.429688 134.453125 117.941406 135.425781 C 118.589844 136.660156 119.363281 137.429688 120.242188 137.710938 C 120.847656 137.894531 121.421875 137.828125 121.972656 137.515625 C 122.359375 137.308594 122.601562 136.992188 122.703125 136.566406 C 122.71875 136.484375 122.761719 136.417969 122.832031 136.375 C 122.902344 136.328125 122.980469 136.316406 123.0625 136.332031 C 123.140625 136.347656 123.207031 136.390625 123.253906 136.460938 C 123.296875 136.527344 123.3125 136.601562 123.300781 136.683594 Z M 123.300781 136.683594 " fill-opacity="1" fill-rule="nonzero"/><g clip-path="url(#e913a37602)"><path fill="#020000" d="M 152.898438 133.289062 C 152.5625 133.992188 152.164062 134.660156 151.707031 135.292969 C 151.226562 136.003906 150.722656 136.746094 150.40625 137.578125 C 149.792969 139.207031 149.597656 140.882812 149.8125 142.609375 C 149.851562 142.902344 149.90625 143.203125 149.957031 143.492188 C 150.101562 144.339844 150.253906 145.21875 150.117188 146.097656 C 150.105469 146.164062 150.089844 146.230469 150.070312 146.296875 C 150.0625 146.328125 150.050781 146.359375 150.039062 146.390625 C 149.953125 146.640625 149.8125 146.851562 149.621094 147.03125 C 149.167969 147.46875 148.484375 147.675781 147.859375 147.871094 C 147.632812 147.945312 147.410156 148.003906 147.214844 148.089844 C 147 148.164062 146.796875 148.265625 146.613281 148.398438 C 146.207031 148.722656 146.03125 149.296875 145.867188 149.855469 L 145.832031 149.96875 C 145.730469 150.355469 145.53125 150.683594 145.242188 150.960938 C 145.257812 150.929688 145.273438 150.898438 145.28125 150.867188 C 145.363281 150.53125 145.34375 150.207031 145.222656 149.886719 C 145.234375 149.855469 145.242188 149.828125 145.253906 149.804688 L 145.285156 149.691406 C 145.464844 149.070312 145.667969 148.371094 146.226562 147.933594 C 146.453125 147.757812 146.703125 147.621094 146.972656 147.527344 C 147.207031 147.441406 147.433594 147.367188 147.675781 147.292969 C 148.445312 147.050781 149.242188 146.804688 149.464844 146.183594 C 149.464844 146.175781 149.464844 146.167969 149.464844 146.160156 C 149.484375 146.109375 149.496094 146.058594 149.503906 146.003906 C 149.625 145.21875 149.492188 144.429688 149.347656 143.59375 C 149.296875 143.296875 149.242188 142.988281 149.203125 142.683594 C 148.972656 140.859375 149.179688 139.085938 149.828125 137.367188 C 150.167969 136.464844 150.691406 135.695312 151.195312 134.945312 C 151.625 134.308594 152.03125 133.714844 152.335938 133.039062 C 153.050781 131.433594 153.449219 129.75 153.53125 127.992188 C 153.613281 126.234375 153.371094 124.523438 152.804688 122.855469 C 152.4375 121.757812 151.949219 120.71875 151.34375 119.730469 C 151.34375 119.730469 151.34375 119.722656 151.34375 119.71875 C 150.457031 118.269531 149.386719 116.96875 148.136719 115.820312 C 146.015625 115.929688 144.140625 117.175781 142.933594 118.21875 C 142 119.023438 141.140625 119.964844 140.316406 120.875 C 139.601562 121.65625 138.863281 122.460938 138.070312 123.195312 C 134.820312 126.210938 130.835938 127.230469 126.988281 128.207031 C 123.867188 129 120.640625 129.820312 117.796875 131.703125 C 117.492188 131.902344 117.195312 132.105469 116.898438 132.328125 C 116.71875 132.464844 116.539062 132.597656 116.359375 132.734375 C 111.042969 136.824219 107.632812 142.847656 107.132812 149.152344 C 106.949219 151.476562 107.109375 153.871094 107.273438 156.1875 C 107.515625 159.632812 107.765625 163.195312 106.863281 166.597656 C 106 169.851562 104.140625 172.722656 102.347656 175.5 C 100.835938 177.835938 99.273438 180.253906 98.320312 182.875 C 97.074219 186.316406 96.894531 190.042969 97.121094 193.742188 C 97.1875 194.839844 97.289062 195.929688 97.414062 197.011719 C 97.457031 197.382812 97.5 197.753906 97.550781 198.125 C 97.636719 198.855469 97.734375 199.589844 97.832031 200.324219 C 98.40625 204.710938 99 209.242188 98.390625 213.6875 C 98.363281 213.871094 98.339844 214.058594 98.308594 214.238281 C 98.257812 214.566406 98.195312 214.894531 98.125 215.21875 L 97.507812 215.21875 C 97.578125 214.894531 97.640625 214.566406 97.691406 214.238281 C 97.730469 214.027344 97.761719 213.816406 97.792969 213.605469 C 98.390625 209.242188 97.804688 204.746094 97.230469 200.402344 C 97.136719 199.664062 97.042969 198.933594 96.949219 198.199219 C 96.9375 198.097656 96.921875 197.996094 96.914062 197.894531 C 96.644531 195.835938 96.488281 193.769531 96.441406 191.695312 C 96.390625 188.617188 96.710938 185.554688 97.757812 182.671875 C 98.730469 179.980469 100.3125 177.539062 101.84375 175.171875 C 103.617188 172.429688 105.445312 169.601562 106.285156 166.441406 C 107.164062 163.140625 106.917969 159.625 106.679688 156.222656 C 106.519531 153.882812 106.351562 151.464844 106.546875 149.09375 C 107.105469 142.054688 111.195312 135.363281 117.480469 131.1875 C 120.410156 129.242188 123.6875 128.410156 126.851562 127.601562 C 130.804688 126.597656 134.539062 125.648438 137.679688 122.734375 C 138.453125 122.015625 139.179688 121.222656 139.886719 120.449219 C 140.726562 119.527344 141.59375 118.578125 142.558594 117.742188 C 143.859375 116.617188 145.90625 115.261719 148.253906 115.1875 C 148.273438 115.183594 148.296875 115.183594 148.316406 115.1875 L 148.363281 115.199219 C 148.382812 115.207031 148.402344 115.214844 148.421875 115.226562 C 148.4375 115.234375 148.453125 115.246094 148.464844 115.261719 C 148.472656 115.265625 148.480469 115.269531 148.484375 115.277344 C 148.484375 115.277344 148.484375 115.277344 148.484375 115.289062 C 149.707031 116.394531 150.765625 117.644531 151.65625 119.03125 C 151.726562 119.140625 151.800781 119.257812 151.871094 119.375 C 151.910156 119.4375 151.949219 119.507812 151.984375 119.570312 C 152.5625 120.539062 153.03125 121.5625 153.394531 122.628906 C 153.988281 124.375 154.242188 126.167969 154.15625 128.007812 C 154.070312 129.847656 153.648438 131.609375 152.898438 133.289062 Z M 152.898438 133.289062 " fill-opacity="1" fill-rule="nonzero"/></g><g clip-path="url(#189916dd67)"><path fill="#020000" d="M 111.566406 102.328125 C 111.144531 102.617188 110.757812 102.890625 110.398438 103.160156 C 109.6875 103.699219 108.960938 104.300781 108.246094 104.953125 C 108.242188 104.957031 108.234375 104.960938 108.230469 104.964844 L 108.210938 104.980469 C 106.335938 106.707031 104.710938 108.640625 103.335938 110.785156 C 101.960938 112.929688 100.878906 115.210938 100.09375 117.636719 C 97.804688 124.710938 94.804688 132.714844 88.058594 138.078125 C 86.195312 139.558594 84.125 140.839844 82.113281 142.074219 C 78.441406 144.34375 74.640625 146.6875 72.214844 150.253906 C 68.910156 155.109375 68.769531 160.957031 68.621094 167.144531 C 68.523438 171.140625 68.417969 175.273438 67.382812 179.113281 C 65.753906 185.167969 61.898438 190.230469 57.851562 195.046875 C 57.582031 195.363281 57.328125 195.671875 57.058594 195.988281 C 56.703125 196.410156 56.34375 196.832031 55.984375 197.253906 C 55.332031 198.019531 54.683594 198.777344 54.039062 199.539062 C 48.835938 205.75 46.316406 210.503906 45.152344 214.253906 C 45.050781 214.589844 44.957031 214.917969 44.875 215.234375 L 44.289062 215.234375 C 44.371094 214.902344 44.460938 214.578125 44.558594 214.253906 C 46.265625 208.484375 50.097656 203.308594 53.582031 199.148438 C 54.222656 198.386719 54.875 197.621094 55.527344 196.863281 C 55.914062 196.414062 56.300781 195.960938 56.6875 195.5 C 56.894531 195.257812 57.101562 195.011719 57.308594 194.765625 C 61.339844 189.96875 65.195312 184.929688 66.800781 178.960938 C 67.816406 175.195312 67.917969 171.097656 68.015625 167.140625 C 68.164062 161.132812 68.316406 154.925781 71.71875 149.925781 C 74.214844 146.25 78.074219 143.875 81.796875 141.574219 C 83.789062 140.34375 85.851562 139.070312 87.679688 137.617188 C 94.300781 132.355469 97.265625 124.453125 99.523438 117.457031 C 101.082031 112.648438 103.683594 108.496094 107.332031 104.996094 C 107.496094 104.839844 107.660156 104.683594 107.824219 104.53125 L 107.929688 104.433594 C 108.632812 103.800781 109.339844 103.214844 110.039062 102.6875 C 110.316406 102.476562 110.617188 102.265625 110.925781 102.042969 C 111.144531 102.128906 111.351562 102.230469 111.566406 102.328125 Z M 111.566406 102.328125 " fill-opacity="1" fill-rule="nonzero"/></g><path fill="#020000" d="M 151.980469 119.609375 C 151.945312 119.542969 151.910156 119.472656 151.867188 119.410156 C 151.796875 119.296875 151.730469 119.183594 151.652344 119.066406 C 153.46875 116.9375 153.648438 114.203125 153.464844 112.246094 C 153.191406 109.585938 152.3125 107.136719 150.839844 104.902344 C 149.636719 103.136719 148.136719 101.675781 146.339844 100.515625 C 144.546875 99.359375 142.59375 98.597656 140.488281 98.230469 C 139.761719 98.113281 139.039062 97.980469 138.320312 97.855469 C 134.507812 97.171875 130.914062 96.527344 127.199219 97.222656 C 127.183594 97.222656 127.167969 97.222656 127.152344 97.222656 C 126.148438 97.257812 125.148438 97.34375 124.15625 97.484375 C 123.828125 97.328125 123.492188 97.179688 123.136719 97.03125 C 124.453125 96.808594 125.777344 96.671875 127.109375 96.628906 C 130.925781 95.917969 134.738281 96.597656 138.425781 97.257812 C 139.144531 97.394531 139.863281 97.515625 140.578125 97.636719 C 142.769531 98.015625 144.796875 98.808594 146.664062 100.011719 C 148.53125 101.214844 150.089844 102.734375 151.339844 104.566406 C 152.871094 106.886719 153.777344 109.425781 154.0625 112.1875 C 154.265625 114.3125 154.058594 117.308594 151.980469 119.609375 Z M 151.980469 119.609375 " fill-opacity="1" fill-rule="nonzero"/><g clip-path="url(#9e85702ad1)"><path fill="#020000" d="M 178.007812 215.234375 L 177.382812 215.234375 C 177.292969 214.902344 177.199219 214.578125 177.097656 214.253906 C 176.691406 212.851562 176.234375 211.464844 175.792969 210.105469 C 175.042969 207.800781 174.265625 205.414062 173.691406 203.015625 C 172.6875 198.835938 172.230469 194.398438 171.789062 190.113281 C 170.9375 181.886719 170.058594 173.382812 165.246094 166.691406 C 163.457031 164.203125 161.164062 162.0625 158.949219 159.988281 C 157.527344 158.65625 156.0625 157.285156 154.722656 155.820312 C 152.871094 153.800781 150.539062 150.679688 149.621094 147.03125 C 149.8125 146.851562 149.953125 146.636719 150.039062 146.386719 C 150.050781 146.355469 150.0625 146.324219 150.070312 146.292969 C 150.839844 150.070312 153.265625 153.335938 155.171875 155.417969 C 156.492188 156.859375 157.953125 158.222656 159.363281 159.542969 C 161.597656 161.636719 163.914062 163.804688 165.734375 166.339844 C 170.644531 173.15625 171.523438 181.746094 172.386719 190.050781 C 172.832031 194.316406 173.285156 198.734375 174.273438 202.875 C 174.84375 205.25 175.617188 207.621094 176.359375 209.917969 C 176.824219 211.335938 177.292969 212.785156 177.722656 214.25 C 177.824219 214.578125 177.917969 214.90625 178.007812 215.234375 Z M 178.007812 215.234375 " fill-opacity="1" fill-rule="nonzero"/></g><path fill="#020000" d="M 126.25 98.613281 C 125.574219 98.195312 124.875 97.816406 124.15625 97.480469 C 123.828125 97.328125 123.488281 97.179688 123.136719 97.03125 C 121.789062 96.472656 120.410156 95.996094 119.007812 95.597656 C 112.195312 93.636719 104.5625 93.75 98.589844 95.921875 C 92.855469 98.011719 88.292969 101.554688 84.230469 107.070312 C 81.742188 110.457031 79.652344 115.359375 79.136719 119 C 79.089844 119.347656 79.074219 119.746094 79.316406 120.058594 C 79.449219 120.234375 79.625 120.320312 79.84375 120.320312 L 79.886719 120.320312 C 81.082031 120.253906 83.441406 116.808594 85.210938 113.925781 L 85.230469 113.890625 C 88.90625 107.917969 93.617188 103.503906 98.847656 101.125 C 99.730469 100.75 100.652344 100.527344 101.609375 100.453125 C 102.011719 100.414062 102.429688 100.390625 102.863281 100.386719 C 105.664062 100.378906 108.351562 100.929688 110.925781 102.035156 C 111.144531 102.128906 111.355469 102.226562 111.566406 102.328125 C 112.828125 102.917969 113.960938 103.691406 114.96875 104.648438 C 115.4375 105.109375 115.875 105.597656 116.28125 106.113281 C 116.570312 106.480469 116.847656 106.867188 117.125 107.253906 C 117.183594 107.335938 117.246094 107.417969 117.304688 107.503906 C 118.371094 108.996094 119.472656 110.546875 121.132812 111.402344 C 121.847656 111.785156 122.609375 112.003906 123.417969 112.058594 C 124.226562 112.113281 125.011719 111.996094 125.769531 111.714844 C 127.558594 111.078125 129.097656 109.585938 129.890625 107.734375 C 130.300781 106.820312 130.515625 105.863281 130.53125 104.859375 C 130.53125 102.488281 129.097656 100.398438 126.25 98.613281 Z M 129.332031 107.5 C 128.605469 109.203125 127.195312 110.566406 125.5625 111.148438 C 124.882812 111.402344 124.179688 111.503906 123.457031 111.457031 C 122.734375 111.40625 122.050781 111.210938 121.410156 110.867188 C 119.875 110.074219 118.816406 108.582031 117.789062 107.148438 C 117.742188 107.082031 117.691406 107.015625 117.636719 106.941406 C 117.640625 106.9375 117.640625 106.933594 117.636719 106.929688 C 117.632812 106.914062 117.625 106.902344 117.613281 106.890625 C 117.34375 106.503906 117.050781 106.113281 116.757812 105.738281 C 116.335938 105.203125 115.878906 104.699219 115.390625 104.21875 C 114.382812 103.226562 113.101562 102.398438 111.691406 101.734375 C 111.667969 101.71875 111.640625 101.707031 111.613281 101.699219 C 108.839844 100.4375 105.929688 99.808594 102.882812 99.804688 L 102.679688 99.804688 C 101.09375 99.839844 99.675781 100.09375 98.601562 100.578125 C 93.261719 103 88.460938 107.5 84.722656 113.578125 L 84.703125 113.609375 C 82.144531 117.78125 80.425781 119.683594 79.859375 119.71875 C 79.835938 119.722656 79.816406 119.714844 79.800781 119.691406 C 79.695312 119.554688 79.714844 119.308594 79.742188 119.085938 C 80.242188 115.539062 82.292969 110.746094 84.722656 107.429688 C 88.710938 102.011719 93.183594 98.535156 98.800781 96.492188 C 101.878906 95.371094 105.414062 94.804688 109.042969 94.804688 C 112.375 94.808594 115.636719 95.269531 118.835938 96.191406 C 120.195312 96.574219 121.523438 97.03125 122.828125 97.566406 L 122.996094 97.636719 C 124.011719 98.058594 124.992188 98.558594 125.929688 99.136719 C 129.585938 101.414062 130.738281 104.230469 129.332031 107.503906 Z M 129.332031 107.5 " fill-opacity="1" fill-rule="nonzero"/><path fill="#020000" d="M 102.875 99.800781 L 102.671875 99.800781 C 102.742188 99.777344 102.808594 99.777344 102.875 99.800781 Z M 102.875 99.800781 " fill-opacity="1" fill-rule="nonzero"/><path fill="#020000" d="M 107.929688 104.429688 C 107.894531 104.460938 107.859375 104.488281 107.824219 104.523438 C 107.660156 104.675781 107.492188 104.832031 107.332031 104.988281 C 103.972656 104.84375 100.328125 106.609375 97.464844 109.808594 C 96.285156 111.128906 95.402344 112.566406 94.472656 114.085938 C 94.046875 114.773438 93.613281 115.484375 93.148438 116.175781 C 92.882812 116.582031 92.621094 117.023438 92.378906 117.445312 C 91.796875 118.441406 91.195312 119.476562 90.261719 120.277344 C 90.058594 120.449219 89.820312 120.613281 89.527344 120.613281 C 89.492188 120.613281 89.457031 120.613281 89.417969 120.605469 C 89.199219 120.574219 89.03125 120.46875 88.910156 120.28125 C 88.691406 119.964844 88.691406 119.507812 88.761719 119.214844 C 89.039062 118.085938 89.4375 117.089844 89.855469 116.027344 C 89.945312 115.8125 90.03125 115.59375 90.117188 115.375 C 91.347656 112.214844 92.945312 109.386719 94.851562 106.980469 C 95.523438 106.132812 96.164062 105.378906 96.804688 104.675781 C 98.445312 102.878906 99.992188 101.511719 101.605469 100.453125 C 102.011719 100.414062 102.429688 100.394531 102.863281 100.390625 C 100.953125 101.484375 99.167969 102.976562 97.253906 105.082031 C 96.617188 105.777344 95.988281 106.519531 95.324219 107.355469 C 93.453125 109.71875 91.890625 112.488281 90.679688 115.589844 C 90.59375 115.8125 90.503906 116.035156 90.417969 116.25 C 90.015625 117.289062 89.617188 118.265625 89.351562 119.355469 C 89.296875 119.558594 89.3125 119.753906 89.410156 119.945312 C 89.429688 119.984375 89.460938 120.003906 89.503906 120.007812 C 89.613281 120.019531 89.757812 119.914062 89.871094 119.816406 C 90.722656 119.085938 91.273438 118.140625 91.855469 117.140625 C 92.105469 116.710938 92.363281 116.265625 92.648438 115.84375 C 93.105469 115.160156 93.535156 114.453125 93.957031 113.769531 C 94.859375 112.292969 95.796875 110.765625 97.015625 109.410156 C 100.164062 105.890625 104.230469 104.039062 107.929688 104.429688 Z M 107.929688 104.429688 " fill-opacity="1" fill-rule="nonzero"/><path fill="#020000" d="M 145.226562 149.882812 C 145.15625 149.679688 145.042969 149.5 144.894531 149.34375 C 144.53125 148.996094 144.097656 148.816406 143.59375 148.804688 C 143.007812 148.773438 142.414062 148.902344 141.84375 149.027344 C 141.6875 149.058594 141.53125 149.09375 141.382812 149.121094 L 139.160156 149.542969 C 139.039062 149.566406 138.964844 149.632812 138.929688 149.75 C 138.894531 149.863281 138.917969 149.960938 139 150.046875 C 139.394531 150.449219 139.644531 151.003906 139.910156 151.582031 C 140.148438 152.101562 140.398438 152.640625 140.757812 153.089844 C 141.007812 153.40625 141.308594 153.660156 141.667969 153.839844 C 141.359375 154.195312 141.089844 154.578125 140.863281 154.992188 C 140.695312 155.257812 140.53125 155.527344 140.339844 155.789062 C 139.375 157.09375 137.109375 157.902344 134.640625 156.914062 C 132.621094 156.109375 131.015625 154.386719 129.601562 152.871094 C 128.988281 152.214844 128.011719 152.839844 127.363281 153.25 L 127.199219 153.359375 C 125.023438 154.71875 123.359375 156.542969 122.203125 158.835938 C 122.039062 159.15625 121.84375 159.460938 121.652344 159.757812 C 121.257812 160.375 120.84375 161.011719 120.699219 161.839844 C 119.9375 166.109375 125.734375 167.285156 129.570312 168.066406 C 130.332031 168.222656 130.996094 168.355469 131.511719 168.5 C 132.152344 168.671875 132.792969 168.796875 133.410156 168.914062 C 134.90625 169.207031 136.320312 169.484375 137.601562 170.421875 C 139.199219 171.589844 140.476562 173.363281 141.203125 175.414062 C 142.042969 177.800781 141.996094 180.101562 141.953125 182.53125 C 141.9375 183.339844 141.917969 184.167969 141.9375 185.011719 L 141.957031 186 C 142.011719 188.464844 142.066406 190.796875 141.996094 193.261719 C 141.800781 200.253906 142.375 207.183594 143.710938 214.050781 C 143.726562 214.136719 143.773438 214.203125 143.84375 214.25 C 143.890625 214.277344 143.945312 214.292969 144 214.292969 C 144.019531 214.296875 144.039062 214.296875 144.058594 214.292969 C 144.140625 214.277344 144.203125 214.234375 144.25 214.164062 C 144.296875 214.097656 144.3125 214.023438 144.296875 213.941406 C 142.96875 207.117188 142.402344 200.230469 142.59375 193.285156 C 142.664062 190.804688 142.609375 188.464844 142.554688 185.992188 L 142.53125 185 C 142.515625 184.175781 142.53125 183.351562 142.546875 182.550781 C 142.597656 180.0625 142.644531 177.710938 141.761719 175.222656 C 141 173.058594 139.644531 171.179688 137.953125 169.941406 C 136.5625 168.917969 135.082031 168.632812 133.519531 168.328125 C 132.914062 168.207031 132.285156 168.085938 131.660156 167.921875 C 131.121094 167.777344 130.460938 167.640625 129.683594 167.480469 C 126.078125 166.75 120.628906 165.640625 121.285156 161.953125 C 121.414062 161.242188 121.773438 160.683594 122.15625 160.089844 C 122.363281 159.773438 122.558594 159.453125 122.734375 159.117188 C 123.839844 156.925781 125.433594 155.179688 127.515625 153.878906 L 127.683594 153.769531 C 128.164062 153.460938 128.890625 153 129.15625 153.289062 C 130.609375 154.847656 132.253906 156.621094 134.40625 157.484375 C 136.484375 158.316406 139.359375 158.132812 140.816406 156.152344 C 141.023438 155.871094 141.195312 155.585938 141.367188 155.308594 C 141.675781 154.804688 141.964844 154.328125 142.410156 153.964844 C 142.425781 153.953125 142.441406 153.941406 142.453125 153.929688 C 142.527344 153.871094 142.601562 153.820312 142.683594 153.773438 C 143.636719 153.179688 144.175781 152.609375 144.171875 151.433594 C 144.515625 151.414062 144.828125 151.296875 145.097656 151.082031 C 145.125 151.0625 145.148438 151.042969 145.175781 151.019531 L 145.226562 150.96875 C 145.242188 150.941406 145.257812 150.90625 145.265625 150.875 C 145.355469 150.539062 145.34375 150.210938 145.226562 149.882812 Z M 144.71875 150.613281 C 144.496094 150.785156 144.246094 150.851562 143.96875 150.816406 C 143.917969 150.789062 143.859375 150.777344 143.800781 150.78125 C 143.398438 150.84375 142.996094 150.867188 142.589844 150.855469 C 142.214844 150.839844 141.871094 150.730469 141.558594 150.519531 C 141.492188 150.46875 141.417969 150.449219 141.335938 150.464844 C 141.253906 150.476562 141.191406 150.515625 141.140625 150.582031 C 141.089844 150.648438 141.070312 150.722656 141.082031 150.808594 C 141.09375 150.890625 141.136719 150.957031 141.203125 151.003906 C 141.609375 151.289062 142.058594 151.4375 142.550781 151.457031 C 142.644531 151.457031 142.738281 151.464844 142.832031 151.464844 C 143.082031 151.464844 143.332031 151.449219 143.578125 151.417969 C 143.578125 152.335938 143.191406 152.742188 142.378906 153.246094 C 142.308594 153.285156 142.238281 153.332031 142.171875 153.382812 C 142.121094 153.371094 142.070312 153.355469 142.023438 153.335938 C 141.753906 153.242188 141.5 153.03125 141.230469 152.703125 C 140.914062 152.316406 140.691406 151.835938 140.460938 151.328125 C 140.269531 150.878906 140.039062 150.449219 139.769531 150.039062 L 141.496094 149.710938 C 141.652344 149.683594 141.808594 149.648438 141.96875 149.613281 C 142.507812 149.5 143.054688 149.378906 143.5625 149.410156 C 143.910156 149.410156 144.207031 149.527344 144.464844 149.761719 C 144.675781 150.007812 144.761719 150.289062 144.71875 150.613281 Z M 144.71875 150.613281 " fill-opacity="1" fill-rule="nonzero"/><path fill="#020000" d="M 145.242188 150.957031 C 145.210938 151.011719 145.164062 151.046875 145.109375 151.070312 C 145.136719 151.050781 145.15625 151.03125 145.183594 151.007812 C 145.203125 150.992188 145.222656 150.976562 145.242188 150.957031 Z M 145.242188 150.957031 " fill-opacity="1" fill-rule="nonzero"/><g clip-path="url(#8a5c89d4f8)"><path fill="#020000" d="M 163.359375 30.875 C 149.785156 17.3125 131.734375 9.84375 112.539062 9.84375 C 93.34375 9.84375 75.292969 17.3125 61.71875 30.875 C 48.144531 44.4375 40.664062 62.464844 40.664062 81.636719 L 40.664062 214.742188 C 40.664062 214.878906 40.714844 214.996094 40.808594 215.089844 C 40.90625 215.1875 41.019531 215.234375 41.15625 215.234375 L 183.921875 215.234375 C 184.058594 215.234375 184.175781 215.1875 184.269531 215.089844 C 184.367188 214.996094 184.414062 214.878906 184.414062 214.742188 L 184.414062 81.636719 C 184.410156 62.464844 176.9375 44.433594 163.359375 30.875 Z M 183.421875 214.253906 L 41.648438 214.253906 L 41.648438 81.636719 C 41.648438 62.726562 49.023438 44.949219 62.414062 31.570312 C 75.804688 18.191406 93.601562 10.824219 112.539062 10.824219 C 131.476562 10.824219 149.273438 18.191406 162.667969 31.570312 C 176.058594 44.945312 183.429688 62.726562 183.429688 81.636719 Z M 183.421875 214.253906 " fill-opacity="1" fill-rule="nonzero"/></g><path fill="#020000" d="M 64.898438 58.742188 C 66.570312 59.261719 67.300781 60.742188 67.644531 62.558594 C 68.007812 60.710938 68.699219 59.652344 70.378906 58.945312 C 69.6875 58.726562 68.59375 57.566406 68.375 57.210938 C 67.851562 56.359375 67.800781 55.523438 67.675781 54.574219 C 67.257812 56.328125 66.742188 57.933594 64.898438 58.742188 Z M 64.898438 58.742188 " fill-opacity="1" fill-rule="nonzero"/><path fill="#020000" d="M 78.363281 134.183594 C 80.035156 134.703125 80.761719 136.183594 81.109375 138.003906 C 81.472656 136.152344 82.167969 135.097656 83.839844 134.390625 C 83.152344 134.171875 82.058594 133.011719 81.839844 132.65625 C 81.316406 131.804688 81.265625 130.96875 81.140625 130.019531 C 80.714844 131.773438 80.203125 133.375 78.363281 134.183594 Z M 78.363281 134.183594 " fill-opacity="1" fill-rule="nonzero"/><path fill="#020000" d="M 174.425781 134.734375 C 176.09375 135.253906 176.824219 136.734375 177.171875 138.550781 C 177.535156 136.703125 178.226562 135.644531 179.902344 134.941406 C 179.214844 134.722656 178.121094 133.558594 177.902344 133.203125 C 177.378906 132.351562 177.328125 131.515625 177.203125 130.566406 C 176.785156 132.324219 176.269531 133.925781 174.425781 134.734375 Z M 174.425781 134.734375 " fill-opacity="1" fill-rule="nonzero"/><path fill="#020000" d="M 174.339844 167.25 C 176.007812 167.769531 176.738281 169.25 177.082031 171.070312 C 177.445312 169.21875 178.140625 168.160156 179.816406 167.457031 C 179.125 167.238281 178.03125 166.074219 177.8125 165.722656 C 177.292969 164.871094 177.238281 164.03125 177.117188 163.082031 C 176.691406 164.839844 176.179688 166.441406 174.339844 167.25 Z M 174.339844 167.25 " fill-opacity="1" fill-rule="nonzero"/><path fill="#020000" d="M 158.332031 76.78125 C 160 77.300781 160.730469 78.78125 161.078125 80.601562 C 161.4375 78.75 162.132812 77.691406 163.808594 76.988281 C 163.117188 76.769531 162.023438 75.605469 161.808594 75.253906 C 161.285156 74.402344 161.234375 73.566406 161.109375 72.613281 C 160.6875 74.371094 160.175781 75.972656 158.332031 76.78125 Z M 158.332031 76.78125 " fill-opacity="1" fill-rule="nonzero"/><path fill="#020000" d="M 59.179688 109.324219 C 60.851562 109.84375 61.578125 111.324219 61.925781 113.144531 C 62.289062 111.296875 62.980469 110.234375 64.65625 109.53125 C 63.96875 109.3125 62.875 108.152344 62.65625 107.796875 C 62.132812 106.945312 62.082031 106.109375 61.957031 105.160156 C 61.535156 106.914062 61.023438 108.519531 59.179688 109.324219 Z M 59.179688 109.324219 " fill-opacity="1" fill-rule="nonzero"/><path fill="#020000" d="M 72.398438 70.636719 C 73.511719 70.980469 73.996094 71.96875 74.226562 73.179688 C 74.46875 71.949219 74.929688 71.242188 76.042969 70.773438 C 75.585938 70.628906 74.859375 69.855469 74.710938 69.621094 C 74.363281 69.050781 74.332031 68.496094 74.246094 67.863281 C 73.964844 69.03125 73.625 70.097656 72.398438 70.636719 Z M 72.398438 70.636719 " fill-opacity="1" fill-rule="nonzero"/><path fill="#020000" d="M 48.632812 178.558594 C 49.742188 178.90625 50.226562 179.890625 50.457031 181.101562 C 50.699219 179.871094 51.160156 179.164062 52.277344 178.695312 C 51.816406 178.550781 51.089844 177.777344 50.945312 177.542969 C 50.597656 176.972656 50.5625 176.417969 50.480469 175.785156 C 50.199219 176.953125 49.859375 178.019531 48.632812 178.558594 Z M 48.632812 178.558594 " fill-opacity="1" fill-rule="nonzero"/><path fill="#020000" d="M 93.128906 37.269531 C 94.242188 37.613281 94.726562 38.597656 94.957031 39.8125 C 95.199219 38.578125 95.660156 37.875 96.777344 37.40625 C 96.316406 37.261719 95.589844 36.488281 95.445312 36.25 C 95.097656 35.683594 95.0625 35.125 94.980469 34.496094 C 94.699219 35.667969 94.355469 36.730469 93.128906 37.269531 Z M 93.128906 37.269531 " fill-opacity="1" fill-rule="nonzero"/><path fill="#020000" d="M 157.308594 149.925781 C 158.417969 150.273438 158.90625 151.257812 159.136719 152.46875 C 159.378906 151.238281 159.839844 150.53125 160.953125 150.0625 C 160.496094 149.917969 159.769531 149.144531 159.621094 148.910156 C 159.273438 148.339844 159.238281 147.785156 159.15625 147.152344 C 158.878906 148.320312 158.535156 149.390625 157.308594 149.925781 Z M 157.308594 149.925781 " fill-opacity="1" fill-rule="nonzero"/><path fill="#020000" d="M 137.570312 60.257812 C 138.683594 60.601562 139.167969 61.585938 139.398438 62.800781 C 139.640625 61.570312 140.101562 60.863281 141.21875 60.394531 C 140.757812 60.25 140.03125 59.476562 139.886719 59.238281 C 139.539062 58.671875 139.503906 58.117188 139.421875 57.484375 C 139.140625 58.652344 138.796875 59.71875 137.570312 60.257812 Z M 137.570312 60.257812 " fill-opacity="1" fill-rule="nonzero"/><path fill="#020000" d="M 132.921875 25.742188 C 134.03125 26.089844 134.515625 27.074219 134.75 28.285156 C 134.988281 27.054688 135.453125 26.347656 136.566406 25.878906 C 136.105469 25.734375 135.378906 24.960938 135.234375 24.726562 C 134.886719 24.160156 134.851562 23.601562 134.769531 22.972656 C 134.488281 24.136719 134.148438 25.203125 132.921875 25.742188 Z M 132.921875 25.742188 " fill-opacity="1" fill-rule="nonzero"/><path fill="#020000" d="M 91.453125 69.550781 C 91.453125 69.730469 91.394531 69.878906 91.269531 70.003906 C 91.144531 70.128906 90.992188 70.191406 90.816406 70.191406 C 90.640625 70.191406 90.488281 70.128906 90.363281 70.003906 C 90.238281 69.878906 90.175781 69.730469 90.175781 69.550781 C 90.175781 69.375 90.238281 69.226562 90.363281 69.101562 C 90.488281 68.976562 90.640625 68.914062 90.816406 68.914062 C 90.992188 68.914062 91.144531 68.976562 91.269531 69.101562 C 91.394531 69.226562 91.453125 69.375 91.453125 69.550781 Z M 91.453125 69.550781 " fill-opacity="1" fill-rule="nonzero"/><path fill="#020000" d="M 48.988281 67.164062 C 48.988281 67.34375 48.925781 67.492188 48.800781 67.617188 C 48.675781 67.742188 48.527344 67.804688 48.351562 67.804688 C 48.171875 67.804688 48.023438 67.742188 47.898438 67.617188 C 47.773438 67.492188 47.710938 67.34375 47.710938 67.164062 C 47.710938 66.988281 47.773438 66.839844 47.898438 66.714844 C 48.023438 66.589844 48.171875 66.527344 48.351562 66.527344 C 48.527344 66.527344 48.675781 66.589844 48.800781 66.714844 C 48.925781 66.839844 48.988281 66.988281 48.988281 67.164062 Z M 48.988281 67.164062 " fill-opacity="1" fill-rule="nonzero"/><path fill="#020000" d="M 97.417969 66.199219 C 97.417969 66.378906 97.355469 66.527344 97.230469 66.652344 C 97.109375 66.777344 96.957031 66.839844 96.78125 66.839844 C 96.601562 66.839844 96.453125 66.777344 96.328125 66.652344 C 96.203125 66.527344 96.140625 66.378906 96.140625 66.199219 C 96.140625 66.023438 96.203125 65.875 96.328125 65.75 C 96.453125 65.625 96.601562 65.5625 96.78125 65.5625 C 96.957031 65.5625 97.109375 65.625 97.230469 65.75 C 97.355469 65.875 97.417969 66.023438 97.417969 66.199219 Z M 97.417969 66.199219 " fill-opacity="1" fill-rule="nonzero"/><path fill="#020000" d="M 48.738281 85.949219 C 48.738281 86.125 48.675781 86.277344 48.550781 86.402344 C 48.425781 86.527344 48.277344 86.589844 48.097656 86.589844 C 47.921875 86.589844 47.773438 86.527344 47.648438 86.402344 C 47.523438 86.277344 47.460938 86.125 47.460938 85.949219 C 47.460938 85.773438 47.523438 85.621094 47.648438 85.496094 C 47.773438 85.371094 47.921875 85.308594 48.097656 85.308594 C 48.277344 85.308594 48.425781 85.371094 48.550781 85.496094 C 48.675781 85.621094 48.738281 85.773438 48.738281 85.949219 Z M 48.738281 85.949219 " fill-opacity="1" fill-rule="nonzero"/><path fill="#020000" d="M 48.230469 140.683594 C 48.230469 140.859375 48.167969 141.011719 48.042969 141.136719 C 47.917969 141.261719 47.765625 141.324219 47.589844 141.324219 C 47.414062 141.324219 47.261719 141.261719 47.136719 141.136719 C 47.011719 141.011719 46.949219 140.859375 46.949219 140.683594 C 46.949219 140.507812 47.011719 140.355469 47.136719 140.230469 C 47.261719 140.109375 47.414062 140.046875 47.589844 140.046875 C 47.765625 140.046875 47.917969 140.109375 48.042969 140.230469 C 48.167969 140.355469 48.230469 140.507812 48.230469 140.683594 Z M 48.230469 140.683594 " fill-opacity="1" fill-rule="nonzero"/><path fill="#020000" d="M 53.300781 106.277344 C 53.300781 106.453125 53.238281 106.601562 53.113281 106.726562 C 52.988281 106.851562 52.835938 106.914062 52.660156 106.914062 C 52.484375 106.914062 52.332031 106.851562 52.207031 106.726562 C 52.082031 106.601562 52.019531 106.453125 52.019531 106.277344 C 52.019531 106.097656 52.082031 105.949219 52.207031 105.824219 C 52.332031 105.699219 52.484375 105.636719 52.660156 105.636719 C 52.835938 105.636719 52.988281 105.699219 53.113281 105.824219 C 53.238281 105.949219 53.300781 106.097656 53.300781 106.277344 Z M 53.300781 106.277344 " fill-opacity="1" fill-rule="nonzero"/><path fill="#020000" d="M 51.648438 164.597656 C 51.648438 164.773438 51.585938 164.925781 51.460938 165.050781 C 51.335938 165.175781 51.1875 165.238281 51.011719 165.238281 C 50.832031 165.238281 50.683594 165.175781 50.558594 165.050781 C 50.433594 164.925781 50.371094 164.773438 50.371094 164.597656 C 50.371094 164.421875 50.433594 164.269531 50.558594 164.144531 C 50.683594 164.019531 50.832031 163.957031 51.011719 163.957031 C 51.1875 163.957031 51.335938 164.019531 51.460938 164.144531 C 51.585938 164.269531 51.648438 164.421875 51.648438 164.597656 Z M 51.648438 164.597656 " fill-opacity="1" fill-rule="nonzero"/><path fill="#020000" d="M 47.527344 170.675781 C 47.527344 170.851562 47.464844 171 47.339844 171.125 C 47.214844 171.25 47.0625 171.3125 46.886719 171.3125 C 46.710938 171.3125 46.558594 171.25 46.433594 171.125 C 46.3125 171 46.25 170.851562 46.25 170.675781 C 46.25 170.496094 46.3125 170.347656 46.433594 170.222656 C 46.558594 170.097656 46.710938 170.035156 46.886719 170.035156 C 47.0625 170.035156 47.214844 170.097656 47.339844 170.222656 C 47.464844 170.347656 47.527344 170.496094 47.527344 170.675781 Z M 47.527344 170.675781 " fill-opacity="1" fill-rule="nonzero"/><path fill="#020000" d="M 57.457031 184.8125 C 57.457031 184.988281 57.394531 185.136719 57.269531 185.261719 C 57.144531 185.386719 56.992188 185.449219 56.816406 185.449219 C 56.640625 185.449219 56.488281 185.386719 56.363281 185.261719 C 56.242188 185.136719 56.179688 184.988281 56.179688 184.8125 C 56.179688 184.636719 56.242188 184.484375 56.363281 184.359375 C 56.488281 184.234375 56.640625 184.171875 56.816406 184.171875 C 56.992188 184.171875 57.144531 184.234375 57.269531 184.359375 C 57.394531 184.484375 57.457031 184.636719 57.457031 184.8125 Z M 57.457031 184.8125 " fill-opacity="1" fill-rule="nonzero"/><path fill="#020000" d="M 75.863281 110.59375 C 75.863281 110.769531 75.800781 110.921875 75.675781 111.046875 C 75.554688 111.171875 75.402344 111.234375 75.226562 111.234375 C 75.050781 111.234375 74.898438 111.171875 74.773438 111.046875 C 74.648438 110.921875 74.585938 110.769531 74.585938 110.59375 C 74.585938 110.417969 74.648438 110.265625 74.773438 110.144531 C 74.898438 110.019531 75.050781 109.957031 75.226562 109.957031 C 75.402344 109.957031 75.554688 110.019531 75.675781 110.144531 C 75.800781 110.265625 75.863281 110.417969 75.863281 110.59375 Z M 75.863281 110.59375 " fill-opacity="1" fill-rule="nonzero"/><path fill="#020000" d="M 60.519531 165.429688 C 60.519531 165.605469 60.457031 165.757812 60.332031 165.878906 C 60.207031 166.003906 60.058594 166.066406 59.878906 166.066406 C 59.703125 166.066406 59.554688 166.003906 59.429688 165.878906 C 59.304688 165.757812 59.242188 165.605469 59.242188 165.429688 C 59.242188 165.253906 59.304688 165.101562 59.429688 164.976562 C 59.554688 164.851562 59.703125 164.789062 59.878906 164.789062 C 60.058594 164.789062 60.207031 164.851562 60.332031 164.976562 C 60.457031 165.101562 60.519531 165.253906 60.519531 165.429688 Z M 60.519531 165.429688 " fill-opacity="1" fill-rule="nonzero"/><path fill="#020000" d="M 53.625 196.03125 C 53.625 196.207031 53.5625 196.359375 53.4375 196.484375 C 53.3125 196.609375 53.164062 196.671875 52.988281 196.671875 C 52.808594 196.671875 52.660156 196.609375 52.535156 196.484375 C 52.410156 196.359375 52.347656 196.207031 52.347656 196.03125 C 52.347656 195.855469 52.410156 195.707031 52.535156 195.582031 C 52.660156 195.457031 52.808594 195.394531 52.988281 195.394531 C 53.164062 195.394531 53.3125 195.457031 53.4375 195.582031 C 53.5625 195.707031 53.625 195.855469 53.625 196.03125 Z M 53.625 196.03125 " fill-opacity="1" fill-rule="nonzero"/><path fill="#020000" d="M 56.863281 119.222656 C 56.863281 119.398438 56.800781 119.550781 56.675781 119.675781 C 56.550781 119.800781 56.398438 119.863281 56.222656 119.863281 C 56.046875 119.863281 55.894531 119.800781 55.769531 119.675781 C 55.648438 119.550781 55.585938 119.398438 55.585938 119.222656 C 55.585938 119.046875 55.648438 118.898438 55.769531 118.773438 C 55.894531 118.648438 56.046875 118.585938 56.222656 118.585938 C 56.398438 118.585938 56.550781 118.648438 56.675781 118.773438 C 56.800781 118.898438 56.863281 119.046875 56.863281 119.222656 Z M 56.863281 119.222656 " fill-opacity="1" fill-rule="nonzero"/><path fill="#020000" d="M 166.152344 83.207031 C 166.152344 83.382812 166.089844 83.535156 165.964844 83.660156 C 165.839844 83.785156 165.691406 83.847656 165.515625 83.847656 C 165.335938 83.847656 165.1875 83.785156 165.0625 83.660156 C 164.9375 83.535156 164.875 83.382812 164.875 83.207031 C 164.875 83.03125 164.9375 82.878906 165.0625 82.753906 C 165.1875 82.628906 165.335938 82.566406 165.515625 82.566406 C 165.691406 82.566406 165.839844 82.628906 165.964844 82.753906 C 166.089844 82.878906 166.152344 83.03125 166.152344 83.207031 Z M 166.152344 83.207031 " fill-opacity="1" fill-rule="nonzero"/><path fill="#020000" d="M 165.265625 142.300781 C 165.265625 142.476562 165.203125 142.628906 165.078125 142.753906 C 164.953125 142.878906 164.800781 142.941406 164.625 142.941406 C 164.449219 142.941406 164.296875 142.878906 164.171875 142.753906 C 164.046875 142.628906 163.984375 142.476562 163.984375 142.300781 C 163.984375 142.125 164.046875 141.972656 164.171875 141.847656 C 164.296875 141.722656 164.449219 141.660156 164.625 141.660156 C 164.800781 141.660156 164.953125 141.722656 165.078125 141.847656 C 165.203125 141.972656 165.265625 142.125 165.265625 142.300781 Z M 165.265625 142.300781 " fill-opacity="1" fill-rule="nonzero"/><path fill="#020000" d="M 56.945312 145.28125 C 56.945312 145.457031 56.882812 145.609375 56.757812 145.734375 C 56.632812 145.859375 56.480469 145.921875 56.304688 145.921875 C 56.128906 145.921875 55.976562 145.859375 55.855469 145.734375 C 55.730469 145.609375 55.667969 145.457031 55.667969 145.28125 C 55.667969 145.105469 55.730469 144.953125 55.855469 144.828125 C 55.976562 144.703125 56.128906 144.640625 56.304688 144.640625 C 56.480469 144.640625 56.632812 144.703125 56.757812 144.828125 C 56.882812 144.953125 56.945312 145.105469 56.945312 145.28125 Z M 56.945312 145.28125 " fill-opacity="1" fill-rule="nonzero"/><path fill="#020000" d="M 180.800781 112.472656 C 180.800781 112.648438 180.738281 112.796875 180.613281 112.921875 C 180.488281 113.046875 180.339844 113.109375 180.160156 113.109375 C 179.984375 113.109375 179.835938 113.046875 179.710938 112.921875 C 179.585938 112.796875 179.523438 112.648438 179.523438 112.472656 C 179.523438 112.292969 179.585938 112.144531 179.710938 112.019531 C 179.835938 111.894531 179.984375 111.832031 180.160156 111.832031 C 180.339844 111.832031 180.488281 111.894531 180.613281 112.019531 C 180.738281 112.144531 180.800781 112.292969 180.800781 112.472656 Z M 180.800781 112.472656 " fill-opacity="1" fill-rule="nonzero"/><path fill="#020000" d="M 168.648438 134.539062 C 168.648438 134.714844 168.585938 134.867188 168.460938 134.992188 C 168.335938 135.117188 168.1875 135.179688 168.011719 135.179688 C 167.832031 135.179688 167.683594 135.117188 167.558594 134.992188 C 167.433594 134.867188 167.371094 134.714844 167.371094 134.539062 C 167.371094 134.363281 167.433594 134.210938 167.558594 134.085938 C 167.683594 133.960938 167.832031 133.898438 168.011719 133.898438 C 168.1875 133.898438 168.335938 133.960938 168.460938 134.085938 C 168.585938 134.210938 168.648438 134.363281 168.648438 134.539062 Z M 168.648438 134.539062 " fill-opacity="1" fill-rule="nonzero"/><path fill="#020000" d="M 158.097656 137.046875 C 158.097656 137.226562 158.035156 137.375 157.914062 137.5 C 157.789062 137.625 157.636719 137.6875 157.460938 137.6875 C 157.285156 137.6875 157.132812 137.625 157.007812 137.5 C 156.882812 137.375 156.820312 137.226562 156.820312 137.046875 C 156.820312 136.871094 156.882812 136.722656 157.007812 136.597656 C 157.132812 136.472656 157.285156 136.410156 157.460938 136.410156 C 157.636719 136.410156 157.789062 136.472656 157.914062 136.597656 C 158.035156 136.722656 158.097656 136.871094 158.097656 137.046875 Z M 158.097656 137.046875 " fill-opacity="1" fill-rule="nonzero"/><path fill="#020000" d="M 180.992188 186.132812 C 180.992188 186.3125 180.929688 186.460938 180.804688 186.585938 C 180.679688 186.710938 180.53125 186.773438 180.355469 186.773438 C 180.175781 186.773438 180.027344 186.710938 179.902344 186.585938 C 179.777344 186.460938 179.714844 186.3125 179.714844 186.132812 C 179.714844 185.957031 179.777344 185.808594 179.902344 185.683594 C 180.027344 185.558594 180.175781 185.496094 180.355469 185.496094 C 180.53125 185.496094 180.679688 185.558594 180.804688 185.683594 C 180.929688 185.808594 180.992188 185.957031 180.992188 186.132812 Z M 180.992188 186.132812 " fill-opacity="1" fill-rule="nonzero"/><path fill="#020000" d="M 175.605469 189.34375 C 175.605469 189.519531 175.542969 189.667969 175.417969 189.792969 C 175.292969 189.917969 175.144531 189.980469 174.96875 189.980469 C 174.789062 189.980469 174.640625 189.917969 174.515625 189.792969 C 174.390625 189.667969 174.328125 189.519531 174.328125 189.34375 C 174.328125 189.167969 174.390625 189.015625 174.515625 188.890625 C 174.640625 188.765625 174.789062 188.703125 174.96875 188.703125 C 175.144531 188.703125 175.292969 188.765625 175.417969 188.890625 C 175.542969 189.015625 175.605469 189.167969 175.605469 189.34375 Z M 175.605469 189.34375 " fill-opacity="1" fill-rule="nonzero"/><path fill="#020000" d="M 180.257812 206.488281 C 180.257812 206.664062 180.195312 206.816406 180.070312 206.941406 C 179.945312 207.066406 179.792969 207.128906 179.617188 207.128906 C 179.441406 207.128906 179.289062 207.066406 179.164062 206.941406 C 179.039062 206.816406 178.976562 206.664062 178.976562 206.488281 C 178.976562 206.3125 179.039062 206.160156 179.164062 206.035156 C 179.289062 205.910156 179.441406 205.847656 179.617188 205.847656 C 179.792969 205.847656 179.945312 205.910156 180.070312 206.035156 C 180.195312 206.160156 180.257812 206.3125 180.257812 206.488281 Z M 180.257812 206.488281 " fill-opacity="1" fill-rule="nonzero"/><path fill="#020000" d="M 182.683594 210.441406 C 182.683594 210.617188 182.621094 210.765625 182.496094 210.890625 C 182.371094 211.015625 182.21875 211.078125 182.042969 211.078125 C 181.867188 211.078125 181.714844 211.015625 181.589844 210.890625 C 181.46875 210.765625 181.40625 210.617188 181.40625 210.441406 C 181.40625 210.261719 181.46875 210.113281 181.589844 209.988281 C 181.714844 209.863281 181.867188 209.800781 182.042969 209.800781 C 182.21875 209.800781 182.371094 209.863281 182.496094 209.988281 C 182.621094 210.113281 182.683594 210.261719 182.683594 210.441406 Z M 182.683594 210.441406 " fill-opacity="1" fill-rule="nonzero"/><path fill="#020000" d="M 68.050781 134.953125 C 68.050781 135.128906 67.988281 135.277344 67.863281 135.402344 C 67.738281 135.527344 67.585938 135.589844 67.410156 135.589844 C 67.234375 135.589844 67.082031 135.527344 66.957031 135.402344 C 66.832031 135.277344 66.769531 135.128906 66.769531 134.953125 C 66.769531 134.777344 66.832031 134.625 66.957031 134.5 C 67.082031 134.375 67.234375 134.3125 67.410156 134.3125 C 67.585938 134.3125 67.738281 134.375 67.863281 134.5 C 67.988281 134.625 68.050781 134.777344 68.050781 134.953125 Z M 68.050781 134.953125 " fill-opacity="1" fill-rule="nonzero"/><path fill="#020000" d="M 151.730469 76.453125 C 151.730469 76.628906 151.667969 76.78125 151.542969 76.90625 C 151.417969 77.03125 151.269531 77.09375 151.089844 77.09375 C 150.914062 77.09375 150.765625 77.03125 150.640625 76.90625 C 150.515625 76.78125 150.453125 76.628906 150.453125 76.453125 C 150.453125 76.277344 150.515625 76.125 150.640625 76.003906 C 150.765625 75.878906 150.914062 75.816406 151.089844 75.816406 C 151.269531 75.816406 151.417969 75.878906 151.542969 76.003906 C 151.667969 76.125 151.730469 76.277344 151.730469 76.453125 Z M 151.730469 76.453125 " fill-opacity="1" fill-rule="nonzero"/><path fill="#020000" d="M 74.816406 136.609375 C 74.816406 136.785156 74.753906 136.9375 74.628906 137.0625 C 74.503906 137.1875 74.355469 137.25 74.179688 137.25 C 74 137.25 73.851562 137.1875 73.726562 137.0625 C 73.601562 136.9375 73.539062 136.785156 73.539062 136.609375 C 73.539062 136.433594 73.601562 136.285156 73.726562 136.160156 C 73.851562 136.035156 74 135.972656 74.179688 135.972656 C 74.355469 135.972656 74.503906 136.035156 74.628906 136.160156 C 74.753906 136.285156 74.816406 136.433594 74.816406 136.609375 Z M 74.816406 136.609375 " fill-opacity="1" fill-rule="nonzero"/><path fill="#020000" d="M 68.691406 125.390625 C 68.691406 125.566406 68.628906 125.714844 68.503906 125.839844 C 68.378906 125.964844 68.226562 126.027344 68.050781 126.027344 C 67.875 126.027344 67.722656 125.964844 67.597656 125.839844 C 67.472656 125.714844 67.410156 125.566406 67.410156 125.390625 C 67.410156 125.210938 67.472656 125.0625 67.597656 124.9375 C 67.722656 124.8125 67.875 124.75 68.050781 124.75 C 68.226562 124.75 68.378906 124.8125 68.503906 124.9375 C 68.628906 125.0625 68.691406 125.210938 68.691406 125.390625 Z M 68.691406 125.390625 " fill-opacity="1" fill-rule="nonzero"/><path fill="#020000" d="M 61.875 93.652344 C 61.875 93.828125 61.8125 93.980469 61.6875 94.105469 C 61.5625 94.230469 61.410156 94.292969 61.234375 94.292969 C 61.058594 94.292969 60.90625 94.230469 60.78125 94.105469 C 60.65625 93.980469 60.59375 93.828125 60.59375 93.652344 C 60.59375 93.476562 60.65625 93.328125 60.78125 93.203125 C 60.90625 93.078125 61.058594 93.015625 61.234375 93.015625 C 61.410156 93.015625 61.5625 93.078125 61.6875 93.203125 C 61.8125 93.328125 61.875 93.476562 61.875 93.652344 Z M 61.875 93.652344 " fill-opacity="1" fill-rule="nonzero"/><path fill="#020000" d="M 59.628906 70.839844 C 59.628906 71.019531 59.566406 71.167969 59.441406 71.292969 C 59.316406 71.417969 59.164062 71.480469 58.988281 71.480469 C 58.8125 71.480469 58.660156 71.417969 58.535156 71.292969 C 58.410156 71.167969 58.351562 71.019531 58.351562 70.839844 C 58.351562 70.664062 58.410156 70.515625 58.535156 70.390625 C 58.660156 70.265625 58.8125 70.203125 58.988281 70.203125 C 59.164062 70.203125 59.316406 70.265625 59.441406 70.390625 C 59.566406 70.515625 59.628906 70.664062 59.628906 70.839844 Z M 59.628906 70.839844 " fill-opacity="1" fill-rule="nonzero"/><path fill="#020000" d="M 158.832031 61.207031 C 158.832031 61.382812 158.769531 61.535156 158.644531 61.660156 C 158.519531 61.785156 158.367188 61.847656 158.191406 61.847656 C 158.015625 61.847656 157.863281 61.785156 157.738281 61.660156 C 157.613281 61.535156 157.550781 61.382812 157.550781 61.207031 C 157.550781 61.03125 157.613281 60.878906 157.738281 60.753906 C 157.863281 60.628906 158.015625 60.566406 158.191406 60.566406 C 158.367188 60.566406 158.519531 60.628906 158.644531 60.753906 C 158.769531 60.878906 158.832031 61.03125 158.832031 61.207031 Z M 158.832031 61.207031 " fill-opacity="1" fill-rule="nonzero"/><path fill="#020000" d="M 175.644531 106.902344 C 175.644531 107.078125 175.582031 107.226562 175.457031 107.351562 C 175.332031 107.476562 175.183594 107.539062 175.007812 107.539062 C 174.828125 107.539062 174.679688 107.476562 174.554688 107.351562 C 174.429688 107.226562 174.367188 107.078125 174.367188 106.902344 C 174.367188 106.726562 174.429688 106.574219 174.554688 106.449219 C 174.679688 106.324219 174.828125 106.261719 175.007812 106.261719 C 175.183594 106.261719 175.332031 106.324219 175.457031 106.449219 C 175.582031 106.574219 175.644531 106.726562 175.644531 106.902344 Z M 175.644531 106.902344 " fill-opacity="1" fill-rule="nonzero"/><path fill="#020000" d="M 163.691406 98.714844 C 163.691406 98.890625 163.628906 99.039062 163.503906 99.164062 C 163.378906 99.289062 163.226562 99.351562 163.050781 99.351562 C 162.875 99.351562 162.722656 99.289062 162.597656 99.164062 C 162.472656 99.039062 162.410156 98.890625 162.410156 98.714844 C 162.410156 98.535156 162.472656 98.386719 162.597656 98.261719 C 162.722656 98.136719 162.875 98.074219 163.050781 98.074219 C 163.226562 98.074219 163.378906 98.136719 163.503906 98.261719 C 163.628906 98.386719 163.691406 98.535156 163.691406 98.714844 Z M 163.691406 98.714844 " fill-opacity="1" fill-rule="nonzero"/><path fill="#020000" d="M 129.660156 76.589844 C 129.660156 76.765625 129.597656 76.917969 129.472656 77.042969 C 129.347656 77.167969 129.195312 77.226562 129.019531 77.226562 C 128.84375 77.226562 128.691406 77.167969 128.566406 77.042969 C 128.441406 76.917969 128.378906 76.765625 128.378906 76.589844 C 128.378906 76.414062 128.441406 76.261719 128.566406 76.136719 C 128.691406 76.011719 128.84375 75.949219 129.019531 75.949219 C 129.195312 75.949219 129.347656 76.011719 129.472656 76.136719 C 129.597656 76.261719 129.660156 76.414062 129.660156 76.589844 Z M 129.660156 76.589844 " fill-opacity="1" fill-rule="nonzero"/><path fill="#020000" d="M 167.765625 151.019531 C 167.765625 151.195312 167.703125 151.347656 167.578125 151.46875 C 167.453125 151.59375 167.304688 151.65625 167.128906 151.65625 C 166.949219 151.65625 166.800781 151.59375 166.675781 151.46875 C 166.550781 151.347656 166.488281 151.195312 166.488281 151.019531 C 166.488281 150.84375 166.550781 150.691406 166.675781 150.566406 C 166.800781 150.441406 166.949219 150.378906 167.128906 150.378906 C 167.304688 150.378906 167.453125 150.441406 167.578125 150.566406 C 167.703125 150.691406 167.765625 150.84375 167.765625 151.019531 Z M 167.765625 151.019531 " fill-opacity="1" fill-rule="nonzero"/><path fill="#020000" d="M 153.105469 48.566406 C 153.105469 48.742188 153.042969 48.894531 152.917969 49.015625 C 152.792969 49.140625 152.644531 49.203125 152.464844 49.203125 C 152.289062 49.203125 152.140625 49.140625 152.015625 49.015625 C 151.890625 48.894531 151.828125 48.742188 151.828125 48.566406 C 151.828125 48.390625 151.890625 48.238281 152.015625 48.113281 C 152.140625 47.988281 152.289062 47.925781 152.464844 47.925781 C 152.644531 47.925781 152.792969 47.988281 152.917969 48.113281 C 153.042969 48.238281 153.105469 48.390625 153.105469 48.566406 Z M 153.105469 48.566406 " fill-opacity="1" fill-rule="nonzero"/><path fill="#020000" d="M 117.214844 77.375 C 117.214844 77.550781 117.152344 77.703125 117.027344 77.828125 C 116.902344 77.953125 116.753906 78.015625 116.578125 78.015625 C 116.398438 78.015625 116.25 77.953125 116.125 77.828125 C 116 77.703125 115.9375 77.550781 115.9375 77.375 C 115.9375 77.199219 116 77.046875 116.125 76.921875 C 116.25 76.796875 116.398438 76.734375 116.578125 76.734375 C 116.753906 76.734375 116.902344 76.796875 117.027344 76.921875 C 117.152344 77.046875 117.214844 77.199219 117.214844 77.375 Z M 117.214844 77.375 " fill-opacity="1" fill-rule="nonzero"/><path fill="#020000" d="M 115.484375 87.9375 C 115.484375 88.113281 115.421875 88.265625 115.296875 88.390625 C 115.171875 88.515625 115.023438 88.578125 114.847656 88.578125 C 114.667969 88.578125 114.519531 88.515625 114.394531 88.390625 C 114.269531 88.265625 114.207031 88.113281 114.207031 87.9375 C 114.207031 87.761719 114.269531 87.613281 114.394531 87.488281 C 114.519531 87.363281 114.667969 87.300781 114.847656 87.300781 C 115.023438 87.300781 115.171875 87.363281 115.296875 87.488281 C 115.421875 87.613281 115.484375 87.761719 115.484375 87.9375 Z M 115.484375 87.9375 " fill-opacity="1" fill-rule="nonzero"/><path fill="#020000" d="M 167.925781 51.363281 C 167.925781 51.539062 167.863281 51.6875 167.738281 51.8125 C 167.613281 51.9375 167.460938 52 167.285156 52 C 167.109375 52 166.957031 51.9375 166.832031 51.8125 C 166.707031 51.6875 166.644531 51.539062 166.644531 51.363281 C 166.644531 51.1875 166.707031 51.035156 166.832031 50.910156 C 166.957031 50.785156 167.109375 50.722656 167.285156 50.722656 C 167.460938 50.722656 167.613281 50.785156 167.738281 50.910156 C 167.863281 51.035156 167.925781 51.1875 167.925781 51.363281 Z M 167.925781 51.363281 " fill-opacity="1" fill-rule="nonzero"/><path fill="#020000" d="M 176.414062 79.113281 C 176.414062 79.289062 176.351562 79.441406 176.226562 79.566406 C 176.101562 79.691406 175.949219 79.753906 175.773438 79.753906 C 175.597656 79.753906 175.445312 79.691406 175.320312 79.566406 C 175.195312 79.441406 175.132812 79.289062 175.132812 79.113281 C 175.132812 78.9375 175.195312 78.789062 175.320312 78.664062 C 175.445312 78.539062 175.597656 78.476562 175.773438 78.476562 C 175.949219 78.476562 176.101562 78.539062 176.226562 78.664062 C 176.351562 78.789062 176.414062 78.9375 176.414062 79.113281 Z M 176.414062 79.113281 " fill-opacity="1" fill-rule="nonzero"/><path fill="#020000" d="M 128.03125 68.535156 C 128.03125 68.710938 127.96875 68.863281 127.84375 68.988281 C 127.71875 69.113281 127.570312 69.175781 127.394531 69.175781 C 127.214844 69.175781 127.066406 69.113281 126.941406 68.988281 C 126.816406 68.863281 126.753906 68.710938 126.753906 68.535156 C 126.753906 68.359375 126.816406 68.207031 126.941406 68.085938 C 127.066406 67.960938 127.214844 67.898438 127.394531 67.898438 C 127.570312 67.898438 127.71875 67.960938 127.84375 68.085938 C 127.96875 68.207031 128.03125 68.359375 128.03125 68.535156 Z M 128.03125 68.535156 " fill-opacity="1" fill-rule="nonzero"/><path fill="#020000" d="M 174.9375 157.828125 C 174.9375 158.003906 174.875 158.152344 174.75 158.277344 C 174.625 158.402344 174.472656 158.464844 174.296875 158.464844 C 174.121094 158.464844 173.96875 158.402344 173.84375 158.277344 C 173.71875 158.152344 173.65625 158.003906 173.65625 157.828125 C 173.65625 157.652344 173.71875 157.5 173.84375 157.375 C 173.96875 157.25 174.121094 157.1875 174.296875 157.1875 C 174.472656 157.1875 174.625 157.25 174.75 157.375 C 174.875 157.5 174.9375 157.652344 174.9375 157.828125 Z M 174.9375 157.828125 " fill-opacity="1" fill-rule="nonzero"/><path fill="#020000" d="M 180.574219 180.636719 C 180.574219 180.8125 180.511719 180.964844 180.386719 181.089844 C 180.261719 181.214844 180.113281 181.277344 179.933594 181.277344 C 179.757812 181.277344 179.609375 181.214844 179.484375 181.089844 C 179.359375 180.964844 179.296875 180.8125 179.296875 180.636719 C 179.296875 180.460938 179.359375 180.3125 179.484375 180.1875 C 179.609375 180.0625 179.757812 180 179.933594 180 C 180.113281 180 180.261719 180.0625 180.386719 180.1875 C 180.511719 180.3125 180.574219 180.460938 180.574219 180.636719 Z M 180.574219 180.636719 " fill-opacity="1" fill-rule="nonzero"/><path fill="#020000" d="M 169.324219 142.765625 C 169.324219 142.941406 169.261719 143.09375 169.136719 143.21875 C 169.011719 143.34375 168.863281 143.40625 168.6875 143.40625 C 168.507812 143.40625 168.359375 143.34375 168.234375 143.21875 C 168.109375 143.09375 168.046875 142.941406 168.046875 142.765625 C 168.046875 142.589844 168.109375 142.4375 168.234375 142.3125 C 168.359375 142.191406 168.507812 142.128906 168.6875 142.128906 C 168.863281 142.128906 169.011719 142.191406 169.136719 142.3125 C 169.261719 142.4375 169.324219 142.589844 169.324219 142.765625 Z M 169.324219 142.765625 " fill-opacity="1" fill-rule="nonzero"/><path fill="#020000" d="M 175.269531 150.796875 C 175.269531 150.972656 175.207031 151.125 175.082031 151.25 C 174.957031 151.375 174.808594 151.4375 174.628906 151.4375 C 174.453125 151.4375 174.304688 151.375 174.179688 151.25 C 174.054688 151.125 173.992188 150.972656 173.992188 150.796875 C 173.992188 150.621094 174.054688 150.46875 174.179688 150.34375 C 174.304688 150.21875 174.453125 150.15625 174.628906 150.15625 C 174.808594 150.15625 174.957031 150.21875 175.082031 150.34375 C 175.207031 150.46875 175.269531 150.621094 175.269531 150.796875 Z M 175.269531 150.796875 " fill-opacity="1" fill-rule="nonzero"/><path fill="#020000" d="M 156.703125 131.890625 C 156.703125 132.066406 156.640625 132.214844 156.515625 132.339844 C 156.390625 132.464844 156.242188 132.527344 156.0625 132.527344 C 155.886719 132.527344 155.734375 132.464844 155.613281 132.339844 C 155.488281 132.214844 155.425781 132.066406 155.425781 131.890625 C 155.425781 131.714844 155.488281 131.5625 155.613281 131.4375 C 155.734375 131.3125 155.886719 131.25 156.0625 131.25 C 156.242188 131.25 156.390625 131.3125 156.515625 131.4375 C 156.640625 131.5625 156.703125 131.714844 156.703125 131.890625 Z M 156.703125 131.890625 " fill-opacity="1" fill-rule="nonzero"/><path fill="#020000" d="M 99.527344 81.589844 C 99.527344 81.765625 99.464844 81.914062 99.339844 82.039062 C 99.214844 82.164062 99.066406 82.226562 98.886719 82.226562 C 98.710938 82.226562 98.5625 82.164062 98.4375 82.039062 C 98.3125 81.914062 98.25 81.765625 98.25 81.589844 C 98.25 81.414062 98.3125 81.261719 98.4375 81.136719 C 98.5625 81.011719 98.710938 80.949219 98.886719 80.949219 C 99.066406 80.949219 99.214844 81.011719 99.339844 81.136719 C 99.464844 81.261719 99.527344 81.414062 99.527344 81.589844 Z M 99.527344 81.589844 " fill-opacity="1" fill-rule="nonzero"/><path fill="#020000" d="M 85.375 96.609375 C 85.375 96.785156 85.3125 96.933594 85.1875 97.058594 C 85.0625 97.183594 84.910156 97.246094 84.734375 97.246094 C 84.558594 97.246094 84.40625 97.183594 84.28125 97.058594 C 84.15625 96.933594 84.09375 96.785156 84.09375 96.609375 C 84.09375 96.433594 84.15625 96.28125 84.28125 96.15625 C 84.40625 96.03125 84.558594 95.96875 84.734375 95.96875 C 84.910156 95.96875 85.0625 96.03125 85.1875 96.15625 C 85.3125 96.28125 85.375 96.433594 85.375 96.609375 Z M 85.375 96.609375 " fill-opacity="1" fill-rule="nonzero"/><path fill="#020000" d="M 161.875 118.421875 C 161.875 118.601562 161.8125 118.75 161.6875 118.875 C 161.5625 119 161.410156 119.0625 161.234375 119.0625 C 161.058594 119.0625 160.90625 119 160.78125 118.875 C 160.65625 118.75 160.59375 118.601562 160.59375 118.421875 C 160.59375 118.246094 160.65625 118.097656 160.78125 117.972656 C 160.90625 117.847656 161.058594 117.785156 161.234375 117.785156 C 161.410156 117.785156 161.5625 117.847656 161.6875 117.972656 C 161.8125 118.097656 161.875 118.246094 161.875 118.421875 Z M 161.875 118.421875 " fill-opacity="1" fill-rule="nonzero"/><path fill="#020000" d="M 168.878906 123.921875 C 168.878906 124.097656 168.816406 124.246094 168.691406 124.371094 C 168.566406 124.496094 168.414062 124.558594 168.238281 124.558594 C 168.0625 124.558594 167.910156 124.496094 167.785156 124.371094 C 167.660156 124.246094 167.597656 124.097656 167.597656 123.921875 C 167.597656 123.742188 167.660156 123.59375 167.785156 123.46875 C 167.910156 123.34375 168.0625 123.28125 168.238281 123.28125 C 168.414062 123.28125 168.566406 123.34375 168.691406 123.46875 C 168.816406 123.59375 168.878906 123.742188 168.878906 123.921875 Z M 168.878906 123.921875 " fill-opacity="1" fill-rule="nonzero"/><path fill="#020000" d="M 137.519531 82.753906 C 137.519531 82.929688 137.457031 83.078125 137.332031 83.203125 C 137.207031 83.328125 137.058594 83.390625 136.882812 83.390625 C 136.703125 83.390625 136.554688 83.328125 136.429688 83.203125 C 136.304688 83.078125 136.242188 82.929688 136.242188 82.753906 C 136.242188 82.574219 136.304688 82.425781 136.429688 82.300781 C 136.554688 82.175781 136.703125 82.113281 136.882812 82.113281 C 137.058594 82.113281 137.207031 82.175781 137.332031 82.300781 C 137.457031 82.425781 137.519531 82.574219 137.519531 82.753906 Z M 137.519531 82.753906 " fill-opacity="1" fill-rule="nonzero"/><path fill="#020000" d="M 148.84375 96.683594 C 148.84375 96.859375 148.78125 97.011719 148.660156 97.136719 C 148.535156 97.261719 148.382812 97.324219 148.207031 97.324219 C 148.03125 97.324219 147.878906 97.261719 147.753906 97.136719 C 147.628906 97.011719 147.566406 96.859375 147.566406 96.683594 C 147.566406 96.507812 147.628906 96.359375 147.753906 96.234375 C 147.878906 96.109375 148.03125 96.046875 148.207031 96.046875 C 148.382812 96.046875 148.535156 96.109375 148.660156 96.234375 C 148.78125 96.359375 148.84375 96.507812 148.84375 96.683594 Z M 148.84375 96.683594 " fill-opacity="1" fill-rule="nonzero"/><path fill="#020000" d="M 121.757812 90.257812 C 121.757812 90.433594 121.695312 90.585938 121.570312 90.710938 C 121.445312 90.835938 121.296875 90.898438 121.117188 90.898438 C 120.941406 90.898438 120.792969 90.835938 120.667969 90.710938 C 120.542969 90.585938 120.480469 90.433594 120.480469 90.257812 C 120.480469 90.082031 120.542969 89.929688 120.667969 89.808594 C 120.792969 89.683594 120.941406 89.621094 121.117188 89.621094 C 121.296875 89.621094 121.445312 89.683594 121.570312 89.808594 C 121.695312 89.929688 121.757812 90.082031 121.757812 90.257812 Z M 121.757812 90.257812 " fill-opacity="1" fill-rule="nonzero"/><path fill="#020000" d="M 134.105469 41.355469 C 134.105469 41.53125 134.042969 41.679688 133.917969 41.804688 C 133.792969 41.929688 133.644531 41.992188 133.46875 41.992188 C 133.289062 41.992188 133.140625 41.929688 133.015625 41.804688 C 132.890625 41.679688 132.828125 41.53125 132.828125 41.355469 C 132.828125 41.175781 132.890625 41.027344 133.015625 40.902344 C 133.140625 40.777344 133.289062 40.714844 133.46875 40.714844 C 133.644531 40.714844 133.792969 40.777344 133.917969 40.902344 C 134.042969 41.027344 134.105469 41.175781 134.105469 41.355469 Z M 134.105469 41.355469 " fill-opacity="1" fill-rule="nonzero"/><path fill="#020000" d="M 156.144531 38.578125 C 156.144531 38.753906 156.082031 38.902344 155.957031 39.027344 C 155.832031 39.152344 155.683594 39.214844 155.507812 39.214844 C 155.328125 39.214844 155.179688 39.152344 155.054688 39.027344 C 154.929688 38.902344 154.867188 38.753906 154.867188 38.578125 C 154.867188 38.398438 154.929688 38.25 155.054688 38.125 C 155.179688 38 155.328125 37.9375 155.507812 37.9375 C 155.683594 37.9375 155.832031 38 155.957031 38.125 C 156.082031 38.25 156.144531 38.398438 156.144531 38.578125 Z M 156.144531 38.578125 " fill-opacity="1" fill-rule="nonzero"/><path fill="#020000" d="M 90.894531 56.890625 C 90.894531 57.066406 90.832031 57.21875 90.707031 57.339844 C 90.582031 57.464844 90.433594 57.527344 90.253906 57.527344 C 90.078125 57.527344 89.929688 57.464844 89.804688 57.339844 C 89.679688 57.21875 89.617188 57.066406 89.617188 56.890625 C 89.617188 56.714844 89.679688 56.5625 89.804688 56.4375 C 89.929688 56.3125 90.078125 56.25 90.253906 56.25 C 90.433594 56.25 90.582031 56.3125 90.707031 56.4375 C 90.832031 56.5625 90.894531 56.714844 90.894531 56.890625 Z M 90.894531 56.890625 " fill-opacity="1" fill-rule="nonzero"/><path fill="#020000" d="M 84.070312 26.429688 C 84.070312 26.605469 84.007812 26.757812 83.882812 26.882812 C 83.757812 27.007812 83.605469 27.070312 83.429688 27.070312 C 83.253906 27.070312 83.101562 27.007812 82.976562 26.882812 C 82.851562 26.757812 82.789062 26.605469 82.789062 26.429688 C 82.789062 26.253906 82.851562 26.101562 82.976562 25.980469 C 83.101562 25.855469 83.253906 25.792969 83.429688 25.792969 C 83.605469 25.792969 83.757812 25.855469 83.882812 25.980469 C 84.007812 26.101562 84.070312 26.253906 84.070312 26.429688 Z M 84.070312 26.429688 " fill-opacity="1" fill-rule="nonzero"/><path fill="#020000" d="M 62.410156 39.335938 C 62.410156 39.511719 62.347656 39.664062 62.222656 39.785156 C 62.097656 39.910156 61.945312 39.972656 61.769531 39.972656 C 61.59375 39.972656 61.441406 39.910156 61.316406 39.785156 C 61.191406 39.664062 61.128906 39.511719 61.128906 39.335938 C 61.128906 39.160156 61.191406 39.007812 61.316406 38.882812 C 61.441406 38.757812 61.59375 38.695312 61.769531 38.695312 C 61.945312 38.695312 62.097656 38.757812 62.222656 38.882812 C 62.347656 39.007812 62.410156 39.160156 62.410156 39.335938 Z M 62.410156 39.335938 " fill-opacity="1" fill-rule="nonzero"/><path fill="#020000" d="M 75.558594 91.953125 C 75.558594 92.132812 75.496094 92.28125 75.371094 92.40625 C 75.246094 92.53125 75.09375 92.59375 74.917969 92.59375 C 74.742188 92.59375 74.589844 92.53125 74.464844 92.40625 C 74.339844 92.28125 74.277344 92.132812 74.277344 91.953125 C 74.277344 91.777344 74.339844 91.628906 74.464844 91.503906 C 74.589844 91.378906 74.742188 91.316406 74.917969 91.316406 C 75.09375 91.316406 75.246094 91.378906 75.371094 91.503906 C 75.496094 91.628906 75.558594 91.777344 75.558594 91.953125 Z M 75.558594 91.953125 " fill-opacity="1" fill-rule="nonzero"/><path fill="#020000" d="M 85.035156 89.089844 C 85.035156 89.265625 84.972656 89.414062 84.847656 89.539062 C 84.722656 89.664062 84.574219 89.726562 84.398438 89.726562 C 84.21875 89.726562 84.070312 89.664062 83.945312 89.539062 C 83.820312 89.414062 83.757812 89.265625 83.757812 89.089844 C 83.757812 88.910156 83.820312 88.761719 83.945312 88.636719 C 84.070312 88.511719 84.21875 88.449219 84.398438 88.449219 C 84.574219 88.449219 84.722656 88.511719 84.847656 88.636719 C 84.972656 88.761719 85.035156 88.910156 85.035156 89.089844 Z M 85.035156 89.089844 " fill-opacity="1" fill-rule="nonzero"/><path fill="#020000" d="M 83.863281 102.652344 C 83.859375 102.828125 83.800781 102.976562 83.675781 103.101562 C 83.550781 103.226562 83.398438 103.289062 83.222656 103.289062 C 83.046875 103.289062 82.894531 103.226562 82.769531 103.101562 C 82.644531 102.976562 82.582031 102.828125 82.582031 102.652344 C 82.582031 102.476562 82.644531 102.324219 82.769531 102.199219 C 82.894531 102.074219 83.046875 102.011719 83.222656 102.011719 C 83.398438 102.011719 83.550781 102.074219 83.675781 102.199219 C 83.800781 102.324219 83.859375 102.476562 83.863281 102.652344 Z M 83.863281 102.652344 " fill-opacity="1" fill-rule="nonzero"/><path fill="#020000" d="M 92.632812 94.828125 C 92.632812 95.003906 92.570312 95.15625 92.445312 95.28125 C 92.320312 95.40625 92.171875 95.46875 91.992188 95.46875 C 91.816406 95.46875 91.667969 95.40625 91.542969 95.28125 C 91.417969 95.15625 91.355469 95.003906 91.355469 94.828125 C 91.355469 94.652344 91.417969 94.5 91.542969 94.378906 C 91.667969 94.253906 91.816406 94.191406 91.992188 94.191406 C 92.171875 94.191406 92.320312 94.253906 92.445312 94.378906 C 92.570312 94.5 92.632812 94.652344 92.632812 94.828125 Z M 92.632812 94.828125 " fill-opacity="1" fill-rule="nonzero"/><path fill="#020000" d="M 81.328125 42.351562 C 81.328125 42.527344 81.265625 42.679688 81.140625 42.804688 C 81.015625 42.929688 80.863281 42.992188 80.6875 42.992188 C 80.511719 42.992188 80.359375 42.929688 80.234375 42.804688 C 80.109375 42.679688 80.046875 42.527344 80.046875 42.351562 C 80.046875 42.175781 80.109375 42.023438 80.234375 41.898438 C 80.359375 41.777344 80.511719 41.714844 80.6875 41.714844 C 80.863281 41.714844 81.015625 41.777344 81.140625 41.898438 C 81.265625 42.023438 81.328125 42.175781 81.328125 42.351562 Z M 81.328125 42.351562 " fill-opacity="1" fill-rule="nonzero"/><path fill="#020000" d="M 114.089844 15.421875 C 114.089844 15.597656 114.027344 15.75 113.902344 15.875 C 113.777344 16 113.625 16.0625 113.449219 16.0625 C 113.273438 16.0625 113.121094 16 112.996094 15.875 C 112.871094 15.75 112.808594 15.597656 112.808594 15.421875 C 112.808594 15.246094 112.871094 15.09375 112.996094 14.96875 C 113.121094 14.84375 113.273438 14.78125 113.449219 14.78125 C 113.625 14.78125 113.777344 14.84375 113.902344 14.96875 C 114.027344 15.09375 114.089844 15.246094 114.089844 15.421875 Z M 114.089844 15.421875 " fill-opacity="1" fill-rule="nonzero"/><path fill="#020000" d="M 104.875 31.039062 C 104.875 31.214844 104.8125 31.363281 104.6875 31.488281 C 104.5625 31.613281 104.410156 31.675781 104.234375 31.675781 C 104.058594 31.675781 103.90625 31.613281 103.78125 31.488281 C 103.65625 31.363281 103.59375 31.214844 103.59375 31.039062 C 103.59375 30.863281 103.65625 30.710938 103.78125 30.585938 C 103.90625 30.460938 104.058594 30.398438 104.234375 30.398438 C 104.410156 30.398438 104.5625 30.460938 104.6875 30.585938 C 104.8125 30.710938 104.875 30.863281 104.875 31.039062 Z M 104.875 31.039062 " fill-opacity="1" fill-rule="nonzero"/><path fill="#020000" d="M 110.3125 23.558594 C 110.3125 23.738281 110.25 23.886719 110.125 24.011719 C 110 24.136719 109.851562 24.199219 109.671875 24.199219 C 109.496094 24.199219 109.347656 24.136719 109.222656 24.011719 C 109.097656 23.886719 109.035156 23.738281 109.035156 23.558594 C 109.035156 23.382812 109.097656 23.234375 109.222656 23.109375 C 109.347656 22.984375 109.496094 22.921875 109.671875 22.921875 C 109.851562 22.921875 110 22.984375 110.125 23.109375 C 110.25 23.234375 110.3125 23.382812 110.3125 23.558594 Z M 110.3125 23.558594 " fill-opacity="1" fill-rule="nonzero"/><path fill="#020000" d="M 119.242188 31.898438 C 119.242188 32.074219 119.179688 32.222656 119.054688 32.347656 C 118.929688 32.472656 118.777344 32.535156 118.601562 32.535156 C 118.425781 32.535156 118.273438 32.472656 118.152344 32.347656 C 118.027344 32.222656 117.964844 32.074219 117.964844 31.898438 C 117.964844 31.722656 118.027344 31.570312 118.152344 31.445312 C 118.273438 31.320312 118.425781 31.257812 118.601562 31.257812 C 118.777344 31.257812 118.929688 31.320312 119.054688 31.445312 C 119.179688 31.570312 119.242188 31.722656 119.242188 31.898438 Z M 119.242188 31.898438 " fill-opacity="1" fill-rule="nonzero"/><path fill="#020000" d="M 108.21875 66.550781 C 108.097656 66.558594 107.992188 66.519531 107.902344 66.433594 C 107.8125 66.351562 107.765625 66.246094 107.765625 66.125 C 107.765625 66 107.8125 65.898438 107.902344 65.8125 C 107.992188 65.730469 108.097656 65.691406 108.21875 65.695312 C 109.417969 65.695312 110.691406 65.128906 111.808594 64.105469 C 112.835938 63.160156 113.628906 61.953125 114.394531 60.78125 C 114.78125 60.1875 115.132812 59.535156 115.472656 58.90625 C 115.730469 58.429688 115.988281 57.945312 116.269531 57.476562 C 116.003906 56.5 115.851562 55.507812 115.8125 54.496094 C 115.789062 53.769531 115.785156 53.019531 115.777344 52.300781 C 115.765625 50.597656 115.753906 48.839844 115.480469 47.167969 C 115.296875 46.046875 114.609375 45.175781 113.6875 44.890625 C 112.824219 44.621094 111.914062 44.910156 111.183594 45.675781 C 109.804688 47.128906 109.164062 49.28125 108.601562 51.183594 C 107.765625 54.007812 107.378906 56.8125 107.480469 59.300781 C 107.484375 59.421875 107.449219 59.523438 107.367188 59.609375 C 107.289062 59.695312 107.191406 59.742188 107.070312 59.746094 C 106.953125 59.75 106.851562 59.714844 106.765625 59.632812 C 106.679688 59.554688 106.632812 59.457031 106.628906 59.335938 C 106.472656 55.558594 106.035156 51.8125 105.316406 48.097656 C 105.101562 46.992188 104.796875 45.765625 103.890625 45.1875 C 102.859375 44.523438 101.429688 44.949219 100.042969 45.484375 C 99.929688 45.527344 99.824219 45.527344 99.714844 45.480469 C 99.605469 45.433594 99.53125 45.355469 99.488281 45.246094 C 99.445312 45.136719 99.445312 45.027344 99.492188 44.917969 C 99.539062 44.8125 99.617188 44.734375 99.726562 44.691406 C 101.328125 44.058594 102.996094 43.59375 104.355469 44.457031 C 105.488281 45.183594 105.890625 46.554688 106.160156 47.929688 C 106.539062 49.898438 106.84375 51.894531 107.070312 53.898438 C 107.285156 52.773438 107.542969 51.765625 107.789062 50.9375 C 108.378906 48.945312 109.046875 46.6875 110.570312 45.085938 C 111.511719 44.09375 112.773438 43.714844 113.941406 44.074219 C 115.175781 44.453125 116.089844 45.585938 116.328125 47.03125 C 116.609375 48.773438 116.625 50.5625 116.636719 52.296875 C 116.636719 53.011719 116.644531 53.753906 116.671875 54.472656 C 116.695312 55.15625 116.773438 55.835938 116.914062 56.507812 C 117.351562 55.890625 117.875 55.359375 118.484375 54.910156 C 119.351562 54.285156 121.078125 53.3125 122.894531 53.835938 C 124.714844 54.355469 125.941406 56.410156 125.554688 58.320312 C 125.292969 59.613281 124.292969 60.753906 122.878906 61.375 C 121.460938 62 119.953125 61.96875 118.832031 61.292969 C 117.773438 60.660156 117.089844 59.632812 116.640625 58.554688 C 116.507812 58.804688 116.371094 59.0625 116.226562 59.316406 C 115.878906 59.964844 115.519531 60.632812 115.113281 61.253906 C 114.316406 62.464844 113.496094 63.722656 112.386719 64.742188 C 111.117188 65.910156 109.636719 66.554688 108.222656 66.558594 Z M 117.199219 57.589844 C 117.601562 58.84375 118.277344 59.953125 119.269531 60.550781 C 120.152344 61.082031 121.375 61.085938 122.527344 60.585938 C 123.683594 60.082031 124.507812 59.160156 124.714844 58.140625 C 125.011719 56.675781 124.050781 55.039062 122.65625 54.644531 C 121.582031 54.339844 120.234375 54.683594 118.976562 55.597656 C 118.246094 56.128906 117.691406 56.820312 117.199219 57.589844 Z M 117.199219 57.589844 " fill-opacity="1" fill-rule="nonzero"/></svg>