<svg xmlns="http://www.w3.org/2000/svg" xmlns:xlink="http://www.w3.org/1999/xlink" width="300" zoomAndPan="magnify" viewBox="0 0 224.87999 74.999997" height="100" preserveAspectRatio="xMidYMid meet" version="1.0"><path stroke-linecap="butt" transform="matrix(0.35475, 0, 0, 0.35475, 31.370303, 13.022221)" fill="none" stroke-linejoin="miter" d="M 106.569248 47.847375 L 101.261818 44.786243 C 100.656199 44.488939 100.149681 44.566018 99.764286 45.006468 C 98.872374 46.06355 97.980462 46.812316 97.01147 47.395913 C 96.031468 47.990521 95.062476 48.519062 94.170564 48.816366 C 93.201573 49.124681 92.30966 49.344907 91.417748 49.410974 C 90.503813 49.565132 89.766058 49.565132 89.182461 49.565132 C 87.971222 49.565132 86.550769 49.410974 84.91009 49.036591 C 83.269412 48.662208 81.628733 47.847375 80.065134 46.492989 C 78.490523 45.237705 77.147149 43.36579 76.035011 40.833199 C 74.900851 38.366676 74.394332 34.997229 74.394332 30.680813 C 74.394332 26.408442 74.900851 23.061018 76.035011 20.528427 C 77.147149 17.995836 78.490523 16.11291 80.065134 14.769535 C 81.628733 13.50324 83.269412 12.688406 84.91009 12.303012 C 86.550769 11.93964 87.971222 11.697392 89.182461 11.697392 C 89.766058 11.697392 90.503813 11.796494 91.417748 11.862561 C 92.30966 12.016719 93.201573 12.225933 94.170564 12.54526 C 95.062476 12.831553 96.031468 13.283015 97.01147 13.866612 C 97.980462 14.472231 98.872374 15.298076 99.764286 16.256056 C 100.149681 16.718529 100.656199 16.861676 101.261818 16.564372 L 106.569248 13.437172 C 106.855541 13.283015 107.02071 13.051778 107.097789 12.688406 C 107.163856 12.380091 107.097789 12.082787 106.93262 11.796494 C 104.851491 8.944576 102.23081 6.852436 99.257768 5.431983 C 96.262704 4.033552 92.893257 3.284786 89.182461 3.284786 C 85.438631 3.284786 81.992105 4.033552 79.019064 5.431983 C 76.035011 6.852436 73.480397 8.944576 71.41028 11.796494 C 69.615444 14.185938 68.19499 17.004822 67.303078 20.143033 C 66.389143 23.347311 65.959704 26.870915 65.959704 30.680813 C 65.959704 38.366676 67.743529 44.643097 71.41028 49.565132 C 75.649617 55.224922 81.562666 57.999761 89.182461 57.999761 C 92.893257 57.999761 96.262704 57.328074 99.257768 55.907621 C 102.23081 54.487167 104.851491 52.406038 106.93262 49.565132 L 106.93262 49.488053 C 107.097789 49.267828 107.163856 48.959512 107.097789 48.596141 C 107.02071 48.298837 106.855541 47.990521 106.569248 47.847375 Z M 143.743278 9.550196 L 143.743278 5.431983 C 143.743278 4.848386 143.523053 4.396924 143.06058 3.956473 C 142.63114 3.505012 142.168667 3.284786 141.58507 3.284786 L 119.045011 3.284786 C 118.439391 3.284786 117.910851 3.505012 117.4704 3.956473 C 117.018938 4.396924 116.875792 4.848386 116.875792 5.431983 L 116.875792 55.830542 C 116.875792 56.436161 117.018938 56.964702 117.4704 57.394141 C 117.910851 57.856614 118.439391 57.999761 119.045011 57.999761 L 141.58507 57.999761 C 142.168667 57.999761 142.63114 57.856614 143.06058 57.394141 C 143.523053 56.964702 143.743278 56.436161 143.743278 55.830542 L 143.743278 51.734351 C 143.743278 51.128732 143.523053 50.688281 143.06058 50.236819 C 142.63114 49.774346 142.168667 49.565132 141.58507 49.565132 L 127.457617 49.565132 C 126.87402 49.565132 126.34548 49.410974 125.894018 48.959512 C 125.453567 48.519062 125.310421 47.990521 125.310421 47.395913 L 125.310421 31.110252 C 125.310421 30.526655 125.453567 30.075193 125.894018 29.634743 C 126.34548 29.183281 126.87402 28.963056 127.457617 28.963056 L 136.79517 28.963056 C 137.400789 28.963056 137.92933 28.731819 138.358769 28.291368 C 138.821243 27.828895 139.041468 27.322377 139.041468 26.716758 L 139.041468 22.697646 C 139.041468 22.092026 138.821243 21.640565 138.358769 21.200114 C 137.92933 20.737641 137.400789 20.528427 136.79517 20.528427 L 127.457617 20.528427 C 126.87402 20.528427 126.34548 20.374269 125.894018 19.922807 C 125.453567 19.471345 125.310421 18.953816 125.310421 18.359208 L 125.310421 13.866612 C 125.310421 13.283015 125.453567 12.831553 125.894018 12.380091 C 126.34548 11.93964 126.87402 11.697392 127.457617 11.697392 L 141.58507 11.697392 C 142.168667 11.697392 142.63114 11.554246 143.06058 11.113795 C 143.523053 10.662334 143.743278 10.133793 143.743278 9.550196 Z M 176.215498 49.565132 L 164.04805 49.565132 C 163.464453 49.565132 162.935912 49.410974 162.473439 48.959512 C 162.032989 48.519062 161.889842 47.990521 161.889842 47.395913 L 161.889842 5.431983 C 161.889842 4.848386 161.658606 4.396924 161.218155 3.956473 C 160.766693 3.505012 160.326243 3.284786 159.720623 3.284786 L 155.624433 3.284786 C 155.018813 3.284786 154.490272 3.505012 154.049822 3.956473 C 153.59836 4.396924 153.455213 4.848386 153.455213 5.431983 L 153.455213 55.830542 C 153.455213 56.436161 153.59836 56.964702 154.049822 57.394141 C 154.490272 57.856614 155.018813 57.999761 155.624433 57.999761 L 176.215498 57.999761 C 176.821117 57.999761 177.261568 57.856614 177.71303 57.394141 C 178.164492 56.964702 178.384717 56.436161 178.384717 55.830542 L 178.384717 51.734351 C 178.384717 51.128732 178.164492 50.688281 177.71303 50.236819 C 177.261568 49.774346 176.821117 49.565132 176.215498 49.565132 Z M 214.964138 9.550196 L 214.964138 5.431983 C 214.964138 4.848386 214.743913 4.396924 214.28144 3.956473 C 213.852001 3.505012 213.389528 3.284786 212.80593 3.284786 L 190.265872 3.284786 C 189.660252 3.284786 189.131711 3.505012 188.691261 3.956473 C 188.239799 4.396924 188.096652 4.848386 188.096652 5.431983 L 188.096652 55.830542 C 188.096652 56.436161 188.239799 56.964702 188.691261 57.394141 C 189.131711 57.856614 189.660252 57.999761 190.265872 57.999761 L 212.80593 57.999761 C 213.389528 57.999761 213.852001 57.856614 214.28144 57.394141 C 214.743913 56.964702 214.964138 56.436161 214.964138 55.830542 L 214.964138 51.734351 C 214.964138 51.128732 214.743913 50.688281 214.28144 50.236819 C 213.852001 49.774346 213.389528 49.565132 212.80593 49.565132 L 198.689489 49.565132 C 198.105892 49.565132 197.577351 49.410974 197.114878 48.959512 C 196.674428 48.519062 196.531281 47.990521 196.531281 47.395913 L 196.531281 31.110252 C 196.531281 30.526655 196.674428 30.075193 197.114878 29.634743 C 197.577351 29.183281 198.105892 28.963056 198.689489 28.963056 L 208.01603 28.963056 C 208.62165 28.963056 209.150191 28.731819 209.57963 28.291368 C 210.042103 27.828895 210.262328 27.322377 210.262328 26.716758 L 210.262328 22.697646 C 210.262328 22.092026 210.042103 21.640565 209.57963 21.200114 C 209.150191 20.737641 208.62165 20.528427 208.01603 20.528427 L 198.689489 20.528427 C 198.105892 20.528427 197.577351 20.374269 197.114878 19.922807 C 196.674428 19.471345 196.531281 18.953816 196.531281 18.359208 L 196.531281 13.866612 C 196.531281 13.283015 196.674428 12.831553 197.114878 12.380091 C 197.577351 11.93964 198.105892 11.697392 198.689489 11.697392 L 212.80593 11.697392 C 213.389528 11.697392 213.852001 11.554246 214.28144 11.113795 C 214.743913 10.662334 214.964138 10.133793 214.964138 9.550196 Z M 238.032738 3.284786 C 233.628232 3.284786 230.346875 4.462992 228.177656 6.775357 C 225.931358 9.164802 224.896299 12.446158 224.896299 16.718529 C 224.896299 18.282129 225.039446 19.702582 225.347761 21.034945 C 225.645065 22.378319 226.239674 23.732705 226.98844 25.076079 C 227.737206 26.408442 228.772264 27.762828 230.049571 29.106202 C 231.238788 30.460588 232.802387 31.936097 234.685314 33.433629 C 236.083744 34.633857 237.283972 35.745995 238.252963 36.803076 C 239.243977 37.838135 240.058811 38.730047 240.642408 39.62196 C 241.248027 40.535895 241.62241 41.427807 241.919715 42.31972 C 242.13994 43.222644 242.283086 44.180624 242.283086 45.072536 C 242.283086 47.02153 241.842636 48.375915 241.027802 49.124681 C 240.201957 49.939515 239.078808 50.302887 237.669366 50.302887 C 236.182846 50.302887 235.048685 49.939515 234.299919 49.124681 C 233.485086 48.375915 233.110703 47.02153 233.110703 45.072536 L 233.110703 42.925339 C 233.110703 42.473878 232.879466 42.110506 232.582162 41.791179 C 232.207779 41.504886 231.844407 41.262638 231.381934 41.262638 L 226.316752 41.262638 C 225.865291 41.262638 225.42484 41.504886 225.116524 41.791179 C 224.81922 42.110506 224.676074 42.473878 224.676074 42.925339 L 224.676074 44.566018 C 224.676074 48.882434 225.788212 52.262892 228.03451 54.575257 C 230.269796 56.887623 233.551153 57.999761 237.96667 57.999761 C 242.283086 57.999761 245.586466 56.887623 247.821752 54.575257 C 250.046028 52.262892 251.180188 48.882434 251.180188 44.566018 C 251.180188 43.068486 250.959963 41.581965 250.651647 40.227579 C 250.354343 38.884205 249.825803 37.61791 249.077037 36.274535 C 248.339282 34.92015 247.293212 33.598798 246.015905 32.244413 C 244.760621 30.901038 243.197021 29.403506 241.391174 27.828895 C 239.893642 26.65069 238.715436 25.593609 237.746445 24.547538 C 236.755431 23.51248 236.017677 22.532477 235.43408 21.640565 C 234.82846 20.737641 234.376998 19.922807 234.156773 19.030895 C 233.859469 18.138982 233.793401 17.24707 233.793401 16.189989 C 233.793401 14.329085 234.156773 12.974699 234.905539 12.159866 C 235.654305 11.334021 236.755431 10.882559 238.252963 10.882559 C 239.673417 10.882559 240.807577 11.334021 241.53432 12.159866 C 242.283086 12.974699 242.668481 14.329085 242.668481 16.189989 L 242.668481 16.718529 C 242.668481 17.24707 242.811627 17.676509 243.119942 17.995836 C 243.417247 18.282129 243.846686 18.425275 244.375227 18.425275 L 249.396363 18.425275 C 249.825803 18.425275 250.288276 18.282129 250.574569 17.995836 C 250.871873 17.676509 251.103109 17.24707 251.103109 16.718529 C 251.103109 12.446158 249.97996 9.164802 247.821752 6.775357 C 245.586466 4.462992 242.371176 3.284786 238.032738 3.284786 Z M 291.712654 9.550196 L 291.712654 5.431983 C 291.712654 4.848386 291.492428 4.396924 291.051978 3.956473 C 290.600516 3.505012 290.071975 3.284786 289.488378 3.284786 L 263.050332 3.284786 C 262.455723 3.284786 261.927183 3.505012 261.486732 3.956473 C 261.03527 4.396924 260.881112 4.848386 260.881112 5.431983 L 260.881112 9.550196 C 260.881112 10.133793 261.03527 10.662334 261.486732 11.113795 C 261.927183 11.554246 262.455723 11.697392 263.050332 11.697392 L 269.91035 11.697392 C 270.504958 11.697392 270.967431 11.93964 271.39687 12.380091 C 271.859343 12.831553 272.079569 13.283015 272.079569 13.866612 L 272.079569 55.830542 C 272.079569 56.436161 272.222715 56.964702 272.674177 57.394141 C 273.13665 57.856614 273.643168 57.999761 274.248788 57.999761 L 278.278911 57.999761 C 278.873519 57.999761 279.40206 57.856614 279.84251 57.394141 C 280.293972 56.964702 280.514198 56.436161 280.514198 55.830542 L 280.514198 13.866612 C 280.514198 13.283015 280.657344 12.831553 281.119817 12.380091 C 281.549256 11.93964 282.077797 11.697392 282.683417 11.697392 L 289.488378 11.697392 C 290.071975 11.697392 290.600516 11.554246 291.051978 11.113795 C 291.492428 10.662334 291.712654 10.133793 291.712654 9.550196 Z M 307.689999 3.284786 L 303.593808 3.284786 C 302.988189 3.284786 302.459648 3.505012 302.019198 3.956473 C 301.567736 4.396924 301.424589 4.848386 301.424589 5.431983 L 301.424589 55.830542 C 301.424589 56.436161 301.567736 56.964702 302.019198 57.394141 C 302.459648 57.856614 302.988189 57.999761 303.593808 57.999761 L 307.689999 57.999761 C 308.295619 57.999761 308.736069 57.856614 309.187531 57.394141 C 309.627982 56.964702 309.859218 56.436161 309.859218 55.830542 L 309.859218 5.431983 C 309.859218 4.848386 309.627982 4.396924 309.187531 3.956473 C 308.736069 3.505012 308.295619 3.284786 307.689999 3.284786 Z M 349.951233 57.999761 L 354.201581 57.999761 C 354.873268 57.999761 355.467877 57.779536 355.93035 57.184927 C 356.3708 56.579308 356.436868 55.973688 356.293722 55.224922 C 355.93035 53.969638 355.622034 53.000647 355.467877 52.262892 C 355.32473 51.580193 355.181584 50.985585 355.016415 50.379966 C 354.873268 49.873447 354.653043 49.267828 354.509897 48.662208 C 354.36675 48.0676 354.047424 47.175688 353.761131 45.986471 C 353.452815 44.786243 353.012365 43.222644 352.483824 41.262638 C 351.955283 39.335667 351.294607 36.803076 350.479774 33.598798 C 349.565839 30.460588 348.53078 26.485521 347.253473 21.783711 C 345.998189 17.147969 344.500657 11.488178 342.7829 4.925465 C 342.617731 4.462992 342.408517 4.033552 342.034134 3.714226 C 341.582672 3.427933 341.142221 3.284786 340.690759 3.284786 L 335.317262 3.284786 C 334.788722 3.284786 334.348271 3.427933 333.962877 3.714226 C 333.522426 4.033552 333.29119 4.462992 333.214111 4.925465 C 332.784671 6.345918 332.256131 8.272889 331.573432 10.80548 C 330.901745 13.360093 330.152979 16.11291 329.338145 19.25112 C 328.512301 22.378319 327.620388 25.659676 326.728476 29.106202 C 325.836563 32.530705 324.944651 35.911164 324.052738 39.192521 C 323.138803 42.473878 322.312959 45.45793 321.575204 48.298837 C 320.826438 51.128732 320.165762 53.441097 319.7143 55.224922 C 319.494075 55.973688 319.637221 56.579308 320.077672 57.184927 C 320.529134 57.779536 321.057674 57.999761 321.80644 57.999761 L 326.056789 57.999761 C 327.091847 57.999761 327.763535 57.47122 328.148929 56.359082 C 328.369154 55.610316 328.589379 54.641325 328.897695 53.518176 C 329.183988 52.472106 329.503314 51.20581 329.866686 49.873447 C 330.152979 48.816366 330.901745 48.210746 332.035905 48.210746 L 343.972116 48.210746 C 345.029198 48.210746 345.755941 48.816366 346.141335 49.873447 C 346.592797 51.657272 346.890101 53.000647 347.176394 54.046717 C 347.48471 55.081776 347.704935 55.830542 347.859093 56.359082 C 348.167408 57.47122 348.916174 57.999761 349.951233 57.999761 Z M 333.29119 37.023301 C 333.742651 35.448691 334.128046 33.885091 334.568496 32.244413 C 335.019958 30.680813 335.460409 29.106202 335.911871 27.465524 C 336.066028 26.936983 336.275242 26.573611 336.737715 26.265296 C 337.101087 25.979003 337.552549 25.824845 338.015022 25.824845 C 338.444461 25.824845 338.829856 25.979003 339.270306 26.265296 C 339.655701 26.573611 339.941993 26.936983 340.08514 27.465524 C 340.547613 29.26036 340.977052 30.967106 341.439525 32.530705 C 341.890987 34.171384 342.254359 35.668916 342.716832 37.023301 C 342.859979 37.772067 342.7829 38.366676 342.331438 38.972295 C 341.890987 39.555892 341.296379 39.787129 340.613681 39.787129 L 335.38333 39.787129 C 334.634564 39.787129 334.128046 39.555892 333.676584 38.972295 C 333.214111 38.366676 333.070964 37.772067 333.29119 37.023301 Z M 388.920099 49.565132 L 376.74164 49.565132 C 376.158043 49.565132 375.629503 49.410974 375.178041 48.959512 C 374.73759 48.519062 374.594444 47.990521 374.594444 47.395913 L 374.594444 5.431983 C 374.594444 4.848386 374.352196 4.396924 373.911745 3.956473 C 373.460283 3.505012 373.019833 3.284786 372.425224 3.284786 L 368.318023 3.284786 C 367.723414 3.284786 367.194874 3.505012 366.754423 3.956473 C 366.29195 4.396924 366.148804 4.848386 366.148804 5.431983 L 366.148804 55.830542 C 366.148804 56.436161 366.29195 56.964702 366.754423 57.394141 C 367.194874 57.856614 367.723414 57.999761 368.318023 57.999761 L 388.920099 57.999761 C 389.514707 57.999761 389.955158 57.856614 390.40662 57.394141 C 390.869093 56.964702 391.089318 56.436161 391.089318 55.830542 L 391.089318 51.734351 C 391.089318 51.128732 390.869093 50.688281 390.40662 50.236819 C 389.955158 49.774346 389.514707 49.565132 388.920099 49.565132 Z M 388.920099 49.565132 " stroke="#000000" stroke-width="1.913334" stroke-opacity="1" stroke-miterlimit="4"/><path stroke-linecap="butt" transform="matrix(0.35475, 0, 0, 0.35475, 31.370303, 13.022221)" fill="none" stroke-linejoin="miter" d="M 139.536975 72.281371 L 133.260554 72.281371 C 132.665946 72.281371 132.137405 72.501597 131.696954 72.953058 C 131.245492 73.393509 131.091335 73.844971 131.091335 74.428568 L 131.091335 124.827127 C 131.091335 125.432746 131.245492 125.961287 131.696954 126.401738 C 132.137405 126.853199 132.665946 126.996346 133.260554 126.996346 L 139.536975 126.996346 C 143.567098 126.996346 147.134747 126.324659 150.438127 124.827127 C 153.642405 123.406673 156.395221 121.479702 158.641519 118.947111 C 160.876806 116.469577 162.660631 113.562603 163.87187 110.270235 C 165.050075 106.988878 165.732774 103.410217 165.732774 99.600319 C 165.732774 95.8675 165.050075 92.277828 163.87187 88.996471 C 162.660631 85.715114 160.876806 82.797129 158.641519 80.341617 C 156.395221 77.875094 153.642405 75.9261 150.438127 74.428568 C 147.134747 73.030137 143.567098 72.281371 139.536975 72.281371 Z M 139.536975 116.249351 L 139.536975 82.940275 C 139.536975 82.356678 139.7572 81.76207 140.208662 81.299597 C 140.649113 80.870158 141.243721 80.704989 141.992487 80.793079 C 144.381931 81.079372 146.485083 81.828138 148.334975 82.874208 C 150.129811 83.997357 151.693411 85.41781 152.970718 87.058489 C 154.148923 88.699167 155.139937 90.63715 155.723534 92.806369 C 156.318142 94.975588 156.703537 97.210875 156.703537 99.600319 C 156.703537 101.989764 156.318142 104.302129 155.723534 106.471348 C 155.139937 108.629556 154.148923 110.57855 152.970718 112.219228 C 151.693411 113.859907 150.129811 115.28036 148.334975 116.315419 C 146.485083 117.449579 144.381931 118.121266 141.992487 118.418571 C 141.243721 118.561717 140.649113 118.418571 140.208662 117.956097 C 139.7572 117.526658 139.536975 116.998117 139.536975 116.249351 Z M 196.189932 126.996346 C 203.060961 126.996346 208.434458 124.155439 212.244356 118.341492 C 215.382566 113.496535 216.946166 107.297193 216.946166 99.677398 C 216.946166 95.944579 216.505715 92.509065 215.756949 89.381865 C 214.942116 86.243655 213.741888 83.402749 212.244356 81.013304 C 208.434458 75.177334 203.060961 72.281371 196.189932 72.281371 C 189.263846 72.281371 183.879338 75.177334 180.146519 81.013304 C 178.571908 83.402749 177.37168 86.243655 176.622914 89.381865 C 175.808081 92.509065 175.444709 95.944579 175.444709 99.677398 C 175.444709 107.297193 177.008309 113.496535 180.146519 118.341492 C 183.879338 124.155439 189.263846 126.996346 196.189932 126.996346 Z M 196.189932 80.704989 C 198.061847 80.704989 199.702525 81.079372 201.056911 81.828138 C 202.378263 82.576904 203.512423 83.468816 204.404335 84.680055 C 205.296248 85.858261 206.045014 87.135567 206.650633 88.556021 C 207.179174 89.965462 207.542546 91.385916 207.828839 92.806369 C 208.137154 94.226822 208.291312 95.581207 208.35738 96.759413 C 208.434458 97.959641 208.511537 98.928632 208.511537 99.677398 C 208.511537 100.426164 208.434458 101.461223 208.35738 102.661451 C 208.291312 103.850667 208.137154 105.205053 207.828839 106.548427 C 207.542546 107.96888 207.179174 109.378322 206.650633 110.798775 C 206.045014 112.219228 205.296248 113.496535 204.404335 114.674741 C 203.512423 115.88598 202.378263 116.777892 201.056911 117.526658 C 199.702525 118.264413 198.061847 118.561717 196.189932 118.561717 C 194.251949 118.561717 192.68835 118.264413 191.333964 117.526658 C 190.001601 116.777892 188.801373 115.88598 187.909461 114.674741 C 187.017548 113.496535 186.268782 112.219228 185.740242 110.798775 C 185.134622 109.378322 184.77125 107.96888 184.462935 106.548427 C 184.176642 105.205053 184.022484 103.850667 183.956417 102.661451 C 183.879338 101.461223 183.879338 100.426164 183.879338 99.677398 C 183.879338 98.928632 183.879338 97.959641 183.956417 96.759413 C 184.022484 95.581207 184.176642 94.226822 184.462935 92.806369 C 184.77125 91.385916 185.134622 89.965462 185.740242 88.556021 C 186.268782 87.135567 187.017548 85.858261 187.909461 84.680055 C 188.801373 83.468816 190.001601 82.576904 191.333964 81.828138 C 192.68835 81.079372 194.251949 80.704989 196.189932 80.704989 Z M 240.014766 72.281371 C 235.61026 72.281371 232.328903 73.470588 230.159684 75.782953 C 227.913386 78.172398 226.878327 81.453755 226.878327 85.715114 C 226.878327 87.278714 227.021473 88.699167 227.329789 90.03153 C 227.627093 91.385916 228.221701 92.72929 228.970467 94.083675 C 229.719233 95.416038 230.754292 96.759413 232.031599 98.113798 C 233.220815 99.457173 234.784415 100.932682 236.667341 102.430214 C 238.065772 103.630442 239.266 104.74258 240.234991 105.799661 C 241.214994 106.845731 242.040838 107.737644 242.624435 108.629556 C 243.230055 109.543491 243.604438 110.435404 243.901742 111.327316 C 244.121967 112.219228 244.265114 113.18822 244.265114 114.080132 C 244.265114 116.029126 243.824663 117.3725 243.00983 118.121266 C 242.183985 118.947111 241.060836 119.310483 239.651394 119.310483 C 238.153862 119.310483 237.030713 118.947111 236.281947 118.121266 C 235.456102 117.3725 235.09273 116.029126 235.09273 114.080132 L 235.09273 111.921924 C 235.09273 111.470462 234.861494 111.107091 234.56419 110.798775 C 234.189807 110.501471 233.815424 110.270235 233.363962 110.270235 L 228.29878 110.270235 C 227.836307 110.270235 227.406868 110.501471 227.098552 110.798775 C 226.801248 111.107091 226.658102 111.470462 226.658102 111.921924 L 226.658102 113.562603 C 226.658102 117.89003 227.770239 121.259477 230.005526 123.571842 C 232.251824 125.884208 235.533181 126.996346 239.948698 126.996346 C 244.265114 126.996346 247.568493 125.884208 249.80378 123.571842 C 252.028056 121.259477 253.162216 117.89003 253.162216 113.562603 C 253.162216 112.076082 252.941991 110.57855 252.633675 109.224164 C 252.336371 107.88079 251.80783 106.625506 251.059064 105.27112 C 250.32131 103.927746 249.275239 102.595383 247.997933 101.240998 C 246.742648 99.897623 245.179049 98.400091 243.373201 96.836492 C 241.875669 95.647275 240.686453 94.590194 239.728473 93.555135 C 238.737459 92.509065 237.988693 91.529062 237.416107 90.63715 C 236.810488 89.745237 236.359026 88.919392 236.138801 88.02748 C 235.841496 87.135567 235.775429 86.243655 235.775429 85.186574 C 235.775429 83.32567 236.138801 81.982295 236.887567 81.156451 C 237.625321 80.341617 238.737459 79.879144 240.234991 79.879144 C 241.655444 79.879144 242.789604 80.341617 243.516348 81.156451 C 244.265114 81.982295 244.650508 83.32567 244.650508 85.186574 L 244.650508 85.715114 C 244.650508 86.243655 244.793655 86.684106 245.10197 86.992421 C 245.399274 87.278714 245.828714 87.432872 246.357254 87.432872 L 251.378391 87.432872 C 251.80783 87.432872 252.270303 87.278714 252.556596 86.992421 C 252.8539 86.684106 253.085137 86.243655 253.085137 85.715114 C 253.085137 81.453755 251.950977 78.172398 249.80378 75.782953 C 247.568493 73.470588 244.353204 72.281371 240.014766 72.281371 Z M 289.730626 78.546781 L 289.730626 74.428568 C 289.730626 73.844971 289.510401 73.393509 289.058939 72.953058 C 288.618488 72.501597 288.167027 72.281371 287.583429 72.281371 L 265.032359 72.281371 C 264.437751 72.281371 263.90921 72.501597 263.46876 72.953058 C 263.006287 73.393509 262.86314 73.844971 262.86314 74.428568 L 262.86314 124.827127 C 262.86314 125.432746 263.006287 125.961287 263.46876 126.401738 C 263.90921 126.853199 264.437751 126.996346 265.032359 126.996346 L 287.583429 126.996346 C 288.167027 126.996346 288.618488 126.853199 289.058939 126.401738 C 289.510401 125.961287 289.730626 125.432746 289.730626 124.827127 L 289.730626 120.730936 C 289.730626 120.125317 289.510401 119.695877 289.058939 119.233404 C 288.618488 118.781942 288.167027 118.561717 287.583429 118.561717 L 273.455977 118.561717 C 272.87238 118.561717 272.343839 118.418571 271.892377 117.956097 C 271.451927 117.526658 271.30878 116.998117 271.30878 116.392498 L 271.30878 100.117849 C 271.30878 99.534251 271.451927 99.071778 271.892377 98.642339 C 272.343839 98.179866 272.87238 97.959641 273.455977 97.959641 L 282.782518 97.959641 C 283.388138 97.959641 283.916678 97.728404 284.357129 97.287953 C 284.808591 96.836492 285.028816 96.318962 285.028816 95.724354 L 285.028816 91.694231 C 285.028816 91.088611 284.808591 90.63715 284.357129 90.196699 C 283.916678 89.745237 283.388138 89.525012 282.782518 89.525012 L 273.455977 89.525012 C 272.87238 89.525012 272.343839 89.381865 271.892377 88.919392 C 271.451927 88.46793 271.30878 87.961412 271.30878 87.355793 L 271.30878 82.874208 C 271.30878 82.290611 271.451927 81.828138 271.892377 81.376676 C 272.343839 80.936225 272.87238 80.704989 273.455977 80.704989 L 287.583429 80.704989 C 288.167027 80.704989 288.618488 80.550831 289.058939 80.121392 C 289.510401 79.658919 289.730626 79.130378 289.730626 78.546781 Z M 312.810237 72.281371 C 308.39472 72.281371 305.113363 73.470588 302.944144 75.782953 C 300.708857 78.172398 299.662787 81.453755 299.662787 85.715114 C 299.662787 87.278714 299.816945 88.699167 300.12526 90.03153 C 300.411553 91.385916 301.017172 92.72929 301.765938 94.083675 C 302.514705 95.416038 303.549763 96.759413 304.82707 98.113798 C 306.005275 99.457173 307.579886 100.932682 309.451801 102.430214 C 310.861243 103.630442 312.061471 104.74258 313.030462 105.799661 C 314.010465 106.845731 314.83631 107.737644 315.419907 108.629556 C 316.014515 109.543491 316.399909 110.435404 316.686202 111.327316 C 316.906428 112.219228 317.049574 113.18822 317.049574 114.080132 C 317.049574 116.029126 316.620135 117.3725 315.79429 118.121266 C 314.979456 118.947111 313.845296 119.310483 312.446865 119.310483 C 310.949333 119.310483 309.815173 118.947111 309.066407 118.121266 C 308.251573 117.3725 307.888202 116.029126 307.888202 114.080132 L 307.888202 111.921924 C 307.888202 111.470462 307.645954 111.107091 307.359661 110.798775 C 306.974267 110.501471 306.610895 110.270235 306.159433 110.270235 L 301.08324 110.270235 C 300.631778 110.270235 300.191328 110.501471 299.883012 110.798775 C 299.596719 111.107091 299.442562 111.470462 299.442562 111.921924 L 299.442562 113.562603 C 299.442562 117.89003 300.554699 121.259477 302.800997 123.571842 C 305.047295 125.884208 308.328652 126.996346 312.733158 126.996346 C 317.049574 126.996346 320.352953 125.884208 322.599251 123.571842 C 324.823527 121.259477 325.946676 117.89003 325.946676 113.562603 C 325.946676 112.076082 325.726451 110.57855 325.418135 109.224164 C 325.131842 107.88079 324.603302 106.625506 323.854536 105.27112 C 323.10577 103.927746 322.070711 102.595383 320.793404 101.240998 C 319.53812 99.897623 317.963509 98.400091 316.157662 96.836492 C 314.671141 95.647275 313.481924 94.590194 312.512933 93.555135 C 311.53293 92.509065 310.784164 91.529062 310.200567 90.63715 C 309.594948 89.745237 309.143486 88.919392 308.923261 88.02748 C 308.636968 87.135567 308.559889 86.243655 308.559889 85.186574 C 308.559889 83.32567 308.923261 81.982295 309.672027 81.156451 C 310.420793 80.341617 311.53293 79.879144 313.030462 79.879144 C 314.450916 79.879144 315.574065 80.341617 316.311819 81.156451 C 317.049574 81.982295 317.434968 83.32567 317.434968 85.186574 L 317.434968 85.715114 C 317.434968 86.243655 317.578115 86.684106 317.897441 86.992421 C 318.183734 87.278714 318.624185 87.432872 319.152726 87.432872 L 324.162851 87.432872 C 324.603302 87.432872 325.054763 87.278714 325.352068 86.992421 C 325.63836 86.684106 325.880608 86.243655 325.880608 85.715114 C 325.880608 81.453755 324.746448 78.172398 322.599251 75.782953 C 320.352953 73.470588 317.148675 72.281371 312.810237 72.281371 Z M 312.810237 72.281371 " stroke="#000000" stroke-width="1.913334" stroke-opacity="1" stroke-miterlimit="4"/></svg>