<svg xmlns="http://www.w3.org/2000/svg" xmlns:xlink="http://www.w3.org/1999/xlink" width="300" zoomAndPan="magnify" viewBox="0 0 224.87999 225" height="300" preserveAspectRatio="xMidYMid meet" version="1.0"><defs><clipPath id="a68aee7520"><path d="M 40.089844 9.144531 L 184.761719 9.144531 L 184.761719 216.03125 L 40.089844 216.03125 Z M 40.089844 9.144531 " clip-rule="nonzero"/></clipPath></defs><path fill="#020000" d="M 116.164062 156.339844 C 115.59375 156.339844 115.027344 156.285156 114.464844 156.175781 C 113.535156 155.992188 112.679688 155.632812 111.894531 155.101562 C 111.082031 154.570312 110.34375 153.910156 109.636719 153.269531 C 109.128906 152.8125 108.605469 152.339844 108.054688 151.914062 C 102.457031 147.609375 98.214844 142.296875 95.78125 136.550781 C 94.824219 134.214844 94.082031 131.816406 93.5625 129.347656 C 93.542969 129.261719 93.554688 129.179688 93.605469 129.101562 C 93.652344 129.027344 93.722656 128.980469 93.808594 128.960938 C 93.898438 128.941406 93.976562 128.957031 94.054688 129.003906 C 94.128906 129.050781 94.175781 129.121094 94.199219 129.207031 C 94.710938 131.636719 95.441406 134 96.382812 136.296875 C 98.777344 141.941406 102.945312 147.164062 108.453125 151.394531 C 109.023438 151.832031 109.558594 152.316406 110.078125 152.78125 C 110.804688 153.433594 111.484375 154.046875 112.261719 154.550781 C 112.972656 155.039062 113.75 155.363281 114.59375 155.53125 C 118.753906 156.34375 122.792969 153.769531 125.1875 151.082031 C 126.078125 150.085938 126.859375 148.972656 127.609375 147.898438 C 127.859375 147.539062 128.113281 147.175781 128.371094 146.8125 C 128.613281 146.480469 128.84375 146.195312 129.066406 145.917969 C 129.585938 145.269531 130.035156 144.710938 130.382812 143.808594 C 131.773438 140.242188 132.632812 136.554688 132.957031 132.742188 C 133.082031 131.230469 133.117188 129.71875 133.054688 128.203125 L 133.054688 128.171875 C 132.949219 125.09375 132.457031 122.078125 131.578125 119.125 C 130.703125 116.171875 129.46875 113.375 127.875 110.738281 C 127.441406 110.015625 126.96875 109.324219 126.453125 108.664062 C 126.4375 108.644531 126.421875 108.621094 126.414062 108.601562 C 126.390625 108.554688 126.375 108.503906 126.378906 108.449219 C 126.378906 108.359375 126.410156 108.285156 126.472656 108.21875 C 126.535156 108.15625 126.613281 108.125 126.703125 108.125 C 126.816406 108.128906 126.910156 108.179688 126.972656 108.277344 C 127.5 108.957031 127.988281 109.664062 128.429688 110.40625 C 130.050781 113.089844 131.308594 115.9375 132.203125 118.949219 C 133.097656 121.957031 133.597656 125.03125 133.707031 128.167969 C 133.769531 129.714844 133.734375 131.261719 133.605469 132.804688 C 133.273438 136.679688 132.402344 140.425781 130.988281 144.050781 C 130.605469 145.046875 130.101562 145.675781 129.570312 146.332031 C 129.351562 146.605469 129.128906 146.882812 128.894531 147.203125 C 128.636719 147.558594 128.386719 147.917969 128.136719 148.277344 C 127.375 149.359375 126.582031 150.496094 125.664062 151.527344 C 123.480469 153.96875 119.960938 156.339844 116.164062 156.339844 Z M 116.164062 156.339844 " fill-opacity="1" fill-rule="nonzero"/><path fill="#020000" d="M 104.625 103.082031 C 104.535156 103.082031 104.457031 103.046875 104.394531 102.984375 C 104.328125 102.917969 104.296875 102.84375 104.296875 102.753906 C 104.300781 102.664062 104.332031 102.585938 104.394531 102.523438 C 104.460938 102.457031 104.535156 102.425781 104.625 102.425781 C 104.714844 102.429688 104.792969 102.460938 104.855469 102.523438 C 104.917969 102.589844 104.953125 102.664062 104.949219 102.753906 C 104.953125 102.847656 104.921875 102.921875 104.855469 102.988281 C 104.792969 103.050781 104.714844 103.082031 104.625 103.082031 Z M 104.625 103.082031 " fill-opacity="1" fill-rule="nonzero"/><path fill="#020000" d="M 113.53125 149.742188 C 112.195312 149.742188 110.902344 149.363281 109.914062 148.617188 C 109.5 148.308594 109.144531 147.941406 108.847656 147.519531 C 108.609375 147.179688 108.15625 146.628906 107.988281 146.527344 C 107.800781 146.488281 107.714844 146.375 107.726562 146.183594 C 107.742188 145.992188 107.847656 145.890625 108.039062 145.882812 C 108.652344 145.859375 109.390625 145.984375 110.035156 146.09375 C 110.210938 146.121094 110.378906 146.152344 110.539062 146.171875 C 111.132812 146.277344 111.730469 146.339844 112.332031 146.363281 C 115.230469 146.421875 118.132812 144.738281 120.605469 143.171875 C 120.738281 143.085938 120.863281 143.09375 120.984375 143.191406 C 121.105469 143.289062 121.140625 143.410156 121.085938 143.558594 C 120.515625 145.105469 119.152344 147.894531 116.429688 149.121094 C 115.507812 149.535156 114.542969 149.742188 113.53125 149.742188 Z M 108.957031 146.585938 C 109.105469 146.765625 109.25 146.960938 109.378906 147.144531 C 109.636719 147.507812 109.945312 147.824219 110.304688 148.09375 C 111.835938 149.242188 114.191406 149.414062 116.164062 148.523438 C 117.757812 147.800781 119.15625 146.273438 120.089844 144.257812 C 117.78125 145.675781 115.167969 147.011719 112.472656 147.011719 L 112.316406 147.011719 C 111.6875 146.988281 111.0625 146.921875 110.441406 146.816406 C 110.277344 146.792969 110.105469 146.761719 109.925781 146.730469 C 109.621094 146.679688 109.285156 146.625 108.960938 146.585938 Z M 108.050781 146.53125 Z M 108.050781 146.53125 " fill-opacity="1" fill-rule="nonzero"/><path fill="#020000" d="M 112.699219 146.894531 C 112.53125 146.894531 112.359375 146.894531 112.179688 146.875 C 111.863281 146.851562 111.542969 146.824219 111.230469 146.796875 C 110.742188 146.75 110.238281 146.703125 109.742188 146.683594 C 108.964844 146.652344 107.636719 146.550781 107.511719 146.25 C 107.457031 146.125 107.476562 146.007812 107.570312 145.90625 C 108.0625 145.355469 108.648438 144.929688 109.324219 144.625 C 109.996094 144.320312 110.703125 144.164062 111.445312 144.15625 C 112.234375 144.15625 112.761719 144.128906 113.417969 143.875 L 113.679688 143.765625 C 114.257812 143.53125 114.859375 143.289062 115.550781 143.28125 C 115.96875 143.296875 116.382812 143.34375 116.792969 143.417969 C 117.097656 143.472656 117.402344 143.511719 117.707031 143.535156 C 119.078125 143.605469 119.550781 143.371094 120.8125 142.742188 L 120.863281 142.714844 C 121.027344 142.628906 121.164062 142.664062 121.273438 142.808594 C 121.382812 142.957031 121.371094 143.097656 121.246094 143.230469 C 121.121094 143.363281 121.007812 143.480469 120.898438 143.597656 C 120.117188 144.433594 119.683594 144.894531 118.371094 145.296875 C 118.109375 145.375 117.847656 145.441406 117.582031 145.507812 C 117.136719 145.613281 116.703125 145.75 116.277344 145.917969 L 115.878906 146.082031 C 114.777344 146.539062 113.945312 146.894531 112.699219 146.894531 Z M 108.503906 145.902344 C 109.007812 145.960938 109.667969 146.027344 109.769531 146.035156 C 110.273438 146.058594 110.789062 146.105469 111.285156 146.152344 C 111.597656 146.179688 111.914062 146.207031 112.230469 146.230469 C 113.625 146.328125 114.421875 145.992188 115.628906 145.480469 L 116.03125 145.308594 C 116.484375 145.128906 116.949219 144.988281 117.425781 144.878906 C 117.683594 144.8125 117.933594 144.742188 118.183594 144.671875 C 118.683594 144.539062 119.140625 144.320312 119.550781 144.007812 C 119.03125 144.167969 118.484375 144.226562 117.679688 144.183594 C 117.347656 144.160156 117.019531 144.121094 116.695312 144.058594 C 116.320312 143.984375 115.941406 143.941406 115.5625 143.9375 C 114.996094 143.945312 114.480469 144.152344 113.929688 144.375 L 113.660156 144.484375 C 112.898438 144.78125 112.289062 144.804688 111.449219 144.8125 C 110.335938 144.820312 109.355469 145.183594 108.503906 145.902344 Z M 108.503906 145.902344 " fill-opacity="1" fill-rule="nonzero"/><path fill="#020000" d="M 158.878906 197.070312 L 158.855469 197.070312 C 158.765625 197.066406 158.691406 197.027344 158.632812 196.960938 C 158.574219 196.894531 158.546875 196.8125 158.554688 196.726562 C 159.363281 184.558594 159.585938 173.769531 154.0625 164.925781 C 151.800781 161.304688 148.648438 158.265625 145.601562 155.324219 C 142.601562 152.425781 139.492188 149.429688 137.210938 145.859375 C 135.523438 143.214844 134.324219 140.367188 133.613281 137.3125 C 132.902344 134.257812 132.722656 131.171875 133.070312 128.054688 C 133.085938 127.972656 133.128906 127.902344 133.199219 127.851562 C 133.265625 127.800781 133.34375 127.777344 133.429688 127.789062 C 133.515625 127.796875 133.585938 127.835938 133.640625 127.902344 C 133.699219 127.96875 133.722656 128.042969 133.71875 128.128906 C 133.375 131.171875 133.550781 134.183594 134.242188 137.164062 C 134.9375 140.144531 136.105469 142.925781 137.753906 145.503906 C 140 149.011719 143.078125 151.980469 146.054688 154.851562 C 149.132812 157.820312 152.3125 160.890625 154.613281 164.574219 C 160.242188 173.585938 160.019531 184.492188 159.203125 196.765625 C 159.199219 196.851562 159.164062 196.925781 159.101562 196.984375 C 159.039062 197.042969 158.964844 197.070312 158.878906 197.070312 Z M 158.878906 197.070312 " fill-opacity="1" fill-rule="nonzero"/><path fill="#020000" d="M 100.492188 196.035156 C 100.300781 196.035156 100.195312 195.941406 100.167969 195.753906 C 99.40625 189.789062 101.851562 184.160156 104.035156 180.492188 C 106.148438 176.941406 108.832031 173.71875 111.429688 170.589844 C 112.160156 169.707031 112.917969 168.796875 113.648438 167.894531 C 114.378906 166.992188 114.964844 166.203125 115.097656 165.25 C 115.230469 164.300781 114.871094 163.3125 114.550781 162.445312 L 111.769531 154.941406 C 111.738281 154.859375 111.742188 154.777344 111.78125 154.695312 C 111.816406 154.613281 111.878906 154.554688 111.960938 154.523438 C 112.046875 154.492188 112.128906 154.496094 112.210938 154.535156 C 112.292969 154.570312 112.351562 154.632812 112.382812 154.71875 L 115.152344 162.21875 C 115.5 163.160156 115.898438 164.230469 115.734375 165.335938 C 115.574219 166.441406 114.894531 167.367188 114.148438 168.300781 C 113.414062 169.203125 112.660156 170.117188 111.921875 171 C 109.351562 174.101562 106.679688 177.3125 104.589844 180.820312 C 102.457031 184.398438 100.070312 189.878906 100.808594 195.664062 C 100.820312 195.75 100.800781 195.832031 100.746094 195.902344 C 100.6875 195.972656 100.617188 196.015625 100.527344 196.027344 Z M 100.492188 196.035156 " fill-opacity="1" fill-rule="nonzero"/><path fill="#020000" d="M 122.597656 197.730469 C 122.414062 197.730469 122.308594 197.640625 122.277344 197.460938 L 120.046875 182.9375 C 120.035156 182.847656 120.054688 182.765625 120.105469 182.691406 C 120.160156 182.621094 120.230469 182.578125 120.320312 182.5625 C 120.410156 182.550781 120.488281 182.570312 120.5625 182.625 C 120.632812 182.675781 120.675781 182.746094 120.691406 182.835938 L 122.917969 197.359375 C 122.933594 197.449219 122.914062 197.527344 122.859375 197.601562 C 122.808594 197.675781 122.738281 197.71875 122.648438 197.730469 Z M 122.597656 197.730469 " fill-opacity="1" fill-rule="nonzero"/><path fill="#020000" d="M 149.121094 194.363281 L 149.109375 194.363281 C 149.019531 194.359375 148.941406 194.324219 148.882812 194.257812 C 148.820312 194.191406 148.792969 194.113281 148.796875 194.023438 C 148.945312 190.707031 149.25 187.359375 149.707031 184.070312 C 149.722656 183.984375 149.769531 183.914062 149.839844 183.863281 C 149.910156 183.8125 149.988281 183.792969 150.074219 183.804688 C 150.160156 183.816406 150.230469 183.855469 150.285156 183.925781 C 150.339844 183.996094 150.363281 184.070312 150.355469 184.160156 C 149.898438 187.425781 149.59375 190.753906 149.449219 194.050781 C 149.445312 194.136719 149.410156 194.210938 149.347656 194.273438 C 149.285156 194.332031 149.210938 194.363281 149.121094 194.363281 Z M 149.121094 194.363281 " fill-opacity="1" fill-rule="nonzero"/><path fill="#020000" d="M 64.378906 198.691406 C 64.289062 198.695312 64.214844 198.667969 64.148438 198.605469 C 64.082031 198.546875 64.046875 198.472656 64.042969 198.382812 C 64.039062 198.292969 64.066406 198.214844 64.125 198.148438 C 64.1875 198.082031 64.261719 198.046875 64.351562 198.042969 C 67.96875 197.71875 71.707031 197.382812 75.0625 195.875 C 81.464844 192.984375 85.90625 187.558594 88.605469 181.199219 C 89.050781 180.167969 89.445312 179.121094 89.785156 178.050781 C 89.988281 177.398438 90.011719 176.300781 90.339844 175.734375 C 88.269531 179.304688 85.277344 182.074219 81.804688 183.613281 C 77 185.746094 69.570312 185.972656 65.457031 182.667969 C 62.828125 180.554688 61.359375 176.164062 62.113281 172.671875 C 62.679688 170.054688 64.425781 168.25 67.03125 167.582031 C 68.582031 167.1875 70.242188 167.589844 71.257812 168.613281 C 71.320312 168.675781 71.355469 168.75 71.355469 168.84375 C 71.355469 168.933594 71.324219 169.007812 71.257812 169.074219 C 71.195312 169.136719 71.117188 169.167969 71.027344 169.167969 C 70.9375 169.167969 70.863281 169.136719 70.796875 169.070312 C 70.585938 168.960938 69.5 169.351562 69.136719 169.597656 C 68.558594 170.007812 68.199219 170.5625 68.054688 171.257812 C 67.601562 173.507812 69.542969 174.613281 70.394531 174.984375 C 72.386719 175.851562 74.648438 175.429688 76.191406 174.921875 C 77.738281 174.414062 80.5625 173.152344 81.890625 170.476562 C 82.820312 168.601562 83.679688 165.699219 83.636719 163.175781 C 82.25 164.183594 80.714844 164.855469 79.035156 165.191406 C 77.355469 165.527344 75.679688 165.5 74.011719 165.105469 C 70.230469 164.175781 67.980469 162.378906 67.320312 159.769531 C 67.089844 158.835938 67.070312 157.898438 67.257812 156.957031 C 67.449219 156.011719 67.828125 155.15625 68.402344 154.382812 C 68.5 154.257812 68.621094 154.21875 68.773438 154.273438 C 68.921875 154.324219 68.996094 154.429688 68.988281 154.589844 C 68.980469 155.3125 69.152344 155.988281 69.503906 156.617188 C 69.859375 157.25 70.347656 157.746094 70.972656 158.113281 C 73.464844 159.523438 75.464844 157.695312 77.09375 155.71875 C 78.480469 154.035156 79.109375 151.769531 78.90625 149.164062 C 78.632812 145.621094 77.1875 142.285156 75.792969 139.0625 C 75.195312 137.679688 74.574219 136.253906 74.058594 134.828125 C 73.714844 133.875 73.414062 132.910156 73.160156 131.929688 C 72.90625 130.949219 72.699219 129.957031 72.539062 128.957031 C 72.378906 127.957031 72.265625 126.949219 72.199219 125.941406 C 72.136719 124.929688 72.117188 123.917969 72.148438 122.902344 C 72.179688 121.890625 72.257812 120.882812 72.386719 119.875 C 72.511719 118.871094 72.6875 117.875 72.90625 116.886719 C 73.128906 115.898438 73.394531 114.921875 73.710938 113.957031 C 74.023438 112.996094 74.382812 112.046875 74.785156 111.117188 C 75.1875 110.191406 75.636719 109.28125 76.125 108.394531 C 76.613281 107.507812 77.144531 106.644531 77.714844 105.808594 C 78.285156 104.972656 78.894531 104.164062 79.542969 103.386719 C 80.191406 102.609375 80.875 101.863281 81.59375 101.148438 C 82.3125 100.433594 83.0625 99.757812 83.84375 99.113281 C 84.628906 98.472656 85.441406 97.867188 86.28125 97.304688 C 87.121094 96.738281 87.984375 96.214844 88.875 95.730469 C 89.765625 95.246094 90.675781 94.808594 91.605469 94.410156 C 94.691406 93.097656 97.832031 92.765625 100.277344 93.492188 C 102.609375 91.191406 106.757812 89.171875 108.878906 88.332031 C 113.113281 86.652344 118.671875 86.910156 122.476562 87.253906 C 130.367188 87.964844 140.285156 93.539062 143.214844 101.636719 C 143.550781 102.554688 143.832031 103.46875 144.105469 104.355469 C 145.015625 107.324219 145.878906 110.125 148.472656 112.347656 C 153.875 116.96875 158.976562 121.332031 158.300781 130.058594 C 158.015625 133.71875 157 137.304688 156.019531 140.773438 L 155.796875 141.5625 C 155.589844 142.300781 155.355469 142.980469 155.121094 143.640625 C 154.375 145.789062 153.734375 147.640625 154.546875 150.132812 C 154.992188 151.507812 155.6875 152.816406 156.359375 154.082031 C 157 155.289062 157.660156 156.53125 158.121094 157.851562 C 159.117188 160.695312 158.179688 163.851562 157.351562 166.636719 C 157.160156 167.269531 156.980469 167.871094 156.824219 168.460938 C 156.800781 168.546875 156.75 168.613281 156.671875 168.660156 C 156.597656 168.703125 156.511719 168.714844 156.425781 168.691406 C 156.339844 168.667969 156.273438 168.621094 156.230469 168.542969 C 156.183594 168.464844 156.171875 168.382812 156.195312 168.292969 C 156.355469 167.695312 156.535156 167.089844 156.726562 166.449219 C 157.566406 163.628906 158.433594 160.714844 157.503906 158.070312 C 157.058594 156.796875 156.410156 155.570312 155.78125 154.390625 C 155.097656 153.097656 154.390625 151.761719 153.925781 150.335938 C 153.042969 147.636719 153.753906 145.59375 154.503906 143.425781 C 154.726562 142.773438 154.960938 142.101562 155.160156 141.382812 L 155.382812 140.597656 C 156.367188 137.15625 157.378906 133.601562 157.648438 130.007812 C 158.300781 121.605469 153.316406 117.347656 148.050781 112.839844 C 145.3125 110.5 144.421875 107.609375 143.480469 104.546875 C 143.210938 103.667969 142.929688 102.761719 142.605469 101.855469 C 139.761719 94 130.105469 88.59375 122.417969 87.902344 C 118.671875 87.566406 113.222656 87.316406 109.121094 88.941406 C 107.003906 89.78125 102.832031 91.808594 100.601562 94.089844 C 100.507812 94.183594 100.394531 94.210938 100.269531 94.171875 C 97.953125 93.414062 94.886719 93.71875 91.863281 95.007812 C 90.949219 95.394531 90.054688 95.828125 89.183594 96.300781 C 88.3125 96.773438 87.464844 97.285156 86.640625 97.839844 C 85.816406 98.394531 85.023438 98.984375 84.253906 99.613281 C 83.488281 100.246094 82.753906 100.910156 82.046875 101.609375 C 81.34375 102.308594 80.675781 103.039062 80.039062 103.800781 C 79.40625 104.5625 78.808594 105.355469 78.246094 106.175781 C 77.6875 106.996094 77.167969 107.839844 76.6875 108.707031 C 76.207031 109.578125 75.769531 110.46875 75.375 111.378906 C 74.980469 112.289062 74.628906 113.214844 74.320312 114.160156 C 74.015625 115.105469 73.75 116.0625 73.535156 117.03125 C 73.316406 118 73.148438 118.976562 73.023438 119.960938 C 72.898438 120.945312 72.824219 121.933594 72.792969 122.925781 C 72.761719 123.921875 72.777344 124.910156 72.84375 125.902344 C 72.90625 126.894531 73.015625 127.878906 73.171875 128.859375 C 73.332031 129.839844 73.535156 130.8125 73.785156 131.773438 C 74.03125 132.734375 74.328125 133.679688 74.664062 134.613281 C 75.175781 136.019531 75.789062 137.4375 76.382812 138.8125 C 77.800781 142.089844 79.265625 145.472656 79.550781 149.125 C 79.769531 151.902344 79.089844 154.328125 77.59375 156.144531 C 75.898438 158.203125 73.578125 160.351562 70.648438 158.691406 C 70.074219 158.351562 69.589844 157.914062 69.203125 157.371094 C 68.816406 156.828125 68.558594 156.226562 68.425781 155.574219 C 67.769531 156.859375 67.609375 158.207031 67.949219 159.609375 C 68.542969 161.96875 70.632812 163.605469 74.160156 164.472656 C 74.988281 164.667969 75.828125 164.769531 76.679688 164.773438 C 77.53125 164.773438 78.371094 164.679688 79.199219 164.492188 C 80.027344 164.300781 80.824219 164.019531 81.589844 163.644531 C 82.355469 163.273438 83.066406 162.816406 83.726562 162.28125 C 83.828125 162.199219 83.941406 162.179688 84.0625 162.230469 C 84.183594 162.285156 84.25 162.375 84.261719 162.503906 C 84.480469 165.28125 83.519531 168.65625 82.472656 170.769531 C 81.414062 172.910156 79.253906 174.605469 76.394531 175.542969 C 74.742188 176.082031 72.316406 176.53125 70.136719 175.585938 C 68.054688 174.679688 67.039062 173.011719 67.417969 171.132812 C 67.589844 170.261719 68.042969 169.570312 68.769531 169.0625 C 69.171875 168.835938 69.59375 168.65625 70.039062 168.519531 C 69.128906 168.0625 68.179688 167.960938 67.195312 168.222656 C 64.179688 168.992188 63.113281 171.144531 62.753906 172.816406 C 62.058594 176.035156 63.453125 180.226562 65.867188 182.164062 C 69.792969 185.3125 76.914062 185.070312 81.539062 183.019531 C 85.257812 181.371094 88.402344 178.257812 90.402344 174.242188 C 90.476562 174.097656 90.597656 174.039062 90.757812 174.070312 C 90.917969 174.101562 91.007812 174.199219 91.019531 174.363281 C 91.355469 178.625 88.988281 182.949219 86.804688 186.441406 C 85.421875 188.632812 83.753906 190.585938 81.800781 192.292969 C 79.847656 194 77.691406 195.390625 75.332031 196.464844 C 71.875 198.027344 68.082031 198.363281 64.410156 198.695312 Z M 64.378906 198.691406 " fill-opacity="1" fill-rule="nonzero"/><path fill="#020000" d="M 93.882812 129.605469 C 93.796875 129.605469 93.722656 129.578125 93.660156 129.515625 C 93.597656 129.457031 93.5625 129.382812 93.558594 129.296875 C 93.546875 129.074219 93.535156 128.84375 93.535156 128.621094 C 93.46875 122.625 94.578125 117.625 96.832031 113.765625 C 97.371094 112.839844 98.0625 111.890625 98.789062 110.882812 C 100.894531 107.980469 103.28125 104.691406 102.269531 101.351562 C 102.226562 101.191406 102.273438 101.070312 102.417969 100.984375 C 102.5625 100.898438 102.695312 100.914062 102.8125 101.035156 C 103.371094 101.617188 104.011719 102.089844 104.734375 102.449219 L 104.769531 102.464844 C 106.871094 103.519531 109.503906 103.683594 112.058594 103.851562 C 112.679688 103.890625 113.320312 103.929688 113.9375 103.988281 C 116.933594 104.25 119.832031 104.925781 122.632812 106.011719 C 124.316406 106.65625 125.710938 107.367188 126.882812 108.179688 C 126.980469 108.246094 127.027344 108.339844 127.03125 108.457031 C 127.03125 108.601562 126.964844 108.703125 126.828125 108.757812 C 126.691406 108.816406 126.574219 108.789062 126.472656 108.683594 C 125.195312 107.832031 123.839844 107.140625 122.398438 106.605469 C 119.65625 105.542969 116.816406 104.882812 113.882812 104.628906 C 113.277344 104.578125 112.636719 104.535156 112.019531 104.492188 C 109.417969 104.328125 106.726562 104.15625 104.507812 103.054688 C 104.496094 103.050781 104.484375 103.042969 104.472656 103.039062 C 103.992188 102.796875 103.542969 102.507812 103.121094 102.171875 C 103.542969 105.441406 101.3125 108.515625 99.332031 111.257812 C 98.609375 112.25 97.929688 113.1875 97.40625 114.085938 C 95.214844 117.84375 94.132812 122.730469 94.199219 128.605469 C 94.199219 128.824219 94.210938 129.042969 94.222656 129.257812 C 94.226562 129.347656 94.199219 129.425781 94.136719 129.492188 C 94.078125 129.558594 94.003906 129.59375 93.914062 129.597656 Z M 93.882812 129.605469 " fill-opacity="1" fill-rule="nonzero"/><g clip-path="url(#a68aee7520)"><path fill="#020000" d="M 163.507812 30.328125 C 149.863281 16.664062 131.71875 9.144531 112.425781 9.144531 C 93.128906 9.144531 74.984375 16.664062 61.339844 30.328125 C 47.695312 43.992188 40.179688 62.148438 40.179688 81.460938 L 40.179688 215.539062 C 40.179688 215.675781 40.226562 215.792969 40.324219 215.886719 C 40.421875 215.984375 40.535156 216.03125 40.671875 216.03125 L 184.175781 216.03125 C 184.3125 216.035156 184.425781 215.984375 184.523438 215.890625 C 184.621094 215.792969 184.667969 215.675781 184.667969 215.539062 L 184.667969 81.460938 C 184.664062 62.148438 177.152344 43.988281 163.507812 30.328125 Z M 183.671875 215.042969 L 41.167969 215.042969 L 41.167969 81.460938 C 41.167969 62.410156 48.578125 44.503906 62.039062 31.027344 C 75.5 17.550781 93.390625 10.132812 112.425781 10.132812 C 131.457031 10.132812 149.347656 17.554688 162.808594 31.027344 C 176.269531 44.503906 183.675781 62.410156 183.675781 81.460938 Z M 183.671875 215.042969 " fill-opacity="1" fill-rule="nonzero"/></g><path fill="#020000" d="M 64.539062 58.394531 C 66.21875 58.917969 66.949219 60.410156 67.300781 62.242188 C 67.664062 60.378906 68.359375 59.3125 70.042969 58.601562 C 69.351562 58.382812 68.253906 57.210938 68.035156 56.855469 C 67.507812 55.996094 67.457031 55.15625 67.332031 54.199219 C 66.910156 55.964844 66.394531 57.582031 64.539062 58.394531 Z M 64.539062 58.394531 " fill-opacity="1" fill-rule="nonzero"/><path fill="#020000" d="M 46.078125 189.464844 C 47.753906 189.988281 48.488281 191.480469 48.835938 193.3125 C 49.199219 191.449219 49.898438 190.382812 51.582031 189.671875 C 50.890625 189.453125 49.789062 188.28125 49.570312 187.925781 C 49.042969 187.066406 48.996094 186.226562 48.867188 185.269531 C 48.445312 187.027344 47.929688 188.652344 46.078125 189.464844 Z M 46.078125 189.464844 " fill-opacity="1" fill-rule="nonzero"/><path fill="#020000" d="M 174.628906 134.941406 C 176.308594 135.464844 177.042969 136.957031 177.390625 138.789062 C 177.753906 136.925781 178.453125 135.859375 180.136719 135.152344 C 179.441406 134.929688 178.34375 133.757812 178.125 133.402344 C 177.597656 132.542969 177.546875 131.703125 177.421875 130.746094 C 177 132.511719 176.480469 134.128906 174.628906 134.941406 Z M 174.628906 134.941406 " fill-opacity="1" fill-rule="nonzero"/><path fill="#020000" d="M 174.542969 167.695312 C 176.21875 168.222656 176.953125 169.710938 177.300781 171.542969 C 177.667969 169.683594 178.363281 168.613281 180.046875 167.90625 C 179.355469 167.683594 178.253906 166.515625 178.035156 166.15625 C 177.511719 165.300781 177.460938 164.457031 177.332031 163.5 C 176.910156 165.269531 176.394531 166.882812 174.542969 167.695312 Z M 174.542969 167.695312 " fill-opacity="1" fill-rule="nonzero"/><path fill="#020000" d="M 158.453125 76.566406 C 160.128906 77.089844 160.863281 78.582031 161.210938 80.414062 C 161.578125 78.550781 162.273438 77.484375 163.957031 76.777344 C 163.265625 76.554688 162.164062 75.382812 161.945312 75.027344 C 161.421875 74.167969 161.367188 73.328125 161.246094 72.371094 C 160.820312 74.140625 160.304688 75.753906 158.453125 76.566406 Z M 158.453125 76.566406 " fill-opacity="1" fill-rule="nonzero"/><path fill="#020000" d="M 58.789062 109.347656 C 60.46875 109.875 61.203125 111.363281 61.550781 113.195312 C 61.914062 111.332031 62.613281 110.265625 64.296875 109.558594 C 63.601562 109.339844 62.503906 108.167969 62.285156 107.808594 C 61.757812 106.949219 61.707031 106.109375 61.582031 105.152344 C 61.15625 106.921875 60.644531 108.535156 58.789062 109.347656 Z M 58.789062 109.347656 " fill-opacity="1" fill-rule="nonzero"/><path fill="#020000" d="M 72.078125 70.378906 C 73.195312 70.726562 73.683594 71.722656 73.914062 72.941406 C 74.15625 71.699219 74.621094 70.988281 75.742188 70.519531 C 75.28125 70.371094 74.546875 69.59375 74.402344 69.355469 C 74.054688 68.785156 74.019531 68.222656 73.9375 67.59375 C 73.652344 68.753906 73.308594 69.839844 72.078125 70.378906 Z M 72.078125 70.378906 " fill-opacity="1" fill-rule="nonzero"/><path fill="#020000" d="M 138.777344 205.039062 C 139.894531 205.386719 140.382812 206.378906 140.617188 207.601562 C 140.859375 206.359375 141.320312 205.648438 142.441406 205.175781 C 141.984375 205.03125 141.25 204.25 141.105469 204.011719 C 140.753906 203.441406 140.722656 202.882812 140.636719 202.246094 C 140.355469 203.421875 140.011719 204.496094 138.777344 205.039062 Z M 138.777344 205.039062 " fill-opacity="1" fill-rule="nonzero"/><path fill="#020000" d="M 92.914062 36.765625 C 94.035156 37.117188 94.519531 38.109375 94.753906 39.328125 C 94.996094 38.085938 95.460938 37.378906 96.582031 36.90625 C 96.121094 36.757812 95.386719 35.980469 95.242188 35.742188 C 94.890625 35.171875 94.859375 34.609375 94.773438 33.972656 C 94.492188 35.15625 94.148438 36.222656 92.914062 36.765625 Z M 92.914062 36.765625 " fill-opacity="1" fill-rule="nonzero"/><path fill="#020000" d="M 71.015625 151.855469 C 72.136719 152.207031 72.621094 153.199219 72.855469 154.417969 C 73.097656 153.179688 73.5625 152.46875 74.683594 151.996094 C 74.222656 151.851562 73.488281 151.070312 73.34375 150.832031 C 72.992188 150.261719 72.960938 149.699219 72.875 149.070312 C 72.59375 150.242188 72.253906 151.316406 71.015625 151.855469 Z M 71.015625 151.855469 " fill-opacity="1" fill-rule="nonzero"/><path fill="#020000" d="M 137.585938 59.921875 C 138.703125 60.273438 139.191406 61.261719 139.421875 62.484375 C 139.664062 61.242188 140.128906 60.535156 141.25 60.0625 C 140.789062 59.914062 140.058594 59.136719 139.910156 58.898438 C 139.5625 58.328125 139.527344 57.765625 139.445312 57.128906 C 139.164062 58.304688 138.820312 59.382812 137.585938 59.921875 Z M 137.585938 59.921875 " fill-opacity="1" fill-rule="nonzero"/><path fill="#020000" d="M 132.910156 25.15625 C 134.027344 25.507812 134.515625 26.5 134.746094 27.71875 C 134.992188 26.476562 135.453125 25.769531 136.574219 25.296875 C 136.113281 25.148438 135.382812 24.371094 135.238281 24.132812 C 134.886719 23.5625 134.851562 23 134.769531 22.363281 C 134.488281 23.539062 134.144531 24.617188 132.910156 25.15625 Z M 132.910156 25.15625 " fill-opacity="1" fill-rule="nonzero"/><path fill="#020000" d="M 91.230469 69.285156 C 91.230469 69.464844 91.167969 69.617188 91.042969 69.742188 C 90.917969 69.867188 90.765625 69.929688 90.589844 69.929688 C 90.410156 69.929688 90.261719 69.867188 90.136719 69.742188 C 90.007812 69.617188 89.945312 69.464844 89.945312 69.285156 C 89.945312 69.109375 90.007812 68.957031 90.136719 68.832031 C 90.261719 68.707031 90.410156 68.644531 90.589844 68.644531 C 90.765625 68.644531 90.917969 68.707031 91.042969 68.832031 C 91.167969 68.957031 91.230469 69.109375 91.230469 69.285156 Z M 91.230469 69.285156 " fill-opacity="1" fill-rule="nonzero"/><path fill="#020000" d="M 48.546875 66.882812 C 48.546875 67.058594 48.484375 67.210938 48.359375 67.335938 C 48.234375 67.460938 48.082031 67.527344 47.90625 67.527344 C 47.726562 67.527344 47.574219 67.460938 47.449219 67.335938 C 47.324219 67.210938 47.261719 67.058594 47.261719 66.882812 C 47.261719 66.703125 47.324219 66.550781 47.449219 66.425781 C 47.574219 66.300781 47.726562 66.238281 47.90625 66.238281 C 48.082031 66.238281 48.234375 66.300781 48.359375 66.425781 C 48.484375 66.550781 48.546875 66.703125 48.546875 66.882812 Z M 48.546875 66.882812 " fill-opacity="1" fill-rule="nonzero"/><path fill="#020000" d="M 97.226562 65.910156 C 97.226562 66.089844 97.164062 66.238281 97.039062 66.367188 C 96.914062 66.492188 96.761719 66.554688 96.585938 66.554688 C 96.40625 66.554688 96.253906 66.492188 96.128906 66.367188 C 96.003906 66.238281 95.941406 66.089844 95.941406 65.910156 C 95.941406 65.734375 96.003906 65.582031 96.128906 65.457031 C 96.253906 65.328125 96.40625 65.265625 96.585938 65.265625 C 96.761719 65.265625 96.914062 65.328125 97.039062 65.457031 C 97.164062 65.582031 97.226562 65.734375 97.226562 65.910156 Z M 97.226562 65.910156 " fill-opacity="1" fill-rule="nonzero"/><path fill="#020000" d="M 48.296875 85.804688 C 48.296875 85.980469 48.234375 86.132812 48.109375 86.257812 C 47.980469 86.382812 47.832031 86.445312 47.652344 86.445312 C 47.476562 86.445312 47.324219 86.382812 47.199219 86.257812 C 47.074219 86.132812 47.011719 85.980469 47.011719 85.804688 C 47.011719 85.625 47.074219 85.472656 47.199219 85.347656 C 47.324219 85.222656 47.476562 85.160156 47.652344 85.160156 C 47.832031 85.160156 47.980469 85.222656 48.109375 85.347656 C 48.234375 85.472656 48.296875 85.625 48.296875 85.804688 Z M 48.296875 85.804688 " fill-opacity="1" fill-rule="nonzero"/><path fill="#020000" d="M 47.785156 140.9375 C 47.785156 141.113281 47.722656 141.265625 47.597656 141.390625 C 47.472656 141.519531 47.320312 141.582031 47.140625 141.582031 C 46.964844 141.582031 46.8125 141.519531 46.6875 141.390625 C 46.5625 141.265625 46.5 141.113281 46.5 140.9375 C 46.5 140.757812 46.5625 140.609375 46.6875 140.480469 C 46.8125 140.355469 46.964844 140.292969 47.140625 140.292969 C 47.320312 140.292969 47.472656 140.355469 47.597656 140.480469 C 47.722656 140.609375 47.785156 140.757812 47.785156 140.9375 Z M 47.785156 140.9375 " fill-opacity="1" fill-rule="nonzero"/><path fill="#020000" d="M 52.878906 106.277344 C 52.878906 106.457031 52.816406 106.605469 52.691406 106.734375 C 52.566406 106.859375 52.414062 106.921875 52.238281 106.921875 C 52.058594 106.921875 51.90625 106.859375 51.78125 106.734375 C 51.65625 106.605469 51.59375 106.457031 51.59375 106.277344 C 51.59375 106.101562 51.65625 105.949219 51.78125 105.824219 C 51.90625 105.695312 52.058594 105.632812 52.238281 105.632812 C 52.414062 105.632812 52.566406 105.695312 52.691406 105.824219 C 52.816406 105.949219 52.878906 106.101562 52.878906 106.277344 Z M 52.878906 106.277344 " fill-opacity="1" fill-rule="nonzero"/><path fill="#020000" d="M 51.222656 165.027344 C 51.222656 165.203125 51.160156 165.355469 51.035156 165.480469 C 50.910156 165.605469 50.757812 165.667969 50.578125 165.667969 C 50.402344 165.667969 50.25 165.605469 50.125 165.480469 C 50 165.355469 49.9375 165.203125 49.9375 165.027344 C 49.9375 164.847656 50 164.695312 50.125 164.570312 C 50.25 164.445312 50.402344 164.382812 50.578125 164.382812 C 50.757812 164.382812 50.910156 164.445312 51.035156 164.570312 C 51.160156 164.695312 51.222656 164.847656 51.222656 165.027344 Z M 51.222656 165.027344 " fill-opacity="1" fill-rule="nonzero"/><path fill="#020000" d="M 47.078125 171.144531 C 47.078125 171.324219 47.015625 171.476562 46.890625 171.601562 C 46.765625 171.726562 46.613281 171.789062 46.433594 171.789062 C 46.257812 171.789062 46.105469 171.726562 45.980469 171.601562 C 45.855469 171.476562 45.792969 171.324219 45.792969 171.144531 C 45.792969 170.96875 45.855469 170.816406 45.980469 170.691406 C 46.105469 170.566406 46.257812 170.503906 46.433594 170.503906 C 46.613281 170.503906 46.765625 170.566406 46.890625 170.691406 C 47.015625 170.816406 47.078125 170.96875 47.078125 171.144531 Z M 47.078125 171.144531 " fill-opacity="1" fill-rule="nonzero"/><path fill="#020000" d="M 58.023438 196.046875 C 58.023438 196.226562 57.960938 196.378906 57.835938 196.503906 C 57.710938 196.628906 57.558594 196.691406 57.382812 196.691406 C 57.203125 196.691406 57.054688 196.628906 56.929688 196.503906 C 56.800781 196.378906 56.738281 196.226562 56.738281 196.046875 C 56.738281 195.871094 56.800781 195.71875 56.929688 195.59375 C 57.054688 195.46875 57.203125 195.40625 57.382812 195.40625 C 57.558594 195.40625 57.710938 195.46875 57.835938 195.59375 C 57.960938 195.71875 58.023438 195.871094 58.023438 196.046875 Z M 58.023438 196.046875 " fill-opacity="1" fill-rule="nonzero"/><path fill="#020000" d="M 62.632812 151.214844 C 62.632812 151.390625 62.570312 151.542969 62.445312 151.667969 C 62.320312 151.792969 62.167969 151.855469 61.992188 151.855469 C 61.8125 151.855469 61.660156 151.792969 61.535156 151.667969 C 61.410156 151.542969 61.347656 151.390625 61.347656 151.214844 C 61.347656 151.035156 61.410156 150.882812 61.535156 150.757812 C 61.660156 150.632812 61.8125 150.570312 61.992188 150.570312 C 62.167969 150.570312 62.320312 150.632812 62.445312 150.757812 C 62.570312 150.882812 62.632812 151.035156 62.632812 151.214844 Z M 62.632812 151.214844 " fill-opacity="1" fill-rule="nonzero"/><path fill="#020000" d="M 54.957031 202.929688 C 54.957031 203.109375 54.894531 203.261719 54.769531 203.386719 C 54.644531 203.511719 54.492188 203.574219 54.3125 203.574219 C 54.136719 203.574219 53.984375 203.511719 53.859375 203.386719 C 53.734375 203.261719 53.671875 203.109375 53.671875 202.929688 C 53.671875 202.753906 53.734375 202.601562 53.859375 202.476562 C 53.984375 202.351562 54.136719 202.289062 54.3125 202.289062 C 54.492188 202.289062 54.644531 202.351562 54.769531 202.476562 C 54.894531 202.601562 54.957031 202.753906 54.957031 202.929688 Z M 54.957031 202.929688 " fill-opacity="1" fill-rule="nonzero"/><path fill="#020000" d="M 72.902344 204.386719 C 72.902344 204.566406 72.839844 204.71875 72.714844 204.84375 C 72.585938 204.96875 72.4375 205.03125 72.257812 205.03125 C 72.082031 205.03125 71.929688 204.96875 71.804688 204.84375 C 71.679688 204.71875 71.617188 204.566406 71.617188 204.386719 C 71.617188 204.210938 71.679688 204.058594 71.804688 203.933594 C 71.929688 203.808594 72.082031 203.742188 72.257812 203.742188 C 72.4375 203.742188 72.585938 203.808594 72.714844 203.933594 C 72.839844 204.058594 72.902344 204.210938 72.902344 204.386719 Z M 72.902344 204.386719 " fill-opacity="1" fill-rule="nonzero"/><path fill="#020000" d="M 60.953125 181.148438 C 60.953125 181.328125 60.890625 181.480469 60.765625 181.605469 C 60.640625 181.730469 60.488281 181.792969 60.308594 181.792969 C 60.132812 181.792969 59.980469 181.730469 59.855469 181.605469 C 59.730469 181.480469 59.667969 181.328125 59.667969 181.148438 C 59.667969 180.972656 59.730469 180.820312 59.855469 180.695312 C 59.980469 180.570312 60.132812 180.507812 60.308594 180.507812 C 60.488281 180.507812 60.640625 180.570312 60.765625 180.695312 C 60.890625 180.820312 60.953125 180.972656 60.953125 181.148438 Z M 60.953125 181.148438 " fill-opacity="1" fill-rule="nonzero"/><path fill="#020000" d="M 173.425781 65.59375 C 173.425781 65.769531 173.363281 65.921875 173.238281 66.046875 C 173.109375 66.171875 172.960938 66.234375 172.78125 66.234375 C 172.605469 66.234375 172.453125 66.171875 172.328125 66.046875 C 172.203125 65.921875 172.140625 65.769531 172.140625 65.59375 C 172.140625 65.414062 172.203125 65.261719 172.328125 65.136719 C 172.453125 65.011719 172.605469 64.949219 172.78125 64.949219 C 172.960938 64.949219 173.109375 65.011719 173.238281 65.136719 C 173.363281 65.261719 173.425781 65.414062 173.425781 65.59375 Z M 173.425781 65.59375 " fill-opacity="1" fill-rule="nonzero"/><path fill="#020000" d="M 180.460938 120.453125 C 180.460938 120.632812 180.398438 120.785156 180.273438 120.910156 C 180.148438 121.035156 179.996094 121.097656 179.816406 121.097656 C 179.640625 121.097656 179.488281 121.035156 179.363281 120.910156 C 179.238281 120.785156 179.175781 120.632812 179.175781 120.453125 C 179.175781 120.277344 179.238281 120.125 179.363281 120 C 179.488281 119.875 179.640625 119.8125 179.816406 119.8125 C 179.996094 119.8125 180.148438 119.875 180.273438 120 C 180.398438 120.125 180.460938 120.277344 180.460938 120.453125 Z M 180.460938 120.453125 " fill-opacity="1" fill-rule="nonzero"/><path fill="#020000" d="M 166.3125 84.941406 C 166.3125 85.117188 166.25 85.269531 166.125 85.394531 C 165.996094 85.519531 165.847656 85.582031 165.667969 85.582031 C 165.492188 85.582031 165.339844 85.519531 165.214844 85.394531 C 165.089844 85.269531 165.027344 85.117188 165.027344 84.941406 C 165.027344 84.761719 165.089844 84.609375 165.214844 84.484375 C 165.339844 84.359375 165.492188 84.296875 165.667969 84.296875 C 165.847656 84.296875 165.996094 84.359375 166.125 84.484375 C 166.25 84.609375 166.3125 84.761719 166.3125 84.941406 Z M 166.3125 84.941406 " fill-opacity="1" fill-rule="nonzero"/><path fill="#020000" d="M 181.296875 204.699219 C 181.296875 204.878906 181.234375 205.03125 181.109375 205.15625 C 180.984375 205.28125 180.832031 205.34375 180.65625 205.34375 C 180.476562 205.34375 180.328125 205.28125 180.199219 205.15625 C 180.074219 205.03125 180.011719 204.878906 180.011719 204.699219 C 180.011719 204.523438 180.074219 204.371094 180.199219 204.246094 C 180.328125 204.121094 180.476562 204.058594 180.65625 204.058594 C 180.832031 204.058594 180.984375 204.121094 181.109375 204.246094 C 181.234375 204.371094 181.296875 204.523438 181.296875 204.699219 Z M 181.296875 204.699219 " fill-opacity="1" fill-rule="nonzero"/><path fill="#020000" d="M 166.855469 169.484375 C 166.855469 169.660156 166.792969 169.8125 166.667969 169.9375 C 166.542969 170.066406 166.390625 170.128906 166.214844 170.128906 C 166.035156 170.128906 165.886719 170.066406 165.757812 169.9375 C 165.632812 169.8125 165.570312 169.660156 165.570312 169.484375 C 165.570312 169.304688 165.632812 169.15625 165.757812 169.027344 C 165.886719 168.902344 166.035156 168.839844 166.214844 168.839844 C 166.390625 168.839844 166.542969 168.902344 166.667969 169.027344 C 166.792969 169.15625 166.855469 169.304688 166.855469 169.484375 Z M 166.855469 169.484375 " fill-opacity="1" fill-rule="nonzero"/><path fill="#020000" d="M 181.296875 146.402344 C 181.296875 146.582031 181.234375 146.730469 181.109375 146.859375 C 180.984375 146.984375 180.832031 147.046875 180.65625 147.046875 C 180.476562 147.046875 180.328125 146.984375 180.199219 146.859375 C 180.074219 146.730469 180.011719 146.582031 180.011719 146.402344 C 180.011719 146.226562 180.074219 146.074219 180.199219 145.949219 C 180.328125 145.820312 180.476562 145.757812 180.65625 145.757812 C 180.832031 145.757812 180.984375 145.820312 181.109375 145.949219 C 181.234375 146.074219 181.296875 146.226562 181.296875 146.402344 Z M 181.296875 146.402344 " fill-opacity="1" fill-rule="nonzero"/><path fill="#020000" d="M 172.566406 197.421875 C 172.566406 197.597656 172.503906 197.75 172.378906 197.875 C 172.253906 198 172.101562 198.066406 171.925781 198.066406 C 171.746094 198.066406 171.59375 198 171.46875 197.875 C 171.34375 197.75 171.28125 197.597656 171.28125 197.421875 C 171.28125 197.242188 171.34375 197.089844 171.46875 196.964844 C 171.59375 196.839844 171.746094 196.777344 171.925781 196.777344 C 172.101562 196.777344 172.253906 196.839844 172.378906 196.964844 C 172.503906 197.089844 172.566406 197.242188 172.566406 197.421875 Z M 172.566406 197.421875 " fill-opacity="1" fill-rule="nonzero"/><path fill="#020000" d="M 174.589844 189.25 C 174.589844 189.429688 174.527344 189.582031 174.402344 189.707031 C 174.277344 189.832031 174.125 189.894531 173.949219 189.894531 C 173.769531 189.894531 173.621094 189.832031 173.492188 189.707031 C 173.367188 189.582031 173.304688 189.429688 173.304688 189.25 C 173.304688 189.074219 173.367188 188.921875 173.492188 188.796875 C 173.621094 188.671875 173.769531 188.609375 173.949219 188.609375 C 174.125 188.609375 174.277344 188.671875 174.402344 188.796875 C 174.527344 188.921875 174.589844 189.074219 174.589844 189.25 Z M 174.589844 189.25 " fill-opacity="1" fill-rule="nonzero"/><path fill="#020000" d="M 181.398438 175.6875 C 181.398438 175.867188 181.335938 176.015625 181.207031 176.144531 C 181.082031 176.269531 180.933594 176.332031 180.753906 176.332031 C 180.578125 176.332031 180.425781 176.269531 180.300781 176.144531 C 180.175781 176.015625 180.113281 175.867188 180.113281 175.6875 C 180.113281 175.511719 180.175781 175.359375 180.300781 175.234375 C 180.425781 175.105469 180.578125 175.042969 180.753906 175.042969 C 180.933594 175.042969 181.082031 175.105469 181.207031 175.234375 C 181.335938 175.359375 181.398438 175.511719 181.398438 175.6875 Z M 181.398438 175.6875 " fill-opacity="1" fill-rule="nonzero"/><path fill="#020000" d="M 170.226562 210.613281 C 170.226562 210.792969 170.164062 210.945312 170.039062 211.070312 C 169.914062 211.195312 169.761719 211.257812 169.582031 211.257812 C 169.40625 211.257812 169.253906 211.195312 169.128906 211.070312 C 169.003906 210.945312 168.941406 210.792969 168.941406 210.613281 C 168.941406 210.4375 169.003906 210.285156 169.128906 210.160156 C 169.253906 210.035156 169.40625 209.96875 169.582031 209.96875 C 169.761719 209.96875 169.914062 210.035156 170.039062 210.160156 C 170.164062 210.285156 170.226562 210.4375 170.226562 210.613281 Z M 170.226562 210.613281 " fill-opacity="1" fill-rule="nonzero"/><path fill="#020000" d="M 62.828125 205.984375 C 62.828125 206.164062 62.765625 206.3125 62.640625 206.441406 C 62.515625 206.566406 62.363281 206.628906 62.1875 206.628906 C 62.007812 206.628906 61.859375 206.566406 61.730469 206.441406 C 61.605469 206.3125 61.542969 206.164062 61.542969 205.984375 C 61.542969 205.808594 61.605469 205.65625 61.730469 205.53125 C 61.859375 205.402344 62.007812 205.339844 62.1875 205.339844 C 62.363281 205.339844 62.515625 205.402344 62.640625 205.53125 C 62.765625 205.65625 62.828125 205.808594 62.828125 205.984375 Z M 62.828125 205.984375 " fill-opacity="1" fill-rule="nonzero"/><path fill="#020000" d="M 63.058594 137.320312 C 63.058594 137.496094 62.996094 137.648438 62.871094 137.773438 C 62.746094 137.902344 62.59375 137.964844 62.414062 137.964844 C 62.238281 137.964844 62.085938 137.902344 61.960938 137.773438 C 61.835938 137.648438 61.773438 137.496094 61.773438 137.320312 C 61.773438 137.140625 61.835938 136.992188 61.960938 136.863281 C 62.085938 136.738281 62.238281 136.675781 62.414062 136.675781 C 62.59375 136.675781 62.746094 136.738281 62.871094 136.863281 C 62.996094 136.992188 63.058594 137.140625 63.058594 137.320312 Z M 63.058594 137.320312 " fill-opacity="1" fill-rule="nonzero"/><path fill="#020000" d="M 164.265625 187.824219 C 164.265625 188 164.203125 188.152344 164.078125 188.277344 C 163.953125 188.402344 163.800781 188.464844 163.621094 188.464844 C 163.445312 188.464844 163.292969 188.402344 163.167969 188.277344 C 163.042969 188.152344 162.980469 188 162.980469 187.824219 C 162.980469 187.644531 163.042969 187.492188 163.167969 187.367188 C 163.292969 187.242188 163.445312 187.179688 163.621094 187.179688 C 163.800781 187.179688 163.953125 187.242188 164.078125 187.367188 C 164.203125 187.492188 164.265625 187.644531 164.265625 187.824219 Z M 164.265625 187.824219 " fill-opacity="1" fill-rule="nonzero"/><path fill="#020000" d="M 56.8125 145.058594 C 56.8125 145.238281 56.75 145.390625 56.625 145.515625 C 56.5 145.640625 56.347656 145.703125 56.171875 145.703125 C 55.992188 145.703125 55.84375 145.640625 55.714844 145.515625 C 55.589844 145.390625 55.527344 145.238281 55.527344 145.058594 C 55.527344 144.882812 55.589844 144.730469 55.714844 144.605469 C 55.84375 144.480469 55.992188 144.417969 56.171875 144.417969 C 56.347656 144.417969 56.5 144.480469 56.625 144.605469 C 56.75 144.730469 56.8125 144.882812 56.8125 145.058594 Z M 56.8125 145.058594 " fill-opacity="1" fill-rule="nonzero"/><path fill="#020000" d="M 61.5 93.5625 C 61.5 93.742188 61.4375 93.890625 61.3125 94.019531 C 61.183594 94.144531 61.035156 94.207031 60.855469 94.207031 C 60.679688 94.207031 60.527344 94.144531 60.402344 94.019531 C 60.277344 93.890625 60.214844 93.742188 60.214844 93.5625 C 60.214844 93.386719 60.277344 93.234375 60.402344 93.109375 C 60.527344 92.980469 60.679688 92.917969 60.855469 92.917969 C 61.035156 92.917969 61.183594 92.980469 61.3125 93.109375 C 61.4375 93.234375 61.5 93.386719 61.5 93.5625 Z M 61.5 93.5625 " fill-opacity="1" fill-rule="nonzero"/><path fill="#020000" d="M 59.242188 70.585938 C 59.242188 70.761719 59.179688 70.914062 59.054688 71.039062 C 58.929688 71.164062 58.777344 71.226562 58.597656 71.226562 C 58.421875 71.226562 58.269531 71.164062 58.144531 71.039062 C 58.019531 70.914062 57.957031 70.761719 57.957031 70.585938 C 57.957031 70.40625 58.019531 70.253906 58.144531 70.128906 C 58.269531 70.003906 58.421875 69.941406 58.597656 69.941406 C 58.777344 69.941406 58.929688 70.003906 59.054688 70.128906 C 59.179688 70.253906 59.242188 70.40625 59.242188 70.585938 Z M 59.242188 70.585938 " fill-opacity="1" fill-rule="nonzero"/><path fill="#020000" d="M 158.953125 60.878906 C 158.953125 61.054688 158.890625 61.207031 158.765625 61.332031 C 158.640625 61.460938 158.488281 61.523438 158.3125 61.523438 C 158.132812 61.523438 157.984375 61.460938 157.855469 61.332031 C 157.730469 61.207031 157.667969 61.054688 157.667969 60.878906 C 157.667969 60.699219 157.730469 60.550781 157.855469 60.421875 C 157.984375 60.296875 158.132812 60.234375 158.3125 60.234375 C 158.488281 60.234375 158.640625 60.296875 158.765625 60.421875 C 158.890625 60.550781 158.953125 60.699219 158.953125 60.878906 Z M 158.953125 60.878906 " fill-opacity="1" fill-rule="nonzero"/><path fill="#020000" d="M 175.855469 106.90625 C 175.855469 107.085938 175.792969 107.238281 175.667969 107.363281 C 175.542969 107.488281 175.390625 107.550781 175.214844 107.550781 C 175.035156 107.550781 174.886719 107.488281 174.757812 107.363281 C 174.632812 107.238281 174.570312 107.085938 174.570312 106.90625 C 174.570312 106.730469 174.632812 106.578125 174.757812 106.453125 C 174.886719 106.328125 175.035156 106.265625 175.214844 106.265625 C 175.390625 106.265625 175.542969 106.328125 175.667969 106.453125 C 175.792969 106.578125 175.855469 106.730469 175.855469 106.90625 Z M 175.855469 106.90625 " fill-opacity="1" fill-rule="nonzero"/><path fill="#020000" d="M 163.839844 98.660156 C 163.839844 98.835938 163.777344 98.988281 163.652344 99.113281 C 163.527344 99.242188 163.375 99.304688 163.199219 99.304688 C 163.019531 99.304688 162.867188 99.242188 162.742188 99.113281 C 162.617188 98.988281 162.554688 98.835938 162.554688 98.660156 C 162.554688 98.480469 162.617188 98.332031 162.742188 98.203125 C 162.867188 98.078125 163.019531 98.015625 163.199219 98.015625 C 163.375 98.015625 163.527344 98.078125 163.652344 98.203125 C 163.777344 98.332031 163.839844 98.480469 163.839844 98.660156 Z M 163.839844 98.660156 " fill-opacity="1" fill-rule="nonzero"/><path fill="#020000" d="M 129.632812 76.375 C 129.632812 76.550781 129.570312 76.703125 129.445312 76.828125 C 129.320312 76.953125 129.167969 77.015625 128.992188 77.015625 C 128.8125 77.015625 128.660156 76.953125 128.535156 76.828125 C 128.410156 76.703125 128.347656 76.550781 128.347656 76.375 C 128.347656 76.195312 128.410156 76.042969 128.535156 75.917969 C 128.660156 75.792969 128.8125 75.730469 128.992188 75.730469 C 129.167969 75.730469 129.320312 75.792969 129.445312 75.917969 C 129.570312 76.042969 129.632812 76.195312 129.632812 76.375 Z M 129.632812 76.375 " fill-opacity="1" fill-rule="nonzero"/><path fill="#020000" d="M 64.667969 159.195312 C 64.667969 159.375 64.601562 159.527344 64.476562 159.652344 C 64.351562 159.777344 64.199219 159.839844 64.023438 159.839844 C 63.847656 159.839844 63.695312 159.777344 63.570312 159.652344 C 63.441406 159.527344 63.378906 159.375 63.378906 159.195312 C 63.378906 159.019531 63.441406 158.867188 63.570312 158.742188 C 63.695312 158.617188 63.847656 158.554688 64.023438 158.554688 C 64.199219 158.554688 64.351562 158.617188 64.476562 158.742188 C 64.601562 158.867188 64.667969 159.019531 64.667969 159.195312 Z M 64.667969 159.195312 " fill-opacity="1" fill-rule="nonzero"/><path fill="#020000" d="M 153.199219 48.148438 C 153.199219 48.324219 153.136719 48.476562 153.011719 48.601562 C 152.886719 48.726562 152.734375 48.789062 152.558594 48.789062 C 152.378906 48.789062 152.226562 48.726562 152.101562 48.601562 C 151.976562 48.476562 151.914062 48.324219 151.914062 48.148438 C 151.914062 47.96875 151.976562 47.816406 152.101562 47.691406 C 152.226562 47.566406 152.378906 47.503906 152.558594 47.503906 C 152.734375 47.503906 152.886719 47.566406 153.011719 47.691406 C 153.136719 47.816406 153.199219 47.96875 153.199219 48.148438 Z M 153.199219 48.148438 " fill-opacity="1" fill-rule="nonzero"/><path fill="#020000" d="M 117.125 77.167969 C 117.125 77.34375 117.0625 77.496094 116.9375 77.621094 C 116.8125 77.746094 116.660156 77.808594 116.484375 77.808594 C 116.304688 77.808594 116.152344 77.746094 116.027344 77.621094 C 115.902344 77.496094 115.839844 77.34375 115.839844 77.167969 C 115.839844 76.988281 115.902344 76.835938 116.027344 76.710938 C 116.152344 76.585938 116.304688 76.523438 116.484375 76.523438 C 116.660156 76.523438 116.8125 76.585938 116.9375 76.710938 C 117.0625 76.835938 117.125 76.988281 117.125 77.167969 Z M 117.125 77.167969 " fill-opacity="1" fill-rule="nonzero"/><path fill="#020000" d="M 157.503906 209.386719 C 157.503906 209.566406 157.441406 209.71875 157.3125 209.84375 C 157.1875 209.96875 157.039062 210.03125 156.859375 210.03125 C 156.683594 210.03125 156.53125 209.96875 156.40625 209.84375 C 156.28125 209.71875 156.21875 209.566406 156.21875 209.386719 C 156.21875 209.210938 156.28125 209.058594 156.40625 208.933594 C 156.53125 208.808594 156.683594 208.746094 156.859375 208.746094 C 157.039062 208.746094 157.1875 208.808594 157.3125 208.933594 C 157.441406 209.058594 157.503906 209.210938 157.503906 209.386719 Z M 157.503906 209.386719 " fill-opacity="1" fill-rule="nonzero"/><path fill="#020000" d="M 168.097656 50.964844 C 168.097656 51.140625 168.035156 51.292969 167.910156 51.417969 C 167.78125 51.542969 167.632812 51.605469 167.453125 51.605469 C 167.277344 51.605469 167.125 51.542969 167 51.417969 C 166.875 51.292969 166.8125 51.140625 166.8125 50.964844 C 166.8125 50.785156 166.875 50.632812 167 50.507812 C 167.125 50.382812 167.277344 50.320312 167.453125 50.320312 C 167.632812 50.320312 167.78125 50.382812 167.910156 50.507812 C 168.035156 50.632812 168.097656 50.785156 168.097656 50.964844 Z M 168.097656 50.964844 " fill-opacity="1" fill-rule="nonzero"/><path fill="#020000" d="M 176.628906 78.917969 C 176.628906 79.09375 176.566406 79.246094 176.441406 79.371094 C 176.3125 79.5 176.164062 79.5625 175.984375 79.5625 C 175.808594 79.5625 175.65625 79.5 175.53125 79.371094 C 175.40625 79.246094 175.34375 79.09375 175.34375 78.917969 C 175.34375 78.738281 175.40625 78.589844 175.53125 78.460938 C 175.65625 78.335938 175.808594 78.273438 175.984375 78.273438 C 176.164062 78.273438 176.3125 78.335938 176.441406 78.460938 C 176.566406 78.589844 176.628906 78.738281 176.628906 78.917969 Z M 176.628906 78.917969 " fill-opacity="1" fill-rule="nonzero"/><path fill="#020000" d="M 127.996094 68.261719 C 127.996094 68.441406 127.933594 68.59375 127.808594 68.71875 C 127.683594 68.84375 127.53125 68.90625 127.355469 68.90625 C 127.175781 68.90625 127.023438 68.84375 126.898438 68.71875 C 126.773438 68.59375 126.710938 68.441406 126.710938 68.261719 C 126.710938 68.085938 126.773438 67.933594 126.898438 67.808594 C 127.023438 67.683594 127.175781 67.617188 127.355469 67.617188 C 127.53125 67.617188 127.683594 67.683594 127.808594 67.808594 C 127.933594 67.933594 127.996094 68.085938 127.996094 68.261719 Z M 127.996094 68.261719 " fill-opacity="1" fill-rule="nonzero"/><path fill="#020000" d="M 175.144531 158.203125 C 175.144531 158.382812 175.082031 158.535156 174.957031 158.660156 C 174.828125 158.785156 174.679688 158.847656 174.5 158.847656 C 174.324219 158.847656 174.171875 158.785156 174.046875 158.660156 C 173.921875 158.535156 173.859375 158.382812 173.859375 158.203125 C 173.859375 158.027344 173.921875 157.875 174.046875 157.75 C 174.171875 157.625 174.324219 157.5625 174.5 157.5625 C 174.679688 157.5625 174.828125 157.625 174.957031 157.75 C 175.082031 157.875 175.144531 158.027344 175.144531 158.203125 Z M 175.144531 158.203125 " fill-opacity="1" fill-rule="nonzero"/><path fill="#020000" d="M 108.269531 199.425781 C 108.269531 199.605469 108.207031 199.757812 108.082031 199.882812 C 107.957031 200.007812 107.804688 200.070312 107.625 200.070312 C 107.449219 200.070312 107.296875 200.007812 107.171875 199.882812 C 107.046875 199.757812 106.984375 199.605469 106.984375 199.425781 C 106.984375 199.25 107.046875 199.097656 107.171875 198.972656 C 107.296875 198.847656 107.449219 198.785156 107.625 198.785156 C 107.804688 198.785156 107.957031 198.847656 108.082031 198.972656 C 108.207031 199.097656 108.269531 199.25 108.269531 199.425781 Z M 108.269531 199.425781 " fill-opacity="1" fill-rule="nonzero"/><path fill="#020000" d="M 130.324219 205.734375 C 130.324219 205.914062 130.261719 206.066406 130.136719 206.191406 C 130.011719 206.316406 129.859375 206.378906 129.683594 206.378906 C 129.503906 206.378906 129.351562 206.316406 129.226562 206.191406 C 129.101562 206.066406 129.039062 205.914062 129.039062 205.734375 C 129.039062 205.558594 129.101562 205.40625 129.226562 205.28125 C 129.351562 205.15625 129.503906 205.09375 129.683594 205.09375 C 129.859375 205.09375 130.011719 205.15625 130.136719 205.28125 C 130.261719 205.40625 130.324219 205.558594 130.324219 205.734375 Z M 130.324219 205.734375 " fill-opacity="1" fill-rule="nonzero"/><path fill="#020000" d="M 161.304688 122.582031 C 161.304688 122.757812 161.238281 122.910156 161.113281 123.035156 C 160.988281 123.160156 160.835938 123.226562 160.660156 123.226562 C 160.484375 123.226562 160.332031 123.160156 160.207031 123.035156 C 160.078125 122.910156 160.015625 122.757812 160.015625 122.582031 C 160.015625 122.402344 160.078125 122.25 160.207031 122.125 C 160.332031 122 160.484375 121.9375 160.660156 121.9375 C 160.835938 121.9375 160.988281 122 161.113281 122.125 C 161.238281 122.25 161.304688 122.402344 161.304688 122.582031 Z M 161.304688 122.582031 " fill-opacity="1" fill-rule="nonzero"/><path fill="#020000" d="M 167.96875 134.441406 C 167.96875 134.621094 167.90625 134.773438 167.78125 134.898438 C 167.652344 135.023438 167.503906 135.085938 167.324219 135.085938 C 167.148438 135.085938 166.996094 135.023438 166.871094 134.898438 C 166.746094 134.773438 166.683594 134.621094 166.683594 134.441406 C 166.683594 134.265625 166.746094 134.113281 166.871094 133.988281 C 166.996094 133.863281 167.148438 133.800781 167.324219 133.800781 C 167.503906 133.800781 167.652344 133.863281 167.78125 133.988281 C 167.90625 134.113281 167.96875 134.265625 167.96875 134.441406 Z M 167.96875 134.441406 " fill-opacity="1" fill-rule="nonzero"/><path fill="#020000" d="M 99.347656 81.410156 C 99.347656 81.589844 99.285156 81.738281 99.160156 81.867188 C 99.03125 81.992188 98.882812 82.054688 98.703125 82.054688 C 98.527344 82.054688 98.375 81.992188 98.25 81.867188 C 98.125 81.738281 98.0625 81.589844 98.0625 81.410156 C 98.0625 81.234375 98.125 81.082031 98.25 80.957031 C 98.375 80.828125 98.527344 80.765625 98.703125 80.765625 C 98.882812 80.765625 99.03125 80.828125 99.160156 80.957031 C 99.285156 81.082031 99.347656 81.234375 99.347656 81.410156 Z M 99.347656 81.410156 " fill-opacity="1" fill-rule="nonzero"/><path fill="#020000" d="M 85.121094 96.539062 C 85.121094 96.714844 85.054688 96.867188 84.929688 96.992188 C 84.804688 97.117188 84.652344 97.183594 84.476562 97.183594 C 84.300781 97.183594 84.148438 97.117188 84.023438 96.992188 C 83.894531 96.867188 83.832031 96.714844 83.832031 96.539062 C 83.832031 96.359375 83.894531 96.207031 84.023438 96.082031 C 84.148438 95.957031 84.300781 95.894531 84.476562 95.894531 C 84.652344 95.894531 84.804688 95.957031 84.929688 96.082031 C 85.054688 96.207031 85.121094 96.359375 85.121094 96.539062 Z M 85.121094 96.539062 " fill-opacity="1" fill-rule="nonzero"/><path fill="#020000" d="M 145.175781 104.113281 C 145.175781 104.289062 145.113281 104.441406 144.988281 104.566406 C 144.859375 104.695312 144.710938 104.757812 144.53125 104.757812 C 144.355469 104.757812 144.203125 104.695312 144.078125 104.566406 C 143.953125 104.441406 143.890625 104.289062 143.890625 104.113281 C 143.890625 103.933594 143.953125 103.785156 144.078125 103.65625 C 144.203125 103.53125 144.355469 103.46875 144.53125 103.46875 C 144.710938 103.46875 144.859375 103.53125 144.988281 103.65625 C 145.113281 103.785156 145.175781 103.933594 145.175781 104.113281 Z M 145.175781 104.113281 " fill-opacity="1" fill-rule="nonzero"/><path fill="#020000" d="M 149.117188 102.753906 C 149.117188 102.929688 149.054688 103.082031 148.929688 103.207031 C 148.804688 103.332031 148.652344 103.394531 148.476562 103.394531 C 148.296875 103.394531 148.148438 103.332031 148.019531 103.207031 C 147.894531 103.082031 147.832031 102.929688 147.832031 102.753906 C 147.832031 102.574219 147.894531 102.421875 148.019531 102.296875 C 148.148438 102.171875 148.296875 102.109375 148.476562 102.109375 C 148.652344 102.109375 148.804688 102.171875 148.929688 102.296875 C 149.054688 102.421875 149.117188 102.574219 149.117188 102.753906 Z M 149.117188 102.753906 " fill-opacity="1" fill-rule="nonzero"/><path fill="#020000" d="M 137.535156 82.582031 C 137.535156 82.761719 137.472656 82.910156 137.347656 83.039062 C 137.21875 83.164062 137.070312 83.226562 136.890625 83.226562 C 136.714844 83.226562 136.5625 83.164062 136.4375 83.039062 C 136.3125 82.910156 136.25 82.761719 136.25 82.582031 C 136.25 82.40625 136.3125 82.253906 136.4375 82.128906 C 136.5625 82 136.714844 81.9375 136.890625 81.9375 C 137.070312 81.9375 137.21875 82 137.347656 82.128906 C 137.472656 82.253906 137.535156 82.40625 137.535156 82.582031 Z M 137.535156 82.582031 " fill-opacity="1" fill-rule="nonzero"/><path fill="#020000" d="M 148.917969 96.617188 C 148.917969 96.792969 148.855469 96.945312 148.730469 97.070312 C 148.605469 97.199219 148.453125 97.261719 148.277344 97.261719 C 148.097656 97.261719 147.945312 97.199219 147.820312 97.070312 C 147.695312 96.945312 147.632812 96.792969 147.632812 96.617188 C 147.632812 96.4375 147.695312 96.289062 147.820312 96.160156 C 147.945312 96.035156 148.097656 95.972656 148.277344 95.972656 C 148.453125 95.972656 148.605469 96.035156 148.730469 96.160156 C 148.855469 96.289062 148.917969 96.4375 148.917969 96.617188 Z M 148.917969 96.617188 " fill-opacity="1" fill-rule="nonzero"/><path fill="#020000" d="M 87.539062 206.378906 C 87.539062 206.558594 87.476562 206.707031 87.351562 206.835938 C 87.226562 206.960938 87.074219 207.023438 86.894531 207.023438 C 86.71875 207.023438 86.566406 206.960938 86.441406 206.835938 C 86.316406 206.707031 86.253906 206.558594 86.253906 206.378906 C 86.253906 206.203125 86.316406 206.050781 86.441406 205.925781 C 86.566406 205.796875 86.71875 205.734375 86.894531 205.734375 C 87.074219 205.734375 87.226562 205.796875 87.351562 205.925781 C 87.476562 206.050781 87.539062 206.203125 87.539062 206.378906 Z M 87.539062 206.378906 " fill-opacity="1" fill-rule="nonzero"/><path fill="#020000" d="M 134.101562 40.882812 C 134.101562 41.058594 134.039062 41.210938 133.914062 41.335938 C 133.789062 41.464844 133.636719 41.527344 133.460938 41.527344 C 133.28125 41.527344 133.132812 41.464844 133.007812 41.335938 C 132.878906 41.210938 132.816406 41.058594 132.816406 40.882812 C 132.816406 40.703125 132.878906 40.554688 133.007812 40.425781 C 133.132812 40.300781 133.28125 40.238281 133.460938 40.238281 C 133.636719 40.238281 133.789062 40.300781 133.914062 40.425781 C 134.039062 40.554688 134.101562 40.703125 134.101562 40.882812 Z M 134.101562 40.882812 " fill-opacity="1" fill-rule="nonzero"/><path fill="#020000" d="M 156.257812 38.085938 C 156.257812 38.261719 156.195312 38.414062 156.066406 38.539062 C 155.941406 38.664062 155.789062 38.726562 155.613281 38.726562 C 155.4375 38.726562 155.285156 38.664062 155.160156 38.539062 C 155.035156 38.414062 154.96875 38.261719 154.96875 38.085938 C 154.96875 37.90625 155.035156 37.753906 155.160156 37.628906 C 155.285156 37.503906 155.4375 37.441406 155.613281 37.441406 C 155.789062 37.441406 155.941406 37.503906 156.066406 37.628906 C 156.195312 37.753906 156.257812 37.90625 156.257812 38.085938 Z M 156.257812 38.085938 " fill-opacity="1" fill-rule="nonzero"/><path fill="#020000" d="M 90.667969 56.53125 C 90.667969 56.710938 90.605469 56.859375 90.480469 56.988281 C 90.355469 57.113281 90.203125 57.175781 90.027344 57.175781 C 89.847656 57.175781 89.699219 57.113281 89.570312 56.988281 C 89.445312 56.859375 89.382812 56.710938 89.382812 56.53125 C 89.382812 56.355469 89.445312 56.203125 89.570312 56.078125 C 89.699219 55.949219 89.847656 55.886719 90.027344 55.886719 C 90.203125 55.886719 90.355469 55.949219 90.480469 56.078125 C 90.605469 56.203125 90.667969 56.355469 90.667969 56.53125 Z M 90.667969 56.53125 " fill-opacity="1" fill-rule="nonzero"/><path fill="#020000" d="M 83.808594 25.847656 C 83.808594 26.027344 83.746094 26.175781 83.621094 26.304688 C 83.492188 26.429688 83.34375 26.492188 83.164062 26.492188 C 82.988281 26.492188 82.835938 26.429688 82.710938 26.304688 C 82.585938 26.175781 82.523438 26.027344 82.523438 25.847656 C 82.523438 25.671875 82.585938 25.519531 82.710938 25.394531 C 82.835938 25.265625 82.988281 25.203125 83.164062 25.203125 C 83.34375 25.203125 83.492188 25.265625 83.621094 25.394531 C 83.746094 25.519531 83.808594 25.671875 83.808594 25.847656 Z M 83.808594 25.847656 " fill-opacity="1" fill-rule="nonzero"/><path fill="#020000" d="M 62.035156 38.847656 C 62.035156 39.027344 61.972656 39.179688 61.847656 39.304688 C 61.722656 39.429688 61.570312 39.492188 61.394531 39.492188 C 61.214844 39.492188 61.066406 39.429688 60.9375 39.304688 C 60.8125 39.179688 60.75 39.027344 60.75 38.847656 C 60.75 38.671875 60.8125 38.519531 60.9375 38.394531 C 61.066406 38.269531 61.214844 38.207031 61.394531 38.207031 C 61.570312 38.207031 61.722656 38.269531 61.847656 38.394531 C 61.972656 38.519531 62.035156 38.671875 62.035156 38.847656 Z M 62.035156 38.847656 " fill-opacity="1" fill-rule="nonzero"/><path fill="#020000" d="M 75.253906 91.851562 C 75.253906 92.03125 75.1875 92.179688 75.0625 92.308594 C 74.9375 92.433594 74.785156 92.496094 74.609375 92.496094 C 74.429688 92.496094 74.28125 92.433594 74.15625 92.308594 C 74.027344 92.179688 73.964844 92.03125 73.964844 91.851562 C 73.964844 91.675781 74.027344 91.523438 74.15625 91.398438 C 74.28125 91.269531 74.429688 91.207031 74.609375 91.207031 C 74.785156 91.207031 74.9375 91.269531 75.0625 91.398438 C 75.1875 91.523438 75.253906 91.675781 75.253906 91.851562 Z M 75.253906 91.851562 " fill-opacity="1" fill-rule="nonzero"/><path fill="#020000" d="M 84.78125 88.964844 C 84.78125 89.140625 84.71875 89.292969 84.59375 89.417969 C 84.46875 89.542969 84.316406 89.605469 84.136719 89.605469 C 83.960938 89.605469 83.808594 89.542969 83.683594 89.417969 C 83.558594 89.292969 83.496094 89.140625 83.496094 88.964844 C 83.496094 88.785156 83.558594 88.632812 83.683594 88.507812 C 83.808594 88.382812 83.960938 88.320312 84.136719 88.320312 C 84.316406 88.320312 84.46875 88.382812 84.59375 88.507812 C 84.71875 88.632812 84.78125 88.785156 84.78125 88.964844 Z M 84.78125 88.964844 " fill-opacity="1" fill-rule="nonzero"/><path fill="#020000" d="M 60.757812 125.15625 C 60.757812 125.335938 60.695312 125.484375 60.566406 125.613281 C 60.441406 125.738281 60.292969 125.800781 60.113281 125.800781 C 59.9375 125.800781 59.785156 125.738281 59.660156 125.613281 C 59.535156 125.484375 59.46875 125.335938 59.46875 125.15625 C 59.46875 124.980469 59.535156 124.828125 59.660156 124.703125 C 59.785156 124.574219 59.9375 124.511719 60.113281 124.511719 C 60.292969 124.511719 60.441406 124.574219 60.566406 124.703125 C 60.695312 124.828125 60.757812 124.980469 60.757812 125.15625 Z M 60.757812 125.15625 " fill-opacity="1" fill-rule="nonzero"/><path fill="#020000" d="M 48.257812 119.636719 C 48.257812 119.8125 48.195312 119.964844 48.070312 120.089844 C 47.941406 120.214844 47.792969 120.28125 47.613281 120.28125 C 47.4375 120.28125 47.285156 120.214844 47.160156 120.089844 C 47.035156 119.964844 46.972656 119.8125 46.972656 119.636719 C 46.972656 119.457031 47.035156 119.304688 47.160156 119.179688 C 47.285156 119.054688 47.4375 118.992188 47.613281 118.992188 C 47.792969 118.992188 47.941406 119.054688 48.070312 119.179688 C 48.195312 119.304688 48.257812 119.457031 48.257812 119.636719 Z M 48.257812 119.636719 " fill-opacity="1" fill-rule="nonzero"/><path fill="#020000" d="M 81.050781 41.886719 C 81.050781 42.066406 80.988281 42.21875 80.863281 42.34375 C 80.738281 42.46875 80.585938 42.53125 80.410156 42.53125 C 80.230469 42.53125 80.082031 42.46875 79.953125 42.34375 C 79.828125 42.21875 79.765625 42.066406 79.765625 41.886719 C 79.765625 41.710938 79.828125 41.558594 79.953125 41.433594 C 80.082031 41.308594 80.230469 41.242188 80.410156 41.242188 C 80.585938 41.242188 80.738281 41.308594 80.863281 41.433594 C 80.988281 41.558594 81.050781 41.710938 81.050781 41.886719 Z M 81.050781 41.886719 " fill-opacity="1" fill-rule="nonzero"/><path fill="#020000" d="M 113.980469 14.761719 C 113.980469 14.9375 113.917969 15.089844 113.792969 15.214844 C 113.667969 15.339844 113.515625 15.402344 113.339844 15.402344 C 113.160156 15.402344 113.011719 15.339844 112.882812 15.214844 C 112.757812 15.089844 112.695312 14.9375 112.695312 14.761719 C 112.695312 14.582031 112.757812 14.429688 112.882812 14.304688 C 113.011719 14.179688 113.160156 14.117188 113.339844 14.117188 C 113.515625 14.117188 113.667969 14.179688 113.792969 14.304688 C 113.917969 14.429688 113.980469 14.582031 113.980469 14.761719 Z M 113.980469 14.761719 " fill-opacity="1" fill-rule="nonzero"/><path fill="#020000" d="M 104.722656 30.492188 C 104.722656 30.667969 104.660156 30.820312 104.53125 30.945312 C 104.40625 31.070312 104.253906 31.132812 104.078125 31.132812 C 103.902344 31.132812 103.75 31.070312 103.625 30.945312 C 103.5 30.820312 103.433594 30.667969 103.433594 30.492188 C 103.433594 30.3125 103.5 30.160156 103.625 30.035156 C 103.75 29.910156 103.902344 29.847656 104.078125 29.847656 C 104.253906 29.847656 104.40625 29.910156 104.53125 30.035156 C 104.660156 30.160156 104.722656 30.3125 104.722656 30.492188 Z M 104.722656 30.492188 " fill-opacity="1" fill-rule="nonzero"/><path fill="#020000" d="M 110.1875 22.957031 C 110.1875 23.136719 110.125 23.289062 110 23.414062 C 109.875 23.539062 109.722656 23.601562 109.542969 23.601562 C 109.367188 23.601562 109.214844 23.539062 109.089844 23.414062 C 108.964844 23.289062 108.902344 23.136719 108.902344 22.957031 C 108.902344 22.78125 108.964844 22.628906 109.089844 22.503906 C 109.214844 22.378906 109.367188 22.316406 109.542969 22.316406 C 109.722656 22.316406 109.875 22.378906 110 22.503906 C 110.125 22.628906 110.1875 22.78125 110.1875 22.957031 Z M 110.1875 22.957031 " fill-opacity="1" fill-rule="nonzero"/><path fill="#020000" d="M 119.164062 31.355469 C 119.164062 31.535156 119.101562 31.6875 118.972656 31.8125 C 118.847656 31.9375 118.695312 32 118.519531 32 C 118.34375 32 118.191406 31.9375 118.066406 31.8125 C 117.941406 31.6875 117.875 31.535156 117.875 31.355469 C 117.875 31.179688 117.941406 31.027344 118.066406 30.902344 C 118.191406 30.777344 118.34375 30.714844 118.519531 30.714844 C 118.695312 30.714844 118.847656 30.777344 118.972656 30.902344 C 119.101562 31.027344 119.164062 31.179688 119.164062 31.355469 Z M 119.164062 31.355469 " fill-opacity="1" fill-rule="nonzero"/><path fill="#020000" d="M 121.425781 64.0625 C 121.324219 63.984375 121.214844 63.957031 121.089844 63.972656 C 120.96875 63.992188 120.867188 64.046875 120.792969 64.148438 C 119.929688 65.289062 119.015625 65.960938 118.074219 66.144531 C 117.367188 66.285156 116.722656 66.144531 116.136719 65.722656 C 115.3125 65.117188 114.820312 64.304688 114.664062 63.292969 C 114.382812 61.554688 114.972656 59.800781 115.546875 58.105469 C 115.660156 57.773438 115.769531 57.445312 115.875 57.121094 C 116.386719 55.511719 116.914062 53.910156 117.445312 52.304688 L 117.992188 50.636719 C 118.570312 48.875 119.238281 46.574219 119.269531 44.371094 C 119.289062 43.394531 119.097656 42.464844 118.695312 41.578125 C 118.289062 40.691406 117.714844 39.933594 116.96875 39.308594 C 116.273438 38.71875 115.480469 38.3125 114.597656 38.082031 C 113.714844 37.855469 112.828125 37.828125 111.929688 38 C 109.148438 38.542969 107.140625 40.875 107.15625 43.5625 C 107.171875 45.621094 108.128906 47.46875 109.050781 49.253906 C 109.3125 49.757812 109.558594 50.234375 109.785156 50.714844 C 110.277344 51.75 110.613281 52.835938 110.804688 53.964844 C 110.585938 53.714844 110.339844 53.488281 110.066406 53.292969 C 109.796875 53.097656 109.503906 52.9375 109.195312 52.808594 C 108.886719 52.683594 108.566406 52.59375 108.238281 52.539062 C 107.90625 52.488281 107.574219 52.472656 107.242188 52.496094 C 106.90625 52.523438 106.582031 52.585938 106.261719 52.683594 C 105.945312 52.785156 105.640625 52.921875 105.351562 53.09375 C 105.066406 53.261719 104.800781 53.464844 104.5625 53.699219 C 104.320312 53.929688 104.109375 54.1875 103.929688 54.46875 C 103.75 54.75 103.605469 55.050781 103.492188 55.367188 C 103.382812 55.679688 103.308594 56.003906 103.273438 56.339844 C 103.238281 56.671875 103.242188 57.003906 103.28125 57.335938 C 103.324219 57.667969 103.402344 57.992188 103.519531 58.304688 C 103.636719 58.617188 103.789062 58.914062 103.972656 59.191406 C 104.160156 59.472656 104.375 59.722656 104.617188 59.953125 C 104.863281 60.179688 105.132812 60.378906 105.421875 60.542969 C 105.710938 60.710938 106.019531 60.839844 106.339844 60.933594 C 106.660156 61.027344 106.988281 61.085938 107.320312 61.105469 C 107.652344 61.121094 107.984375 61.101562 108.316406 61.042969 C 108.644531 60.984375 108.960938 60.886719 109.269531 60.753906 C 109.574219 60.621094 109.863281 60.457031 110.132812 60.253906 C 110.398438 60.054688 110.640625 59.828125 110.855469 59.570312 C 111.070312 59.3125 111.253906 59.035156 111.402344 58.738281 C 111.554688 58.4375 111.667969 58.125 111.746094 57.800781 C 111.824219 57.476562 111.863281 57.144531 111.863281 56.808594 L 111.863281 56.796875 C 111.863281 56.796875 111.863281 56.789062 111.863281 56.785156 C 111.992188 54.527344 111.574219 52.375 110.605469 50.328125 C 110.371094 49.832031 110.109375 49.328125 109.855469 48.839844 C 108.976562 47.148438 108.070312 45.398438 108.058594 43.554688 C 108.046875 41.339844 109.785156 39.332031 112.101562 38.886719 C 112.867188 38.730469 113.625 38.75 114.378906 38.945312 C 115.132812 39.140625 115.804688 39.492188 116.394531 40 C 117.039062 40.539062 117.53125 41.1875 117.875 41.953125 C 118.222656 42.714844 118.386719 43.515625 118.371094 44.351562 C 118.335938 46.4375 117.691406 48.65625 117.136719 50.355469 L 116.59375 52.019531 C 116.066406 53.625 115.535156 55.234375 115.019531 56.84375 C 114.917969 57.164062 114.808594 57.488281 114.699219 57.8125 C 114.089844 59.613281 113.460938 61.476562 113.78125 63.4375 C 113.984375 64.667969 114.675781 65.800781 115.628906 66.464844 C 116.214844 66.882812 116.867188 67.089844 117.585938 67.09375 C 117.8125 67.09375 118.039062 67.070312 118.261719 67.027344 C 119.425781 66.800781 120.523438 66.015625 121.527344 64.691406 C 121.597656 64.589844 121.625 64.476562 121.605469 64.355469 C 121.585938 64.234375 121.527344 64.132812 121.425781 64.0625 Z M 107.554688 60.21875 C 107.101562 60.21875 106.667969 60.132812 106.25 59.960938 C 105.832031 59.785156 105.460938 59.539062 105.140625 59.21875 C 104.820312 58.898438 104.574219 58.53125 104.402344 58.109375 C 104.226562 57.691406 104.140625 57.257812 104.140625 56.804688 C 104.140625 56.351562 104.226562 55.914062 104.398438 55.496094 C 104.574219 55.078125 104.820312 54.707031 105.140625 54.386719 C 105.460938 54.066406 105.828125 53.820312 106.246094 53.644531 C 106.664062 53.472656 107.101562 53.386719 107.554688 53.386719 C 108.003906 53.386719 108.441406 53.472656 108.859375 53.644531 C 109.277344 53.820312 109.648438 54.066406 109.96875 54.386719 C 110.285156 54.707031 110.535156 55.074219 110.707031 55.496094 C 110.878906 55.914062 110.964844 56.347656 110.964844 56.800781 C 110.964844 57.253906 110.878906 57.691406 110.707031 58.109375 C 110.53125 58.527344 110.285156 58.898438 109.964844 59.21875 C 109.648438 59.539062 109.277344 59.785156 108.859375 59.957031 C 108.441406 60.132812 108.007812 60.21875 107.554688 60.21875 Z M 107.554688 60.21875 " fill-opacity="1" fill-rule="nonzero"/></svg>