<svg xmlns="http://www.w3.org/2000/svg" xmlns:xlink="http://www.w3.org/1999/xlink" width="300" zoomAndPan="magnify" viewBox="0 0 224.87999 225" height="300" preserveAspectRatio="xMidYMid meet" version="1.0"><defs><clipPath id="dcacd8bb3d"><path d="M 81 164 L 107 164 L 107 213.285156 L 81 213.285156 Z M 81 164 " clip-rule="nonzero"/></clipPath><clipPath id="c27be57911"><path d="M 121 165 L 149 165 L 149 213.285156 L 121 213.285156 Z M 121 165 " clip-rule="nonzero"/></clipPath><clipPath id="e0ebb1b7ae"><path d="M 95 200 L 101 200 L 101 213.285156 L 95 213.285156 Z M 95 200 " clip-rule="nonzero"/></clipPath><clipPath id="1bb2318301"><path d="M 133 199 L 135 199 L 135 213.285156 L 133 213.285156 Z M 133 199 " clip-rule="nonzero"/></clipPath><clipPath id="1750cd6c54"><path d="M 41.839844 11.644531 L 182.765625 11.644531 L 182.765625 213.285156 L 41.839844 213.285156 Z M 41.839844 11.644531 " clip-rule="nonzero"/></clipPath></defs><path fill="#020000" d="M 125.929688 157.105469 C 125.886719 157.125 125.84375 157.136719 125.796875 157.136719 C 125.886719 157.136719 125.980469 157.132812 126.070312 157.125 C 126.074219 157.09375 126.082031 157.058594 126.089844 157.027344 C 126.050781 157.046875 126.003906 157.066406 125.929688 157.105469 Z M 125.929688 157.105469 " fill-opacity="1" fill-rule="nonzero"/><path fill="#020000" d="M 129.988281 149.242188 C 129.949219 148.828125 129.890625 148.207031 129.496094 147.808594 C 129.359375 147.664062 129.191406 147.589844 128.996094 147.589844 C 128.777344 147.597656 128.582031 147.667969 128.410156 147.796875 C 128.226562 147.929688 128.058594 148.078125 127.902344 148.246094 L 127.867188 148.28125 C 127.679688 148.46875 127.511719 148.675781 127.351562 148.859375 C 127.234375 148.992188 127.125 149.125 127.003906 149.253906 C 127.023438 146.863281 126.746094 144.707031 126.171875 142.804688 C 125.144531 139.40625 123.238281 137.210938 120.34375 136.089844 C 118.023438 135.191406 115.152344 135.007812 111.316406 135.511719 C 108.324219 135.910156 104.933594 136.351562 103.007812 139.707031 C 101.558594 142.222656 101.378906 145.371094 101.21875 148.144531 C 101.199219 148.417969 101.1875 148.691406 101.167969 148.960938 C 101.167969 149.019531 101.167969 149.089844 101.167969 149.148438 C 100.800781 148.757812 100.40625 148.398438 99.980469 148.070312 C 99.816406 147.949219 99.386719 147.632812 98.925781 147.78125 C 98.496094 147.914062 98.265625 148.378906 98.28125 149.039062 C 98.3125 150.210938 98.589844 151.324219 98.929688 152.554688 C 99.257812 153.734375 99.570312 154.792969 100.160156 155.738281 C 100.375 156.09375 100.621094 156.425781 100.894531 156.734375 C 101.332031 157.246094 101.871094 157.597656 102.515625 157.789062 C 102.515625 157.792969 102.515625 157.796875 102.515625 157.800781 C 102.640625 158.558594 102.808594 159.300781 103.019531 160.035156 C 103.464844 161.488281 104.324219 162.992188 105.425781 164.386719 C 105.699219 164.730469 105.984375 165.070312 106.285156 165.394531 C 108.253906 167.554688 110.742188 169.289062 112.96875 169.839844 C 113.617188 170 114.277344 170.078125 114.945312 170.082031 C 117.101562 170.082031 119.164062 169.195312 121.019531 167.476562 C 121.320312 167.199219 121.605469 166.90625 121.878906 166.589844 C 122.089844 166.359375 122.289062 166.121094 122.480469 165.871094 C 123.835938 164.121094 124.800781 162.175781 125.375 160.035156 C 125.640625 159.039062 125.878906 158.074219 126.082031 157.121094 C 125.992188 157.121094 125.898438 157.132812 125.808594 157.132812 C 125.855469 157.132812 125.898438 157.121094 125.941406 157.101562 C 126.015625 157.0625 126.0625 157.042969 126.101562 157.023438 C 126.105469 157.027344 126.109375 157.027344 126.117188 157.023438 L 126.304688 156.933594 C 126.644531 156.765625 127.007812 156.585938 127.359375 156.371094 C 127.75 156.140625 128.09375 155.859375 128.398438 155.523438 C 129.003906 154.832031 129.285156 153.949219 129.507812 153.175781 C 129.761719 152.335938 129.925781 151.480469 130 150.605469 C 130.039062 150.152344 130.035156 149.695312 129.988281 149.242188 Z M 100.703125 155.390625 C 100.160156 154.519531 99.863281 153.511719 99.550781 152.378906 C 99.222656 151.191406 98.949219 150.113281 98.925781 149.015625 C 98.914062 148.753906 98.972656 148.453125 99.113281 148.40625 C 99.207031 148.378906 99.363281 148.441406 99.570312 148.597656 C 100.105469 149 100.585938 149.460938 101.003906 149.980469 C 101.039062 150.023438 101.082031 150.054688 101.136719 150.078125 C 101.164062 151.546875 101.429688 153.128906 101.953125 155.066406 C 102.128906 155.714844 102.253906 156.386719 102.367188 157.046875 C 101.777344 156.785156 101.25 156.253906 100.703125 155.390625 Z M 125.507812 156.640625 C 125.507812 156.640625 125.507812 156.648438 125.507812 156.652344 C 125.496094 156.710938 125.480469 156.773438 125.46875 156.835938 C 125.257812 157.816406 125.015625 158.828125 124.738281 159.863281 C 124.171875 161.945312 123.222656 163.839844 121.894531 165.542969 C 121.886719 165.558594 121.875 165.574219 121.859375 165.589844 C 121.464844 166.089844 121.035156 166.5625 120.566406 166.996094 C 119 168.449219 116.441406 170.019531 113.125 169.203125 C 110.753906 168.621094 108 166.523438 106.019531 164.058594 C 105.980469 164.019531 105.953125 163.980469 105.921875 163.941406 C 104.875 162.621094 104.058594 161.195312 103.644531 159.847656 C 103.4375 159.117188 103.273438 158.378906 103.152344 157.625 C 103.136719 157.53125 103.117188 157.429688 103.101562 157.335938 C 103.097656 157.308594 103.09375 157.28125 103.085938 157.25 C 102.957031 156.480469 102.8125 155.679688 102.601562 154.898438 C 102.058594 152.894531 101.8125 151.285156 101.8125 149.800781 C 101.8125 149.535156 101.820312 149.273438 101.835938 149.007812 C 101.851562 148.746094 101.867188 148.46875 101.882812 148.191406 C 102.046875 145.359375 102.21875 142.421875 103.585938 140.039062 C 105.214844 137.183594 107.972656 136.613281 111.398438 136.160156 C 112.617188 135.988281 113.839844 135.902344 115.070312 135.894531 C 120.792969 135.894531 124.078125 138.15625 125.539062 142.984375 C 126.636719 146.617188 126.625 151.199219 125.507812 156.640625 Z M 129.328125 150.550781 C 129.253906 151.382812 129.097656 152.195312 128.855469 152.992188 C 128.65625 153.691406 128.398438 154.492188 127.882812 155.082031 C 127.453125 155.578125 126.855469 155.910156 126.25 156.214844 C 126.664062 154.15625 126.910156 152.074219 126.988281 149.972656 C 127.109375 150.003906 127.214844 149.980469 127.304688 149.894531 C 127.507812 149.695312 127.683594 149.480469 127.851562 149.277344 C 128.023438 149.078125 128.164062 148.910156 128.335938 148.738281 L 128.371094 148.699219 C 128.460938 148.605469 128.558594 148.519531 128.660156 148.4375 C 128.75 148.339844 128.863281 148.277344 128.996094 148.25 C 128.996094 148.25 129.011719 148.25 129.035156 148.269531 C 129.261719 148.5 129.308594 148.988281 129.339844 149.304688 C 129.367188 149.722656 129.367188 150.136719 129.328125 150.550781 Z M 129.328125 150.550781 " fill-opacity="1" fill-rule="nonzero"/><path fill="#020000" d="M 106.011719 164.058594 C 105.972656 164.019531 105.945312 163.980469 105.914062 163.9375 C 105.953125 163.972656 105.988281 164.011719 106.011719 164.058594 Z M 106.011719 164.058594 " fill-opacity="1" fill-rule="nonzero"/><g clip-path="url(#dcacd8bb3d)"><path fill="#020000" d="M 105.128906 173.683594 C 103.476562 176.476562 101.089844 179.828125 97.304688 181.070312 C 95.902344 181.53125 94.164062 181.574219 92.332031 181.621094 C 89.09375 181.710938 85.746094 181.800781 84.167969 184.21875 C 83.105469 185.839844 82.417969 187.609375 82.113281 189.527344 C 81.992188 190.285156 81.925781 191.050781 81.917969 191.816406 C 81.84375 196.515625 83.667969 201.457031 85.457031 206.300781 C 86.21875 208.371094 86.957031 210.371094 87.546875 212.320312 C 87.644531 212.644531 87.738281 212.96875 87.824219 213.285156 L 87.140625 213.285156 C 87.050781 212.96875 86.957031 212.644531 86.855469 212.320312 C 86.285156 210.445312 85.570312 208.519531 84.835938 206.527344 C 83.03125 201.632812 81.183594 196.636719 81.25 191.84375 C 81.257812 190.671875 81.398438 189.511719 81.667969 188.367188 C 82.054688 186.753906 82.703125 185.25 83.617188 183.863281 C 85.382812 181.152344 88.90625 181.054688 92.3125 180.96875 C 94.097656 180.921875 95.785156 180.875 97.09375 180.441406 C 100.671875 179.273438 102.964844 176.035156 104.558594 173.347656 C 105.910156 171.0625 106.199219 168.050781 105.417969 164.386719 C 105.6875 164.734375 105.976562 165.074219 106.273438 165.398438 C 106.800781 168.714844 106.421875 171.5 105.128906 173.683594 Z M 105.128906 173.683594 " fill-opacity="1" fill-rule="nonzero"/></g><g clip-path="url(#c27be57911)"><path fill="#020000" d="M 148.675781 191.300781 C 148.660156 191.570312 148.640625 191.839844 148.617188 192.109375 C 148.59375 192.453125 148.566406 192.789062 148.53125 193.125 C 148.042969 198.488281 146.828125 203.71875 145.652344 208.804688 C 145.386719 209.96875 145.109375 211.140625 144.847656 212.320312 C 144.773438 212.640625 144.703125 212.964844 144.632812 213.285156 L 143.964844 213.285156 C 144.035156 212.964844 144.105469 212.640625 144.175781 212.320312 C 144.449219 211.089844 144.738281 209.867188 145.015625 208.65625 C 146.1875 203.609375 147.390625 198.414062 147.878906 193.117188 C 147.914062 192.75 147.945312 192.378906 147.972656 192.011719 C 147.992188 191.761719 148.007812 191.511719 148.023438 191.261719 C 148.105469 189.878906 148.195312 188.453125 147.832031 187.121094 C 147.15625 184.640625 144.996094 181.96875 142.175781 181.683594 C 141.292969 181.589844 140.394531 181.511719 139.527344 181.4375 C 132.578125 180.851562 126.007812 180.296875 123.019531 172.171875 C 122.3125 170.25 122.027344 168.25 121.875 166.59375 C 122.085938 166.363281 122.285156 166.125 122.476562 165.875 C 122.609375 167.605469 122.855469 169.832031 123.632812 171.9375 C 126.480469 179.671875 132.84375 180.210938 139.585938 180.785156 C 140.460938 180.859375 141.363281 180.9375 142.25 181.03125 C 145.363281 181.351562 147.738281 184.25 148.472656 186.945312 C 148.847656 188.386719 148.761719 189.867188 148.675781 191.300781 Z M 148.675781 191.300781 " fill-opacity="1" fill-rule="nonzero"/></g><path fill="#020000" d="M 103.15625 157.589844 C 103.152344 157.601562 103.148438 157.617188 103.140625 157.628906 C 103.128906 157.53125 103.109375 157.433594 103.09375 157.332031 C 103.152344 157.410156 103.171875 157.496094 103.15625 157.589844 Z M 103.15625 157.589844 " fill-opacity="1" fill-rule="nonzero"/><path fill="#020000" d="M 143.90625 111.25 C 143.847656 111.457031 143.777344 111.667969 143.707031 111.875 C 143.191406 113.386719 142.449219 114.78125 141.488281 116.058594 C 143.191406 118.261719 142.5 121.417969 141.351562 123.53125 C 141.339844 123.546875 141.328125 123.566406 141.320312 123.582031 C 141.3125 123.601562 141.304688 123.609375 141.292969 123.632812 L 141.277344 123.664062 C 141.234375 123.746094 141.171875 123.800781 141.085938 123.828125 C 141 123.855469 140.917969 123.851562 140.835938 123.808594 C 140.78125 123.777344 140.738281 123.734375 140.703125 123.675781 C 140.703125 123.667969 140.695312 123.65625 140.691406 123.648438 C 140.683594 123.640625 140.691406 123.640625 140.691406 123.636719 C 140.691406 123.632812 140.679688 123.597656 140.671875 123.578125 C 140.664062 123.539062 140.664062 123.5 140.671875 123.460938 C 140.671875 123.445312 140.671875 123.433594 140.679688 123.417969 C 140.683594 123.402344 140.6875 123.386719 140.695312 123.371094 C 140.695312 123.371094 140.695312 123.363281 140.695312 123.359375 L 140.742188 123.273438 C 142.40625 120.273438 141.980469 117.601562 140.824219 116.273438 C 140.707031 116.136719 140.703125 115.996094 140.816406 115.851562 C 141.859375 114.527344 142.644531 113.0625 143.171875 111.457031 C 143.171875 111.457031 143.171875 111.445312 143.171875 111.445312 C 143.171875 111.441406 143.171875 111.445312 143.171875 111.4375 C 143.183594 111.394531 143.195312 111.359375 143.207031 111.320312 C 143.601562 110.046875 143.796875 108.722656 143.648438 107.480469 C 143.296875 104.46875 141.304688 101.691406 137.382812 98.734375 C 137.292969 98.667969 137.25 98.582031 137.25 98.46875 C 137.285156 94.183594 133.917969 90.011719 129.25 88.558594 C 124.273438 87.007812 119.191406 88.472656 115.804688 89.972656 C 115.652344 90.039062 115.519531 90.007812 115.414062 89.882812 C 112.554688 86.390625 107.808594 84.746094 103.613281 85.789062 C 99.320312 86.84375 95.902344 90.867188 95.664062 95.140625 C 95.65625 95.261719 95.597656 95.351562 95.492188 95.410156 C 94.488281 95.953125 93.554688 96.601562 92.691406 97.355469 C 92.683594 97.371094 92.671875 97.382812 92.65625 97.390625 C 89.449219 100.246094 88.050781 104.140625 89.03125 107.953125 C 89.089844 108.175781 89.183594 108.546875 88.980469 108.855469 C 88.90625 108.957031 88.820312 109.042969 88.714844 109.113281 C 86.632812 110.71875 85.550781 113.21875 85.023438 115.03125 C 84.640625 116.328125 84.597656 118.019531 84.90625 119.671875 C 84.980469 120.070312 85.898438 122.648438 86.292969 123.09375 C 86.40625 123.09375 86.492188 123.136719 86.558594 123.226562 C 86.609375 123.300781 86.628906 123.382812 86.617188 123.472656 C 86.601562 123.5625 86.558594 123.632812 86.484375 123.6875 C 83.1875 126.0625 82.238281 132.242188 82.757812 136.960938 C 83.605469 144.703125 92.53125 154.1875 100.886719 156.730469 C 101.324219 157.246094 101.863281 157.597656 102.507812 157.789062 C 102.507812 157.792969 102.507812 157.796875 102.507812 157.800781 C 93.296875 156.101562 83.054688 145.710938 82.101562 137.03125 C 81.707031 133.359375 82.039062 126.492188 85.746094 123.421875 C 85.0625 122.476562 84.265625 119.8125 84.257812 119.78125 C 83.933594 118.03125 83.984375 116.230469 84.390625 114.835938 C 84.953125 112.925781 86.089844 110.292969 88.3125 108.582031 C 88.355469 108.558594 88.390625 108.523438 88.421875 108.484375 C 88.46875 108.417969 88.421875 108.222656 88.390625 108.109375 C 87.386719 104.21875 88.699219 100.257812 91.792969 97.28125 C 91.976562 97.101562 92.167969 96.929688 92.363281 96.753906 C 93.1875 96.050781 94.070312 95.433594 95.011719 94.90625 C 95.355469 90.355469 98.875 86.261719 103.449219 85.132812 C 107.8125 84.050781 112.726562 85.707031 115.757812 89.261719 C 119.25 87.746094 124.386719 86.339844 129.445312 87.917969 C 134.320312 89.4375 137.855469 93.78125 137.90625 98.296875 C 141.894531 101.335938 143.925781 104.226562 144.300781 107.390625 C 144.445312 108.644531 144.277344 109.96875 143.90625 111.25 Z M 143.90625 111.25 " fill-opacity="1" fill-rule="nonzero"/><path fill="#020000" d="M 125.496094 156.652344 C 125.484375 156.710938 125.472656 156.773438 125.457031 156.835938 C 125.453125 156.769531 125.464844 156.710938 125.496094 156.652344 Z M 125.496094 156.652344 " fill-opacity="1" fill-rule="nonzero"/><path fill="#020000" d="M 142.492188 142.691406 C 140.910156 146.917969 138.714844 150.378906 135.949219 152.960938 C 133.027344 155.683594 130.0625 156.941406 126.0625 157.125 C 125.972656 157.125 125.878906 157.136719 125.789062 157.136719 C 125.835938 157.136719 125.878906 157.125 125.921875 157.105469 C 125.996094 157.066406 126.042969 157.050781 126.082031 157.027344 L 126.09375 157.027344 C 126.144531 157.003906 126.191406 156.984375 126.285156 156.9375 C 126.625 156.765625 126.988281 156.589844 127.339844 156.375 C 130.523438 155.992188 133.03125 154.789062 135.5 152.480469 C 138.1875 149.972656 140.332031 146.601562 141.875 142.46875 C 144.027344 136.691406 143.605469 130.023438 140.699219 123.6875 C 140.699219 123.679688 140.691406 123.667969 140.683594 123.660156 C 140.675781 123.652344 140.683594 123.652344 140.683594 123.648438 C 140.683594 123.644531 140.671875 123.609375 140.664062 123.589844 C 140.65625 123.550781 140.65625 123.511719 140.664062 123.472656 C 140.664062 123.457031 140.664062 123.445312 140.671875 123.429688 C 140.675781 123.414062 140.683594 123.398438 140.6875 123.382812 C 140.6875 123.382812 140.6875 123.375 140.6875 123.371094 C 140.722656 123.304688 140.773438 123.253906 140.84375 123.222656 C 140.925781 123.183594 141.011719 123.179688 141.097656 123.210938 C 141.179688 123.246094 141.242188 123.300781 141.277344 123.382812 C 141.300781 123.433594 141.328125 123.484375 141.347656 123.535156 C 144.285156 129.992188 144.691406 136.789062 142.492188 142.691406 Z M 142.492188 142.691406 " fill-opacity="1" fill-rule="nonzero"/><path fill="#020000" d="M 119.859375 161.871094 C 118.9375 160.949219 117.792969 159.796875 116.167969 160.074219 C 116.015625 160.101562 115.859375 160.136719 115.710938 160.183594 C 115.492188 160.253906 115.269531 160.292969 115.039062 160.292969 C 114.839844 160.269531 114.640625 160.226562 114.449219 160.160156 C 114.28125 160.117188 114.113281 160.070312 113.933594 160.039062 C 113.292969 159.941406 112.671875 160.148438 112.097656 160.390625 C 111.199219 160.765625 110.34375 161.222656 109.527344 161.757812 C 109.402344 161.84375 109.359375 161.960938 109.398438 162.109375 C 109.402344 162.140625 109.414062 162.167969 109.429688 162.195312 C 109.484375 162.292969 109.570312 162.347656 109.683594 162.359375 L 110.046875 162.394531 C 110.609375 162.464844 111.175781 162.503906 111.742188 162.515625 C 112.019531 162.515625 112.296875 162.5 112.570312 162.46875 C 112.683594 162.453125 112.796875 162.4375 112.914062 162.421875 C 113.351562 162.339844 113.796875 162.308594 114.242188 162.335938 C 114.359375 162.347656 114.480469 162.367188 114.597656 162.382812 C 114.8125 162.425781 115.027344 162.449219 115.242188 162.453125 C 115.496094 162.441406 115.75 162.414062 115.996094 162.363281 C 116.15625 162.332031 116.316406 162.304688 116.480469 162.289062 C 116.796875 162.269531 117.113281 162.285156 117.429688 162.332031 C 117.558594 162.34375 117.691406 162.363281 117.824219 162.382812 C 118.109375 162.425781 118.394531 162.464844 118.6875 162.484375 C 119.03125 162.511719 119.375 162.488281 119.714844 162.417969 C 119.726562 162.417969 119.738281 162.410156 119.75 162.40625 C 119.855469 162.371094 119.925781 162.296875 119.957031 162.191406 C 119.984375 162.066406 119.953125 161.960938 119.859375 161.871094 Z M 117.902344 161.738281 L 117.464844 161.679688 C 117.117188 161.628906 116.765625 161.617188 116.410156 161.640625 C 116.226562 161.65625 116.042969 161.6875 115.867188 161.71875 C 115.660156 161.765625 115.449219 161.792969 115.238281 161.800781 C 115.054688 161.796875 114.875 161.773438 114.699219 161.738281 C 114.566406 161.71875 114.433594 161.699219 114.300781 161.683594 C 113.804688 161.65625 113.308594 161.6875 112.816406 161.773438 C 112.703125 161.792969 112.59375 161.808594 112.484375 161.820312 C 111.890625 161.882812 111.300781 161.878906 110.710938 161.808594 C 111.242188 161.507812 111.789062 161.238281 112.351562 161 C 112.839844 160.796875 113.351562 160.621094 113.832031 160.699219 C 113.980469 160.722656 114.128906 160.757812 114.273438 160.804688 C 114.511719 160.875 114.753906 160.925781 115 160.949219 C 115.304688 160.953125 115.597656 160.910156 115.882812 160.816406 C 116.015625 160.777344 116.144531 160.746094 116.28125 160.722656 C 117.28125 160.558594 118.085938 161.09375 118.796875 161.75 C 118.832031 161.777344 118.863281 161.808594 118.898438 161.839844 C 118.566406 161.828125 118.234375 161.792969 117.902344 161.742188 Z M 117.902344 161.738281 " fill-opacity="1" fill-rule="nonzero"/><path fill="#020000" d="M 119.804688 162.113281 C 119.78125 161.945312 119.6875 161.847656 119.515625 161.828125 C 119.277344 161.796875 119.035156 161.769531 118.789062 161.746094 C 118.351562 161.699219 117.910156 161.675781 117.46875 161.679688 C 116.9375 161.683594 116.410156 161.738281 115.886719 161.847656 L 115.730469 161.886719 C 115.570312 161.929688 115.410156 161.957031 115.246094 161.976562 C 115.070312 161.984375 114.894531 161.980469 114.71875 161.960938 L 114.609375 161.949219 C 114.011719 161.90625 113.40625 161.917969 112.820312 161.929688 C 111.910156 161.949219 111.050781 161.964844 110.207031 161.785156 C 110.085938 161.761719 109.765625 161.695312 109.527344 161.917969 C 109.445312 161.996094 109.410156 162.089844 109.425781 162.199219 C 109.433594 162.269531 109.460938 162.328125 109.503906 162.378906 C 110.273438 163.253906 111.542969 163.738281 112.566406 164.058594 C 113.304688 164.289062 114.058594 164.40625 114.832031 164.40625 C 116.65625 164.40625 118.417969 163.746094 119.617188 162.542969 C 119.625 162.535156 119.632812 162.527344 119.640625 162.523438 C 119.683594 162.492188 119.71875 162.457031 119.746094 162.414062 C 119.796875 162.320312 119.8125 162.21875 119.804688 162.113281 Z M 112.753906 163.433594 C 112.09375 163.226562 111.316406 162.945312 110.683594 162.53125 C 111.394531 162.601562 112.109375 162.621094 112.824219 162.589844 C 113.398438 162.578125 113.984375 162.566406 114.550781 162.609375 L 114.660156 162.617188 C 114.871094 162.640625 115.082031 162.644531 115.292969 162.632812 C 115.488281 162.613281 115.679688 162.578125 115.867188 162.527344 L 116.023438 162.492188 C 116.480469 162.394531 116.945312 162.34375 117.417969 162.339844 C 117.875 162.335938 118.328125 162.355469 118.78125 162.40625 C 118.746094 162.433594 118.710938 162.464844 118.671875 162.492188 C 117.125 163.703125 114.835938 164.085938 112.753906 163.429688 Z M 112.753906 163.433594 " fill-opacity="1" fill-rule="nonzero"/><path fill="#020000" d="M 125.496094 156.652344 C 125.484375 156.710938 125.472656 156.773438 125.457031 156.835938 C 125.453125 156.769531 125.464844 156.710938 125.496094 156.652344 Z M 125.496094 156.652344 " fill-opacity="1" fill-rule="nonzero"/><path fill="#020000" d="M 125.507812 156.625 C 125.507812 156.625 125.496094 156.636719 125.496094 156.648438 C 125.5 156.640625 125.503906 156.632812 125.507812 156.625 Z M 125.507812 156.625 " fill-opacity="1" fill-rule="nonzero"/><path fill="#020000" d="M 103.15625 157.589844 L 103.144531 157.628906 C 103.128906 157.53125 103.113281 157.433594 103.09375 157.332031 C 103.152344 157.410156 103.171875 157.496094 103.15625 157.589844 Z M 103.15625 157.589844 " fill-opacity="1" fill-rule="nonzero"/><path fill="#020000" d="M 154.460938 114.878906 C 154.433594 114.878906 154.402344 114.875 154.375 114.867188 C 154.375 114.867188 152.082031 114.230469 143.40625 111.789062 C 143.320312 111.765625 143.253906 111.714844 143.210938 111.636719 C 143.164062 111.554688 143.15625 111.472656 143.179688 111.382812 C 143.203125 111.296875 143.257812 111.230469 143.335938 111.1875 C 143.414062 111.140625 143.5 111.132812 143.585938 111.15625 C 152.257812 113.597656 154.550781 114.242188 154.550781 114.242188 C 154.734375 114.292969 154.8125 114.410156 154.789062 114.601562 C 154.761719 114.789062 154.652344 114.886719 154.460938 114.886719 Z M 154.460938 114.878906 " fill-opacity="1" fill-rule="nonzero"/><path fill="#020000" d="M 92.457031 97.453125 C 92.425781 97.453125 92.398438 97.449219 92.371094 97.441406 L 83.40625 94.976562 C 75.082031 92.6875 70.90625 91.535156 70.53125 91.410156 C 70.441406 91.386719 70.375 91.332031 70.328125 91.246094 C 70.285156 91.164062 70.277344 91.078125 70.308594 90.988281 C 70.339844 90.898438 70.394531 90.832031 70.480469 90.792969 C 70.566406 90.753906 70.65625 90.753906 70.742188 90.789062 C 71.097656 90.910156 75.53125 92.128906 83.578125 94.34375 L 92.546875 96.8125 C 92.730469 96.863281 92.808594 96.980469 92.785156 97.171875 C 92.757812 97.359375 92.652344 97.457031 92.460938 97.457031 Z M 92.457031 97.453125 " fill-opacity="1" fill-rule="nonzero"/><path fill="#020000" d="M 162.265625 147.4375 C 162.113281 147.121094 161.804688 146.828125 161.359375 146.566406 C 159.558594 145.503906 155.617188 144.941406 151.859375 144.941406 C 148.191406 144.941406 144.359375 145.46875 142.496094 146.492188 C 142.105469 146.679688 141.78125 146.949219 141.523438 147.300781 C 141.421875 147.460938 141.363281 147.636719 141.347656 147.828125 C 141.347656 147.847656 141.347656 147.863281 141.347656 147.882812 C 141.351562 147.902344 141.351562 147.921875 141.355469 147.941406 C 141.363281 148.078125 141.394531 148.210938 141.453125 148.335938 C 141.617188 148.679688 141.972656 148.996094 142.472656 149.261719 C 144.316406 150.285156 148.175781 150.828125 151.863281 150.828125 C 155.585938 150.828125 159.480469 150.277344 161.304688 149.230469 C 161.824219 148.9375 162.175781 148.601562 162.3125 148.230469 C 162.3125 148.214844 162.320312 148.203125 162.324219 148.191406 C 162.324219 148.171875 162.328125 148.152344 162.335938 148.136719 C 162.355469 148.082031 162.363281 148.027344 162.363281 147.972656 C 162.363281 147.941406 162.371094 147.925781 162.371094 147.921875 C 162.375 147.90625 162.375 147.894531 162.371094 147.878906 C 162.371094 147.722656 162.335938 147.578125 162.265625 147.4375 Z M 161.679688 148.042969 C 161.3125 148.980469 157.644531 150.175781 151.859375 150.175781 C 146.179688 150.175781 142.535156 149.023438 142.058594 148.09375 C 142.019531 148.03125 142 147.960938 142 147.890625 C 142.007812 147.765625 142.050781 147.660156 142.132812 147.570312 C 142.835938 146.660156 146.410156 145.589844 151.863281 145.589844 C 157.492188 145.589844 161.121094 146.722656 161.644531 147.652344 C 161.691406 147.722656 161.714844 147.800781 161.71875 147.882812 C 161.71875 147.9375 161.703125 147.992188 161.679688 148.042969 Z M 161.679688 148.042969 " fill-opacity="1" fill-rule="nonzero"/><path fill="#020000" d="M 162.359375 147.804688 L 162.265625 147.4375 L 153.785156 114.707031 L 153.59375 113.96875 L 153.570312 113.867188 C 153.527344 113.707031 153.425781 113.625 153.261719 113.621094 C 153.125 113.613281 153.027344 113.667969 152.960938 113.789062 C 152.953125 113.804688 152.945312 113.824219 152.941406 113.839844 L 152.742188 114.414062 L 141.523438 147.300781 L 141.359375 147.78125 C 141.359375 147.796875 141.351562 147.816406 141.347656 147.832031 C 141.347656 147.851562 141.347656 147.871094 141.347656 147.890625 C 141.351562 147.90625 141.351562 147.925781 141.355469 147.945312 C 141.355469 147.964844 141.386719 148.105469 141.453125 148.339844 C 141.894531 149.863281 144 155.265625 151.605469 155.265625 C 151.769531 155.265625 151.9375 155.265625 152.105469 155.265625 C 156.925781 155.121094 159.460938 153.148438 160.734375 151.515625 C 161.503906 150.542969 162.027344 149.453125 162.308594 148.246094 C 162.308594 148.230469 162.316406 148.21875 162.320312 148.207031 C 162.320312 148.1875 162.324219 148.167969 162.332031 148.152344 C 162.34375 148.078125 162.351562 148.019531 162.359375 147.988281 C 162.367188 147.957031 162.367188 147.941406 162.367188 147.9375 C 162.367188 147.921875 162.367188 147.910156 162.367188 147.894531 C 162.367188 147.863281 162.367188 147.835938 162.359375 147.804688 Z M 160.21875 151.105469 C 158.515625 153.285156 155.703125 154.492188 152.089844 154.605469 C 151.921875 154.605469 151.757812 154.605469 151.597656 154.605469 C 145.679688 154.605469 143.339844 151.253906 142.46875 149.261719 C 142.300781 148.882812 142.164062 148.488281 142.058594 148.085938 C 142.039062 148.011719 142.023438 147.953125 142.011719 147.90625 L 142.128906 147.5625 L 142.496094 146.484375 L 153.207031 115.085938 L 161.367188 146.566406 L 161.648438 147.660156 L 161.710938 147.90625 C 161.707031 147.9375 161.699219 147.984375 161.6875 148.035156 C 161.597656 148.449219 161.46875 148.847656 161.308594 149.234375 C 161.03125 149.910156 160.667969 150.53125 160.21875 151.105469 Z M 160.21875 151.105469 " fill-opacity="1" fill-rule="nonzero"/><path fill="#020000" d="M 83.25 124.652344 C 83.234375 124.453125 83.175781 124.269531 83.066406 124.105469 C 82.808594 123.765625 82.484375 123.5 82.097656 123.3125 C 80.238281 122.300781 76.40625 121.765625 72.738281 121.765625 C 68.972656 121.765625 65.035156 122.328125 63.234375 123.394531 C 62.792969 123.660156 62.480469 123.945312 62.332031 124.261719 C 62.261719 124.402344 62.226562 124.550781 62.226562 124.710938 C 62.222656 124.722656 62.222656 124.738281 62.226562 124.753906 C 62.226562 124.761719 62.226562 124.773438 62.226562 124.78125 C 62.230469 124.875 62.25 124.96875 62.28125 125.058594 C 62.410156 125.421875 62.761719 125.753906 63.269531 126.046875 C 65.089844 127.101562 68.996094 127.652344 72.730469 127.652344 C 76.421875 127.652344 80.277344 127.113281 82.125 126.089844 C 82.621094 125.8125 82.976562 125.503906 83.140625 125.164062 C 83.199219 125.039062 83.230469 124.90625 83.238281 124.769531 C 83.242188 124.75 83.246094 124.730469 83.246094 124.710938 C 83.25 124.6875 83.25 124.671875 83.25 124.652344 Z M 82.542969 124.902344 C 82.082031 125.832031 78.4375 126.992188 72.738281 126.992188 C 66.914062 126.992188 63.234375 125.78125 62.90625 124.839844 C 62.890625 124.796875 62.882812 124.753906 62.878906 124.707031 C 62.882812 124.625 62.90625 124.546875 62.949219 124.480469 C 63.476562 123.554688 67.105469 122.417969 72.738281 122.417969 C 78.210938 122.417969 81.789062 123.484375 82.472656 124.398438 C 82.546875 124.484375 82.585938 124.589844 82.59375 124.703125 C 82.59375 124.773438 82.574219 124.839844 82.542969 124.902344 Z M 82.542969 124.902344 " fill-opacity="1" fill-rule="nonzero"/><path fill="#020000" d="M 83.25 124.652344 C 83.242188 124.628906 83.238281 124.613281 83.234375 124.597656 L 83.066406 124.105469 L 72.066406 91.851562 L 71.800781 91.097656 L 71.652344 90.660156 C 71.601562 90.511719 71.496094 90.4375 71.339844 90.4375 L 71.328125 90.4375 C 71.167969 90.441406 71.066406 90.523438 71.023438 90.679688 L 70.976562 90.859375 L 70.8125 91.492188 L 62.332031 124.253906 L 62.234375 124.621094 C 62.230469 124.648438 62.226562 124.675781 62.226562 124.703125 C 62.222656 124.714844 62.222656 124.730469 62.226562 124.746094 C 62.226562 124.753906 62.226562 124.761719 62.226562 124.773438 C 62.234375 124.816406 62.25 124.914062 62.28125 125.050781 C 62.558594 126.257812 63.082031 127.347656 63.851562 128.320312 C 65.128906 129.949219 67.660156 131.921875 72.480469 132.070312 C 72.652344 132.070312 72.816406 132.070312 72.980469 132.070312 C 80.589844 132.070312 82.699219 126.664062 83.132812 125.144531 C 83.199219 124.914062 83.226562 124.773438 83.234375 124.75 C 83.238281 124.730469 83.238281 124.710938 83.238281 124.691406 C 83.25 124.6875 83.25 124.671875 83.25 124.652344 Z M 72.507812 131.417969 C 66.277344 131.234375 64.046875 127.96875 63.277344 126.042969 C 63.117188 125.65625 62.996094 125.253906 62.910156 124.839844 C 62.910156 124.792969 62.894531 124.75 62.890625 124.71875 L 62.953125 124.476562 L 63.238281 123.386719 L 71.390625 91.90625 L 82.101562 123.304688 L 82.476562 124.398438 L 82.589844 124.726562 C 82.578125 124.773438 82.566406 124.832031 82.546875 124.902344 C 82.441406 125.308594 82.304688 125.703125 82.136719 126.089844 C 81.238281 128.132812 78.792969 131.609375 72.507812 131.417969 Z M 72.507812 131.417969 " fill-opacity="1" fill-rule="nonzero"/><g clip-path="url(#e0ebb1b7ae)"><path fill="#020000" d="M 100.027344 213.285156 L 99.355469 213.285156 C 99.285156 212.964844 99.210938 212.640625 99.136719 212.320312 C 98.210938 208.34375 97.015625 204.449219 95.542969 200.640625 C 95.507812 200.554688 95.511719 200.472656 95.546875 200.390625 C 95.585938 200.304688 95.644531 200.25 95.730469 200.214844 C 95.816406 200.183594 95.898438 200.183594 95.980469 200.222656 C 96.066406 200.257812 96.121094 200.320312 96.15625 200.402344 C 97.65625 204.289062 98.878906 208.261719 99.8125 212.320312 C 99.886719 212.640625 99.957031 212.964844 100.027344 213.285156 Z M 100.027344 213.285156 " fill-opacity="1" fill-rule="nonzero"/></g><g clip-path="url(#1bb2318301)"><path fill="#020000" d="M 134.527344 199.613281 C 134.421875 201.449219 134.332031 202.984375 134.253906 204.335938 C 134.070312 207.480469 133.945312 209.640625 133.847656 212.320312 C 133.839844 212.632812 133.828125 212.953125 133.820312 213.285156 L 133.160156 213.285156 C 133.167969 212.953125 133.179688 212.636719 133.191406 212.320312 C 133.285156 209.625 133.410156 207.457031 133.597656 204.296875 C 133.675781 202.945312 133.765625 201.414062 133.871094 199.578125 C 133.875 199.488281 133.910156 199.410156 133.976562 199.351562 C 134.042969 199.289062 134.121094 199.261719 134.210938 199.265625 C 134.304688 199.269531 134.378906 199.308594 134.441406 199.375 C 134.5 199.441406 134.53125 199.519531 134.527344 199.613281 Z M 134.527344 199.613281 " fill-opacity="1" fill-rule="nonzero"/></g><g clip-path="url(#1750cd6c54)"><path fill="#020000" d="M 162.0625 32.289062 C 148.769531 18.972656 131.097656 11.644531 112.300781 11.644531 C 93.503906 11.644531 75.828125 18.972656 62.535156 32.289062 C 49.246094 45.605469 41.921875 63.304688 41.921875 82.128906 L 41.921875 212.804688 C 41.921875 212.9375 41.96875 213.050781 42.0625 213.144531 C 42.15625 213.238281 42.269531 213.285156 42.402344 213.285156 L 182.195312 213.285156 C 182.328125 213.285156 182.441406 213.238281 182.535156 213.144531 C 182.628906 213.050781 182.675781 212.9375 182.675781 212.804688 L 182.675781 82.128906 C 182.675781 63.304688 175.355469 45.601562 162.0625 32.289062 Z M 181.707031 212.320312 L 42.882812 212.320312 L 42.882812 82.125 C 42.882812 63.558594 50.105469 46.105469 63.21875 32.972656 C 76.328125 19.835938 93.757812 12.605469 112.300781 12.605469 C 130.84375 12.605469 148.269531 19.839844 161.382812 32.972656 C 174.496094 46.105469 181.710938 63.558594 181.710938 82.128906 Z M 181.707031 212.320312 " fill-opacity="1" fill-rule="nonzero"/></g><path fill="#020000" d="M 65.652344 59.644531 C 67.285156 60.15625 68 61.609375 68.339844 63.394531 C 68.695312 61.578125 69.375 60.539062 71.015625 59.847656 C 70.339844 59.632812 69.269531 58.492188 69.054688 58.144531 C 68.542969 57.308594 68.492188 56.488281 68.371094 55.554688 C 67.960938 57.277344 67.457031 58.851562 65.652344 59.644531 Z M 65.652344 59.644531 " fill-opacity="1" fill-rule="nonzero"/><path fill="#020000" d="M 84.257812 164.597656 C 85.894531 165.109375 86.605469 166.5625 86.945312 168.347656 C 87.300781 166.53125 87.980469 165.492188 89.621094 164.800781 C 88.945312 164.585938 87.875 163.445312 87.660156 163.097656 C 87.148438 162.261719 87.097656 161.4375 86.976562 160.507812 C 86.5625 162.230469 86.0625 163.804688 84.257812 164.597656 Z M 84.257812 164.597656 " fill-opacity="1" fill-rule="nonzero"/><path fill="#020000" d="M 168.765625 121.105469 C 170.398438 121.617188 171.113281 123.070312 171.453125 124.855469 C 171.808594 123.039062 172.488281 122 174.128906 121.308594 C 173.453125 121.09375 172.382812 119.953125 172.167969 119.605469 C 171.65625 118.769531 171.605469 117.949219 171.484375 117.015625 C 171.070312 118.730469 170.570312 120.304688 168.765625 121.105469 Z M 168.765625 121.105469 " fill-opacity="1" fill-rule="nonzero"/><path fill="#020000" d="M 172.8125 166.175781 C 174.445312 166.683594 175.160156 168.140625 175.5 169.925781 C 175.855469 168.109375 176.535156 167.070312 178.175781 166.378906 C 177.5 166.164062 176.429688 165.019531 176.214844 164.675781 C 175.703125 163.839844 175.652344 163.015625 175.53125 162.085938 C 175.117188 163.808594 174.613281 165.382812 172.8125 166.175781 Z M 172.8125 166.175781 " fill-opacity="1" fill-rule="nonzero"/><path fill="#020000" d="M 157.136719 77.355469 C 158.773438 77.867188 159.488281 79.320312 159.824219 81.105469 C 160.183594 79.292969 160.859375 78.25 162.5 77.558594 C 161.824219 77.347656 160.753906 76.203125 160.542969 75.855469 C 160.027344 75.019531 159.980469 74.199219 159.855469 73.265625 C 159.445312 74.988281 158.941406 76.5625 157.136719 77.355469 Z M 157.136719 77.355469 " fill-opacity="1" fill-rule="nonzero"/><path fill="#020000" d="M 56.3125 114.925781 C 57.949219 115.433594 58.660156 116.886719 59 118.675781 C 59.355469 116.859375 60.035156 115.816406 61.675781 115.125 C 61 114.914062 59.929688 113.773438 59.714844 113.425781 C 59.203125 112.585938 59.152344 111.765625 59.03125 110.835938 C 58.617188 112.558594 58.117188 114.128906 56.3125 114.925781 Z M 56.3125 114.925781 " fill-opacity="1" fill-rule="nonzero"/><path fill="#020000" d="M 72.996094 71.328125 C 74.082031 71.667969 74.558594 72.632812 74.785156 73.824219 C 75.019531 72.613281 75.472656 71.921875 76.5625 71.460938 C 76.117188 71.320312 75.402344 70.558594 75.261719 70.328125 C 74.921875 69.769531 74.886719 69.226562 74.804688 68.613281 C 74.53125 69.742188 74.195312 70.796875 72.996094 71.328125 Z M 72.996094 71.328125 " fill-opacity="1" fill-rule="nonzero"/><path fill="#020000" d="M 58.808594 185.808594 C 59.898438 186.148438 60.375 187.113281 60.601562 188.304688 C 60.835938 187.09375 61.289062 186.402344 62.378906 185.941406 C 61.929688 185.800781 61.21875 185.039062 61.074219 184.808594 C 60.734375 184.253906 60.703125 183.707031 60.621094 183.085938 C 60.347656 184.222656 60.011719 185.277344 58.808594 185.808594 Z M 58.808594 185.808594 " fill-opacity="1" fill-rule="nonzero"/><path fill="#020000" d="M 93.296875 38.566406 C 94.382812 38.90625 94.859375 39.871094 95.085938 41.0625 C 95.320312 39.851562 95.773438 39.160156 96.863281 38.699219 C 96.414062 38.558594 95.703125 37.796875 95.5625 37.566406 C 95.21875 37.011719 95.1875 36.464844 95.105469 35.84375 C 94.832031 36.996094 94.496094 38.039062 93.296875 38.566406 Z M 93.296875 38.566406 " fill-opacity="1" fill-rule="nonzero"/><path fill="#020000" d="M 165.453125 170.925781 C 166.539062 171.269531 167.015625 172.234375 167.242188 173.425781 C 167.476562 172.214844 167.929688 171.523438 169.019531 171.0625 C 168.574219 170.921875 167.859375 170.160156 167.71875 169.929688 C 167.378906 169.371094 167.34375 168.824219 167.261719 168.210938 C 166.984375 169.351562 166.652344 170.402344 165.453125 170.925781 Z M 165.453125 170.925781 " fill-opacity="1" fill-rule="nonzero"/><path fill="#020000" d="M 136.8125 61.132812 C 137.898438 61.476562 138.375 62.441406 138.601562 63.632812 C 138.835938 62.421875 139.289062 61.730469 140.378906 61.269531 C 139.929688 61.128906 139.21875 60.367188 139.074219 60.136719 C 138.734375 59.578125 138.703125 59.03125 138.621094 58.410156 C 138.34375 59.558594 138.011719 60.605469 136.8125 61.132812 Z M 136.8125 61.132812 " fill-opacity="1" fill-rule="nonzero"/><path fill="#020000" d="M 132.257812 27.25 C 133.34375 27.589844 133.820312 28.558594 134.046875 29.746094 C 134.28125 28.539062 134.734375 27.84375 135.828125 27.386719 C 135.375 27.242188 134.664062 26.484375 134.523438 26.25 C 134.179688 25.695312 134.148438 25.148438 134.066406 24.535156 C 133.792969 25.675781 133.457031 26.722656 132.257812 27.25 Z M 132.257812 27.25 " fill-opacity="1" fill-rule="nonzero"/><path fill="#020000" d="M 91.65625 70.261719 C 91.65625 70.433594 91.59375 70.582031 91.472656 70.703125 C 91.347656 70.828125 91.199219 70.886719 91.027344 70.886719 C 90.855469 70.886719 90.707031 70.828125 90.585938 70.703125 C 90.464844 70.582031 90.402344 70.433594 90.402344 70.261719 C 90.402344 70.085938 90.464844 69.941406 90.585938 69.816406 C 90.707031 69.695312 90.855469 69.632812 91.027344 69.632812 C 91.199219 69.632812 91.347656 69.695312 91.472656 69.816406 C 91.59375 69.941406 91.65625 70.085938 91.65625 70.261719 Z M 91.65625 70.261719 " fill-opacity="1" fill-rule="nonzero"/><path fill="#020000" d="M 50.074219 67.914062 C 50.074219 68.089844 50.011719 68.238281 49.890625 68.359375 C 49.765625 68.480469 49.621094 68.542969 49.445312 68.542969 C 49.273438 68.542969 49.125 68.480469 49.003906 68.359375 C 48.882812 68.238281 48.820312 68.089844 48.820312 67.914062 C 48.820312 67.742188 48.882812 67.59375 49.003906 67.472656 C 49.125 67.351562 49.273438 67.289062 49.445312 67.289062 C 49.621094 67.289062 49.765625 67.351562 49.890625 67.472656 C 50.011719 67.59375 50.074219 67.742188 50.074219 67.914062 Z M 50.074219 67.914062 " fill-opacity="1" fill-rule="nonzero"/><path fill="#020000" d="M 97.496094 66.96875 C 97.496094 67.140625 97.433594 67.289062 97.3125 67.414062 C 97.1875 67.535156 97.042969 67.597656 96.867188 67.597656 C 96.695312 67.597656 96.546875 67.535156 96.425781 67.414062 C 96.304688 67.289062 96.242188 67.140625 96.242188 66.96875 C 96.242188 66.796875 96.304688 66.648438 96.425781 66.527344 C 96.546875 66.402344 96.695312 66.34375 96.867188 66.34375 C 97.042969 66.34375 97.1875 66.402344 97.3125 66.527344 C 97.433594 66.648438 97.496094 66.796875 97.496094 66.96875 Z M 97.496094 66.96875 " fill-opacity="1" fill-rule="nonzero"/><path fill="#020000" d="M 49.828125 86.355469 C 49.828125 86.53125 49.765625 86.679688 49.644531 86.800781 C 49.523438 86.921875 49.375 86.984375 49.203125 86.984375 C 49.027344 86.984375 48.882812 86.921875 48.757812 86.800781 C 48.636719 86.679688 48.574219 86.53125 48.574219 86.355469 C 48.574219 86.183594 48.636719 86.035156 48.757812 85.914062 C 48.882812 85.789062 49.027344 85.730469 49.203125 85.730469 C 49.375 85.730469 49.523438 85.789062 49.644531 85.914062 C 49.765625 86.035156 49.828125 86.183594 49.828125 86.355469 Z M 49.828125 86.355469 " fill-opacity="1" fill-rule="nonzero"/><path fill="#020000" d="M 49.328125 140.09375 C 49.328125 140.265625 49.269531 140.414062 49.144531 140.535156 C 49.023438 140.660156 48.875 140.71875 48.703125 140.71875 C 48.53125 140.71875 48.382812 140.660156 48.261719 140.535156 C 48.136719 140.414062 48.078125 140.265625 48.078125 140.09375 C 48.078125 139.917969 48.136719 139.773438 48.261719 139.648438 C 48.382812 139.527344 48.53125 139.464844 48.703125 139.464844 C 48.875 139.464844 49.023438 139.527344 49.144531 139.648438 C 49.269531 139.773438 49.328125 139.917969 49.328125 140.09375 Z M 49.328125 140.09375 " fill-opacity="1" fill-rule="nonzero"/><path fill="#020000" d="M 54.292969 106.3125 C 54.292969 106.488281 54.234375 106.636719 54.109375 106.757812 C 53.988281 106.878906 53.839844 106.941406 53.667969 106.941406 C 53.496094 106.941406 53.347656 106.878906 53.226562 106.757812 C 53.101562 106.636719 53.042969 106.488281 53.042969 106.3125 C 53.042969 106.140625 53.101562 105.992188 53.226562 105.871094 C 53.347656 105.746094 53.496094 105.6875 53.667969 105.6875 C 53.839844 105.6875 53.988281 105.746094 54.109375 105.871094 C 54.234375 105.992188 54.292969 106.140625 54.292969 106.3125 Z M 54.292969 106.3125 " fill-opacity="1" fill-rule="nonzero"/><path fill="#020000" d="M 52.679688 163.570312 C 52.679688 163.742188 52.617188 163.890625 52.496094 164.011719 C 52.371094 164.136719 52.226562 164.199219 52.050781 164.199219 C 51.878906 164.199219 51.730469 164.136719 51.609375 164.011719 C 51.488281 163.890625 51.425781 163.742188 51.425781 163.570312 C 51.425781 163.398438 51.488281 163.25 51.609375 163.125 C 51.730469 163.003906 51.878906 162.941406 52.050781 162.941406 C 52.226562 162.941406 52.371094 163.003906 52.496094 163.125 C 52.617188 163.25 52.679688 163.398438 52.679688 163.570312 Z M 52.679688 163.570312 " fill-opacity="1" fill-rule="nonzero"/><path fill="#020000" d="M 63.984375 149.574219 C 63.984375 149.746094 63.921875 149.894531 63.800781 150.015625 C 63.675781 150.140625 63.53125 150.199219 63.355469 150.199219 C 63.183594 150.199219 63.035156 150.140625 62.914062 150.015625 C 62.792969 149.894531 62.730469 149.746094 62.730469 149.574219 C 62.730469 149.398438 62.792969 149.253906 62.914062 149.128906 C 63.035156 149.007812 63.183594 148.945312 63.355469 148.945312 C 63.53125 148.945312 63.675781 149.007812 63.800781 149.128906 C 63.921875 149.253906 63.984375 149.398438 63.984375 149.574219 Z M 63.984375 149.574219 " fill-opacity="1" fill-rule="nonzero"/><path fill="#020000" d="M 56.09375 142.601562 C 56.09375 142.773438 56.03125 142.921875 55.910156 143.046875 C 55.789062 143.167969 55.640625 143.230469 55.46875 143.230469 C 55.292969 143.230469 55.148438 143.167969 55.023438 143.046875 C 54.902344 142.921875 54.839844 142.773438 54.839844 142.601562 C 54.839844 142.429688 54.902344 142.28125 55.023438 142.160156 C 55.148438 142.035156 55.292969 141.972656 55.46875 141.972656 C 55.640625 141.972656 55.789062 142.035156 55.910156 142.160156 C 56.03125 142.28125 56.09375 142.429688 56.09375 142.601562 Z M 56.09375 142.601562 " fill-opacity="1" fill-rule="nonzero"/><path fill="#020000" d="M 48.640625 169.535156 C 48.640625 169.710938 48.582031 169.855469 48.457031 169.980469 C 48.335938 170.101562 48.1875 170.164062 48.015625 170.164062 C 47.84375 170.164062 47.695312 170.101562 47.570312 169.980469 C 47.449219 169.855469 47.390625 169.710938 47.390625 169.535156 C 47.390625 169.363281 47.449219 169.214844 47.570312 169.09375 C 47.695312 168.96875 47.84375 168.910156 48.015625 168.910156 C 48.1875 168.910156 48.335938 168.96875 48.457031 169.09375 C 48.582031 169.214844 48.640625 169.363281 48.640625 169.535156 Z M 48.640625 169.535156 " fill-opacity="1" fill-rule="nonzero"/><path fill="#020000" d="M 49.40625 203.523438 C 49.40625 203.695312 49.34375 203.84375 49.222656 203.96875 C 49.097656 204.089844 48.953125 204.152344 48.777344 204.152344 C 48.605469 204.152344 48.457031 204.089844 48.335938 203.96875 C 48.214844 203.84375 48.152344 203.695312 48.152344 203.523438 C 48.152344 203.351562 48.214844 203.203125 48.335938 203.078125 C 48.457031 202.957031 48.605469 202.894531 48.777344 202.894531 C 48.953125 202.894531 49.097656 202.957031 49.222656 203.078125 C 49.34375 203.203125 49.40625 203.351562 49.40625 203.523438 Z M 49.40625 203.523438 " fill-opacity="1" fill-rule="nonzero"/><path fill="#020000" d="M 74.226562 170.734375 C 74.226562 170.90625 74.167969 171.054688 74.042969 171.175781 C 73.921875 171.300781 73.773438 171.359375 73.601562 171.359375 C 73.429688 171.359375 73.28125 171.300781 73.160156 171.175781 C 73.035156 171.054688 72.976562 170.90625 72.976562 170.734375 C 72.976562 170.558594 73.035156 170.414062 73.160156 170.289062 C 73.28125 170.167969 73.429688 170.105469 73.601562 170.105469 C 73.773438 170.105469 73.921875 170.167969 74.042969 170.289062 C 74.167969 170.414062 74.226562 170.558594 74.226562 170.734375 Z M 74.226562 170.734375 " fill-opacity="1" fill-rule="nonzero"/><path fill="#020000" d="M 56.316406 200.515625 C 56.316406 200.6875 56.253906 200.835938 56.132812 200.960938 C 56.011719 201.082031 55.863281 201.144531 55.691406 201.144531 C 55.519531 201.144531 55.371094 201.082031 55.246094 200.960938 C 55.125 200.835938 55.0625 200.6875 55.0625 200.515625 C 55.0625 200.34375 55.125 200.195312 55.246094 200.070312 C 55.371094 199.949219 55.519531 199.886719 55.691406 199.886719 C 55.863281 199.886719 56.011719 199.949219 56.132812 200.070312 C 56.253906 200.195312 56.316406 200.34375 56.316406 200.515625 Z M 56.316406 200.515625 " fill-opacity="1" fill-rule="nonzero"/><path fill="#020000" d="M 65.679688 201.308594 C 65.679688 201.480469 65.617188 201.628906 65.496094 201.75 C 65.375 201.875 65.226562 201.933594 65.054688 201.933594 C 64.878906 201.933594 64.734375 201.875 64.609375 201.75 C 64.488281 201.628906 64.425781 201.480469 64.425781 201.308594 C 64.425781 201.132812 64.488281 200.988281 64.609375 200.863281 C 64.734375 200.742188 64.878906 200.679688 65.054688 200.679688 C 65.226562 200.679688 65.375 200.742188 65.496094 200.863281 C 65.617188 200.988281 65.679688 201.132812 65.679688 201.308594 Z M 65.679688 201.308594 " fill-opacity="1" fill-rule="nonzero"/><path fill="#020000" d="M 79.890625 177.289062 C 79.890625 177.464844 79.828125 177.613281 79.707031 177.734375 C 79.582031 177.855469 79.4375 177.917969 79.261719 177.917969 C 79.089844 177.917969 78.941406 177.855469 78.820312 177.734375 C 78.699219 177.613281 78.636719 177.464844 78.636719 177.289062 C 78.636719 177.117188 78.699219 176.96875 78.820312 176.847656 C 78.941406 176.726562 79.089844 176.664062 79.261719 176.664062 C 79.4375 176.664062 79.582031 176.726562 79.707031 176.847656 C 79.828125 176.96875 79.890625 177.117188 79.890625 177.289062 Z M 79.890625 177.289062 " fill-opacity="1" fill-rule="nonzero"/><path fill="#020000" d="M 148.921875 209.113281 C 148.921875 209.289062 148.863281 209.433594 148.738281 209.558594 C 148.617188 209.679688 148.46875 209.742188 148.296875 209.742188 C 148.125 209.742188 147.976562 209.679688 147.855469 209.558594 C 147.730469 209.433594 147.671875 209.289062 147.671875 209.113281 C 147.671875 208.941406 147.730469 208.792969 147.855469 208.671875 C 147.976562 208.546875 148.125 208.488281 148.296875 208.488281 C 148.46875 208.488281 148.617188 208.546875 148.738281 208.671875 C 148.863281 208.792969 148.921875 208.941406 148.921875 209.113281 Z M 148.921875 209.113281 " fill-opacity="1" fill-rule="nonzero"/><path fill="#020000" d="M 166.089844 153.019531 C 166.089844 153.191406 166.027344 153.339844 165.90625 153.464844 C 165.78125 153.585938 165.632812 153.648438 165.460938 153.648438 C 165.289062 153.648438 165.140625 153.585938 165.019531 153.464844 C 164.898438 153.339844 164.835938 153.191406 164.835938 153.019531 C 164.835938 152.847656 164.898438 152.699219 165.019531 152.578125 C 165.140625 152.453125 165.289062 152.394531 165.460938 152.394531 C 165.632812 152.394531 165.78125 152.453125 165.90625 152.578125 C 166.027344 152.699219 166.089844 152.847656 166.089844 153.019531 Z M 166.089844 153.019531 " fill-opacity="1" fill-rule="nonzero"/><path fill="#020000" d="M 79.957031 207.957031 C 79.957031 208.128906 79.894531 208.277344 79.773438 208.402344 C 79.648438 208.523438 79.5 208.585938 79.328125 208.585938 C 79.15625 208.585938 79.007812 208.523438 78.886719 208.402344 C 78.765625 208.277344 78.703125 208.128906 78.703125 207.957031 C 78.703125 207.785156 78.765625 207.636719 78.886719 207.515625 C 79.007812 207.390625 79.15625 207.332031 79.328125 207.332031 C 79.5 207.332031 79.648438 207.390625 79.773438 207.515625 C 79.894531 207.636719 79.957031 207.785156 79.957031 207.957031 Z M 79.957031 207.957031 " fill-opacity="1" fill-rule="nonzero"/><path fill="#020000" d="M 153.882812 161.9375 C 153.882812 162.113281 153.824219 162.261719 153.699219 162.382812 C 153.578125 162.503906 153.429688 162.566406 153.257812 162.566406 C 153.085938 162.566406 152.9375 162.503906 152.816406 162.382812 C 152.691406 162.261719 152.632812 162.113281 152.632812 161.9375 C 152.632812 161.765625 152.691406 161.617188 152.816406 161.496094 C 152.9375 161.375 153.085938 161.3125 153.257812 161.3125 C 153.429688 161.3125 153.578125 161.375 153.699219 161.496094 C 153.824219 161.617188 153.882812 161.765625 153.882812 161.9375 Z M 153.882812 161.9375 " fill-opacity="1" fill-rule="nonzero"/><path fill="#020000" d="M 151.28125 183.789062 C 151.28125 183.960938 151.21875 184.109375 151.097656 184.230469 C 150.972656 184.355469 150.828125 184.414062 150.652344 184.414062 C 150.480469 184.414062 150.332031 184.355469 150.210938 184.230469 C 150.089844 184.109375 150.027344 183.960938 150.027344 183.789062 C 150.027344 183.617188 150.089844 183.46875 150.210938 183.34375 C 150.332031 183.222656 150.480469 183.160156 150.652344 183.160156 C 150.828125 183.160156 150.972656 183.222656 151.097656 183.34375 C 151.21875 183.46875 151.28125 183.617188 151.28125 183.789062 Z M 151.28125 183.789062 " fill-opacity="1" fill-rule="nonzero"/><path fill="#020000" d="M 156.714844 182.6875 C 156.714844 182.863281 156.652344 183.007812 156.53125 183.132812 C 156.40625 183.253906 156.261719 183.316406 156.085938 183.316406 C 155.914062 183.316406 155.765625 183.253906 155.644531 183.132812 C 155.523438 183.007812 155.460938 182.863281 155.460938 182.6875 C 155.460938 182.515625 155.523438 182.367188 155.644531 182.246094 C 155.765625 182.121094 155.914062 182.0625 156.085938 182.0625 C 156.261719 182.0625 156.40625 182.121094 156.53125 182.246094 C 156.652344 182.367188 156.714844 182.515625 156.714844 182.6875 Z M 156.714844 182.6875 " fill-opacity="1" fill-rule="nonzero"/><path fill="#020000" d="M 170.886719 195.144531 C 170.886719 195.320312 170.824219 195.464844 170.703125 195.589844 C 170.582031 195.710938 170.433594 195.773438 170.261719 195.773438 C 170.085938 195.773438 169.941406 195.710938 169.816406 195.589844 C 169.695312 195.464844 169.632812 195.320312 169.632812 195.144531 C 169.632812 194.972656 169.695312 194.824219 169.816406 194.703125 C 169.941406 194.578125 170.085938 194.519531 170.261719 194.519531 C 170.433594 194.519531 170.582031 194.578125 170.703125 194.703125 C 170.824219 194.824219 170.886719 194.972656 170.886719 195.144531 Z M 170.886719 195.144531 " fill-opacity="1" fill-rule="nonzero"/><path fill="#020000" d="M 172.859375 187.183594 C 172.859375 187.355469 172.796875 187.503906 172.675781 187.625 C 172.554688 187.75 172.40625 187.808594 172.234375 187.808594 C 172.058594 187.808594 171.914062 187.75 171.789062 187.625 C 171.667969 187.503906 171.605469 187.355469 171.605469 187.183594 C 171.605469 187.011719 171.667969 186.863281 171.789062 186.738281 C 171.914062 186.617188 172.058594 186.554688 172.234375 186.554688 C 172.40625 186.554688 172.554688 186.617188 172.675781 186.738281 C 172.796875 186.863281 172.859375 187.011719 172.859375 187.183594 Z M 172.859375 187.183594 " fill-opacity="1" fill-rule="nonzero"/><path fill="#020000" d="M 156.714844 199.484375 C 156.714844 199.660156 156.652344 199.808594 156.53125 199.929688 C 156.40625 200.050781 156.261719 200.113281 156.085938 200.113281 C 155.914062 200.113281 155.765625 200.050781 155.644531 199.929688 C 155.523438 199.808594 155.460938 199.660156 155.460938 199.484375 C 155.460938 199.3125 155.523438 199.164062 155.644531 199.042969 C 155.765625 198.917969 155.914062 198.859375 156.085938 198.859375 C 156.261719 198.859375 156.40625 198.917969 156.53125 199.042969 C 156.652344 199.164062 156.714844 199.3125 156.714844 199.484375 Z M 156.714844 199.484375 " fill-opacity="1" fill-rule="nonzero"/><path fill="#020000" d="M 168.605469 208.003906 C 168.605469 208.175781 168.546875 208.324219 168.425781 208.449219 C 168.300781 208.570312 168.152344 208.632812 167.980469 208.632812 C 167.808594 208.632812 167.660156 208.570312 167.539062 208.449219 C 167.417969 208.324219 167.355469 208.175781 167.355469 208.003906 C 167.355469 207.832031 167.417969 207.683594 167.539062 207.558594 C 167.660156 207.4375 167.808594 207.375 167.980469 207.375 C 168.152344 207.375 168.300781 207.4375 168.425781 207.558594 C 168.546875 207.683594 168.605469 207.832031 168.605469 208.003906 Z M 168.605469 208.003906 " fill-opacity="1" fill-rule="nonzero"/><path fill="#020000" d="M 58.726562 203.207031 C 58.726562 203.378906 58.664062 203.527344 58.542969 203.648438 C 58.421875 203.773438 58.273438 203.832031 58.101562 203.832031 C 57.925781 203.832031 57.78125 203.773438 57.65625 203.648438 C 57.535156 203.527344 57.472656 203.378906 57.472656 203.207031 C 57.472656 203.035156 57.535156 202.886719 57.65625 202.761719 C 57.78125 202.640625 57.925781 202.578125 58.101562 202.578125 C 58.273438 202.578125 58.421875 202.640625 58.542969 202.761719 C 58.664062 202.886719 58.726562 203.035156 58.726562 203.207031 Z M 58.726562 203.207031 " fill-opacity="1" fill-rule="nonzero"/><path fill="#020000" d="M 77.875 160.523438 C 77.875 160.695312 77.8125 160.84375 77.691406 160.96875 C 77.570312 161.089844 77.421875 161.152344 77.25 161.152344 C 77.074219 161.152344 76.929688 161.089844 76.804688 160.96875 C 76.683594 160.84375 76.621094 160.695312 76.621094 160.523438 C 76.621094 160.351562 76.683594 160.203125 76.804688 160.082031 C 76.929688 159.957031 77.074219 159.898438 77.25 159.898438 C 77.421875 159.898438 77.570312 159.957031 77.691406 160.082031 C 77.8125 160.203125 77.875 160.351562 77.875 160.523438 Z M 77.875 160.523438 " fill-opacity="1" fill-rule="nonzero"/><path fill="#020000" d="M 51.933594 195.769531 C 51.933594 195.941406 51.871094 196.089844 51.75 196.210938 C 51.628906 196.335938 51.480469 196.394531 51.308594 196.394531 C 51.132812 196.394531 50.988281 196.335938 50.863281 196.210938 C 50.742188 196.089844 50.679688 195.941406 50.679688 195.769531 C 50.679688 195.59375 50.742188 195.449219 50.863281 195.324219 C 50.988281 195.203125 51.132812 195.140625 51.308594 195.140625 C 51.480469 195.140625 51.628906 195.203125 51.75 195.324219 C 51.871094 195.449219 51.933594 195.59375 51.933594 195.769531 Z M 51.933594 195.769531 " fill-opacity="1" fill-rule="nonzero"/><path fill="#020000" d="M 58.878906 132.839844 C 58.878906 133.015625 58.816406 133.164062 58.695312 133.285156 C 58.574219 133.40625 58.425781 133.46875 58.253906 133.46875 C 58.078125 133.46875 57.929688 133.40625 57.808594 133.285156 C 57.6875 133.164062 57.625 133.015625 57.625 132.839844 C 57.625 132.667969 57.6875 132.519531 57.808594 132.398438 C 57.929688 132.273438 58.078125 132.214844 58.253906 132.214844 C 58.425781 132.214844 58.574219 132.273438 58.695312 132.398438 C 58.816406 132.519531 58.878906 132.667969 58.878906 132.839844 Z M 58.878906 132.839844 " fill-opacity="1" fill-rule="nonzero"/><path fill="#020000" d="M 72.730469 164.832031 C 72.730469 165.003906 72.671875 165.152344 72.546875 165.277344 C 72.425781 165.398438 72.277344 165.460938 72.105469 165.460938 C 71.933594 165.460938 71.785156 165.398438 71.664062 165.277344 C 71.539062 165.152344 71.480469 165.003906 71.480469 164.832031 C 71.480469 164.660156 71.539062 164.511719 71.664062 164.390625 C 71.785156 164.265625 71.933594 164.207031 72.105469 164.207031 C 72.277344 164.207031 72.425781 164.265625 72.546875 164.390625 C 72.671875 164.511719 72.730469 164.660156 72.730469 164.832031 Z M 72.730469 164.832031 " fill-opacity="1" fill-rule="nonzero"/><path fill="#020000" d="M 62.691406 93.921875 C 62.691406 94.09375 62.628906 94.242188 62.507812 94.363281 C 62.382812 94.488281 62.238281 94.546875 62.0625 94.546875 C 61.890625 94.546875 61.742188 94.488281 61.621094 94.363281 C 61.5 94.242188 61.4375 94.09375 61.4375 93.921875 C 61.4375 93.75 61.5 93.601562 61.621094 93.476562 C 61.742188 93.355469 61.890625 93.292969 62.0625 93.292969 C 62.238281 93.292969 62.382812 93.355469 62.507812 93.476562 C 62.628906 93.601562 62.691406 93.75 62.691406 93.921875 Z M 62.691406 93.921875 " fill-opacity="1" fill-rule="nonzero"/><path fill="#020000" d="M 60.492188 71.523438 C 60.492188 71.699219 60.429688 71.84375 60.308594 71.96875 C 60.1875 72.089844 60.039062 72.152344 59.867188 72.152344 C 59.691406 72.152344 59.546875 72.089844 59.421875 71.96875 C 59.300781 71.84375 59.238281 71.699219 59.238281 71.523438 C 59.238281 71.351562 59.300781 71.203125 59.421875 71.082031 C 59.546875 70.957031 59.691406 70.898438 59.867188 70.898438 C 60.039062 70.898438 60.1875 70.957031 60.308594 71.082031 C 60.429688 71.203125 60.492188 71.351562 60.492188 71.523438 Z M 60.492188 71.523438 " fill-opacity="1" fill-rule="nonzero"/><path fill="#020000" d="M 157.625 62.066406 C 157.625 62.238281 157.566406 62.386719 157.441406 62.507812 C 157.320312 62.632812 157.171875 62.695312 157 62.695312 C 156.828125 62.695312 156.679688 62.632812 156.558594 62.507812 C 156.433594 62.386719 156.375 62.238281 156.375 62.066406 C 156.375 61.894531 156.433594 61.746094 156.558594 61.621094 C 156.679688 61.5 156.828125 61.4375 157 61.4375 C 157.171875 61.4375 157.320312 61.5 157.441406 61.621094 C 157.566406 61.746094 157.625 61.894531 157.625 62.066406 Z M 157.625 62.066406 " fill-opacity="1" fill-rule="nonzero"/><path fill="#020000" d="M 153.703125 93.796875 C 153.703125 93.972656 153.640625 94.121094 153.519531 94.242188 C 153.398438 94.363281 153.25 94.425781 153.078125 94.425781 C 152.902344 94.425781 152.757812 94.363281 152.632812 94.242188 C 152.511719 94.121094 152.449219 93.972656 152.449219 93.796875 C 152.449219 93.625 152.511719 93.476562 152.632812 93.355469 C 152.757812 93.234375 152.902344 93.171875 153.078125 93.171875 C 153.25 93.171875 153.398438 93.234375 153.519531 93.355469 C 153.640625 93.476562 153.703125 93.625 153.703125 93.796875 Z M 153.703125 93.796875 " fill-opacity="1" fill-rule="nonzero"/><path fill="#020000" d="M 162.386719 98.886719 C 162.386719 99.0625 162.324219 99.207031 162.203125 99.332031 C 162.082031 99.453125 161.933594 99.515625 161.761719 99.515625 C 161.585938 99.515625 161.4375 99.453125 161.316406 99.332031 C 161.195312 99.207031 161.132812 99.0625 161.132812 98.886719 C 161.132812 98.714844 161.195312 98.566406 161.316406 98.445312 C 161.4375 98.320312 161.585938 98.261719 161.761719 98.261719 C 161.933594 98.261719 162.082031 98.320312 162.203125 98.445312 C 162.324219 98.566406 162.386719 98.714844 162.386719 98.886719 Z M 162.386719 98.886719 " fill-opacity="1" fill-rule="nonzero"/><path fill="#020000" d="M 129.0625 77.167969 C 129.0625 77.339844 129 77.488281 128.878906 77.613281 C 128.757812 77.734375 128.609375 77.796875 128.4375 77.796875 C 128.265625 77.796875 128.117188 77.734375 127.992188 77.613281 C 127.871094 77.488281 127.808594 77.339844 127.808594 77.167969 C 127.808594 76.996094 127.871094 76.847656 127.992188 76.722656 C 128.117188 76.601562 128.265625 76.539062 128.4375 76.539062 C 128.609375 76.539062 128.757812 76.601562 128.878906 76.722656 C 129 76.847656 129.0625 76.996094 129.0625 77.167969 Z M 129.0625 77.167969 " fill-opacity="1" fill-rule="nonzero"/><path fill="#020000" d="M 162.8125 164.632812 C 162.8125 164.804688 162.753906 164.953125 162.628906 165.074219 C 162.507812 165.199219 162.359375 165.257812 162.1875 165.257812 C 162.015625 165.257812 161.867188 165.199219 161.742188 165.074219 C 161.621094 164.953125 161.5625 164.804688 161.5625 164.632812 C 161.5625 164.457031 161.621094 164.3125 161.742188 164.1875 C 161.867188 164.066406 162.015625 164.003906 162.1875 164.003906 C 162.359375 164.003906 162.507812 164.066406 162.628906 164.1875 C 162.753906 164.3125 162.8125 164.457031 162.8125 164.632812 Z M 162.8125 164.632812 " fill-opacity="1" fill-rule="nonzero"/><path fill="#020000" d="M 152.019531 49.65625 C 152.019531 49.832031 151.960938 49.976562 151.835938 50.101562 C 151.714844 50.222656 151.566406 50.285156 151.394531 50.285156 C 151.222656 50.285156 151.074219 50.222656 150.953125 50.101562 C 150.828125 49.976562 150.769531 49.832031 150.769531 49.65625 C 150.769531 49.484375 150.828125 49.335938 150.953125 49.214844 C 151.074219 49.089844 151.222656 49.03125 151.394531 49.03125 C 151.566406 49.03125 151.714844 49.089844 151.835938 49.214844 C 151.960938 49.335938 152.019531 49.484375 152.019531 49.65625 Z M 152.019531 49.65625 " fill-opacity="1" fill-rule="nonzero"/><path fill="#020000" d="M 116.878906 77.9375 C 116.878906 78.113281 116.816406 78.261719 116.695312 78.382812 C 116.574219 78.503906 116.425781 78.566406 116.253906 78.566406 C 116.078125 78.566406 115.933594 78.503906 115.808594 78.382812 C 115.6875 78.261719 115.625 78.113281 115.625 77.9375 C 115.625 77.765625 115.6875 77.617188 115.808594 77.496094 C 115.933594 77.375 116.078125 77.3125 116.253906 77.3125 C 116.425781 77.3125 116.574219 77.375 116.695312 77.496094 C 116.816406 77.617188 116.878906 77.765625 116.878906 77.9375 Z M 116.878906 77.9375 " fill-opacity="1" fill-rule="nonzero"/><path fill="#020000" d="M 122.800781 83.308594 C 122.800781 83.480469 122.742188 83.628906 122.617188 83.75 C 122.496094 83.871094 122.347656 83.933594 122.175781 83.933594 C 122.003906 83.933594 121.855469 83.871094 121.734375 83.75 C 121.609375 83.628906 121.550781 83.480469 121.550781 83.308594 C 121.550781 83.132812 121.609375 82.984375 121.734375 82.863281 C 121.855469 82.742188 122.003906 82.679688 122.175781 82.679688 C 122.347656 82.679688 122.496094 82.742188 122.617188 82.863281 C 122.742188 82.984375 122.800781 83.132812 122.800781 83.308594 Z M 122.800781 83.308594 " fill-opacity="1" fill-rule="nonzero"/><path fill="#020000" d="M 166.53125 52.402344 C 166.53125 52.574219 166.472656 52.722656 166.347656 52.84375 C 166.226562 52.964844 166.078125 53.027344 165.90625 53.027344 C 165.734375 53.027344 165.585938 52.964844 165.464844 52.84375 C 165.339844 52.722656 165.28125 52.574219 165.28125 52.402344 C 165.28125 52.226562 165.339844 52.078125 165.464844 51.957031 C 165.585938 51.835938 165.734375 51.773438 165.90625 51.773438 C 166.078125 51.773438 166.226562 51.835938 166.347656 51.957031 C 166.472656 52.078125 166.53125 52.226562 166.53125 52.402344 Z M 166.53125 52.402344 " fill-opacity="1" fill-rule="nonzero"/><path fill="#020000" d="M 174.84375 79.648438 C 174.84375 79.820312 174.78125 79.96875 174.660156 80.089844 C 174.539062 80.214844 174.390625 80.273438 174.21875 80.273438 C 174.042969 80.273438 173.898438 80.214844 173.773438 80.089844 C 173.652344 79.96875 173.589844 79.820312 173.589844 79.648438 C 173.589844 79.472656 173.652344 79.328125 173.773438 79.203125 C 173.898438 79.082031 174.042969 79.019531 174.21875 79.019531 C 174.390625 79.019531 174.539062 79.082031 174.660156 79.203125 C 174.78125 79.328125 174.84375 79.472656 174.84375 79.648438 Z M 174.84375 79.648438 " fill-opacity="1" fill-rule="nonzero"/><path fill="#020000" d="M 127.46875 69.261719 C 127.46875 69.4375 127.410156 69.582031 127.285156 69.707031 C 127.164062 69.828125 127.015625 69.890625 126.84375 69.890625 C 126.671875 69.890625 126.523438 69.828125 126.402344 69.707031 C 126.277344 69.582031 126.21875 69.4375 126.21875 69.261719 C 126.21875 69.089844 126.277344 68.941406 126.402344 68.820312 C 126.523438 68.695312 126.671875 68.636719 126.84375 68.636719 C 127.015625 68.636719 127.164062 68.695312 127.285156 68.820312 C 127.410156 68.941406 127.46875 69.089844 127.46875 69.261719 Z M 127.46875 69.261719 " fill-opacity="1" fill-rule="nonzero"/><path fill="#020000" d="M 173.398438 156.921875 C 173.398438 157.097656 173.335938 157.242188 173.214844 157.367188 C 173.089844 157.488281 172.945312 157.550781 172.769531 157.550781 C 172.597656 157.550781 172.449219 157.488281 172.328125 157.367188 C 172.207031 157.242188 172.144531 157.097656 172.144531 156.921875 C 172.144531 156.75 172.207031 156.601562 172.328125 156.480469 C 172.449219 156.355469 172.597656 156.296875 172.769531 156.296875 C 172.945312 156.296875 173.089844 156.355469 173.214844 156.480469 C 173.335938 156.601562 173.398438 156.75 173.398438 156.921875 Z M 173.398438 156.921875 " fill-opacity="1" fill-rule="nonzero"/><path fill="#020000" d="M 167.296875 189.765625 C 167.296875 189.941406 167.238281 190.089844 167.113281 190.210938 C 166.992188 190.332031 166.84375 190.394531 166.671875 190.394531 C 166.5 190.394531 166.351562 190.332031 166.230469 190.210938 C 166.105469 190.089844 166.046875 189.941406 166.046875 189.765625 C 166.046875 189.59375 166.105469 189.445312 166.230469 189.324219 C 166.351562 189.203125 166.5 189.140625 166.671875 189.140625 C 166.84375 189.140625 166.992188 189.203125 167.113281 189.324219 C 167.238281 189.445312 167.296875 189.59375 167.296875 189.765625 Z M 167.296875 189.765625 " fill-opacity="1" fill-rule="nonzero"/><path fill="#020000" d="M 159.953125 190.832031 C 159.953125 191.007812 159.890625 191.152344 159.769531 191.277344 C 159.648438 191.398438 159.5 191.460938 159.324219 191.460938 C 159.152344 191.460938 159.003906 191.398438 158.882812 191.277344 C 158.761719 191.152344 158.699219 191.007812 158.699219 190.832031 C 158.699219 190.660156 158.761719 190.511719 158.882812 190.390625 C 159.003906 190.265625 159.152344 190.207031 159.324219 190.207031 C 159.5 190.207031 159.648438 190.265625 159.769531 190.390625 C 159.890625 190.511719 159.953125 190.660156 159.953125 190.832031 Z M 159.953125 190.832031 " fill-opacity="1" fill-rule="nonzero"/><path fill="#020000" d="M 141.855469 173.910156 C 141.855469 174.082031 141.792969 174.230469 141.671875 174.355469 C 141.546875 174.476562 141.402344 174.539062 141.226562 174.539062 C 141.054688 174.539062 140.90625 174.476562 140.785156 174.355469 C 140.664062 174.230469 140.601562 174.082031 140.601562 173.910156 C 140.601562 173.738281 140.664062 173.589844 140.785156 173.46875 C 140.90625 173.34375 141.054688 173.28125 141.226562 173.28125 C 141.402344 173.28125 141.546875 173.34375 141.671875 173.46875 C 141.792969 173.589844 141.855469 173.738281 141.855469 173.910156 Z M 141.855469 173.910156 " fill-opacity="1" fill-rule="nonzero"/><path fill="#020000" d="M 138.511719 169.554688 C 138.511719 169.726562 138.449219 169.875 138.328125 169.996094 C 138.207031 170.121094 138.058594 170.179688 137.886719 170.179688 C 137.710938 170.179688 137.566406 170.121094 137.441406 169.996094 C 137.320312 169.875 137.257812 169.726562 137.257812 169.554688 C 137.257812 169.382812 137.320312 169.234375 137.441406 169.109375 C 137.566406 168.988281 137.710938 168.925781 137.886719 168.925781 C 138.058594 168.925781 138.207031 168.988281 138.328125 169.109375 C 138.449219 169.234375 138.511719 169.382812 138.511719 169.554688 Z M 138.511719 169.554688 " fill-opacity="1" fill-rule="nonzero"/><path fill="#020000" d="M 99.558594 82.078125 C 99.558594 82.25 99.5 82.398438 99.375 82.519531 C 99.253906 82.644531 99.105469 82.703125 98.933594 82.703125 C 98.761719 82.703125 98.613281 82.644531 98.488281 82.519531 C 98.367188 82.398438 98.308594 82.25 98.308594 82.078125 C 98.308594 81.902344 98.367188 81.757812 98.488281 81.632812 C 98.613281 81.511719 98.761719 81.449219 98.933594 81.449219 C 99.105469 81.449219 99.253906 81.511719 99.375 81.632812 C 99.5 81.757812 99.558594 81.902344 99.558594 82.078125 Z M 99.558594 82.078125 " fill-opacity="1" fill-rule="nonzero"/><path fill="#020000" d="M 80.722656 75.917969 C 80.722656 76.09375 80.664062 76.238281 80.539062 76.363281 C 80.417969 76.484375 80.269531 76.546875 80.097656 76.546875 C 79.925781 76.546875 79.777344 76.484375 79.65625 76.363281 C 79.53125 76.238281 79.472656 76.09375 79.472656 75.917969 C 79.472656 75.746094 79.53125 75.597656 79.65625 75.476562 C 79.777344 75.351562 79.925781 75.292969 80.097656 75.292969 C 80.269531 75.292969 80.417969 75.351562 80.539062 75.476562 C 80.664062 75.597656 80.722656 75.746094 80.722656 75.917969 Z M 80.722656 75.917969 " fill-opacity="1" fill-rule="nonzero"/><path fill="#020000" d="M 158.035156 92.0625 C 158.035156 92.238281 157.972656 92.382812 157.851562 92.507812 C 157.730469 92.628906 157.582031 92.691406 157.410156 92.691406 C 157.234375 92.691406 157.089844 92.628906 156.964844 92.507812 C 156.84375 92.382812 156.78125 92.238281 156.78125 92.0625 C 156.78125 91.890625 156.84375 91.742188 156.964844 91.621094 C 157.089844 91.496094 157.234375 91.4375 157.410156 91.4375 C 157.582031 91.4375 157.730469 91.496094 157.851562 91.621094 C 157.972656 91.742188 158.035156 91.890625 158.035156 92.0625 Z M 158.035156 92.0625 " fill-opacity="1" fill-rule="nonzero"/><path fill="#020000" d="M 148.042969 102.878906 C 148.042969 103.050781 147.984375 103.199219 147.863281 103.320312 C 147.738281 103.445312 147.589844 103.503906 147.417969 103.503906 C 147.246094 103.503906 147.097656 103.445312 146.976562 103.320312 C 146.851562 103.199219 146.792969 103.050781 146.792969 102.878906 C 146.792969 102.703125 146.851562 102.558594 146.976562 102.433594 C 147.097656 102.3125 147.246094 102.25 147.417969 102.25 C 147.589844 102.25 147.738281 102.3125 147.863281 102.433594 C 147.984375 102.558594 148.042969 102.703125 148.042969 102.878906 Z M 148.042969 102.878906 " fill-opacity="1" fill-rule="nonzero"/><path fill="#020000" d="M 136.761719 83.21875 C 136.761719 83.394531 136.699219 83.539062 136.578125 83.664062 C 136.457031 83.785156 136.308594 83.847656 136.132812 83.847656 C 135.960938 83.847656 135.8125 83.785156 135.691406 83.664062 C 135.570312 83.539062 135.507812 83.394531 135.507812 83.21875 C 135.507812 83.046875 135.570312 82.898438 135.691406 82.777344 C 135.8125 82.652344 135.960938 82.59375 136.132812 82.59375 C 136.308594 82.59375 136.457031 82.652344 136.578125 82.777344 C 136.699219 82.898438 136.761719 83.046875 136.761719 83.21875 Z M 136.761719 83.21875 " fill-opacity="1" fill-rule="nonzero"/><path fill="#020000" d="M 153.945312 99.144531 C 153.945312 99.316406 153.882812 99.464844 153.761719 99.585938 C 153.640625 99.710938 153.492188 99.769531 153.316406 99.769531 C 153.144531 99.769531 152.996094 99.710938 152.875 99.585938 C 152.753906 99.464844 152.691406 99.316406 152.691406 99.144531 C 152.691406 98.96875 152.753906 98.824219 152.875 98.699219 C 152.996094 98.578125 153.144531 98.515625 153.316406 98.515625 C 153.492188 98.515625 153.640625 98.578125 153.761719 98.699219 C 153.882812 98.824219 153.945312 98.96875 153.945312 99.144531 Z M 153.945312 99.144531 " fill-opacity="1" fill-rule="nonzero"/><path fill="#020000" d="M 151.007812 71.390625 C 151.003906 71.5625 150.945312 71.710938 150.824219 71.835938 C 150.699219 71.957031 150.550781 72.019531 150.378906 72.019531 C 150.207031 72.019531 150.058594 71.957031 149.9375 71.835938 C 149.816406 71.710938 149.753906 71.5625 149.753906 71.390625 C 149.753906 71.21875 149.816406 71.070312 149.9375 70.949219 C 150.058594 70.824219 150.207031 70.765625 150.378906 70.765625 C 150.550781 70.765625 150.699219 70.824219 150.824219 70.949219 C 150.945312 71.070312 151.003906 71.21875 151.007812 71.390625 Z M 151.007812 71.390625 " fill-opacity="1" fill-rule="nonzero"/><path fill="#020000" d="M 133.417969 42.574219 C 133.417969 42.75 133.355469 42.894531 133.234375 43.019531 C 133.113281 43.140625 132.964844 43.203125 132.792969 43.203125 C 132.617188 43.203125 132.472656 43.140625 132.347656 43.019531 C 132.226562 42.894531 132.164062 42.75 132.164062 42.574219 C 132.164062 42.402344 132.226562 42.253906 132.347656 42.132812 C 132.472656 42.007812 132.617188 41.949219 132.792969 41.949219 C 132.964844 41.949219 133.113281 42.007812 133.234375 42.132812 C 133.355469 42.253906 133.417969 42.402344 133.417969 42.574219 Z M 133.417969 42.574219 " fill-opacity="1" fill-rule="nonzero"/><path fill="#020000" d="M 154.996094 39.847656 C 154.996094 40.023438 154.9375 40.167969 154.8125 40.292969 C 154.691406 40.414062 154.542969 40.476562 154.371094 40.476562 C 154.199219 40.476562 154.050781 40.414062 153.929688 40.292969 C 153.804688 40.167969 153.746094 40.023438 153.746094 39.847656 C 153.746094 39.675781 153.804688 39.527344 153.929688 39.40625 C 154.050781 39.28125 154.199219 39.222656 154.371094 39.222656 C 154.542969 39.222656 154.691406 39.28125 154.8125 39.40625 C 154.9375 39.527344 154.996094 39.675781 154.996094 39.847656 Z M 154.996094 39.847656 " fill-opacity="1" fill-rule="nonzero"/><path fill="#020000" d="M 91.105469 57.828125 C 91.105469 58.003906 91.046875 58.148438 90.921875 58.273438 C 90.800781 58.394531 90.652344 58.457031 90.480469 58.457031 C 90.308594 58.457031 90.160156 58.394531 90.039062 58.273438 C 89.914062 58.148438 89.855469 58.003906 89.855469 57.828125 C 89.855469 57.65625 89.914062 57.507812 90.039062 57.386719 C 90.160156 57.261719 90.308594 57.203125 90.480469 57.203125 C 90.652344 57.203125 90.800781 57.261719 90.921875 57.386719 C 91.046875 57.507812 91.105469 57.65625 91.105469 57.828125 Z M 91.105469 57.828125 " fill-opacity="1" fill-rule="nonzero"/><path fill="#020000" d="M 84.421875 27.925781 C 84.421875 28.097656 84.359375 28.246094 84.238281 28.367188 C 84.117188 28.488281 83.96875 28.550781 83.796875 28.550781 C 83.621094 28.550781 83.476562 28.488281 83.351562 28.367188 C 83.230469 28.246094 83.167969 28.097656 83.167969 27.925781 C 83.167969 27.75 83.230469 27.601562 83.351562 27.480469 C 83.476562 27.359375 83.621094 27.296875 83.796875 27.296875 C 83.96875 27.296875 84.117188 27.359375 84.238281 27.480469 C 84.359375 27.601562 84.421875 27.75 84.421875 27.925781 Z M 84.421875 27.925781 " fill-opacity="1" fill-rule="nonzero"/><path fill="#020000" d="M 63.214844 40.59375 C 63.214844 40.769531 63.152344 40.914062 63.03125 41.039062 C 62.910156 41.160156 62.761719 41.222656 62.589844 41.222656 C 62.414062 41.222656 62.269531 41.160156 62.144531 41.039062 C 62.023438 40.914062 61.960938 40.769531 61.960938 40.59375 C 61.960938 40.421875 62.023438 40.273438 62.144531 40.152344 C 62.269531 40.027344 62.414062 39.96875 62.589844 39.96875 C 62.761719 39.96875 62.910156 40.027344 63.03125 40.152344 C 63.152344 40.273438 63.214844 40.421875 63.214844 40.59375 Z M 63.214844 40.59375 " fill-opacity="1" fill-rule="nonzero"/><path fill="#020000" d="M 76.867188 83.597656 C 76.867188 83.773438 76.804688 83.917969 76.683594 84.042969 C 76.5625 84.164062 76.414062 84.226562 76.242188 84.226562 C 76.066406 84.226562 75.921875 84.164062 75.796875 84.042969 C 75.675781 83.917969 75.613281 83.773438 75.613281 83.597656 C 75.613281 83.425781 75.675781 83.277344 75.796875 83.15625 C 75.921875 83.03125 76.066406 82.972656 76.242188 82.972656 C 76.414062 82.972656 76.5625 83.03125 76.683594 83.15625 C 76.804688 83.277344 76.867188 83.425781 76.867188 83.597656 Z M 76.867188 83.597656 " fill-opacity="1" fill-rule="nonzero"/><path fill="#020000" d="M 85.371094 89.4375 C 85.371094 89.613281 85.308594 89.757812 85.1875 89.882812 C 85.0625 90.003906 84.917969 90.066406 84.742188 90.066406 C 84.570312 90.066406 84.421875 90.003906 84.300781 89.882812 C 84.179688 89.757812 84.117188 89.613281 84.117188 89.4375 C 84.117188 89.265625 84.179688 89.117188 84.300781 88.996094 C 84.421875 88.871094 84.570312 88.8125 84.742188 88.8125 C 84.917969 88.8125 85.0625 88.871094 85.1875 88.996094 C 85.308594 89.117188 85.371094 89.265625 85.371094 89.4375 Z M 85.371094 89.4375 " fill-opacity="1" fill-rule="nonzero"/><path fill="#020000" d="M 48.136719 112.636719 C 48.136719 112.8125 48.078125 112.960938 47.953125 113.082031 C 47.832031 113.203125 47.683594 113.265625 47.511719 113.265625 C 47.339844 113.265625 47.191406 113.203125 47.070312 113.082031 C 46.945312 112.960938 46.886719 112.8125 46.886719 112.636719 C 46.886719 112.464844 46.945312 112.316406 47.070312 112.195312 C 47.191406 112.074219 47.339844 112.011719 47.511719 112.011719 C 47.683594 112.011719 47.832031 112.074219 47.953125 112.195312 C 48.078125 112.316406 48.136719 112.464844 48.136719 112.636719 Z M 48.136719 112.636719 " fill-opacity="1" fill-rule="nonzero"/><path fill="#020000" d="M 92.625 89.8125 C 92.625 89.984375 92.566406 90.132812 92.441406 90.253906 C 92.320312 90.378906 92.171875 90.4375 92 90.4375 C 91.828125 90.4375 91.679688 90.378906 91.558594 90.253906 C 91.433594 90.132812 91.375 89.984375 91.375 89.8125 C 91.375 89.636719 91.433594 89.488281 91.558594 89.367188 C 91.679688 89.246094 91.828125 89.183594 92 89.183594 C 92.171875 89.183594 92.320312 89.246094 92.441406 89.367188 C 92.566406 89.488281 92.625 89.636719 92.625 89.8125 Z M 92.625 89.8125 " fill-opacity="1" fill-rule="nonzero"/><path fill="#020000" d="M 81.738281 43.554688 C 81.738281 43.730469 81.675781 43.878906 81.554688 44 C 81.433594 44.121094 81.285156 44.183594 81.109375 44.183594 C 80.9375 44.183594 80.789062 44.121094 80.667969 44 C 80.546875 43.878906 80.484375 43.730469 80.484375 43.554688 C 80.484375 43.382812 80.546875 43.234375 80.667969 43.113281 C 80.789062 42.992188 80.9375 42.929688 81.109375 42.929688 C 81.285156 42.929688 81.433594 42.992188 81.554688 43.113281 C 81.675781 43.234375 81.738281 43.382812 81.738281 43.554688 Z M 81.738281 43.554688 " fill-opacity="1" fill-rule="nonzero"/><path fill="#020000" d="M 113.816406 17.117188 C 113.816406 17.289062 113.753906 17.4375 113.632812 17.5625 C 113.511719 17.683594 113.363281 17.746094 113.191406 17.746094 C 113.015625 17.746094 112.871094 17.683594 112.746094 17.5625 C 112.625 17.4375 112.5625 17.289062 112.5625 17.117188 C 112.5625 16.945312 112.625 16.796875 112.746094 16.675781 C 112.871094 16.550781 113.015625 16.492188 113.191406 16.492188 C 113.363281 16.492188 113.511719 16.550781 113.632812 16.675781 C 113.753906 16.796875 113.816406 16.945312 113.816406 17.117188 Z M 113.816406 17.117188 " fill-opacity="1" fill-rule="nonzero"/><path fill="#020000" d="M 104.792969 32.449219 C 104.792969 32.621094 104.734375 32.769531 104.609375 32.894531 C 104.488281 33.015625 104.339844 33.078125 104.167969 33.078125 C 103.996094 33.078125 103.847656 33.015625 103.726562 32.894531 C 103.601562 32.769531 103.542969 32.621094 103.542969 32.449219 C 103.542969 32.277344 103.601562 32.128906 103.726562 32.003906 C 103.847656 31.882812 103.996094 31.820312 104.167969 31.820312 C 104.339844 31.820312 104.488281 31.882812 104.609375 32.003906 C 104.734375 32.128906 104.792969 32.277344 104.792969 32.449219 Z M 104.792969 32.449219 " fill-opacity="1" fill-rule="nonzero"/><path fill="#020000" d="M 110.121094 25.109375 C 110.121094 25.28125 110.058594 25.429688 109.9375 25.550781 C 109.8125 25.671875 109.667969 25.734375 109.492188 25.734375 C 109.320312 25.734375 109.171875 25.671875 109.050781 25.550781 C 108.929688 25.429688 108.867188 25.28125 108.867188 25.109375 C 108.867188 24.933594 108.929688 24.785156 109.050781 24.664062 C 109.171875 24.542969 109.320312 24.480469 109.492188 24.480469 C 109.667969 24.480469 109.8125 24.542969 109.9375 24.664062 C 110.058594 24.785156 110.121094 24.933594 110.121094 25.109375 Z M 110.121094 25.109375 " fill-opacity="1" fill-rule="nonzero"/><path fill="#020000" d="M 118.863281 33.292969 C 118.863281 33.464844 118.800781 33.613281 118.679688 33.738281 C 118.558594 33.859375 118.410156 33.921875 118.238281 33.921875 C 118.0625 33.921875 117.914062 33.859375 117.792969 33.738281 C 117.671875 33.613281 117.609375 33.464844 117.609375 33.292969 C 117.609375 33.121094 117.671875 32.972656 117.792969 32.847656 C 117.914062 32.726562 118.0625 32.664062 118.238281 32.664062 C 118.410156 32.664062 118.558594 32.726562 118.679688 32.847656 C 118.800781 32.972656 118.863281 33.121094 118.863281 33.292969 Z M 118.863281 33.292969 " fill-opacity="1" fill-rule="nonzero"/><path fill="#020000" d="M 107.792969 59.90625 L 97.179688 59.90625 C 97.039062 59.90625 96.914062 59.855469 96.816406 59.753906 C 96.714844 59.652344 96.664062 59.53125 96.664062 59.386719 C 96.664062 59.246094 96.714844 59.121094 96.816406 59.023438 C 96.914062 58.921875 97.039062 58.871094 97.179688 58.871094 L 106.449219 58.871094 C 105.992188 58.304688 105.613281 57.691406 105.316406 57.03125 C 104.691406 55.625 104.492188 54.164062 104.714844 52.644531 C 104.78125 52.171875 104.890625 51.707031 105.042969 51.253906 C 105.199219 50.804688 105.390625 50.367188 105.625 49.953125 C 105.859375 49.535156 106.128906 49.144531 106.433594 48.777344 C 106.742188 48.414062 107.078125 48.078125 107.449219 47.773438 C 107.816406 47.472656 108.210938 47.203125 108.628906 46.976562 C 109.046875 46.746094 109.480469 46.554688 109.933594 46.40625 C 110.386719 46.257812 110.851562 46.152344 111.324219 46.089844 C 111.796875 46.027344 112.273438 46.007812 112.75 46.035156 C 113.773438 46.089844 114.746094 46.339844 115.675781 46.773438 C 116.601562 47.210938 117.414062 47.804688 118.113281 48.558594 C 119.5625 50.144531 120.332031 52.414062 120.15625 54.640625 C 120.0625 56.074219 119.566406 57.351562 118.667969 58.46875 L 127.414062 58.46875 C 127.558594 58.46875 127.679688 58.519531 127.78125 58.621094 C 127.882812 58.722656 127.933594 58.84375 127.933594 58.988281 C 127.933594 59.132812 127.882812 59.253906 127.78125 59.355469 C 127.679688 59.457031 127.558594 59.507812 127.414062 59.507812 L 117.402344 59.507812 C 117.160156 59.503906 116.996094 59.390625 116.917969 59.160156 C 116.835938 58.925781 116.890625 58.734375 117.082031 58.582031 C 118.269531 57.644531 118.992188 56.21875 119.125 54.5625 C 119.277344 52.617188 118.613281 50.636719 117.351562 49.265625 C 116.746094 48.609375 116.042969 48.09375 115.234375 47.714844 C 114.429688 47.335938 113.582031 47.121094 112.695312 47.074219 C 112.28125 47.054688 111.871094 47.070312 111.464844 47.125 C 111.054688 47.179688 110.652344 47.273438 110.261719 47.402344 C 109.871094 47.53125 109.492188 47.695312 109.132812 47.894531 C 108.769531 48.09375 108.429688 48.324219 108.109375 48.585938 C 107.792969 48.851562 107.5 49.140625 107.234375 49.457031 C 106.96875 49.773438 106.734375 50.113281 106.53125 50.472656 C 106.328125 50.832031 106.160156 51.207031 106.027344 51.597656 C 105.894531 51.988281 105.796875 52.390625 105.738281 52.800781 C 105.550781 54.121094 105.726562 55.390625 106.265625 56.613281 C 106.613281 57.402344 107.292969 58.488281 108.058594 58.945312 C 108.285156 59.082031 108.363281 59.273438 108.292969 59.527344 C 108.222656 59.78125 108.058594 59.910156 107.796875 59.910156 Z M 107.792969 59.90625 " fill-opacity="1" fill-rule="nonzero"/></svg>