<svg xmlns="http://www.w3.org/2000/svg" xmlns:xlink="http://www.w3.org/1999/xlink" width="300" zoomAndPan="magnify" viewBox="0 0 224.87999 225" height="300" preserveAspectRatio="xMidYMid meet" version="1.0"><defs><clipPath id="b3d751c0ff"><path d="M 24.820312 24.882812 L 200.226562 24.882812 L 200.226562 200.289062 L 24.820312 200.289062 Z M 24.820312 24.882812 " clip-rule="nonzero"/></clipPath></defs><g clip-path="url(#b3d751c0ff)"><path fill="#010101" d="M 112.523438 24.90625 C 111.089844 24.90625 109.65625 24.941406 108.222656 25.011719 C 106.789062 25.082031 105.359375 25.1875 103.929688 25.328125 C 102.503906 25.46875 101.078125 25.644531 99.660156 25.855469 C 98.242188 26.066406 96.828125 26.3125 95.421875 26.589844 C 94.011719 26.871094 92.613281 27.183594 91.222656 27.535156 C 89.828125 27.882812 88.445312 28.265625 87.074219 28.683594 C 85.699219 29.097656 84.339844 29.546875 82.988281 30.03125 C 81.636719 30.515625 80.296875 31.03125 78.972656 31.582031 C 77.644531 32.128906 76.335938 32.710938 75.039062 33.324219 C 73.742188 33.9375 72.460938 34.582031 71.195312 35.257812 C 69.929688 35.9375 68.679688 36.644531 67.449219 37.378906 C 66.21875 38.117188 65.007812 38.886719 63.8125 39.683594 C 62.621094 40.480469 61.449219 41.304688 60.296875 42.160156 C 59.140625 43.015625 58.011719 43.898438 56.902344 44.808594 C 55.792969 45.71875 54.707031 46.65625 53.644531 47.621094 C 52.582031 48.582031 51.542969 49.574219 50.527344 50.585938 C 49.511719 51.601562 48.523438 52.640625 47.558594 53.703125 C 46.597656 54.765625 45.660156 55.851562 44.75 56.960938 C 43.839844 58.070312 42.957031 59.203125 42.101562 60.355469 C 41.246094 61.507812 40.421875 62.679688 39.625 63.875 C 38.824219 65.066406 38.058594 66.277344 37.320312 67.507812 C 36.582031 68.738281 35.875 69.988281 35.199219 71.253906 C 34.523438 72.519531 33.878906 73.800781 33.265625 75.097656 C 32.652344 76.394531 32.070312 77.707031 31.519531 79.03125 C 30.972656 80.359375 30.457031 81.695312 29.972656 83.046875 C 29.488281 84.398438 29.039062 85.761719 28.621094 87.132812 C 28.207031 88.507812 27.824219 89.890625 27.472656 91.28125 C 27.125 92.671875 26.8125 94.074219 26.53125 95.480469 C 26.25 96.886719 26.007812 98.300781 25.796875 99.71875 C 25.585938 101.140625 25.410156 102.5625 25.269531 103.992188 C 25.128906 105.417969 25.023438 106.851562 24.953125 108.28125 C 24.882812 109.714844 24.847656 111.148438 24.847656 112.585938 C 24.847656 114.019531 24.882812 115.453125 24.953125 116.886719 C 25.023438 118.320312 25.128906 119.75 25.269531 121.179688 C 25.410156 122.605469 25.585938 124.03125 25.796875 125.449219 C 26.007812 126.871094 26.25 128.285156 26.53125 129.691406 C 26.8125 131.097656 27.125 132.496094 27.472656 133.890625 C 27.824219 135.28125 28.207031 136.664062 28.621094 138.035156 C 29.039062 139.410156 29.488281 140.773438 29.972656 142.125 C 30.457031 143.472656 30.972656 144.8125 31.519531 146.136719 C 32.070312 147.464844 32.652344 148.777344 33.265625 150.074219 C 33.878906 151.371094 34.523438 152.652344 35.199219 153.917969 C 35.875 155.183594 36.582031 156.429688 37.320312 157.660156 C 38.058594 158.890625 38.824219 160.105469 39.625 161.296875 C 40.421875 162.488281 41.246094 163.664062 42.101562 164.816406 C 42.957031 165.96875 43.839844 167.097656 44.75 168.207031 C 45.660156 169.316406 46.597656 170.402344 47.558594 171.464844 C 48.523438 172.53125 49.511719 173.570312 50.527344 174.582031 C 51.542969 175.597656 52.582031 176.585938 53.644531 177.550781 C 54.707031 178.515625 55.792969 179.453125 56.902344 180.363281 C 58.011719 181.273438 59.140625 182.15625 60.296875 183.007812 C 61.449219 183.863281 62.621094 184.691406 63.8125 185.488281 C 65.007812 186.285156 66.21875 187.050781 67.449219 187.789062 C 68.679688 188.527344 69.929688 189.234375 71.195312 189.910156 C 72.460938 190.585938 73.742188 191.230469 75.039062 191.847656 C 76.335938 192.460938 77.644531 193.039062 78.972656 193.589844 C 80.296875 194.140625 81.636719 194.65625 82.988281 195.140625 C 84.339844 195.621094 85.699219 196.070312 87.074219 196.488281 C 88.445312 196.90625 89.828125 197.289062 91.222656 197.636719 C 92.613281 197.984375 94.011719 198.300781 95.421875 198.578125 C 96.828125 198.859375 98.242188 199.105469 99.660156 199.316406 C 101.078125 199.527344 102.503906 199.703125 103.929688 199.84375 C 105.359375 199.984375 106.789062 200.089844 108.222656 200.160156 C 109.65625 200.230469 111.089844 200.265625 112.523438 200.265625 C 113.960938 200.265625 115.394531 200.230469 116.828125 200.160156 C 118.261719 200.089844 119.691406 199.984375 121.121094 199.84375 C 122.546875 199.703125 123.972656 199.527344 125.390625 199.316406 C 126.808594 199.105469 128.222656 198.859375 129.628906 198.578125 C 131.039062 198.300781 132.4375 197.984375 133.828125 197.636719 C 135.222656 197.289062 136.605469 196.90625 137.976562 196.488281 C 139.351562 196.070312 140.710938 195.621094 142.0625 195.140625 C 143.414062 194.65625 144.753906 194.140625 146.078125 193.589844 C 147.402344 193.039062 148.714844 192.460938 150.011719 191.847656 C 151.308594 191.230469 152.589844 190.585938 153.855469 189.910156 C 155.121094 189.234375 156.371094 188.527344 157.601562 187.789062 C 158.832031 187.050781 160.042969 186.285156 161.238281 185.488281 C 162.429688 184.691406 163.601562 183.863281 164.753906 183.007812 C 165.90625 182.15625 167.039062 181.273438 168.148438 180.363281 C 169.257812 179.453125 170.34375 178.515625 171.40625 177.550781 C 172.46875 176.585938 173.507812 175.597656 174.523438 174.582031 C 175.539062 173.570312 176.527344 172.53125 177.492188 171.464844 C 178.453125 170.402344 179.390625 169.316406 180.300781 168.207031 C 181.210938 167.097656 182.09375 165.96875 182.949219 164.816406 C 183.804688 163.664062 184.628906 162.488281 185.425781 161.296875 C 186.226562 160.105469 186.992188 158.890625 187.730469 157.660156 C 188.46875 156.429688 189.175781 155.183594 189.851562 153.917969 C 190.527344 152.652344 191.171875 151.371094 191.785156 150.074219 C 192.398438 148.777344 192.980469 147.464844 193.53125 146.136719 C 194.078125 144.8125 194.59375 143.472656 195.078125 142.125 C 195.5625 140.773438 196.011719 139.410156 196.429688 138.035156 C 196.84375 136.664062 197.226562 135.28125 197.578125 133.890625 C 197.925781 132.496094 198.238281 131.097656 198.519531 129.691406 C 198.800781 128.285156 199.042969 126.871094 199.253906 125.449219 C 199.464844 124.03125 199.640625 122.605469 199.78125 121.179688 C 199.921875 119.75 200.027344 118.320312 200.097656 116.886719 C 200.167969 115.453125 200.203125 114.019531 200.203125 112.585938 C 200.207031 111.148438 200.175781 109.714844 200.105469 108.28125 C 200.039062 106.847656 199.9375 105.414062 199.796875 103.984375 C 199.660156 102.558594 199.484375 101.132812 199.277344 99.710938 C 199.070312 98.292969 198.824219 96.875 198.546875 95.46875 C 198.269531 94.058594 197.957031 92.660156 197.609375 91.265625 C 197.261719 89.871094 196.882812 88.488281 196.46875 87.113281 C 196.050781 85.738281 195.601562 84.375 195.121094 83.023438 C 194.640625 81.671875 194.125 80.332031 193.574219 79.003906 C 193.027344 77.679688 192.445312 76.367188 191.835938 75.066406 C 191.222656 73.769531 190.578125 72.488281 189.902344 71.21875 C 189.226562 69.953125 188.519531 68.703125 187.78125 67.472656 C 187.042969 66.238281 186.277344 65.027344 185.480469 63.832031 C 184.683594 62.640625 183.855469 61.464844 183.003906 60.3125 C 182.148438 59.15625 181.265625 58.027344 180.355469 56.917969 C 179.445312 55.804688 178.507812 54.71875 177.542969 53.65625 C 176.578125 52.589844 175.589844 51.550781 174.574219 50.535156 C 173.558594 49.523438 172.519531 48.53125 171.457031 47.566406 C 170.390625 46.605469 169.304688 45.667969 168.195312 44.757812 C 167.085938 43.84375 165.953125 42.964844 164.800781 42.109375 C 163.644531 41.253906 162.472656 40.425781 161.277344 39.628906 C 160.082031 38.832031 158.871094 38.066406 157.636719 37.328125 C 156.40625 36.589844 155.15625 35.886719 153.890625 35.207031 C 152.625 34.53125 151.339844 33.890625 150.042969 33.277344 C 148.746094 32.664062 147.433594 32.082031 146.105469 31.535156 C 144.777344 30.988281 143.4375 30.472656 142.085938 29.988281 C 140.734375 29.507812 139.371094 29.058594 137.996094 28.644531 C 136.621094 28.226562 135.238281 27.847656 133.84375 27.5 C 132.453125 27.152344 131.050781 26.839844 129.640625 26.5625 C 128.234375 26.285156 126.820312 26.042969 125.398438 25.832031 C 123.976562 25.625 122.554688 25.453125 121.125 25.3125 C 119.695312 25.175781 118.265625 25.070312 116.828125 25.003906 C 115.394531 24.9375 113.960938 24.902344 112.523438 24.90625 Z M 184.910156 111.65625 C 184.832031 105.613281 184.007812 99.671875 182.445312 93.832031 C 180.882812 87.996094 178.625 82.4375 175.675781 77.160156 L 187.304688 70.46875 C 190.859375 76.75 193.574219 83.375 195.445312 90.347656 C 197.316406 97.320312 198.28125 104.414062 198.347656 111.632812 Z M 173.625 147.863281 C 169.40625 155.144531 164.054688 161.472656 157.574219 166.84375 L 163.609375 145.566406 L 178.265625 137.917969 C 176.984375 141.355469 175.433594 144.671875 173.625 147.863281 Z M 46.589844 137.820312 L 74.660156 151.769531 L 90.683594 179.765625 C 86.578125 178.441406 82.625 176.75 78.832031 174.695312 C 75.035156 172.636719 71.457031 170.253906 68.101562 167.539062 C 64.746094 164.824219 61.667969 161.824219 58.863281 158.542969 C 56.0625 155.257812 53.582031 151.75 51.425781 148.007812 C 49.574219 144.734375 47.988281 141.339844 46.664062 137.820312 Z M 51.476562 77.308594 C 54.75 71.628906 58.75 66.515625 63.46875 61.964844 L 67.527344 79.066406 L 44.804688 92.945312 C 46.375 87.460938 48.582031 82.25 51.425781 77.308594 Z M 176.921875 83.660156 L 131.898438 44.742188 C 134.367188 45.433594 136.789062 46.257812 139.164062 47.214844 C 141.542969 48.171875 143.859375 49.257812 146.117188 50.472656 C 148.375 51.683594 150.558594 53.019531 152.667969 54.472656 C 154.78125 55.925781 156.804688 57.492188 158.742188 59.167969 C 160.679688 60.84375 162.519531 62.621094 164.261719 64.503906 C 166.003906 66.382812 167.636719 68.351562 169.160156 70.410156 C 170.6875 72.472656 172.09375 74.609375 173.382812 76.824219 C 174.671875 79.039062 175.835938 81.316406 176.875 83.660156 Z M 112.523438 183.140625 C 106.652344 183.125 100.871094 182.402344 95.179688 180.964844 L 113.867188 171.191406 L 132.09375 180.257812 C 125.707031 182.144531 119.183594 183.105469 112.523438 183.140625 Z M 90.417969 67.390625 L 177.53125 87.617188 L 106.027344 165.328125 L 87.632812 156.167969 L 69.578125 79.996094 Z M 69.136719 78.140625 L 65.15625 61.40625 L 87.875 66.679688 Z M 92.640625 65.925781 L 128.550781 43.9375 L 128.40625 44.15625 L 175.871094 85.222656 Z M 104.855469 166.746094 L 93.25 179.375 L 88.363281 158.511719 Z M 85.503906 155.09375 L 76.027344 150.453125 L 44.464844 95.335938 L 67.917969 81.023438 Z M 86.042969 157.535156 L 90.269531 175.371094 L 77.664062 153.382812 Z M 96.816406 178.179688 L 106.417969 167.550781 L 111.816406 170.238281 Z M 107.738281 166.304688 L 177.265625 90.402344 L 161.996094 144.148438 L 113.867188 169.214844 Z M 147.949219 49.457031 C 142.011719 46.113281 135.726562 43.671875 129.089844 42.128906 L 128.820312 41.691406 L 128.40625 41.957031 C 123.507812 40.855469 118.546875 40.269531 113.527344 40.199219 L 113.527344 26.761719 C 120.734375 26.839844 127.820312 27.816406 134.78125 29.683594 C 141.746094 31.554688 148.363281 34.261719 154.640625 37.804688 Z M 111.621094 40.199219 C 105.570312 40.273438 99.625 41.09375 93.78125 42.660156 C 87.9375 44.230469 82.375 46.496094 77.101562 49.457031 L 70.40625 37.804688 C 76.703125 34.257812 83.339844 31.550781 90.316406 29.679688 C 97.296875 27.808594 104.398438 26.839844 111.621094 26.761719 Z M 77.25 51.484375 C 82.605469 48.378906 88.277344 46.019531 94.261719 44.414062 C 100.242188 42.804688 106.332031 42.003906 112.523438 42.007812 C 117.085938 42.015625 121.605469 42.457031 126.082031 43.328125 L 90.097656 65.3125 L 65.839844 59.695312 C 69.367188 56.574219 73.167969 53.839844 77.25 51.484375 Z M 43.609375 97.535156 L 73.070312 148.839844 L 45.734375 135.304688 C 43.660156 129.226562 42.445312 122.980469 42.082031 116.566406 C 41.722656 110.152344 42.230469 103.808594 43.609375 97.535156 Z M 77.101562 175.710938 C 82.371094 178.667969 87.921875 180.925781 93.757812 182.488281 C 99.59375 184.050781 105.53125 184.871094 111.574219 184.945312 L 111.574219 198.40625 C 104.347656 198.339844 97.246094 197.367188 90.265625 195.5 C 83.285156 193.628906 76.652344 190.917969 70.359375 187.363281 Z M 113.40625 184.945312 C 119.457031 184.882812 125.410156 184.070312 131.257812 182.503906 C 137.105469 180.941406 142.671875 178.675781 147.949219 175.710938 L 154.691406 187.363281 C 148.402344 190.914062 141.769531 193.625 134.796875 195.496094 C 127.820312 197.363281 120.722656 198.335938 113.503906 198.40625 Z M 147.753906 173.683594 C 143.574219 176.097656 139.191406 178.058594 134.609375 179.570312 L 115.898438 170.238281 L 161.386719 146.664062 L 155.105469 168.824219 C 152.773438 170.597656 150.339844 172.214844 147.800781 173.683594 Z M 179.339844 135.304688 L 164.292969 143.121094 L 179.367188 89.964844 C 180.605469 93.617188 181.542969 97.34375 182.171875 101.152344 C 182.800781 104.957031 183.117188 108.789062 183.117188 112.644531 C 183.117188 116.503906 182.800781 120.335938 182.171875 124.140625 C 181.542969 127.949219 180.605469 131.675781 179.367188 135.328125 Z M 186.375 68.878906 L 174.820312 75.597656 C 171.734375 70.382812 168.046875 65.636719 163.761719 61.351562 C 159.476562 57.066406 154.726562 53.378906 149.511719 50.289062 L 156.230469 38.660156 C 162.4375 42.359375 168.09375 46.765625 173.199219 51.878906 C 178.300781 56.996094 182.695312 62.664062 186.375 68.878906 Z M 68.820312 38.734375 L 75.5625 50.289062 C 70.34375 53.378906 65.589844 57.070312 61.300781 61.359375 C 57.007812 65.648438 53.320312 70.402344 50.230469 75.621094 L 38.671875 68.90625 C 42.347656 62.6875 46.734375 57.023438 51.839844 51.914062 C 56.945312 46.804688 62.605469 42.414062 68.820312 38.734375 Z M 37.746094 70.492188 L 49.398438 77.160156 C 46.441406 82.425781 44.179688 87.972656 42.617188 93.804688 C 41.054688 99.636719 40.234375 105.570312 40.164062 111.609375 L 26.703125 111.609375 C 26.777344 104.398438 27.75 97.3125 29.621094 90.351562 C 31.488281 83.386719 34.199219 76.769531 37.746094 70.492188 Z M 26.703125 113.488281 L 40.164062 113.488281 C 40.234375 119.539062 41.050781 125.484375 42.613281 131.328125 C 44.175781 137.171875 46.4375 142.734375 49.398438 148.007812 L 37.746094 154.703125 C 34.191406 148.410156 31.480469 141.773438 29.613281 134.796875 C 27.742188 127.816406 26.773438 120.714844 26.703125 113.488281 Z M 38.671875 156.289062 L 50.230469 149.546875 C 53.320312 154.769531 57.007812 159.523438 61.300781 163.8125 C 65.589844 168.101562 70.34375 171.792969 75.5625 174.882812 L 68.820312 186.535156 C 62.601562 182.847656 56.9375 178.441406 51.832031 173.320312 C 46.726562 168.199219 42.339844 162.523438 38.671875 156.289062 Z M 156.207031 186.4375 L 149.488281 174.882812 C 154.710938 171.792969 159.46875 168.105469 163.757812 163.816406 C 168.046875 159.527344 171.734375 154.769531 174.820312 149.546875 L 186.472656 156.289062 C 182.78125 162.511719 178.375 168.175781 173.25 173.277344 C 168.121094 178.382812 162.441406 182.769531 156.207031 186.4375 Z M 187.304688 154.679688 L 175.652344 148.007812 C 178.613281 142.742188 180.875 137.1875 182.441406 131.355469 C 184.011719 125.519531 184.832031 119.578125 184.910156 113.539062 L 198.347656 113.539062 C 198.269531 120.753906 197.292969 127.847656 195.425781 134.816406 C 193.554688 141.789062 190.847656 148.414062 187.304688 154.703125 Z M 187.304688 154.679688 " fill-opacity="1" fill-rule="nonzero"/></g></svg>