<svg xmlns="http://www.w3.org/2000/svg" xmlns:xlink="http://www.w3.org/1999/xlink" width="300" zoomAndPan="magnify" viewBox="0 0 224.87999 225" height="300" preserveAspectRatio="xMidYMid meet" version="1.0"><defs><clipPath id="ff7687a493"><path d="M 42.019531 11.898438 L 182.941406 11.898438 L 182.941406 212.789062 L 42.019531 212.789062 Z M 42.019531 11.898438 " clip-rule="nonzero"/></clipPath></defs><path fill="#020000" d="M 54.101562 140.328125 C 54.195312 140.117188 54.292969 139.910156 54.386719 139.699219 L 50.960938 139.796875 L 49.039062 139.851562 C 50.238281 141.15625 51.363281 142.378906 52.523438 143.632812 C 52.636719 143.40625 52.742188 143.195312 52.84375 142.992188 L 53.226562 142.222656 C 53.296875 142.085938 53.40625 142.042969 53.554688 142.097656 L 53.773438 142.1875 C 53.949219 142.253906 54.097656 142.316406 54.246094 142.378906 C 56.96875 143.535156 59.699219 144.691406 62.429688 145.851562 L 66.109375 147.414062 C 69.886719 149.019531 73.660156 150.621094 77.429688 152.21875 C 78.050781 152.484375 78.675781 152.746094 79.296875 153.015625 L 79.792969 153.230469 C 79.695312 153.375 79.597656 153.523438 79.503906 153.671875 L 79.09375 153.492188 C 78.472656 153.230469 77.851562 152.964844 77.230469 152.703125 C 73.449219 151.105469 69.675781 149.503906 65.90625 147.898438 L 62.226562 146.335938 C 59.5 145.175781 56.773438 144.019531 54.039062 142.859375 C 53.898438 142.796875 53.753906 142.742188 53.585938 142.671875 L 53.308594 143.222656 C 53.160156 143.523438 53 143.84375 52.824219 144.199219 C 52.78125 144.277344 52.714844 144.324219 52.628906 144.335938 C 52.539062 144.347656 52.464844 144.324219 52.402344 144.257812 C 51.023438 142.773438 49.710938 141.34375 48.277344 139.785156 C 48.203125 139.703125 48.1875 139.613281 48.230469 139.511719 C 48.273438 139.410156 48.351562 139.355469 48.460938 139.351562 L 50.949219 139.28125 L 54.789062 139.171875 C 54.882812 139.171875 54.957031 139.210938 55.011719 139.289062 C 55.0625 139.367188 55.070312 139.453125 55.03125 139.539062 C 54.875 139.882812 54.722656 140.210938 54.574219 140.542969 C 54.46875 140.769531 54.367188 140.996094 54.261719 141.226562 L 55.398438 141.714844 C 56.453125 142.167969 57.507812 142.621094 58.5625 143.066406 L 60.609375 143.933594 C 62.613281 144.792969 64.621094 145.648438 66.625 146.5 L 69.042969 147.527344 C 70.492188 148.144531 71.9375 148.757812 73.386719 149.371094 C 75.726562 150.359375 78.070312 151.347656 80.417969 152.332031 C 80.3125 152.472656 80.210938 152.617188 80.113281 152.761719 C 77.800781 151.792969 75.488281 150.824219 73.183594 149.847656 C 71.734375 149.230469 70.289062 148.617188 68.84375 148.003906 L 66.421875 146.976562 C 64.417969 146.117188 62.410156 145.265625 60.40625 144.414062 L 58.359375 143.542969 C 57.304688 143.09375 56.25 142.644531 55.195312 142.191406 L 53.8125 141.597656 C 53.75 141.570312 53.707031 141.523438 53.683594 141.457031 C 53.652344 141.390625 53.652344 141.324219 53.683594 141.253906 C 53.835938 140.933594 53.96875 140.628906 54.101562 140.328125 Z M 54.101562 140.328125 " fill-opacity="1" fill-rule="nonzero"/><path fill="#020000" d="M 67.71875 175.253906 C 68.144531 171.347656 67.316406 167.753906 65.269531 164.570312 C 62.847656 160.808594 62.175781 156.757812 63.277344 152.53125 C 63.410156 152.003906 63.582031 151.453125 63.789062 150.863281 L 63.824219 150.769531 C 63.988281 150.328125 64.167969 149.828125 64.785156 149.554688 C 64.792969 149.546875 64.804688 149.542969 64.8125 149.539062 C 64.902344 149.511719 64.972656 149.453125 65.015625 149.371094 C 65.058594 149.285156 65.070312 149.199219 65.042969 149.105469 C 64.992188 148.910156 64.875 148.773438 64.6875 148.6875 C 63.863281 148.265625 63.019531 147.886719 62.152344 147.554688 C 61.902344 147.492188 61.664062 147.527344 61.441406 147.660156 C 61.425781 147.789062 61.421875 147.921875 61.433594 148.054688 C 61.433594 148.152344 61.441406 148.253906 61.433594 148.339844 C 61.429688 148.402344 61.433594 148.464844 61.445312 148.527344 C 61.480469 148.699219 61.464844 148.867188 61.398438 149.03125 C 60.003906 151.710938 59.644531 154.78125 60.292969 158.429688 C 60.335938 158.671875 60.386719 158.90625 60.433594 159.113281 C 60.945312 161.28125 62.03125 163.191406 62.921875 164.617188 C 64.207031 166.667969 65.761719 169.429688 66.332031 172.601562 C 66.859375 175.570312 66.339844 177.777344 64.6875 179.480469 C 65.4375 179.273438 66.050781 178.800781 66.738281 178.265625 L 66.917969 178.125 C 68.742188 176.71875 70.703125 175.234375 72.917969 173.5625 C 72.898438 173.789062 72.882812 174.015625 72.871094 174.246094 C 70.800781 175.800781 68.957031 177.207031 67.234375 178.535156 L 67.054688 178.675781 C 66.117188 179.402344 65.226562 180.09375 63.917969 180.101562 C 63.796875 180.097656 63.714844 180.042969 63.675781 179.929688 C 63.632812 179.816406 63.65625 179.722656 63.75 179.644531 C 65.71875 178.003906 66.378906 175.796875 65.824219 172.695312 C 65.269531 169.59375 63.75 166.90625 62.484375 164.890625 C 61.574219 163.433594 60.460938 161.472656 59.929688 159.234375 C 59.882812 159.019531 59.828125 158.769531 59.785156 158.519531 C 59.117188 154.761719 59.492188 151.578125 60.941406 148.792969 C 60.949219 148.726562 60.945312 148.660156 60.933594 148.59375 C 60.917969 148.5 60.914062 148.410156 60.917969 148.320312 C 60.917969 148.25 60.917969 148.164062 60.917969 148.078125 C 60.90625 147.761719 60.890625 147.4375 61.109375 147.269531 C 61.402344 147.0625 61.949219 146.929688 62.335938 147.078125 C 63.21875 147.414062 64.078125 147.800781 64.917969 148.234375 C 65.25 148.386719 65.460938 148.640625 65.550781 148.996094 C 65.609375 149.203125 65.589844 149.40625 65.492188 149.601562 C 65.398438 149.796875 65.25 149.9375 65.050781 150.019531 L 65.023438 150.035156 C 64.589844 150.21875 64.472656 150.546875 64.320312 150.953125 L 64.285156 151.050781 C 64.082031 151.621094 63.917969 152.152344 63.789062 152.667969 C 62.722656 156.753906 63.371094 160.664062 65.714844 164.300781 C 67.824219 167.589844 68.679688 171.292969 68.246094 175.316406 C 68.195312 175.691406 68.121094 176.058594 68.019531 176.421875 L 68.734375 175.886719 C 70.160156 174.820312 71.582031 173.753906 73.003906 172.6875 C 72.980469 172.917969 72.957031 173.148438 72.941406 173.382812 L 69.042969 176.300781 L 67.753906 177.265625 C 67.660156 177.335938 67.558594 177.339844 67.460938 177.277344 C 67.355469 177.210938 67.320312 177.121094 67.347656 177.003906 C 67.402344 176.761719 67.457031 176.539062 67.507812 176.335938 C 67.605469 175.980469 67.675781 175.617188 67.71875 175.253906 Z M 67.71875 175.253906 " fill-opacity="1" fill-rule="nonzero"/><path fill="#020000" d="M 86.058594 130.371094 C 85.507812 130.867188 84.945312 131.320312 84.453125 131.703125 C 82.625 133.128906 80.433594 134.136719 77.953125 134.699219 C 77.410156 134.816406 76.875 134.964844 76.347656 135.136719 L 76.324219 135.144531 C 75.210938 135.515625 74.160156 136.015625 73.175781 136.65625 C 72.207031 137.28125 71.339844 138.023438 70.566406 138.882812 C 69.039062 140.578125 68.132812 142.015625 67.625 143.550781 C 67.5625 143.800781 67.5625 144.054688 67.625 144.304688 C 67.714844 144.734375 67.609375 145.136719 67.335938 145.382812 C 67.15625 145.546875 66.941406 145.625 66.699219 145.621094 C 66.574219 145.621094 66.457031 145.601562 66.339844 145.566406 C 65.394531 145.269531 64.433594 144.90625 63.472656 144.511719 C 63.175781 144.394531 62.835938 143.945312 62.867188 143.601562 C 62.878906 143.320312 63.085938 143.082031 63.261719 142.875 C 63.304688 142.828125 63.351562 142.777344 63.394531 142.730469 C 63.472656 142.636719 63.558594 142.558594 63.65625 142.484375 C 63.730469 142.433594 63.796875 142.371094 63.847656 142.292969 C 64.667969 139.65625 66.289062 137.425781 68.941406 135.304688 C 70.917969 133.714844 73.265625 132.648438 76.3125 131.953125 C 79.628906 131.195312 82.125 130.164062 84.15625 128.714844 C 84.472656 128.492188 84.75 128.277344 84.992188 128.066406 C 85.066406 128.230469 85.136719 128.394531 85.210938 128.558594 C 84.984375 128.746094 84.738281 128.9375 84.457031 129.136719 C 82.367188 130.628906 79.8125 131.683594 76.417969 132.457031 C 73.449219 133.136719 71.175781 134.167969 69.253906 135.707031 C 66.6875 137.769531 65.125 139.917969 64.332031 142.449219 C 64.257812 142.628906 64.136719 142.777344 63.972656 142.886719 C 63.90625 142.933594 63.847656 142.988281 63.792969 143.050781 C 63.75 143.105469 63.703125 143.160156 63.652344 143.21875 C 63.53125 143.347656 63.390625 143.523438 63.378906 143.636719 C 63.417969 143.808594 63.511719 143.945312 63.664062 144.039062 C 64.617188 144.433594 65.5625 144.785156 66.488281 145.078125 C 66.667969 145.148438 66.832031 145.125 66.984375 145.007812 C 67.136719 144.835938 67.179688 144.636719 67.113281 144.417969 C 67.035156 144.078125 67.035156 143.738281 67.125 143.398438 C 67.652344 141.785156 68.597656 140.289062 70.175781 138.542969 C 71.820312 136.722656 73.808594 135.429688 76.140625 134.664062 C 76.148438 134.664062 76.15625 134.660156 76.164062 134.65625 C 76.691406 134.480469 77.253906 134.328125 77.832031 134.195312 C 80.242188 133.65625 82.359375 132.683594 84.125 131.300781 C 84.648438 130.898438 85.25 130.417969 85.824219 129.886719 L 85.84375 129.925781 C 85.917969 130.074219 85.988281 130.222656 86.058594 130.371094 Z M 86.058594 130.371094 " fill-opacity="1" fill-rule="nonzero"/><path fill="#020000" d="M 111.605469 135.160156 C 111.589844 135.191406 111.570312 135.226562 111.550781 135.257812 C 110.84375 136.429688 109.980469 137.46875 108.957031 138.378906 C 108.28125 138.984375 107.707031 139.367188 107.113281 139.613281 C 106.644531 139.816406 106.15625 139.921875 105.644531 139.925781 C 105.375 139.925781 105.109375 139.890625 104.847656 139.820312 C 104.421875 139.703125 103.808594 139.398438 103.480469 138.925781 C 103.398438 138.8125 103.34375 138.6875 103.324219 138.546875 C 103.363281 138.570312 103.410156 138.589844 103.453125 138.601562 C 103.519531 138.625 103.589844 138.632812 103.65625 138.632812 C 103.734375 138.632812 103.808594 138.621094 103.882812 138.59375 C 103.890625 138.609375 103.898438 138.621094 103.90625 138.632812 C 104.136719 138.964844 104.625 139.226562 104.984375 139.324219 C 105.648438 139.484375 106.289062 139.421875 106.910156 139.140625 C 107.453125 138.914062 107.976562 138.5625 108.613281 137.996094 C 109.464844 137.230469 110.207031 136.371094 110.835938 135.414062 C 111.074219 135.339844 111.308594 135.257812 111.542969 135.179688 Z M 111.605469 135.160156 " fill-opacity="1" fill-rule="nonzero"/><path fill="#020000" d="M 107.804688 135.980469 C 107.714844 136.011719 107.628906 136.046875 107.542969 136.085938 C 106.582031 136.480469 105.6875 136.992188 104.863281 137.621094 C 104.925781 137.519531 104.984375 137.417969 105.042969 137.3125 C 105.195312 137.015625 105.382812 136.742188 105.605469 136.488281 C 105.863281 136.332031 106.128906 136.183594 106.398438 136.046875 C 106.773438 135.976562 107.148438 135.953125 107.527344 135.976562 C 107.621094 135.980469 107.714844 135.980469 107.804688 135.980469 Z M 107.804688 135.980469 " fill-opacity="1" fill-rule="nonzero"/><path fill="#020000" d="M 110.179688 150.730469 C 108.378906 153.15625 104.726562 154.535156 101.910156 155.019531 C 100.457031 155.269531 98.960938 155.378906 97.515625 155.484375 C 96.121094 155.582031 94.675781 155.6875 93.28125 155.921875 C 90.953125 156.304688 87.785156 157.273438 85.921875 159.695312 C 84.585938 161.421875 84.066406 163.679688 83.613281 165.671875 C 82.171875 171.898438 80.726562 178.128906 79.289062 184.367188 C 79.253906 184.496094 79.171875 184.5625 79.035156 184.566406 C 79.015625 184.566406 78.996094 184.566406 78.976562 184.566406 C 78.8125 184.523438 78.75 184.421875 78.785156 184.253906 L 83.101562 165.550781 C 83.574219 163.507812 84.105469 161.191406 85.503906 159.375 C 87.0625 157.351562 89.722656 155.980469 93.191406 155.40625 C 94.613281 155.171875 96.0625 155.0625 97.472656 154.964844 C 98.902344 154.859375 100.382812 154.753906 101.824219 154.503906 C 104.492188 154.046875 107.933594 152.765625 109.675781 150.53125 L 108.191406 146.753906 C 108.390625 146.800781 108.585938 146.839844 108.792969 146.867188 L 110.210938 150.476562 C 110.246094 150.566406 110.234375 150.652344 110.179688 150.730469 Z M 110.179688 150.730469 " fill-opacity="1" fill-rule="nonzero"/><path fill="#020000" d="M 124.890625 122.707031 C 124.878906 122.671875 124.871094 122.636719 124.859375 122.601562 C 124.878906 122.632812 124.890625 122.667969 124.890625 122.707031 Z M 124.890625 122.707031 " fill-opacity="1" fill-rule="nonzero"/><path fill="#020000" d="M 124.890625 122.714844 C 124.878906 122.675781 124.871094 122.640625 124.859375 122.605469 C 123.921875 119.3125 122.34375 116.359375 120.132812 113.742188 C 116.679688 109.707031 112.773438 108.667969 107.832031 107.351562 L 106.699219 107.042969 C 104.207031 106.375 102.320312 106.210938 100.582031 106.519531 C 98.3125 106.921875 96.964844 108.253906 95.847656 109.636719 C 93.292969 112.785156 92.207031 117.15625 93.078125 120.773438 C 93.546875 122.703125 94.347656 124.558594 95.125 126.347656 C 95.898438 128.140625 96.6875 129.964844 97.144531 131.859375 C 97.960938 135.238281 99.789062 138.175781 101.554688 141.019531 C 101.828125 141.457031 102.101562 141.894531 102.371094 142.335938 C 103.601562 144.347656 105.792969 146.175781 108.183594 146.746094 C 108.382812 146.796875 108.578125 146.832031 108.785156 146.863281 C 109.089844 146.910156 109.398438 146.933594 109.707031 146.933594 C 110.285156 146.933594 110.851562 146.851562 111.40625 146.683594 C 115.171875 145.519531 118.679688 143.828125 121.933594 141.609375 C 124.546875 139.832031 125.230469 136.355469 125.65625 133.238281 C 125.714844 132.792969 125.765625 132.34375 125.804688 131.902344 C 125.863281 131.179688 125.890625 130.460938 125.890625 129.742188 C 125.886719 127.351562 125.554688 125.007812 124.890625 122.714844 Z M 125.136719 133.164062 C 124.722656 136.167969 124.082031 139.515625 121.636719 141.175781 C 118.429688 143.371094 114.972656 145.046875 111.261719 146.195312 C 108.839844 146.941406 105.0625 145.746094 102.8125 142.074219 C 102.542969 141.632812 102.269531 141.191406 101.996094 140.75 C 100.25 137.945312 98.449219 135.042969 97.644531 131.746094 C 97.175781 129.804688 96.371094 127.945312 95.59375 126.152344 C 94.835938 124.375 94.042969 122.542969 93.589844 120.660156 C 92.765625 117.238281 93.832031 112.945312 96.25 109.96875 C 97.703125 108.183594 98.976562 107.335938 100.675781 107.03125 C 101.226562 106.933594 101.78125 106.882812 102.34375 106.886719 C 103.566406 106.886719 104.929688 107.101562 106.5625 107.542969 L 107.695312 107.847656 C 112.554688 109.140625 116.386719 110.160156 119.738281 114.074219 C 123.363281 118.300781 125.367188 123.980469 125.371094 129.769531 C 125.371094 130.90625 125.296875 132.035156 125.140625 133.164062 Z M 125.136719 133.164062 " fill-opacity="1" fill-rule="nonzero"/><path fill="#020000" d="M 111.597656 133.886719 C 110.4375 133.335938 109.386719 132.867188 108.25 132.652344 C 107.601562 132.53125 106.800781 132.390625 106.046875 132.652344 C 105.847656 132.71875 105.664062 132.8125 105.5 132.941406 C 105.441406 132.992188 105.386719 133.050781 105.339844 133.109375 C 105.308594 133.148438 105.273438 133.183594 105.238281 133.21875 C 105.035156 133.355469 104.808594 133.429688 104.5625 133.433594 L 104.328125 133.453125 C 103.96875 133.472656 103.601562 133.492188 103.265625 133.6875 C 102.851562 133.921875 102.585938 134.382812 102.488281 135.007812 C 102.410156 135.507812 102.328125 136.070312 102.425781 136.640625 C 102.613281 137.691406 102.914062 138.328125 103.324219 138.550781 C 103.367188 138.574219 103.410156 138.59375 103.457031 138.605469 C 103.523438 138.625 103.589844 138.636719 103.660156 138.636719 C 103.738281 138.636719 103.8125 138.625 103.882812 138.597656 C 104.085938 138.527344 104.257812 138.410156 104.398438 138.253906 C 104.578125 138.0625 104.734375 137.851562 104.863281 137.625 C 104.929688 137.523438 104.988281 137.417969 105.042969 137.316406 C 105.199219 137.019531 105.386719 136.742188 105.609375 136.492188 C 105.699219 136.398438 105.796875 136.316406 105.902344 136.246094 C 106.058594 136.152344 106.222656 136.085938 106.398438 136.046875 C 106.773438 135.980469 107.148438 135.957031 107.53125 135.980469 C 107.621094 135.980469 107.714844 135.980469 107.804688 135.980469 C 107.871094 135.980469 107.9375 135.980469 108.003906 135.980469 C 108.988281 135.957031 109.925781 135.710938 110.839844 135.417969 C 111.078125 135.339844 111.3125 135.261719 111.546875 135.183594 L 111.605469 135.164062 C 111.773438 135.101562 112.101562 134.957031 112.144531 134.621094 C 112.171875 134.417969 112.105469 134.125 111.597656 133.886719 Z M 111.378906 134.691406 C 111.371094 134.695312 111.359375 134.695312 111.351562 134.699219 L 111.316406 134.710938 C 110.242188 135.070312 109.128906 135.433594 107.996094 135.460938 C 107.914062 135.460938 107.839844 135.460938 107.757812 135.460938 C 107.679688 135.460938 107.609375 135.460938 107.535156 135.460938 C 106.875 135.449219 106.207031 135.445312 105.628906 135.808594 C 105.132812 136.125 104.859375 136.597656 104.597656 137.058594 C 104.441406 137.359375 104.25 137.636719 104.023438 137.890625 C 103.921875 137.996094 103.78125 138.117188 103.65625 138.117188 C 103.640625 138.117188 103.625 138.113281 103.609375 138.109375 C 103.414062 138.046875 103.125 137.601562 102.9375 136.546875 C 102.851562 136.058594 102.929688 135.566406 103.003906 135.085938 C 103.054688 134.757812 103.183594 134.328125 103.53125 134.128906 C 103.757812 133.996094 104.050781 133.980469 104.363281 133.964844 C 104.441406 133.964844 104.527344 133.957031 104.609375 133.949219 C 104.964844 133.941406 105.285156 133.832031 105.570312 133.621094 C 105.636719 133.566406 105.695312 133.507812 105.746094 133.4375 C 105.773438 133.402344 105.804688 133.371094 105.839844 133.339844 C 105.960938 133.25 106.089844 133.183594 106.234375 133.140625 C 106.855469 132.917969 107.582031 133.054688 108.167969 133.164062 C 109.246094 133.363281 110.261719 133.820312 111.386719 134.355469 C 111.605469 134.457031 111.648438 134.535156 111.648438 134.550781 C 111.648438 134.5625 111.621094 134.609375 111.378906 134.691406 Z M 111.378906 134.691406 " fill-opacity="1" fill-rule="nonzero"/><path fill="#020000" d="M 164.046875 180.480469 C 164.046875 181.011719 164.046875 181.546875 164.046875 182.078125 C 164.078125 187.613281 163.601562 193.097656 162.617188 198.542969 C 162.589844 198.683594 162.503906 198.753906 162.363281 198.753906 C 162.347656 198.757812 162.332031 198.757812 162.316406 198.753906 C 162.148438 198.722656 162.078125 198.625 162.105469 198.457031 C 163.082031 193.042969 163.554688 187.582031 163.519531 182.082031 C 163.519531 181.546875 163.519531 181.011719 163.519531 180.476562 C 163.542969 176.398438 163.5625 172.539062 160.9375 169.265625 C 160.804688 169.089844 160.65625 168.917969 160.488281 168.738281 C 160.355469 168.59375 160.214844 168.449219 160.054688 168.292969 C 158.867188 167.148438 157.371094 166.226562 155.464844 165.476562 C 154.246094 165.007812 153.003906 164.628906 151.738281 164.332031 L 151.695312 164.320312 C 151.300781 164.230469 150.914062 164.136719 150.523438 164.058594 C 150.039062 163.949219 149.550781 163.84375 149.066406 163.742188 C 148.671875 163.65625 148.285156 163.574219 147.894531 163.476562 C 145.949219 163.046875 143.882812 162.53125 141.960938 161.65625 C 136.546875 159.203125 132.179688 153.789062 129.976562 146.804688 C 128.335938 141.570312 126.871094 136.78125 125.804688 131.894531 C 125.863281 131.175781 125.890625 130.453125 125.890625 129.734375 C 126.960938 135.324219 128.601562 140.699219 130.480469 146.644531 C 132.640625 153.484375 136.90625 158.789062 142.1875 161.183594 C 144.0625 162.035156 146.097656 162.546875 148.015625 162.96875 C 148.410156 163.058594 148.792969 163.144531 149.179688 163.226562 L 150.644531 163.542969 C 151.039062 163.628906 151.429688 163.722656 151.824219 163.8125 L 151.863281 163.824219 C 153.160156 164.125 154.425781 164.511719 155.664062 164.988281 C 157.640625 165.765625 159.191406 166.722656 160.425781 167.917969 C 160.59375 168.082031 160.742188 168.234375 160.878906 168.386719 C 161.058594 168.582031 161.214844 168.765625 161.351562 168.945312 C 164.089844 172.359375 164.066406 176.488281 164.046875 180.480469 Z M 164.046875 180.480469 " fill-opacity="1" fill-rule="nonzero"/><path fill="#020000" d="M 96.457031 188.535156 C 96.410156 188.535156 96.367188 188.523438 96.324219 188.5 C 96.179688 188.414062 96.148438 188.292969 96.230469 188.144531 C 97.433594 186.058594 98.34375 183.851562 98.957031 181.523438 C 99.574219 179.195312 99.875 176.828125 99.859375 174.417969 C 99.859375 174.25 99.945312 174.160156 100.117188 174.15625 C 100.191406 174.15625 100.25 174.183594 100.304688 174.234375 C 100.355469 174.285156 100.378906 174.347656 100.378906 174.417969 C 100.394531 176.871094 100.089844 179.285156 99.460938 181.65625 C 98.835938 184.03125 97.90625 186.277344 96.679688 188.40625 C 96.628906 188.488281 96.554688 188.53125 96.457031 188.535156 Z M 96.457031 188.535156 " fill-opacity="1" fill-rule="nonzero"/><path fill="#020000" d="M 150.242188 199.339844 C 150.140625 199.339844 150.066406 199.292969 150.015625 199.207031 C 147.039062 193.894531 146.75 188.507812 146.445312 182.804688 C 146.414062 182.242188 146.382812 181.671875 146.351562 181.101562 C 146.347656 180.933594 146.425781 180.839844 146.597656 180.828125 C 146.667969 180.824219 146.730469 180.84375 146.785156 180.890625 C 146.839844 180.941406 146.867188 181 146.871094 181.070312 C 146.902344 181.644531 146.933594 182.214844 146.964844 182.78125 C 147.265625 188.421875 147.550781 193.753906 150.46875 198.964844 C 150.546875 199.113281 150.511719 199.230469 150.367188 199.316406 C 150.328125 199.332031 150.285156 199.34375 150.242188 199.339844 Z M 150.242188 199.339844 " fill-opacity="1" fill-rule="nonzero"/><path fill="#020000" d="M 176.246094 192.011719 C 174.757812 198.546875 171.21875 204.542969 168.09375 209.835938 C 168.046875 209.921875 167.96875 209.964844 167.871094 209.96875 C 167.824219 209.96875 167.78125 209.957031 167.738281 209.933594 C 167.59375 209.84375 167.5625 209.726562 167.644531 209.578125 C 170.75 204.316406 174.269531 198.355469 175.742188 191.902344 C 177.339844 184.886719 176.085938 178.015625 172.378906 173.519531 C 171.617188 172.628906 170.8125 171.78125 169.960938 170.976562 C 168.355469 169.398438 166.699219 167.777344 165.8125 165.671875 C 164.625 162.828125 165.03125 159.683594 165.433594 156.636719 C 165.5 156.140625 165.5625 155.648438 165.621094 155.160156 C 166.210938 150.152344 164.566406 142.941406 153.371094 137.046875 C 151.894531 136.269531 150.292969 135.570312 148.738281 134.890625 C 145.664062 133.542969 142.484375 132.144531 140.007812 130.058594 C 138.925781 129.167969 138.007812 128.132812 137.257812 126.945312 C 137.214844 126.890625 137.175781 126.828125 137.140625 126.765625 L 137.109375 126.71875 C 135.351562 123.800781 134.980469 120.363281 134.621094 117.035156 C 134.414062 115.125 134.199219 113.148438 133.730469 111.292969 C 131.90625 104.148438 125.820312 98.335938 118.585938 96.832031 C 111.351562 95.332031 103.449219 98.226562 98.921875 104.050781 C 98.882812 104.101562 98.828125 104.136719 98.761719 104.148438 C 94.59375 104.863281 89.039062 106.675781 86.253906 111.273438 C 85.613281 112.339844 85.097656 113.460938 84.695312 114.636719 C 84.296875 115.816406 84.027344 117.019531 83.882812 118.253906 C 83.738281 119.488281 83.726562 120.722656 83.847656 121.960938 C 83.964844 123.195312 84.214844 124.40625 84.589844 125.589844 C 85.046875 126.988281 85.695312 128.367188 86.320312 129.703125 C 86.335938 129.738281 86.351562 129.769531 86.367188 129.804688 C 86.382812 129.835938 86.378906 129.835938 86.386719 129.847656 C 87.480469 132.175781 88.585938 134.585938 88.703125 137.191406 C 88.910156 142.019531 85.835938 146.042969 82.855469 149.9375 C 82.234375 150.75 81.589844 151.589844 80.996094 152.414062 C 80.910156 152.53125 80.828125 152.648438 80.746094 152.769531 C 80.730469 152.789062 80.714844 152.808594 80.703125 152.828125 C 80.507812 153.113281 80.308594 153.398438 80.117188 153.6875 C 80.113281 153.699219 80.105469 153.710938 80.097656 153.71875 C 75.898438 160.113281 73.507812 167.96875 73.3125 176.015625 C 73.113281 184.621094 75.449219 193.117188 79.894531 199.945312 C 79.949219 200.003906 79.976562 200.078125 79.964844 200.160156 C 79.957031 200.242188 79.917969 200.304688 79.847656 200.351562 C 79.777344 200.394531 79.703125 200.40625 79.625 200.378906 C 79.546875 200.355469 79.492188 200.304688 79.460938 200.226562 C 74.960938 193.3125 72.59375 184.710938 72.796875 176.003906 C 72.808594 175.414062 72.835938 174.820312 72.871094 174.230469 C 72.886719 174.003906 72.902344 173.777344 72.921875 173.546875 C 72.921875 173.492188 72.929688 173.429688 72.933594 173.371094 C 72.953125 173.140625 72.976562 172.910156 73 172.679688 C 73.675781 165.8125 75.929688 159.210938 79.515625 153.671875 C 79.609375 153.523438 79.707031 153.375 79.804688 153.230469 C 79.902344 153.082031 80.011719 152.917969 80.117188 152.761719 C 80.222656 152.609375 80.320312 152.472656 80.425781 152.332031 C 80.472656 152.257812 80.523438 152.1875 80.574219 152.113281 C 81.171875 151.285156 81.816406 150.4375 82.445312 149.621094 C 85.363281 145.808594 88.386719 141.855469 88.1875 137.214844 C 88.078125 134.816406 87.125 132.648438 86.0625 130.375 C 85.988281 130.226562 85.921875 130.078125 85.851562 129.925781 L 85.832031 129.886719 C 85.625 129.449219 85.417969 129.007812 85.21875 128.558594 C 85.140625 128.394531 85.070312 128.234375 85 128.066406 C 84.660156 127.3125 84.359375 126.539062 84.101562 125.753906 C 83.710938 124.535156 83.457031 123.289062 83.335938 122.015625 C 83.210938 120.742188 83.222656 119.46875 83.371094 118.199219 C 83.519531 116.929688 83.800781 115.6875 84.210938 114.476562 C 84.621094 113.265625 85.15625 112.109375 85.8125 111.011719 C 88.683594 106.28125 94.320312 104.402344 98.578125 103.65625 C 103.238281 97.738281 111.3125 94.789062 118.703125 96.324219 C 126.128906 97.871094 132.371094 103.832031 134.238281 111.164062 C 134.71875 113.054688 134.9375 115.050781 135.144531 116.980469 C 135.515625 120.402344 135.863281 123.636719 137.558594 126.453125 L 137.589844 126.5 C 137.625 126.554688 137.65625 126.605469 137.691406 126.65625 C 138.417969 127.800781 139.304688 128.804688 140.351562 129.664062 C 142.769531 131.703125 145.917969 133.085938 148.960938 134.417969 C 150.515625 135.101562 152.125 135.804688 153.621094 136.59375 C 165.078125 142.621094 166.753906 150.050781 166.144531 155.222656 C 166.085938 155.714844 166.019531 156.207031 165.957031 156.703125 C 165.558594 159.683594 165.164062 162.757812 166.296875 165.472656 C 167.144531 167.484375 168.691406 169 170.332031 170.601562 C 171.191406 171.417969 172.007812 172.277344 172.78125 173.179688 C 176.589844 177.804688 177.886719 184.84375 176.246094 192.011719 Z M 176.246094 192.011719 " fill-opacity="1" fill-rule="nonzero"/><path fill="#020000" d="M 112.917969 193.90625 C 109.304688 193.90625 105.6875 192.503906 103.1875 189.84375 C 103.121094 189.796875 103.082031 189.730469 103.078125 189.648438 C 103.074219 189.566406 103.101562 189.496094 103.160156 189.441406 C 103.222656 189.386719 103.292969 189.363281 103.375 189.371094 C 103.457031 189.382812 103.519531 189.421875 103.5625 189.492188 C 105.5 191.550781 108.226562 192.886719 111.246094 193.265625 C 114.265625 193.640625 117.238281 193.011719 119.621094 191.492188 C 119.757812 191.441406 119.863281 191.476562 119.941406 191.597656 C 120.019531 191.71875 120.003906 191.828125 119.898438 191.929688 C 117.765625 193.265625 115.4375 193.921875 112.917969 193.90625 Z M 112.917969 193.90625 " fill-opacity="1" fill-rule="nonzero"/><path fill="#020000" d="M 133.160156 194.851562 C 130.6875 194.867188 128.355469 194.300781 126.164062 193.148438 C 126.050781 193.058594 126.027344 192.949219 126.097656 192.820312 C 126.167969 192.691406 126.269531 192.648438 126.410156 192.695312 C 131.28125 195.300781 137.730469 194.761719 142.097656 191.386719 C 142.230469 191.320312 142.339844 191.34375 142.429688 191.457031 C 142.519531 191.574219 142.515625 191.6875 142.417969 191.796875 C 139.804688 193.8125 136.476562 194.851562 133.160156 194.851562 Z M 133.160156 194.851562 " fill-opacity="1" fill-rule="nonzero"/><g clip-path="url(#ff7687a493)"><path fill="#020000" d="M 162.238281 32.46875 C 148.945312 19.203125 131.273438 11.898438 112.476562 11.898438 C 93.683594 11.898438 76.007812 19.203125 62.71875 32.46875 C 49.425781 45.734375 42.105469 63.367188 42.105469 82.121094 L 42.105469 212.308594 C 42.105469 212.441406 42.152344 212.554688 42.246094 212.648438 C 42.339844 212.742188 42.453125 212.789062 42.585938 212.789062 L 182.371094 212.789062 C 182.503906 212.789062 182.617188 212.746094 182.710938 212.648438 C 182.804688 212.554688 182.851562 212.441406 182.851562 212.308594 L 182.851562 82.121094 C 182.847656 63.367188 175.527344 45.730469 162.238281 32.46875 Z M 181.878906 211.832031 L 43.066406 211.832031 L 43.066406 82.121094 C 43.066406 63.621094 50.285156 46.234375 63.398438 33.148438 C 76.511719 20.0625 93.9375 12.859375 112.476562 12.859375 C 131.019531 12.859375 148.445312 20.0625 161.558594 33.148438 C 174.667969 46.230469 181.886719 63.621094 181.886719 82.121094 Z M 181.878906 211.832031 " fill-opacity="1" fill-rule="nonzero"/></g><path fill="#020000" d="M 65.832031 59.722656 C 67.46875 60.230469 68.183594 61.679688 68.523438 63.457031 C 68.878906 61.648438 69.554688 60.613281 71.195312 59.921875 C 70.519531 59.710938 69.449219 58.574219 69.238281 58.226562 C 68.726562 57.394531 68.675781 56.574219 68.554688 55.648438 C 68.140625 57.363281 67.640625 58.929688 65.832031 59.722656 Z M 65.832031 59.722656 " fill-opacity="1" fill-rule="nonzero"/><path fill="#020000" d="M 136.230469 96.082031 C 137.863281 96.589844 138.578125 98.039062 138.917969 99.816406 C 139.273438 98.007812 139.953125 96.972656 141.59375 96.28125 C 140.917969 96.070312 139.847656 94.933594 139.632812 94.585938 C 139.121094 93.753906 139.070312 92.933594 138.949219 92.007812 C 138.535156 93.722656 138.03125 95.292969 136.230469 96.082031 Z M 136.230469 96.082031 " fill-opacity="1" fill-rule="nonzero"/><path fill="#020000" d="M 173.074219 134.050781 C 174.707031 134.558594 175.421875 136.007812 175.761719 137.785156 C 176.117188 135.976562 176.796875 134.941406 178.4375 134.253906 C 177.761719 134.039062 176.6875 132.902344 176.476562 132.554688 C 175.964844 131.722656 175.914062 130.90625 175.792969 129.976562 C 175.382812 131.691406 174.875 133.261719 173.074219 134.050781 Z M 173.074219 134.050781 " fill-opacity="1" fill-rule="nonzero"/><path fill="#020000" d="M 172.984375 165.855469 C 174.621094 166.363281 175.335938 167.8125 175.675781 169.589844 C 176.03125 167.78125 176.707031 166.746094 178.347656 166.058594 C 177.671875 165.84375 176.601562 164.707031 176.390625 164.359375 C 175.878906 163.527344 175.828125 162.707031 175.707031 161.78125 C 175.292969 163.496094 174.789062 165.066406 172.984375 165.855469 Z M 172.984375 165.855469 " fill-opacity="1" fill-rule="nonzero"/><path fill="#020000" d="M 157.3125 77.367188 C 158.949219 77.875 159.664062 79.324219 160.003906 81.101562 C 160.355469 79.292969 161.035156 78.257812 162.675781 77.570312 C 162.003906 77.355469 160.929688 76.21875 160.71875 75.871094 C 160.207031 75.039062 160.15625 74.222656 160.035156 73.292969 C 159.621094 75.011719 159.117188 76.578125 157.3125 77.367188 Z M 157.3125 77.367188 " fill-opacity="1" fill-rule="nonzero"/><path fill="#020000" d="M 60.234375 109.199219 C 61.867188 109.707031 62.582031 111.15625 62.921875 112.933594 C 63.277344 111.125 63.957031 110.089844 65.597656 109.402344 C 64.921875 109.1875 63.847656 108.050781 63.636719 107.703125 C 63.125 106.871094 63.074219 106.050781 62.953125 105.125 C 62.539062 106.839844 62.039062 108.410156 60.234375 109.199219 Z M 60.234375 109.199219 " fill-opacity="1" fill-rule="nonzero"/><path fill="#020000" d="M 73.175781 71.359375 C 74.265625 71.699219 74.738281 72.660156 74.964844 73.84375 C 75.203125 72.640625 75.65625 71.953125 76.746094 71.492188 C 76.296875 71.351562 75.582031 70.59375 75.441406 70.363281 C 75.101562 69.808594 75.066406 69.265625 74.988281 68.652344 C 74.710938 69.78125 74.378906 70.832031 73.175781 71.359375 Z M 73.175781 71.359375 " fill-opacity="1" fill-rule="nonzero"/><path fill="#020000" d="M 58.394531 133.539062 C 59.484375 133.875 59.957031 134.839844 60.183594 136.023438 C 60.421875 134.820312 60.871094 134.128906 61.964844 133.671875 C 61.515625 133.53125 60.800781 132.773438 60.660156 132.542969 C 60.320312 131.988281 60.285156 131.445312 60.207031 130.824219 C 59.929688 131.96875 59.59375 133.011719 58.394531 133.539062 Z M 58.394531 133.539062 " fill-opacity="1" fill-rule="nonzero"/><path fill="#020000" d="M 93.476562 38.71875 C 94.5625 39.058594 95.039062 40.023438 95.265625 41.207031 C 95.5 40.003906 95.953125 39.3125 97.046875 38.855469 C 96.59375 38.714844 95.882812 37.957031 95.742188 37.726562 C 95.398438 37.171875 95.367188 36.625 95.285156 36.007812 C 95.007812 37.15625 94.675781 38.195312 93.476562 38.71875 Z M 93.476562 38.71875 " fill-opacity="1" fill-rule="nonzero"/><path fill="#020000" d="M 93.410156 204.390625 C 94.496094 204.730469 94.972656 205.691406 95.199219 206.878906 C 95.433594 205.671875 95.886719 204.984375 96.976562 204.523438 C 96.53125 204.382812 95.816406 203.625 95.675781 203.394531 C 95.335938 202.839844 95.300781 202.296875 95.21875 201.683594 C 94.945312 202.820312 94.609375 203.863281 93.410156 204.390625 Z M 93.410156 204.390625 " fill-opacity="1" fill-rule="nonzero"/><path fill="#020000" d="M 136.988281 61.203125 C 138.078125 61.542969 138.550781 62.507812 138.777344 63.691406 C 139.015625 62.488281 139.464844 61.796875 140.558594 61.339844 C 140.109375 61.199219 139.394531 60.441406 139.253906 60.210938 C 138.914062 59.65625 138.878906 59.109375 138.800781 58.492188 C 138.523438 59.636719 138.1875 60.679688 136.988281 61.203125 Z M 136.988281 61.203125 " fill-opacity="1" fill-rule="nonzero"/><path fill="#020000" d="M 132.433594 27.449219 C 133.523438 27.785156 133.996094 28.75 134.222656 29.933594 C 134.460938 28.730469 134.910156 28.039062 136.003906 27.582031 C 135.554688 27.4375 134.839844 26.683594 134.699219 26.453125 C 134.359375 25.898438 134.324219 25.351562 134.246094 24.734375 C 133.96875 25.878906 133.636719 26.921875 132.433594 27.449219 Z M 132.433594 27.449219 " fill-opacity="1" fill-rule="nonzero"/><path fill="#020000" d="M 91.835938 70.296875 C 91.835938 70.46875 91.773438 70.617188 91.652344 70.738281 C 91.53125 70.863281 91.382812 70.921875 91.210938 70.921875 C 91.035156 70.921875 90.886719 70.863281 90.765625 70.738281 C 90.644531 70.617188 90.582031 70.46875 90.582031 70.296875 C 90.582031 70.125 90.644531 69.976562 90.765625 69.855469 C 90.886719 69.734375 91.035156 69.671875 91.210938 69.671875 C 91.382812 69.671875 91.53125 69.734375 91.652344 69.855469 C 91.773438 69.976562 91.835938 70.125 91.835938 70.296875 Z M 91.835938 70.296875 " fill-opacity="1" fill-rule="nonzero"/><path fill="#020000" d="M 50.257812 67.960938 C 50.257812 68.136719 50.195312 68.28125 50.074219 68.40625 C 49.949219 68.527344 49.804688 68.585938 49.628906 68.585938 C 49.457031 68.585938 49.308594 68.527344 49.1875 68.40625 C 49.066406 68.28125 49.003906 68.136719 49.003906 67.960938 C 49.003906 67.789062 49.066406 67.644531 49.1875 67.519531 C 49.308594 67.398438 49.457031 67.335938 49.628906 67.335938 C 49.804688 67.335938 49.949219 67.398438 50.074219 67.519531 C 50.195312 67.644531 50.257812 67.789062 50.257812 67.960938 Z M 50.257812 67.960938 " fill-opacity="1" fill-rule="nonzero"/><path fill="#020000" d="M 97.675781 67.019531 C 97.675781 67.191406 97.613281 67.339844 97.492188 67.460938 C 97.371094 67.582031 97.222656 67.644531 97.050781 67.644531 C 96.875 67.644531 96.730469 67.582031 96.605469 67.460938 C 96.484375 67.339844 96.421875 67.191406 96.421875 67.019531 C 96.421875 66.847656 96.484375 66.699219 96.605469 66.578125 C 96.730469 66.457031 96.875 66.394531 97.050781 66.394531 C 97.222656 66.394531 97.371094 66.457031 97.492188 66.578125 C 97.613281 66.699219 97.675781 66.847656 97.675781 67.019531 Z M 97.675781 67.019531 " fill-opacity="1" fill-rule="nonzero"/><path fill="#020000" d="M 50.011719 86.335938 C 50.011719 86.507812 49.949219 86.65625 49.828125 86.777344 C 49.707031 86.898438 49.558594 86.960938 49.386719 86.960938 C 49.210938 86.960938 49.066406 86.898438 48.941406 86.777344 C 48.820312 86.65625 48.757812 86.507812 48.757812 86.335938 C 48.757812 86.164062 48.820312 86.015625 48.941406 85.894531 C 49.066406 85.769531 49.210938 85.710938 49.386719 85.710938 C 49.558594 85.710938 49.707031 85.769531 49.828125 85.894531 C 49.949219 86.015625 50.011719 86.164062 50.011719 86.335938 Z M 50.011719 86.335938 " fill-opacity="1" fill-rule="nonzero"/><path fill="#020000" d="M 49.511719 139.871094 C 49.511719 140.042969 49.453125 140.191406 49.328125 140.3125 C 49.207031 140.433594 49.058594 140.496094 48.886719 140.496094 C 48.714844 140.496094 48.566406 140.433594 48.445312 140.3125 C 48.320312 140.191406 48.261719 140.042969 48.261719 139.871094 C 48.261719 139.699219 48.320312 139.550781 48.445312 139.429688 C 48.566406 139.308594 48.714844 139.246094 48.886719 139.246094 C 49.058594 139.246094 49.207031 139.308594 49.328125 139.429688 C 49.453125 139.550781 49.511719 139.699219 49.511719 139.871094 Z M 49.511719 139.871094 " fill-opacity="1" fill-rule="nonzero"/><path fill="#020000" d="M 54.476562 106.214844 C 54.476562 106.390625 54.414062 106.535156 54.292969 106.660156 C 54.171875 106.78125 54.023438 106.839844 53.851562 106.839844 C 53.675781 106.839844 53.53125 106.78125 53.40625 106.660156 C 53.285156 106.535156 53.222656 106.390625 53.222656 106.214844 C 53.222656 106.042969 53.285156 105.898438 53.40625 105.773438 C 53.53125 105.652344 53.675781 105.589844 53.851562 105.589844 C 54.023438 105.589844 54.171875 105.652344 54.292969 105.773438 C 54.414062 105.898438 54.476562 106.042969 54.476562 106.214844 Z M 54.476562 106.214844 " fill-opacity="1" fill-rule="nonzero"/><path fill="#020000" d="M 52.863281 163.261719 C 52.863281 163.433594 52.800781 163.582031 52.679688 163.703125 C 52.554688 163.824219 52.410156 163.886719 52.234375 163.886719 C 52.0625 163.886719 51.914062 163.824219 51.792969 163.703125 C 51.671875 163.582031 51.609375 163.433594 51.609375 163.261719 C 51.609375 163.089844 51.671875 162.941406 51.792969 162.820312 C 51.914062 162.699219 52.0625 162.636719 52.234375 162.636719 C 52.410156 162.636719 52.554688 162.699219 52.679688 162.820312 C 52.800781 162.941406 52.863281 163.089844 52.863281 163.261719 Z M 52.863281 163.261719 " fill-opacity="1" fill-rule="nonzero"/><path fill="#020000" d="M 48.824219 169.203125 C 48.824219 169.378906 48.765625 169.523438 48.640625 169.648438 C 48.519531 169.769531 48.371094 169.828125 48.199219 169.828125 C 48.027344 169.828125 47.878906 169.769531 47.757812 169.648438 C 47.632812 169.523438 47.574219 169.378906 47.574219 169.203125 C 47.574219 169.03125 47.632812 168.886719 47.757812 168.761719 C 47.878906 168.640625 48.027344 168.578125 48.199219 168.578125 C 48.371094 168.578125 48.519531 168.640625 48.640625 168.761719 C 48.765625 168.886719 48.824219 169.03125 48.824219 169.203125 Z M 48.824219 169.203125 " fill-opacity="1" fill-rule="nonzero"/><path fill="#020000" d="M 59.488281 193.386719 C 59.488281 193.558594 59.425781 193.707031 59.304688 193.828125 C 59.183594 193.949219 59.035156 194.011719 58.863281 194.011719 C 58.691406 194.011719 58.542969 193.949219 58.417969 193.828125 C 58.296875 193.707031 58.234375 193.558594 58.234375 193.386719 C 58.234375 193.210938 58.296875 193.066406 58.417969 192.945312 C 58.542969 192.820312 58.691406 192.761719 58.863281 192.761719 C 59.035156 192.761719 59.183594 192.820312 59.304688 192.945312 C 59.425781 193.066406 59.488281 193.210938 59.488281 193.386719 Z M 59.488281 193.386719 " fill-opacity="1" fill-rule="nonzero"/><path fill="#020000" d="M 151.332031 76.328125 C 151.332031 76.5 151.269531 76.648438 151.148438 76.769531 C 151.027344 76.894531 150.878906 76.953125 150.707031 76.953125 C 150.53125 76.953125 150.386719 76.894531 150.261719 76.769531 C 150.140625 76.648438 150.078125 76.5 150.078125 76.328125 C 150.078125 76.15625 150.140625 76.007812 150.261719 75.886719 C 150.386719 75.765625 150.53125 75.703125 150.707031 75.703125 C 150.878906 75.703125 151.027344 75.765625 151.148438 75.886719 C 151.269531 76.007812 151.332031 76.15625 151.332031 76.328125 Z M 151.332031 76.328125 " fill-opacity="1" fill-rule="nonzero"/><path fill="#020000" d="M 56.5 200.066406 C 56.5 200.242188 56.4375 200.386719 56.316406 200.511719 C 56.195312 200.632812 56.046875 200.691406 55.875 200.691406 C 55.699219 200.691406 55.554688 200.632812 55.429688 200.511719 C 55.308594 200.386719 55.246094 200.242188 55.246094 200.066406 C 55.246094 199.894531 55.308594 199.75 55.429688 199.625 C 55.554688 199.503906 55.699219 199.445312 55.875 199.445312 C 56.046875 199.445312 56.195312 199.503906 56.316406 199.625 C 56.4375 199.75 56.5 199.894531 56.5 200.066406 Z M 56.5 200.066406 " fill-opacity="1" fill-rule="nonzero"/><path fill="#020000" d="M 73.980469 201.484375 C 73.980469 201.65625 73.917969 201.800781 73.796875 201.925781 C 73.671875 202.046875 73.527344 202.105469 73.351562 202.105469 C 73.179688 202.105469 73.03125 202.046875 72.910156 201.925781 C 72.789062 201.800781 72.726562 201.65625 72.726562 201.484375 C 72.726562 201.308594 72.789062 201.164062 72.910156 201.039062 C 73.03125 200.917969 73.179688 200.859375 73.351562 200.859375 C 73.527344 200.859375 73.671875 200.917969 73.796875 201.039062 C 73.917969 201.164062 73.980469 201.308594 73.980469 201.484375 Z M 73.980469 201.484375 " fill-opacity="1" fill-rule="nonzero"/><path fill="#020000" d="M 174.125 60.585938 C 174.125 60.761719 174.0625 60.90625 173.941406 61.03125 C 173.816406 61.152344 173.671875 61.210938 173.496094 61.210938 C 173.324219 61.210938 173.175781 61.152344 173.054688 61.03125 C 172.933594 60.90625 172.871094 60.761719 172.871094 60.585938 C 172.871094 60.414062 172.933594 60.269531 173.054688 60.144531 C 173.175781 60.023438 173.324219 59.964844 173.496094 59.964844 C 173.671875 59.964844 173.816406 60.023438 173.941406 60.144531 C 174.0625 60.269531 174.125 60.414062 174.125 60.585938 Z M 174.125 60.585938 " fill-opacity="1" fill-rule="nonzero"/><path fill="#020000" d="M 139.257812 208.941406 C 139.257812 209.117188 139.195312 209.261719 139.074219 209.382812 C 138.949219 209.507812 138.804688 209.566406 138.628906 209.566406 C 138.457031 209.566406 138.308594 209.507812 138.1875 209.382812 C 138.066406 209.261719 138.003906 209.117188 138.003906 208.941406 C 138.003906 208.769531 138.066406 208.621094 138.1875 208.5 C 138.308594 208.378906 138.457031 208.316406 138.628906 208.316406 C 138.804688 208.316406 138.949219 208.378906 139.074219 208.5 C 139.195312 208.621094 139.257812 208.769531 139.257812 208.941406 Z M 139.257812 208.941406 " fill-opacity="1" fill-rule="nonzero"/><path fill="#020000" d="M 152.632812 210.761719 C 152.632812 210.9375 152.570312 211.082031 152.449219 211.207031 C 152.328125 211.328125 152.179688 211.386719 152.007812 211.386719 C 151.832031 211.386719 151.6875 211.328125 151.5625 211.207031 C 151.441406 211.082031 151.378906 210.9375 151.378906 210.761719 C 151.378906 210.589844 151.441406 210.445312 151.5625 210.320312 C 151.6875 210.199219 151.832031 210.136719 152.007812 210.136719 C 152.179688 210.136719 152.328125 210.199219 152.449219 210.320312 C 152.570312 210.445312 152.632812 210.589844 152.632812 210.761719 Z M 152.632812 210.761719 " fill-opacity="1" fill-rule="nonzero"/><path fill="#020000" d="M 147.027344 204.3125 C 147.027344 204.484375 146.964844 204.632812 146.84375 204.753906 C 146.722656 204.878906 146.574219 204.9375 146.402344 204.9375 C 146.230469 204.9375 146.082031 204.878906 145.957031 204.753906 C 145.835938 204.632812 145.773438 204.484375 145.773438 204.3125 C 145.773438 204.140625 145.835938 203.992188 145.957031 203.871094 C 146.082031 203.75 146.230469 203.6875 146.402344 203.6875 C 146.574219 203.6875 146.722656 203.75 146.84375 203.871094 C 146.964844 203.992188 147.027344 204.140625 147.027344 204.3125 Z M 147.027344 204.3125 " fill-opacity="1" fill-rule="nonzero"/><path fill="#020000" d="M 179.714844 141.144531 C 179.714844 141.316406 179.652344 141.464844 179.53125 141.585938 C 179.40625 141.707031 179.261719 141.769531 179.085938 141.769531 C 178.914062 141.769531 178.765625 141.707031 178.644531 141.585938 C 178.523438 141.464844 178.460938 141.316406 178.460938 141.144531 C 178.460938 140.972656 178.523438 140.824219 178.644531 140.703125 C 178.765625 140.578125 178.914062 140.519531 179.085938 140.519531 C 179.261719 140.519531 179.40625 140.578125 179.53125 140.703125 C 179.652344 140.824219 179.714844 140.972656 179.714844 141.144531 Z M 179.714844 141.144531 " fill-opacity="1" fill-rule="nonzero"/><path fill="#020000" d="M 48.390625 208.199219 C 48.390625 208.375 48.328125 208.519531 48.207031 208.644531 C 48.082031 208.765625 47.933594 208.824219 47.761719 208.824219 C 47.589844 208.824219 47.441406 208.765625 47.320312 208.644531 C 47.199219 208.519531 47.136719 208.375 47.136719 208.199219 C 47.136719 208.027344 47.199219 207.882812 47.320312 207.757812 C 47.441406 207.636719 47.589844 207.574219 47.761719 207.574219 C 47.933594 207.574219 48.082031 207.636719 48.207031 207.757812 C 48.328125 207.882812 48.390625 208.027344 48.390625 208.199219 Z M 48.390625 208.199219 " fill-opacity="1" fill-rule="nonzero"/><path fill="#020000" d="M 167.507812 134.796875 C 167.507812 134.972656 167.445312 135.117188 167.324219 135.242188 C 167.203125 135.363281 167.054688 135.421875 166.882812 135.421875 C 166.707031 135.421875 166.558594 135.363281 166.4375 135.242188 C 166.316406 135.117188 166.253906 134.972656 166.253906 134.796875 C 166.253906 134.625 166.316406 134.480469 166.4375 134.355469 C 166.558594 134.234375 166.707031 134.175781 166.882812 134.175781 C 167.054688 134.175781 167.203125 134.234375 167.324219 134.355469 C 167.445312 134.480469 167.507812 134.625 167.507812 134.796875 Z M 167.507812 134.796875 " fill-opacity="1" fill-rule="nonzero"/><path fill="#020000" d="M 180.59375 122.410156 C 180.59375 122.582031 180.53125 122.730469 180.410156 122.851562 C 180.289062 122.972656 180.140625 123.035156 179.96875 123.035156 C 179.792969 123.035156 179.648438 122.972656 179.523438 122.851562 C 179.402344 122.730469 179.339844 122.582031 179.339844 122.410156 C 179.339844 122.238281 179.402344 122.089844 179.523438 121.96875 C 179.648438 121.847656 179.792969 121.785156 179.96875 121.785156 C 180.140625 121.785156 180.289062 121.847656 180.410156 121.96875 C 180.53125 122.089844 180.59375 122.238281 180.59375 122.410156 Z M 180.59375 122.410156 " fill-opacity="1" fill-rule="nonzero"/><path fill="#020000" d="M 178.953125 207.722656 C 178.953125 207.898438 178.890625 208.042969 178.769531 208.167969 C 178.648438 208.289062 178.5 208.347656 178.328125 208.347656 C 178.152344 208.347656 178.003906 208.289062 177.882812 208.167969 C 177.761719 208.042969 177.699219 207.898438 177.699219 207.722656 C 177.699219 207.550781 177.761719 207.40625 177.882812 207.28125 C 178.003906 207.160156 178.152344 207.101562 178.328125 207.101562 C 178.5 207.101562 178.648438 207.160156 178.769531 207.28125 C 178.890625 207.40625 178.953125 207.550781 178.953125 207.722656 Z M 178.953125 207.722656 " fill-opacity="1" fill-rule="nonzero"/><path fill="#020000" d="M 48.335938 125.292969 C 48.335938 125.464844 48.273438 125.613281 48.152344 125.734375 C 48.027344 125.855469 47.882812 125.917969 47.707031 125.917969 C 47.535156 125.917969 47.386719 125.855469 47.265625 125.734375 C 47.144531 125.613281 47.082031 125.464844 47.082031 125.292969 C 47.082031 125.121094 47.144531 124.972656 47.265625 124.851562 C 47.386719 124.730469 47.535156 124.667969 47.707031 124.667969 C 47.882812 124.667969 48.027344 124.730469 48.152344 124.851562 C 48.273438 124.972656 48.335938 125.121094 48.335938 125.292969 Z M 48.335938 125.292969 " fill-opacity="1" fill-rule="nonzero"/><path fill="#020000" d="M 73.683594 113.246094 C 73.683594 113.421875 73.621094 113.566406 73.5 113.691406 C 73.375 113.8125 73.230469 113.871094 73.054688 113.871094 C 72.882812 113.871094 72.734375 113.8125 72.613281 113.691406 C 72.492188 113.566406 72.429688 113.421875 72.429688 113.246094 C 72.429688 113.074219 72.492188 112.929688 72.613281 112.804688 C 72.734375 112.683594 72.882812 112.625 73.054688 112.625 C 73.230469 112.625 73.375 112.683594 73.5 112.804688 C 73.621094 112.929688 73.683594 113.074219 73.683594 113.246094 Z M 73.683594 113.246094 " fill-opacity="1" fill-rule="nonzero"/><path fill="#020000" d="M 87.492188 207.605469 C 87.492188 207.777344 87.429688 207.925781 87.308594 208.046875 C 87.183594 208.171875 87.035156 208.230469 86.863281 208.230469 C 86.691406 208.230469 86.542969 208.171875 86.421875 208.046875 C 86.300781 207.925781 86.238281 207.777344 86.238281 207.605469 C 86.238281 207.433594 86.300781 207.285156 86.421875 207.164062 C 86.542969 207.042969 86.691406 206.980469 86.863281 206.980469 C 87.035156 206.980469 87.183594 207.042969 87.308594 207.164062 C 87.429688 207.285156 87.492188 207.433594 87.492188 207.605469 Z M 87.492188 207.605469 " fill-opacity="1" fill-rule="nonzero"/><path fill="#020000" d="M 181.101562 172.398438 C 181.101562 172.574219 181.039062 172.71875 180.917969 172.84375 C 180.796875 172.964844 180.648438 173.023438 180.476562 173.023438 C 180.300781 173.023438 180.15625 172.964844 180.03125 172.84375 C 179.910156 172.71875 179.847656 172.574219 179.847656 172.398438 C 179.847656 172.226562 179.910156 172.082031 180.03125 171.957031 C 180.15625 171.835938 180.300781 171.777344 180.476562 171.777344 C 180.648438 171.777344 180.796875 171.835938 180.917969 171.957031 C 181.039062 172.082031 181.101562 172.226562 181.101562 172.398438 Z M 181.101562 172.398438 " fill-opacity="1" fill-rule="nonzero"/><path fill="#020000" d="M 66.183594 196.53125 C 66.183594 196.703125 66.125 196.851562 66 196.972656 C 65.878906 197.097656 65.730469 197.15625 65.558594 197.15625 C 65.386719 197.15625 65.238281 197.097656 65.117188 196.972656 C 64.992188 196.851562 64.933594 196.703125 64.933594 196.53125 C 64.933594 196.359375 64.992188 196.210938 65.117188 196.089844 C 65.238281 195.96875 65.386719 195.90625 65.558594 195.90625 C 65.730469 195.90625 65.878906 195.96875 66 196.089844 C 66.125 196.210938 66.183594 196.359375 66.183594 196.53125 Z M 66.183594 196.53125 " fill-opacity="1" fill-rule="nonzero"/><path fill="#020000" d="M 47.878906 186.804688 C 47.878906 186.980469 47.816406 187.125 47.695312 187.25 C 47.570312 187.371094 47.425781 187.429688 47.25 187.429688 C 47.078125 187.429688 46.929688 187.371094 46.808594 187.25 C 46.6875 187.125 46.625 186.980469 46.625 186.804688 C 46.625 186.632812 46.6875 186.488281 46.808594 186.363281 C 46.929688 186.242188 47.078125 186.183594 47.25 186.183594 C 47.425781 186.183594 47.570312 186.242188 47.695312 186.363281 C 47.816406 186.488281 47.878906 186.632812 47.878906 186.804688 Z M 47.878906 186.804688 " fill-opacity="1" fill-rule="nonzero"/><path fill="#020000" d="M 72.089844 192.054688 C 72.089844 192.226562 72.027344 192.375 71.90625 192.496094 C 71.785156 192.617188 71.636719 192.679688 71.464844 192.679688 C 71.292969 192.679688 71.144531 192.617188 71.019531 192.496094 C 70.898438 192.375 70.835938 192.226562 70.835938 192.054688 C 70.835938 191.882812 70.898438 191.734375 71.019531 191.613281 C 71.144531 191.492188 71.292969 191.429688 71.464844 191.429688 C 71.636719 191.429688 71.785156 191.492188 71.90625 191.613281 C 72.027344 191.734375 72.089844 191.882812 72.089844 192.054688 Z M 72.089844 192.054688 " fill-opacity="1" fill-rule="nonzero"/><path fill="#020000" d="M 76.648438 122.800781 C 76.648438 122.976562 76.589844 123.121094 76.464844 123.246094 C 76.34375 123.367188 76.195312 123.425781 76.023438 123.425781 C 75.851562 123.425781 75.703125 123.367188 75.582031 123.246094 C 75.457031 123.121094 75.398438 122.976562 75.398438 122.800781 C 75.398438 122.628906 75.457031 122.484375 75.582031 122.359375 C 75.703125 122.238281 75.851562 122.179688 76.023438 122.179688 C 76.195312 122.179688 76.34375 122.238281 76.464844 122.359375 C 76.589844 122.484375 76.648438 122.628906 76.648438 122.800781 Z M 76.648438 122.800781 " fill-opacity="1" fill-rule="nonzero"/><path fill="#020000" d="M 62.871094 93.871094 C 62.871094 94.042969 62.8125 94.191406 62.6875 94.3125 C 62.566406 94.433594 62.417969 94.496094 62.246094 94.496094 C 62.074219 94.496094 61.925781 94.433594 61.804688 94.3125 C 61.679688 94.191406 61.621094 94.042969 61.621094 93.871094 C 61.621094 93.699219 61.679688 93.550781 61.804688 93.429688 C 61.925781 93.304688 62.074219 93.246094 62.246094 93.246094 C 62.417969 93.246094 62.566406 93.304688 62.6875 93.429688 C 62.8125 93.550781 62.871094 93.699219 62.871094 93.871094 Z M 62.871094 93.871094 " fill-opacity="1" fill-rule="nonzero"/><path fill="#020000" d="M 60.671875 71.558594 C 60.671875 71.730469 60.613281 71.878906 60.492188 72 C 60.367188 72.121094 60.21875 72.183594 60.046875 72.183594 C 59.875 72.183594 59.726562 72.121094 59.605469 72 C 59.484375 71.878906 59.421875 71.730469 59.421875 71.558594 C 59.421875 71.386719 59.484375 71.238281 59.605469 71.117188 C 59.726562 70.992188 59.875 70.933594 60.046875 70.933594 C 60.21875 70.933594 60.367188 70.992188 60.492188 71.117188 C 60.613281 71.238281 60.671875 71.386719 60.671875 71.558594 Z M 60.671875 71.558594 " fill-opacity="1" fill-rule="nonzero"/><path fill="#020000" d="M 157.804688 62.132812 C 157.804688 62.304688 157.742188 62.453125 157.621094 62.574219 C 157.496094 62.699219 157.351562 62.757812 157.175781 62.757812 C 157.003906 62.757812 156.855469 62.699219 156.734375 62.574219 C 156.613281 62.453125 156.550781 62.304688 156.550781 62.132812 C 156.550781 61.960938 156.613281 61.8125 156.734375 61.691406 C 156.855469 61.570312 157.003906 61.507812 157.175781 61.507812 C 157.351562 61.507812 157.496094 61.570312 157.621094 61.691406 C 157.742188 61.8125 157.804688 61.960938 157.804688 62.132812 Z M 157.804688 62.132812 " fill-opacity="1" fill-rule="nonzero"/><path fill="#020000" d="M 174.265625 106.828125 C 174.265625 107 174.207031 107.148438 174.082031 107.269531 C 173.960938 107.390625 173.8125 107.453125 173.640625 107.453125 C 173.46875 107.453125 173.320312 107.390625 173.199219 107.269531 C 173.074219 107.148438 173.015625 107 173.015625 106.828125 C 173.015625 106.65625 173.074219 106.507812 173.199219 106.386719 C 173.320312 106.265625 173.46875 106.203125 173.640625 106.203125 C 173.8125 106.203125 173.960938 106.265625 174.082031 106.386719 C 174.207031 106.507812 174.265625 106.65625 174.265625 106.828125 Z M 174.265625 106.828125 " fill-opacity="1" fill-rule="nonzero"/><path fill="#020000" d="M 162.5625 98.820312 C 162.5625 98.992188 162.5 99.140625 162.378906 99.261719 C 162.257812 99.382812 162.109375 99.445312 161.9375 99.445312 C 161.761719 99.445312 161.617188 99.382812 161.492188 99.261719 C 161.371094 99.140625 161.308594 98.992188 161.308594 98.820312 C 161.308594 98.648438 161.371094 98.5 161.492188 98.378906 C 161.617188 98.253906 161.761719 98.195312 161.9375 98.195312 C 162.109375 98.195312 162.257812 98.253906 162.378906 98.378906 C 162.5 98.5 162.5625 98.648438 162.5625 98.820312 Z M 162.5625 98.820312 " fill-opacity="1" fill-rule="nonzero"/><path fill="#020000" d="M 129.242188 77.179688 C 129.242188 77.351562 129.179688 77.5 129.058594 77.621094 C 128.9375 77.742188 128.789062 77.804688 128.617188 77.804688 C 128.441406 77.804688 128.292969 77.742188 128.171875 77.621094 C 128.050781 77.5 127.988281 77.351562 127.988281 77.179688 C 127.988281 77.007812 128.050781 76.859375 128.171875 76.738281 C 128.292969 76.617188 128.441406 76.554688 128.617188 76.554688 C 128.789062 76.554688 128.9375 76.617188 129.058594 76.738281 C 129.179688 76.859375 129.242188 77.007812 129.242188 77.179688 Z M 129.242188 77.179688 " fill-opacity="1" fill-rule="nonzero"/><path fill="#020000" d="M 170.484375 88.648438 C 170.484375 88.820312 170.421875 88.96875 170.300781 89.089844 C 170.175781 89.210938 170.027344 89.273438 169.855469 89.273438 C 169.683594 89.273438 169.535156 89.210938 169.414062 89.089844 C 169.292969 88.96875 169.230469 88.820312 169.230469 88.648438 C 169.230469 88.476562 169.292969 88.328125 169.414062 88.207031 C 169.535156 88.082031 169.683594 88.023438 169.855469 88.023438 C 170.027344 88.023438 170.175781 88.082031 170.300781 88.207031 C 170.421875 88.328125 170.484375 88.476562 170.484375 88.648438 Z M 170.484375 88.648438 " fill-opacity="1" fill-rule="nonzero"/><path fill="#020000" d="M 152.199219 49.769531 C 152.199219 49.941406 152.136719 50.089844 152.015625 50.210938 C 151.890625 50.335938 151.746094 50.394531 151.570312 50.394531 C 151.398438 50.394531 151.25 50.335938 151.128906 50.210938 C 151.007812 50.089844 150.945312 49.941406 150.945312 49.769531 C 150.945312 49.597656 151.007812 49.449219 151.128906 49.328125 C 151.25 49.207031 151.398438 49.144531 151.570312 49.144531 C 151.746094 49.144531 151.890625 49.207031 152.015625 49.328125 C 152.136719 49.449219 152.199219 49.597656 152.199219 49.769531 Z M 152.199219 49.769531 " fill-opacity="1" fill-rule="nonzero"/><path fill="#020000" d="M 117.058594 77.949219 C 117.058594 78.121094 116.996094 78.269531 116.875 78.390625 C 116.753906 78.511719 116.605469 78.574219 116.433594 78.574219 C 116.257812 78.574219 116.109375 78.511719 115.988281 78.390625 C 115.867188 78.269531 115.804688 78.121094 115.804688 77.949219 C 115.804688 77.777344 115.867188 77.628906 115.988281 77.507812 C 116.109375 77.386719 116.257812 77.324219 116.433594 77.324219 C 116.605469 77.324219 116.753906 77.386719 116.875 77.507812 C 116.996094 77.628906 117.058594 77.777344 117.058594 77.949219 Z M 117.058594 77.949219 " fill-opacity="1" fill-rule="nonzero"/><path fill="#020000" d="M 115.023438 96.613281 C 115.023438 96.789062 114.960938 96.933594 114.839844 97.054688 C 114.71875 97.179688 114.570312 97.238281 114.394531 97.238281 C 114.222656 97.238281 114.074219 97.179688 113.953125 97.054688 C 113.832031 96.933594 113.769531 96.789062 113.769531 96.613281 C 113.769531 96.441406 113.832031 96.292969 113.953125 96.171875 C 114.074219 96.050781 114.222656 95.988281 114.394531 95.988281 C 114.570312 95.988281 114.71875 96.050781 114.839844 96.171875 C 114.960938 96.292969 115.023438 96.441406 115.023438 96.613281 Z M 115.023438 96.613281 " fill-opacity="1" fill-rule="nonzero"/><path fill="#020000" d="M 166.707031 52.503906 C 166.707031 52.679688 166.648438 52.824219 166.523438 52.945312 C 166.402344 53.070312 166.253906 53.128906 166.082031 53.128906 C 165.910156 53.128906 165.761719 53.070312 165.640625 52.945312 C 165.515625 52.824219 165.457031 52.679688 165.457031 52.503906 C 165.457031 52.332031 165.515625 52.183594 165.640625 52.0625 C 165.761719 51.941406 165.910156 51.878906 166.082031 51.878906 C 166.253906 51.878906 166.402344 51.941406 166.523438 52.0625 C 166.648438 52.183594 166.707031 52.332031 166.707031 52.503906 Z M 166.707031 52.503906 " fill-opacity="1" fill-rule="nonzero"/><path fill="#020000" d="M 175.019531 79.648438 C 175.019531 79.820312 174.957031 79.96875 174.835938 80.089844 C 174.714844 80.214844 174.566406 80.273438 174.390625 80.273438 C 174.21875 80.273438 174.070312 80.214844 173.949219 80.089844 C 173.828125 79.96875 173.765625 79.820312 173.765625 79.648438 C 173.765625 79.476562 173.828125 79.328125 173.949219 79.207031 C 174.070312 79.085938 174.21875 79.023438 174.390625 79.023438 C 174.566406 79.023438 174.714844 79.085938 174.835938 79.207031 C 174.957031 79.328125 175.019531 79.476562 175.019531 79.648438 Z M 175.019531 79.648438 " fill-opacity="1" fill-rule="nonzero"/><path fill="#020000" d="M 127.648438 69.304688 C 127.648438 69.476562 127.585938 69.621094 127.464844 69.746094 C 127.34375 69.867188 127.195312 69.929688 127.023438 69.929688 C 126.847656 69.929688 126.699219 69.867188 126.578125 69.746094 C 126.457031 69.621094 126.394531 69.476562 126.394531 69.304688 C 126.394531 69.128906 126.457031 68.984375 126.578125 68.859375 C 126.699219 68.738281 126.847656 68.679688 127.023438 68.679688 C 127.195312 68.679688 127.34375 68.738281 127.464844 68.859375 C 127.585938 68.984375 127.648438 69.128906 127.648438 69.304688 Z M 127.648438 69.304688 " fill-opacity="1" fill-rule="nonzero"/><path fill="#020000" d="M 173.574219 156.636719 C 173.574219 156.808594 173.511719 156.957031 173.390625 157.078125 C 173.265625 157.203125 173.121094 157.261719 172.945312 157.261719 C 172.773438 157.261719 172.625 157.203125 172.503906 157.078125 C 172.382812 156.957031 172.320312 156.808594 172.320312 156.636719 C 172.320312 156.464844 172.382812 156.316406 172.503906 156.195312 C 172.625 156.074219 172.773438 156.011719 172.945312 156.011719 C 173.121094 156.011719 173.265625 156.074219 173.390625 156.195312 C 173.511719 156.316406 173.574219 156.464844 173.574219 156.636719 Z M 173.574219 156.636719 " fill-opacity="1" fill-rule="nonzero"/><path fill="#020000" d="M 145.46875 126.921875 C 145.46875 127.09375 145.40625 127.242188 145.285156 127.363281 C 145.160156 127.488281 145.011719 127.546875 144.839844 127.546875 C 144.667969 127.546875 144.519531 127.488281 144.398438 127.363281 C 144.277344 127.242188 144.214844 127.09375 144.214844 126.921875 C 144.214844 126.75 144.277344 126.601562 144.398438 126.480469 C 144.519531 126.359375 144.667969 126.296875 144.839844 126.296875 C 145.011719 126.296875 145.160156 126.359375 145.285156 126.480469 C 145.40625 126.601562 145.46875 126.75 145.46875 126.921875 Z M 145.46875 126.921875 " fill-opacity="1" fill-rule="nonzero"/><path fill="#020000" d="M 159.546875 124.414062 C 159.546875 124.585938 159.484375 124.734375 159.363281 124.855469 C 159.242188 124.976562 159.09375 125.039062 158.921875 125.039062 C 158.75 125.039062 158.601562 124.976562 158.476562 124.855469 C 158.355469 124.734375 158.296875 124.585938 158.296875 124.414062 C 158.296875 124.242188 158.355469 124.09375 158.476562 123.972656 C 158.601562 123.847656 158.75 123.789062 158.921875 123.789062 C 159.09375 123.789062 159.242188 123.847656 159.363281 123.972656 C 159.484375 124.09375 159.546875 124.242188 159.546875 124.414062 Z M 159.546875 124.414062 " fill-opacity="1" fill-rule="nonzero"/><path fill="#020000" d="M 158.128906 110.210938 C 158.128906 110.382812 158.070312 110.53125 157.945312 110.652344 C 157.824219 110.777344 157.675781 110.835938 157.503906 110.835938 C 157.332031 110.835938 157.183594 110.777344 157.0625 110.652344 C 156.9375 110.53125 156.878906 110.382812 156.878906 110.210938 C 156.878906 110.039062 156.9375 109.890625 157.0625 109.769531 C 157.183594 109.648438 157.332031 109.585938 157.503906 109.585938 C 157.675781 109.585938 157.824219 109.648438 157.945312 109.769531 C 158.070312 109.890625 158.128906 110.039062 158.128906 110.210938 Z M 158.128906 110.210938 " fill-opacity="1" fill-rule="nonzero"/><path fill="#020000" d="M 166.410156 112.148438 C 166.410156 112.320312 166.351562 112.464844 166.226562 112.589844 C 166.105469 112.710938 165.957031 112.773438 165.785156 112.773438 C 165.613281 112.773438 165.464844 112.710938 165.34375 112.589844 C 165.21875 112.464844 165.160156 112.320312 165.160156 112.148438 C 165.160156 111.972656 165.21875 111.828125 165.34375 111.703125 C 165.464844 111.582031 165.613281 111.523438 165.785156 111.523438 C 165.957031 111.523438 166.105469 111.582031 166.226562 111.703125 C 166.351562 111.828125 166.410156 111.972656 166.410156 112.148438 Z M 166.410156 112.148438 " fill-opacity="1" fill-rule="nonzero"/><path fill="#020000" d="M 99.738281 82.070312 C 99.738281 82.242188 99.679688 82.390625 99.554688 82.511719 C 99.433594 82.632812 99.285156 82.695312 99.113281 82.695312 C 98.941406 82.695312 98.792969 82.632812 98.671875 82.511719 C 98.546875 82.390625 98.488281 82.242188 98.488281 82.070312 C 98.488281 81.898438 98.546875 81.75 98.671875 81.628906 C 98.792969 81.507812 98.941406 81.445312 99.113281 81.445312 C 99.285156 81.445312 99.433594 81.507812 99.554688 81.628906 C 99.679688 81.75 99.738281 81.898438 99.738281 82.070312 Z M 99.738281 82.070312 " fill-opacity="1" fill-rule="nonzero"/><path fill="#020000" d="M 85.878906 96.757812 C 85.878906 96.933594 85.820312 97.078125 85.695312 97.199219 C 85.574219 97.324219 85.425781 97.382812 85.253906 97.382812 C 85.082031 97.382812 84.933594 97.324219 84.8125 97.199219 C 84.6875 97.078125 84.628906 96.933594 84.628906 96.757812 C 84.628906 96.585938 84.6875 96.441406 84.8125 96.316406 C 84.933594 96.195312 85.082031 96.132812 85.253906 96.132812 C 85.425781 96.132812 85.574219 96.195312 85.695312 96.316406 C 85.820312 96.441406 85.878906 96.585938 85.878906 96.757812 Z M 85.878906 96.757812 " fill-opacity="1" fill-rule="nonzero"/><path fill="#020000" d="M 144.378906 104.113281 C 144.378906 104.285156 144.320312 104.433594 144.195312 104.554688 C 144.074219 104.679688 143.925781 104.738281 143.753906 104.738281 C 143.582031 104.738281 143.433594 104.679688 143.3125 104.554688 C 143.1875 104.433594 143.128906 104.285156 143.128906 104.113281 C 143.128906 103.941406 143.1875 103.792969 143.3125 103.671875 C 143.433594 103.550781 143.582031 103.488281 143.753906 103.488281 C 143.925781 103.488281 144.074219 103.550781 144.195312 103.671875 C 144.320312 103.792969 144.378906 103.941406 144.378906 104.113281 Z M 144.378906 104.113281 " fill-opacity="1" fill-rule="nonzero"/><path fill="#020000" d="M 151.332031 103.425781 C 151.332031 103.601562 151.269531 103.746094 151.148438 103.871094 C 151.027344 103.992188 150.878906 104.050781 150.707031 104.050781 C 150.53125 104.050781 150.386719 103.992188 150.261719 103.871094 C 150.140625 103.746094 150.078125 103.601562 150.078125 103.425781 C 150.078125 103.253906 150.140625 103.109375 150.261719 102.984375 C 150.386719 102.863281 150.53125 102.804688 150.707031 102.804688 C 150.878906 102.804688 151.027344 102.863281 151.148438 102.984375 C 151.269531 103.109375 151.332031 103.253906 151.332031 103.425781 Z M 151.332031 103.425781 " fill-opacity="1" fill-rule="nonzero"/><path fill="#020000" d="M 136.9375 83.207031 C 136.9375 83.378906 136.875 83.527344 136.753906 83.648438 C 136.632812 83.773438 136.484375 83.832031 136.3125 83.832031 C 136.136719 83.832031 135.992188 83.773438 135.867188 83.648438 C 135.746094 83.527344 135.683594 83.378906 135.683594 83.207031 C 135.683594 83.035156 135.746094 82.886719 135.867188 82.765625 C 135.992188 82.644531 136.136719 82.582031 136.3125 82.582031 C 136.484375 82.582031 136.632812 82.644531 136.753906 82.765625 C 136.875 82.886719 136.9375 83.035156 136.9375 83.207031 Z M 136.9375 83.207031 " fill-opacity="1" fill-rule="nonzero"/><path fill="#020000" d="M 148.027344 96.835938 C 148.027344 97.007812 147.964844 97.15625 147.84375 97.277344 C 147.722656 97.398438 147.574219 97.460938 147.402344 97.460938 C 147.226562 97.460938 147.082031 97.398438 146.957031 97.277344 C 146.835938 97.15625 146.773438 97.007812 146.773438 96.835938 C 146.773438 96.664062 146.835938 96.515625 146.957031 96.394531 C 147.082031 96.273438 147.226562 96.210938 147.402344 96.210938 C 147.574219 96.210938 147.722656 96.273438 147.84375 96.394531 C 147.964844 96.515625 148.027344 96.664062 148.027344 96.835938 Z M 148.027344 96.835938 " fill-opacity="1" fill-rule="nonzero"/><path fill="#020000" d="M 121.503906 90.550781 C 121.503906 90.722656 121.445312 90.871094 121.324219 90.992188 C 121.199219 91.113281 121.050781 91.175781 120.878906 91.175781 C 120.707031 91.175781 120.558594 91.113281 120.4375 90.992188 C 120.316406 90.871094 120.253906 90.722656 120.253906 90.550781 C 120.253906 90.378906 120.316406 90.230469 120.4375 90.109375 C 120.558594 89.984375 120.707031 89.925781 120.878906 89.925781 C 121.050781 89.925781 121.199219 89.984375 121.324219 90.109375 C 121.445312 90.230469 121.503906 90.378906 121.503906 90.550781 Z M 121.503906 90.550781 " fill-opacity="1" fill-rule="nonzero"/><path fill="#020000" d="M 133.597656 42.714844 C 133.597656 42.890625 133.535156 43.035156 133.414062 43.160156 C 133.289062 43.28125 133.140625 43.339844 132.96875 43.339844 C 132.796875 43.339844 132.648438 43.28125 132.527344 43.160156 C 132.40625 43.035156 132.34375 42.890625 132.34375 42.714844 C 132.34375 42.542969 132.40625 42.398438 132.527344 42.273438 C 132.648438 42.152344 132.796875 42.089844 132.96875 42.089844 C 133.140625 42.089844 133.289062 42.152344 133.414062 42.273438 C 133.535156 42.398438 133.597656 42.542969 133.597656 42.714844 Z M 133.597656 42.714844 " fill-opacity="1" fill-rule="nonzero"/><path fill="#020000" d="M 155.175781 40 C 155.175781 40.171875 155.113281 40.320312 154.992188 40.441406 C 154.867188 40.5625 154.722656 40.625 154.546875 40.625 C 154.375 40.625 154.226562 40.5625 154.105469 40.441406 C 153.984375 40.320312 153.921875 40.171875 153.921875 40 C 153.921875 39.828125 153.984375 39.679688 154.105469 39.558594 C 154.226562 39.4375 154.375 39.375 154.546875 39.375 C 154.722656 39.375 154.867188 39.4375 154.992188 39.558594 C 155.113281 39.679688 155.175781 39.828125 155.175781 40 Z M 155.175781 40 " fill-opacity="1" fill-rule="nonzero"/><path fill="#020000" d="M 91.285156 57.910156 C 91.285156 58.085938 91.226562 58.230469 91.101562 58.355469 C 90.980469 58.476562 90.832031 58.535156 90.660156 58.535156 C 90.488281 58.535156 90.339844 58.476562 90.21875 58.355469 C 90.09375 58.230469 90.035156 58.085938 90.035156 57.910156 C 90.035156 57.738281 90.09375 57.59375 90.21875 57.46875 C 90.339844 57.347656 90.488281 57.289062 90.660156 57.289062 C 90.832031 57.289062 90.980469 57.347656 91.101562 57.46875 C 91.226562 57.59375 91.285156 57.738281 91.285156 57.910156 Z M 91.285156 57.910156 " fill-opacity="1" fill-rule="nonzero"/><path fill="#020000" d="M 84.601562 28.117188 C 84.601562 28.289062 84.542969 28.4375 84.417969 28.558594 C 84.296875 28.683594 84.148438 28.742188 83.976562 28.742188 C 83.804688 28.742188 83.65625 28.683594 83.535156 28.558594 C 83.410156 28.4375 83.351562 28.289062 83.351562 28.117188 C 83.351562 27.945312 83.410156 27.796875 83.535156 27.675781 C 83.65625 27.554688 83.804688 27.492188 83.976562 27.492188 C 84.148438 27.492188 84.296875 27.554688 84.417969 27.675781 C 84.542969 27.796875 84.601562 27.945312 84.601562 28.117188 Z M 84.601562 28.117188 " fill-opacity="1" fill-rule="nonzero"/><path fill="#020000" d="M 63.394531 40.742188 C 63.394531 40.914062 63.335938 41.0625 63.210938 41.183594 C 63.089844 41.304688 62.941406 41.367188 62.769531 41.367188 C 62.597656 41.367188 62.449219 41.304688 62.328125 41.183594 C 62.203125 41.0625 62.144531 40.914062 62.144531 40.742188 C 62.144531 40.570312 62.203125 40.421875 62.328125 40.300781 C 62.449219 40.179688 62.597656 40.117188 62.769531 40.117188 C 62.941406 40.117188 63.089844 40.179688 63.210938 40.300781 C 63.335938 40.421875 63.394531 40.570312 63.394531 40.742188 Z M 63.394531 40.742188 " fill-opacity="1" fill-rule="nonzero"/><path fill="#020000" d="M 76.269531 92.207031 C 76.269531 92.382812 76.207031 92.527344 76.085938 92.652344 C 75.964844 92.773438 75.816406 92.832031 75.644531 92.832031 C 75.46875 92.832031 75.324219 92.773438 75.199219 92.652344 C 75.078125 92.527344 75.015625 92.382812 75.015625 92.207031 C 75.015625 92.035156 75.078125 91.890625 75.199219 91.765625 C 75.324219 91.644531 75.46875 91.585938 75.644531 91.585938 C 75.816406 91.585938 75.964844 91.644531 76.085938 91.765625 C 76.207031 91.890625 76.269531 92.035156 76.269531 92.207031 Z M 76.269531 92.207031 " fill-opacity="1" fill-rule="nonzero"/><path fill="#020000" d="M 85.550781 89.402344 C 85.550781 89.578125 85.488281 89.722656 85.367188 89.847656 C 85.246094 89.96875 85.097656 90.027344 84.925781 90.027344 C 84.753906 90.027344 84.605469 89.96875 84.480469 89.847656 C 84.359375 89.722656 84.296875 89.578125 84.296875 89.402344 C 84.296875 89.230469 84.359375 89.085938 84.480469 88.960938 C 84.605469 88.839844 84.753906 88.78125 84.925781 88.78125 C 85.097656 88.78125 85.246094 88.839844 85.367188 88.960938 C 85.488281 89.085938 85.550781 89.230469 85.550781 89.402344 Z M 85.550781 89.402344 " fill-opacity="1" fill-rule="nonzero"/><path fill="#020000" d="M 84.398438 102.671875 C 84.398438 102.84375 84.339844 102.992188 84.21875 103.113281 C 84.09375 103.234375 83.945312 103.296875 83.773438 103.296875 C 83.601562 103.296875 83.453125 103.234375 83.332031 103.113281 C 83.207031 102.992188 83.148438 102.84375 83.148438 102.671875 C 83.148438 102.5 83.207031 102.351562 83.332031 102.230469 C 83.453125 102.105469 83.601562 102.046875 83.773438 102.046875 C 83.945312 102.046875 84.09375 102.105469 84.21875 102.230469 C 84.339844 102.351562 84.398438 102.5 84.398438 102.671875 Z M 84.398438 102.671875 " fill-opacity="1" fill-rule="nonzero"/><path fill="#020000" d="M 92.988281 95.019531 C 92.988281 95.191406 92.925781 95.339844 92.804688 95.460938 C 92.683594 95.585938 92.535156 95.644531 92.363281 95.644531 C 92.191406 95.644531 92.042969 95.585938 91.917969 95.460938 C 91.796875 95.339844 91.738281 95.191406 91.738281 95.019531 C 91.738281 94.847656 91.796875 94.699219 91.917969 94.578125 C 92.042969 94.457031 92.191406 94.394531 92.363281 94.394531 C 92.535156 94.394531 92.683594 94.457031 92.804688 94.578125 C 92.925781 94.699219 92.988281 94.847656 92.988281 95.019531 Z M 92.988281 95.019531 " fill-opacity="1" fill-rule="nonzero"/><path fill="#020000" d="M 81.917969 43.691406 C 81.917969 43.863281 81.859375 44.011719 81.734375 44.132812 C 81.613281 44.257812 81.464844 44.316406 81.292969 44.316406 C 81.121094 44.316406 80.972656 44.257812 80.851562 44.132812 C 80.726562 44.011719 80.667969 43.863281 80.667969 43.691406 C 80.667969 43.519531 80.726562 43.371094 80.851562 43.25 C 80.972656 43.128906 81.121094 43.066406 81.292969 43.066406 C 81.464844 43.066406 81.613281 43.128906 81.734375 43.25 C 81.859375 43.371094 81.917969 43.519531 81.917969 43.691406 Z M 81.917969 43.691406 " fill-opacity="1" fill-rule="nonzero"/><path fill="#020000" d="M 113.996094 17.351562 C 113.996094 17.523438 113.933594 17.671875 113.8125 17.792969 C 113.691406 17.914062 113.542969 17.976562 113.371094 17.976562 C 113.195312 17.976562 113.050781 17.914062 112.925781 17.792969 C 112.804688 17.671875 112.742188 17.523438 112.742188 17.351562 C 112.742188 17.179688 112.804688 17.03125 112.925781 16.910156 C 113.050781 16.789062 113.195312 16.726562 113.371094 16.726562 C 113.542969 16.726562 113.691406 16.789062 113.8125 16.910156 C 113.933594 17.03125 113.996094 17.179688 113.996094 17.351562 Z M 113.996094 17.351562 " fill-opacity="1" fill-rule="nonzero"/><path fill="#020000" d="M 104.972656 32.625 C 104.972656 32.800781 104.914062 32.945312 104.792969 33.066406 C 104.667969 33.191406 104.519531 33.25 104.347656 33.25 C 104.175781 33.25 104.027344 33.191406 103.90625 33.066406 C 103.785156 32.945312 103.722656 32.800781 103.722656 32.625 C 103.722656 32.453125 103.785156 32.304688 103.90625 32.183594 C 104.027344 32.0625 104.175781 32 104.347656 32 C 104.519531 32 104.667969 32.0625 104.792969 32.183594 C 104.914062 32.304688 104.972656 32.453125 104.972656 32.625 Z M 104.972656 32.625 " fill-opacity="1" fill-rule="nonzero"/><path fill="#020000" d="M 110.300781 25.3125 C 110.300781 25.484375 110.238281 25.632812 110.117188 25.753906 C 109.992188 25.875 109.847656 25.9375 109.671875 25.9375 C 109.5 25.9375 109.351562 25.875 109.230469 25.753906 C 109.109375 25.632812 109.046875 25.484375 109.046875 25.3125 C 109.046875 25.140625 109.109375 24.992188 109.230469 24.871094 C 109.351562 24.75 109.5 24.6875 109.671875 24.6875 C 109.847656 24.6875 109.992188 24.75 110.117188 24.871094 C 110.238281 24.992188 110.300781 25.140625 110.300781 25.3125 Z M 110.300781 25.3125 " fill-opacity="1" fill-rule="nonzero"/><path fill="#020000" d="M 119.042969 33.46875 C 119.042969 33.640625 118.980469 33.785156 118.859375 33.910156 C 118.734375 34.03125 118.589844 34.09375 118.414062 34.09375 C 118.242188 34.09375 118.09375 34.03125 117.972656 33.910156 C 117.851562 33.785156 117.789062 33.640625 117.789062 33.46875 C 117.789062 33.292969 117.851562 33.148438 117.972656 33.023438 C 118.09375 32.902344 118.242188 32.84375 118.414062 32.84375 C 118.589844 32.84375 118.734375 32.902344 118.859375 33.023438 C 118.980469 33.148438 119.042969 33.292969 119.042969 33.46875 Z M 119.042969 33.46875 " fill-opacity="1" fill-rule="nonzero"/><path fill="#020000" d="M 122.140625 46.078125 L 122.140625 46.070312 C 122.140625 46.035156 122.132812 46 122.121094 45.964844 C 122.121094 45.957031 122.109375 45.953125 122.109375 45.945312 C 122.101562 45.925781 122.089844 45.90625 122.078125 45.890625 C 122.066406 45.871094 122.054688 45.855469 122.039062 45.835938 C 122.023438 45.816406 122.003906 45.800781 121.984375 45.785156 C 121.96875 45.773438 121.953125 45.765625 121.941406 45.757812 C 121.90625 45.738281 121.867188 45.722656 121.828125 45.714844 C 121.808594 45.707031 121.789062 45.703125 121.769531 45.703125 L 112.335938 45.007812 C 112.226562 45.003906 112.128906 45.039062 112.046875 45.113281 C 111.964844 45.1875 111.921875 45.277344 111.914062 45.386719 C 111.90625 45.496094 111.9375 45.59375 112.007812 45.675781 C 112.078125 45.761719 112.167969 45.808594 112.273438 45.820312 L 120.820312 46.449219 L 110.722656 56.527344 L 105.898438 51.757812 C 105.820312 51.679688 105.722656 51.640625 105.609375 51.640625 C 105.496094 51.640625 105.402344 51.679688 105.320312 51.761719 C 105.242188 51.839844 105.203125 51.9375 105.203125 52.046875 C 105.203125 52.160156 105.246094 52.257812 105.324219 52.335938 L 110.144531 57.101562 L 102.226562 65.003906 C 102.097656 65.132812 102.070312 65.28125 102.136719 65.449219 C 102.207031 65.617188 102.332031 65.699219 102.511719 65.699219 C 102.625 65.699219 102.722656 65.660156 102.800781 65.582031 L 110.722656 57.679688 L 115.511719 62.414062 C 115.589844 62.492188 115.6875 62.53125 115.800781 62.53125 C 115.914062 62.53125 116.007812 62.492188 116.089844 62.410156 C 116.167969 62.332031 116.207031 62.234375 116.207031 62.125 C 116.207031 62.011719 116.164062 61.914062 116.085938 61.835938 L 111.296875 57.101562 L 121.394531 47.023438 L 122.03125 55.523438 C 122.042969 55.628906 122.085938 55.71875 122.164062 55.792969 C 122.242188 55.863281 122.332031 55.898438 122.4375 55.902344 L 122.472656 55.902344 C 122.582031 55.890625 122.675781 55.84375 122.75 55.757812 C 122.824219 55.675781 122.855469 55.574219 122.847656 55.464844 Z M 122.140625 46.078125 " fill-opacity="1" fill-rule="nonzero"/></svg>