<svg xmlns="http://www.w3.org/2000/svg" xmlns:xlink="http://www.w3.org/1999/xlink" width="300" zoomAndPan="magnify" viewBox="0 0 224.87999 74.999997" height="100" preserveAspectRatio="xMidYMid meet" version="1.0"><defs><clipPath id="62a764302e"><path d="M 22.191406 20.691406 L 202.84375 20.691406 L 202.84375 54.421875 L 22.191406 54.421875 Z M 22.191406 20.691406 " clip-rule="nonzero"/></clipPath></defs><g clip-path="url(#62a764302e)"><path fill="#ffd200" d="M 202.199219 37.300781 C 201.261719 37.300781 200.320312 37.300781 199.382812 37.300781 C 196.945312 37.300781 194.511719 37.300781 192.074219 37.300781 C 188.714844 37.300781 185.355469 37.300781 181.996094 37.300781 C 178.285156 37.300781 174.578125 37.300781 170.867188 37.300781 C 167.378906 37.300781 163.890625 37.300781 160.402344 37.300781 C 157.707031 37.300781 155.015625 37.300781 152.320312 37.300781 C 150.996094 37.300781 149.667969 37.300781 148.34375 37.300781 C 148.308594 37.300781 148.269531 37.300781 148.234375 37.300781 C 148.21875 37.300781 148.207031 37.300781 148.191406 37.300781 C 147.796875 37.261719 147.40625 37.21875 147.015625 37.167969 C 146.976562 37.160156 146.960938 37.160156 146.957031 37.160156 C 146.957031 37.160156 146.945312 37.15625 146.902344 37.148438 C 146.773438 37.128906 146.644531 37.109375 146.511719 37.089844 C 146.351562 37.066406 146.195312 37.035156 146.035156 37 C 145.3125 36.851562 144.601562 36.671875 143.902344 36.445312 C 143.886719 36.4375 143.875 36.433594 143.859375 36.425781 C 143.832031 36.417969 143.632812 36.339844 143.707031 36.371094 C 143.449219 36.261719 143.183594 36.15625 142.941406 36.019531 C 142.707031 35.886719 142.460938 35.757812 142.246094 35.59375 C 142.167969 35.535156 142.089844 35.476562 142.011719 35.417969 C 142.007812 35.414062 141.917969 35.339844 141.984375 35.398438 C 141.957031 35.375 141.925781 35.351562 141.898438 35.328125 C 141.789062 35.234375 141.675781 35.140625 141.570312 35.042969 C 141.367188 34.859375 141.179688 34.667969 141 34.464844 C 140.847656 34.296875 140.851562 34.300781 140.71875 34.128906 C 140.628906 34.007812 140.542969 33.886719 140.457031 33.765625 C 140.292969 33.527344 140.15625 33.273438 140.019531 33.019531 C 139.949219 32.890625 139.894531 32.753906 139.835938 32.617188 C 139.835938 32.617188 139.835938 32.617188 139.835938 32.613281 C 139.835938 32.609375 139.832031 32.605469 139.828125 32.597656 C 139.8125 32.558594 139.796875 32.515625 139.78125 32.472656 C 139.753906 32.402344 139.726562 32.332031 139.699219 32.261719 C 139.476562 31.5625 139.289062 30.859375 139.140625 30.140625 C 139.070312 29.792969 139.015625 29.445312 138.964844 29.097656 C 138.945312 28.988281 138.929688 28.882812 138.914062 28.777344 C 138.90625 28.714844 138.894531 28.652344 138.886719 28.59375 C 138.882812 28.574219 138.871094 28.460938 138.878906 28.558594 C 138.863281 28.351562 138.847656 28.144531 138.832031 27.9375 C 138.84375 27.804688 138.746094 27.742188 138.644531 27.75 C 138.535156 27.738281 138.429688 27.800781 138.4375 27.9375 C 138.398438 28.328125 138.355469 28.714844 138.304688 29.105469 C 138.300781 29.144531 138.296875 29.160156 138.296875 29.167969 C 138.296875 29.164062 138.296875 29.171875 138.285156 29.222656 C 138.261719 29.351562 138.238281 29.480469 138.214844 29.609375 C 138.183594 29.785156 138.152344 29.964844 138.121094 30.140625 C 137.992188 30.859375 137.777344 31.566406 137.554688 32.257812 C 137.441406 32.558594 137.410156 32.699219 137.253906 32.988281 C 137.125 33.222656 137 33.472656 136.84375 33.695312 C 136.492188 34.199219 136.214844 34.550781 135.753906 34.988281 C 135.03125 35.671875 134.113281 36.183594 133.160156 36.507812 C 132.539062 36.695312 131.910156 36.859375 131.273438 36.988281 C 131.109375 37.023438 130.949219 37.058594 130.785156 37.082031 C 130.667969 37.101562 130.554688 37.117188 130.4375 37.136719 C 130.390625 37.144531 130.34375 37.152344 130.296875 37.160156 C 130.289062 37.160156 130.289062 37.160156 130.289062 37.160156 C 130.285156 37.160156 130.28125 37.160156 130.273438 37.164062 C 129.871094 37.214844 129.46875 37.257812 129.066406 37.300781 C 128.777344 37.273438 128.492188 37.25 128.203125 37.21875 C 128.042969 37.199219 127.886719 37.183594 127.726562 37.164062 C 127.632812 37.15625 127.539062 37.144531 127.449219 37.132812 C 127.421875 37.132812 127.398438 37.128906 127.375 37.125 C 127.371094 37.125 127.371094 37.125 127.367188 37.125 C 126.773438 37.035156 126.179688 36.949219 125.589844 36.835938 C 124.375 36.601562 123.171875 36.304688 121.988281 35.9375 C 121.597656 35.808594 121.210938 35.671875 120.824219 35.507812 C 120.292969 35.285156 119.710938 34.984375 119.144531 34.632812 C 118.128906 34.003906 117.277344 33.269531 116.449219 32.332031 C 116.160156 32.003906 115.957031 31.730469 115.738281 31.429688 C 115.5 31.113281 115.289062 30.78125 115.089844 30.4375 C 114.898438 30.113281 114.734375 29.773438 114.566406 29.4375 C 114.550781 29.410156 114.546875 29.402344 114.546875 29.402344 C 114.527344 29.355469 114.507812 29.304688 114.484375 29.257812 C 114.441406 29.152344 114.398438 29.046875 114.351562 28.941406 C 114.28125 28.773438 114.222656 28.601562 114.15625 28.433594 C 113.804688 27.296875 113.457031 26.15625 113.230469 24.988281 C 112.980469 23.695312 112.804688 22.578125 112.6875 21.335938 C 112.671875 21.183594 112.65625 21.03125 112.644531 20.878906 C 112.65625 20.746094 112.550781 20.683594 112.445312 20.691406 C 112.34375 20.683594 112.238281 20.746094 112.25 20.878906 C 112.222656 21.167969 112.199219 21.460938 112.167969 21.75 C 112.148438 21.921875 112.128906 22.09375 112.109375 22.269531 C 112.101562 22.355469 112.089844 22.441406 112.078125 22.527344 C 112.078125 22.546875 112.078125 22.558594 112.074219 22.566406 C 112.074219 22.574219 112.074219 22.582031 112.070312 22.601562 C 111.980469 23.199219 111.898438 23.800781 111.773438 24.390625 C 111.515625 25.609375 111.234375 26.820312 110.867188 28.011719 C 110.824219 28.152344 110.78125 28.292969 110.738281 28.433594 C 110.527344 28.976562 110.3125 29.46875 110.003906 30.042969 C 109.707031 30.601562 109.367188 31.117188 109 31.636719 C 108.953125 31.707031 108.867188 31.8125 108.757812 31.957031 C 108.667969 32.070312 108.574219 32.179688 108.480469 32.289062 C 108.285156 32.511719 108.089844 32.730469 107.875 32.933594 C 107.636719 33.164062 107.394531 33.386719 107.144531 33.605469 C 107.042969 33.699219 106.929688 33.777344 106.820312 33.863281 C 106.796875 33.878906 106.628906 34.007812 106.699219 33.957031 C 106.621094 34.011719 106.542969 34.070312 106.464844 34.128906 C 105.839844 34.59375 105.175781 34.984375 104.480469 35.332031 C 104.359375 35.390625 104.476562 35.339844 104.351562 35.390625 C 104.234375 35.441406 104.113281 35.492188 103.992188 35.542969 C 103.8125 35.617188 103.628906 35.691406 103.449219 35.761719 C 103.425781 35.769531 103.40625 35.78125 103.386719 35.785156 C 103.382812 35.789062 103.378906 35.789062 103.375 35.789062 C 102.25 36.140625 101.105469 36.492188 99.949219 36.710938 C 99.339844 36.828125 98.734375 36.941406 98.125 37.035156 C 97.933594 37.0625 97.742188 37.089844 97.554688 37.121094 C 97.539062 37.121094 97.527344 37.125 97.519531 37.125 C 97.515625 37.125 97.511719 37.125 97.503906 37.125 C 97.410156 37.136719 97.316406 37.148438 97.21875 37.160156 C 96.914062 37.195312 96.609375 37.226562 96.304688 37.253906 C 96.140625 37.269531 95.976562 37.285156 95.8125 37.300781 C 95.429688 37.261719 95.050781 37.21875 94.671875 37.171875 C 94.640625 37.167969 94.613281 37.164062 94.585938 37.160156 C 94.582031 37.160156 94.570312 37.15625 94.554688 37.15625 C 94.433594 37.136719 94.308594 37.117188 94.183594 37.097656 C 94.007812 37.070312 93.832031 37.035156 93.65625 37 C 92.925781 36.851562 92.210938 36.660156 91.5 36.4375 C 91.492188 36.433594 91.488281 36.433594 91.480469 36.429688 C 91.171875 36.324219 90.890625 36.203125 90.5625 36.019531 C 90.320312 35.882812 90.085938 35.738281 89.859375 35.578125 C 89.78125 35.523438 89.707031 35.464844 89.628906 35.410156 C 89.621094 35.40625 89.542969 35.34375 89.605469 35.398438 C 89.578125 35.375 89.550781 35.351562 89.519531 35.324219 C 89.410156 35.230469 89.300781 35.140625 89.191406 35.042969 C 88.984375 34.855469 88.792969 34.660156 88.613281 34.449219 C 88.394531 34.1875 88.238281 33.992188 88.078125 33.761719 C 87.914062 33.527344 87.78125 33.273438 87.644531 33.019531 C 87.570312 32.890625 87.519531 32.753906 87.460938 32.617188 C 87.460938 32.617188 87.457031 32.617188 87.457031 32.613281 C 87.457031 32.609375 87.457031 32.605469 87.453125 32.597656 C 87.4375 32.554688 87.417969 32.515625 87.402344 32.46875 C 87.375 32.402344 87.347656 32.328125 87.320312 32.257812 C 87.097656 31.5625 86.914062 30.859375 86.765625 30.140625 C 86.730469 29.976562 86.695312 29.816406 86.671875 29.652344 C 86.652344 29.539062 86.636719 29.421875 86.617188 29.304688 C 86.609375 29.257812 86.601562 29.210938 86.59375 29.164062 C 86.59375 29.160156 86.59375 29.160156 86.59375 29.15625 C 86.59375 29.152344 86.59375 29.148438 86.59375 29.144531 C 86.539062 28.742188 86.496094 28.339844 86.453125 27.9375 C 86.46875 27.800781 86.363281 27.742188 86.257812 27.75 C 86.152344 27.742188 86.046875 27.800781 86.0625 27.9375 C 86.019531 28.328125 85.976562 28.71875 85.925781 29.105469 C 85.921875 29.144531 85.921875 29.160156 85.917969 29.167969 C 85.917969 29.164062 85.917969 29.171875 85.90625 29.222656 C 85.886719 29.351562 85.863281 29.480469 85.839844 29.609375 C 85.808594 29.785156 85.773438 29.964844 85.742188 30.140625 C 85.613281 30.859375 85.398438 31.558594 85.195312 32.261719 C 85.078125 32.558594 85.042969 32.675781 84.886719 32.964844 C 84.757812 33.199219 84.636719 33.453125 84.480469 33.675781 C 84.40625 33.78125 84.335938 33.890625 84.253906 33.996094 C 84.199219 34.070312 84.144531 34.144531 84.089844 34.214844 C 84.070312 34.246094 84.046875 34.277344 84.023438 34.304688 C 84.078125 34.234375 84.003906 34.328125 84.003906 34.328125 C 83.804688 34.5625 83.597656 34.777344 83.375 34.988281 C 82.648438 35.671875 81.742188 36.179688 80.792969 36.503906 C 80.160156 36.695312 79.523438 36.859375 78.875 36.996094 C 78.09375 37.160156 77.507812 37.214844 76.6875 37.300781 C 76.671875 37.300781 76.65625 37.300781 76.640625 37.300781 C 75.71875 37.300781 74.792969 37.300781 73.871094 37.300781 C 71.433594 37.300781 68.996094 37.300781 66.5625 37.300781 C 63.203125 37.300781 59.84375 37.300781 56.484375 37.300781 C 52.773438 37.300781 49.0625 37.300781 45.351562 37.300781 C 41.863281 37.300781 38.378906 37.300781 34.890625 37.300781 C 32.195312 37.300781 29.503906 37.300781 26.808594 37.300781 C 25.484375 37.300781 24.15625 37.300781 22.832031 37.300781 C 22.78125 37.300781 22.726562 37.300781 22.675781 37.300781 C 22.421875 37.300781 22.421875 37.691406 22.675781 37.691406 C 23.617188 37.691406 24.554688 37.691406 25.492188 37.691406 C 27.929688 37.691406 30.367188 37.691406 32.800781 37.691406 C 36.160156 37.691406 39.519531 37.691406 42.878906 37.691406 C 46.589844 37.691406 50.300781 37.691406 54.011719 37.691406 C 57.5 37.691406 60.988281 37.691406 64.476562 37.691406 C 67.167969 37.691406 69.863281 37.691406 72.554688 37.691406 C 73.882812 37.691406 75.207031 37.691406 76.535156 37.691406 C 76.570312 37.691406 76.605469 37.691406 76.640625 37.691406 C 76.65625 37.695312 76.671875 37.695312 76.6875 37.691406 C 77.507812 37.777344 78.09375 37.832031 78.878906 38 C 79.40625 38.109375 79.925781 38.246094 80.445312 38.394531 C 80.449219 38.394531 80.449219 38.394531 80.449219 38.394531 C 81.53125 38.710938 82.558594 39.234375 83.375 40.003906 C 83.84375 40.445312 84.121094 40.792969 84.46875 41.3125 C 84.621094 41.542969 84.753906 41.785156 84.886719 42.027344 C 84.953125 42.148438 85.007812 42.277344 85.066406 42.402344 C 85.03125 42.328125 85.113281 42.523438 85.121094 42.554688 C 85.148438 42.621094 85.171875 42.683594 85.195312 42.75 C 85.402344 43.445312 85.613281 44.136719 85.742188 44.851562 C 85.773438 45.015625 85.800781 45.175781 85.832031 45.339844 C 85.851562 45.453125 85.871094 45.570312 85.894531 45.6875 C 85.902344 45.734375 85.910156 45.78125 85.917969 45.828125 C 85.917969 45.835938 85.921875 45.835938 85.921875 45.835938 C 85.921875 45.839844 85.921875 45.84375 85.921875 45.847656 C 85.972656 46.25 86.019531 46.652344 86.0625 47.058594 C 86.046875 47.191406 86.152344 47.25 86.257812 47.242188 C 86.363281 47.25 86.46875 47.191406 86.453125 47.058594 C 86.492188 46.664062 86.539062 46.277344 86.585938 45.886719 C 86.59375 45.847656 86.59375 45.832031 86.59375 45.824219 C 86.59375 45.824219 86.597656 45.816406 86.605469 45.769531 C 86.625 45.640625 86.644531 45.511719 86.664062 45.382812 C 86.6875 45.222656 86.722656 45.0625 86.753906 44.90625 C 86.902344 44.175781 87.089844 43.457031 87.320312 42.75 C 87.433594 42.445312 87.457031 42.3125 87.609375 42.027344 C 87.75 41.773438 87.890625 41.523438 88.050781 41.28125 C 88.21875 41.03125 88.328125 40.882812 88.542969 40.628906 C 88.734375 40.398438 88.929688 40.183594 89.152344 39.984375 C 89.394531 39.769531 89.566406 39.625 89.785156 39.46875 C 90.027344 39.296875 90.273438 39.140625 90.53125 38.992188 C 91.066406 38.6875 91.484375 38.566406 92.0625 38.394531 C 92.070312 38.394531 92.074219 38.390625 92.078125 38.390625 C 92.585938 38.246094 93.089844 38.109375 93.605469 38.003906 C 93.765625 37.96875 93.925781 37.933594 94.089844 37.910156 C 94.222656 37.886719 94.351562 37.871094 94.484375 37.847656 C 94.519531 37.84375 94.558594 37.835938 94.597656 37.832031 C 94.496094 37.847656 94.613281 37.828125 94.628906 37.828125 C 95.023438 37.777344 95.417969 37.730469 95.8125 37.691406 C 96.101562 37.71875 96.398438 37.738281 96.6875 37.773438 C 96.847656 37.792969 97.007812 37.808594 97.164062 37.828125 C 97.257812 37.835938 97.351562 37.847656 97.445312 37.859375 C 97.46875 37.863281 97.492188 37.863281 97.519531 37.867188 C 97.519531 37.867188 97.523438 37.867188 97.527344 37.867188 C 98.125 37.957031 98.726562 38.042969 99.320312 38.164062 C 100.328125 38.375 101.335938 38.601562 102.328125 38.882812 C 102.34375 38.894531 102.363281 38.90625 102.386719 38.914062 C 102.960938 39.066406 103.519531 39.253906 104.070312 39.484375 C 104.597656 39.707031 105.160156 40.027344 105.734375 40.363281 C 105.972656 40.503906 106.199219 40.667969 106.421875 40.832031 C 106.566406 40.9375 106.671875 41.015625 106.742188 41.070312 C 106.867188 41.167969 107 41.261719 107.121094 41.367188 C 107.582031 41.773438 108.042969 42.199219 108.441406 42.667969 C 108.558594 42.808594 108.675781 42.945312 108.789062 43.089844 C 108.960938 43.300781 108.980469 43.324219 109.144531 43.5625 C 109.375 43.886719 109.585938 44.214844 109.789062 44.554688 C 110.1875 45.234375 110.488281 45.917969 110.738281 46.578125 C 111.089844 47.703125 111.40625 48.84375 111.644531 50 C 111.773438 50.605469 111.890625 51.210938 111.984375 51.820312 C 112.011719 52.011719 112.039062 52.203125 112.070312 52.390625 C 112.070312 52.40625 112.074219 52.417969 112.074219 52.425781 C 112.074219 52.429688 112.074219 52.433594 112.074219 52.441406 C 112.085938 52.535156 112.097656 52.628906 112.109375 52.726562 C 112.144531 53.035156 112.175781 53.347656 112.207031 53.660156 C 112.222656 53.8125 112.234375 53.960938 112.25 54.113281 C 112.238281 54.246094 112.339844 54.308594 112.445312 54.300781 C 112.550781 54.308594 112.65625 54.246094 112.640625 54.113281 C 112.761719 52.847656 112.882812 51.84375 113.121094 50.582031 C 113.351562 49.367188 113.65625 48.171875 114.027344 46.988281 C 114.070312 46.851562 114.113281 46.714844 114.15625 46.578125 C 114.390625 45.945312 114.570312 45.515625 114.871094 44.949219 C 115.171875 44.390625 115.511719 43.867188 115.886719 43.355469 C 115.941406 43.289062 116.023438 43.1875 116.132812 43.046875 C 116.226562 42.933594 116.320312 42.824219 116.414062 42.710938 C 116.601562 42.492188 116.796875 42.277344 117 42.074219 C 117.242188 41.832031 117.484375 41.609375 117.746094 41.386719 C 118.015625 41.160156 118.175781 41.039062 118.410156 40.863281 C 119.695312 39.914062 120.960938 39.339844 122.488281 38.914062 C 122.492188 38.914062 122.492188 38.910156 122.496094 38.910156 C 123.304688 38.679688 124.125 38.46875 124.949219 38.292969 C 125.554688 38.167969 126.160156 38.050781 126.769531 37.960938 C 127.386719 37.867188 127.898438 37.800781 128.582031 37.738281 C 128.742188 37.722656 128.902344 37.707031 129.066406 37.691406 C 129.457031 37.734375 129.847656 37.777344 130.238281 37.828125 C 130.277344 37.832031 130.289062 37.832031 130.296875 37.835938 C 130.296875 37.835938 130.308594 37.835938 130.351562 37.84375 C 130.480469 37.863281 130.609375 37.882812 130.742188 37.902344 C 130.917969 37.929688 131.09375 37.96875 131.273438 38.003906 C 131.792969 38.109375 132.308594 38.246094 132.820312 38.390625 C 132.820312 38.394531 132.824219 38.394531 132.828125 38.394531 C 133.394531 38.5625 133.789062 38.6875 134.316406 38.976562 C 134.566406 39.109375 134.808594 39.25 135.039062 39.421875 C 135.117188 39.480469 135.195312 39.539062 135.273438 39.597656 C 135.277344 39.601562 135.277344 39.601562 135.28125 39.605469 C 135.285156 39.605469 135.285156 39.605469 135.289062 39.609375 C 135.320312 39.632812 135.351562 39.660156 135.386719 39.6875 C 135.5 39.777344 135.605469 39.867188 135.710938 39.96875 C 136.183594 40.410156 136.480469 40.765625 136.824219 41.28125 C 136.980469 41.515625 137.117188 41.757812 137.253906 42.007812 C 137.320312 42.132812 137.371094 42.269531 137.425781 42.398438 C 137.398438 42.328125 137.472656 42.527344 137.484375 42.554688 C 137.507812 42.621094 137.53125 42.683594 137.558594 42.75 C 137.78125 43.4375 137.992188 44.140625 138.121094 44.851562 C 138.152344 45.015625 138.179688 45.175781 138.207031 45.339844 C 138.230469 45.453125 138.25 45.570312 138.269531 45.6875 C 138.28125 45.734375 138.289062 45.78125 138.296875 45.828125 C 138.296875 45.835938 138.296875 45.835938 138.300781 45.835938 C 138.300781 45.839844 138.300781 45.84375 138.300781 45.847656 C 138.351562 46.25 138.398438 46.652344 138.4375 47.058594 C 138.429688 47.191406 138.539062 47.253906 138.644531 47.242188 C 138.746094 47.25 138.84375 47.1875 138.832031 47.058594 C 138.886719 46.355469 138.972656 45.671875 139.132812 44.90625 C 139.28125 44.175781 139.46875 43.457031 139.699219 42.75 C 139.8125 42.445312 139.832031 42.3125 139.988281 42.027344 C 140.128906 41.773438 140.269531 41.523438 140.429688 41.28125 C 140.769531 40.773438 141.054688 40.410156 141.53125 39.984375 C 141.96875 39.59375 142.355469 39.308594 142.90625 38.992188 C 143.441406 38.6875 143.859375 38.566406 144.441406 38.394531 C 144.453125 38.390625 144.464844 38.386719 144.476562 38.382812 C 144.976562 38.238281 145.472656 38.109375 145.984375 38.003906 C 146.144531 37.96875 146.304688 37.933594 146.46875 37.910156 C 146.585938 37.890625 146.699219 37.875 146.816406 37.855469 C 146.863281 37.847656 146.910156 37.839844 146.957031 37.832031 C 146.964844 37.832031 146.964844 37.832031 146.964844 37.832031 C 146.96875 37.832031 146.972656 37.832031 146.980469 37.832031 C 147.382812 37.777344 147.785156 37.734375 148.1875 37.691406 C 148.203125 37.695312 148.21875 37.695312 148.234375 37.691406 C 149.15625 37.691406 150.082031 37.691406 151.007812 37.691406 C 153.441406 37.691406 155.878906 37.691406 158.3125 37.691406 C 161.671875 37.691406 165.03125 37.691406 168.390625 37.691406 C 172.101562 37.691406 175.8125 37.691406 179.523438 37.691406 C 183.011719 37.691406 186.5 37.691406 189.988281 37.691406 C 192.679688 37.691406 195.375 37.691406 198.066406 37.691406 C 199.394531 37.691406 200.71875 37.691406 202.046875 37.691406 C 202.097656 37.691406 202.148438 37.691406 202.199219 37.691406 C 202.453125 37.691406 202.453125 37.300781 202.199219 37.300781 Z M 202.199219 37.300781 " fill-opacity="1" fill-rule="nonzero"/></g></svg>