<svg xmlns="http://www.w3.org/2000/svg" xmlns:xlink="http://www.w3.org/1999/xlink" width="300" zoomAndPan="magnify" viewBox="0 0 224.87999 225" height="300" preserveAspectRatio="xMidYMid meet" version="1.0"><defs><clipPath id="ac833498f8"><path d="M 80 107 L 155 107 L 155 214.804688 L 80 214.804688 Z M 80 107 " clip-rule="nonzero"/></clipPath><clipPath id="ee955c966e"><path d="M 71 99 L 132 99 L 132 214.804688 L 71 214.804688 Z M 71 99 " clip-rule="nonzero"/></clipPath><clipPath id="182a857e07"><path d="M 135 126 L 160 126 L 160 214.804688 L 135 214.804688 Z M 135 126 " clip-rule="nonzero"/></clipPath><clipPath id="238f2908cc"><path d="M 84 160 L 101 160 L 101 214.804688 L 84 214.804688 Z M 84 160 " clip-rule="nonzero"/></clipPath><clipPath id="f96a3f040f"><path d="M 40.804688 10.164062 L 183.976562 10.164062 L 183.976562 214.804688 L 40.804688 214.804688 Z M 40.804688 10.164062 " clip-rule="nonzero"/></clipPath></defs><g clip-path="url(#ac833498f8)"><path fill="#020000" d="M 154.410156 205.09375 C 153.804688 199.234375 151.59375 194.125 148.1875 190.710938 C 145.441406 187.960938 141.902344 186.195312 138.476562 184.488281 C 138.019531 184.261719 137.566406 184.035156 137.117188 183.808594 C 136.257812 183.371094 135.339844 182.921875 134.382812 182.457031 C 128.757812 179.695312 121.765625 176.261719 118.128906 171.804688 C 114.066406 166.824219 113.828125 159.917969 114.347656 155 C 114.652344 152.109375 115.246094 149.195312 115.820312 146.386719 C 116.421875 143.417969 117.046875 140.355469 117.339844 137.285156 C 117.824219 132.230469 117.484375 125.128906 113.085938 120.039062 C 112.601562 119.480469 112.074219 118.953125 111.566406 118.445312 C 110.941406 117.839844 110.347656 117.207031 109.792969 116.539062 C 108.886719 115.40625 108.210938 114.152344 107.761719 112.773438 C 107.3125 111.394531 107.121094 109.980469 107.1875 108.53125 C 107.1875 108.398438 107.199219 108.261719 107.210938 108.136719 C 107.164062 108.050781 107.09375 107.992188 107 107.96875 C 106.847656 107.921875 106.691406 107.878906 106.535156 107.84375 C 104.125 107.257812 101.488281 107.574219 99.34375 107.84375 C 93.292969 108.59375 90.101562 113.335938 87.011719 117.921875 L 86.566406 118.574219 C 85.265625 120.5 83.878906 122.820312 83.511719 125.40625 C 83.417969 126.078125 83.335938 126.757812 83.261719 127.417969 C 83.023438 129.398438 82.78125 131.4375 82.136719 133.367188 C 82.007812 133.757812 81.867188 134.136719 81.734375 134.523438 C 81.363281 135.5 81.058594 136.496094 80.8125 137.511719 C 80.390625 139.457031 80.429688 141.511719 80.460938 143.324219 L 80.617188 151.570312 C 80.679688 154.992188 81.363281 157.375 82.703125 158.855469 C 84.074219 160.371094 86.222656 160.714844 88.234375 160.714844 C 89.207031 160.714844 90.148438 160.636719 90.953125 160.566406 C 91.410156 160.527344 91.863281 160.476562 92.3125 160.414062 C 92.554688 160.386719 92.796875 160.351562 93.042969 160.3125 C 95.636719 159.910156 98.164062 159.210938 100.730469 158.464844 C 102.871094 157.832031 104.960938 157.191406 106.933594 156.28125 C 107.148438 156.183594 107.367188 156.082031 107.589844 155.984375 C 109.195312 155.257812 110.863281 154.511719 112.089844 153.265625 C 113.085938 152.226562 113.863281 151.042969 114.417969 149.714844 C 114.097656 151.4375 113.8125 153.183594 113.628906 154.925781 C 113.09375 159.976562 113.347656 167.085938 117.570312 172.261719 C 121.304688 176.839844 128.382812 180.316406 134.066406 183.105469 C 135.015625 183.570312 135.933594 184.019531 136.789062 184.453125 C 137.242188 184.683594 137.699219 184.90625 138.152344 185.136719 C 141.527344 186.816406 145.015625 188.558594 147.675781 191.222656 C 150.964844 194.519531 153.101562 199.472656 153.691406 205.167969 C 153.988281 208.035156 153.90625 210.945312 153.640625 213.824219 C 153.613281 214.152344 153.582031 214.476562 153.546875 214.804688 L 154.273438 214.804688 C 154.304688 214.476562 154.339844 214.152344 154.367188 213.824219 C 154.628906 210.929688 154.707031 207.992188 154.410156 205.09375 Z M 111.582031 152.746094 C 110.445312 153.890625 108.84375 154.613281 107.296875 155.316406 C 107.070312 155.414062 106.855469 155.511719 106.636719 155.617188 C 104.710938 156.503906 102.648438 157.136719 100.53125 157.757812 C 97.320312 158.699219 94.171875 159.558594 90.894531 159.835938 C 88.5625 160.035156 85.035156 160.339844 83.242188 158.359375 C 82.027344 157.019531 81.40625 154.789062 81.34375 151.546875 L 81.191406 143.296875 C 81.160156 141.523438 81.117188 139.515625 81.527344 137.652344 C 81.765625 136.667969 82.0625 135.703125 82.421875 134.753906 C 82.554688 134.363281 82.6875 133.976562 82.820312 133.585938 C 83.492188 131.589844 83.738281 129.507812 83.980469 127.496094 C 84.058594 126.839844 84.136719 126.15625 84.230469 125.5 C 84.578125 123.0625 85.90625 120.835938 87.167969 118.976562 L 87.605469 118.324219 C 90.605469 113.871094 93.703125 109.269531 99.421875 108.554688 C 101.539062 108.304688 104.148438 107.984375 106.453125 108.570312 C 106.394531 110.09375 106.605469 111.582031 107.082031 113.03125 C 107.558594 114.480469 108.273438 115.800781 109.222656 116.992188 C 109.796875 117.679688 110.40625 118.332031 111.046875 118.957031 C 111.546875 119.457031 112.066406 119.972656 112.53125 120.511719 C 114.59375 122.898438 115.726562 125.761719 116.289062 128.632812 L 116.289062 128.667969 C 116.523438 132.851562 116.386719 136.65625 115.863281 140.300781 L 115.792969 140.792969 C 115.222656 144.796875 114.511719 149.773438 111.582031 152.746094 Z M 111.582031 152.746094 " fill-opacity="1" fill-rule="nonzero"/></g><g clip-path="url(#ee955c966e)"><path fill="#020000" d="M 131.953125 107.277344 C 131.511719 107.277344 131.085938 107.261719 130.667969 107.238281 C 127.9375 105.300781 125.089844 103.941406 122.199219 103.1875 C 117.070312 101.847656 111.847656 102.519531 107.867188 105.019531 C 107.769531 105.082031 107.664062 105.09375 107.554688 105.058594 C 107.445312 105.019531 107.371094 104.945312 107.332031 104.835938 C 106.285156 101.808594 102.628906 100.492188 99.664062 100.554688 C 97.574219 100.59375 95.429688 101.261719 93.101562 102.589844 C 92.347656 103.019531 91.617188 103.488281 90.910156 103.992188 C 85.007812 108.179688 81.066406 113.921875 80.097656 119.75 C 80.050781 120.019531 80.019531 120.289062 79.984375 120.554688 L 79.984375 120.574219 C 79.984375 120.597656 79.984375 120.621094 79.976562 120.648438 C 79.730469 122.652344 79.769531 124.738281 79.808594 126.746094 C 79.859375 129.585938 79.910156 132.511719 79.183594 135.324219 C 78.640625 137.433594 77.671875 139.414062 76.734375 141.332031 C 75.785156 143.277344 74.800781 145.285156 74.289062 147.398438 C 73.710938 149.792969 73.722656 152.183594 74.324219 154.574219 C 74.777344 156.359375 75.570312 158.089844 76.34375 159.761719 C 77.359375 161.964844 78.40625 164.242188 78.710938 166.699219 C 79.253906 171.0625 77.523438 175.0625 75.847656 178.929688 C 75.101562 180.65625 74.328125 182.441406 73.792969 184.199219 C 72.976562 186.871094 72.648438 189.601562 72.800781 192.386719 C 72.914062 194.097656 73.644531 195.59375 74.421875 197.183594 C 75.097656 198.570312 75.796875 199.996094 76.050781 201.585938 C 76.488281 204.316406 75.492188 207.015625 74.703125 208.8125 C 74.386719 209.539062 74.035156 210.269531 73.695312 210.976562 C 73.246094 211.902344 72.789062 212.851562 72.398438 213.828125 C 72.261719 214.152344 72.140625 214.476562 72.027344 214.808594 L 71.269531 214.808594 C 71.375 214.476562 71.488281 214.152344 71.617188 213.828125 C 72.039062 212.738281 72.546875 211.683594 73.042969 210.660156 C 73.382812 209.960938 73.730469 209.238281 74.042969 208.515625 C 75.234375 205.792969 75.648438 203.628906 75.335938 201.695312 C 75.101562 200.21875 74.425781 198.832031 73.773438 197.496094 C 73 195.914062 72.199219 194.28125 72.078125 192.425781 C 71.917969 189.550781 72.261719 186.738281 73.101562 183.984375 C 73.652344 182.179688 74.429688 180.378906 75.1875 178.636719 C 76.820312 174.851562 78.511719 170.945312 77.992188 166.78125 C 77.699219 164.433594 76.675781 162.207031 75.6875 160.058594 C 74.902344 158.355469 74.09375 156.589844 73.621094 154.742188 C 72.992188 152.238281 72.976562 149.730469 73.582031 147.21875 C 74.117188 145.03125 75.121094 142.984375 76.085938 141.007812 C 77.007812 139.128906 77.960938 137.175781 78.488281 135.136719 C 79.183594 132.429688 79.132812 129.546875 79.082031 126.757812 C 79.050781 124.84375 79.015625 122.871094 79.214844 120.933594 C 79.230469 120.796875 79.246094 120.664062 79.261719 120.53125 L 79.269531 120.46875 C 79.277344 120.382812 79.292969 120.296875 79.300781 120.214844 C 79.328125 120.019531 79.355469 119.824219 79.390625 119.628906 C 80.402344 113.523438 84.34375 107.761719 90.496094 103.402344 C 91.175781 102.917969 91.804688 102.503906 92.414062 102.148438 C 92.527344 102.085938 92.636719 102.015625 92.746094 101.960938 C 92.851562 101.90625 92.949219 101.84375 93.050781 101.789062 C 95.367188 100.511719 97.527344 99.867188 99.652344 99.828125 L 99.851562 99.828125 C 102.894531 99.828125 106.550781 101.179688 107.851562 104.183594 C 111.945312 101.773438 117.210938 101.144531 122.375 102.488281 C 125.671875 103.34375 128.882812 104.957031 131.953125 107.277344 Z M 131.953125 107.277344 " fill-opacity="1" fill-rule="nonzero"/></g><g clip-path="url(#182a857e07)"><path fill="#020000" d="M 157.878906 213.824219 C 157.796875 214.152344 157.710938 214.480469 157.625 214.804688 L 156.875 214.804688 C 156.964844 214.484375 157.050781 214.152344 157.136719 213.824219 C 158.796875 207.359375 159.679688 199.421875 156.136719 194.457031 C 154.46875 192.121094 152.140625 190.289062 149.886719 188.523438 C 149.269531 188.035156 148.632812 187.535156 148.011719 187.03125 C 138.808594 179.476562 136.386719 172.132812 135.984375 167.296875 C 135.515625 161.757812 137.34375 156.386719 139.113281 151.191406 C 140.09375 148.308594 141.109375 145.328125 141.722656 142.347656 C 142.597656 138.0625 142.765625 133.203125 142.25 127.058594 C 142.230469 126.835938 142.214844 126.613281 142.191406 126.390625 C 142.425781 126.285156 142.65625 126.175781 142.882812 126.058594 C 142.917969 126.375 142.949219 126.695312 142.96875 127.003906 C 143.492188 133.214844 143.320312 138.136719 142.433594 142.496094 C 141.8125 145.523438 140.789062 148.527344 139.800781 151.433594 C 138.058594 156.554688 136.25 161.851562 136.710938 167.246094 C 137.105469 171.933594 139.46875 179.085938 148.480469 186.476562 C 149.089844 186.980469 149.722656 187.476562 150.335938 187.960938 C 152.628906 189.761719 155 191.621094 156.730469 194.042969 C 160.386719 199.167969 159.542969 207.238281 157.878906 213.824219 Z M 157.878906 213.824219 " fill-opacity="1" fill-rule="nonzero"/></g><path fill="#020000" d="M 86.171875 151.761719 L 85.949219 151.761719 C 85.566406 151.769531 85.191406 151.730469 84.820312 151.640625 C 84.214844 151.496094 83.667969 151.234375 83.175781 150.855469 C 82.898438 150.617188 82.664062 150.347656 82.464844 150.039062 C 82.085938 149.457031 81.855469 147.996094 82.621094 147.433594 L 82.648438 147.414062 C 82.722656 147.359375 82.808594 147.335938 82.90625 147.347656 C 83 147.359375 83.078125 147.402344 83.136719 147.472656 C 83.199219 147.546875 83.226562 147.628906 83.222656 147.726562 C 83.21875 147.820312 83.179688 147.898438 83.113281 147.964844 C 83.089844 147.988281 83.070312 148.003906 83.042969 148.019531 C 82.71875 148.269531 82.816406 149.257812 83.066406 149.640625 C 83.21875 149.878906 83.402344 150.09375 83.617188 150.285156 C 84.03125 150.601562 84.492188 150.820312 85.003906 150.941406 C 85.316406 151.015625 85.632812 151.046875 85.953125 151.039062 C 87.074219 151.074219 88.175781 150.945312 89.257812 150.65625 C 90.058594 150.449219 90.808594 150.117188 91.503906 149.664062 L 91.429688 149.636719 C 91.335938 149.601562 91.242188 149.578125 91.144531 149.5625 L 91.101562 149.554688 L 90.964844 149.519531 C 89.402344 149.335938 87.351562 149.039062 85.375 148.367188 L 85.171875 148.292969 C 84.988281 148.226562 84.769531 148.148438 84.546875 148.074219 C 84.449219 148.042969 84.378906 147.984375 84.335938 147.894531 C 84.289062 147.804688 84.28125 147.714844 84.3125 147.617188 C 84.34375 147.523438 84.402344 147.453125 84.492188 147.40625 C 84.582031 147.363281 84.675781 147.355469 84.769531 147.386719 C 85.003906 147.460938 85.226562 147.542969 85.417969 147.613281 L 85.609375 147.679688 C 87.523438 148.328125 89.523438 148.617188 91.054688 148.800781 C 91.125 148.808594 91.195312 148.828125 91.265625 148.847656 C 91.402344 148.871094 91.539062 148.90625 91.667969 148.953125 C 91.761719 148.988281 91.855469 149.011719 91.953125 149.027344 C 92.078125 149.039062 92.1875 149.078125 92.289062 149.144531 C 92.445312 149.164062 92.550781 149.246094 92.605469 149.390625 C 92.660156 149.53125 92.636719 149.660156 92.53125 149.769531 C 92.511719 149.792969 92.488281 149.816406 92.464844 149.835938 C 91.699219 150.503906 90.75 150.988281 89.464844 151.359375 C 88.386719 151.648438 87.289062 151.78125 86.171875 151.761719 Z M 86.171875 151.761719 " fill-opacity="1" fill-rule="nonzero"/><path fill="#020000" d="M 150.691406 91.425781 C 150.5625 91.339844 150.429688 91.339844 150.300781 91.425781 C 150.167969 91.507812 150.113281 91.628906 150.136719 91.78125 C 150.878906 96.792969 148.089844 102.117188 143.347656 104.738281 C 143.191406 104.820312 143.039062 104.902344 142.886719 104.984375 C 140.054688 106.429688 136.621094 107.179688 132.390625 107.277344 C 132.242188 107.277344 132.097656 107.277344 131.953125 107.277344 C 131.511719 107.277344 131.085938 107.257812 130.667969 107.234375 C 130.1875 107.207031 129.730469 107.171875 129.265625 107.132812 C 127.023438 106.945312 124.902344 106.765625 122.347656 107.945312 C 120.195312 108.941406 117.636719 111.757812 117.527344 116.429688 C 117.414062 120.742188 119.269531 124.050781 123.351562 126.851562 C 125.445312 128.289062 127.828125 128.726562 130.238281 128.726562 C 132.1875 128.726562 134.160156 128.441406 136.019531 128.171875 L 136.53125 128.097656 C 138.503906 127.804688 140.390625 127.234375 142.195312 126.386719 C 142.429688 126.28125 142.660156 126.171875 142.886719 126.054688 C 144.429688 125.273438 145.878906 124.347656 147.234375 123.273438 C 150.574219 120.625 153.144531 117.367188 154.945312 113.503906 C 158.214844 106.367188 158.285156 96.417969 150.691406 91.425781 Z M 154.285156 113.199219 C 151.816406 118.570312 147.394531 123.039062 142.390625 125.496094 C 142.390625 125.496094 142.386719 125.496094 142.378906 125.503906 L 142.320312 125.527344 C 140.453125 126.453125 138.488281 127.070312 136.425781 127.378906 L 135.914062 127.453125 C 131.882812 128.03125 127.316406 128.691406 123.753906 126.246094 C 119.894531 123.597656 118.144531 120.484375 118.246094 116.441406 C 118.34375 112.398438 120.535156 109.574219 122.652344 108.597656 C 123.972656 107.980469 125.359375 107.6875 126.816406 107.710938 C 127.59375 107.710938 128.382812 107.777344 129.207031 107.847656 C 130.035156 107.914062 130.871094 107.980469 131.773438 107.988281 C 131.808594 107.992188 131.839844 107.992188 131.875 107.988281 C 132.046875 107.988281 132.226562 107.988281 132.410156 107.988281 C 136.753906 107.890625 140.289062 107.117188 143.222656 105.613281 C 143.382812 105.535156 143.542969 105.449219 143.699219 105.359375 C 148.449219 102.742188 151.34375 97.53125 150.949219 92.472656 C 154.796875 95.335938 156.332031 99.660156 156.332031 104.089844 C 156.324219 107.242188 155.550781 110.4375 154.285156 113.199219 Z M 154.285156 113.199219 " fill-opacity="1" fill-rule="nonzero"/><path fill="#020000" d="M 84.542969 148.066406 C 84.519531 148.058594 84.492188 148.046875 84.46875 148.035156 C 84.445312 148.027344 84.46875 148.035156 84.460938 148.035156 C 84.441406 148.019531 84.421875 148.003906 84.402344 147.984375 C 84.386719 147.96875 84.378906 147.957031 84.363281 147.945312 C 84.355469 147.929688 84.34375 147.914062 84.335938 147.898438 C 84.324219 147.871094 84.3125 147.847656 84.304688 147.820312 C 84.300781 147.792969 84.296875 147.765625 84.296875 147.738281 C 84.292969 147.722656 84.292969 147.703125 84.296875 147.683594 C 84.296875 147.664062 84.304688 147.648438 84.3125 147.628906 C 84.320312 147.609375 84.3125 147.628906 84.3125 147.617188 C 84.3125 147.601562 84.3125 147.617188 84.3125 147.601562 C 84.316406 147.59375 84.320312 147.585938 84.324219 147.582031 L 84.335938 147.558594 C 84.335938 147.550781 84.34375 147.539062 84.347656 147.535156 C 84.359375 147.515625 84.375 147.5 84.390625 147.484375 C 84.234375 147.546875 84.074219 147.578125 83.90625 147.582031 C 83.625 147.621094 83.355469 147.574219 83.097656 147.449219 C 83.101562 147.453125 83.109375 147.457031 83.113281 147.460938 C 83.128906 147.480469 83.144531 147.5 83.15625 147.519531 C 83.171875 147.539062 83.183594 147.558594 83.191406 147.582031 C 83.21875 147.648438 83.226562 147.714844 83.210938 147.785156 C 83.207031 147.808594 83.199219 147.828125 83.191406 147.851562 C 83.183594 147.871094 83.171875 147.894531 83.15625 147.910156 C 83.148438 147.933594 83.132812 147.953125 83.113281 147.96875 C 83.089844 147.988281 83.070312 148.007812 83.042969 148.019531 C 83.023438 148.039062 83 148.058594 82.984375 148.082031 L 82.976562 148.09375 C 82.960938 148.113281 82.949219 148.136719 82.9375 148.160156 C 83.273438 148.285156 83.617188 148.328125 83.972656 148.292969 C 84.230469 148.285156 84.472656 148.226562 84.707031 148.121094 C 84.652344 148.105469 84.597656 148.089844 84.542969 148.066406 Z M 84.542969 148.066406 C 84.519531 148.058594 84.492188 148.046875 84.46875 148.035156 C 84.445312 148.027344 84.46875 148.035156 84.460938 148.035156 C 84.441406 148.019531 84.421875 148.003906 84.402344 147.984375 C 84.386719 147.96875 84.378906 147.957031 84.363281 147.945312 C 84.355469 147.929688 84.34375 147.914062 84.335938 147.898438 C 84.324219 147.871094 84.3125 147.847656 84.304688 147.820312 C 84.300781 147.792969 84.296875 147.765625 84.296875 147.738281 C 84.292969 147.722656 84.292969 147.703125 84.296875 147.683594 C 84.296875 147.664062 84.300781 147.648438 84.308594 147.628906 C 84.308594 147.628906 84.308594 147.621094 84.316406 147.617188 C 84.320312 147.609375 84.316406 147.605469 84.316406 147.601562 L 84.324219 147.582031 C 84.324219 147.582031 84.324219 147.566406 84.339844 147.5625 C 84.351562 147.5625 84.347656 147.546875 84.351562 147.542969 C 84.355469 147.535156 84.367188 147.515625 84.375 147.5 L 84.382812 147.5 C 84.230469 147.5625 84.066406 147.597656 83.902344 147.601562 C 83.617188 147.636719 83.347656 147.59375 83.089844 147.46875 C 83.097656 147.46875 83.101562 147.472656 83.105469 147.480469 C 83.121094 147.5 83.136719 147.519531 83.152344 147.539062 C 83.164062 147.558594 83.175781 147.578125 83.183594 147.601562 C 83.214844 147.664062 83.21875 147.734375 83.203125 147.804688 C 83.199219 147.824219 83.195312 147.847656 83.183594 147.867188 C 83.175781 147.890625 83.164062 147.910156 83.152344 147.929688 C 83.140625 147.953125 83.125 147.972656 83.105469 147.988281 C 83.085938 148.007812 83.0625 148.023438 83.039062 148.039062 C 83.015625 148.054688 82.996094 148.078125 82.980469 148.097656 L 82.96875 148.113281 C 82.953125 148.132812 82.941406 148.15625 82.929688 148.179688 C 83.265625 148.304688 83.609375 148.347656 83.96875 148.3125 C 84.222656 148.300781 84.46875 148.246094 84.699219 148.140625 C 84.652344 148.105469 84.597656 148.089844 84.542969 148.066406 Z M 84.542969 148.066406 C 84.519531 148.058594 84.492188 148.046875 84.46875 148.035156 C 84.46875 148.035156 84.46875 148.035156 84.460938 148.035156 C 84.4375 148.023438 84.417969 148.003906 84.402344 147.984375 C 84.386719 147.972656 84.375 147.960938 84.363281 147.945312 C 84.355469 147.929688 84.347656 147.914062 84.339844 147.898438 C 84.324219 147.871094 84.316406 147.847656 84.308594 147.820312 C 84.300781 147.792969 84.300781 147.765625 84.300781 147.738281 C 84.296875 147.722656 84.296875 147.703125 84.300781 147.683594 C 84.300781 147.664062 84.304688 147.648438 84.3125 147.628906 C 84.3125 147.628906 84.3125 147.621094 84.316406 147.617188 C 84.324219 147.609375 84.316406 147.605469 84.316406 147.601562 L 84.328125 147.582031 C 84.332031 147.566406 84.34375 147.550781 84.355469 147.542969 C 84.363281 147.527344 84.371094 147.515625 84.378906 147.5 L 84.386719 147.5 C 84.230469 147.5625 84.070312 147.597656 83.902344 147.601562 C 83.621094 147.636719 83.351562 147.59375 83.09375 147.46875 C 83.097656 147.46875 83.105469 147.472656 83.109375 147.480469 C 83.125 147.5 83.140625 147.519531 83.152344 147.539062 C 83.167969 147.558594 83.179688 147.578125 83.1875 147.601562 C 83.214844 147.664062 83.222656 147.734375 83.207031 147.804688 C 83.203125 147.824219 83.195312 147.847656 83.1875 147.867188 C 83.179688 147.890625 83.167969 147.910156 83.152344 147.929688 C 83.144531 147.953125 83.128906 147.972656 83.109375 147.988281 C 83.085938 148.007812 83.066406 148.023438 83.039062 148.039062 C 83.015625 148.054688 82.996094 148.078125 82.980469 148.097656 L 82.972656 148.113281 C 82.957031 148.132812 82.945312 148.15625 82.933594 148.179688 C 83.269531 148.304688 83.613281 148.347656 83.96875 148.3125 C 84.226562 148.300781 84.46875 148.246094 84.703125 148.140625 C 84.652344 148.105469 84.597656 148.089844 84.542969 148.066406 Z M 92.9375 149.195312 L 89.101562 144.90625 C 88.808594 144.578125 88.476562 144.207031 88.042969 143.957031 C 87.519531 143.648438 86.925781 143.589844 86.457031 143.796875 C 86.386719 143.828125 86.324219 143.855469 86.273438 143.882812 C 86.027344 144 85.972656 144.023438 85.761719 143.953125 C 85.691406 143.929688 85.625 143.902344 85.546875 143.875 C 85.347656 143.796875 85.144531 143.734375 84.933594 143.6875 C 84.554688 143.613281 84.183594 143.640625 83.820312 143.769531 C 83.503906 143.878906 83.226562 144.046875 82.984375 144.277344 C 82.347656 144.890625 82.046875 145.84375 82.125 147.046875 C 82.136719 147.292969 82.214844 147.515625 82.355469 147.714844 C 82.410156 147.796875 82.472656 147.867188 82.542969 147.925781 C 82.660156 148.027344 82.789062 148.101562 82.929688 148.15625 C 83.265625 148.28125 83.609375 148.328125 83.964844 148.289062 C 84.222656 148.28125 84.464844 148.222656 84.699219 148.117188 C 84.808594 148.066406 84.902344 147.996094 84.988281 147.910156 C 85.074219 147.808594 85.148438 147.699219 85.207031 147.578125 C 85.214844 147.566406 85.222656 147.550781 85.230469 147.539062 C 85.242188 147.515625 85.253906 147.492188 85.269531 147.46875 C 85.566406 146.984375 86.304688 146.898438 86.839844 147.066406 C 87.378906 147.234375 87.824219 147.5625 88.308594 147.914062 C 88.417969 147.996094 88.527344 148.078125 88.640625 148.15625 C 88.832031 148.289062 89.019531 148.425781 89.21875 148.539062 C 89.894531 148.964844 90.605469 149.320312 91.351562 149.609375 L 91.367188 149.617188 C 91.40625 149.632812 91.449219 149.648438 91.488281 149.660156 C 91.554688 149.6875 91.625 149.714844 91.691406 149.738281 C 91.90625 149.816406 92.125 149.863281 92.355469 149.871094 C 92.367188 149.871094 92.382812 149.871094 92.398438 149.871094 L 92.402344 149.871094 C 92.554688 149.871094 92.695312 149.832031 92.828125 149.757812 C 92.933594 149.707031 92.996094 149.621094 93.015625 149.507812 C 93.042969 149.390625 93.015625 149.285156 92.9375 149.195312 Z M 91.734375 148.972656 C 91.707031 148.972656 91.683594 148.957031 91.65625 148.945312 C 90.734375 148.597656 89.867188 148.136719 89.058594 147.566406 L 88.738281 147.332031 C 88.226562 146.957031 87.695312 146.570312 87.0625 146.375 C 86.820312 146.304688 86.574219 146.269531 86.324219 146.265625 C 85.675781 146.265625 85.011719 146.515625 84.660156 147.09375 C 84.628906 147.140625 84.601562 147.191406 84.578125 147.238281 C 84.546875 147.304688 84.507812 147.363281 84.460938 147.414062 C 84.460938 147.414062 84.457031 147.414062 84.453125 147.414062 C 84.4375 147.429688 84.425781 147.441406 84.40625 147.453125 L 84.398438 147.453125 C 84.246094 147.515625 84.085938 147.546875 83.917969 147.550781 C 83.632812 147.589844 83.363281 147.542969 83.105469 147.417969 C 82.9375 147.320312 82.851562 147.171875 82.859375 146.976562 C 82.8125 146.292969 82.886719 145.355469 83.496094 144.777344 C 83.660156 144.621094 83.847656 144.507812 84.0625 144.433594 C 84.304688 144.347656 84.550781 144.328125 84.804688 144.375 C 84.972656 144.414062 85.140625 144.464844 85.300781 144.53125 C 85.382812 144.558594 85.460938 144.589844 85.539062 144.617188 C 86.023438 144.78125 86.300781 144.652344 86.59375 144.515625 C 86.644531 144.492188 86.695312 144.464844 86.757812 144.4375 C 87.015625 144.324219 87.363281 144.371094 87.695312 144.558594 C 88.023438 144.75 88.308594 145.066406 88.578125 145.363281 L 91.792969 148.957031 L 91.804688 148.96875 C 91.78125 148.972656 91.757812 148.972656 91.734375 148.972656 Z M 84.542969 148.066406 C 84.515625 148.058594 84.488281 148.046875 84.464844 148.035156 C 84.445312 148.027344 84.464844 148.035156 84.460938 148.035156 C 84.4375 148.019531 84.417969 148.003906 84.398438 147.984375 C 84.386719 147.96875 84.375 147.957031 84.363281 147.945312 C 84.351562 147.929688 84.34375 147.914062 84.335938 147.898438 C 84.324219 147.871094 84.3125 147.847656 84.304688 147.820312 C 84.300781 147.792969 84.296875 147.765625 84.296875 147.738281 C 84.292969 147.722656 84.292969 147.703125 84.296875 147.683594 C 84.296875 147.664062 84.300781 147.648438 84.308594 147.628906 C 84.308594 147.628906 84.308594 147.621094 84.316406 147.617188 C 84.320312 147.609375 84.316406 147.605469 84.316406 147.601562 L 84.324219 147.582031 C 84.332031 147.566406 84.339844 147.550781 84.351562 147.542969 C 84.359375 147.527344 84.367188 147.515625 84.375 147.5 L 84.382812 147.5 C 84.230469 147.5625 84.066406 147.597656 83.902344 147.601562 C 83.617188 147.636719 83.347656 147.59375 83.089844 147.46875 C 83.097656 147.46875 83.101562 147.472656 83.105469 147.480469 C 83.121094 147.5 83.136719 147.519531 83.152344 147.539062 C 83.164062 147.558594 83.175781 147.578125 83.183594 147.601562 C 83.214844 147.664062 83.21875 147.734375 83.203125 147.804688 C 83.199219 147.824219 83.195312 147.847656 83.183594 147.867188 C 83.175781 147.890625 83.164062 147.910156 83.152344 147.929688 C 83.140625 147.953125 83.125 147.972656 83.105469 147.988281 C 83.085938 148.007812 83.0625 148.023438 83.039062 148.039062 C 83.015625 148.054688 82.996094 148.078125 82.980469 148.097656 L 82.96875 148.113281 C 82.953125 148.132812 82.941406 148.15625 82.929688 148.179688 C 83.265625 148.304688 83.609375 148.347656 83.96875 148.3125 C 84.222656 148.300781 84.46875 148.246094 84.699219 148.140625 C 84.652344 148.105469 84.597656 148.089844 84.542969 148.066406 Z M 84.542969 148.066406 C 84.515625 148.058594 84.488281 148.046875 84.464844 148.035156 C 84.445312 148.027344 84.464844 148.035156 84.460938 148.035156 C 84.4375 148.019531 84.417969 148.003906 84.398438 147.984375 C 84.386719 147.96875 84.375 147.957031 84.363281 147.945312 C 84.351562 147.929688 84.339844 147.914062 84.332031 147.898438 C 84.320312 147.871094 84.308594 147.847656 84.304688 147.820312 C 84.296875 147.792969 84.292969 147.765625 84.292969 147.738281 C 84.292969 147.722656 84.292969 147.703125 84.292969 147.683594 C 84.292969 147.664062 84.304688 147.648438 84.308594 147.628906 C 84.316406 147.609375 84.308594 147.628906 84.308594 147.617188 C 84.308594 147.601562 84.308594 147.617188 84.308594 147.601562 C 84.3125 147.59375 84.316406 147.585938 84.324219 147.582031 L 84.332031 147.558594 C 84.332031 147.550781 84.34375 147.539062 84.347656 147.535156 C 84.359375 147.515625 84.371094 147.5 84.386719 147.484375 C 84.234375 147.546875 84.070312 147.578125 83.90625 147.582031 C 83.621094 147.621094 83.351562 147.574219 83.09375 147.449219 C 83.101562 147.453125 83.105469 147.457031 83.109375 147.460938 C 83.125 147.480469 83.140625 147.5 83.15625 147.519531 C 83.167969 147.539062 83.179688 147.558594 83.1875 147.582031 C 83.21875 147.648438 83.222656 147.714844 83.207031 147.785156 C 83.203125 147.808594 83.199219 147.828125 83.1875 147.851562 C 83.179688 147.871094 83.167969 147.894531 83.15625 147.910156 C 83.144531 147.933594 83.128906 147.953125 83.109375 147.96875 C 83.089844 147.988281 83.066406 148.007812 83.042969 148.019531 C 83.019531 148.039062 83 148.058594 82.984375 148.082031 L 82.972656 148.09375 C 82.957031 148.113281 82.945312 148.136719 82.933594 148.160156 C 83.269531 148.285156 83.613281 148.328125 83.972656 148.292969 C 84.226562 148.285156 84.472656 148.226562 84.707031 148.121094 C 84.652344 148.105469 84.597656 148.089844 84.542969 148.066406 Z M 84.542969 148.066406 " fill-opacity="1" fill-rule="nonzero"/><path fill="#020000" d="M 93.050781 101.792969 C 92.949219 101.847656 92.847656 101.902344 92.746094 101.960938 L 92.417969 102.148438 C 92.359375 102.066406 92.300781 101.984375 92.234375 101.910156 C 91.757812 101.371094 91.070312 101 90.464844 100.691406 C 88.863281 99.886719 87.164062 99.199219 85.519531 98.53125 C 83.691406 97.789062 81.800781 97.023438 80.015625 96.085938 C 75.933594 93.941406 73.15625 91.140625 71.980469 87.980469 C 71.71875 87.246094 71.496094 86.496094 71.3125 85.738281 C 70.917969 84.226562 70.546875 82.789062 69.644531 81.714844 C 66.332031 90.453125 65.417969 97.96875 66.832031 104.683594 C 68.105469 110.714844 72.238281 117.878906 77.679688 119.898438 C 78.199219 120.09375 78.738281 120.203125 79.292969 120.21875 C 79.285156 120.304688 79.269531 120.390625 79.261719 120.472656 L 79.253906 120.535156 C 79.238281 120.671875 79.21875 120.804688 79.207031 120.9375 C 78.59375 120.914062 78 120.792969 77.425781 120.574219 C 74.675781 119.550781 72.09375 117.289062 69.960938 114.027344 C 68.128906 111.191406 66.847656 108.128906 66.121094 104.832031 C 64.640625 97.835938 65.640625 90.015625 69.171875 80.914062 C 69.214844 80.796875 69.300781 80.722656 69.425781 80.691406 C 69.550781 80.667969 69.660156 80.695312 69.753906 80.785156 C 71.09375 82.039062 71.554688 83.828125 72.007812 85.558594 C 72.195312 86.285156 72.390625 87.03125 72.648438 87.730469 C 74.050781 91.511719 77.605469 94.015625 80.34375 95.445312 C 82.09375 96.367188 83.96875 97.128906 85.78125 97.859375 C 87.4375 98.527344 89.148438 99.222656 90.777344 100.042969 C 91.449219 100.378906 92.203125 100.789062 92.765625 101.425781 C 92.867188 101.542969 92.964844 101.664062 93.050781 101.792969 Z M 93.050781 101.792969 " fill-opacity="1" fill-rule="nonzero"/><g clip-path="url(#238f2908cc)"><path fill="#020000" d="M 100.757812 181.851562 C 100.660156 182.820312 100.316406 183.75 100 184.546875 C 98.03125 189.546875 95.289062 194.082031 91.773438 198.148438 C 91.417969 198.558594 91.054688 198.96875 90.691406 199.371094 C 89.78125 200.390625 88.839844 201.445312 88.042969 202.574219 C 86.890625 204.214844 86.039062 206.003906 85.488281 207.929688 C 84.933594 209.859375 84.710938 211.828125 84.816406 213.832031 C 84.832031 214.15625 84.859375 214.480469 84.890625 214.808594 L 84.167969 214.808594 C 84.132812 214.480469 84.105469 214.15625 84.089844 213.832031 C 83.984375 211.753906 84.222656 209.714844 84.796875 207.714844 C 85.375 205.71875 86.257812 203.867188 87.449219 202.164062 C 88.273438 201 89.226562 199.929688 90.152344 198.894531 C 90.515625 198.492188 90.875 198.089844 91.226562 197.679688 C 94.683594 193.675781 97.386719 189.210938 99.328125 184.289062 C 99.640625 183.5 99.949219 182.660156 100.035156 181.785156 C 100.132812 180.78125 99.929688 179.738281 99.707031 178.765625 C 98.308594 172.519531 95.632812 166.070312 92.367188 160.570312 C 92.335938 160.519531 92.320312 160.46875 92.320312 160.410156 C 92.5625 160.378906 92.804688 160.34375 93.050781 160.304688 C 96.328125 165.851562 99.007812 172.324219 100.417969 178.605469 C 100.640625 179.632812 100.859375 180.738281 100.757812 181.851562 Z M 100.757812 181.851562 " fill-opacity="1" fill-rule="nonzero"/></g><g clip-path="url(#f96a3f040f)"><path fill="#020000" d="M 162.941406 31.117188 C 149.4375 17.601562 131.484375 10.164062 112.386719 10.164062 C 93.292969 10.164062 75.335938 17.601562 61.832031 31.117188 C 48.328125 44.632812 40.890625 62.589844 40.890625 81.695312 L 40.890625 214.3125 C 40.890625 214.449219 40.9375 214.5625 41.035156 214.660156 C 41.128906 214.753906 41.242188 214.804688 41.378906 214.804688 L 183.394531 214.804688 C 183.53125 214.804688 183.644531 214.757812 183.742188 214.660156 C 183.835938 214.566406 183.886719 214.449219 183.882812 214.3125 L 183.882812 81.695312 C 183.882812 62.589844 176.445312 44.628906 162.941406 31.117188 Z M 182.898438 213.824219 L 41.867188 213.824219 L 41.867188 81.695312 C 41.867188 62.851562 49.203125 45.136719 62.523438 31.808594 C 75.84375 18.480469 93.550781 11.140625 112.386719 11.140625 C 131.226562 11.140625 148.929688 18.480469 162.25 31.808594 C 175.574219 45.136719 182.902344 62.851562 182.902344 81.695312 Z M 182.898438 213.824219 " fill-opacity="1" fill-rule="nonzero"/></g><path fill="#020000" d="M 63.640625 58.878906 C 65.300781 59.394531 66.027344 60.871094 66.371094 62.683594 C 66.734375 60.839844 67.421875 59.785156 69.089844 59.085938 C 68.402344 58.867188 67.316406 57.707031 67.097656 57.355469 C 66.578125 56.507812 66.527344 55.671875 66.40625 54.726562 C 65.984375 56.476562 65.476562 58.074219 63.640625 58.878906 Z M 63.640625 58.878906 " fill-opacity="1" fill-rule="nonzero"/><path fill="#020000" d="M 59.773438 181.691406 C 61.4375 182.207031 62.160156 183.683594 62.507812 185.496094 C 62.867188 183.652344 63.558594 182.597656 65.222656 181.894531 C 64.539062 181.679688 63.449219 180.519531 63.234375 180.167969 C 62.714844 179.320312 62.664062 178.484375 62.539062 177.539062 C 62.113281 179.289062 61.605469 180.886719 59.773438 181.691406 Z M 59.773438 181.691406 " fill-opacity="1" fill-rule="nonzero"/><path fill="#020000" d="M 171.785156 142.652344 C 173.445312 143.171875 174.171875 144.648438 174.515625 146.457031 C 174.875 144.617188 175.566406 143.558594 177.230469 142.859375 C 176.546875 142.640625 175.457031 141.484375 175.242188 141.128906 C 174.71875 140.28125 174.667969 139.449219 174.546875 138.503906 C 174.125 140.25 173.617188 141.847656 171.785156 142.652344 Z M 171.785156 142.652344 " fill-opacity="1" fill-rule="nonzero"/><path fill="#020000" d="M 156.582031 76.851562 C 158.242188 77.371094 158.96875 78.847656 159.3125 80.660156 C 159.671875 78.816406 160.363281 77.761719 162.027344 77.058594 C 161.34375 76.84375 160.253906 75.683594 160.039062 75.332031 C 159.519531 74.480469 159.46875 73.648438 159.34375 72.703125 C 158.925781 74.453125 158.414062 76.050781 156.582031 76.851562 Z M 156.582031 76.851562 " fill-opacity="1" fill-rule="nonzero"/><path fill="#020000" d="M 50.570312 115.90625 C 52.234375 116.429688 52.957031 117.902344 53.304688 119.714844 C 53.664062 117.871094 54.355469 116.816406 56.019531 116.113281 C 55.335938 115.894531 54.246094 114.738281 54.03125 114.382812 C 53.511719 113.535156 53.460938 112.703125 53.335938 111.757812 C 52.914062 113.503906 52.410156 115.101562 50.570312 115.90625 Z M 50.570312 115.90625 " fill-opacity="1" fill-rule="nonzero"/><path fill="#020000" d="M 71.101562 70.734375 C 72.207031 71.078125 72.6875 72.058594 72.917969 73.265625 C 73.160156 72.039062 73.617188 71.335938 74.726562 70.871094 C 74.269531 70.726562 73.546875 69.953125 73.402344 69.71875 C 73.054688 69.15625 73.023438 68.601562 72.9375 67.976562 C 72.660156 69.125 72.320312 70.199219 71.101562 70.734375 Z M 71.101562 70.734375 " fill-opacity="1" fill-rule="nonzero"/><path fill="#020000" d="M 148.257812 172.816406 C 149.363281 173.164062 149.847656 174.144531 150.078125 175.351562 C 150.316406 174.125 150.777344 173.421875 151.886719 172.953125 C 151.429688 172.808594 150.703125 172.039062 150.5625 171.804688 C 150.214844 171.238281 150.179688 170.683594 150.097656 170.0625 C 149.816406 171.21875 149.480469 172.28125 148.257812 172.816406 Z M 148.257812 172.816406 " fill-opacity="1" fill-rule="nonzero"/><path fill="#020000" d="M 135.929688 60.390625 C 137.035156 60.734375 137.519531 61.714844 137.75 62.921875 C 137.988281 61.695312 138.449219 60.992188 139.558594 60.527344 C 139.101562 60.382812 138.375 59.609375 138.234375 59.375 C 137.886719 58.8125 137.851562 58.257812 137.769531 57.628906 C 137.488281 58.789062 137.152344 59.855469 135.929688 60.390625 Z M 135.929688 60.390625 " fill-opacity="1" fill-rule="nonzero"/><path fill="#020000" d="M 131.304688 26.003906 C 132.410156 26.347656 132.894531 27.328125 133.121094 28.535156 C 133.363281 27.308594 133.820312 26.605469 134.929688 26.140625 C 134.476562 25.992188 133.75 25.222656 133.605469 24.988281 C 133.261719 24.421875 133.226562 23.867188 133.144531 23.238281 C 132.863281 24.402344 132.523438 25.464844 131.304688 26.003906 Z M 131.304688 26.003906 " fill-opacity="1" fill-rule="nonzero"/><path fill="#020000" d="M 82.898438 62.449219 C 82.898438 62.625 82.835938 62.773438 82.710938 62.898438 C 82.585938 63.023438 82.4375 63.085938 82.261719 63.085938 C 82.085938 63.085938 81.9375 63.023438 81.8125 62.898438 C 81.6875 62.773438 81.625 62.625 81.625 62.449219 C 81.625 62.273438 81.6875 62.121094 81.8125 61.996094 C 81.9375 61.875 82.085938 61.8125 82.261719 61.8125 C 82.4375 61.8125 82.585938 61.875 82.710938 61.996094 C 82.835938 62.121094 82.898438 62.273438 82.898438 62.449219 Z M 82.898438 62.449219 " fill-opacity="1" fill-rule="nonzero"/><path fill="#020000" d="M 93.921875 74.761719 C 93.921875 74.9375 93.863281 75.089844 93.738281 75.214844 C 93.613281 75.335938 93.464844 75.398438 93.289062 75.398438 C 93.113281 75.398438 92.960938 75.335938 92.835938 75.214844 C 92.714844 75.089844 92.652344 74.9375 92.652344 74.761719 C 92.652344 74.585938 92.714844 74.4375 92.835938 74.3125 C 92.960938 74.1875 93.113281 74.125 93.289062 74.125 C 93.464844 74.125 93.613281 74.1875 93.738281 74.3125 C 93.863281 74.4375 93.921875 74.585938 93.921875 74.761719 Z M 93.921875 74.761719 " fill-opacity="1" fill-rule="nonzero"/><path fill="#020000" d="M 91.945312 83.179688 C 91.945312 83.355469 91.882812 83.507812 91.757812 83.632812 C 91.632812 83.753906 91.484375 83.816406 91.308594 83.816406 C 91.132812 83.816406 90.980469 83.753906 90.859375 83.632812 C 90.734375 83.507812 90.671875 83.355469 90.671875 83.179688 C 90.671875 83.003906 90.734375 82.855469 90.859375 82.730469 C 90.980469 82.605469 91.132812 82.542969 91.308594 82.542969 C 91.484375 82.542969 91.632812 82.605469 91.757812 82.730469 C 91.882812 82.855469 91.945312 83.003906 91.945312 83.179688 Z M 91.945312 83.179688 " fill-opacity="1" fill-rule="nonzero"/><path fill="#020000" d="M 47.8125 67.273438 C 47.8125 67.449219 47.753906 67.597656 47.628906 67.722656 C 47.503906 67.847656 47.355469 67.910156 47.179688 67.910156 C 47.003906 67.910156 46.851562 67.847656 46.726562 67.722656 C 46.605469 67.597656 46.542969 67.449219 46.542969 67.273438 C 46.542969 67.097656 46.605469 66.949219 46.726562 66.824219 C 46.851562 66.699219 47.003906 66.636719 47.179688 66.636719 C 47.355469 66.636719 47.503906 66.699219 47.628906 66.824219 C 47.753906 66.949219 47.8125 67.097656 47.8125 67.273438 Z M 47.8125 67.273438 " fill-opacity="1" fill-rule="nonzero"/><path fill="#020000" d="M 89.886719 53.410156 C 89.886719 53.585938 89.828125 53.734375 89.703125 53.859375 C 89.578125 53.984375 89.429688 54.046875 89.253906 54.046875 C 89.078125 54.046875 88.925781 53.984375 88.800781 53.859375 C 88.679688 53.734375 88.617188 53.585938 88.617188 53.410156 C 88.617188 53.234375 88.679688 53.082031 88.800781 52.957031 C 88.925781 52.835938 89.078125 52.773438 89.253906 52.773438 C 89.429688 52.773438 89.578125 52.835938 89.703125 52.957031 C 89.828125 53.082031 89.886719 53.234375 89.886719 53.410156 Z M 89.886719 53.410156 " fill-opacity="1" fill-rule="nonzero"/><path fill="#020000" d="M 68.703125 114.144531 C 68.703125 114.320312 68.640625 114.46875 68.515625 114.59375 C 68.390625 114.71875 68.242188 114.78125 68.066406 114.78125 C 67.890625 114.78125 67.738281 114.71875 67.617188 114.59375 C 67.492188 114.46875 67.429688 114.320312 67.429688 114.144531 C 67.429688 113.96875 67.492188 113.820312 67.617188 113.695312 C 67.738281 113.570312 67.890625 113.507812 68.066406 113.507812 C 68.242188 113.507812 68.390625 113.570312 68.515625 113.695312 C 68.640625 113.820312 68.703125 113.96875 68.703125 114.144531 Z M 68.703125 114.144531 " fill-opacity="1" fill-rule="nonzero"/><path fill="#020000" d="M 47.058594 140.523438 C 47.058594 140.699219 46.996094 140.847656 46.871094 140.972656 C 46.746094 141.097656 46.597656 141.160156 46.421875 141.160156 C 46.246094 141.160156 46.097656 141.097656 45.972656 140.972656 C 45.847656 140.847656 45.785156 140.699219 45.785156 140.523438 C 45.785156 140.347656 45.847656 140.199219 45.972656 140.074219 C 46.097656 139.949219 46.246094 139.886719 46.421875 139.886719 C 46.597656 139.886719 46.746094 139.949219 46.871094 140.074219 C 46.996094 140.199219 47.058594 140.347656 47.058594 140.523438 Z M 47.058594 140.523438 " fill-opacity="1" fill-rule="nonzero"/><path fill="#020000" d="M 71.050781 120.742188 C 71.050781 120.917969 70.988281 121.066406 70.863281 121.191406 C 70.738281 121.316406 70.589844 121.378906 70.414062 121.378906 C 70.238281 121.378906 70.089844 121.316406 69.964844 121.191406 C 69.839844 121.066406 69.777344 120.917969 69.777344 120.742188 C 69.777344 120.566406 69.839844 120.414062 69.964844 120.292969 C 70.089844 120.167969 70.238281 120.105469 70.414062 120.105469 C 70.589844 120.105469 70.738281 120.167969 70.863281 120.292969 C 70.988281 120.414062 71.050781 120.566406 71.050781 120.742188 Z M 71.050781 120.742188 " fill-opacity="1" fill-rule="nonzero"/><path fill="#020000" d="M 50.460938 164.351562 C 50.460938 164.527344 50.398438 164.675781 50.273438 164.800781 C 50.148438 164.925781 50 164.988281 49.824219 164.988281 C 49.648438 164.988281 49.496094 164.925781 49.375 164.800781 C 49.25 164.675781 49.1875 164.527344 49.1875 164.351562 C 49.1875 164.175781 49.25 164.023438 49.375 163.898438 C 49.496094 163.777344 49.648438 163.714844 49.824219 163.714844 C 50 163.714844 50.148438 163.777344 50.273438 163.898438 C 50.398438 164.023438 50.460938 164.175781 50.460938 164.351562 Z M 50.460938 164.351562 " fill-opacity="1" fill-rule="nonzero"/><path fill="#020000" d="M 62.929688 193.109375 C 62.929688 193.285156 62.867188 193.4375 62.742188 193.558594 C 62.617188 193.683594 62.46875 193.746094 62.292969 193.746094 C 62.117188 193.746094 61.96875 193.683594 61.84375 193.558594 C 61.71875 193.4375 61.65625 193.285156 61.65625 193.109375 C 61.65625 192.933594 61.71875 192.785156 61.84375 192.660156 C 61.96875 192.535156 62.117188 192.472656 62.292969 192.472656 C 62.46875 192.472656 62.617188 192.535156 62.742188 192.660156 C 62.867188 192.785156 62.929688 192.933594 62.929688 193.109375 Z M 62.929688 193.109375 " fill-opacity="1" fill-rule="nonzero"/><path fill="#020000" d="M 58.019531 154.140625 C 58.019531 154.316406 57.957031 154.464844 57.832031 154.589844 C 57.710938 154.714844 57.558594 154.773438 57.382812 154.773438 C 57.207031 154.773438 57.058594 154.714844 56.933594 154.589844 C 56.808594 154.464844 56.746094 154.316406 56.746094 154.140625 C 56.746094 153.964844 56.808594 153.8125 56.933594 153.6875 C 57.058594 153.5625 57.207031 153.503906 57.382812 153.503906 C 57.558594 153.503906 57.710938 153.5625 57.832031 153.6875 C 57.957031 153.8125 58.019531 153.964844 58.019531 154.140625 Z M 58.019531 154.140625 " fill-opacity="1" fill-rule="nonzero"/><path fill="#020000" d="M 51.699219 199.367188 C 51.699219 199.542969 51.636719 199.691406 51.511719 199.816406 C 51.386719 199.941406 51.238281 200.003906 51.0625 200.003906 C 50.886719 200.003906 50.738281 199.941406 50.613281 199.816406 C 50.488281 199.691406 50.425781 199.542969 50.425781 199.367188 C 50.425781 199.191406 50.488281 199.039062 50.613281 198.914062 C 50.738281 198.792969 50.886719 198.730469 51.0625 198.730469 C 51.238281 198.730469 51.386719 198.792969 51.511719 198.914062 C 51.636719 199.039062 51.699219 199.191406 51.699219 199.367188 Z M 51.699219 199.367188 " fill-opacity="1" fill-rule="nonzero"/><path fill="#020000" d="M 54.972656 191.707031 C 54.972656 191.882812 54.914062 192.03125 54.789062 192.15625 C 54.664062 192.28125 54.515625 192.34375 54.339844 192.34375 C 54.164062 192.34375 54.011719 192.28125 53.886719 192.15625 C 53.765625 192.03125 53.703125 191.882812 53.703125 191.707031 C 53.703125 191.53125 53.765625 191.378906 53.886719 191.257812 C 54.011719 191.132812 54.164062 191.070312 54.339844 191.070312 C 54.515625 191.070312 54.664062 191.132812 54.789062 191.257812 C 54.914062 191.378906 54.972656 191.53125 54.972656 191.707031 Z M 54.972656 191.707031 " fill-opacity="1" fill-rule="nonzero"/><path fill="#020000" d="M 60.628906 93.664062 C 60.628906 93.839844 60.570312 93.988281 60.445312 94.113281 C 60.320312 94.238281 60.171875 94.300781 59.996094 94.300781 C 59.820312 94.300781 59.667969 94.238281 59.542969 94.113281 C 59.421875 93.988281 59.359375 93.839844 59.359375 93.664062 C 59.359375 93.488281 59.421875 93.339844 59.542969 93.214844 C 59.667969 93.089844 59.820312 93.027344 59.996094 93.027344 C 60.171875 93.027344 60.320312 93.089844 60.445312 93.214844 C 60.570312 93.339844 60.628906 93.488281 60.628906 93.664062 Z M 60.628906 93.664062 " fill-opacity="1" fill-rule="nonzero"/><path fill="#020000" d="M 58.398438 70.933594 C 58.398438 71.109375 58.335938 71.261719 58.210938 71.382812 C 58.085938 71.507812 57.9375 71.570312 57.761719 71.570312 C 57.585938 71.570312 57.4375 71.507812 57.3125 71.382812 C 57.1875 71.261719 57.125 71.109375 57.125 70.933594 C 57.125 70.757812 57.1875 70.609375 57.3125 70.484375 C 57.4375 70.359375 57.585938 70.296875 57.761719 70.296875 C 57.9375 70.296875 58.085938 70.359375 58.210938 70.484375 C 58.335938 70.609375 58.398438 70.757812 58.398438 70.933594 Z M 58.398438 70.933594 " fill-opacity="1" fill-rule="nonzero"/><path fill="#020000" d="M 143.363281 92.234375 C 143.363281 92.410156 143.300781 92.5625 143.175781 92.6875 C 143.050781 92.808594 142.902344 92.871094 142.726562 92.871094 C 142.550781 92.871094 142.398438 92.808594 142.273438 92.6875 C 142.152344 92.5625 142.089844 92.410156 142.089844 92.234375 C 142.089844 92.058594 142.152344 91.910156 142.273438 91.785156 C 142.398438 91.660156 142.550781 91.597656 142.726562 91.597656 C 142.902344 91.597656 143.050781 91.660156 143.175781 91.785156 C 143.300781 91.910156 143.363281 92.058594 143.363281 92.234375 Z M 143.363281 92.234375 " fill-opacity="1" fill-rule="nonzero"/><path fill="#020000" d="M 146.742188 85.234375 C 146.742188 85.410156 146.679688 85.558594 146.558594 85.683594 C 146.433594 85.808594 146.28125 85.871094 146.105469 85.871094 C 145.929688 85.871094 145.78125 85.808594 145.65625 85.683594 C 145.53125 85.558594 145.472656 85.410156 145.472656 85.234375 C 145.472656 85.058594 145.53125 84.90625 145.65625 84.78125 C 145.78125 84.660156 145.929688 84.597656 146.105469 84.597656 C 146.28125 84.597656 146.433594 84.660156 146.558594 84.78125 C 146.679688 84.90625 146.742188 85.058594 146.742188 85.234375 Z M 146.742188 85.234375 " fill-opacity="1" fill-rule="nonzero"/><path fill="#020000" d="M 173.804688 106.863281 C 173.804688 107.039062 173.742188 107.191406 173.617188 107.3125 C 173.492188 107.4375 173.34375 107.5 173.167969 107.5 C 172.992188 107.5 172.84375 107.4375 172.71875 107.3125 C 172.59375 107.191406 172.53125 107.039062 172.53125 106.863281 C 172.53125 106.6875 172.59375 106.539062 172.71875 106.414062 C 172.84375 106.289062 172.992188 106.226562 173.167969 106.226562 C 173.34375 106.226562 173.492188 106.289062 173.617188 106.414062 C 173.742188 106.539062 173.804688 106.6875 173.804688 106.863281 Z M 173.804688 106.863281 " fill-opacity="1" fill-rule="nonzero"/><path fill="#020000" d="M 161.914062 98.707031 C 161.914062 98.882812 161.851562 99.03125 161.726562 99.15625 C 161.601562 99.28125 161.453125 99.34375 161.277344 99.34375 C 161.101562 99.34375 160.953125 99.28125 160.828125 99.15625 C 160.703125 99.03125 160.640625 98.882812 160.640625 98.707031 C 160.640625 98.53125 160.703125 98.378906 160.828125 98.253906 C 160.953125 98.132812 161.101562 98.070312 161.277344 98.070312 C 161.453125 98.070312 161.601562 98.132812 161.726562 98.253906 C 161.851562 98.378906 161.914062 98.53125 161.914062 98.707031 Z M 161.914062 98.707031 " fill-opacity="1" fill-rule="nonzero"/><path fill="#020000" d="M 125.882812 89.125 C 125.882812 89.300781 125.820312 89.449219 125.695312 89.574219 C 125.574219 89.699219 125.421875 89.761719 125.246094 89.761719 C 125.070312 89.761719 124.921875 89.699219 124.796875 89.574219 C 124.671875 89.449219 124.609375 89.300781 124.609375 89.125 C 124.609375 88.949219 124.671875 88.796875 124.796875 88.675781 C 124.921875 88.550781 125.070312 88.488281 125.246094 88.488281 C 125.421875 88.488281 125.574219 88.550781 125.695312 88.675781 C 125.820312 88.796875 125.882812 88.949219 125.882812 89.125 Z M 125.882812 89.125 " fill-opacity="1" fill-rule="nonzero"/><path fill="#020000" d="M 162.722656 118.191406 C 162.722656 118.367188 162.660156 118.515625 162.539062 118.640625 C 162.414062 118.765625 162.265625 118.828125 162.089844 118.828125 C 161.914062 118.828125 161.761719 118.765625 161.636719 118.640625 C 161.515625 118.515625 161.453125 118.367188 161.453125 118.191406 C 161.453125 118.015625 161.515625 117.867188 161.636719 117.742188 C 161.761719 117.617188 161.914062 117.554688 162.089844 117.554688 C 162.265625 117.554688 162.414062 117.617188 162.539062 117.742188 C 162.660156 117.867188 162.722656 118.015625 162.722656 118.191406 Z M 162.722656 118.191406 " fill-opacity="1" fill-rule="nonzero"/><path fill="#020000" d="M 156.054688 144.414062 C 156.054688 144.589844 155.992188 144.742188 155.871094 144.867188 C 155.746094 144.988281 155.59375 145.050781 155.417969 145.050781 C 155.242188 145.050781 155.09375 144.988281 154.96875 144.867188 C 154.84375 144.742188 154.785156 144.589844 154.785156 144.414062 C 154.785156 144.238281 154.84375 144.089844 154.96875 143.964844 C 155.09375 143.839844 155.242188 143.777344 155.417969 143.777344 C 155.59375 143.777344 155.746094 143.839844 155.871094 143.964844 C 155.992188 144.089844 156.054688 144.238281 156.054688 144.414062 Z M 156.054688 144.414062 " fill-opacity="1" fill-rule="nonzero"/><path fill="#020000" d="M 151.382812 48.742188 C 151.382812 48.917969 151.320312 49.066406 151.199219 49.191406 C 151.074219 49.316406 150.921875 49.378906 150.746094 49.378906 C 150.570312 49.378906 150.421875 49.316406 150.296875 49.191406 C 150.171875 49.066406 150.113281 48.917969 150.113281 48.742188 C 150.113281 48.566406 150.171875 48.414062 150.296875 48.292969 C 150.421875 48.167969 150.570312 48.105469 150.746094 48.105469 C 150.921875 48.105469 151.074219 48.167969 151.199219 48.292969 C 151.320312 48.414062 151.382812 48.566406 151.382812 48.742188 Z M 151.382812 48.742188 " fill-opacity="1" fill-rule="nonzero"/><path fill="#020000" d="M 110.5625 76.726562 C 110.5625 76.902344 110.5 77.054688 110.375 77.175781 C 110.25 77.300781 110.101562 77.363281 109.925781 77.363281 C 109.75 77.363281 109.597656 77.300781 109.476562 77.175781 C 109.351562 77.054688 109.289062 76.902344 109.289062 76.726562 C 109.289062 76.550781 109.351562 76.402344 109.476562 76.277344 C 109.597656 76.152344 109.75 76.089844 109.925781 76.089844 C 110.101562 76.089844 110.25 76.152344 110.375 76.277344 C 110.5 76.402344 110.5625 76.550781 110.5625 76.726562 Z M 110.5625 76.726562 " fill-opacity="1" fill-rule="nonzero"/><path fill="#020000" d="M 125.316406 80.988281 C 125.316406 81.164062 125.253906 81.3125 125.132812 81.4375 C 125.007812 81.5625 124.855469 81.625 124.683594 81.625 C 124.507812 81.625 124.355469 81.5625 124.230469 81.4375 C 124.109375 81.3125 124.046875 81.164062 124.046875 80.988281 C 124.046875 80.8125 124.109375 80.660156 124.230469 80.539062 C 124.355469 80.414062 124.507812 80.351562 124.683594 80.351562 C 124.855469 80.351562 125.007812 80.414062 125.132812 80.539062 C 125.253906 80.660156 125.316406 80.8125 125.316406 80.988281 Z M 125.316406 80.988281 " fill-opacity="1" fill-rule="nonzero"/><path fill="#020000" d="M 166.125 51.527344 C 166.125 51.703125 166.0625 51.851562 165.9375 51.976562 C 165.8125 52.101562 165.664062 52.164062 165.488281 52.164062 C 165.3125 52.164062 165.164062 52.101562 165.039062 51.976562 C 164.914062 51.851562 164.851562 51.703125 164.851562 51.527344 C 164.851562 51.351562 164.914062 51.203125 165.039062 51.078125 C 165.164062 50.953125 165.3125 50.890625 165.488281 50.890625 C 165.664062 50.890625 165.8125 50.953125 165.9375 51.078125 C 166.0625 51.203125 166.125 51.351562 166.125 51.527344 Z M 166.125 51.527344 " fill-opacity="1" fill-rule="nonzero"/><path fill="#020000" d="M 174.570312 79.179688 C 174.570312 79.355469 174.507812 79.503906 174.382812 79.628906 C 174.257812 79.753906 174.109375 79.816406 173.933594 79.816406 C 173.757812 79.816406 173.609375 79.753906 173.484375 79.628906 C 173.359375 79.503906 173.296875 79.355469 173.296875 79.179688 C 173.296875 79.003906 173.359375 78.851562 173.484375 78.726562 C 173.609375 78.605469 173.757812 78.542969 173.933594 78.542969 C 174.109375 78.542969 174.257812 78.605469 174.382812 78.726562 C 174.507812 78.851562 174.570312 79.003906 174.570312 79.179688 Z M 174.570312 79.179688 " fill-opacity="1" fill-rule="nonzero"/><path fill="#020000" d="M 119.132812 83.792969 C 119.132812 83.96875 119.070312 84.121094 118.949219 84.242188 C 118.824219 84.367188 118.671875 84.429688 118.496094 84.429688 C 118.320312 84.429688 118.171875 84.367188 118.046875 84.242188 C 117.925781 84.121094 117.863281 83.96875 117.863281 83.792969 C 117.863281 83.617188 117.925781 83.46875 118.046875 83.34375 C 118.171875 83.21875 118.320312 83.15625 118.496094 83.15625 C 118.671875 83.15625 118.824219 83.21875 118.949219 83.34375 C 119.070312 83.46875 119.132812 83.617188 119.132812 83.792969 Z M 119.132812 83.792969 " fill-opacity="1" fill-rule="nonzero"/><path fill="#020000" d="M 173.101562 157.601562 C 173.101562 157.777344 173.039062 157.929688 172.914062 158.054688 C 172.789062 158.175781 172.640625 158.238281 172.464844 158.238281 C 172.289062 158.238281 172.136719 158.175781 172.015625 158.054688 C 171.890625 157.929688 171.828125 157.777344 171.828125 157.601562 C 171.828125 157.425781 171.890625 157.277344 172.015625 157.152344 C 172.136719 157.027344 172.289062 156.964844 172.464844 156.964844 C 172.640625 156.964844 172.789062 157.027344 172.914062 157.152344 C 173.039062 157.277344 173.101562 157.425781 173.101562 157.601562 Z M 173.101562 157.601562 " fill-opacity="1" fill-rule="nonzero"/><path fill="#020000" d="M 154.652344 165.484375 C 154.652344 165.660156 154.589844 165.8125 154.464844 165.933594 C 154.339844 166.058594 154.191406 166.121094 154.015625 166.121094 C 153.839844 166.121094 153.691406 166.058594 153.566406 165.933594 C 153.441406 165.8125 153.378906 165.660156 153.378906 165.484375 C 153.378906 165.308594 153.441406 165.160156 153.566406 165.035156 C 153.691406 164.910156 153.839844 164.847656 154.015625 164.847656 C 154.191406 164.847656 154.339844 164.910156 154.464844 165.035156 C 154.589844 165.160156 154.652344 165.308594 154.652344 165.484375 Z M 154.652344 165.484375 " fill-opacity="1" fill-rule="nonzero"/><path fill="#020000" d="M 171.03125 192.644531 C 171.03125 192.820312 170.96875 192.96875 170.84375 193.09375 C 170.71875 193.21875 170.570312 193.277344 170.394531 193.277344 C 170.21875 193.277344 170.070312 193.21875 169.945312 193.09375 C 169.820312 192.96875 169.757812 192.820312 169.757812 192.644531 C 169.757812 192.46875 169.820312 192.316406 169.945312 192.191406 C 170.070312 192.066406 170.21875 192.007812 170.394531 192.007812 C 170.570312 192.007812 170.71875 192.066406 170.84375 192.191406 C 170.96875 192.316406 171.03125 192.46875 171.03125 192.644531 Z M 171.03125 192.644531 " fill-opacity="1" fill-rule="nonzero"/><path fill="#020000" d="M 165.660156 129.65625 C 165.660156 129.832031 165.597656 129.980469 165.472656 130.105469 C 165.347656 130.230469 165.199219 130.292969 165.023438 130.292969 C 164.847656 130.292969 164.695312 130.230469 164.574219 130.105469 C 164.449219 129.980469 164.386719 129.832031 164.386719 129.65625 C 164.386719 129.480469 164.449219 129.328125 164.574219 129.207031 C 164.695312 129.082031 164.847656 129.019531 165.023438 129.019531 C 165.199219 129.019531 165.347656 129.082031 165.472656 129.207031 C 165.597656 129.328125 165.660156 129.480469 165.660156 129.65625 Z M 165.660156 129.65625 " fill-opacity="1" fill-rule="nonzero"/><path fill="#020000" d="M 145.292969 138.964844 C 145.292969 139.140625 145.230469 139.289062 145.105469 139.414062 C 144.980469 139.539062 144.832031 139.601562 144.65625 139.601562 C 144.480469 139.601562 144.332031 139.539062 144.207031 139.414062 C 144.082031 139.289062 144.019531 139.140625 144.019531 138.964844 C 144.019531 138.789062 144.082031 138.640625 144.207031 138.515625 C 144.332031 138.390625 144.480469 138.328125 144.65625 138.328125 C 144.832031 138.328125 144.980469 138.390625 145.105469 138.515625 C 145.230469 138.640625 145.292969 138.789062 145.292969 138.964844 Z M 145.292969 138.964844 " fill-opacity="1" fill-rule="nonzero"/><path fill="#020000" d="M 147.632812 147.222656 C 147.632812 147.398438 147.570312 147.550781 147.445312 147.675781 C 147.320312 147.796875 147.171875 147.859375 146.996094 147.859375 C 146.820312 147.859375 146.671875 147.796875 146.546875 147.675781 C 146.421875 147.550781 146.359375 147.398438 146.359375 147.222656 C 146.359375 147.046875 146.421875 146.898438 146.546875 146.773438 C 146.671875 146.648438 146.820312 146.585938 146.996094 146.585938 C 147.171875 146.585938 147.320312 146.648438 147.445312 146.773438 C 147.570312 146.898438 147.632812 147.046875 147.632812 147.222656 Z M 147.632812 147.222656 " fill-opacity="1" fill-rule="nonzero"/><path fill="#020000" d="M 178.988281 175.785156 C 178.988281 175.960938 178.925781 176.113281 178.800781 176.234375 C 178.675781 176.359375 178.527344 176.421875 178.351562 176.421875 C 178.175781 176.421875 178.023438 176.359375 177.902344 176.234375 C 177.777344 176.113281 177.714844 175.960938 177.714844 175.785156 C 177.714844 175.609375 177.777344 175.460938 177.902344 175.335938 C 178.023438 175.210938 178.175781 175.148438 178.351562 175.148438 C 178.527344 175.148438 178.675781 175.210938 178.800781 175.335938 C 178.925781 175.460938 178.988281 175.609375 178.988281 175.785156 Z M 178.988281 175.785156 " fill-opacity="1" fill-rule="nonzero"/><path fill="#020000" d="M 176.179688 184.683594 C 176.179688 184.859375 176.117188 185.007812 175.992188 185.132812 C 175.867188 185.257812 175.71875 185.320312 175.542969 185.320312 C 175.367188 185.320312 175.21875 185.257812 175.09375 185.132812 C 174.96875 185.007812 174.90625 184.859375 174.90625 184.683594 C 174.90625 184.507812 174.96875 184.355469 175.09375 184.234375 C 175.21875 184.109375 175.367188 184.046875 175.542969 184.046875 C 175.71875 184.046875 175.867188 184.109375 175.992188 184.234375 C 176.117188 184.355469 176.179688 184.507812 176.179688 184.683594 Z M 176.179688 184.683594 " fill-opacity="1" fill-rule="nonzero"/><path fill="#020000" d="M 177.113281 194.515625 C 177.113281 194.691406 177.050781 194.839844 176.925781 194.964844 C 176.804688 195.089844 176.652344 195.152344 176.476562 195.152344 C 176.300781 195.152344 176.152344 195.089844 176.027344 194.964844 C 175.902344 194.839844 175.839844 194.691406 175.839844 194.515625 C 175.839844 194.339844 175.902344 194.1875 176.027344 194.066406 C 176.152344 193.941406 176.300781 193.878906 176.476562 193.878906 C 176.652344 193.878906 176.804688 193.941406 176.925781 194.066406 C 177.050781 194.1875 177.113281 194.339844 177.113281 194.515625 Z M 177.113281 194.515625 " fill-opacity="1" fill-rule="nonzero"/><path fill="#020000" d="M 172.269531 209.242188 C 172.269531 209.417969 172.207031 209.566406 172.085938 209.691406 C 171.960938 209.816406 171.808594 209.878906 171.636719 209.878906 C 171.460938 209.878906 171.308594 209.816406 171.183594 209.691406 C 171.0625 209.566406 171 209.417969 171 209.242188 C 171 209.066406 171.0625 208.914062 171.183594 208.789062 C 171.308594 208.667969 171.460938 208.605469 171.636719 208.605469 C 171.808594 208.605469 171.960938 208.667969 172.085938 208.789062 C 172.207031 208.914062 172.269531 209.066406 172.269531 209.242188 Z M 172.269531 209.242188 " fill-opacity="1" fill-rule="nonzero"/><path fill="#020000" d="M 162.609375 186.085938 C 162.609375 186.261719 162.546875 186.414062 162.421875 186.539062 C 162.296875 186.660156 162.148438 186.722656 161.972656 186.722656 C 161.796875 186.722656 161.644531 186.660156 161.523438 186.539062 C 161.398438 186.414062 161.335938 186.261719 161.335938 186.085938 C 161.335938 185.910156 161.398438 185.761719 161.523438 185.636719 C 161.644531 185.511719 161.796875 185.449219 161.972656 185.449219 C 162.148438 185.449219 162.296875 185.511719 162.421875 185.636719 C 162.546875 185.761719 162.609375 185.910156 162.609375 186.085938 Z M 162.609375 186.085938 " fill-opacity="1" fill-rule="nonzero"/><path fill="#020000" d="M 160.269531 173.914062 C 160.269531 174.089844 160.207031 174.238281 160.082031 174.363281 C 159.957031 174.488281 159.808594 174.550781 159.632812 174.550781 C 159.457031 174.550781 159.304688 174.488281 159.183594 174.363281 C 159.058594 174.238281 158.996094 174.089844 158.996094 173.914062 C 158.996094 173.738281 159.058594 173.585938 159.183594 173.460938 C 159.304688 173.339844 159.457031 173.277344 159.632812 173.277344 C 159.808594 173.277344 159.957031 173.339844 160.082031 173.460938 C 160.207031 173.585938 160.269531 173.738281 160.269531 173.914062 Z M 160.269531 173.914062 " fill-opacity="1" fill-rule="nonzero"/><path fill="#020000" d="M 171.914062 123.882812 C 171.914062 124.058594 171.851562 124.207031 171.726562 124.332031 C 171.605469 124.457031 171.453125 124.519531 171.277344 124.519531 C 171.101562 124.519531 170.953125 124.457031 170.828125 124.332031 C 170.703125 124.207031 170.640625 124.058594 170.640625 123.882812 C 170.640625 123.707031 170.703125 123.558594 170.828125 123.433594 C 170.953125 123.308594 171.101562 123.246094 171.277344 123.246094 C 171.453125 123.246094 171.605469 123.308594 171.726562 123.433594 C 171.851562 123.558594 171.914062 123.707031 171.914062 123.882812 Z M 171.914062 123.882812 " fill-opacity="1" fill-rule="nonzero"/><path fill="#020000" d="M 98.085938 81.644531 C 98.085938 81.820312 98.023438 81.96875 97.898438 82.09375 C 97.777344 82.21875 97.625 82.28125 97.449219 82.28125 C 97.273438 82.28125 97.125 82.21875 97 82.09375 C 96.875 81.96875 96.8125 81.820312 96.8125 81.644531 C 96.8125 81.46875 96.875 81.316406 97 81.195312 C 97.125 81.070312 97.273438 81.007812 97.449219 81.007812 C 97.625 81.007812 97.777344 81.070312 97.898438 81.195312 C 98.023438 81.316406 98.085938 81.46875 98.085938 81.644531 Z M 98.085938 81.644531 " fill-opacity="1" fill-rule="nonzero"/><path fill="#020000" d="M 115.136719 92.378906 C 115.136719 92.554688 115.074219 92.703125 114.949219 92.828125 C 114.824219 92.953125 114.675781 93.015625 114.5 93.015625 C 114.324219 93.015625 114.175781 92.953125 114.050781 92.828125 C 113.925781 92.703125 113.863281 92.554688 113.863281 92.378906 C 113.863281 92.203125 113.925781 92.050781 114.050781 91.929688 C 114.175781 91.804688 114.324219 91.742188 114.5 91.742188 C 114.675781 91.742188 114.824219 91.804688 114.949219 91.929688 C 115.074219 92.050781 115.136719 92.203125 115.136719 92.378906 Z M 115.136719 92.378906 " fill-opacity="1" fill-rule="nonzero"/><path fill="#020000" d="M 142.832031 79.039062 C 142.832031 79.214844 142.773438 79.363281 142.648438 79.488281 C 142.523438 79.613281 142.375 79.675781 142.199219 79.675781 C 142.023438 79.675781 141.871094 79.613281 141.746094 79.488281 C 141.625 79.363281 141.5625 79.214844 141.5625 79.039062 C 141.5625 78.863281 141.625 78.710938 141.746094 78.585938 C 141.871094 78.464844 142.023438 78.402344 142.199219 78.402344 C 142.375 78.402344 142.523438 78.464844 142.648438 78.585938 C 142.773438 78.710938 142.832031 78.863281 142.832031 79.039062 Z M 142.832031 79.039062 " fill-opacity="1" fill-rule="nonzero"/><path fill="#020000" d="M 132.484375 41.554688 C 132.484375 41.730469 132.421875 41.882812 132.296875 42.007812 C 132.175781 42.128906 132.023438 42.191406 131.847656 42.191406 C 131.671875 42.191406 131.523438 42.128906 131.398438 42.007812 C 131.273438 41.882812 131.210938 41.730469 131.210938 41.554688 C 131.210938 41.378906 131.273438 41.230469 131.398438 41.105469 C 131.523438 40.980469 131.671875 40.917969 131.847656 40.917969 C 132.023438 40.917969 132.175781 40.980469 132.296875 41.105469 C 132.421875 41.230469 132.484375 41.378906 132.484375 41.554688 Z M 132.484375 41.554688 " fill-opacity="1" fill-rule="nonzero"/><path fill="#020000" d="M 154.410156 38.789062 C 154.410156 38.964844 154.347656 39.113281 154.222656 39.238281 C 154.097656 39.363281 153.949219 39.425781 153.773438 39.425781 C 153.597656 39.425781 153.445312 39.363281 153.320312 39.238281 C 153.199219 39.113281 153.136719 38.964844 153.136719 38.789062 C 153.136719 38.613281 153.199219 38.464844 153.320312 38.339844 C 153.445312 38.214844 153.597656 38.152344 153.773438 38.152344 C 153.949219 38.152344 154.097656 38.214844 154.222656 38.339844 C 154.347656 38.464844 154.410156 38.613281 154.410156 38.789062 Z M 154.410156 38.789062 " fill-opacity="1" fill-rule="nonzero"/><path fill="#020000" d="M 81.921875 46.964844 C 81.921875 47.140625 81.859375 47.289062 81.738281 47.414062 C 81.613281 47.539062 81.460938 47.601562 81.285156 47.601562 C 81.113281 47.601562 80.960938 47.539062 80.835938 47.414062 C 80.714844 47.289062 80.652344 47.140625 80.652344 46.964844 C 80.652344 46.789062 80.714844 46.640625 80.835938 46.515625 C 80.960938 46.390625 81.113281 46.328125 81.285156 46.328125 C 81.460938 46.328125 81.613281 46.390625 81.738281 46.515625 C 81.859375 46.640625 81.921875 46.789062 81.921875 46.964844 Z M 81.921875 46.964844 " fill-opacity="1" fill-rule="nonzero"/><path fill="#020000" d="M 82.710938 26.683594 C 82.710938 26.859375 82.648438 27.011719 82.523438 27.136719 C 82.398438 27.261719 82.25 27.320312 82.074219 27.320312 C 81.898438 27.320312 81.746094 27.261719 81.625 27.136719 C 81.5 27.011719 81.4375 26.859375 81.4375 26.683594 C 81.4375 26.507812 81.5 26.359375 81.625 26.234375 C 81.746094 26.109375 81.898438 26.050781 82.074219 26.050781 C 82.25 26.050781 82.398438 26.109375 82.523438 26.234375 C 82.648438 26.359375 82.710938 26.507812 82.710938 26.683594 Z M 82.710938 26.683594 " fill-opacity="1" fill-rule="nonzero"/><path fill="#020000" d="M 61.164062 39.542969 C 61.164062 39.71875 61.101562 39.871094 60.976562 39.996094 C 60.851562 40.117188 60.703125 40.179688 60.527344 40.179688 C 60.351562 40.179688 60.203125 40.117188 60.078125 39.996094 C 59.953125 39.871094 59.890625 39.71875 59.890625 39.542969 C 59.890625 39.367188 59.953125 39.21875 60.078125 39.09375 C 60.203125 38.96875 60.351562 38.90625 60.527344 38.90625 C 60.703125 38.90625 60.851562 38.96875 60.976562 39.09375 C 61.101562 39.21875 61.164062 39.367188 61.164062 39.542969 Z M 61.164062 39.542969 " fill-opacity="1" fill-rule="nonzero"/><path fill="#020000" d="M 65.152344 128.265625 C 65.152344 128.441406 65.089844 128.589844 64.964844 128.714844 C 64.839844 128.839844 64.691406 128.902344 64.515625 128.902344 C 64.339844 128.902344 64.1875 128.839844 64.066406 128.714844 C 63.941406 128.589844 63.878906 128.441406 63.878906 128.265625 C 63.878906 128.089844 63.941406 127.9375 64.066406 127.816406 C 64.1875 127.691406 64.339844 127.628906 64.515625 127.628906 C 64.691406 127.628906 64.839844 127.691406 64.964844 127.816406 C 65.089844 127.9375 65.152344 128.089844 65.152344 128.265625 Z M 65.152344 128.265625 " fill-opacity="1" fill-rule="nonzero"/><path fill="#020000" d="M 89.988281 36.316406 C 89.988281 36.492188 89.925781 36.640625 89.800781 36.765625 C 89.675781 36.890625 89.527344 36.953125 89.351562 36.953125 C 89.175781 36.953125 89.027344 36.890625 88.902344 36.765625 C 88.777344 36.640625 88.714844 36.492188 88.714844 36.316406 C 88.714844 36.140625 88.777344 35.992188 88.902344 35.867188 C 89.027344 35.742188 89.175781 35.679688 89.351562 35.679688 C 89.527344 35.679688 89.675781 35.742188 89.800781 35.867188 C 89.925781 35.992188 89.988281 36.140625 89.988281 36.316406 Z M 89.988281 36.316406 " fill-opacity="1" fill-rule="nonzero"/><path fill="#020000" d="M 112.570312 15.71875 C 112.570312 15.894531 112.507812 16.042969 112.382812 16.167969 C 112.257812 16.292969 112.109375 16.355469 111.933594 16.355469 C 111.757812 16.355469 111.609375 16.292969 111.484375 16.167969 C 111.359375 16.042969 111.296875 15.894531 111.296875 15.71875 C 111.296875 15.542969 111.359375 15.394531 111.484375 15.269531 C 111.609375 15.144531 111.757812 15.082031 111.933594 15.082031 C 112.109375 15.082031 112.257812 15.144531 112.382812 15.269531 C 112.507812 15.394531 112.570312 15.542969 112.570312 15.71875 Z M 112.570312 15.71875 " fill-opacity="1" fill-rule="nonzero"/><path fill="#020000" d="M 93.21875 45.324219 C 93.21875 45.5 93.15625 45.648438 93.03125 45.773438 C 92.90625 45.898438 92.757812 45.960938 92.582031 45.960938 C 92.40625 45.960938 92.257812 45.898438 92.132812 45.773438 C 92.007812 45.648438 91.945312 45.5 91.945312 45.324219 C 91.945312 45.148438 92.007812 44.996094 92.132812 44.871094 C 92.257812 44.75 92.40625 44.6875 92.582031 44.6875 C 92.757812 44.6875 92.90625 44.75 93.03125 44.871094 C 93.15625 44.996094 93.21875 45.148438 93.21875 45.324219 Z M 93.21875 45.324219 " fill-opacity="1" fill-rule="nonzero"/><path fill="#020000" d="M 105.011719 22.527344 C 105.011719 22.703125 104.949219 22.851562 104.824219 22.976562 C 104.699219 23.101562 104.550781 23.164062 104.375 23.164062 C 104.199219 23.164062 104.050781 23.101562 103.925781 22.976562 C 103.800781 22.851562 103.738281 22.703125 103.738281 22.527344 C 103.738281 22.351562 103.800781 22.199219 103.925781 22.074219 C 104.050781 21.953125 104.199219 21.890625 104.375 21.890625 C 104.550781 21.890625 104.699219 21.953125 104.824219 22.074219 C 104.949219 22.199219 105.011719 22.351562 105.011719 22.527344 Z M 105.011719 22.527344 " fill-opacity="1" fill-rule="nonzero"/><path fill="#020000" d="M 117.699219 32.132812 C 117.699219 32.308594 117.636719 32.460938 117.511719 32.585938 C 117.386719 32.707031 117.238281 32.769531 117.0625 32.769531 C 116.886719 32.769531 116.738281 32.707031 116.613281 32.585938 C 116.488281 32.460938 116.425781 32.308594 116.425781 32.132812 C 116.425781 31.957031 116.488281 31.808594 116.613281 31.683594 C 116.738281 31.558594 116.886719 31.496094 117.0625 31.496094 C 117.238281 31.496094 117.386719 31.558594 117.511719 31.683594 C 117.636719 31.808594 117.699219 31.957031 117.699219 32.132812 Z M 117.699219 32.132812 " fill-opacity="1" fill-rule="nonzero"/><path fill="#020000" d="M 122.28125 45.300781 C 120.980469 45.210938 119.644531 46.019531 118.695312 47.457031 C 118.335938 48.03125 118.015625 48.625 117.730469 49.242188 C 117.464844 49.824219 117.160156 50.386719 116.824219 50.925781 C 116.152344 51.957031 115.253906 52.597656 114.382812 52.703125 C 113.074219 52.375 111.769531 52.378906 110.460938 52.714844 C 109.5625 52.632812 108.648438 51.984375 107.949219 50.925781 C 107.609375 50.386719 107.308594 49.824219 107.042969 49.242188 C 106.757812 48.625 106.4375 48.03125 106.074219 47.457031 C 105.128906 46.019531 103.785156 45.210938 102.488281 45.300781 C 102.371094 45.304688 102.269531 45.347656 102.191406 45.4375 C 102.109375 45.523438 102.074219 45.628906 102.082031 45.746094 C 102.089844 45.863281 102.140625 45.960938 102.230469 46.039062 C 102.320312 46.113281 102.425781 46.144531 102.542969 46.132812 C 103.546875 46.070312 104.597656 46.734375 105.378906 47.917969 C 105.722656 48.460938 106.023438 49.023438 106.289062 49.609375 C 106.574219 50.222656 106.894531 50.816406 107.253906 51.390625 C 107.730469 52.148438 108.363281 52.746094 109.152344 53.179688 C 108.875 53.304688 108.605469 53.441406 108.34375 53.597656 C 108.082031 53.753906 107.832031 53.921875 107.589844 54.105469 C 107.347656 54.289062 107.117188 54.488281 106.898438 54.695312 C 106.679688 54.90625 106.472656 55.128906 106.277344 55.363281 C 106.082031 55.59375 105.902344 55.839844 105.734375 56.09375 C 105.570312 56.347656 105.417969 56.609375 105.28125 56.878906 C 105.144531 57.152344 105.023438 57.429688 104.917969 57.714844 C 104.8125 58 104.722656 58.289062 104.652344 58.585938 C 104.578125 58.878906 104.523438 59.179688 104.484375 59.480469 C 104.445312 59.78125 104.425781 60.082031 104.421875 60.386719 C 104.417969 60.691406 104.429688 60.992188 104.460938 61.296875 C 104.488281 61.597656 104.539062 61.898438 104.601562 62.195312 C 104.664062 62.492188 104.746094 62.785156 104.84375 63.070312 C 104.941406 63.359375 105.054688 63.640625 105.183594 63.914062 C 105.3125 64.191406 105.457031 64.457031 105.617188 64.714844 C 105.777344 64.972656 105.953125 65.222656 106.140625 65.460938 C 106.328125 65.699219 106.527344 65.925781 106.742188 66.144531 C 106.953125 66.359375 107.179688 66.5625 107.417969 66.753906 C 107.652344 66.941406 107.898438 67.117188 108.15625 67.28125 C 108.414062 67.441406 108.679688 67.589844 108.953125 67.722656 C 109.226562 67.855469 109.503906 67.972656 109.792969 68.070312 C 110.078125 68.171875 110.371094 68.253906 110.667969 68.324219 C 110.960938 68.390625 111.261719 68.441406 111.5625 68.472656 C 111.863281 68.507812 112.167969 68.523438 112.472656 68.519531 C 112.773438 68.519531 113.078125 68.5 113.378906 68.464844 C 113.679688 68.429688 113.980469 68.378906 114.273438 68.308594 C 114.570312 68.238281 114.859375 68.152344 115.148438 68.050781 C 115.433594 67.949219 115.710938 67.828125 115.984375 67.695312 C 116.257812 67.5625 116.519531 67.410156 116.777344 67.246094 C 117.03125 67.082031 117.277344 66.90625 117.511719 66.714844 C 117.746094 66.519531 117.96875 66.316406 118.183594 66.097656 C 118.394531 65.882812 118.59375 65.652344 118.777344 65.410156 C 118.964844 65.171875 119.136719 64.921875 119.292969 64.664062 C 119.453125 64.402344 119.59375 64.136719 119.722656 63.859375 C 119.847656 63.582031 119.960938 63.300781 120.054688 63.011719 C 120.152344 62.722656 120.230469 62.429688 120.292969 62.132812 C 120.351562 61.835938 120.398438 61.535156 120.425781 61.234375 C 120.453125 60.929688 120.464844 60.628906 120.457031 60.324219 C 120.453125 60.019531 120.429688 59.71875 120.386719 59.417969 C 120.347656 59.117188 120.289062 58.820312 120.214844 58.523438 C 120.140625 58.230469 120.046875 57.941406 119.941406 57.65625 C 119.832031 57.371094 119.710938 57.09375 119.570312 56.824219 C 119.433594 56.554688 119.277344 56.292969 119.109375 56.039062 C 118.941406 55.789062 118.757812 55.546875 118.5625 55.3125 C 118.367188 55.082031 118.15625 54.863281 117.9375 54.652344 C 117.714844 54.445312 117.484375 54.25 117.242188 54.070312 C 116.996094 53.886719 116.746094 53.71875 116.480469 53.566406 C 116.21875 53.414062 115.949219 53.277344 115.671875 53.152344 C 116.4375 52.722656 117.050781 52.136719 117.519531 51.394531 C 117.878906 50.824219 118.199219 50.230469 118.480469 49.617188 C 118.746094 49.03125 119.050781 48.464844 119.394531 47.921875 C 120.171875 46.742188 121.230469 46.074219 122.226562 46.136719 C 122.34375 46.144531 122.441406 46.109375 122.527344 46.035156 C 122.613281 45.957031 122.664062 45.863281 122.671875 45.75 C 122.679688 45.632812 122.644531 45.53125 122.570312 45.445312 C 122.496094 45.355469 122.398438 45.308594 122.28125 45.300781 Z M 119.625 60.488281 C 119.625 60.933594 119.585938 61.375 119.503906 61.8125 C 119.421875 62.25 119.300781 62.675781 119.136719 63.09375 C 118.976562 63.507812 118.78125 63.902344 118.542969 64.28125 C 118.308594 64.660156 118.042969 65.011719 117.742188 65.34375 C 117.441406 65.671875 117.113281 65.96875 116.757812 66.234375 C 116.402344 66.503906 116.023438 66.734375 115.625 66.933594 C 115.226562 67.132812 114.8125 67.289062 114.386719 67.410156 C 113.957031 67.53125 113.519531 67.609375 113.078125 67.652344 C 112.632812 67.691406 112.191406 67.6875 111.75 67.644531 C 111.304688 67.601562 110.871094 67.519531 110.441406 67.394531 C 110.015625 67.273438 109.601562 67.109375 109.207031 66.910156 C 108.808594 66.710938 108.433594 66.472656 108.078125 66.203125 C 107.726562 65.933594 107.398438 65.632812 107.101562 65.300781 C 106.804688 64.972656 106.539062 64.617188 106.308594 64.234375 C 106.074219 63.855469 105.878906 63.457031 105.722656 63.042969 C 105.566406 62.625 105.445312 62.199219 105.367188 61.761719 C 105.289062 61.320312 105.25 60.878906 105.253906 60.433594 C 105.257812 59.988281 105.300781 59.546875 105.386719 59.109375 C 105.472656 58.675781 105.597656 58.25 105.761719 57.835938 C 105.925781 57.421875 106.128906 57.027344 106.367188 56.648438 C 106.601562 56.273438 106.875 55.921875 107.175781 55.597656 C 107.480469 55.269531 107.808594 54.972656 108.167969 54.710938 C 108.523438 54.445312 108.902344 54.214844 109.304688 54.019531 C 109.703125 53.828125 110.121094 53.671875 110.550781 53.554688 L 110.824219 53.492188 C 110.917969 53.46875 111.007812 53.445312 111.101562 53.425781 C 111.542969 53.339844 111.988281 53.300781 112.441406 53.300781 C 112.84375 53.300781 113.246094 53.335938 113.644531 53.402344 C 113.871094 53.4375 114.09375 53.488281 114.316406 53.546875 C 115.078125 53.753906 115.785156 54.078125 116.441406 54.519531 C 117.09375 54.960938 117.664062 55.492188 118.140625 56.121094 C 118.621094 56.746094 118.988281 57.433594 119.242188 58.183594 C 119.496094 58.929688 119.625 59.699219 119.625 60.488281 Z M 119.625 60.488281 " fill-opacity="1" fill-rule="nonzero"/></svg>